<?xml version="1.0" encoding="UTF-8" ?>
<!DOCTYPE svg PUBLIC "-//W3C//DTD SVG 1.1//EN" "http://www.w3.org/Graphics/SVG/1.1/DTD/svg11.dtd">
<svg width="32pt" height="32pt" viewBox="0 0 32 32" version="1.1" xmlns="http://www.w3.org/2000/svg">
<g id="#ffffffff">
<path fill="#ffffff" opacity="1.00" d=" M 14.56 0.00 L 17.23 0.00 C 24.87 0.54 31.34 6.97 32.00 14.58 L 32.00 17.26 C 31.44 24.88 25.03 31.34 17.42 32.00 L 14.76 32.00 C 7.13 31.46 0.66 25.03 0.00 17.42 L 0.00 14.74 C 0.56 7.12 6.97 0.68 14.56 0.00 M 7.11 9.84 C 8.82 12.13 11.07 13.94 13.04 16.00 C 11.09 18.06 8.84 19.85 7.13 22.13 C 5.62 23.65 8.31 26.35 9.83 24.90 C 12.12 23.18 13.94 20.93 16.00 18.95 C 18.06 20.94 19.90 23.19 22.18 24.92 C 23.72 26.31 26.33 23.68 24.89 22.16 C 23.18 19.87 20.92 18.06 18.96 16.00 C 20.91 13.94 23.16 12.14 24.88 9.87 C 26.40 8.33 23.60 5.57 22.12 7.14 C 19.84 8.85 18.05 11.09 16.00 13.04 C 13.94 11.07 12.12 8.82 9.83 7.09 C 8.30 5.66 5.64 8.34 7.11 9.84 Z" />
</g>
</svg>
