<?xml version="1.0" encoding="UTF-8" standalone="no"?>
<!-- Generator: Adobe Illustrator 23.1.0, SVG Export Plug-In . SVG Version: 6.00 Build 0)  -->

<svg
   version="1.1"
   id="Layer_1"
   x="0px"
   y="0px"
   viewBox="0 0 875.4 418.4"
   style="enable-background:new 0 0 875.4 418.4;"
   xml:space="preserve"
   sodipodi:docname="pattern-basic.svg"
   inkscape:version="1.1.1 (3bf5ae0d25, 2021-09-20)"
   xmlns:inkscape="http://www.inkscape.org/namespaces/inkscape"
   xmlns:sodipodi="http://sodipodi.sourceforge.net/DTD/sodipodi-0.dtd"
   xmlns="http://www.w3.org/2000/svg"
   xmlns:svg="http://www.w3.org/2000/svg"><defs
   id="defs25" /><sodipodi:namedview
   id="namedview23"
   pagecolor="#ffffff"
   bordercolor="#666666"
   borderopacity="1.0"
   inkscape:pageshadow="2"
   inkscape:pageopacity="0.0"
   inkscape:pagecheckerboard="0"
   showgrid="false"
   inkscape:zoom="0.30214758"
   inkscape:cx="-243.25861"
   inkscape:cy="21.512666"
   inkscape:window-width="1360"
   inkscape:window-height="705"
   inkscape:window-x="-8"
   inkscape:window-y="-8"
   inkscape:window-maximized="1"
   inkscape:current-layer="Layer_1" />
<style
   type="text/css"
   id="style2">
	.st0{fill:#FAED6C;}
</style>
<g
   id="g20"
   style="opacity:0.4;fill:#55ddff;stroke:#37abc8">
	<path
   class="st0"
   d="m 331.4,64.8 c -0.9,-2.1 -3.1,-3.3 -5.4,-2.9 0,0 -117.2,21.2 -124.3,22.5 C 198.9,78 166.8,6 166.8,6 166,4.3 164.3,3.1 162.4,3.1 c -1.9,0 -3.7,1.1 -4.5,2.8 0,0 -41.3,88.9 -43.3,93.3 C 110,100.1 9,118.3 9,118.3 c -2,0.4 -3.6,2 -3.9,4 -0.1,0.6 -0.1,1.1 0,1.7 0.3,1.4 1.1,2.6 2.4,3.4 0,0 67.1,37.4 74.3,41.4 -3.6,7.6 -49.9,104.8 -49.9,104.8 -0.5,1 -0.6,2 -0.4,3 0.2,1.1 0.8,2.1 1.7,2.9 1.7,1.4 4.2,1.5 6,0.1 l 45.9,-34.4 c -0.2,0.1 23.3,-16 23.3,-16 0,0 32,-21.9 36.3,-24.8 5.1,2.8 137.7,76.9 137.7,76.9 1.8,1 4.1,0.8 5.7,-0.7 1.2,-1.2 1.8,-2.9 1.5,-4.5 -0.1,-0.4 -0.2,-0.8 -0.4,-1.2 0,0 -57.9,-124 -61.1,-130.9 5.3,-3.9 30.6,-22.2 30.6,-22.2 l 71.1,-51.1 c 1.6,-1.1 2.3,-3 2,-4.9 -0.1,-0.4 -0.2,-0.7 -0.4,-1 z m -45.9,22.5 -53,38.2 c 0,0 -18.8,13.6 -22.8,16.5 2.4,5.1 45.5,97.5 45.5,97.5 0.1,0.3 0.2,0.6 0.3,0.9 0.2,1.2 -0.2,2.5 -1.1,3.3 -1.2,1.1 -2.9,1.3 -4.2,0.5 0,0 -98.8,-55.2 -102.6,-57.3 -3.2,2.2 -27,18.5 -27,18.5 0,0 -17.5,12 -17.3,11.9 l -34.2,25.6 c -1.3,1 -3.2,1 -4.5,-0.1 -0.7,-0.6 -1.1,-1.3 -1.3,-2.1 -0.1,-0.7 0,-1.5 0.3,-2.2 0,0 34.4,-72.4 37.2,-78.1 -5.4,-3 -55.3,-30.9 -55.3,-30.9 -1,-0.5 -1.6,-1.5 -1.8,-2.5 -0.1,-0.4 -0.1,-0.8 0,-1.3 0.3,-1.5 1.4,-2.7 2.9,-3 0,0 75.2,-13.6 78.8,-14.2 1.5,-3.3 32.3,-69.5 32.3,-69.5 0.6,-1.3 1.9,-2.1 3.3,-2.1 1.4,0 2.7,0.9 3.3,2.2 0,0 23.9,53.6 26,58.4 5.3,-1 92.6,-16.8 92.6,-16.8 1.7,-0.3 3.3,0.6 4,2.2 0.1,0.2 0.2,0.5 0.2,0.8 0.1,1.3 -0.4,2.7 -1.6,3.6 z"
   id="path4"
   style="fill:#55ddff;stroke:#37abc8" />
	<path
   class="st0"
   d="m 868.5,166.6 c -0.9,-2.1 -3.1,-3.3 -5.4,-2.9 0,0 -117.2,21.2 -124.3,22.5 -2.8,-6.4 -34.9,-78.4 -34.9,-78.4 -0.8,-1.7 -2.5,-2.9 -4.4,-2.9 -1.9,0 -3.7,1.1 -4.5,2.8 0,0 -41.3,88.9 -43.3,93.3 -4.8,0.9 -105.7,19.1 -105.7,19.1 -2,0.4 -3.6,2 -3.9,4 -0.1,0.6 -0.1,1.1 0,1.7 0.3,1.4 1.1,2.6 2.4,3.4 0,0 67.1,37.4 74.3,41.4 -3.6,7.6 -49.9,104.8 -49.9,104.8 -0.5,1 -0.6,2 -0.4,3 0.2,1.1 0.8,2.1 1.7,2.9 1.7,1.4 4.2,1.5 6,0.1 L 622.1,347 c -0.2,0.1 23.3,-16 23.3,-16 0,0 32,-21.9 36.3,-24.8 5.1,2.8 137.7,76.9 137.7,76.9 1.8,1 4.1,0.8 5.7,-0.7 1.2,-1.2 1.8,-2.9 1.5,-4.5 -0.1,-0.4 -0.2,-0.8 -0.4,-1.2 0,0 -57.9,-124 -61.1,-130.9 5.3,-3.9 30.6,-22.2 30.6,-22.2 l 71.1,-51.3 c 1.6,-1.1 2.3,-3 2,-4.9 -0.1,-0.2 -0.2,-0.5 -0.3,-0.8 z m -45.9,22.5 -53,38.2 c 0,0 -18.8,13.6 -22.8,16.5 2.4,5.1 45.5,97.5 45.5,97.5 0.1,0.3 0.2,0.6 0.3,0.9 0.2,1.2 -0.2,2.5 -1.1,3.3 -1.2,1.1 -2.9,1.3 -4.2,0.5 0,0 -98.8,-55.2 -102.6,-57.3 -3.2,2.2 -27,18.5 -27,18.5 0,0 -17.5,12 -17.3,11.9 l -34.2,25.6 c -1.3,1 -3.2,1 -4.5,-0.1 -0.7,-0.6 -1.1,-1.3 -1.3,-2.1 -0.1,-0.7 0,-1.5 0.3,-2.2 0,0 34.4,-72.4 37.2,-78.1 -5.4,-3 -55.3,-30.9 -55.3,-30.9 -1,-0.5 -1.6,-1.5 -1.8,-2.5 -0.1,-0.4 -0.1,-0.8 0,-1.3 0.3,-1.5 1.4,-2.7 2.9,-3 0,0 75.2,-13.6 78.8,-14.2 1.5,-3.3 32.3,-69.5 32.3,-69.5 0.6,-1.3 1.9,-2.1 3.3,-2.1 1.4,0 2.7,0.9 3.3,2.2 0,0 23.9,53.6 26,58.4 5.3,-1 92.6,-16.8 92.6,-16.8 1.7,-0.3 3.3,0.6 4,2.2 0.1,0.2 0.2,0.5 0.2,0.8 0.1,1.3 -0.5,2.7 -1.6,3.6 z"
   id="path6"
   style="fill:#55ddff;stroke:#37abc8" />
	<path
   class="st0"
   d="m 560.7,53.7 c -0.4,-1 -1.4,-1.5 -2.4,-1.3 0,0 -53.2,9.6 -56.4,10.2 C 500.5,59.7 486,27 486,27 c -0.4,-0.8 -1.1,-1.3 -2,-1.3 -0.9,0 -1.7,0.5 -2,1.3 0,0 -18.8,40.4 -19.7,42.4 -2.2,0.4 -48,8.7 -48,8.7 -0.9,0.2 -1.6,0.9 -1.8,1.8 0,0.3 0,0.5 0,0.8 0.1,0.6 0.5,1.2 1.1,1.5 0,0 30.5,17 33.7,18.8 -1.7,3.5 -22.6,47.6 -22.6,47.6 -0.2,0.4 -0.3,0.9 -0.2,1.4 0.1,0.5 0.4,1 0.8,1.3 0.8,0.6 1.9,0.7 2.7,0.1 l 20.8,-15.6 c -0.1,0 10.6,-7.3 10.6,-7.3 0,0 14.5,-9.9 16.5,-11.3 2.3,1.3 62.5,34.9 62.5,34.9 0.8,0.5 1.9,0.3 2.6,-0.3 0.6,-0.5 0.8,-1.3 0.7,-2 0,-0.2 -0.1,-0.4 -0.2,-0.5 0,0 -26.3,-56.3 -27.7,-59.4 2.4,-1.8 13.9,-10.1 13.9,-10.1 L 560,56.5 c 0.7,-0.5 1,-1.4 0.9,-2.2 -0.1,-0.3 -0.2,-0.5 -0.2,-0.6 z m -20.9,10.2 -24,17.3 c 0,0 -8.5,6.2 -10.4,7.5 1.1,2.3 20.7,44.3 20.7,44.3 0.1,0.1 0.1,0.3 0.1,0.4 0.1,0.5 -0.1,1.1 -0.5,1.5 -0.5,0.5 -1.3,0.6 -1.9,0.2 0,0 -44.9,-25.1 -46.6,-26 -1.5,1 -12.3,8.4 -12.3,8.4 0,0 -7.9,5.5 -7.9,5.4 l -15.5,11.6 c -0.6,0.5 -1.4,0.4 -2,0 -0.3,-0.3 -0.5,-0.6 -0.6,-1 -0.1,-0.3 0,-0.7 0.1,-1 0,0 15.6,-32.9 16.9,-35.5 -2.4,-1.4 -25.1,-14 -25.1,-14 -0.4,-0.2 -0.7,-0.7 -0.8,-1.1 0,-0.2 0,-0.4 0,-0.6 0.1,-0.7 0.6,-1.2 1.3,-1.4 0,0 34.2,-6.2 35.8,-6.4 0.7,-1.5 14.7,-31.6 14.7,-31.6 0.3,-0.6 0.9,-1 1.5,-1 0.6,0 1.2,0.4 1.5,1 0,0 10.8,24.3 11.8,26.5 2.4,-0.4 42,-7.6 42,-7.6 0.8,-0.1 1.5,0.3 1.8,1 0,0.1 0.1,0.2 0.1,0.3 0.1,0.8 -0.1,1.4 -0.7,1.8 z"
   id="path8"
   style="fill:#55ddff;stroke:#37abc8" />
	<path
   class="st0"
   d="m 542.4,277 c -0.2,-0.5 -0.8,-0.8 -1.3,-0.7 0,0 -29.3,5.3 -31.1,5.6 -0.7,-1.6 -8.7,-19.6 -8.7,-19.6 -0.2,-0.4 -0.6,-0.7 -1.1,-0.7 -0.5,0 -0.9,0.3 -1.1,0.7 0,0 -10.3,22.2 -10.8,23.3 -1.2,0.2 -26.4,4.8 -26.4,4.8 -0.5,0.1 -0.9,0.5 -1,1 0,0.1 0,0.3 0,0.4 0.1,0.4 0.3,0.7 0.6,0.8 0,0 16.8,9.4 18.6,10.4 -0.9,1.9 -12.5,26.2 -12.5,26.2 -0.1,0.2 -0.1,0.5 -0.1,0.7 0.1,0.3 0.2,0.5 0.4,0.7 0.4,0.4 1.1,0.4 1.5,0 l 11.5,-8.6 5.8,-4 c 0,0 8,-5.5 9.1,-6.2 1.3,0.7 34.4,19.2 34.4,19.2 0.5,0.3 1,0.2 1.4,-0.2 0.3,-0.3 0.4,-0.7 0.4,-1.1 0,-0.1 0,-0.2 -0.1,-0.3 0,0 -14.5,-31 -15.3,-32.7 1.3,-1 7.7,-5.5 7.7,-5.5 l 17.8,-12.8 c 0.4,-0.3 0.6,-0.8 0.5,-1.2 -0.2,0 -0.2,-0.1 -0.2,-0.2 z m -11.5,5.6 -13.2,9.6 c 0,0 -4.7,3.4 -5.7,4.1 0.6,1.3 11.4,24.4 11.4,24.4 0,0.1 0.1,0.1 0.1,0.2 0.1,0.3 0,0.6 -0.3,0.8 -0.3,0.3 -0.7,0.3 -1.1,0.1 0,0 -24.7,-13.8 -25.7,-14.3 -0.8,0.6 -6.8,4.6 -6.8,4.6 0,0 -4.4,3 -4.3,3 l -8.5,6.4 c -0.3,0.3 -0.8,0.2 -1.1,0 -0.2,-0.1 -0.3,-0.3 -0.3,-0.5 0,-0.2 0,-0.4 0.1,-0.6 0,0 8.6,-18.1 9.3,-19.5 -1.3,-0.7 -13.8,-7.7 -13.8,-7.7 -0.2,-0.1 -0.4,-0.4 -0.5,-0.6 0,-0.1 0,-0.2 0,-0.3 0.1,-0.4 0.4,-0.7 0.7,-0.7 0,0 18.8,-3.4 19.7,-3.6 0.4,-0.8 8.1,-17.4 8.1,-17.4 0.1,-0.3 0.5,-0.5 0.8,-0.5 0.4,0 0.7,0.2 0.8,0.5 0,0 6,13.4 6.5,14.6 1.3,-0.2 23.2,-4.2 23.2,-4.2 0.4,-0.1 0.8,0.1 1,0.5 0,0.1 0,0.1 0.1,0.2 -0.1,0.4 -0.2,0.7 -0.5,0.9 z"
   id="path10"
   style="fill:#55ddff;stroke:#37abc8" />
	<path
   class="st0"
   d="m 374.5,175.6 c -0.1,-0.3 -0.5,-0.6 -0.8,-0.5 0,0 -16.6,3 -17.6,3.2 -0.4,-1.1 -5.3,-13 -5.3,-13 -0.1,-0.3 -0.4,-0.5 -0.6,-0.5 -0.3,0 -0.5,0.2 -0.6,0.4 0,0 -5.5,14.4 -5.8,15.1 -0.7,0.1 -15,2.7 -15,2.7 -0.3,0.1 -0.5,0.3 -0.5,0.6 0,0.1 0,0.2 0,0.3 0,0.2 0.2,0.4 0.4,0.6 0,0 9.7,6.4 10.8,7.1 -0.5,1.2 -6.7,17 -6.7,17 -0.1,0.2 -0.1,0.3 0,0.5 0,0.2 0.1,0.4 0.3,0.5 0.3,0.2 0.6,0.3 0.9,0 l 6.4,-5.5 3.3,-2.5 c 0,0 4.5,-3.5 5.1,-3.9 0.7,0.5 20,13.2 20,13.2 0.3,0.2 0.6,0.1 0.8,-0.1 0.2,-0.2 0.2,-0.5 0.2,-0.7 0,-0.1 0,-0.1 -0.1,-0.2 0,0 -8.8,-20.6 -9.3,-21.7 0.7,-0.6 4.3,-3.5 4.3,-3.5 l 9.9,-8.1 c 0.2,-0.2 0.3,-0.5 0.3,-0.8 -0.4,-0.1 -0.4,-0.2 -0.4,-0.2 z m -6.5,3.5 -7.4,6 c 0,0 -2.6,2.2 -3.2,2.6 0.4,0.9 6.9,16.2 6.9,16.2 v 0.1 c 0,0.2 0,0.4 -0.1,0.5 -0.2,0.2 -0.4,0.2 -0.6,0.1 0,0 -14.3,-9.5 -14.9,-9.8 -0.4,0.3 -3.8,2.9 -3.8,2.9 l -2.4,1.9 -4.8,4.1 c -0.2,0.2 -0.5,0.1 -0.6,0 -0.1,-0.1 -0.2,-0.2 -0.2,-0.4 0,-0.1 0,-0.2 0,-0.4 0,0 4.6,-11.7 5,-12.7 -0.8,-0.5 -8,-5.3 -8,-5.3 -0.1,-0.1 -0.2,-0.2 -0.3,-0.4 0,-0.1 0,-0.1 0,-0.2 0,-0.2 0.2,-0.4 0.4,-0.5 0,0 10.7,-1.9 11.2,-2 0.2,-0.5 4.3,-11.3 4.3,-11.3 0.1,-0.2 0.3,-0.3 0.5,-0.3 0.2,0 0.4,0.2 0.5,0.4 0,0 3.6,8.9 3.9,9.7 0.8,-0.1 13.1,-2.4 13.1,-2.4 0.2,0 0.5,0.1 0.6,0.4 v 0.1 c 0.2,0.3 0.1,0.5 -0.1,0.7 z"
   id="path12"
   style="fill:#55ddff;stroke:#37abc8" />
	<path
   class="st0"
   d="m 191.7,285.8 c -0.2,-0.5 -0.8,-0.8 -1.3,-0.7 0,0 -29.3,5.3 -31.1,5.6 -0.7,-1.6 -8.7,-19.6 -8.7,-19.6 -0.2,-0.4 -0.6,-0.7 -1.1,-0.7 -0.5,0 -0.9,0.3 -1.1,0.7 0,0 -10.3,22.2 -10.8,23.3 -1.2,0.2 -26.4,4.8 -26.4,4.8 -0.5,0.1 -0.9,0.5 -1,1 0,0.1 0,0.3 0,0.4 0.1,0.4 0.3,0.7 0.6,0.8 0,0 16.8,9.4 18.6,10.4 -0.9,1.9 -12.5,26.2 -12.5,26.2 -0.1,0.2 -0.1,0.5 -0.1,0.7 0.1,0.3 0.2,0.5 0.4,0.7 0.4,0.4 1.1,0.4 1.5,0 l 11.5,-8.6 5.8,-4 c 0,0 8,-5.5 9.1,-6.2 1.3,0.7 34.4,19.2 34.4,19.2 0.5,0.3 1,0.2 1.4,-0.2 0.3,-0.3 0.4,-0.7 0.4,-1.1 0,-0.1 0,-0.2 -0.1,-0.3 0,0 -14.5,-31 -15.3,-32.7 1.3,-1 7.7,-5.5 7.7,-5.5 l 17.8,-12.8 c 0.4,-0.3 0.6,-0.8 0.5,-1.2 -0.2,0 -0.2,-0.1 -0.2,-0.2 z m -11.5,5.6 -13.2,9.6 c 0,0 -4.7,3.4 -5.7,4.1 0.6,1.3 11.4,24.4 11.4,24.4 0,0.1 0.1,0.1 0.1,0.2 0.1,0.3 0,0.6 -0.3,0.8 -0.3,0.3 -0.7,0.3 -1.1,0.1 0,0 -24.7,-13.8 -25.7,-14.3 -0.8,0.6 -6.8,4.6 -6.8,4.6 0,0 -4.4,3 -4.3,3 l -8.5,6.4 c -0.3,0.3 -0.8,0.2 -1.1,0 -0.2,-0.1 -0.3,-0.3 -0.3,-0.5 0,-0.2 0,-0.4 0.1,-0.6 0,0 8.6,-18.1 9.3,-19.5 -1.3,-0.7 -13.8,-7.7 -13.8,-7.7 -0.2,-0.1 -0.4,-0.4 -0.5,-0.6 0,-0.1 0,-0.2 0,-0.3 0.1,-0.4 0.4,-0.7 0.7,-0.7 0,0 18.8,-3.4 19.7,-3.6 0.4,-0.8 8.1,-17.4 8.1,-17.4 0.1,-0.3 0.5,-0.5 0.8,-0.5 0.4,0 0.7,0.2 0.8,0.5 0,0 6,13.4 6.5,14.6 1.3,-0.2 23.2,-4.2 23.2,-4.2 0.4,-0.1 0.8,0.1 1,0.5 0,0.1 0,0.1 0.1,0.2 -0.1,0.3 -0.2,0.7 -0.5,0.9 z"
   id="path14"
   style="fill:#55ddff;stroke:#37abc8" />
	<path
   class="st0"
   d="m 303,333.9 c -0.1,-0.3 -0.5,-0.6 -0.8,-0.5 0,0 -16.6,3 -17.6,3.2 -0.4,-1.1 -5.3,-13 -5.3,-13 -0.1,-0.3 -0.4,-0.5 -0.6,-0.5 -0.3,0 -0.5,0.2 -0.6,0.4 0,0 -5.5,14.4 -5.8,15.1 -0.7,0.1 -15,2.7 -15,2.7 -0.3,0.1 -0.5,0.3 -0.5,0.6 0,0.1 0,0.2 0,0.3 0,0.2 0.2,0.4 0.4,0.6 0,0 9.7,6.4 10.8,7.1 -0.5,1.2 -6.7,17 -6.7,17 -0.1,0.2 -0.1,0.3 0,0.5 0,0.2 0.1,0.4 0.3,0.5 0.3,0.2 0.6,0.3 0.9,0 l 6.4,-5.5 3.3,-2.5 c 0,0 4.5,-3.5 5.1,-3.9 0.7,0.5 20,13.2 20,13.2 0.3,0.2 0.6,0.1 0.8,-0.1 0.2,-0.2 0.2,-0.5 0.2,-0.7 0,-0.1 0,-0.1 -0.1,-0.2 0,0 -8.8,-20.6 -9.3,-21.7 0.7,-0.6 4.3,-3.5 4.3,-3.5 l 9.9,-8.1 c 0.2,-0.2 0.3,-0.5 0.3,-0.8 -0.3,-0.1 -0.4,-0.1 -0.4,-0.2 z m -6.4,3.5 -7.4,6 c 0,0 -2.6,2.2 -3.2,2.6 0.4,0.9 6.9,16.2 6.9,16.2 v 0.1 c 0,0.2 0,0.4 -0.1,0.5 -0.2,0.2 -0.4,0.2 -0.6,0.1 0,0 -14.3,-9.5 -14.9,-9.8 -0.4,0.3 -3.8,2.9 -3.8,2.9 l -2.4,1.9 -4.8,4.1 c -0.2,0.2 -0.5,0.1 -0.6,0 -0.1,-0.1 -0.2,-0.2 -0.2,-0.4 0,-0.1 0,-0.2 0,-0.4 0,0 4.6,-11.7 5,-12.7 -0.8,-0.5 -8,-5.3 -8,-5.3 -0.1,-0.1 -0.2,-0.2 -0.3,-0.4 0,-0.1 0,-0.1 0,-0.2 0,-0.2 0.2,-0.4 0.4,-0.5 0,0 10.7,-1.9 11.2,-2 0.2,-0.5 4.3,-11.3 4.3,-11.3 0.1,-0.2 0.3,-0.3 0.5,-0.3 0.2,0 0.4,0.2 0.5,0.4 0,0 3.6,8.9 3.9,9.7 0.8,-0.1 13.1,-2.4 13.1,-2.4 0.2,0 0.5,0.1 0.6,0.4 v 0.1 c 0.1,0.4 0,0.6 -0.1,0.7 z"
   id="path16"
   style="fill:#55ddff;stroke:#37abc8" />
	<path
   class="st0"
   d="m 721,379.9 c -0.1,-0.3 -0.5,-0.6 -0.8,-0.5 0,0 -16.6,3 -17.6,3.2 -0.4,-1.1 -5.3,-13 -5.3,-13 -0.1,-0.3 -0.4,-0.5 -0.6,-0.5 -0.3,0 -0.5,0.2 -0.6,0.4 0,0 -5.5,14.4 -5.8,15.1 -0.7,0.1 -15,2.7 -15,2.7 -0.3,0.1 -0.5,0.3 -0.5,0.6 0,0.1 0,0.2 0,0.3 0,0.2 0.2,0.4 0.4,0.6 0,0 9.7,6.4 10.8,7.1 -0.5,1.2 -6.7,17 -6.7,17 -0.1,0.2 -0.1,0.3 0,0.5 0,0.2 0.1,0.4 0.3,0.5 0.3,0.2 0.6,0.3 0.9,0 l 6.4,-5.5 3.3,-2.5 c 0,0 4.5,-3.5 5.1,-3.9 0.7,0.5 20,13.2 20,13.2 0.3,0.2 0.6,0.1 0.8,-0.1 0.2,-0.2 0.2,-0.5 0.2,-0.7 0,-0.1 0,-0.1 -0.1,-0.2 0,0 -8.8,-20.6 -9.3,-21.7 0.7,-0.6 4.3,-3.5 4.3,-3.5 l 9.9,-8.1 c 0.2,-0.2 0.3,-0.5 0.3,-0.8 -0.3,-0.1 -0.4,-0.1 -0.4,-0.2 z m -6.4,3.5 -7.4,6 c 0,0 -2.6,2.2 -3.2,2.6 0.4,0.9 6.9,16.2 6.9,16.2 v 0.1 c 0,0.2 0,0.4 -0.1,0.5 -0.2,0.2 -0.4,0.2 -0.6,0.1 0,0 -14.3,-9.5 -14.9,-9.8 -0.4,0.3 -3.8,2.9 -3.8,2.9 l -2.4,1.9 -4.8,4.1 c -0.2,0.2 -0.5,0.1 -0.6,0 -0.1,-0.1 -0.2,-0.2 -0.2,-0.4 0,-0.1 0,-0.2 0,-0.4 0,0 4.6,-11.7 5,-12.7 -0.8,-0.5 -8,-5.3 -8,-5.3 -0.1,-0.1 -0.2,-0.2 -0.3,-0.4 0,-0.1 0,-0.1 0,-0.2 0,-0.2 0.2,-0.4 0.4,-0.5 0,0 10.7,-1.9 11.2,-2 0.2,-0.5 4.3,-11.3 4.3,-11.3 0.1,-0.2 0.3,-0.3 0.5,-0.3 0.2,0 0.4,0.2 0.5,0.4 0,0 3.6,8.9 3.9,9.7 0.8,-0.1 13.1,-2.4 13.1,-2.4 0.2,0 0.5,0.1 0.6,0.4 v 0.1 c 0.1,0.4 0,0.6 -0.1,0.7 z"
   id="path18"
   style="fill:#55ddff;stroke:#37abc8" />
</g>
</svg>
