<svg id="Layer_1" data-name="Layer 1" xmlns="http://www.w3.org/2000/svg" width="80" height="80" viewBox="0 0 80 80"><title>safetydeposit-icon</title><g id="SafetyDeposit_basic_0_Layer1_0_FILL" data-name="SafetyDeposit basic 0 Layer1 0 FILL"><path d="M55.0616,2.9035l-.6973-1.2949L19.8,7.2365l-.2988,1.4443Q17.9728,18.8021,6.5525,22.5761L4.71,23.2235l.5478,1.793Q17.7525,65.9193,47.9894,77.9082l1.0957.4981.9463-.8467q24.7833-20.8839,23.6568-63.6l-.05-1.8925-1.9423-.05Q59.8013,12.02,55.0616,2.9035M68.3592,13.86a3.4809,3.4809,0,0,1,1.9922.5478,2.8047,2.8047,0,0,1,.5976,2.291,166.9082,166.9082,0,0,1-1.4941,19.7224,64.0693,64.0693,0,0,1-1.4941,7.2713A48.0835,48.0835,0,0,1,66.118,49.62q-.6474,1.6435-2.2411,4.831A89.2166,89.2166,0,0,1,58.05,64.9592a36.5179,36.5179,0,0,1-7.9188,8.8651A4.4235,4.4235,0,0,1,47.89,74.92a4.1475,4.1475,0,0,1-2.042-.5976A59.964,59.964,0,0,1,20.5973,52.16,94.5472,94.5472,0,0,1,14.77,41.2525a88.7843,88.7843,0,0,1-5.578-14.2937,2.7908,2.7908,0,0,1,.1-2.3906,3.9765,3.9765,0,0,1,1.5439-.996,17.1732,17.1732,0,0,0,6.2255-4.2334,16.54,16.54,0,0,0,3.8349-6.4745,15.9479,15.9479,0,0,1,.5976-1.6435A3.5893,3.5893,0,0,1,22.39,9.7765a6.3274,6.3274,0,0,1,2.64-1.1953,112.2838,112.2838,0,0,1,12.3016-2.042q8.5662-1.0458,12.3513-1.8925a5.9523,5.9523,0,0,1,2.44-.1494,4.1322,4.1322,0,0,1,1.6436.996q.3486.3986,1.2451,1.544a18.0269,18.0269,0,0,0,5.9764,4.8309,18.2337,18.2337,0,0,0,7.371,1.9922M57.1533,17.4961a20.8054,20.8054,0,0,1-6.2255-5.9267L36.8333,13.91q-5.8769.996-9.7117,1.3447a1.1728,1.1728,0,0,0-.8467.249,1.3744,1.3744,0,0,0-.2988.9961A10.6926,10.6926,0,0,1,24.93,20.7831a10.49,10.49,0,0,1-4.1337,4.4326,25.5521,25.5521,0,0,1-5.5781,2.44A64.2655,64.2655,0,0,0,19.402,39.5094a67.9053,67.9053,0,0,0,7.869,12.8494q8.616,10.9071,19.3737,15.5388a2.28,2.28,0,0,0,1.0957.2491,2.9487,2.9487,0,0,0,.8965-.5479Q58.1,58.684,62.7812,43.0455a59.31,59.31,0,0,0,2.6894-23.8063,12.4617,12.4617,0,0,1-8.3173-1.7431m-6.4745-4.7314a5,5,0,0,1,1.5938,1.3945q.4482.5976,1.2949,1.793A10.4233,10.4233,0,0,0,57.1533,18.94a9.8312,9.8312,0,0,0,4.4824,1.1953q1.9921,0,2.44.747a2.5407,2.5407,0,0,1,.249,1.2949q.05,3.9844-.05,5.9765a33.1066,33.1066,0,0,1-.7471,5.9267q-.3984,1.6933-1.4941,5.08l-2.44,7.371q-1.1952,3.5361-1.7929,5.03A29.9123,29.9123,0,0,1,55.46,56.2933a32.251,32.251,0,0,1-3.3867,4.1836q-2.54,2.6893-2.6894,2.8886a19.2452,19.2452,0,0,1-1.2949,1.7929,2.7158,2.7158,0,0,1-1.7431.9961,4.233,4.233,0,0,1-2.44-.7969,75.4316,75.4316,0,0,1-11.1063-7.72,53.9284,53.9284,0,0,1-9.3133-12.3015,50.8594,50.8594,0,0,1-2.44-4.7314q-.498-1.1953-1.793-4.8808A27.7853,27.7853,0,0,0,17.31,30.9929a3.1183,3.1183,0,0,1-.5478-1.9921,1.795,1.795,0,0,1,.8466-1.0459,7.2772,7.2772,0,0,1,1.3447-.6474,12.5323,12.5323,0,0,0,5.08-3.6855,12.8146,12.8146,0,0,0,2.6894-5.6777,2.7319,2.7319,0,0,1,.7969-1.8427,2.2671,2.2671,0,0,1,1.3945-.3487,89.4682,89.4682,0,0,0,17.033-2.8388q3.287-.8466,4.7313-.1494M52.7706,49.42a40.7569,40.7569,0,0,1-3.3369-6.3251q-1.793-4.4325-2.6894-6.6737a3.8454,3.8454,0,0,1-.3984-1.8926,5.3478,5.3478,0,0,1,.9961-1.8427,6.294,6.294,0,0,0,1.2949-2.64,9.5761,9.5761,0,0,0-.4483-4.3828,8.9,8.9,0,0,0-1.4941-3.1874q-1.8925-2.0918-5.5282-1.6436a9.2933,9.2933,0,0,0-4.6318,1.5938,7.2172,7.2172,0,0,0-2.9384,3.8847,7.6106,7.6106,0,0,0-.249,2.9384,9.2192,9.2192,0,0,0,3.4364,6.5741,3.0841,3.0841,0,0,1,1.0957,1.2451,3.0612,3.0612,0,0,1-.2988,1.6934,19.5931,19.5931,0,0,0-.7471,4.3827l-.747,8.9647Z"/><path d="M70.3514,14.4082a3.4809,3.4809,0,0,0-1.9922-.5478,18.2337,18.2337,0,0,1-7.371-1.9922,18.0269,18.0269,0,0,1-5.9764-4.8309q-.8966-1.1455-1.2451-1.544a4.1322,4.1322,0,0,0-1.6436-.996,5.9523,5.9523,0,0,0-2.44.1494q-3.7851.8466-12.3513,1.8925A112.2838,112.2838,0,0,0,25.03,8.5812a6.3274,6.3274,0,0,0-2.64,1.1953,3.5893,3.5893,0,0,0-.8965,1.4443,15.9479,15.9479,0,0,0-.5976,1.6435,16.54,16.54,0,0,1-3.8349,6.4745,17.1732,17.1732,0,0,1-6.2255,4.2334,3.9765,3.9765,0,0,0-1.5439.996,2.7908,2.7908,0,0,0-.1,2.3906A88.7843,88.7843,0,0,0,14.77,41.2525,94.5472,94.5472,0,0,0,20.5973,52.16,59.964,59.964,0,0,0,45.8478,74.3224a4.1475,4.1475,0,0,0,2.042.5976,4.4235,4.4235,0,0,0,2.2412-1.0957A36.5179,36.5179,0,0,0,58.05,64.9592a89.2166,89.2166,0,0,0,5.8271-10.5086q1.5936-3.1875,2.2411-4.831a48.0835,48.0835,0,0,0,1.8428-5.9267,64.0693,64.0693,0,0,0,1.4941-7.2713A166.9082,166.9082,0,0,0,70.949,16.6992a2.8047,2.8047,0,0,0-.5976-2.291M50.9278,11.5694a20.8054,20.8054,0,0,0,6.2255,5.9267,12.4617,12.4617,0,0,0,8.3173,1.7431,59.31,59.31,0,0,1-2.6894,23.8063Q58.1,58.6839,48.6369,67.5988a2.9487,2.9487,0,0,1-.8965.5479,2.28,2.28,0,0,1-1.0957-.2491Q35.887,63.2659,27.271,52.3588a67.9053,67.9053,0,0,1-7.869-12.8494,64.2655,64.2655,0,0,1-4.1836-11.8533,25.5521,25.5521,0,0,0,5.5781-2.44A10.49,10.49,0,0,0,24.93,20.7831,10.6926,10.6926,0,0,0,25.9761,16.5a1.3744,1.3744,0,0,1,.2988-.9961,1.1728,1.1728,0,0,1,.8467-.249q3.8349-.3486,9.7117-1.3447Z" fill="#ffee4b"/><path d="M52.2726,14.1592a5,5,0,0,0-1.5938-1.3945q-1.4442-.6972-4.7313.1494a89.4682,89.4682,0,0,1-17.033,2.8388,2.2671,2.2671,0,0,0-1.3945.3487,2.7319,2.7319,0,0,0-.7969,1.8427,12.8146,12.8146,0,0,1-2.6894,5.6777,12.5323,12.5323,0,0,1-5.08,3.6855,7.2772,7.2772,0,0,0-1.3447.6474,1.795,1.795,0,0,0-.8466,1.0459,3.1183,3.1183,0,0,0,.5478,1.9921,27.7853,27.7853,0,0,1,1.9423,4.7314q1.2949,3.6855,1.793,4.8808a50.8594,50.8594,0,0,0,2.44,4.7314A53.9284,53.9284,0,0,0,32.7992,57.638a75.4316,75.4316,0,0,0,11.1063,7.72,4.233,4.233,0,0,0,2.44.7969,2.7158,2.7158,0,0,0,1.7431-.9961,19.2452,19.2452,0,0,0,1.2949-1.7929q.1494-.1992,2.6894-2.8886A32.251,32.251,0,0,0,55.46,56.2933a29.9123,29.9123,0,0,0,2.3408-4.7313q.5976-1.4941,1.7929-5.03l2.44-7.371q1.0958-3.3867,1.4941-5.08a33.1066,33.1066,0,0,0,.7471-5.9267q.1-1.9921.05-5.9765a2.5407,2.5407,0,0,0-.249-1.2949q-.4482-.747-2.44-.747A9.8312,9.8312,0,0,1,57.1533,18.94a10.4233,10.4233,0,0,1-3.5858-2.9882q-.8468-1.1953-1.2949-1.793M49.4337,43.0953A40.7569,40.7569,0,0,0,52.7706,49.42L36.0863,52.11l.747-8.9647a19.5931,19.5931,0,0,1,.7471-4.3827,3.0612,3.0612,0,0,0,.2988-1.6934,3.0841,3.0841,0,0,0-1.0957-1.2451A9.2192,9.2192,0,0,1,33.3471,29.25a7.6106,7.6106,0,0,1,.249-2.9384,7.2172,7.2172,0,0,1,2.9384-3.8847,9.2933,9.2933,0,0,1,4.6318-1.5938q3.6357-.4482,5.5282,1.6436a8.9,8.9,0,0,1,1.4941,3.1874,9.5761,9.5761,0,0,1,.4483,4.3828,6.294,6.294,0,0,1-1.2949,2.64,5.3478,5.3478,0,0,0-.9961,1.8427,3.8454,3.8454,0,0,0,.3984,1.8926Q47.6409,38.6628,49.4337,43.0953Z" fill="#2184cd"/></g><g id="SafetyDeposit_basic_0_Layer0_0_FILL" data-name="SafetyDeposit basic 0 Layer0 0 FILL"><path d="M55.0616,2.9035l-.6973-1.2949L19.8,7.2365l-.2988,1.4443Q17.9728,18.8021,6.5525,22.5761L4.71,23.2235l.5478,1.793Q17.7525,65.9193,47.9894,77.9082l1.0957.4981.9463-.8467q24.7833-20.8839,23.6568-63.6l-.05-1.8925-1.9423-.05Q59.8013,12.02,55.0616,2.9035M52.2227,5.9914q5.4051,9.2756,17.4812,9.9608Q70.2126,54.293,48.338,73.7247,21.3742,62.2115,9.69,25.6639,21.08,21.21,23.1871,10.7227L52.2227,5.9914m.05,5.08-.6475-1.1455L24.93,14.3086l-.249,1.2949Q23.4877,23.1721,14.87,25.9627l-1.6435.5977.498,1.5937q9.6683,31.3483,32.8208,40.59l.9463.4483.7968-.7471Q67.3807,52.301,66.5663,19.5878V17.8945H64.8231q-8.9715.0414-12.55-6.8231m-2.49,2.6894q4.155,7.0349,13.2976,7.57.2942,28.9111-16.2361,43.7776Q26.55,56.263,17.5592,28.702q8.6424-3.42,10.3592-11.3553Z"/><path d="M69.7039,15.9522Q57.6279,15.267,52.2227,5.9914L23.1871,10.7227Q21.08,21.21,9.69,25.6639,21.3742,62.2114,48.338,73.7247,70.2125,54.293,69.7039,15.9522M51.6251,9.9259l.6475,1.1455q3.579,6.8646,12.5505,6.8231h1.7432v1.6933q.8144,32.7132-18.2781,48.8577l-.7968.7471-.9463-.4483q-23.1526-9.2419-32.8208-40.59l-.498-1.5937,1.6435-.5977q8.6178-2.7908,9.8114-10.3592l.249-1.2949Z" fill="#ffee4b"/><path d="M63.08,21.331q-9.1425-.5353-13.2976-7.57l-21.864,3.5859Q26.2015,25.2825,17.5592,28.702,26.55,56.263,46.8439,65.1086,63.3742,50.2423,63.08,21.331Z" fill="#2184cd"/></g><g id="SafetyDeposit_basic_0_Layer0_1_FILL" data-name="SafetyDeposit basic 0 Layer0 1 FILL"><path d="M45.4,34.6784a6.0984,6.0984,0,0,0,1.5439-1.6435,7.116,7.116,0,0,0,1.3447-5.578,7.6606,7.6606,0,0,0-8.7156-6.2753A7.311,7.311,0,0,0,34.642,24.22a7.49,7.49,0,0,0-1.2451,5.6279,7.1913,7.1913,0,0,0,2.9882,4.8807,8.8942,8.8942,0,0,0,1.4941.8965L36.1859,52.06l16.1863-2.64Z"/></g><path id="SafetyDeposit_basic_0_Layer0_1_1_STROKES" data-name="SafetyDeposit basic 0 Layer0 1 1 STROKES" d="M48.2882,27.4569a7.116,7.116,0,0,1-1.3447,5.578A6.0984,6.0984,0,0,1,45.4,34.6784L52.3722,49.42,36.1859,52.06l1.6933-16.4353a8.8942,8.8942,0,0,1-1.4941-.8965,7.1913,7.1913,0,0,1-2.9882-4.8807A7.49,7.49,0,0,1,34.642,24.22,7.5511,7.5511,0,0,1,45.2,22.5263,7.2576,7.2576,0,0,1,48.2882,27.4569Z" fill="none" stroke="#000" stroke-miterlimit="3" stroke-width="3"/></svg>