
<svg xmlns="http://www.w3.org/2000/svg" version="1.1" xmlns:xlink="http://www.w3.org/1999/xlink" preserveAspectRatio="none" x="0px" y="0px" width="80px" height="80px" viewBox="0 0 80 80">
<defs>
<g id="search_basic_0_Layer2_0_FILL">
<path fill="#8C69FF" stroke="none" d="
M 97.7 87.45
Q 95.45 84.3 90.25 78.5 86.1 74.1 85.55 73.55 83.15 71.35 81.5 70.1 78.6 67.85 76.2 66.9 70.05 64.35 60.8 67.1 54.9 68.85 49.05 72.05 41.95 75.85 38.5 80.6 35.25 85 34.4 91.05 33.6 96.6 34.9 102.55 35.95 107.55 38.6 113.3 40.25 116.9 43.9 123.5 45.25 126.05 46.5 127.4 48.35 129.4 50.55 129.55 52.6 129.7 55.65 127.85 60.2 124.65 62.5 123.1 66.55 120.35 69.8 119.45
L 63.65 125.5
Q 60.55 128.6 59.25 130.15 56.95 132.9 55.9 135.5 54.6 138.6 54.95 141.85 55.3 145.35 57.5 147.45 59.75 149.55 63.65 150.25 65.75 150.6 68.4 150.6 69.75 150.6 73.2 150.45 77.5 150.25 79.95 149.7 82.15 149.2 84.85 148 97.8 142.65 104.55 133.55 108.4 128.45 109.9 122.45 111.45 116.1 110 110.25 109.15 106.85 106.9 102.75 106.65 102.3 102.7 95.65 98.4 88.45 97.7 87.45 Z"/>

<path fill="#ACB3DD" stroke="none" d="
M 87.45 -109.65
Q 85.95 -113.25 84.4 -114.5 83.94296875 -114.8857421875 83.45 -115.15 82.2048828125 -117.135546875 80.3 -119.65 67.4 -136.45 57.05 -146 42.95 -159.1 27.9 -165.45 24.15 -167.1 17.3 -169.3 8.25 -172.15 2.5 -173.2 -12 -175.65 -31.2 -172.3 -60.4 -167.2 -79.75 -153.55 -85.7 -149.35 -93.35 -142.3 -100.95 -135.4 -105.2 -130.1 -110.25 -123.65 -116.05 -112.3 -120.1 -104.35 -122.25 -98.9 -131.4 -76.3 -129.85 -51.85 -129.25 -43.3 -126.55 -28.1 -125.15 -20.55 -124.35 -17.7 -120.45 -3.7 -108.9 10 -104.25 15.5 -97.85 21.55 -93.6 25.55 -85.9 32.25 -81.8 35.85 -79.55 37.4 -78.251953125 38.3052734375 -77.1 38.75 -75.7572265625 41.0728515625 -73.2 43 -70.65 44.85 -66.35 46.75 -44.45 56.35 -21.95 56.95 -15 57.15 -4.45 56.4 2.7 55.95 7.3 55.3 12.8125 54.481640625 18.55 52.8 18.8771484375 53.5666015625 19.3 54.4
L 27.9 71.6
Q 29.55 74.85 31.2 75.6 33.25 76.55 35.75 75.2 37 74.5 39.45 72.3 44.9 67.4 50.9 63.8 54.75 61.45 57.4 61 58.1 60.9 59.65 60.75 61.1 60.65 61.9 60.5 64.6 60.05 65.65 58.25 67.05 55.8 64.2 51.2
L 57.95 41.2
Q 56.65 39.1 56.45 37.95 56.1263671875 36.0080078125 57.45 33.5 60.14609375 31.287109375 60.75 29.15 61.613671875 28.225390625 62.65 27.25 67.7 22.35 68.15 21.85 70.1 19.7 73.3 14.9 83.6 -0.8 88.6 -14.3 89.95 -18.1 92.05 -24.7 94.35 -32.1 95.45 -36.4 97.2 -42.9 97.95 -48.3 100 -62.8 96.75 -79.45 94.05 -93.4 87.45 -109.65
M 5.15 -135.4
Q 9 -134.2 16.1 -130.2 22.7 -126.55 26.8 -124.05
L 38.05 -116.8
Q 42 -114.1 43.95 -112.45 48 -108.95 52.15 -102.6 60.85 -89.4 63.15 -77.05 64.15 -71.4 64.25 -63.55 64.35 -56.7 63.75 -52.35 62.15 -40.35 54.75 -28.2 48.9 -18.65 38.6 -8 28.7 2.3 20.05 7.95 8.85 15.3 -2.55 16.85 -7.9 17.6 -17 17.1 -27.25 16.6 -33.55 15.4 -42.55 13.75 -49.05 10.1 -53.55 7.55 -59.7 2.2 -73.6 -9.8 -81.2 -20.9 -84.8 -26.35 -86.55 -30.65 -88.4 -35.2 -89.4 -41.1 -90.1 -45.2 -90.6 -51.95 -91.7 -67.05 -90.6 -76.55 -88.9 -90.25 -83.05 -99.8 -81 -103.1 -77.25 -107.75 -73.9 -111.9 -71.05 -115.05 -64.1 -122.45 -55 -127.85 -40.05 -136.55 -22.8 -137.55 -17.15 -137.85 -8.35 -137.3 -3.95 -137.05 -1.5 -136.75 2.25 -136.3 5.15 -135.4 Z"/>
</g>

<g id="search_basic_0_Layer1_0_FILL">
<path fill="#5D5D7B" stroke="none" d="
M 65.95 66.35
Q 77.122265625 65.7796875 66.8 61.05 63.2537109375 59.4275390625 60.15 57.95 63.9451171875 63.15703125 65.95 66.35 Z"/>

<path fill="#69698B" stroke="none" d="
M -85.25 -144.25
Q -89.964453125 -140.385546875 -94.45 -135.9 -126.95 -103.4 -126.95 -57.45 -126.95 -11.5 -94.45 21 -61.95 53.5 -16 53.5 2.9419921875 53.5 19.6 47.95 29.2607421875 64.762890625 33.95 73.15 39.1318359375 69.947265625 46.45 65.7 54.6107421875 66.332421875 60.1 66.4 59.7056640625 66.4265625 53.3 62.95 46.8919921875 59.51953125 34 37.15 32.5314453125 37.7365234375 31.05 38.25 2.483203125 48.678125 -27.9 41.7 -91.25 27 -109.45 -35.4 -127.35 -96.6 -85.25 -144.25 Z"/>

<path fill="#ACB3DD" stroke="none" d="
M 94.95 -57.45
Q 94.95 -103.4 62.45 -135.9 29.95 -168.4 -16 -168.4 -55.608203125 -168.4 -85.25 -144.25 -127.35 -96.6 -109.45 -35.4 -91.25 27 -27.9 41.7 2.483203125 48.678125 31.05 38.25 32.5314453125 37.7365234375 34 37.15 46.8919921875 59.51953125 53.3 62.95 59.7056640625 66.4265625 60.1 66.4 64.9921875 70.5408203125 66.9 71.35 68.426171875 72.0396484375 68.1 70.7 67.8474609375 69.4388671875 65.95 66.35 63.9451171875 63.15703125 60.15 57.95 61.0001953125 57.52109375 61.85 57.05 55.9763671875 45.8302734375 49.15 32.5 56.054296875 27.395703125 62.45 21 94.95 -11.5 94.95 -57.45
M 40.05 -119.6
Q 40.8375 -118.8609375 41.6 -118.1 65.55 -94.15 65.55 -60.25 65.55 -26.35 41.6 -2.4 40.8375 -1.6390625 40.05 -0.95 16.517578125 21.54140625 -16.25 21.55
L -16.3 21.55
Q -49.0677734375 21.54140625 -72.65 -0.95 -73.4359375 -1.6390625 -74.2 -2.4 -98.15 -26.35 -98.15 -60.25 -98.15 -94.15 -74.2 -118.1 -73.4375 -118.8609375 -72.65 -119.6 -49.1162109375 -142.0416015625 -16.3 -142.05
L -16.25 -142.05
Q 16.517578125 -142.0416015625 40.05 -119.6 Z"/>

<path fill="#363658" stroke="none" d="
M 41.55 -118.1
Q 40.8005859375 -118.8478515625 40.05 -119.6 16.517578125 -142.0416015625 -16.25 -142.05
L -16.3 -142.05
Q -49.1162109375 -142.0416015625 -72.65 -119.6 -73.4375 -118.8609375 -74.2 -118.1 -98.15 -94.15 -98.15 -60.25 -98.15 -26.35 -74.2 -2.4 -73.4359375 -1.6390625 -72.65 -0.95 -49.0677734375 21.54140625 -16.3 21.55
L -16.25 21.55
Q 16.517578125 21.54140625 40.05 -0.95 40.8005859375 -1.6521484375 41.55 -2.4 65.5 -26.35 65.5 -60.25 65.5 -94.15 41.55 -118.1
M 33.15 -109.6
L 33.1 -109.6
Q 53.55 -89.15 53.55 -60.25 53.55 -31.35 33.1 -10.9
L 33.15 -10.9
Q 31.866796875 -9.623046875 30.55 -8.45 10.8201171875 9.5416015625 -16.25 9.55
L -16.3 9.55
Q -43.3701171875 9.5416015625 -63.1 -8.45 -64.4533203125 -9.609765625 -65.75 -10.9 -86.2 -31.35 -86.2 -60.25 -86.2 -89.15 -65.75 -109.6 -64.456640625 -110.890234375 -63.15 -112.1 -43.4169921875 -130.041796875 -16.3 -130.05
L -16.25 -130.05
Q 10.8201171875 -130.041796875 30.55 -112.1 31.866796875 -110.876953125 33.15 -109.6
M 62.45 -135.9
Q 94.95 -103.4 94.95 -57.45 94.95 -11.5 62.45 21 56.054296875 27.395703125 49.15 32.5 55.9763671875 45.8302734375 61.85 57.05 61.0001953125 57.52109375 60.15 57.95 63.2537109375 59.4275390625 66.8 61.05 77.122265625 65.7796875 65.95 66.35 67.8474609375 69.4388671875 68.1 70.7 68.61171875 70.444921875 69.1 70.15 74.4513671875 67.197265625 76.2 61.35 77.9884765625 55.551171875 75.15 50.1 71.753515625 43.605078125 68 36.4 70.56875 34.084765625 73.05 31.6 109.94765625 -5.291015625 109.95 -57.45 109.94765625 -109.608984375 73.05 -146.5 36.158984375 -183.39765625 -16 -183.4 -60.994921875 -183.340625 -94.65 -155.9
L -94.7 -155.9
Q -100.004296875 -151.553515625 -105.05 -146.5 -141.94765625 -109.608984375 -141.95 -57.45 -141.94765625 -5.291015625 -105.05 31.6 -68.158984375 68.49765625 -16 68.5 -1.204296875 68.48203125 12.35 65.5 17.7134765625 74.8693359375 20.85 80.45 22.8884765625 84.060546875 26.45 86.1 30.0501953125 88.2 34.15 88.15 38.2478515625 88.0939453125 41.8 85.9 46.836328125 82.8337890625 53.95 78.75
L 54.05 78.7
Q 59.8125 75.338671875 66.9 71.35 64.9921875 70.5408203125 60.1 66.4 54.6107421875 66.332421875 46.45 65.7 39.1318359375 69.947265625 33.95 73.15 29.2607421875 64.762890625 19.6 47.95 2.9419921875 53.5 -16 53.5 -61.95 53.5 -94.45 21 -126.95 -11.5 -126.95 -57.45 -126.95 -103.4 -94.45 -135.9 -89.964453125 -140.385546875 -85.25 -144.25 -55.608203125 -168.4 -16 -168.4 29.95 -168.4 62.45 -135.9 Z"/>

<path fill="#FFFFFF" fill-opacity="0.2980392156862745" stroke="none" d="
M 33.1 -109.6
L 33.15 -109.6
Q 31.866796875 -110.876953125 30.55 -112.1 10.8201171875 -130.041796875 -16.25 -130.05
L -16.3 -130.05
Q -43.4169921875 -130.041796875 -63.15 -112.1 -64.419921875 -110.876953125 -65.7 -109.6 -86.15 -89.15 -86.15 -60.25 -86.15 -31.35 -65.7 -10.9 -64.416796875 -9.623046875 -63.1 -8.45 -43.3701171875 9.5416015625 -16.3 9.55
L -16.25 9.55
Q 10.8201171875 9.5416015625 30.55 -8.45 31.866796875 -9.623046875 33.15 -10.9
L 33.1 -10.9
Q 53.55 -31.35 53.55 -60.25 53.55 -89.15 33.1 -109.6 Z"/>
</g>

<g id="search_basic_0_Layer1_1_FILL">
<path fill="#F1EDFF" stroke="none" d="
M 40.85 -58.45
Q 43.6 -64.95 42.4 -72.8 41.45 -79.4 37.4 -87.3 35.85 -90.35 34.15 -93.15 35 -93 35.9 -92.95 35 -93.05 34.2 -93.15 27.05 -104.55 17.05 -111.25 7.2 -117.85 -8.15 -119.8 -23.5 -121.8 -33.9 -117.55 -44.35 -113.35 -36.6 -107.55 -13.8 -106.35 5.65 -94.85 25.6 -81.65 33.3 -58.55 38.45 -53.75 40.85 -58.45 Z"/>
</g>

<g id="search_basic_0_Layer0_0_FILL">
<path fill="#291867" stroke="none" d="
M 94.15 63.5
Q 93.7083984375 62.815625 93.25 62.15 91.646875 59.783984375 87.9 57 84.1513671875 54.2564453125 76.25 54.05 68.399609375 53.89921875 61.5 55 54.75 56.1 48.5 59 42 62 36.6 66.7 31.15 71.45 27.35 77.4 24.95390625 81.103125 23.7 87.3 22.2876953125 94.143359375 26.4 104.7 38.4927734375 135.7283203125 46.4 147.9 54.3091796875 160.128125 52.65 157
L 52.65 156.95
Q 55.5623046875 159.99609375 62.2 161.75 68.8490234375 163.4986328125 82.3 160.95 95.7390625 158.4537109375 107 149.85 118.312109375 141.2455078125 123.1 132.2 127.8875 123.21328125 119.45 105.35 109.7306640625 87.6365234375 94.15 63.5
M 43.8 82.65
Q 54.383203125 74.833203125 56.15 74.05 77.5142578125 64.553125 86.65 78.35 95.79765625 92.192578125 102.6 104.65 109.4443359375 117.110546875 108.05 123.7 105.729296875 130.77890625 96.35 137.3 96.25 137.15 96.15 137.05 69.7287109375 154.7638671875 58.3 142.6 56.2427734375 129.829296875 92.3 108.2 92.3734375 108.1533203125 92.45 108.1 92.21875 108.1384765625 92 108.15 91.31328125 108.1095703125 90.6 108.1
L 88.8 108.1
Q 86.0919921875 108.277734375 83.1 109.1 78.93515625 110.2359375 73.55 112.95 71.29765625 113.797265625 64.25 117.3 64.2115234375 117.23046875 64.15 117.1 57.6271484375 120.579296875 52.4 125.1 51.53671875 125.84375 50.75 126.5 48.239453125 123.433203125 40.75 106.95 33.2625 90.515625 43.8 82.65 Z"/>

<path fill="#5633D8" stroke="none" d="
M 108.05 123.7
Q 107.225 119.7150390625 105.05 116.35 102.25 111.95 98 109.85 95.3369140625 108.55 92.3 108.2 56.2427734375 129.829296875 58.3 142.6 69.7287109375 154.7638671875 96.15 137.05 96.25 137.15 96.35 137.3 105.729296875 130.77890625 108.05 123.7
M 53.45 90.85
Q 51.80078125 83.65390625 54.85 76.65 55.447265625 75.2564453125 56.15 74.05 54.383203125 74.833203125 43.8 82.65 33.2625 90.515625 40.75 106.95 48.239453125 123.433203125 50.75 126.5 51.53671875 125.84375 52.4 125.1 57.6271484375 120.579296875 64.15 117.1 63.0689453125 115.2626953125 61.65 112.25 55.0986328125 98.0400390625 53.45 90.85 Z"/>

<path fill="#8C69FF" stroke="none" d="
M 54.85 76.65
Q 51.80078125 83.65390625 53.45 90.85 55.0986328125 98.0400390625 61.65 112.25 63.0689453125 115.2626953125 64.15 117.1 64.2115234375 117.23046875 64.25 117.3 71.29765625 113.797265625 73.55 112.95 78.93515625 110.2359375 83.1 109.1 86.0919921875 108.277734375 88.8 108.1
L 90.6 108.1
Q 91.31328125 108.1095703125 92 108.15 92.21875 108.1384765625 92.45 108.1 92.3734375 108.1533203125 92.3 108.2 95.3369140625 108.55 98 109.85 102.25 111.95 105.05 116.35 107.225 119.7150390625 108.05 123.7 109.4443359375 117.110546875 102.6 104.65 95.79765625 92.192578125 86.65 78.35 77.5142578125 64.553125 56.15 74.05 55.447265625 75.2564453125 54.85 76.65 Z"/>
</g>
</defs>

<g transform="matrix( 0.224822998046875, -0.040130615234375, 0.0387725830078125, 0.217193603515625, 40.25,43.95) ">
<g transform="matrix( 1, 0, 0, 1, 0,0) ">
<use xlink:href="#search_basic_0_Layer2_0_FILL"/>
</g>

<g transform="matrix( 1, 0, 0, 1, 0,0) ">
<use xlink:href="#search_basic_0_Layer1_0_FILL"/>
</g>

<g transform="matrix( 1, 0, 0, 1, -0.6,3.55) ">
<use xlink:href="#search_basic_0_Layer1_1_FILL"/>
</g>

<g transform="matrix( 1, 0, 0, 1, 0,0) ">
<use xlink:href="#search_basic_0_Layer0_0_FILL"/>
</g>
</g>
</svg>
