<svg id="Layer_1" data-name="Layer 1" xmlns="http://www.w3.org/2000/svg" width="80" height="80" viewBox="0 0 80 80"><title>settings-icon</title><g id="setting_basic_0_Layer2_0_FILL" data-name="setting basic 0 Layer2 0 FILL"><path d="M64.6714,11.1381a1.4891,1.4891,0,0,0-.5677-.3785,24.2878,24.2878,0,0,0-6.34-1.7978,1.7887,1.7887,0,0,0-.5678.0946.919.919,0,0,0-.5677.3785l-3.8794,4.6364a25.6526,25.6526,0,0,0-3.5009-.9462V6.0286a1.2834,1.2834,0,0,0-.2839-.8516,1.2378,1.2378,0,0,0-.5677-.5677A22.5212,22.5212,0,0,0,37.2317,2.7169,34.1432,34.1432,0,0,0,26.7289,4.9878a1.4272,1.4272,0,0,0-.5677.4731,1.2578,1.2578,0,0,0-.2839.7569v8.0427a20.18,20.18,0,0,0-5.8664,5.7718l-7.8535-2.8386a1.0029,1.0029,0,0,0-.8515,0,.8851.8851,0,0,0-.6624.4731A40.9476,40.9476,0,0,0,3.1686,37.2531a1.8259,1.8259,0,0,0,.2838.9462,1.2742,1.2742,0,0,0,.8516.4731l5.3933.9462a1.0956,1.0956,0,0,0,.5678.2839l.2838.0946v.8516a27.3984,27.3984,0,0,0,1.23,8.3265l-6.34,4.8256a1.2113,1.2113,0,0,0-.4731.757.8045.8045,0,0,0,0,.7569A26.6937,26.6937,0,0,0,13.009,66.4906q5.0984,4.3074,8.9889,5.0149.279.0609.5677.0946a2.6393,2.6393,0,0,0,.5677-.1892q.3035-.1209.2839-.2839l5.2041-5.9611a15.3474,15.3474,0,0,0,1.8924,1.0409v.0946a.2072.2072,0,0,0,.0946,0,13.5872,13.5872,0,0,0,1.4193.5677v7.475a1.1663,1.1663,0,0,0,.1892.6623A12.8264,12.8264,0,0,0,35.15,76.4257a13.9626,13.9626,0,0,0,3.88,1.0408,1.2538,1.2538,0,0,0,.6623.1893,31.1988,31.1988,0,0,0,3.5009-.1893,33.4587,33.4587,0,0,0,12.3952-3.5009.97.97,0,0,0,.5677-.4731,1.3648,1.3648,0,0,0,.1893-.757l-.5678-8.8a30.43,30.43,0,0,0,5.6772-5.2041q.0691,0,.0947-.0946.0346.0056,0-.0946l7.0964,2.8386a1.293,1.293,0,0,0,.9462,0,.9338.9338,0,0,0,.6624-.4731,38.8463,38.8463,0,0,0,6.6234-16.937,1.2313,1.2313,0,0,0-.2839-.9462,1.2924,1.2924,0,0,0-.757-.5677l-6.8126-1.7031q.0972-1.0883.0946-2.2709a30.2206,30.2206,0,0,0-.9462-7.7588l6.34-3.4064a1.11,1.11,0,0,0,.6623-.6623,1.3184,1.3184,0,0,0,0-.9462,32.3285,32.3285,0,0,0-7.9481-12.3952,19.8521,19.8521,0,0,0-2.46-2.0816.1961.1961,0,0,0-.0946-.0946m-3.1224.4731.6623.4731.1892.7569-.0946.5677-.5677.6624-1.5139,1.4193-.8516,1.1354-.3785.3785-.6623.2839-.4731-.0947a2.7668,2.7668,0,0,1-.9462-.5677l-1.1355-.2838-1.1354-.5678-.4731-.3784-.0946-.6624.0946-.5677,2.46-2.2709.2839-.5677a1.7429,1.7429,0,0,1,1.4193-.4731l1.4193.2839H60.13l.7569.1892.6624.2839m1.1354,2.3655a3.7669,3.7669,0,0,1,1.1354-.9462q1.0408-.1893,2.2709,1.23a32.0826,32.0826,0,0,1,4.6364,5.5826,30.0406,30.0406,0,0,1,2.2708,4.5417,2.1993,2.1993,0,0,1,.2839,1.3247q-.1892.7571-1.7031,1.4193a2.7692,2.7692,0,0,1-1.4193.2839,1.1608,1.1608,0,0,1-.4731-.1893,1.32,1.32,0,0,1-.3785.757l-2.6494,1.3247-.6623.1892a.8183.8183,0,0,1-.3785-.0946.6065.6065,0,0,0,.0946.0946,4.5833,4.5833,0,0,1,1.0408,2.0816,16.5012,16.5012,0,0,1,.5678,6.0557l-.0947,1.987a3.21,3.21,0,0,0,.8516,1.7978,5.8055,5.8055,0,0,0,1.3247.6623l3.69,1.23q1.6085.3785,1.7977,1.3247a4.081,4.081,0,0,1-.0946,1.4193,81.8924,81.8924,0,0,1-4.0686,11.5436,1.7989,1.7989,0,0,1-.8516,1.0408l-.8516.2838a1.448,1.448,0,0,1-.8516.0947.9675.9675,0,0,1-.6623-.5678.8434.8434,0,0,1-.5677.4731h-.2839a3.99,3.99,0,0,1-1.6085-.6623l-.8516-.3785q-.8516-.3785-1.23-.5677a3.6768,3.6768,0,0,1-1.3247-.8516l-.5677-.4731a4.7672,4.7672,0,0,1-.757.757A11.0826,11.0826,0,0,0,58.805,58.07l-4.4471,4.2579q-.3786.1891-.3785.4731l-.0946.5677a52.8942,52.8942,0,0,0,.5677,7.8534,3.7138,3.7138,0,0,1-.0946,1.1354.8832.8832,0,0,1-.6624.6624.9889.9889,0,0,1-1.0408-.1893q-.89.89-1.6085.2839-.1179.0411-.2839.0946a.5814.5814,0,0,1,0,.4731q-.0947.4731-1.1354.8516a68.4047,68.4047,0,0,1-7.6642,1.1354,3.18,3.18,0,0,1-1.4193-.1892,2.39,2.39,0,0,1-.757-1.7032q-.0417-.456-.0946-.9462l-.0946.3785v.5677l-.1893,1.0409a1.1965,1.1965,0,0,1-.5677.6623l-.3785.0946a4.658,4.658,0,0,1-1.3246,0l-1.23-.2838-1.5139-.5678q-.5677-.1891-.6623-.5677a1.5322,1.5322,0,0,1-.2839-.9462l.0946-1.1354-.0946-.6623-.0946-.3785-.0946-.8516v-.4731a6.3181,6.3181,0,0,1,.0946-1.7978,1.1069,1.1069,0,0,1,.3785-.9462,9.6873,9.6873,0,0,0,1.0408-.2838h.0946l1.3247.2838,1.0408.0946a10.39,10.39,0,0,0,1.23.1893l.4731.2838.2839.4731.2839.8516.0946,1.0408q.0144-1.5324.0946-3.217A20.18,20.18,0,0,1,29,63.3682l-.4731-.1893a1.0382,1.0382,0,0,0-.6624.3785l-4.731,4.6364a2.7674,2.7674,0,0,1-1.1354.6623,1.9085,1.9085,0,0,1-1.3247-.6623,29.2014,29.2014,0,0,1-3.5955-4.0687L14.05,59.3a2.2913,2.2913,0,0,1-.4731-1.4193,2.0157,2.0157,0,0,1,.9462-1.4193l5.3934-4.8256a49.0217,49.0217,0,0,1-1.7032-11.5436,29.83,29.83,0,0,0-5.2041-1.5139,2.7147,2.7147,0,0,1-1.4193-.6623,1.3452,1.3452,0,0,1-.2838-1.3247,14.2238,14.2238,0,0,1,.4731-2.3655,35.7385,35.7385,0,0,1,3.217-8.3265,1.1245,1.1245,0,0,1,.6624-.5678.778.778,0,0,1,.6623.1893.23.23,0,0,0,.0946-.0946,2.5986,2.5986,0,0,1-.1892-1.0409,2.1755,2.1755,0,0,1,.5677-1.6085,2.7331,2.7331,0,0,1,1.987-.2839L23.6064,24.48a1.1839,1.1839,0,0,0,.757.0946l.3785-.2839,2.1762-2.6493a32.7113,32.7113,0,0,1,5.8665-4.4472,2.336,2.336,0,0,1,1.3246-.5677h.3785a.0762.0762,0,0,1-.0946,0l-.4731-.4731-.0946-.3785q-.1893-.1891,0-.4731v-.4731l-.0946-.9462-.0947-.0946v-.1892l-.0946-.757V11.8l.0946-.3785V10.665l.0947-.1893.1892-.2838a.2075.2075,0,0,0,.0946-.0946,1.16,1.16,0,0,1-.2838-.3785q-.284-.8516.7569-1.5139A9,9,0,0,1,39.03,6.7856q1.6084-.0946,4.7309-.1893,2.46-.1892,3.2171.6624a6.0126,6.0126,0,0,1,.4731,1.5139L47.64,12.652a3.06,3.06,0,0,0,.2838,1.5139,2.7064,2.7064,0,0,0,1.7032.6623,35.9212,35.9212,0,0,1,8.2319,3.2171l.8516.1893.5677-.4731,3.4063-3.7848M38.4617,4.42l.9462.0946q.3786.0946.5678.6623,0,.6624-1.23,1.0408l-4.92,1.23-.5677.2839-.1893.4731a9.4788,9.4788,0,0,0-.0946,3.1224,18.0424,18.0424,0,0,1,.0946,3.0278,1.8827,1.8827,0,0,1-.2838,1.1355,1.6643,1.6643,0,0,1-.5678.5677v.0946q-.8182.5008-1.6085,1.0408a34.0066,34.0066,0,0,0-5.2987,5.11,4.0462,4.0462,0,0,1-1.5139,1.1354,1.6239,1.6239,0,0,1-1.4193-.0946,4.9375,4.9375,0,0,1-1.7032-1.23.8453.8453,0,0,1-.3785-.8516.5452.5452,0,0,1,.1893-.3785.6094.6094,0,0,1,.4731,0,10.7094,10.7094,0,0,1,5.961-5.7718l.4731-.2839.0946-.5677-.0946-5.3933a3.7071,3.7071,0,0,1,.5677-2.3655,4.8065,4.8065,0,0,1,2.6494-1.0408l1.987-.4731a9.7153,9.7153,0,0,1,2.3655-.2839L38.4617,4.42M13.9552,19.9377l1.23.3785a1.446,1.446,0,0,1,.9462.7569,2.78,2.78,0,0,1-.6624,1.9871q-2.3655,3.3117-4.4471,10.5974L10.36,35.9284a8.6865,8.6865,0,0,1-.5677,1.3247,1.5257,1.5257,0,0,1-1.1355.757H7.9l-1.7978-.3785a2.5786,2.5786,0,0,1-1.23-.4731,1.1939,1.1939,0,0,1-.3785-1.23,3.05,3.05,0,0,1,.3785-1.3246l.3785-.8516V32.806a16.5789,16.5789,0,0,1,.4731-2.9332A24.5646,24.5646,0,0,1,8.278,24.5741l2.3655-4.1633q.6624-1.0408,1.1355-1.1354.4731-.1893,2.1762.6623m-1.7978,19.87a1.2736,1.2736,0,0,1,1.6086-.3785l3.0278,1.3247a2.0261,2.0261,0,0,1,.5677,1.23,35.3257,35.3257,0,0,1,.4731,3.7848,16.512,16.512,0,0,0,.6624,3.7848q.2838,1.4193.2838,1.5139a3.5542,3.5542,0,0,1-1.1354,1.7032,30.9529,30.9529,0,0,1-4.5418,3.5955l-.4731.4731a1.4488,1.4488,0,0,0,.0947.8516,39.4394,39.4394,0,0,0,4.5417,7.6642,5.4452,5.4452,0,0,1,.757,1.1354q.1891.8516-.3785,1.1355-.4731.3785-1.5139-.2839a25.3522,25.3522,0,0,1-8.5158-9.5566,5.3868,5.3868,0,0,1-.5677-1.7031A3.9882,3.9882,0,0,1,7.9,53.9062L9.792,52.3923l3.69-2.3655a78.3737,78.3737,0,0,1-1.5139-8.8,1.6893,1.6893,0,0,1,.1892-1.4192m38.51-10.3136q-.2817.6458-1.23.4731A3.2349,3.2349,0,0,1,47.9237,29.4,9.91,9.91,0,0,0,42.72,28.3589,9.6007,9.6007,0,0,0,37.61,29.9674a12.0866,12.0866,0,0,0-4.5418,6.2449,18.09,18.09,0,0,0-.4731,7.6642q.4731,1.7978.5677,2.0816l1.1355,1.7032a13.9448,13.9448,0,0,0,5.0148,3.8794q1.2792.8224,1.23,1.4193a10.2434,10.2434,0,0,0,3.1224.1892,12.22,12.22,0,0,0,8.4212-4.5417,13.4547,13.4547,0,0,0,3.5009-9.1781,11.8983,11.8983,0,0,0-3.5009-8.8h-.0946a10.4006,10.4006,0,0,0-1.3247-1.1354m-2.6494,2.9332a7.5637,7.5637,0,0,1-.9462-1.0408,1.0808,1.0808,0,0,1,.2839-1.1354,1.9547,1.9547,0,0,1,1.7031-.2839,5.2648,5.2648,0,0,1,2.744,2.46,14.3615,14.3615,0,0,1,1.4193,2.8386l.2839,1.1354L53.79,40.47a6.8794,6.8794,0,0,1-.2838,1.987,7.31,7.31,0,0,1-1.5139,3.2171L50.8569,46.999a16.0049,16.0049,0,0,1-6.6234,4.2578q-1.4193.3786-1.987-.1892a.8717.8717,0,0,1,.0946-1.3247,4.0243,4.0243,0,0,1,.5678-.3784,9.5933,9.5933,0,0,0,3.8794-3.4064,20.7455,20.7455,0,0,0,2.2708-4.731,9.9991,9.9991,0,0,0,.4731-2.7439,12.1542,12.1542,0,0,0-.4731-3.5956,5.0068,5.0068,0,0,0-1.0408-2.46m-2.7439-1.0408h0a9.4781,9.4781,0,0,1,2.7439,6.9072,10.9664,10.9664,0,0,1-2.8386,7.475,9.673,9.673,0,0,1-6.6233,3.5956q-.1179.0006-.2839,0a10.8741,10.8741,0,0,1-1.4193-1.23h-.0946a9.3219,9.3219,0,0,1-2.6494-6.9073,6.3066,6.3066,0,0,1,.0946-.9461.78.78,0,0,0,0-.0947,11.0875,11.0875,0,0,1,2.6494-6.4341,9.5618,9.5618,0,0,1,6.8126-3.5009H43.76A9.4359,9.4359,0,0,1,45.2744,31.3867Z"/><path d="M13.766,39.4294a1.2736,1.2736,0,0,0-1.6086.3785,1.6893,1.6893,0,0,0-.1892,1.4192,78.3737,78.3737,0,0,0,1.5139,8.8l-3.69,2.3655L7.9,53.9062a3.9882,3.9882,0,0,0-.8516,2.1763,5.3868,5.3868,0,0,0,.5677,1.7031,25.3522,25.3522,0,0,0,8.5158,9.5566q1.0408.6624,1.5139.2839.5678-.2839.3785-1.1355a5.4452,5.4452,0,0,0-.757-1.1354,39.4394,39.4394,0,0,1-4.5417-7.6642,1.4488,1.4488,0,0,1-.0947-.8516l.4731-.4731a30.9529,30.9529,0,0,0,4.5418-3.5955,3.5542,3.5542,0,0,0,1.1354-1.7032q0-.0947-.2838-1.5139a16.512,16.512,0,0,1-.6624-3.7848,35.3257,35.3257,0,0,0-.4731-3.7848,2.0261,2.0261,0,0,0-.5677-1.23L13.766,39.4294m1.4193-19.1132-1.23-.3785q-1.7031-.8515-2.1762-.6623-.4731.0945-1.1355,1.1354L8.278,24.5741a24.5646,24.5646,0,0,0-2.5547,5.2987A16.5789,16.5789,0,0,0,5.25,32.806v.9462l-.3785.8516a3.05,3.05,0,0,0-.3785,1.3246,1.1939,1.1939,0,0,0,.3785,1.23,2.5786,2.5786,0,0,0,1.23.4731L7.9,38.01h.7569a1.5257,1.5257,0,0,0,1.1355-.757,8.6865,8.6865,0,0,0,.5677-1.3247l.6623-2.2708q2.0817-7.2858,4.4471-10.5974a2.78,2.78,0,0,0,.6624-1.9871,1.446,1.446,0,0,0-.9462-.7569M39.4079,4.5147,38.4617,4.42l-3.5009.2838a9.7153,9.7153,0,0,0-2.3655.2839l-1.987.4731a4.8065,4.8065,0,0,0-2.6494,1.0408,3.7071,3.7071,0,0,0-.5677,2.3655l.0946,5.3933-.0946.5677-.4731.2839a10.7094,10.7094,0,0,0-5.961,5.7718.6094.6094,0,0,0-.4731,0,.5452.5452,0,0,0-.1893.3785.8453.8453,0,0,0,.3785.8516,4.9375,4.9375,0,0,0,1.7032,1.23,1.6239,1.6239,0,0,0,1.4193.0946A4.0462,4.0462,0,0,0,25.31,22.3032a34.0066,34.0066,0,0,1,5.2987-5.11q.79-.54,1.6085-1.0408v-.0946a1.6643,1.6643,0,0,0,.5678-.5677,1.8827,1.8827,0,0,0,.2838-1.1355,18.0424,18.0424,0,0,0-.0946-3.0278,9.4788,9.4788,0,0,1,.0946-3.1224l.1893-.4731.5677-.2839,4.92-1.23q1.23-.3785,1.23-1.0408-.1893-.5678-.5678-.6623m.0947,64.3414-.2839-.8516-.2839-.4731-.4731-.2838a10.39,10.39,0,0,1-1.23-.1893l-1.0408-.0946L34.8662,66.68h-.0946a9.6873,9.6873,0,0,1-1.0408.2838,1.1069,1.1069,0,0,0-.3785.9462,6.3181,6.3181,0,0,0-.0946,1.7978v.4731l.0946.8516.0946.3785.0946.6623-.0946,1.1354a1.5322,1.5322,0,0,0,.2839.9462q.0945.3785.6623.5677l1.5139.5678,1.23.2838a4.658,4.658,0,0,0,1.3246,0L38.84,75.48a1.1965,1.1965,0,0,0,.5677-.6623l.1893-1.0409v-.5677l.0946-.3785v-.0946q-.08-1.32-.0946-2.8386l-.0946-1.0408m7.5695-37.4694a7.5637,7.5637,0,0,0,.9462,1.0408,5.0068,5.0068,0,0,1,1.0408,2.46,12.1542,12.1542,0,0,1,.4731,3.5956,9.9991,9.9991,0,0,1-.4731,2.7439,20.7455,20.7455,0,0,1-2.2708,4.731,9.5933,9.5933,0,0,1-3.8794,3.4064,4.0243,4.0243,0,0,0-.5678.3784.8717.8717,0,0,0-.0946,1.3247q.5678.5678,1.987.1892a16.0049,16.0049,0,0,0,6.6234-4.2578l1.1355-1.3247a7.31,7.31,0,0,0,1.5139-3.2171A6.8794,6.8794,0,0,0,53.79,40.47l-.2838-4.0687-.2839-1.1354a14.3615,14.3615,0,0,0-1.4193-2.8386,5.2648,5.2648,0,0,0-2.744-2.46,1.9547,1.9547,0,0,0-1.7031.2839,1.0808,1.0808,0,0,0-.2839,1.1354M62.2113,12.0843l-.6623-.4731-.6624-.2839-.7569-.1892h-.3785l-1.4193-.2839a1.7429,1.7429,0,0,0-1.4193.4731l-.2839.5677-2.46,2.2709-.0946.5677.0946.6624.4731.3784,1.1354.5678,1.1355.2838a2.7668,2.7668,0,0,0,.9462.5677l.4731.0947.6623-.2839.3785-.3785.8516-1.1354,1.5139-1.4193.5677-.6624.0946-.5677Z" fill="#6c6f63"/><path d="M16.4153,25.4257a1.9356,1.9356,0,0,0,.1893.2838,3.6089,3.6089,0,0,0,.8516.757,31.9865,31.9865,0,0,0,4.4471,2.1762,4.38,4.38,0,0,0,5.2987-.7569l8.61-8.2319q.8516-.8517.7569-1.4193-.0945-.3786-.9462-1.0409a4.8114,4.8114,0,0,0-.7569-.3784h-.0946q-.132-.0828-.2839-.1893h-.3785a2.336,2.336,0,0,0-1.3246.5677,32.7113,32.7113,0,0,0-5.8665,4.4472L24.7419,24.29l-.3785.2839a1.1839,1.1839,0,0,1-.757-.0946l-4.8256-1.9871a2.7331,2.7331,0,0,0-1.987.2839,2.1755,2.1755,0,0,0-.5677,1.6085,2.5986,2.5986,0,0,0,.1892,1.0409M61.0759,55.9878l-.1893-.1892-.0946-.2839.0946-.2838q.1893-.3784.3785-.3785a.1854.1854,0,0,0,.0946-.0946,1.8693,1.8693,0,0,0-.6623-.6624,2.5382,2.5382,0,0,0-2.744-.2838A8.3321,8.3321,0,0,0,56.44,54.947l-5.0149,5.8664a5.7934,5.7934,0,0,0-1.5139,3.3117l.757,7.475a2.2463,2.2463,0,0,0,.2838,1.4193l.0947.0946q.7185.6061,1.6085-.2839a.9889.9889,0,0,0,1.0408.1893.8832.8832,0,0,0,.6624-.6624,3.7138,3.7138,0,0,0,.0946-1.1354,52.8942,52.8942,0,0,1-.5677-7.8534l.0946-.5677q0-.284.3785-.4731L58.805,58.07a11.0826,11.0826,0,0,1,1.5139-1.3247,4.7672,4.7672,0,0,0,.757-.757m4.6363-26.4935a.6065.6065,0,0,1-.0946-.0946.7428.7428,0,0,1-.3785-.2839h-.0946a1.7445,1.7445,0,0,0-.7569-.1892,1.8319,1.8319,0,0,0-1.6086,1.3247,7.5118,7.5118,0,0,0-.1892,2.1762L62.779,39.24q.1893,3.3117,1.0408,4.3525a6.0694,6.0694,0,0,0,3.2171,1.8924A20.6863,20.6863,0,0,1,70.6325,46.81a25.2662,25.2662,0,0,1-2.2709,8.2319,22.7292,22.7292,0,0,0-.8516,2.1763l.0946.0946.1893.6623-.1893.3785a.11.11,0,0,1-.0946.0946.9675.9675,0,0,0,.6623.5678,1.448,1.448,0,0,0,.8516-.0947l.8516-.2838a1.7989,1.7989,0,0,0,.8516-1.0408,81.8924,81.8924,0,0,0,4.0686-11.5436,4.081,4.081,0,0,0,.0946-1.4193q-.1891-.9462-1.7977-1.3247l-3.69-1.23a5.8055,5.8055,0,0,1-1.3247-.6623,3.21,3.21,0,0,1-.8516-1.7978l.0947-1.987a16.5012,16.5012,0,0,0-.5678-6.0557,4.5833,4.5833,0,0,0-1.0408-2.0816M50.3838,27.98q-1.7031-2.3655-6.0556-2.3655a16.2794,16.2794,0,0,0-9.8405,3.0278,13.8832,13.8832,0,0,0-5.6772,9.7459,19.741,19.741,0,0,0-.1892,3.217,10.1271,10.1271,0,0,0,.2838,2.46,12.5893,12.5893,0,0,0,2.5548,4.731,24.65,24.65,0,0,0,3.3117,3.4063,7.0238,7.0238,0,0,0,4.3525,1.6086q1.1354,0,1.4193-.757V52.96q.0491-.597-1.23-1.4193a13.9448,13.9448,0,0,1-5.0148-3.8794L33.163,45.9581q-.0945-.2838-.5677-2.0816a18.09,18.09,0,0,1,.4731-7.6642A12.0866,12.0866,0,0,1,37.61,29.9674,9.6007,9.6007,0,0,1,42.72,28.3589,9.91,9.91,0,0,1,47.9237,29.4a3.2349,3.2349,0,0,0,1.5139.5677q.9484.1726,1.23-.4731.4128.285.7569.5677a8.5485,8.5485,0,0,0-.6623-.7569q.24-.53-.3785-1.3247m13.436-14.95a3.7669,3.7669,0,0,0-1.1354.9462l-3.4063,3.7848-.5677.4731-.8516-.1893a35.9212,35.9212,0,0,0-8.2319-3.2171,2.7064,2.7064,0,0,1-1.7032-.6623A3.06,3.06,0,0,1,47.64,12.652l-.1893-3.8794a6.0126,6.0126,0,0,0-.4731-1.5139q-.7569-.8517-3.2171-.6624-3.1224.0946-4.7309.1893a9,9,0,0,0-4.5418,1.4193q-1.0408.6622-.7569,1.5139a1.16,1.16,0,0,0,.2838.3785,1.4176,1.4176,0,0,1,1.4193.1892,29.8967,29.8967,0,0,0,3.1225-.6623,19.6172,19.6172,0,0,1,3.1224-.5678,2.0735,2.0735,0,0,1,1.5139.4731A2.36,2.36,0,0,1,43.382,10.57l.3784,5.6771a3.875,3.875,0,0,0,.5678,1.9871,3.4451,3.4451,0,0,0,1.987.7569,22.5237,22.5237,0,0,1,7.6642,2.1763q.7569.4731,2.0816,1.3246a3.7274,3.7274,0,0,0,2.2709.6624,4.2938,4.2938,0,0,0,2.9332-1.5139A27.3853,27.3853,0,0,1,63.82,19.2754a5.8531,5.8531,0,0,1,2.46,2.3655l1.1355,2.5547a7.6661,7.6661,0,0,0,1.1354,1.987,1.3709,1.3709,0,0,1,.4731,0,1.187,1.187,0,0,1,.6624.8516v.1892a1.1608,1.1608,0,0,0,.4731.1893,2.7692,2.7692,0,0,0,1.4193-.2839q1.5138-.6624,1.7031-1.4193a2.1993,2.1993,0,0,0-.2839-1.3247,30.0406,30.0406,0,0,0-2.2708-4.5417,32.0826,32.0826,0,0,0-4.6364-5.5826Q64.8607,12.8412,63.82,13.0305Z" fill="#fff"/><path d="M63.82,19.2754a27.3853,27.3853,0,0,0-2.5547,2.3655,4.2938,4.2938,0,0,1-2.9332,1.5139,3.7274,3.7274,0,0,1-2.2709-.6624q-1.3246-.8515-2.0816-1.3246a22.5237,22.5237,0,0,0-7.6642-2.1763,3.4451,3.4451,0,0,1-1.987-.7569,3.875,3.875,0,0,1-.5678-1.9871L43.382,10.57A2.36,2.36,0,0,0,43.1927,9.53a2.0735,2.0735,0,0,0-1.5139-.4731,19.6172,19.6172,0,0,0-3.1224.5678,29.8967,29.8967,0,0,1-3.1225.6623,1.4176,1.4176,0,0,0-1.4193-.1892.2075.2075,0,0,1-.0946.0946l-.1892.2838-.0947.1893v.7569l-.0946.3785v1.0408l.0946.757v.1892l.0947.0946.0946.9462v.4731q-.1893.284,0,.4731l.0946.3785.4731.4731a.0762.0762,0,0,0,.0946,0q.152.1065.2839.1893h.0946a4.8114,4.8114,0,0,1,.7569.3784q.8517.6624.9462,1.0409.0947.5676-.7569,1.4193l-8.61,8.2319a4.38,4.38,0,0,1-5.2987.7569,31.9865,31.9865,0,0,1-4.4471-2.1762,3.6089,3.6089,0,0,1-.8516-.757,1.9356,1.9356,0,0,1-.1893-.2838.23.23,0,0,1-.0946.0946.778.778,0,0,0-.6623-.1893,1.1245,1.1245,0,0,0-.6624.5678,35.7385,35.7385,0,0,0-3.217,8.3265,14.2238,14.2238,0,0,0-.4731,2.3655,1.3452,1.3452,0,0,0,.2838,1.3247,2.7147,2.7147,0,0,0,1.4193.6623,29.83,29.83,0,0,1,5.2041,1.5139,49.0217,49.0217,0,0,0,1.7032,11.5436l-5.3934,4.8256a2.0157,2.0157,0,0,0-.9462,1.4193A2.2913,2.2913,0,0,0,14.05,59.3l3.0279,4.8256a29.2014,29.2014,0,0,0,3.5955,4.0687,1.9085,1.9085,0,0,0,1.3247.6623,2.7674,2.7674,0,0,0,1.1354-.6623l4.731-4.6364a1.0382,1.0382,0,0,1,.6624-.3785L29,63.3682A20.18,20.18,0,0,0,39.6918,66.68q-.08,1.6846-.0946,3.217.0144,1.5187.0946,2.8386V72.83q.0528.49.0946.9462a2.39,2.39,0,0,0,.757,1.7032,3.18,3.18,0,0,0,1.4193.1892,68.4047,68.4047,0,0,0,7.6642-1.1354q1.0407-.3784,1.1354-.8516a.5814.5814,0,0,0,0-.4731q.1659-.0536.2839-.0946l-.0947-.0946A2.2463,2.2463,0,0,1,50.6677,71.6l-.757-7.475a5.7934,5.7934,0,0,1,1.5139-3.3117L56.44,54.947a8.3321,8.3321,0,0,1,1.5139-1.1354,2.5382,2.5382,0,0,1,2.744.2838,1.8693,1.8693,0,0,1,.6623.6624.1854.1854,0,0,1-.0946.0946q-.1893,0-.3785.3785l-.0946.2838.0946.2839.1893.1892.5677.4731a3.6768,3.6768,0,0,0,1.3247.8516q.3785.1893,1.23.5677l.8516.3785a3.99,3.99,0,0,0,1.6085.6623h.2839a.8434.8434,0,0,0,.5677-.4731.11.11,0,0,0,.0946-.0946l.1893-.3785-.1893-.6623-.0946-.0946a22.7292,22.7292,0,0,1,.8516-2.1763A25.2662,25.2662,0,0,0,70.6325,46.81a20.6863,20.6863,0,0,0-3.5956-1.3247A6.0694,6.0694,0,0,1,63.82,43.5926q-.8516-1.0407-1.0408-4.3525L62.59,32.4275a7.5118,7.5118,0,0,1,.1892-2.1762,1.8319,1.8319,0,0,1,1.6086-1.3247,1.7445,1.7445,0,0,1,.7569.1892h.0946a.7428.7428,0,0,0,.3785.2839.8183.8183,0,0,0,.3785.0946l.6623-.1892L69.3078,27.98a1.32,1.32,0,0,0,.3785-.757v-.1892a1.187,1.187,0,0,0-.6624-.8516,1.3709,1.3709,0,0,0-.4731,0,7.6661,7.6661,0,0,1-1.1354-1.987L66.28,21.6409a5.8531,5.8531,0,0,0-2.46-2.3655M44.3282,25.6149q4.3524,0,6.0556,2.3655.6185.795.3785,1.3247a8.5485,8.5485,0,0,1,.6623.7569q-.3441-.2828-.7569-.5677A10.4006,10.4006,0,0,1,51.9924,30.63h.0946a11.8983,11.8983,0,0,1,3.5009,8.8,13.4547,13.4547,0,0,1-3.5009,9.1781,12.22,12.22,0,0,1-8.4212,4.5417,10.2434,10.2434,0,0,1-3.1224-.1892v.0946q-.2839.757-1.4193.757a7.0238,7.0238,0,0,1-4.3525-1.6086A24.65,24.65,0,0,1,31.46,48.7967a12.5893,12.5893,0,0,1-2.5548-4.731,10.1271,10.1271,0,0,1-.2838-2.46,19.741,19.741,0,0,1,.1892-3.217,13.8832,13.8832,0,0,1,5.6772-9.7459A16.2794,16.2794,0,0,1,44.3282,25.6149Z" fill="#cfd1d5"/></g><g id="setting_basic_0_Layer1_0_FILL" data-name="setting basic 0 Layer1 0 FILL"><path d="M46.9775,60.7188a1.1666,1.1666,0,0,0-.1892.6624l.5677,8.705q-1.6086.7569-2.9332,1.5139-2.9333,1.6085-5.0149,3.0278a14.54,14.54,0,0,1-4.731-1.0408V65.2606a.9963.9963,0,0,0-.3784-.8516,1.085,1.085,0,0,0-.8516-.4731,15.0742,15.0742,0,0,1-2.2709-.2839,2.85,2.85,0,0,1-.0946.8516l-.5677,1.7978q.7491.1113,1.5139.1892v7.8535a1.1663,1.1663,0,0,0,.1892.6623A12.8264,12.8264,0,0,0,35.15,76.4257a13.3139,13.3139,0,0,0,4.731,1.1354,3.9771,3.9771,0,0,0,2.9332-1.4193q1.1355-1.4193,6.5288-4.0686a1.43,1.43,0,0,0,.4731-.5677,1.68,1.68,0,0,0,.1892-.757l-.4731-8.8a42.3826,42.3826,0,0,0,5.6772-5.11v-.0946l.0946-.0946,1.4193.5677a1.4755,1.4755,0,0,0,1.0409,0,1.1431,1.1431,0,0,0,.6623-.6623,1.4755,1.4755,0,0,0,0-1.0409,1.1484,1.1484,0,0,0-.6623-.7569l-2.2709-.9462a1.5373,1.5373,0,0,0-.757,0,1.023,1.023,0,0,0-.7569.2838,6.8064,6.8064,0,0,0-.8516,1.0409,34.4082,34.4082,0,0,1-5.7718,5.1094.9125.9125,0,0,0-.3785.4731M64.6714,11.1381a1.4891,1.4891,0,0,0-.5677-.3785,24.2878,24.2878,0,0,0-6.34-1.7978,1.7887,1.7887,0,0,0-.5678.0946.919.919,0,0,0-.5677.3785l-4.6363,5.5826a21.592,21.592,0,0,0-7.6642-3.501l4.4471-4.7309a1.44,1.44,0,0,0,.3785-.757,1.8774,1.8774,0,0,0-.1893-.8516,1.2378,1.2378,0,0,0-.5677-.5677A22.5212,22.5212,0,0,0,37.2317,2.7169,34.1432,34.1432,0,0,0,26.7289,4.9878a1.4272,1.4272,0,0,0-.5677.4731,1.2578,1.2578,0,0,0-.2839.7569v8.0427a20.18,20.18,0,0,0-5.8664,5.7718l-7.8535-2.8386a1.0029,1.0029,0,0,0-.8515,0,.8851.8851,0,0,0-.6624.4731A40.9476,40.9476,0,0,0,3.1686,37.2531a1.8259,1.8259,0,0,0,.2838.9462,1.2742,1.2742,0,0,0,.8516.4731l6.2449,1.1355v1.0408a27.3984,27.3984,0,0,0,1.23,8.3265l-6.34,4.8256a1.2113,1.2113,0,0,0-.4731.757.8045.8045,0,0,0,0,.7569A26.6937,26.6937,0,0,0,13.009,66.4906Q18.4971,71.127,22.5656,71.6q1.1355-.2838.8516-.5677-.3785-.2839-.1892-.5677a1.1668,1.1668,0,0,0,.1892-.6624v-5.961a22.4379,22.4379,0,0,0,3.4063,1.5139l1.0408-2.46a19.5178,19.5178,0,0,1-5.0148-2.46.9.9,0,0,0-.8516-.2839,1.2742,1.2742,0,0,0-.8516.4731,1.1767,1.1767,0,0,0-.3785.8516V68.383a13.6688,13.6688,0,0,1-6.9072-3.974,26.9512,26.9512,0,0,1-5.7718-8.3265l-.2839-.5678,6.34-4.8256a2.527,2.527,0,0,0,.4731-.6623v-.3785a.84.84,0,0,0-.0947-.3785,25.901,25.901,0,0,1-1.3246-8.4211q0-1.0408.0946-1.987a1.5322,1.5322,0,0,0-.2839-.9462,1.1257,1.1257,0,0,0-.7569-.5678L6.0072,36.3069A37.4757,37.4757,0,0,1,10.17,23.5333a39.3246,39.3246,0,0,1,2.0817-3.501L17.74,21.9247l2.3655.8516a1.2893,1.2893,0,0,0,.8516.0946,1.8771,1.8771,0,0,0,.6623-.5677,16.5762,16.5762,0,0,1,6.2449-6.0557l.3785-.3784.0946-.0947a1.6789,1.6789,0,0,0,.1893-.7569V7.164a1.87,1.87,0,0,0,.3784-.1892,34.1464,34.1464,0,0,1,7.6642-1.5139,3.5174,3.5174,0,0,1,.8516-.0946,19.9114,19.9114,0,0,1,6.4342.4731,8.9929,8.9929,0,0,1,1.7031.5677L44.2335,7.7318,40.638,11.5165a.9967.9967,0,0,0-.3785.8516,1.1767,1.1767,0,0,0,.3785.8516,1.0708,1.0708,0,0,0,.3785.3785,1.0526,1.0526,0,0,0,.4731.0946,11.2261,11.2261,0,0,1,2.3655.4731,19.2427,19.2427,0,0,1,7.5695,3.69,1.0245,1.0245,0,0,0,.9462.2838.908.908,0,0,0,.6624-.2838l.1892-.1893L57.48,12.652a3.7793,3.7793,0,0,0,.3785-.5677,2.6149,2.6149,0,0,0,.3785-.3785A22.77,22.77,0,0,1,62.59,13.0305a5.8172,5.8172,0,0,1,.1892.8515h.0946q.0144.1017,0,.0947h0q.1116.4062.1893.7569v.0946a.719.719,0,0,1,.0946.1893q.0947.2838.1892.6623,1.1355,3.69,2.6494,7.8535l-6.34,3.4063a1.143,1.143,0,0,0-.6624.6623,1.0031,1.0031,0,0,0,0,.8516,28.574,28.574,0,0,1,.9462,11.26.9006.9006,0,0,0,.2839.8516,1.7214,1.7214,0,0,0,.7569.5677l.6624.1893V35.55H62.779a29.5914,29.5914,0,0,0-.9462-6.8127l6.4342-3.3116a1.723,1.723,0,0,0,.5677-.757,1.0031,1.0031,0,0,0,0-.8516q-2.3655-6.7181-3.8794-12.2059A1.1867,1.1867,0,0,0,64.6714,11.1381Z"/><path d="M14.6176,49.6483v.3785a2.527,2.527,0,0,1-.4731.6623l-6.34,4.8256.2839.5678a44.0693,44.0693,0,0,0,5.8664,1.3246,2.9711,2.9711,0,0,0,1.5139,0q.9462-.3785.5678-1.23l1.8924-1.1355a1.6956,1.6956,0,0,0,.8515-.5677,2.9185,2.9185,0,0,1,.8516-.7569l1.0408-.6624a1.4012,1.4012,0,0,0,0-1.23,4.6347,4.6347,0,0,0-.9462-.8516,9.8259,9.8259,0,0,0-5.1094-1.3247m.1892-24.4119a1.7747,1.7747,0,0,0,1.4193-.1892.8771.8771,0,0,0,.6623-1.1355,1.5127,1.5127,0,0,0,.9462-1.23,3.11,3.11,0,0,0-.0946-.757l-5.4879-1.8924a39.3246,39.3246,0,0,0-2.0817,3.501,13.6157,13.6157,0,0,0,4.6364,1.7031M28.9051,6.9748q1.4268.3493,2.9333.8516l2.5547.8516.8516.3784.2838.2839a.9085.9085,0,0,1,.1893-.5677l.4731-.2839a10.9176,10.9176,0,0,1,2.3655-.4731,30.7369,30.7369,0,0,1,3.8794-.3785l1.23-.1892a1.5555,1.5555,0,0,0,.4731-.0946L43.95,6.4071a1.7857,1.7857,0,0,1-.0946-.5677,19.9114,19.9114,0,0,0-6.4342-.4731,3.5174,3.5174,0,0,0-.8516.0946,34.1464,34.1464,0,0,0-7.6642,1.5139m32.9277,7.0965q.5463-.0684,1.0408-.0946h0q.0144.0069,0-.0947H62.779a5.8172,5.8172,0,0,0-.1892-.8515,22.77,22.77,0,0,0-4.3525-1.3247,2.6149,2.6149,0,0,1-.3785.3785,3.7793,3.7793,0,0,1-.3785.5677l-.0946.0946.1892.0946a32.9852,32.9852,0,0,1,4.1633,1.1355Z" fill="#8d9182"/><path d="M28.9051,6.9748a1.87,1.87,0,0,1-.3784.1892v7.8535a1.6789,1.6789,0,0,1-.1893.7569l-.0946.0947-.3785.3784a16.5762,16.5762,0,0,0-6.2449,6.0557,1.8771,1.8771,0,0,1-.6623.5677,1.2893,1.2893,0,0,1-.8516-.0946L17.74,21.9247a3.11,3.11,0,0,1,.0946.757,1.5127,1.5127,0,0,1-.9462,1.23.8771.8771,0,0,1-.6623,1.1355,1.7747,1.7747,0,0,1-1.4193.1892A13.6157,13.6157,0,0,1,10.17,23.5333,37.4757,37.4757,0,0,0,6.0072,36.3069l6.2449,1.0408a1.1257,1.1257,0,0,1,.7569.5678,1.5322,1.5322,0,0,1,.2839.9462q-.0947.9462-.0946,1.987A25.901,25.901,0,0,0,14.5229,49.27a.84.84,0,0,1,.0947.3785A9.8259,9.8259,0,0,1,19.727,50.973a4.6347,4.6347,0,0,1,.9462.8516,1.4012,1.4012,0,0,1,0,1.23l-1.0408.6624a2.9185,2.9185,0,0,0-.8516.7569,1.6956,1.6956,0,0,1-.8515.5677l-1.8924,1.1355q.3785.8515-.5678,1.23a2.9711,2.9711,0,0,1-1.5139,0,44.0693,44.0693,0,0,1-5.8664-1.3246,26.9512,26.9512,0,0,0,5.7718,8.3265,13.6688,13.6688,0,0,0,6.9072,3.974V61.4758a1.1767,1.1767,0,0,1,.3785-.8516,1.2742,1.2742,0,0,1,.8516-.4731.9.9,0,0,1,.8516.2839,19.5178,19.5178,0,0,0,5.0148,2.46l.2839-.6624.6623-.9462a.6369.6369,0,0,1,.5677-.2838l.2839-.1893a1.9886,1.9886,0,0,1,1.0408.6624,1.2716,1.2716,0,0,1,.3785,1.1354v.4731l.0946.2839a.5637.5637,0,0,1,0,.2838,15.0742,15.0742,0,0,0,2.2709.2839,1.085,1.085,0,0,1,.8516.4731.9963.9963,0,0,1,.3784.8516v8.3265a14.54,14.54,0,0,0,4.731,1.0408Q41.49,73.2086,44.4228,71.6a22.1364,22.1364,0,0,0,.4731-3.7848,9.4827,9.4827,0,0,0,0-1.8924A7.601,7.601,0,0,0,41.9627,61.57q-2.9333-2.0817-4.3525-3.1225a26.63,26.63,0,0,1-3.8794-3.3116,15.9181,15.9181,0,0,1-2.3655-2.46,15.51,15.51,0,0,1-2.0817-5.204,12.8172,12.8172,0,0,1-.5677-3.8795A19.0161,19.0161,0,0,1,29,40.281l.8515-6.6234a16.7538,16.7538,0,0,1,1.0409-2.744A17.5794,17.5794,0,0,1,34.3931,25.71q3.5009-3.3117,5.2987-5.0148a14.7077,14.7077,0,0,0,3.974-6.0557,3.6752,3.6752,0,0,0,.1893-.4731,11.2261,11.2261,0,0,0-2.3655-.4731,1.0526,1.0526,0,0,1-.4731-.0946,1.0708,1.0708,0,0,1-.3785-.3785,1.1767,1.1767,0,0,1-.3785-.8516.9967.9967,0,0,1,.3785-.8516l3.5955-3.7847-.0946-.3785a1.5555,1.5555,0,0,1-.4731.0946l-1.23.1892a30.7369,30.7369,0,0,0-3.8794.3785,10.9176,10.9176,0,0,0-2.3655.4731l-.4731.2839a.9085.9085,0,0,0-.1893.5677l-.2838-.2839-.8516-.3784-2.5547-.8516q-1.5066-.5023-2.9333-.8516m6.34,8.4212a1.2389,1.2389,0,0,0,.5677-.6624,1.1383,1.1383,0,0,1-.3785.8516l-.1892-.1892m.0946-2.2709a.7388.7388,0,0,0-.1893-.0946l.1893-.1893a.3556.3556,0,0,1,0,.2839m27.5343.8516q-.4946.0262-1.0408.0946l-.0946-.0946a32.9852,32.9852,0,0,0-4.1633-1.1355l-.1892-.0946.0946-.0946-4.2579,5.0148-.1892.1893a3.1091,3.1091,0,0,0-.0946.7569l.0946.6624a1.2138,1.2138,0,0,0,1.4193.8515,1.4066,1.4066,0,0,0,1.23-1.23q.0947,0,.5677.757a1.18,1.18,0,0,0,1.3247.473,2.297,2.297,0,0,0,1.1355-.5677l.4731-.6623a7.1357,7.1357,0,0,0,1.0408-1.23l1.5139-2.1762a1.31,1.31,0,0,0,1.6085.1892q-.0947-.3785-.1892-.6623a.719.719,0,0,0-.0946-.1893v-.0946Q62.9852,14.3829,62.8736,13.9767Z" fill="#6c6f63"/><path d="M35.15,13.0305a.7388.7388,0,0,1,.1893.0946.3556.3556,0,0,0,0-.2839l-.1893.1893m.6624,1.7031a1.2389,1.2389,0,0,1-.5677.6624l.1892.1892A1.1383,1.1383,0,0,0,35.8124,14.7336Z" fill="#767a69"/></g><g id="setting_basic_0_Layer0_0_FILL" data-name="setting basic 0 Layer0 0 FILL"><path d="M63.82,10.9488a1.3314,1.3314,0,0,0-.8515.4731l-4.731,5.488a22.1232,22.1232,0,0,0-8.9889-3.7848V6.0286a1.3354,1.3354,0,0,0-.3785-.9462,1.2733,1.2733,0,0,0-.8516-.3785,31.8956,31.8956,0,0,0-5.0148,0,33.7234,33.7234,0,0,0-9.9351,2.2709,1.5962,1.5962,0,0,0-.6623.4731,1.589,1.589,0,0,0-.1893.757v7.948a30.2125,30.2125,0,0,0-7.8534,6.5288h0q-.1878.231-.3785.4731L17.5508,20.6a1.4726,1.4726,0,0,0-.8516-.0946,1.9517,1.9517,0,0,0-.757.5677,39.5094,39.5094,0,0,0-6.6233,17.41,1.5315,1.5315,0,0,0,.1892.9462,1.2239,1.2239,0,0,0,.757.4731l6.6233,1.7031q-.0015.63,0,1.23a28,28,0,0,0,1.23,8.3265l-6.4342,4.8256a1.981,1.981,0,0,0-.4731.6624,1.5943,1.5943,0,0,0,.0947.8516,32.86,32.86,0,0,0,7.4749,11.3543h0q1.4183,1.3021,2.8386,2.46a1.3358,1.3358,0,0,0,.9462.2839,1.1,1.1,0,0,0,.8516-.4731l5.2041-5.9611a22.155,22.155,0,0,0,9.7458,3.3117v7.8535a1.2936,1.2936,0,0,0,1.3247,1.3247,31.1988,31.1988,0,0,0,3.5009-.1893,33.4587,33.4587,0,0,0,12.3952-3.5009.97.97,0,0,0,.5677-.4731,1.3648,1.3648,0,0,0,.1893-.757l-.5678-8.8a30.43,30.43,0,0,0,5.6772-5.2041q.0691,0,.0947-.0946.0346.0056,0-.0946l7.0964,2.8386a1.293,1.293,0,0,0,.9462,0,.9338.9338,0,0,0,.6624-.4731,38.8463,38.8463,0,0,0,6.6234-16.937,1.2313,1.2313,0,0,0-.2839-.9462,1.2924,1.2924,0,0,0-.757-.5677l-6.8126-1.7031q.0972-1.0883.0946-2.2709a30.2206,30.2206,0,0,0-.9462-7.7588l6.34-3.4064a1.11,1.11,0,0,0,.6623-.6623,1.3184,1.3184,0,0,0,0-.9462,32.3285,32.3285,0,0,0-7.9481-12.3952,19.8521,19.8521,0,0,0-2.46-2.0816,1.2083,1.2083,0,0,0-.9462-.2839m.3785,3.1225q.5692.5618,1.1354,1.1354A29.03,29.03,0,0,1,72.241,25.52L69.97,26.75,65.9015,28.832a2.3563,2.3563,0,0,1-.3785.2838q-.0994.2111-.1893.3785a1.6366,1.6366,0,0,0-.0946.9462,25.67,25.67,0,0,1,1.23,8.0427,25.9776,25.9776,0,0,1-.1893,3.1224,1.4827,1.4827,0,0,0,.1893.9462,1.3109,1.3109,0,0,0,.8516.4731l6.718,1.7032a35.1192,35.1192,0,0,1-5.3934,13.72l-6.9072-2.6493a1.21,1.21,0,0,0-.4731-.0946,1.2141,1.2141,0,0,1-.2839,0,1.5725,1.5725,0,0,0-.6623.3785q-.4262.4431-.8516.9462V56.934a27.9712,27.9712,0,0,1-5.7718,5.2041,2.4665,2.4665,0,0,0-.4731.5677,1.6966,1.6966,0,0,0-.0946.6624l.4731,8.61a12.3423,12.3423,0,0,1-1.987.8515,30.7237,30.7237,0,0,1-8.61,1.9871h-.0946a14.0663,14.0663,0,0,1-1.8924.0946V67.2476a1.42,1.42,0,0,0-.3785-.9462,1.4541,1.4541,0,0,0-.9462-.3785A19.31,19.31,0,0,1,29.189,62.3274a1.4854,1.4854,0,0,0-.9462-.1893,1.6158,1.6158,0,0,0-.8516.3785L22.2818,68.383q-.8081-.67-1.6086-1.4193l-.0946-.0946a29.81,29.81,0,0,1-6.4341-9.462l6.2449-4.731a1.0341,1.0341,0,0,0,.4731-.6623,1.2113,1.2113,0,0,0,0-.8516,24.8159,24.8159,0,0,1-1.3247-8.3265q.0025-1.0619.0946-2.0816a1.1586,1.1586,0,0,0-.2839-.8516,1.323,1.323,0,0,0-.7569-.5677l-6.5288-1.7032a37.8414,37.8414,0,0,1,4.5418-12.679q.4948-.7422.9462-1.514l6.4341,2.5548a1.1048,1.1048,0,0,0,.8516,0,.9766.9766,0,0,0,.6623-.4731,6.7794,6.7794,0,0,0,.5677-.757,3.6932,3.6932,0,0,0,.3785-.3785H26.35A27.4129,27.4129,0,0,1,34.1092,18.14a.937.937,0,0,0,.5677-.4731q.04-.0233,0-.0946h.0947a1.6376,1.6376,0,0,0,.0946-.5677V9.0564a32.76,32.76,0,0,1,8.3265-1.7031Q44.92,7.221,46.599,7.2587v7.0964a1.262,1.262,0,0,0,.2839.8516,1.3763,1.3763,0,0,0,.8516.4731,18.8721,18.8721,0,0,1,9.935,4.1633,1.3159,1.3159,0,0,0,.9462.2838,1.355,1.355,0,0,0,.9462-.473l4.6364-5.5826M43.5712,27.6019h-.0946a11.9294,11.9294,0,0,0-8.61,4.4471,13.6252,13.6252,0,0,0-3.3117,7.7589,9.2274,9.2274,0,0,0-.0946,1.4192,11.7539,11.7539,0,0,0,3.5009,8.8h0a10.7777,10.7777,0,0,0,2.3655,1.7978l.0946.0946a.0981.0981,0,0,0,.0946,0,.3334.3334,0,0,0,.2839.0946.479.479,0,0,0,.0946.0946,2.2418,2.2418,0,0,0,.3785.1893,9.6582,9.6582,0,0,0,1.987.6623,11.6366,11.6366,0,0,0,3.4063.1892,12.22,12.22,0,0,0,8.4212-4.5417,13.4547,13.4547,0,0,0,3.5009-9.1781,11.8983,11.8983,0,0,0-3.5009-8.8h-.0946a9.14,9.14,0,0,0-1.514-1.23l-4.1632-1.7032a.6229.6229,0,0,1-.1893,0q-.1083-.0328-.2838-.0946a1.4265,1.4265,0,0,1-.2839,0,2.5828,2.5828,0,0,1-.2838,0q-.0962.0033-.1893,0-.2136-.0007-.4731,0-.0281-.0011-.0946,0-.1235-.0038-.2839,0a.2146.2146,0,0,0-.0946,0h-.5677m6.6234,4.92h0a9.4007,9.4007,0,0,1,2.744,6.9073A10.9673,10.9673,0,0,1,50.1,46.9043,9.7966,9.7966,0,0,1,43.5712,50.5a13.3239,13.3239,0,0,0,3.5956-3.0278,13.4554,13.4554,0,0,0,3.5009-9.1782,12.4235,12.4235,0,0,0-1.987-7.0018,9.8527,9.8527,0,0,1,1.5139,1.23m-4.92-1.1354h0a9.4781,9.4781,0,0,1,2.7439,6.9072,10.9664,10.9664,0,0,1-2.8386,7.475,9.673,9.673,0,0,1-6.6233,3.5956q-.1179.0006-.2839,0a10.8741,10.8741,0,0,1-1.4193-1.23h-.0946a9.3219,9.3219,0,0,1-2.6494-6.9073,6.3066,6.3066,0,0,1,.0946-.9461.78.78,0,0,0,0-.0947,11.0875,11.0875,0,0,1,2.6494-6.4341,9.5618,9.5618,0,0,1,6.8126-3.5009H43.76A9.4359,9.4359,0,0,1,45.2744,31.3867Z"/><path d="M16.6046,24.9526l2.6493,1.5139.8516.1892.757.4731.5677.1892.8516.4731a5.386,5.386,0,0,0,2.1762.3785,2.1575,2.1575,0,0,0,1.8924-.3785l.5677-.5677.6624-1.4193A.55.55,0,0,0,27.77,25.71a2.669,2.669,0,0,0,.8516-.8516A29.2654,29.2654,0,0,1,35.15,19.37q1.0408-.6624.8516-1.3247-.0947-.3785-.7569-.5677l-.4731.0946h-.0947q.04.0714,0,.0946a.937.937,0,0,1-.5677.4731A27.4129,27.4129,0,0,0,26.35,24.3848h.0946a3.6932,3.6932,0,0,1-.3785.3785,6.7794,6.7794,0,0,1-.5677.757.9766.9766,0,0,1-.6623.4731,1.1048,1.1048,0,0,1-.8516,0l-6.4341-2.5548q-.4513.7717-.9462,1.514M61.2651,55.704q.2121-.0037.3785,0A1.8409,1.8409,0,0,0,61.36,55.42a2.304,2.304,0,0,0-1.8924-.7569,2.7183,2.7183,0,0,0-1.7031,1.1354L56.44,57.4071l-1.0408.9462q-2.5548,2.2709-2.6494,2.3655a5.9791,5.9791,0,0,0-1.7031,1.6086l-.0947,1.23.2839,3.7848a10.4461,10.4461,0,0,0,0,1.987l.3785,3.5009a12.3423,12.3423,0,0,0,1.987-.8515l-.4731-8.61a1.6966,1.6966,0,0,1,.0946-.6624,2.4665,2.4665,0,0,1,.4731-.5677,27.9712,27.9712,0,0,0,5.7718-5.2041v.0947q.4254-.5031.8516-.9462a1.5725,1.5725,0,0,1,.6623-.3785,1.2141,1.2141,0,0,0,.2839,0M65.523,29.1158a1.9235,1.9235,0,0,0-1.3247.3785,1.5921,1.5921,0,0,0-.6623,1.5139l.1892,1.6086a33,33,0,0,1,.2839,8.61,3.5166,3.5166,0,0,0,.1892,1.514q.1893.5677,1.4193,1.3246a21.6709,21.6709,0,0,0,5.9611,2.0817L71.2,49.1752a54.3566,54.3566,0,0,1-3.1225,9.0835l.5677.1892a35.1192,35.1192,0,0,0,5.3934-13.72l-6.718-1.7032a1.3109,1.3109,0,0,1-.8516-.4731,1.4827,1.4827,0,0,1-.1893-.9462,25.9776,25.9776,0,0,0,.1893-3.1224,25.67,25.67,0,0,0-1.23-8.0427,1.6366,1.6366,0,0,1,.0946-.9462q.09-.1674.1893-.3785M43.4766,27.6019h.6623a.2146.2146,0,0,1,.0946,0q.16-.0038.2839,0,.0666-.0011.0946,0,.2595-.0007.4731,0,.0932.0033.1893,0a2.5828,2.5828,0,0,0,.2838,0,1.4265,1.4265,0,0,0,.2839,0q.1755.0618.2838.0946a.6229.6229,0,0,0,.1893,0L50.4784,29.4a7.6778,7.6778,0,0,1,.9462.6623,9.815,9.815,0,0,0-8.2319-3.7848,13.2347,13.2347,0,0,0-8.9889,3.501,9.9561,9.9561,0,0,0-2.8385,3.5009,14.7856,14.7856,0,0,0-1.3247,3.7848,16.9359,16.9359,0,0,0,.4731,8.9889,9.639,9.639,0,0,0,6.15,6.2449,17.2922,17.2922,0,0,0,3.5009.6623.2647.2647,0,0,0,.0946,0,9.6582,9.6582,0,0,1-1.987-.6623,2.2418,2.2418,0,0,1-.3785-.1893.479.479,0,0,1-.0946-.0946.3334.3334,0,0,1-.2839-.0946.0981.0981,0,0,1-.0946,0l-.0946-.0946a10.7777,10.7777,0,0,1-2.3655-1.7978h0a11.7539,11.7539,0,0,1-3.5009-8.8,9.2274,9.2274,0,0,1,.0946-1.4192,13.6252,13.6252,0,0,1,3.3117-7.7589,11.9294,11.9294,0,0,1,8.61-4.4471M65.3337,15.2067q-.5661-.5736-1.1354-1.1354l-4.6364,5.5826a1.355,1.355,0,0,1-.9462.473,1.3159,1.3159,0,0,1-.9462-.2838,18.8721,18.8721,0,0,0-9.935-4.1633,1.3763,1.3763,0,0,1-.8516-.4731,1.262,1.262,0,0,1-.2839-.8516V7.2587q-1.6786-.0378-3.4063.0946a32.76,32.76,0,0,0-8.3265,1.7031V9.908a20.8014,20.8014,0,0,1,9.5566-1.1354l.3785,7.0965a2.29,2.29,0,0,0,.2838,1.3246,3.1727,3.1727,0,0,0,1.5139.4731,18.058,18.058,0,0,1,10.1243,3.69q1.8924,1.4193,3.0279,1.0408a3.722,3.722,0,0,0,1.23-1.1354L64.5768,16.91A17.9515,17.9515,0,0,1,69.97,26.75l2.2709-1.23A29.03,29.03,0,0,0,65.3337,15.2067Z" fill="#fff"/><path d="M69.97,26.75a17.9515,17.9515,0,0,0-5.3933-9.84l-3.5956,4.3525a3.722,3.722,0,0,1-1.23,1.1354q-1.1355.3784-3.0279-1.0408a18.058,18.058,0,0,0-10.1243-3.69,3.1727,3.1727,0,0,1-1.5139-.4731,2.29,2.29,0,0,1-.2838-1.3246l-.3785-7.0965A20.8014,20.8014,0,0,0,34.8662,9.908v7.0965a1.6376,1.6376,0,0,1-.0946.5677l.4731-.0946q.6622.1893.7569.5677.1893.6624-.8516,1.3247a29.2654,29.2654,0,0,0-6.5287,5.4879,2.669,2.669,0,0,1-.8516.8516.55.55,0,0,1-.1892.0946l-.6624,1.4193-.5677.5677a2.1575,2.1575,0,0,1-1.8924.3785,5.386,5.386,0,0,1-2.1762-.3785L21.43,27.318l-.5677-.1892-.757-.4731-.8516-.1892-2.6493-1.5139a37.8414,37.8414,0,0,0-4.5418,12.679l6.5288,1.7032a1.323,1.323,0,0,1,.7569.5677,1.1586,1.1586,0,0,1,.2839.8516q-.0921,1.02-.0946,2.0816a24.8159,24.8159,0,0,0,1.3247,8.3265,1.2113,1.2113,0,0,1,0,.8516,1.0341,1.0341,0,0,1-.4731.6623l-6.2449,4.731a29.81,29.81,0,0,0,6.4341,9.462l.0946.0946q.8006.7493,1.6086,1.4193l5.1094-5.8664a1.6158,1.6158,0,0,1,.8516-.3785,1.4854,1.4854,0,0,1,.9462.1893,19.31,19.31,0,0,0,10.5028,3.5955,1.4541,1.4541,0,0,1,.9462.3785,1.42,1.42,0,0,1,.3785.9462v7.6642a14.0663,14.0663,0,0,0,1.8924-.0946h.0946a30.7237,30.7237,0,0,0,8.61-1.9871l-.3785-3.5009a10.4461,10.4461,0,0,1,0-1.987l-.2839-3.7848.0947-1.23a5.9791,5.9791,0,0,1,1.7031-1.6086q.0946-.0947,2.6494-2.3655l1.0408-.9462,1.3247-1.6085a2.7183,2.7183,0,0,1,1.7031-1.1354A2.304,2.304,0,0,1,61.36,55.42a1.8409,1.8409,0,0,1,.2839.2839q-.1664-.0037-.3785,0a1.21,1.21,0,0,1,.4731.0946l6.9072,2.6493-.5677-.1892A54.3566,54.3566,0,0,0,71.2,49.1752l.3785-3.0278a21.6709,21.6709,0,0,1-5.9611-2.0817q-1.23-.7569-1.4193-1.3246a3.5166,3.5166,0,0,1-.1892-1.514,33,33,0,0,0-.2839-8.61l-.1892-1.6086a1.5921,1.5921,0,0,1,.6623-1.5139,1.9235,1.9235,0,0,1,1.3247-.3785,2.3563,2.3563,0,0,0,.3785-.2838L69.97,26.75M51.9924,30.63h.0946a11.8983,11.8983,0,0,1,3.5009,8.8,13.4547,13.4547,0,0,1-3.5009,9.1781,12.22,12.22,0,0,1-8.4212,4.5417A11.6366,11.6366,0,0,1,40.26,52.96a.2647.2647,0,0,1-.0946,0,17.2922,17.2922,0,0,1-3.5009-.6623,9.639,9.639,0,0,1-6.15-6.2449,16.9359,16.9359,0,0,1-.4731-8.9889,14.7856,14.7856,0,0,1,1.3247-3.7848,9.9561,9.9561,0,0,1,2.8385-3.5009,13.2347,13.2347,0,0,1,8.9889-3.501,9.815,9.815,0,0,1,8.2319,3.7848,7.6778,7.6778,0,0,0-.9462-.6623A9.14,9.14,0,0,1,51.9924,30.63Z" fill="#cfd1d5"/><path d="M50.1946,32.5221h0a9.8527,9.8527,0,0,0-1.5139-1.23,12.4235,12.4235,0,0,1,1.987,7.0018,13.4554,13.4554,0,0,1-3.5009,9.1782A13.3239,13.3239,0,0,1,43.5712,50.5,9.7966,9.7966,0,0,0,50.1,46.9043a10.9673,10.9673,0,0,0,2.8386-7.4749A9.4007,9.4007,0,0,0,50.1946,32.5221Z" fill="#6c6f63"/></g></svg>