
<svg xmlns="http://www.w3.org/2000/svg" version="1.1" xmlns:xlink="http://www.w3.org/1999/xlink" preserveAspectRatio="none" x="0px" y="0px" width="80px" height="80px" viewBox="0 0 80 80">
<defs>
<g id="shop_basic_0_Layer1_0_FILL">
<path fill="#E680DD" stroke="none" d="
M -82.65 351.85
Q -86.05 352.45 -88.3 355.35 -88.8 356.05 -90.35 359.05 -91.35 361 -93.65 364.75 -95.4 368.15 -95.55 370.85 -95.7 374.9 -92.85 378.65 -90.6 381.6 -86.55 384.1 -82.15 386.9 -77.45 388.5 -71.3 390.7 -66.15 390.25 -62.05 389.95 -56.45 387.6 -51.9 385.8 -49.25 383.85 -45.75 381.35 -41.6 375.9 -38.15 371.35 -36.65 368.1 -34.6 363.6 -34.35 358.5 -34.1 353.45 -35.75 348.75 -37.8 342.9 -41.8 342 -43.7 341.6 -46 342.4 -47.45 342.9 -49.95 344.3 -56.95 348.2 -62.4 350.05 -69.5 352.4 -75.7 352 -76.85 351.95 -79.15 351.7 -81.2 351.55 -82.65 351.85
M -128.75 370.75
Q -134.9 370.15 -139.15 371.7 -143.95 373.5 -149 379 -157 387.65 -160 397.15 -161.7 402.4 -161.7 407.7 -161.75 413.3 -159.9 418.2 -156.85 426.45 -148.85 432.1 -141.3 437.45 -132 438.65 -125.45 439.45 -119.95 438.05 -114.25 436.6 -109.2 432.65 -104.55 429 -101 423.65 -97.75 418.85 -95.75 413.15 -94.15 408.65 -94 404.95 -93.65 398.3 -97.6 390.75 -100.05 386.25 -106.05 378.65 -107.6 376.7 -108.5 375.8 -110 374.3 -111.5 373.6 -112.8 372.95 -114.7 372.6 -115.35 372.5 -118.05 372.2 -121.55 371.8 -128.75 370.75
M -224.25 349.15
Q -228.5 349.55 -231.3 350.4 -235.05 351.5 -237.45 353.6 -241.1 356.7 -242.8 363.1 -244.95 371.15 -241.85 376.6 -241.35 377.4 -240.15 379 -239 380.5 -238.5 381.4 -238.4 381.55 -236.9 384.85 -235.95 386.95 -234.85 387.95 -233.15 389.55 -230.3 389.9 -228.3 390.15 -225.05 389.8 -220.45 389.3 -218.25 388.6 -215.05 387.6 -209.95 384.15 -207.05 382.25 -205.05 380.6 -199.55 375.95 -195.25 366.95 -194 364.25 -193.55 362.35 -193 359.7 -193.7 357.6 -195.05 353.8 -200.75 351.5 -210.15 347.7 -224.25 349.15
M -291.35 375
Q -296.2 378.35 -298.9 381.55 -302.15 385.5 -304.45 391.65 -308.3 401.85 -307.05 410.9 -306.4 415.9 -304.1 420.25 -301.7 424.85 -297.95 427.8 -293.2 431.5 -286.15 432.85 -280.65 433.9 -272.95 433.65 -266.15 433.45 -262.1 432.05 -256.65 430.2 -252.25 425.45 -248.25 421.1 -245.85 415.2 -244.4 411.7 -242.8 405.55 -241.2 399.05 -241.15 395.65 -241.05 390.8 -243.05 387.45 -243.6 386.6 -244.65 385.25 -245.9 383.65 -246.3 383.1 -248.1 379.9 -249.2 378.45 -251.3 375.65 -256.3 373.1 -267.4 367.4 -276.35 368.55 -283.15 369.45 -291.35 375
M 25.85 123.7
Q 27.05 119.1 27.1 115.3 27.15 110.8 25.4 106.95 23.55 102.75 20.05 100.6 16.35 98.35 11.8 99.35 7.15 100.45 5.5 104.25 4.65 106.2 4.7 108.85 4.7 110.6 5.25 113.65
L 6.85 123.1
Q 7.15 124.95 6.75 125.75 6.3 126.7 4.65 127.6 -1.1 130.75 -4.3 132.3 -9.4 134.75 -13.7 136.05 -18.85 137.65 -25.35 138.45 -29.95 139 -37.3 139.3 -59.2 140.4 -86.6 140.55 -103.05 140.65 -135.95 140.35
L -257.6 139.25
Q -274.15 139.15 -287.35 138.9 -287.9 131.05 -286 123.45 -285.1 119.85 -285.05 119.4 -284.6 117.1 -284.9 115.35 -285.25 113.2 -286.8 111.7 -288.45 110.1 -290.4 110.4 -291.75 110.6 -293.5 112.05 -295.65 113.8 -296.5 114.15 -297.4 114.55 -298.85 114.75 -299.65 114.85 -301.3 115 -305.45 115.7 -308.45 119 -311.5 122.35 -311.75 126.5 -311.9 129 -311.2 132.05 -310.8 134.3 -309.2 140.85
L -288.8 222.8
Q -284.05 241.85 -281.95 251.45 -278.45 267.4 -276.8 280.4 -276.4 283.6 -275.85 285.35 -275 288 -273.3 289.35 -271.1 291.1 -267.4 290.9 -265.45 290.8 -260.95 289.7 -252.6 287.65 -239.7 287.4 -225.35 287.5 -218.2 287.05 -209.15 286.5 -195.5 284.1 -175.1 280.55 -172.85 280.2 -162 278.6 -148.5 277.75 -139.55 277.15 -124.05 276.65
L -73.45 275.05
Q -65.7 274.85 -61.7 274.4 -55.25 273.65 -50.4 271.75 -45.4 269.8 -38.5 265 -29 258.35 -27.1 257.25 -23.45 255.25 -21.75 254.2 -18.75 252.3 -17 250.35 -15.15 248.25 -13.85 245 -13.1 243.2 -11.85 239.05 4.1 185.4 23.2 131.8 25.15 126.4 25.85 123.7 Z"/>

<path fill="#B9CCF0" stroke="none" d="
M -125.65 351.25
Q -128.75 350.9 -130.75 351.55 -133.6 352.55 -134.35 354.95 -134.45 355.3 -134.6 356 -134.75 356.65 -135 357.05 -135.3 357.5 -136.15 358.25 -137 359.25 -136.85 360.8 -136.7 362.25 -135.8 363.45 -134.9 364.6 -133.7 364.9 -132.95 365 -131.85 364.7 -130.2 364.25 -130.05 364.2 -129.25 364.1 -128 364.25 -126.25 364.45 -125.95 364.45 -123.6 364.3 -122.4 364.35 -121.55 364.35 -120.15 364.55 -118.35 364.85 -117.9 364.9 -114.6 365.15 -113 365.55 -112.85 365.6 -109.2 367 -106.95 367.85 -105.4 367.65 -103.7 367.45 -101.1 365.65 -99.3 364.45 -98.7 363.6 -97.95 362.5 -97.8 360.75 -97.45 358.4 -98.25 356.95 -99.15 355.2 -102.05 354.15 -107.5 352.05 -113 352.05 -113.75 352.05 -116.75 352.15 -119.1 352.2 -120.55 352.05 -122.25 351.9 -125.65 351.25
M -249.65 353.4
Q -250.85 352.9 -252.85 353.15 -256.05 353.45 -256.2 353.45 -257.6 353.45 -259.85 352.85 -262.55 352.15 -263.55 352.05 -264.6 351.95 -266.1 352 -266.95 352 -268.65 352.1 -272.35 352.2 -275.95 351.5 -277.85 351.1 -278.6 351.1 -280.15 351 -281.15 351.55 -281.95 352.05 -282.45 352.9 -282.95 353.75 -282.9 354.7 -282.85 355.85 -282.05 356.9 -281.35 357.85 -280.2 358.45 -278.85 359.2 -275.6 359.7 -270.25 360.5 -268.5 360.5 -266.5 360.5 -266.1 360.55 -264.95 360.7 -262.75 361.4 -259.25 362.55 -254.85 363.2 -252.05 363.5 -250.8 362.95 -249.55 362.45 -248.55 361.2 -246.95 359.45 -246.9 357.6 -246.8 356.25 -247.6 355.05 -248.4 353.9 -249.65 353.4
M -321.7 117.75
Q -322.1 112.5 -322.5 109.45 -323.55 102.1 -327.8 101.25 -328.85 101.05 -330.4 101.35
L -333.05 101.85
Q -334.8 102.05 -337.25 101.65 -338.65 101.4 -341.45 100.8 -346.85 99.75 -354.85 100.25 -359.4 100.55 -368.45 101.2 -378.55 101.45 -380.5 101.75 -387.2 102.7 -390.75 106.35 -394.6 110.3 -395.5 118.3 -396.75 128.85 -391.8 133.8 -388.6 137 -382.85 137.7 -379.25 138.1 -372.45 137.5 -360.7 136.5 -349.45 136.5 -346.55 136.5 -345.2 137.25 -343.9 138 -343.05 139.75 -342.55 140.85 -342 143 -326.1 208.65 -308.45 277.25 -307.15 282.4 -307.5 285.05 -307.75 286.9 -308.75 289.05 -309.15 289.85 -310.75 292.75 -317.85 305.85 -317.1 317.65 -316.65 324.35 -313.55 330.1 -310.3 336.2 -304.95 339.5 -297.85 343.9 -286.65 343.65 -283 343.6 -277.15 342.95 -269.65 342.15 -267.7 342 -262.85 341.65 -249.9 341.85 -223.5 342.4 -170.65 341.9
L -91.75 341.1
Q -82.6 341 -78.05 340.7 -70.45 340.2 -64.5 338.75 -54.7 336.35 -42.9 329.65 -29.4 321.35 -22.7 317.2 -17.5 314.05 -15.5 312.55 -11.65 309.7 -9.5 306.6 -7.6 303.75 -7.3 300.65 -6.95 297.15 -8.85 294.85 -10.3 293.1 -13 292.25 -14.9 291.7 -18.05 291.45 -27.05 290.75 -45.1 290.85
L -212.3 292.1
Q -225.15 292.2 -231.55 293 -237.2 293.7 -239.1 296.2 -240.4 297.95 -240.3 300.35 -240.25 302.6 -239.05 304.65 -237.45 307.4 -232.7 310.85 -240.3 312.9 -249.95 314 -256.05 314.7 -267.55 315.45 -273.05 315.8 -275.85 315.85 -280.5 315.9 -284.15 315.35 -287.15 314.85 -288.35 313.7 -290.65 311.55 -289.7 307.45 -289.05 304.65 -286.2 299.95 -283.15 295.05 -282.4 292.5 -281.55 289.4 -281.95 285.35 -282.25 282.7 -283.35 278.1 -285.3 270.15 -291.6 246.9 -296.85 227.4 -299.5 215.6 -299.65 214.95 -304.5 191.75 -307.45 177.45 -310.1 168.1 -314.4 154.2 -316.45 147.25 -320.05 134.95 -321.05 126.05 -321.3 123.8 -321.7 117.75
M -290.5 55.8
Q -296.05 56.75 -299.95 56.95 -302.1 57.1 -306.5 57.1 -310.4 57.2 -313 57.8 -316.85 58.65 -319.2 60.85 -321.8 63.2 -322.35 66.85 -322.75 69.95 -321.3 73.05 -319.9 75.95 -317.3 78 -312.85 81.55 -305.5 82.4 -301.8 82.9 -294.35 82.8 -284.15 82.6 -279.15 82.35 -276.85 82.25 -275.75 82.1 -273.9 81.8 -272.55 81.1 -271.2 80.4 -269.3 78.55 -267.15 76.4 -266.25 75.75 -265.05 74.9 -263.1 74.05 -260.85 73.15 -259.8 72.65 -257.55 71.6 -253.25 68.6 -251.35 67.3 -250.65 66.4 -249.05 64.35 -249.2 61.2 -249.3 58.95 -250.4 57.15 -251.65 55.2 -253.6 54.9 -254.8 54.75 -257.15 55.15 -258.25 55.15 -259.7 54.8 -260.55 54.6 -262.2 54.1 -269.65 52.05 -281.15 54.05 -284.25 54.6 -290.5 55.8 Z"/>

<path fill="#3BB2ED" stroke="none" d="
M -99.2 129.6
Q -96.55 129.65 -95.1 129.5 -92.9 129.2 -91.35 128.3 -87.1 125.9 -86.45 119.05 -86 114 -88.25 111.4 -89.4 110.05 -91.5 109.2 -92.85 108.65 -95.4 108.1 -102.4 106.65 -119.3 103.9
L -246.25 83.8
Q -250.8 83.1 -253.65 83.4 -257.7 83.9 -259.7 86.45 -261.05 88.25 -261.85 92.45
L -266.35 115.9
Q -267.95 124.5 -264.2 127.2 -262.55 128.4 -259.85 128.4 -258.7 128.4 -255.05 127.85 -251.1 127.25 -242.1 127.35
L -99.2 129.6 Z"/>

<path fill="#74E7AF" stroke="none" d="
M -19.85 46.05
Q -20.7 41.05 -23.15 38.9 -25.35 37 -30.35 36.4 -42.95 35 -62.55 38.5 -67.9 39.5 -78.6 41.55 -88 43.25 -94.75 43.85 -98.45 44.15 -100.35 44.7 -103.35 45.6 -104.7 47.6 -106.15 49.7 -106.15 54.35 -106.15 66.7 -104.95 78.9 -104.7 81.75 -104.65 82.35 -104.6 84.35 -104.85 85.8 -104.95 86.55 -105.3 88.05 -105.55 89.35 -105.4 90.25 -105.05 92.2 -103.05 93.7 -101.75 94.75 -99.1 95.85
L -83.95 102.05
Q -80.95 103.25 -79.35 104.2 -76.95 105.65 -75.7 107.55 -74.25 109.8 -74 113.55 -73.85 115.7 -73.9 120.1 -73.5 126.65 -69.75 129.2 -68.4 130.1 -66.4 130.5 -65.25 130.75 -62.75 130.95 -51.2 131.85 -44.05 132.1 -33.8 132.45 -25.4 131.85 -22 131.6 -19.9 130.95 -17 130 -15.55 128.05 -14.3 126.35 -14 123.7 -13.85 122 -14.1 118.9 -16 98.95 -16.9 88.95 -18.45 71.45 -18.85 59 -19.15 49.95 -19.85 46.05 Z"/>
</g>

<g id="shop_basic_0_Layer0_0_FILL">
<path fill="#363658" stroke="none" d="
M -231.1 85.35
Q -231.55234375 75.125 -235.2 61.75 -238.3005859375 48.8927734375 -241.95 46.4 -245.605859375 43.90859375 -250.55 43.4 -255.4462890625 42.89453125 -261.05 42.45 -266.5955078125 42.0486328125 -277.35 41.8 -288.102734375 41.5513671875 -295.2 41.65 -309.05 41.9 -318.2 45.55 -321.9943359375 47.0296875 -324.55 49 -325.53125 49.6400390625 -326.4 50.35 -330.85 53.9 -333.2 60.9 -335.5 68 -334.4 73.85 -333.7 77.2 -332 79.95 -330.2 82.9 -327.6 84.7 -323.95 87.1529296875 -316.85 88.35 -309.6953125 89.5888671875 -304.95 89.7 -300.2166015625 89.86484375 -280 90.15 -277.6068359375 90.212109375 -275.45 90.25
L -267.25 121.05
Q -266.7099609375 122.977734375 -265.25 124.25 -263.7427734375 125.58515625 -261.8 125.85 -259.855859375 126.105078125 -258.1 125.2
L -238.9 115.75 -232.55 112.6
Q -230.430859375 111.577734375 -229.5 109.4 -228.5140625 107.283984375 -229.15 105.05
L -232.15 94.3
Q -230.833203125 90.9513671875 -231.1 85.35
M -314.75 67.55
Q -314.3455078125 61.5388671875 -309.4 60.15 -257.165234375 56.7158203125 -254.2 63.75
L -243.1 103.35 -256.75 110.05 -261.15 93.45
Q -260.9056640625 92.4623046875 -260.85 91.2 -258.7265625 91.228125 -257.05 90.8 -258.4138671875 90.7841796875 -261.55 90.65 -264.73046875 90.5619140625 -267.25 90.45 -258.6130859375 90.577734375 -256.7 90.7 -256.3853515625 90.6451171875 -256.1 90.55 -253.15 89.65 -251.35 87.2 -249.35 84.6 -250.05 81.85 -250.45 80.3 -251.75 79 -252.95 77.75 -254.6 77.05 -256.75 76.1 -261.25 75.8 -263.8328125 75.62578125 -269.05 75.4 -269.98203125 75.149609375 -271 75.15
L -275.8 75.15
Q -244.4859375 78.18515625 -261.5 77 -262.025 76.9615234375 -262.55 76.9 -265.8255859375 76.881640625 -272.35 76.7 -293.912109375 76.2056640625 -304.35 74.45 -314.7353515625 72.6935546875 -314.75 67.55 Z"/>

<path fill="#B9CCF0" stroke="none" d="
M -309.4 60.15
Q -314.3455078125 61.5388671875 -314.75 67.55 -314.7353515625 72.6935546875 -304.35 74.45 -293.912109375 76.2056640625 -272.35 76.7 -265.8255859375 76.881640625 -262.55 76.9 -262.025 76.9615234375 -261.5 77 -244.4859375 78.18515625 -275.8 75.15
L -271 75.15
Q -269.98203125 75.149609375 -269.05 75.4 -263.8328125 75.62578125 -261.25 75.8 -256.75 76.1 -254.6 77.05 -252.95 77.75 -251.75 79 -250.45 80.3 -250.05 81.85 -249.35 84.6 -251.35 87.2 -253.15 89.65 -256.1 90.55 -256.3853515625 90.6451171875 -256.7 90.7 -254.9607421875 90.8560546875 -257.05 90.8 -258.7265625 91.228125 -260.85 91.2 -260.9056640625 92.4623046875 -261.15 93.45
L -256.75 110.05 -243.1 103.35 -254.2 63.75
Q -257.165234375 56.7158203125 -309.4 60.15 Z"/>
</g>

<g id="shop_basic_0_Layer0_1_FILL">
<path fill="#363658" stroke="none" d="
M 9.15 290.75
Q 6.7861328125 285.939453125 2.65 283.5 -1.4947265625 281.0564453125 -6.75 279.45 -10.65 278.25 -16.6 277.8 -29.05 276.95 -48.65 279.1 -74.95 281.95 -80.7 282.2 -87.6 282.55 -89.7 282.8 -94.75 283.45 -98.25 285.15 -101.7 286.9 -102.25 289.35 -102.6 290.95 -101.75 292.55 -100.95 294.05 -99.45 294.95 -97.3 296.25 -93.05 296.55 -84.3 297.25 -70.7 296.2 -51.55 294.7 -48.4 294.6 -40.85 294.45 -25.65 295.15 -19.8 295.45 -17 295.9 -12.2 296.65 -8.8 298.45 -7.15 299.25 -6.6 300.35 -5.75 302.05 -7.1 304.25 -8.45 306.45 -13.2 309.5 -17.75 312.35 -18.95 314.9 -19.3 315.65 -19.75 317.2 -20.25 318.85 -20.55 319.55 -20.8 320.1 -21.4 321.2 -21.85 322.25 -21.9 323 -21.95 324.65 -20.2 325.75 -19.0439453125 326.520703125 -17.6 326.75 -17.1587890625 326.8271484375 -16.7 326.85 -14.48359375 327.0205078125 -12.25 326.55 -9.8673828125 324.6015625 -6.45 321.45 -1.5486328125 316.9021484375 -1.2 319.05 -0.859765625 321.206640625 3.25 317.45 7.416796875 313.6828125 8.7 310.4 9.98515625 307.12265625 10.55 304.5 11.151171875 301.9291015625 11.3 298.75 11.5109375 295.61640625 9.15 290.75
M -316.9 101.5
Q -317.6240234375 100.0904296875 -318.3 99 -320.5 95.45 -323.2 93.45 -326.2 91.3 -330.7 90.3 -333.85 89.65 -338.95 89.4 -352.7642578125 88.70703125 -367 89.5 -368.176171875 89.5740234375 -369.35 89.65 -381.5 90.45 -389.6 93 -396.1890625 95.01328125 -401.05 98.35 -404.1521484375 100.509765625 -406.55 103.2 -410.3 107.45 -412.15 112.85 -414.05 118.35 -413.55 123.9 -413.1 129.55 -410.25 134.55 -408.5765625 137.515234375 -406.3 139.8 -404.6990234375 141.449609375 -402.8 142.75 -395.4 147.85 -381.15 148.4 -377.355078125 148.46875 -371.2 148.3 -366.776171875 148.1794921875 -359.35 147.95
L -325.45 271.7
Q -320.95 288.25 -319.8 292.15 -317.85 298.85 -314.1 299.15 -312.4 299.25 -310.9 298.05 -309.55 296.95 -308.9 295.25 -308.1 292.9 -308.7 288.35 -311.7 262.45 -324.75 217.6 -332.45 191.05 -334.7 182.6 -340 162.8 -342.6 147.15 -343.15 143.85 -343.7 142.2 -344.6 139.5 -346.2 137.95 -347.9 136.3 -350.85 135.6 -352.7 135.15 -356.25 134.9 -365.830859375 134.3412109375 -372.65 133.95 -378.6146484375 133.5837890625 -382.45 133.35 -387.45 133.05 -390.25 132.3 -394.5 131.15 -396.7 128.45 -399.75 124.8 -398.5 119.35 -397.35 114.2 -393.3 111 -389.8 108.2 -384.45 106.8 -380.75 105.85 -374.55 105.3 -371.862890625 105.0529296875 -368.95 104.85 -357.6908203125 104.0484375 -343 103.85 -339.4 103.8 -337.4 104.1 -334.35 104.6 -332.4 106.05 -330.65 107.3 -329.35 109.65 -328.55 111.15 -327.45 114.05 -325.495703125 119.42734375 -323.6 125.65 -323.7359375 126.678125 -323.3 127.55 -323.2169921875 127.7326171875 -323.15 127.9 -322.60078125 128.7412109375 -321.6 129.2 -320.45 129.75 -319.2 129.65 -318.1 129.6 -316.75 129.2 -316.2 129 -314.45 128.25 -312.5662109375 127.425390625 -310.6 126.6 -315.774609375 112.1408203125 -316.9 101.5 Z"/>

<path fill="#618DE1" stroke="none" d="
M -311.15 180.4
Q -312.1203125 175.2744140625 -313.2 169.6 -316.3548828125 153.1080078125 -319.75 139.7
L -319.75 180.4 -311.15 180.4 Z"/>

<path fill="#15357C" stroke="none" d="
M -316 139.2
Q -317.7 138.65 -318.5 138.55 -319.1126953125 138.4625 -320.1 138.4 -319.9162109375 139.0423828125 -319.75 139.7 -316.3548828125 153.1080078125 -313.2 169.6 -312.1203125 175.2744140625 -311.15 180.4 -303.930078125 217.99765625 -301.95 226.05 -298.5 239.75 -291.75 261.7
L -282.05 293.85
Q -280.9 297.6 -279.55 299.65 -277.65 302.6 -274.95 303.05 -272.25 303.6 -269.8 301.5 -267.5 299.55 -266.85 296.6 -266.3 294.1 -266.85 290.95 -267.2 288.85 -268.35 285.35 -274.6 266.05 -277.7 256.35 -283.05 239.35 -286.15 227.05 -289.3 214.6 -292.7 196.5 -294.3291015625 187.4513671875 -295.65 180.4 -297.25859375 171.43671875 -298.35 165.7 -301.3587890625 150.00390625 -304.8 136.9 -306.5205078125 137.68359375 -308.1 138.4 -311.5 139.95 -313.45 139.8 -314.4 139.75 -316 139.2
M -239.15 83.05
Q -240.15 81.7 -241.6 81 -243.9 79.9 -247.05 80.45 -249.15 80.8 -252.6 82.15 -255.716015625 83.3849609375 -258.85 84.55 -258.713671875 85.355078125 -258.6 86.25
L -257.55 95
Q -257.05 99.7 -256.95 101.25 -256.7 104.8 -257 107.5 -257.039453125 107.8630859375 -257.1 108.2
L -257.85 108.55 -253.7 106.5 -252.5 105.95
Q -249.8 104.55 -248.5 103.5 -247.2751953125 102.4896484375 -246.65 101.35 -246.35 101.208203125 -246.1 101.05 -244.05 99.75 -243.05 97.6 -242.1990234375 95.7357421875 -242.65 94.05 -240.7298828125 93.2271484375 -239.65 92 -237.3 89.3 -237.85 86 -238.15 84.4 -239.15 83.05
M -269.55 123.65
Q -270.0048828125 122.9353515625 -270.35 122.35 -274.08125 123.8876953125 -278.35 125.65
L -284.3 128.15
Q -285.9904296875 128.85390625 -287.6 129.5 -287.4826171875 129.9078125 -287.3 130.25 -286.15 132.5 -283.1 133.2 -281.4 133.65 -277.85 133.35 -273.1 132.85 -271.15 131.1 -269.6 129.8 -269.15 127.65 -268.7 125.55 -269.55 123.65 Z"/>

<path fill="#77104F" stroke="none" d="
M -257.55 95
L -258.6 86.25
Q -258.713671875 85.355078125 -258.85 84.55 -287.703125 95.7169921875 -315.85 103.65
L -316.8 101.75
Q -316.8384765625 101.643359375 -316.9 101.5 -315.774609375 112.1408203125 -310.6 126.6 -297.8859375 121.4966796875 -281.65 117.6 -278.1 116.75 -276.3 116.25 -273.25 115.45 -271 114.65 -267.15 113.25 -261.75 110.5
L -257.85 108.55 -257.1 108.2
Q -257.039453125 107.8630859375 -257 107.5 -256.7 104.8 -256.95 101.25 -257.05 99.7 -257.55 95
M 46.65 92.85
Q 44.5 90.9 40.9 90.35 38.54453125 89.9490234375 -7.65 88.95 -53.7841796875 88.0025390625 -46.45 88.95 -39.066015625 89.947265625 -41.05 90.3 -42.9947265625 90.70078125 -47.3 92 -49.405859375 92.6083984375 -50.8 93.8 -52.70234375 93.9501953125 -54.5 94.1 -59.4 94.5 -61.9 95.9 -63.65 96.9 -64.7 98.55 -65.8 100.35 -65.55 102.15 -65.3 103.85 -64 105.2 -63.6517578125 105.5482421875 -63.25 105.85 -62.2921875 106.588671875 -61.05 107.05 -58.75 107.9 -54.15 107.8 -26.2 107.5 -11.3 107.65 8.487109375 107.8166015625 25.05 108.7 28.3630859375 108.89140625 31.55 109.1 29.685546875 111.04921875 29.65 113.25 25.34765625 122.7111328125 21.85 132.05 19.9 137.2 19.5 140.6 18.9 145.45 20.85 148.9 21.8 150.6 23.1 151.05 25.25 151.8 27.9 149.25 30.75 146.65 33.1 142.5 34.5 140.05 36.9 134.8
L 46.55 113
Q 48 109.85 48.65 108 49.65 105.15 49.9 102.7 50.2 99.85 49.45 97.35 48.6 94.55 46.65 92.85 Z"/>

<path fill="#BA68B3" stroke="none" d="
M -54.15 107.8
Q -58.75 107.9 -61.05 107.05 -62.2921875 106.588671875 -63.25 105.85
L -249.5 105.85 -252.9 107.2
Q -253.2318359375 106.8548828125 -253.7 106.5
L -257.85 108.55 -261.75 110.5
Q -267.15 113.25 -271 114.65 -273.25 115.45 -276.3 116.25 -278.1 116.75 -281.65 117.6 -297.8859375 121.4966796875 -310.6 126.6 -312.5662109375 127.425390625 -314.45 128.25 -316.2 129 -316.75 129.2 -318.1 129.6 -319.2 129.65 -320.45 129.75 -321.6 129.2 -322.60078125 128.7412109375 -323.15 127.9 -323.9142578125 128.487109375 -324.55 129.25 -325.65 130.5 -325.95 131.95 -326.4 134.05 -325.05 135.95 -323.75 137.9 -321.65 138.3 -320.7755859375 138.3416015625 -320.1 138.4 -319.1126953125 138.4625 -318.5 138.55 -317.7 138.65 -316 139.2 -314.4 139.75 -313.45 139.8 -311.5 139.95 -308.1 138.4 -306.5205078125 137.68359375 -304.8 136.9 -301.3587890625 150.00390625 -298.35 165.7 -297.25859375 171.43671875 -295.65 180.4
L -26.4 180.4 25.05 108.7
Q 8.487109375 107.8166015625 -11.3 107.65 -26.2 107.5 -54.15 107.8
M -270.35 122.35
Q -270.0048828125 122.9353515625 -269.55 123.65 -268.7 125.55 -269.15 127.65 -269.6 129.8 -271.15 131.1 -273.1 132.85 -277.85 133.35 -281.4 133.65 -283.1 133.2 -286.15 132.5 -287.3 130.25 -287.4826171875 129.9078125 -287.6 129.5 -285.9904296875 128.85390625 -284.3 128.15
L -278.35 125.65
Q -274.08125 123.8876953125 -270.35 122.35 Z"/>
</g>

<g id="shop_basic_0_Layer0_1_MEMBER_0_FILL">
<path fill="#B9CCF0" stroke="none" d="
M -227 284.9
L -239.9 284.9
Q -239.8919921875 285.5876953125 -240.05 286.3 -242.0748046875 298.849609375 -225.4 309.2
L -23.25 309.25
Q -11.68515625 308.8310546875 -10.9 303.15 -11.3251953125 297.6232421875 -17.6 297.45 -17.76171875 297.45 -17.9 297.45
L -217.15 297.45
Q -219.8736328125 297.447265625 -221.8 295.5 -226.148828125 291.053125 -226.9 286 -226.996875 285.4404296875 -227 284.9 Z"/>

<path fill="#363658" stroke="none" d="
M 2.1 302.75
L 2.1 302.7
Q 1.7171875 284.976171875 -17.25 284.45 -17.31640625 284.4486328125 -17.4 284.45 -17.7 284.45 -17.9 284.45
L -213.9 284.45
Q -214.0154296875 284.127734375 -214.1 283.8 -214.5697265625 281.1501953125 -216.8 279.6 -218.9681640625 278.0419921875 -221.6 278.5 -224.244140625 278.9666015625 -225.8 281.15 -227.023828125 282.9052734375 -227 284.9 -226.996875 285.4404296875 -226.9 286 -226.148828125 291.053125 -221.8 295.5 -219.8736328125 297.447265625 -217.15 297.45
L -17.9 297.45
Q -17.76171875 297.45 -17.6 297.45 -11.3251953125 297.6232421875 -10.9 303.15 -11.68515625 308.8310546875 -23.25 309.25
L -225.4 309.2
Q -242.0748046875 298.849609375 -240.05 286.3 -239.8919921875 285.5876953125 -239.9 284.9 -239.86953125 283.0744140625 -240.95 281.4 -242.364453125 279.14453125 -245 278.55 -247.595703125 277.96953125 -249.9 279.4 -252.152734375 280.8732421875 -252.75 283.5 -258.3607421875 304.9888671875 -230.45 321.3 -228.8955078125 322.1939453125 -227.15 322.2
L -23 322.25
Q -22.880078125 322.2521484375 -22.75 322.25 3.7537109375 321.2625 2.1 302.75 Z"/>
</g>

<g id="shop_basic_0_Layer0_1_MEMBER_0_MEMBER_0_FILL">
<path fill="#B9CCF0" stroke="none" d="
M -100.1 70.05
L -70.75 134.4 -38.3 70.05 -100.1 70.05 Z"/>
</g>

<g id="shop_basic_0_Layer0_1_MEMBER_0_MEMBER_1_FILL">
<path fill="#B9CCF0" stroke="none" d="
M 80.35 70
L 109.7 134.35 142.15 70 80.35 70 Z"/>
</g>

<g id="shop_basic_0_Layer0_1_MEMBER_1_FILL">
<path fill="#5CB98C" stroke="none" d="
M -42.55 58.65
Q -42.85 55.95 -43.25 53.9 -67.55 53.4 -98.55 52.5 -101.8 52.45 -104.4 52.2
L -91.7 167.35 -30.8 175.05
Q -35.76953125 117.7890625 -42.55 58.65 Z"/>

<path fill="#74E7AF" stroke="none" d="
M -33.6 39.5
Q -33.95 39.5 -34.2 39.55 -42.6 40.5 -50.95 41.4
L -101.45 47 -101.5 47
Q -104.9 47.4 -104.55 50.85
L -104.4 52.2
Q -101.8 52.45 -98.55 52.5 -67.55 53.4 -43.25 53.9 -42.85 55.95 -42.55 58.65 -35.76953125 117.7890625 -30.8 175.05
L -10.6 177.6 -25.55 42.1
Q -25.9 38.65 -29.3 39.05
L -33.6 39.5 Z"/>

<path fill="#216342" stroke="none" d="
M 10.55 180.3
Q 6.3025390625 134.715234375 3.55 110.85 -0.85 72.65 -3.85 54.85 -6.9 37 -7.9 30.45 -9.05 23.85 -14.15 20.35 -19.25 16.8 -28.85 16.35 -36.75 15.95 -46.65 16.85 -52.35 17.35 -64.4 19.05 -75.85 20.65 -82.2 21.75 -92 23.4 -99.75 25.35 -105.35 26.75 -108.9 28.4 -113.75 30.6 -116.55 33.9 -116.9 34.3 -117.15 34.65 -119.05 36.25 -120.35 38.35 -122.3 41.65 -122.9 47.1 -123.35 52.35 -122.45 61.15 -119.45 95 -113.75 137.1 -112.1892578125 148.5005859375 -109.75 165.05
L -91.7 167.35 -104.4 52.2 -104.55 50.85
Q -104.9 47.4 -101.5 47
L -101.45 47 -50.95 41.4
Q -42.6 40.5 -34.2 39.55 -33.95 39.5 -33.6 39.5
L -29.3 39.05
Q -25.9 38.65 -25.55 42.1
L -10.6 177.6 10.55 180.3 Z"/>
</g>

<g id="shop_basic_0_Layer0_1_MEMBER_2_FILL">
<path fill="#154F6B" stroke="none" d="
M -84.55 96.05
Q -87.3 93.35 -91.1 91.55 -94.25 90.05 -98.55 89 -101.1 88.4 -106.35 87.5 -166.8 77.45 -170.25 76.8 -206.65 70.45 -233.75 64.15 -244.4 61.7 -250.45 61.65 -259.8 61.5 -265.7 65.85 -270.85 69.65 -273.7 77.2 -275.55 82.1 -277.1 91.35
L -301.4 237.75
Q -302.1 241.85 -301.5 244.75 -300.7 248.55 -297.75 249.5 -295.95 250.1 -293.95 249.2 -292.1 248.35 -290.9 246.6 -290.8 246.45 -290.7 246.3 -287.55 252.15 -278.35 253.55
L -127.7 276.65
Q -121.35 277.6 -117.2 275.4 -115.3 275.6 -113.45 274.75 -109.6 273.05 -107.3 268.25 -105.7 264.95 -104.5 259 -92.8 199.75 -80.2 116.35 -79.5 111.85 -79.45 109.4 -79.35 105.55 -80.3 102.6 -81.5 99 -84.55 96.05
M -101.7 106.75
Q -98.55 107.2 -99 110.45
L -115.25 216.45 -122.1 261.05
Q -122.4 262.75 -123.05 263.65 -124.05 264.05 -125.75 263.8
L -276.4 240.7
Q -279.65 240.2 -279.15 237
L -256.75 90.85 -256.65 90.35
Q -256.7 90.3 -256.65 90.3 -256.35 88.3 -256.05 86.4 -255.6 83.15 -252.35 83.65
L -101.7 106.75 Z"/>

<path fill="#3293C4" stroke="none" d="
M -117.05 120.25
Q -117.05 118.95 -117.05 117.9 -126.6 116.15 -152.55 111.4 -178.55 106.65 -203.9 101.6 -229.25 96.5 -256.75 90.85
L -279.15 237
Q -279.65 240.2 -276.4 240.7
L -125.75 263.8
Q -124.05 264.05 -123.05 263.65 -122.4 262.75 -122.1 261.05
L -115.25 216.45
Q -115.6 216.2 -115.9 215.9 -118 213.8 -118.4 208.45 -119.3 197.8 -118.85 183.05 -118 166.15 -117.7 157.65 -116.85 135.7 -117.05 120.25 Z"/>

<path fill="#3BB2ED" stroke="none" d="
M -99 110.45
Q -98.55 107.2 -101.7 106.75
L -252.35 83.65
Q -255.6 83.15 -256.05 86.4 -256.35 88.3 -256.65 90.3 -256.7 90.3 -256.65 90.35
L -256.75 90.85
Q -229.25 96.5 -203.9 101.6 -178.55 106.65 -152.55 111.4 -126.6 116.15 -117.05 117.9 -117.05 118.95 -117.05 120.25 -116.85 135.7 -117.7 157.65 -118 166.15 -118.85 183.05 -119.3 197.8 -118.4 208.45 -118 213.8 -115.9 215.9 -115.6 216.2 -115.25 216.45
L -99 110.45 Z"/>
</g>

<g id="shop_basic_0_Layer0_1_MEMBER_3_FILL">
<path fill="#77104F" stroke="none" d="
M -263.2 333.1
Q -266.35 337.2 -267.8 340.95 -269.15 344.5 -269.8 350.4 -270.8 359.35 -269.5 366.65 -267.95 374.95 -263.1 382.3 -258.4 389.5 -251.4 394.6 -246.35 398.25 -240.85 400.25 -234.9 402.35 -229.1 402.3 -224 402.25 -216 400.1 -210.65 398.7 -207.4 397.45 -202.8 395.7 -199.5 393.3 -197.3 391.75 -194.95 389.3 -193.5 387.8 -190.85 384.7 -186.2 379.4 -184.3 375.95 -182.4 372.45 -181.1 367 -179.45 360.65 -179.45 355.85 -179.4 347.7 -183.55 339.5 -187.25 332.15 -193.8 325.65 -200.25 319.3 -206.3 316.55 -211.95 313.95 -219.1 313.45 -231.65 312.4 -243.6 317.75 -255.6 323.05 -263.2 333.1
M -244.1 336.65
L -244.15 336.7
Q -235.877734375 328.5552734375 -224.3 328.55 -212.722265625 328.5552734375 -204.5 336.7
L -204.5 336.65
Q -196.3009765625 344.9234375 -196.3 356.5 -196.3009765625 368.058984375 -204.5 376.3
L -204.5 376.3
Q -212.741015625 384.4990234375 -224.3 384.5 -235.858984375 384.4990234375 -244.1 376.3
L -244.15 376.3
Q -252.29921875 368.058984375 -252.3 356.5 -252.29921875 344.9234375 -244.1 336.65 Z"/>

<path fill="#C46DBC" stroke="none" d="
M -244.15 336.7
L -244.1 336.65
Q -252.29921875 344.9234375 -252.3 356.5 -252.29921875 368.058984375 -244.15 376.3
L -244.1 376.3
Q -235.858984375 384.4990234375 -224.3 384.5 -212.741015625 384.4990234375 -204.5 376.3
L -204.5 376.3
Q -196.3009765625 368.058984375 -196.3 356.5 -196.3009765625 344.9234375 -204.5 336.65
L -204.5 336.7
Q -212.722265625 328.5552734375 -224.3 328.55 -235.877734375 328.5552734375 -244.15 336.7 Z"/>
</g>

<g id="shop_basic_0_Layer0_1_MEMBER_4_FILL">
<path fill="#77104F" stroke="none" d="
M -104.7 333.45
Q -107.9 338.25 -109.1 342.95 -110.05 346.9 -109.95 354.4 -109.95 359.7 -109.8 362.3 -109.5 366.65 -108.65 370.05 -107 376.35 -102.85 382.45 -96.3 391.9 -85.85 397.15 -75.2 402.5 -64.1 401.6 -53.4 400.65 -43.4 394.4 -36.85 390.3 -31.85 384.55 -26.7 378.6 -23.8 371.65 -20.85 364.5 -20.55 356.85 -20.25 348.95 -22.8 341.9 -25.9 333.05 -33.2 325.9 -40.05 319.2 -49.3 315.2 -58.05 311.4 -65.55 311.55 -72.7 311.6 -81.45 315.35 -97 321.85 -104.7 333.45
M -89.05 340.1
Q -88.2095703125 338.8986328125 -87.95 337.55 -86.83828125 337.140625 -85.9 336.25 -85.8111328125 336.1853515625 -85.75 336.1 -78.298828125 328.7236328125 -68.15 327.95
L -68.1 327.95
Q -67.0408203125 327.8970703125 -65.9 327.9 -54.3234375 327.90078125 -46.1 336.1
L -46.1 336.1
Q -37.904296875 344.2919921875 -37.9 355.85 -37.9009765625 367.4265625 -46.1 375.65
L -46.1 375.65
Q -46.591796875 376.150390625 -47.15 376.65
L -47.15 376.65
Q -52.779296875 381.7921875 -59.9 383.25 -62.5974609375 383.8572265625 -65.55 383.9
L -65.6 383.9
Q -65.7375 383.9 -65.9 383.9 -77.4453125 383.8908203125 -85.7 375.65
L -85.7 375.65
Q -93.8447265625 367.41015625 -93.85 355.85 -93.8884765625 346.9609375 -89.05 340.1 Z"/>

<path fill="#E680DD" stroke="none" d="
M -85.75 336.1
Q -85.8111328125 336.1853515625 -85.9 336.25 -85.7509765625 336.233984375 -85.6 336.2 -80.3 334.95 -76.7 334.55 -71.75 333.95 -67.7 334.65 -60.75 335.9 -55.45 340.65 -52.45 343.35 -51.05 346.6 -50.15 348.65 -49.85 351.45 -49.65 353.1 -49.6 356.5 -49.4990234375 361.3962890625 -49.95 365 -50.353125 368.610546875 -51.8 372.7 -53.1908203125 376.836328125 -56.05 379.3 -58.86953125 381.8125 -59.9 383.25 -52.779296875 381.7921875 -47.15 376.65
L -47.15 376.65
Q -46.591796875 376.150390625 -46.1 375.65
L -46.1 375.65
Q -37.9009765625 367.4265625 -37.9 355.85 -37.904296875 344.2919921875 -46.1 336.1
L -46.1 336.1
Q -54.3234375 327.90078125 -65.9 327.9 -67.0408203125 327.8970703125 -68.1 327.95
L -68.15 327.95
Q -78.298828125 328.7236328125 -85.75 336.1 Z"/>

<path fill="#C46DBC" stroke="none" d="
M -87.95 337.55
Q -88.2095703125 338.8986328125 -89.05 340.1 -93.8884765625 346.9609375 -93.85 355.85 -93.8447265625 367.41015625 -85.7 375.65
L -85.7 375.65
Q -77.4453125 383.8908203125 -65.9 383.9 -65.7375 383.9 -65.6 383.9
L -65.55 383.9
Q -62.5974609375 383.8572265625 -59.9 383.25 -58.86953125 381.8125 -56.05 379.3 -53.1908203125 376.836328125 -51.8 372.7 -50.353125 368.610546875 -49.95 365 -49.4990234375 361.3962890625 -49.6 356.5 -49.65 353.1 -49.85 351.45 -50.15 348.65 -51.05 346.6 -52.45 343.35 -55.45 340.65 -60.75 335.9 -67.7 334.65 -71.75 333.95 -76.7 334.55 -80.3 334.95 -85.6 336.2 -85.7509765625 336.233984375 -85.9 336.25 -86.83828125 337.140625 -87.95 337.55 Z"/>
</g>

<g id="shop_basic_0_Layer0_1_MEMBER_5_FILL">
<path fill="#77104F" stroke="none" d="
M -265.45 302.25
L -265.4 302.25
Q -265.196875 302.17109375 -265 302.05 -265.2146484375 302.1732421875 -265.45 302.25
M 44.8 117.45
Q 45.95 114 46.35 112.05 47.05 108.95 46.9 106.45 46.7 103.5 45.3 101.05 44.209765625 99.123828125 42.6 98 38.90859375 99.693359375 34.7 101.55 -12.2259765625 122.543359375 -13.8 123.6 -18.8669921875 125.637890625 -23.6 126.75 -30.8 128.4 -40.25 128.6 -45.2529296875 128.7525390625 -69 127.8 -92.6912109375 126.841796875 -179 126.3 -265.3146484375 125.80546875 -286.45 126.35 -289.2439453125 126.4240234375 -291.7 126.5 -292.059375 126.508984375 -292.4 126.5
L -306.75 126.85
Q -307.41015625 126.889453125 -307.9 126.9 -308.012890625 126.89765625 -308.15 126.9 -308.6130859375 126.9005859375 -308.8 126.9
L -309.5 124.3
Q -311.3892578125 117.2380859375 -313.35 110.2 -314.3650390625 106.4359375 -315.3 104.15 -316.6806640625 104.501171875 -318.65 105.2 -325.9 107.85 -329.2 109.55 -330.186328125 110.10234375 -330.95 110.6
L -323.65 139.25
Q -323.5216796875 139.739453125 -323.35 140.2
L -286.1 286.6 -286.1 286.65
Q -282.6927734375 297.17265625 -276.4 300.05 -270.046484375 302.9369140625 -265.65 302.2 -265.3478515625 302.1166015625 -265.1 302 -265.0509765625 302.016015625 -265.05 302 -264.6478515625 301.8681640625 -264.25 301.75 -261.2 300.8 -257.15 300.5 -256.376171875 300.447265625 -255.25 300.4 -253.173828125 300.332421875 -249.9 300.3 -202.2416015625 299.7970703125 -154.3 295.95 -152.96796875 296.11796875 -130.2 294.55 -107.421875 293.0287109375 -88.6 291.5 -69.7376953125 289.9669921875 -65.25 288.9 -60.754296875 287.844140625 -51.25 283.9 -38 278.4 -31.15 275.3 -20.1 270.3 -11.6 265.5 -9.2 264.1 -8.2 263.35 -6.35 262 -5.4 260.5 -4.966796875 259.8501953125 -4.65 259.05 -3.751953125 258.27890625 -3.25 257.2 -2.958203125 256.583984375 -2.7 255.65 -0.6990234375 251.3232421875 0.55 248.1 1.55 245.55 2.9 240.75
L 3.3 239.3
Q 4.4322265625 236.348046875 5.8 232.6 25.45 177.65 44.8 117.45
M -36.15 144.4
L -36.15 144.45 -39.75 178.85
Q -39.7080078125 178.94296875 -39.7 179
L -39.75 178.95 -41.4 194.75 -41.4 194.9 -24.15 147.05 17.75 127 -18.95 247.5 -47.95 262.65 -51.45 236.45 -66.25 269.05 -271.55 282.65
Q -271.8076171875 281.1248046875 -272.3 278.7 -272.448828125 277.82265625 -272.65 276.8 -276.737890625 257.4173828125 -281.1 238.15 -281.4884765625 236.4306640625 -281.9 234.7
L -292.15 191.3
Q -292.384765625 190.2541015625 -292.65 189.15 -296.81640625 172.24140625 -301.2 155.4 -301.2779296875 155.0986328125 -301.35 154.8
L -302.4 150.85 -303.2 147.8
Q -303.2423828125 147.571484375 -303.3 147.35 -303.688671875 145.8755859375 -304.1 144.4
L -36.2 144.4 -36.15 144.4 -36.15 144.4 Z"/>

<path fill="#363658" stroke="none" d="
M -286.1 286.65
L -285.85 287.5
Q -297.7 299.20234375 -295.15 309.1
L -295.15 309
Q -294.3548828125 314.44453125 -289.7 319.2 -287.7498046875 321.1453125 -285.05 321.15
L -64.8 321.15
Q -63.2384765625 321.1505859375 -61.85 320.4 -38.3150390625 305.878125 -32.35 302.9 -28.74921875 298.91484375 -66.35 308.15
L -273.85 308.15
Q -272.573046875 306.419921875 -270.7 305 -270.23046875 304.6330078125 -265.4 302.25
L -265.45 302.25
Q -269.496875 304.1310546875 -269.35 304 -268.1578125 303.285546875 -266.85 302.7 -266.2349609375 302.4408203125 -265.65 302.2 -270.046484375 302.9369140625 -276.4 300.05 -282.6927734375 297.17265625 -286.1 286.65
M 0.9 318.6
Q 1.401953125 317.4001953125 1.95 313.8 2.5458984375 309.845703125 3.15 304.8 3.7619140625 299.8072265625 0.75 298.35 -1.2537109375 297.365625 -1.65 297.15 -12.4083984375 304.1150390625 -13.55 304.7
L -19 307.55
Q -60.494140625 332.5865234375 -72.15 335.55
L -237.75 335.5
Q -237.9400390625 335.5001953125 -238.15 335.5
L -239 335.5
Q -239.44375 335.5025390625 -239.9 335.5 -266.68984375 335.5060546875 -293.5 335.5 -313.4021484375 333.59140625 -311.05 309.35 -309.0509765625 301.0197265625 -300.5 291.7 -299.3751953125 290.46015625 -299 288.85 -298.5853515625 287.2388671875 -299.05 285.6
L -340.65 129.2 -382.55 129.2
Q -391.772265625 127.582421875 -390.8 117.4 -390.8216796875 110.4580078125 -387.05 107.3 -375.5369140625 103.8423828125 -342.75 104 -330.803515625 104.5203125 -332.15 108.95 -331.5771484375 109.5345703125 -331 110.3
L -330.95 110.6
Q -330.186328125 110.10234375 -329.2 109.55 -325.9 107.85 -318.65 105.2 -316.6806640625 104.501171875 -315.3 104.15 -315.4380859375 103.7623046875 -315.6 103.4 -317.25 99.8 -319.65 97.75 -322.5 95.35 -327 94.45 -328.6748046875 94.12578125 -331 93.95 -333.496875 93.0701171875 -336.55 92.65 -340.05 92.15 -346.5 92.2
L -372.4 92.25
Q -378.85 92.3 -382 92.55 -387.35 92.95 -391.4 94.15 -396.3 95.6 -400 98.4 -404.1 101.45 -406.05 105.6 -407.75 109.3 -408.2 115.45 -408.75 122.3 -407.4 126.4 -406.25 129.85 -403.65 132.65 -401.15 135.4 -397.75 137 -394.7 138.5 -390.55 139.15 -387.75 139.6 -383 139.85 -370.2560546875 140.523046875 -356.8 140 -356.503515625 141.3064453125 -356 143.1 -348.9 168.95 -334.3 220.55
L -329.7 237.2
Q -324.55 256.3 -318.85 282.85 -318.2498046875 285.7255859375 -317.5 287.75 -330.023828125 302.105078125 -332.3 316.15 -333.7 324.8 -331.05 332.9 -328.2 341.5 -321.75 346.45 -316.7 350.3 -309.05 352.05 -305.4421875 352.898828125 -299.85 353.45 -293.7111328125 368.7640625 -290.35 376.55 -283.55 392.4 -277.05 404.5 -275.65 407.1 -274.55 408.35 -272.9 410.3 -270.95 410.85 -269.25 411.35 -267.35 410.8 -265.65 410.3 -264.1 409.1 -262.2 407.6 -259.45 403.4 -254.5 395.75 -252.65 392.65 -248.95 386.55 -246.55 381.5 -244.45 377.15 -240.55 367.4 -238.0048828125 361.0029296875 -236.1 356.7 -217.3720703125 357.251953125 -196.25 357.45 -170.2560546875 357.5091796875 -149.4 357.6 -148.698828125 359.0779296875 -147.7 361.05 -138.45 379.4 -127.55 403.5 -125.35 408.6 -123.2 410.55 -121.55 412 -119.45 412.5 -117.2 413 -115.5 412.05 -113.7 411.05 -111.85 407.65 -104.05 393.3 -100.35 386.05 -94.2 373.9 -90.15 363.8 -89.0955078125 361.246875 -87.95 358.2 -85.9541015625 358.21796875 -84.7 358.2 -77.55 358.05 -72 357.2 -57.346875 355.15546875 -42.85 346.35 -28.3107421875 337.534375 -15.3 329.3 -2.2884765625 321.1103515625 -0.95 320.45 0.3921875 319.846484375 0.9 318.6
M -266.9 384.6
L -280.5 354.85
Q -267.380859375 355.651953125 -252.6 356.2
L -266.9 384.6
M -103.65 358.05
L -118.25 387 -131.65 357.75
Q -115.7427734375 357.8791015625 -103.65 358.05 Z"/>

<path fill="#B9CCF0" stroke="none" d="
M -323.35 140.2
Q -323.5216796875 139.739453125 -323.65 139.25
L -330.95 110.6 -331 110.3
Q -331.5771484375 109.5345703125 -332.15 108.95 -330.803515625 104.5203125 -342.75 104 -375.5369140625 103.8423828125 -387.05 107.3 -390.8216796875 110.4580078125 -390.8 117.4 -391.772265625 127.582421875 -382.55 129.2
L -340.65 129.2 -299.05 285.6
Q -298.5853515625 287.2388671875 -299 288.85 -299.3751953125 290.46015625 -300.5 291.7 -309.0509765625 301.0197265625 -311.05 309.35 -313.4021484375 333.59140625 -293.5 335.5 -266.68984375 335.5060546875 -239.9 335.5 -239.44375 335.5025390625 -239 335.5
L -238.15 335.5
Q -237.9400390625 335.5001953125 -237.75 335.5
L -72.15 335.55
Q -60.494140625 332.5865234375 -19 307.55
L -32.4 303.05
Q -32.366796875 303.0265625 -32.35 302.95 -32.3392578125 302.94140625 -32.35 302.9 -38.3150390625 305.878125 -61.85 320.4 -63.2384765625 321.1505859375 -64.8 321.15
L -285.05 321.15
Q -287.7498046875 321.1453125 -289.7 319.2 -294.3548828125 314.44453125 -295.15 309
L -295.15 309.1
Q -297.7 299.20234375 -285.85 287.5
L -286.1 286.65 -286.1 286.6 -323.35 140.2
M -118.25 387
L -103.65 358.05
Q -115.7427734375 357.8791015625 -131.65 357.75
L -118.25 387
M -280.5 354.85
L -266.9 384.6 -252.6 356.2
Q -267.380859375 355.651953125 -280.5 354.85 Z"/>

<path fill="#C46DBC" stroke="none" d="
M -41.8 196.25
Q -41.5869140625 195.4796875 -41.4 194.75
L -39.75 178.95
Q -84.9548828125 151.61015625 -168.65 152.55 -252.2865234375 153.496875 -284.35 152 -296.8025390625 151.4478515625 -302.4 150.85
L -301.35 154.8
Q -301.2779296875 155.0986328125 -301.2 155.4 -296.81640625 172.24140625 -292.65 189.15 -292.384765625 190.2541015625 -292.15 191.3
L -281.9 234.7
Q -281.4884765625 236.4306640625 -281.1 238.15 -276.737890625 257.4173828125 -272.65 276.8 -272.448828125 277.82265625 -272.3 278.7 -271.8076171875 281.1248046875 -271.55 282.65
L -66.25 269.05 -51.45 236.45
Q -50.590234375 237.758984375 -49.7 233.25 -48.3130859375 226.1828125 -47.1 220.25 -43.7498046875 203.7919921875 -41.8 196.25
M -36.2 144.4
L -36.15 144.4 -36.15 144.4 -36.2 144.4 Z"/>

<path fill="#E680DD" stroke="none" d="
M -41.4 194.9
L -41.4 194.75
Q -41.5869140625 195.4796875 -41.8 196.25 -43.7498046875 203.7919921875 -47.1 220.25 -48.3130859375 226.1828125 -49.7 233.25 -50.590234375 237.758984375 -51.45 236.45
L -47.95 262.65 -18.95 247.5 17.75 127 -24.15 147.05 -41.4 194.9
M -36.15 144.4
L -36.2 144.4 -304.1 144.4
Q -303.688671875 145.8755859375 -303.3 147.35 -303.2423828125 147.571484375 -303.2 147.8
L -302.4 150.85
Q -296.8025390625 151.4478515625 -284.35 152 -252.2865234375 153.496875 -168.65 152.55 -84.9548828125 151.61015625 -39.75 178.95
L -39.7 179
Q -39.7080078125 178.94296875 -39.75 178.85
L -36.15 144.45 -36.15 144.4 Z"/>
</g>

<g id="shop_basic_0_Layer0_1_MEMBER_5_MEMBER_0_FILL">
<path fill="#77104F" stroke="none" d="
M -95.6 181.55
L -152.2 188.45 -168.85 150.7 -193.5 193.55 -249 200.15 -210.75 221.1 -240.85 270.15 -182.45 236.05 -119.55 264.85 -141.75 212.3
Q -118.85 198.35 -95.6 181.55 Z"/>
</g>

<g id="shop_basic_0_Layer0_2_FILL">
<path fill="#77104F" stroke="none" d="
M -166.95 383.25
Q -169.25 387.05 -171.1 393.1 -173.1 399.3 -173.4 403.65 -173.85 410.7 -170.8 418.6 -168.45 424.8 -163.55 432.25 -159.65 438.3 -156.7 441.15 -151.75 446.1 -144.7 448.9 -138.05 451.5 -130.55 451.85 -117.45 452.35 -102.55 446.1 -94.4 442.8 -90.15 438.65 -86.15 434.8 -83.4 428.6 -81.4 424 -79.7 416.9 -77.95 409.8 -77.7 404.65 -77.25 395.5 -81.15 386.7 -84.95 378.05 -92 371.9 -98.85 365.9 -107.95 362.9 -116.85 360 -126.15 360.55 -135.2 361.05 -144 364.85 -152.5 368.55 -159.55 374.75 -164.35 379.05 -166.95 383.25
M -147.95 388.4
Q -145.85 385.6 -142.9 383.25
L -142.85 383.2
Q -141.85 382.4 -140.85 381.75 -132.45 376.2 -122.25 377.4 -110.7 378.8 -103.55 387.9 -96.4 397 -97.75 408.45 -99.1 419.95 -108.2 427.2
L -108.2 427.15
Q -110.5 429 -113 430.35 -113.4 430.55 -113.75 430.75 -114.7 431.15 -115.65 431.55 -116.3 431.75 -116.95 432 -117.45 432.15 -117.9 432.3 -117.95 432.25 -118.05 432.3 -118.15 432.35 -118.3 432.4 -118.65 432.5 -119 432.55 -123.35 433.5 -127.95 433.1
L -128 433.1
Q -128.05 433.1 -128.1 433.1 -128.45 433.05 -128.85 433 -140.3 431.65 -147.5 422.55
L -147.55 422.5
Q -154.65 413.35 -153.3 401.9 -152.4 394.2 -147.95 388.4
M -123.8 394.9
Q -127.5 393.85 -131.15 395.1 -135.05 396.4 -136.75 399.55 -137.65 401.15 -138.1 403.95 -138.95 409.65 -136.4 412.7 -133.95 415.8 -129.3 415.7 -125.8 415.55 -121.85 413.15 -119.25 411.5 -118.15 409.65 -117.28203125 408.2861328125 -116.95 406.25 -116.893359375 405.8095703125 -116.85 405.35 -116.692578125 403.753515625 -116.85 402.4 -117.062109375 400.765625 -117.75 399.5 -119.35 396.25 -123.8 394.9 Z"/>

<path fill="#E680DD" stroke="none" d="
M -134.9 381.4
Q -128.15 381.45 -121.8 383.35 -116.9 384.75 -114 387.15 -111.05 389.6 -109.15 393.85 -106.1 400.35 -106.7 408.05 -107.2 415.5 -110.8 422.05 -114 427.85 -119 432.55 -118.65 432.5 -118.3 432.4 -118.15 432.35 -118.05 432.3 -117.95 432.25 -117.9 432.3 -117.45 432.15 -116.95 432 -116.3 431.75 -115.65 431.55 -114.7 431.15 -113.75 430.75 -113.4 430.55 -113 430.35 -110.5 429 -108.2 427.15
L -108.2 427.2
Q -99.1 419.95 -97.75 408.45 -96.4 397 -103.55 387.9 -110.7 378.8 -122.25 377.4 -132.45 376.2 -140.85 381.75 -137.95 381.4 -134.9 381.4 Z"/>

<path fill="#C46DBC" stroke="none" d="
M -142.9 383.25
Q -145.85 385.6 -147.95 388.4 -152.4 394.2 -153.3 401.9 -154.65 413.35 -147.55 422.5
L -147.5 422.55
Q -140.3 431.65 -128.85 433 -128.45 433.05 -128.1 433.1 -128.05 433.1 -128 433.1
L -127.95 433.1
Q -123.35 433.5 -119 432.55 -114 427.85 -110.8 422.05 -107.2 415.5 -106.7 408.05 -106.1 400.35 -109.15 393.85 -111.05 389.6 -114 387.15 -116.9 384.75 -121.8 383.35 -128.15 381.45 -134.9 381.4 -137.95 381.4 -140.85 381.75 -141.85 382.4 -142.85 383.2
L -142.9 383.25
M -131.15 395.1
Q -127.5 393.85 -123.8 394.9 -119.35 396.25 -117.75 399.5 -117.062109375 400.765625 -116.85 402.4 -116.7212890625 402.8130859375 -116.65 403.2 -116.55 404.35 -116.85 405.8 -116.900390625 406.021484375 -116.95 406.25 -117.28203125 408.2861328125 -118.15 409.65 -119.25 411.5 -121.85 413.15 -125.8 415.55 -129.3 415.7 -133.95 415.8 -136.4 412.7 -138.95 409.65 -138.1 403.95 -137.65 401.15 -136.75 399.55 -135.05 396.4 -131.15 395.1 Z"/>

<path fill="#15347A" stroke="none" d="
M -116.85 405.35
Q -116.893359375 405.8095703125 -116.95 406.25 -116.900390625 406.021484375 -116.85 405.8 -116.55 404.35 -116.65 403.2 -116.7212890625 402.8130859375 -116.85 402.4 -116.692578125 403.753515625 -116.85 405.35 Z"/>
</g>

<g id="shop_basic_0_Layer0_3_FILL">
<path fill="#77104F" stroke="none" d="
M -314.65 382.1
Q -318.5 388.9 -319.95 395.3 -323 408.55 -317.05 421.75 -311.1 434.95 -299.15 441.35 -289 446.75 -276.25 446.45 -264.5 446.15 -252.9 441.15 -244.801171875 437.6791015625 -239.3 432.9 -235.9982421875 429.13984375 -233.4 424.7 -228.25 415.95 -226.7 406.1 -225.8 400.7 -226.5 396.15 -227.15 391.85 -229.85 386.05 -234.35 376.3 -239.85 370.65 -246.2 364.1 -256.05 360.35 -267.6 356.05 -280.15 357.35 -284.0826171875 357.7525390625 -287.8 358.65 -289.3396484375 359.3322265625 -290.9 360.1 -306.4 367.75 -314.65 382.1
M -295.7 384.2
Q -293.45 381.45 -290.45 379.2
L -290.4 379.15
Q -289.4 378.4 -288.35 377.8 -279.75 372.55 -269.55 374.2 -258.1 376 -251.25 385.4
L -251.3 385.35
Q -244.5 394.75 -246.3 406.15 -248.1 417.65 -257.5 424.5
L -257.5 424.45
Q -259.9 426.2 -262.4 427.5 -262.8 427.65 -263.2 427.75 -264.1 428.15 -265.1 428.5 -265.75 428.75 -266.45 428.95 -266.9 429.1 -267.4 429.2 -267.45 429.2 -267.55 429.25 -267.65 429.25 -267.8 429.3 -268.15 429.4 -268.5 429.45 -272.85 430.25 -277.45 429.6
L -277.5 429.6
Q -277.55 429.6 -277.6 429.6 -277.95 429.55 -278.3 429.5 -289.75 427.65 -296.6 418.35
L -296.65 418.3
Q -303.4 408.85 -301.6 397.4 -300.4 389.75 -295.7 384.2
M -267 394.65
Q -269.15 392.2 -272.3 390.85 -275.95 389.3 -279.3 389.8 -283.9 390.65 -286.8 394.85 -289.25 398.7 -289 403.7 -288.75 408 -286.55 410.4 -284.45 412.75 -279.75 413.8 -276.15 414.55 -273.95 414.1 -271.45 413.5 -268.95 411.35 -266.55 409.1 -265.3 406.35 -263.9 403.35 -264.25 400.45 -264.65 397.3 -267 394.65 Z"/>

<path fill="#E680DD" stroke="none" d="
M -261.75 384.25
Q -258.8 386.85 -257.15 391.15 -254.4 397.75 -255.25 405.4 -256.05 412.8 -259.9 419.25 -263.3 424.95 -268.5 429.45 -268.15 429.4 -267.8 429.3 -267.65 429.25 -267.55 429.25 -267.45 429.2 -267.4 429.2 -266.9 429.1 -266.45 428.95 -265.75 428.75 -265.1 428.5 -264.1 428.15 -263.2 427.75 -262.8 427.65 -262.4 427.5 -259.9 426.2 -257.5 424.45
L -257.5 424.5
Q -248.1 417.65 -246.3 406.15 -244.5 394.75 -251.3 385.35
L -251.25 385.4
Q -258.1 376 -269.55 374.2 -279.75 372.55 -288.35 377.8 -285.45 377.55 -282.35 377.7 -275.65 378 -269.4 380.15 -264.5 381.75 -261.75 384.25 Z"/>

<path fill="#C46DBC" stroke="none" d="
M -290.45 379.2
Q -293.45 381.45 -295.7 384.2 -300.4 389.75 -301.6 397.4 -303.4 408.85 -296.65 418.3
L -296.6 418.35
Q -289.75 427.65 -278.3 429.5 -277.95 429.55 -277.6 429.6 -277.55 429.6 -277.5 429.6
L -277.45 429.6
Q -272.85 430.25 -268.5 429.45 -263.3 424.95 -259.9 419.25 -256.05 412.8 -255.25 405.4 -254.4 397.75 -257.15 391.15 -258.8 386.85 -261.75 384.25 -264.5 381.75 -269.4 380.15 -275.65 378 -282.35 377.7 -285.45 377.55 -288.35 377.8 -289.4 378.4 -290.4 379.15
L -290.45 379.2
M -272.3 390.85
Q -269.15 392.2 -267 394.65 -264.65 397.3 -264.25 400.45 -263.9 403.35 -265.3 406.35 -266.55 409.1 -268.95 411.35 -271.45 413.5 -273.95 414.1 -276.15 414.55 -279.75 413.8 -284.45 412.75 -286.55 410.4 -288.75 408 -289 403.7 -289.25 398.7 -286.8 394.85 -283.9 390.65 -279.3 389.8 -275.95 389.3 -272.3 390.85 Z"/>
</g>

<path id="shop_basic_0_Layer0_0_1_STROKES" stroke="#15357C" stroke-width="13" stroke-linejoin="round" stroke-linecap="round" fill="none" d="
M -290.25 138.05
L -265.2 125.65 -233.5 244.75
M -232.7 137.9
L -238.9 115.775"/>

<path id="shop_basic_0_Layer0_1_1_STROKES" stroke="#15357C" stroke-width="13" stroke-linejoin="round" stroke-linecap="round" fill="none" d="
M -311.15 180.4
L -319.75 180.4 -319.75 139.7
M -252.875 107.225
L -249.5 105.85 -63.25 105.85"/>

<path id="shop_basic_0_Layer0_1_MEMBER_0_MEMBER_0_1_STROKES" stroke="#15357C" stroke-width="13" stroke-linejoin="round" stroke-linecap="round" fill="none" d="
M -224.8143585205078 315.7138442993164
L -201.03107757568358 367.8587890625 -174.7357635498047 315.7138442993164 -224.8143585205078 315.7138442993164 Z"/>

<path id="shop_basic_0_Layer0_1_MEMBER_0_MEMBER_1_1_STROKES" stroke="#15357C" stroke-width="13" stroke-linejoin="round" stroke-linecap="round" fill="none" d="
M -79.53972320556642 315.67332763671874
L -55.75644226074219 367.8182723999023 -29.46112823486328 315.67332763671874 -79.53972320556642 315.67332763671874 Z"/>
</defs>

<g transform="matrix( 0.16595458984375, -0.0210418701171875, 0.0210418701171875, 0.16595458984375, 67.35,-1.1) ">
<g transform="matrix( 1, 0, 0, 1, 0,0) ">
<use xlink:href="#shop_basic_0_Layer1_0_FILL"/>
</g>

<g transform="matrix( 1, 0, 0, 1, 0,0) ">
<use xlink:href="#shop_basic_0_Layer0_0_FILL"/>

<use xlink:href="#shop_basic_0_Layer0_0_1_STROKES"/>
</g>

<g transform="matrix( 1, 0, 0, 1, 0,0) ">
<use xlink:href="#shop_basic_0_Layer0_1_FILL"/>

<use xlink:href="#shop_basic_0_Layer0_1_1_STROKES"/>
</g>

<g transform="matrix( 1, 0, 0, 1, 0,0) ">
<use xlink:href="#shop_basic_0_Layer0_1_MEMBER_0_FILL"/>
</g>

<g transform="matrix( 0.810333251953125, 0, 0, 0.810333251953125, -143.7,258.95) ">
<use xlink:href="#shop_basic_0_Layer0_1_MEMBER_0_MEMBER_0_FILL"/>

<use xlink:href="#shop_basic_0_Layer0_1_MEMBER_0_MEMBER_0_1_STROKES" transform="matrix( 1.2340545654296875, 0, 0, 1.2340545654296875, 177.3,-319.55) "/>
</g>

<g transform="matrix( 0.810333251953125, 0, 0, 0.810333251953125, -144.65,258.95) ">
<use xlink:href="#shop_basic_0_Layer0_1_MEMBER_0_MEMBER_1_FILL"/>

<use xlink:href="#shop_basic_0_Layer0_1_MEMBER_0_MEMBER_1_1_STROKES" transform="matrix( 1.2340545654296875, 0, 0, 1.2340545654296875, 178.5,-319.55) "/>
</g>

<g transform="matrix( 1, 0, 0, 1, 0,0) ">
<use xlink:href="#shop_basic_0_Layer0_1_MEMBER_1_FILL"/>
</g>

<g transform="matrix( 1.0640869140625, 0, 0, 1.0640869140625, 15.3,-1.65) ">
<use xlink:href="#shop_basic_0_Layer0_1_MEMBER_2_FILL"/>
</g>

<g transform="matrix( 1, 0, 0, 1, 0,0) ">
<use xlink:href="#shop_basic_0_Layer0_1_MEMBER_3_FILL"/>
</g>

<g transform="matrix( 1, 0, 0, 1, 0,0) ">
<use xlink:href="#shop_basic_0_Layer0_1_MEMBER_4_FILL"/>
</g>

<g transform="matrix( 1, 0, 0, 1, 0,0) ">
<use xlink:href="#shop_basic_0_Layer0_1_MEMBER_5_FILL"/>
</g>

<g transform="matrix( 1, 0, 0, 1, 0,0) ">
<use xlink:href="#shop_basic_0_Layer0_1_MEMBER_5_MEMBER_0_FILL"/>
</g>

<g transform="matrix( 1, 0, 0, 1, 0,0) ">
<use xlink:href="#shop_basic_0_Layer0_2_FILL"/>
</g>

<g transform="matrix( 1, 0, 0, 1, 0,0) ">
<use xlink:href="#shop_basic_0_Layer0_3_FILL"/>
</g>
</g>
</svg>
