<svg id="Layer_1" data-name="Layer 1" xmlns="http://www.w3.org/2000/svg" width="80" height="80" viewBox="0 0 80 80"><title>transferlog-icon</title><g id="ItemTran_Basic_0_Layer4_0_FILL" data-name="ItemTran Basic 0 Layer4 0 FILL"><path d="M41.55,7.3l-.9.15a7.2592,7.2592,0,0,0-3.1-3.7,7.987,7.987,0,0,0-3.9-1.3,8.4516,8.4516,0,0,0-2.2.2A7.6611,7.6611,0,0,0,26.5,6v.05a1.0853,1.0853,0,0,0-.4.7,7.0548,7.0548,0,0,0-.9,4.05l-.85.2H24.3a5.98,5.98,0,0,0-1.6.55q-.1,0-.1.05a4.0929,4.0929,0,0,0-2.25,4.3q.0057.0426-.05.05L15.05,17.1v-.05q-4.1623.9543-5.7,3.3-1.7606,2.4189-.7,6.25l12.2,45.2v-.05q1.9339,7.6287,10.45,5.8h0L65.2,70q4.1595-.8837,5.7-3.25,1.75-2.3623.75-6.2h0L59.4,15.3Q57.3233,7.7586,49,9.6c.0018.0251-.0148.0418-.05.05l-1.6.35h0q-1.4614-3.6175-5.7-2.7h-.1M52.2,14.15a1.9791,1.9791,0,0,1,1.35.4,2.5059,2.5059,0,0,1,.7,1.25q.15.5.8,3.6l1.55,8.25-.15-1.75a6.8673,6.8673,0,0,0-.2-1.35q-.25-2.3-.45-3.45l-1.2-5.35a3.0388,3.0388,0,0,0-.55-1.35,1.8353,1.8353,0,0,0-.8-.5,5.5888,5.5888,0,0,0-3.8.15,8.1521,8.1521,0,0,1-1.2.25,1.1678,1.1678,0,0,1-1.05-.45.9943.9943,0,0,1,0-1.3.7668.7668,0,0,1-.45-.45.7926.7926,0,0,1,.4-.9,2.9,2.9,0,0,1,.95-.3l.95-.2a17.7486,17.7486,0,0,1,3-.4,5.8342,5.8342,0,0,1,2.9.65,5.221,5.221,0,0,1,2.2,2.35,14.4288,14.4288,0,0,1,1.15,3.05q.5,1.95.9,4.15.2,1.35.55,4,.1715,1.1264.4,2.05a2.4009,2.4009,0,0,1,.25.3,4.2591,4.2591,0,0,1,.4.8l2.05,6.6q.95,3.05,1.45,5.2.15.7.45,2.15l2.15,7.7a22.1731,22.1731,0,0,1,1.35,3.8l.3,1.25.7,1.75.85,3a15.4617,15.4617,0,0,1,.35,1.75,4.7744,4.7744,0,0,1-.55,3.45,6.2422,6.2422,0,0,1-3.2,2.4,36.5178,36.5178,0,0,1-4.35,1.45l-8.6,2.2a38.6455,38.6455,0,0,0-4.3.9q-2.85.85-4.3,1.2-2.55.7-7.85,1.8L29.1,75.9a5.3517,5.3517,0,0,1-2.05-.1,4.98,4.98,0,0,1-3.5-2.2l-.65-1.55q-.3-1.15-.3-1.25v-.7q-.1395-.5277-.3-1.25-1.75-7.05-4.9-17.5l-2.75-9.2a34.3444,34.3444,0,0,1-1.1-4.05,3.2374,3.2374,0,0,1-.4-1.05q-1.65-5.25-3-10.65a7.14,7.14,0,0,1-.35-2.05A4.5108,4.5108,0,0,1,11.4,21a9.6762,9.6762,0,0,1,3.2-1.9q1.2-.4,3.65-1.05a6.7851,6.7851,0,0,1,1.75-.4,2.0944,2.0944,0,0,1,1.7.5A1.2279,1.2279,0,0,1,22,19.8q-.3.55-1.65.85l-1,.25a1.1848,1.1848,0,0,1,.3.2,3.4606,3.4606,0,0,1,.6-.25l1-.3a2.1078,2.1078,0,0,1,1.5-.05,2.767,2.767,0,0,1,.7.9,2.6179,2.6179,0,0,0,2,.95,13.4079,13.4079,0,0,0,2.25-.2L44.6,18.7l.85-.35a1.5787,1.5787,0,0,1,.8-.15.6853.6853,0,0,1,.35.15,2.0211,2.0211,0,0,1,.45-.75,6.1565,6.1565,0,0,0,1.1-1.2,2.9481,2.9481,0,0,0,.25-.7,2.2781,2.2781,0,0,1,.35-.7,2.9078,2.9078,0,0,1,1-.55,10.0635,10.0635,0,0,1,2.45-.3M42.1,8.65a18.1462,18.1462,0,0,1,1.85.05,2.4828,2.4828,0,0,1,1.55.85,4.797,4.797,0,0,1,.6,1.3,20.29,20.29,0,0,1,.8,3.6A3.189,3.189,0,0,1,46.75,16a4.2214,4.2214,0,0,1-.55,1.1,3.0325,3.0325,0,0,1-.6.7,4.9737,4.9737,0,0,1-1.05.4q-2.35.55-7.05,1.35-2.05.3-3.25.55a46.0365,46.0365,0,0,1-7.55,1.7q-2.3.2-3.2-.8a5.0141,5.0141,0,0,1-.85-1.8,14.291,14.291,0,0,1-.9-2.75,2.9814,2.9814,0,0,1,.65-2.75,3.04,3.04,0,0,1,1.35-.85,10.0887,10.0887,0,0,1,2.2-.6l.4-.2a.4878.4878,0,0,0,.1-.35V10.65l.2-1.45a6.3693,6.3693,0,0,1,1.65-3,7.042,7.042,0,0,1,2.95-1.85A6.3806,6.3806,0,0,1,34.7,4.3a6.8164,6.8164,0,0,1,3.05,1.55,10.02,10.02,0,0,1,1.6,2.1q.3.65.7.75a1.7035,1.7035,0,0,0,.55.05l1.5-.1M31.05,7.4l-.3.25a1.8153,1.8153,0,0,0-.6,1.3l-.05.35-.1.35.1.45.05.75a1.8828,1.8828,0,0,0,.45.75l.75.5a2.3041,2.3041,0,0,0,.85.45,2.1044,2.1044,0,0,0,2.15-.4l.3-.3.45-.6a3.2512,3.2512,0,0,0,.45-1.6l-.1-.45a3.52,3.52,0,0,0-.75-1.55,2.3649,2.3649,0,0,0-.95-.5A3.09,3.09,0,0,0,31.5,7.1l-.45.3M34.4,9.55V9.6a1.15,1.15,0,0,1-.15,1,.0732.0732,0,0,1-.05.05.9064.9064,0,0,1-.7.55h0a1.5619,1.5619,0,0,1-1.1-.15,1.7539,1.7539,0,0,1-.7-.95,1.2631,1.2631,0,0,1,.15-.95h.05a1.4337,1.4337,0,0,1,.85-.65,1.38,1.38,0,0,1,1,.25.2109.2109,0,0,0,.1.05,1.0176,1.0176,0,0,1,.55.75m25.8,47.4a4.4876,4.4876,0,0,1-.35.55,1.59,1.59,0,0,1,.65-.25l-.3-.3M35.45,71.65l.65-.15q12.15-2.8,22.7-6.25l3-1.2a15.4927,15.4927,0,0,0,4.5-2.8,3.8807,3.8807,0,0,0,.8-1.35q.0317-.2537.05-.45l-3.15-7q.6707,1.6411,1,2.3.5,1.15,1.55,3.45a1.989,1.989,0,0,1,.05,1.45,1.1551,1.1551,0,0,1-1.05.65.7524.7524,0,0,1,.15.45q.05.6-.9,1.05-2.6,1.4-8.65,4l-1.75.7q-.75.25-2.6.7a23.8567,23.8567,0,0,0-4.1,1.25,2.3055,2.3055,0,0,1-.8.2.6548.6548,0,0,1-.75-.3.7268.7268,0,0,1,.1-.8,2.6709,2.6709,0,0,1,.7-.55l4.45-2.3A25.32,25.32,0,0,0,56,61.6a18.4212,18.4212,0,0,0,1.45-1.3q-.3059.2733-.65.55a25.9314,25.9314,0,0,1-4.35,2.8q-1.9,1.1-4.85,2.5l-1.45.7q-.85.5-2.4,1.6A5.1821,5.1821,0,0,1,41.1,69.5a5.329,5.329,0,0,0-1.2.1,3.54,3.54,0,0,0-.95.45,21.3989,21.3989,0,0,1-3.5,1.6m-14.65-22a.5493.5493,0,0,0-.05-.1l4.5,13.95q.4,1.4.9,4.2a9.3381,9.3381,0,0,0,2.35,3.95,3.2583,3.2583,0,0,0,1.05.75,3.5426,3.5426,0,0,0,1.55.1,15.1818,15.1818,0,0,0,1.65-.25,4.4774,4.4774,0,0,1-3.2-1.35,11.0137,11.0137,0,0,1-2.1-3.05,36.5535,36.5535,0,0,1-1.95-4.7q-.2-.5-1.6-4.9-.55-1.65-3.1-8.6m-4.95-27.3a3.9318,3.9318,0,0,1,.5-.65,2.5674,2.5674,0,0,0-1.3,1.25,2.2268,2.2268,0,0,0-.2,1,22.5065,22.5065,0,0,0,1.1,6.7l1.3,5.3a9.3154,9.3154,0,0,1,.2,1.95V38a8.4064,8.4064,0,0,1,.35,1.25q.1.6.85,3.75l1.5,4.65a7.58,7.58,0,0,1-.3-2.35q-.7135-2.4039-1.45-5.35a11.8452,11.8452,0,0,1-.45-1.8l-.4-1.45A80.2547,80.2547,0,0,1,15.4,25.6a5.48,5.48,0,0,1,.45-3.25m41.2,6.3q-.3334-.625-.45-.9l.65,3.3q.7244,3.662,1.65,6.9l.05.05a.8727.8727,0,0,1,.25.25q-1.0592-3.9354-1.85-7.95a9.7945,9.7945,0,0,1-.15-1.4A1,1,0,0,1,57.05,28.65Z"/><path d="M43.95,8.7a18.1462,18.1462,0,0,0-1.85-.05l-1.5.1a1.7035,1.7035,0,0,1-.55-.05q-.4-.1-.7-.75a10.02,10.02,0,0,0-1.6-2.1A6.8164,6.8164,0,0,0,34.7,4.3a6.3806,6.3806,0,0,0-3.45.05A7.042,7.042,0,0,0,28.3,6.2a6.3693,6.3693,0,0,0-1.65,3l-.2,1.45V11.7a.4878.4878,0,0,1-.1.35l-.4.2a10.0887,10.0887,0,0,0-2.2.6,3.04,3.04,0,0,0-1.35.85,2.9814,2.9814,0,0,0-.65,2.75,14.291,14.291,0,0,0,.9,2.75A5.0141,5.0141,0,0,0,23.5,21q.9,1,3.2.8a46.0365,46.0365,0,0,0,7.55-1.7q1.2-.25,3.25-.55,4.7-.8,7.05-1.35a4.9737,4.9737,0,0,0,1.05-.4,3.0325,3.0325,0,0,0,.6-.7,4.2214,4.2214,0,0,0,.55-1.1,3.189,3.189,0,0,0,.15-1.55,20.29,20.29,0,0,0-.8-3.6,4.797,4.797,0,0,0-.6-1.3,2.4828,2.4828,0,0,0-1.55-.85M30.75,7.65l.3-.25.45-.3a3.09,3.09,0,0,1,2.25.05,2.3649,2.3649,0,0,1,.95.5,3.52,3.52,0,0,1,.75,1.55l.1.45a3.2512,3.2512,0,0,1-.45,1.6l-.45.6-.3.3a2.1044,2.1044,0,0,1-2.15.4,2.3041,2.3041,0,0,1-.85-.45l-.75-.5a1.8828,1.8828,0,0,1-.45-.75l-.05-.75L30,9.65l.1-.35.05-.35A1.8153,1.8153,0,0,1,30.75,7.65Z" fill="#ccc"/><path d="M46.95,67a2.6709,2.6709,0,0,0-.7.55.7268.7268,0,0,0-.1.8.6548.6548,0,0,0,.75.3,2.3055,2.3055,0,0,0,.8-.2,23.8567,23.8567,0,0,1,4.1-1.25q1.85-.45,2.6-.7l1.75-.7q6.05-2.6,8.65-4,.95-.45.9-1.05a.7524.7524,0,0,0-.15-.45,1.0216,1.0216,0,0,0-.3-.35l-.9-.35a6.7721,6.7721,0,0,1-2.5-1.55,4.0149,4.0149,0,0,0-1.1-.75q-.1138-.0189-.25-.05a1.59,1.59,0,0,0-.65.25l-.2.2a4.4323,4.4323,0,0,0-.75.9,12.6911,12.6911,0,0,1-1.45,1.7A18.4212,18.4212,0,0,1,56,61.6a25.32,25.32,0,0,1-4.6,3.1L46.95,67M35.45,23.25l1.8-.4q1.2-.3,3.55-1.05a13.399,13.399,0,0,1,3-.55,6.1976,6.1976,0,0,0,1.2-.5,5.4557,5.4557,0,0,0,.85-.6.475.475,0,0,1,.1,0q.9-.1,1-.85a.8412.8412,0,0,0-.1-.7,1.0806,1.0806,0,0,0-.25-.25.6853.6853,0,0,0-.35-.15,1.5787,1.5787,0,0,0-.8.15l-.85.35L27.7,22.15a13.4079,13.4079,0,0,1-2.25.2,2.6179,2.6179,0,0,1-2-.95,2.767,2.767,0,0,0-.7-.9,2.1078,2.1078,0,0,0-1.5.05l-1,.3a3.4606,3.4606,0,0,0-.6.25.7946.7946,0,0,0-.2.1.7835.7835,0,0,0-.4.7.8663.8663,0,0,0,.85.75,2.0187,2.0187,0,0,0,.4,0,1.8787,1.8787,0,0,0,.15.35l.5.7a5.5335,5.5335,0,0,0,1.3,1.15A5.75,5.75,0,0,0,24.9,25q4.65-.65,10.55-1.75M28,51.5a1.305,1.305,0,0,0-.8.4,1.0783,1.0783,0,0,0-.25.95,6.37,6.37,0,0,0,.25,1q.35.95,1.1,3.8a33.0627,33.0627,0,0,0,1.2,3.8,2.1826,2.1826,0,0,0,.6.8,1.1125,1.1125,0,0,0,.95.2,11.722,11.722,0,0,0,3.4-.65,35.06,35.06,0,0,0,3.95-1.2,5.1688,5.1688,0,0,1,1.35-.45q.25-.05.8-.1a1.3141,1.3141,0,0,0,.65-.3q.45-.45.15-1.55a28.34,28.34,0,0,0-1.25-3.9l-.45-1.15a10.5351,10.5351,0,0,0-.5-1.9,5.8911,5.8911,0,0,1-.25-.85,1.34,1.34,0,0,0,.05-.6.8994.8994,0,0,0-.35-.7,1.3415,1.3415,0,0,0-.8-.25,9.8325,9.8325,0,0,0-1.6.4,8.7833,8.7833,0,0,1-2,.5q-3.55.85-6.2,1.75M22.8,32.05a2.2761,2.2761,0,0,0-.95.45,1.6855,1.6855,0,0,0-.05,1.25l2,8.7a2.8382,2.8382,0,0,0,.4.85q.45.45,1.6.15l8.85-2.2q1.25-.3,1.5-1a2.2054,2.2054,0,0,0,0-.95q-.712-3.0193-1.4-5.5-.62-2.1454-1.4-4.3h0a1.6278,1.6278,0,0,0-.2-.2q-.6933.1906-1.25.3l-.25.35a2.1034,2.1034,0,0,1-1.1.5Z" fill="#ffd48f"/><path d="M57.15,13.3a5.221,5.221,0,0,0-2.2-2.35,5.8342,5.8342,0,0,0-2.9-.65,17.7486,17.7486,0,0,0-3,.4l-.95.2a2.9,2.9,0,0,0-.95.3.7926.7926,0,0,0-.4.9.7668.7668,0,0,0,.45.45.9943.9943,0,0,0,0,1.3,1.1678,1.1678,0,0,0,1.05.45,8.1521,8.1521,0,0,0,1.2-.25,5.5888,5.5888,0,0,1,3.8-.15,1.8353,1.8353,0,0,1,.8.5,3.0388,3.0388,0,0,1,.55,1.35l1.2,5.35q.2,1.15.45,3.45a6.8673,6.8673,0,0,1,.2,1.35l.15,1.75v.1q.1165.2749.45.9a1,1,0,0,0,.15.25,9.7945,9.7945,0,0,0,.15,1.4q.7908,4.0146,1.85,7.95.7273,2.5734,1.55,5.1.65,2.1,2.15,6.2l.65,1.75q.084.2207.15.4.159.3972.3.75l3.15,7q-.0183.1963-.05.45a3.8807,3.8807,0,0,1-.8,1.35,15.4927,15.4927,0,0,1-4.5,2.8l-3,1.2Q48.25,68.7,36.1,71.5l-.65.15-1,.25q-.9429.2193-1.7.35a15.1818,15.1818,0,0,1-1.65.25,3.5426,3.5426,0,0,1-1.55-.1,3.2583,3.2583,0,0,1-1.05-.75,9.3381,9.3381,0,0,1-2.35-3.95q-.5-2.8-.9-4.2l-4.5-13.95a19.5955,19.5955,0,0,1-.6-1.9L18.65,43q-.75-3.15-.85-3.75A8.4064,8.4064,0,0,0,17.45,38v-.1a9.3154,9.3154,0,0,0-.2-1.95l-1.3-5.3a22.5065,22.5065,0,0,1-1.1-6.7,2.2268,2.2268,0,0,1,.2-1,2.5674,2.5674,0,0,1,1.3-1.25q.1584-.0509.3-.1l2.7-.7,1-.25q1.35-.3,1.65-.85a1.2279,1.2279,0,0,0-.3-1.65,2.0944,2.0944,0,0,0-1.7-.5,6.7851,6.7851,0,0,0-1.75.4q-2.45.65-3.65,1.05A9.6762,9.6762,0,0,0,11.4,21a4.5108,4.5108,0,0,0-1.6,3.35,7.14,7.14,0,0,0,.35,2.05q1.35,5.4,3,10.65a3.2374,3.2374,0,0,0,.4,1.05,34.3444,34.3444,0,0,0,1.1,4.05l2.75,9.2q3.15,10.45,4.9,17.5.16.7223.3,1.25v.7q0,.1.3,1.25l.65,1.55a4.98,4.98,0,0,0,3.5,2.2,5.3517,5.3517,0,0,0,2.05.1l8.2-1.65q5.3-1.1,7.85-1.8,1.45-.35,4.3-1.2a38.6455,38.6455,0,0,1,4.3-.9l8.6-2.2A36.5178,36.5178,0,0,0,66.7,66.7a6.2422,6.2422,0,0,0,3.2-2.4,4.7744,4.7744,0,0,0,.55-3.45,15.4617,15.4617,0,0,0-.35-1.75l-.85-3-.7-1.75-.3-1.25a22.1731,22.1731,0,0,0-1.35-3.8l-2.15-7.7q-.3-1.45-.45-2.15-.5-2.15-1.45-5.2l-2.05-6.6a4.2591,4.2591,0,0,0-.4-.8,2.4009,2.4009,0,0,0-.25-.3q-.2284-.9237-.4-2.05-.35-2.65-.55-4-.4-2.2-.9-4.15A14.4288,14.4288,0,0,0,57.15,13.3Z" fill="#842418"/><path d="M53.55,14.55a1.9791,1.9791,0,0,0-1.35-.4,10.0635,10.0635,0,0,0-2.45.3,2.9078,2.9078,0,0,0-1,.55,2.2781,2.2781,0,0,0-.35.7,2.9481,2.9481,0,0,1-.25.7,6.1565,6.1565,0,0,1-1.1,1.2,2.0211,2.0211,0,0,0-.45.75,1.0806,1.0806,0,0,1,.25.25.8412.8412,0,0,1,.1.7q-.1.75-1,.85a.475.475,0,0,0-.1,0,5.4557,5.4557,0,0,1-.85.6,6.1976,6.1976,0,0,1-1.2.5,13.399,13.399,0,0,0-3,.55q-2.35.75-3.55,1.05l-1.8.4Q29.55,24.35,24.9,25a5.75,5.75,0,0,1-2.65-.15,5.5335,5.5335,0,0,1-1.3-1.15l-.5-.7a1.8787,1.8787,0,0,1-.15-.35,2.0187,2.0187,0,0,1-.4,0,.8663.8663,0,0,1-.85-.75.7835.7835,0,0,1,.4-.7.7946.7946,0,0,1,.2-.1,1.1848,1.1848,0,0,0-.3-.2l-2.7.7q-.1416.0492-.3.1a3.9318,3.9318,0,0,0-.5.65,5.48,5.48,0,0,0-.45,3.25,80.2547,80.2547,0,0,0,2.15,11.1l.4,1.45a11.8452,11.8452,0,0,0,.45,1.8q.7365,2.9461,1.45,5.35a7.58,7.58,0,0,0,.3,2.35,19.5955,19.5955,0,0,0,.6,1.9.5493.5493,0,0,1,.05.1q2.55,6.95,3.1,8.6,1.4,4.4,1.6,4.9a36.5535,36.5535,0,0,0,1.95,4.7,11.0137,11.0137,0,0,0,2.1,3.05,4.4774,4.4774,0,0,0,3.2,1.35q.757-.1307,1.7-.35l1-.25a21.3989,21.3989,0,0,0,3.5-1.6,3.54,3.54,0,0,1,.95-.45,5.329,5.329,0,0,1,1.2-.1,5.1821,5.1821,0,0,0,2.65-1.05q1.55-1.1,2.4-1.6l1.45-.7q2.95-1.4,4.85-2.5a25.9314,25.9314,0,0,0,4.35-2.8q.3441-.2767.65-.55a12.6911,12.6911,0,0,0,1.45-1.7,4.4323,4.4323,0,0,1,.75-.9l.2-.2a4.4876,4.4876,0,0,0,.35-.55l.3.3q.1362.031.25.05a4.0149,4.0149,0,0,1,1.1.75,6.7721,6.7721,0,0,0,2.5,1.55l.9.35a1.0216,1.0216,0,0,1,.3.35,1.1551,1.1551,0,0,0,1.05-.65,1.989,1.989,0,0,0-.05-1.45Q65.5,55.9,65,54.75q-.3293-.6588-1-2.3-.141-.3528-.3-.75-.066-.1793-.15-.4l-.65-1.75q-1.5-4.1-2.15-6.2-.8226-2.5266-1.55-5.1a.8727.8727,0,0,0-.25-.25l-.05-.05q-.9256-3.2381-1.65-6.9l-.65-3.3v-.1L55.05,19.4q-.65-3.1-.8-3.6a2.5059,2.5059,0,0,0-.7-1.25M21.8,36.8a32.6815,32.6815,0,0,1-1.15-4.9,55.1035,55.1035,0,0,1,8.05-1.8q1.95-.3,2.05-.3.4577-.0539,1.15-.2.5566-.1093,1.25-.3a.3249.3249,0,0,0,.15,0,.91.91,0,0,1,.05.2q.78,2.1544,1.4,4.3,1.0874,3.53,1.85,7.1a91.7165,91.7165,0,0,1-12.7,3.25,1.2427,1.2427,0,0,1-.45-.05l-.1-.3q-.75-4-1.55-7m4.15,14.7a9.5753,9.5753,0,0,1,2.25-.65q.9-.25,2.65-.9A23.7357,23.7357,0,0,1,34,49.3l4.65-.75q2.1,6.75,3.8,11.6a10.6339,10.6339,0,0,1-2.7.9l-3.55.9q-3.45.9-6.45,1.45l-.3-.05q-.1-.05-.1-.25a39.9745,39.9745,0,0,0-1.75-6.35A29.3428,29.3428,0,0,1,25.95,51.5Z" fill="#ffecc7"/><path d="M28.2,50.85a9.5753,9.5753,0,0,0-2.25.65,29.3428,29.3428,0,0,0,1.65,5.25,39.9745,39.9745,0,0,1,1.75,6.35q0,.2.1.25l.3.05q3-.55,6.45-1.45l3.55-.9a10.6339,10.6339,0,0,0,2.7-.9q-1.7-4.85-3.8-11.6L34,49.3a23.7357,23.7357,0,0,0-3.15.65q-1.75.65-2.65.9m-1,1.05a1.305,1.305,0,0,1,.8-.4q2.65-.9,6.2-1.75a8.7833,8.7833,0,0,0,2-.5,9.8325,9.8325,0,0,1,1.6-.4,1.3415,1.3415,0,0,1,.8.25.8994.8994,0,0,1,.35.7,1.34,1.34,0,0,1-.05.6,5.8911,5.8911,0,0,0,.25.85,10.5351,10.5351,0,0,1,.5,1.9l.45,1.15a28.34,28.34,0,0,1,1.25,3.9q.3,1.1-.15,1.55a1.3141,1.3141,0,0,1-.65.3q-.55.05-.8.1a5.1688,5.1688,0,0,0-1.35.45,35.06,35.06,0,0,1-3.95,1.2,11.722,11.722,0,0,1-3.4.65,1.1125,1.1125,0,0,1-.95-.2,2.1826,2.1826,0,0,1-.6-.8,33.0627,33.0627,0,0,1-1.2-3.8q-.75-2.85-1.1-3.8a6.37,6.37,0,0,1-.25-1,1.0783,1.0783,0,0,1,.25-.95m6.15-22.4a.91.91,0,0,0-.05-.2.3249.3249,0,0,1-.15,0,1.6278,1.6278,0,0,1,.2.2h0m-11.5,3a2.2761,2.2761,0,0,1,.95-.45l7.75-1.6a2.1034,2.1034,0,0,0,1.1-.5l.25-.35q-.6924.1461-1.15.2-.1,0-2.05.3a55.1035,55.1035,0,0,0-8.05,1.8,32.6815,32.6815,0,0,0,1.15,4.9q.8,3,1.55,7l.1.3a1.2427,1.2427,0,0,0,.45.05A91.7165,91.7165,0,0,0,36.6,40.9q-.7627-3.57-1.85-7.1.6879,2.4807,1.4,5.5a2.2054,2.2054,0,0,1,0,.95q-.25.7-1.5,1l-8.85,2.2q-1.15.3-1.6-.15a2.8382,2.8382,0,0,1-.4-.85l-2-8.7A1.6855,1.6855,0,0,1,21.85,32.5Z" fill="#d3ad70"/></g><g id="ItemTran_Basic_0_Layer3_0_FILL" data-name="ItemTran Basic 0 Layer3 0 FILL"><path d="M49,9.6,15.05,17.05q-4.1623.9543-5.7,3.3-1.7606,2.4189-.7,6.25l12.2,45.2v-.05q1.9339,7.6287,10.45,5.8h0L65.2,70q4.1595-.8837,5.7-3.25,1.75-2.3623.75-6.2h0L59.4,15.3Q57.3233,7.7586,49,9.6M11.8,22.1A6.6053,6.6053,0,0,1,15.7,20l33.95-7.45q5.4276-1.209,6.85,3.55L68.75,61.35V61.3a4.6719,4.6719,0,0,1-.3,3.75,6.34,6.34,0,0,1-3.9,2L30.65,74.6q-5.5378,1.2111-6.9-3.6h0L11.55,25.8A4.502,4.502,0,0,1,11.8,22.1Z"/><path d="M15.7,20a6.6053,6.6053,0,0,0-3.9,2.1,4.502,4.502,0,0,0-.25,3.7L23.75,71h0q1.3621,4.8111,6.9,3.6l33.9-7.55a6.34,6.34,0,0,0,3.9-2,4.6719,4.6719,0,0,0,.3-3.75v.05L56.5,16.1q-1.4225-4.7591-6.85-3.55Z" fill="#842418"/></g><g id="ItemTran_Basic_0_Layer2_0_FILL" data-name="ItemTran Basic 0 Layer2 0 FILL"><path d="M55.7,16.25l-.05-.05q-1-3.7-4.9-2.85L17.25,20.4q-3.9.7-2.85,6.5A264.5092,264.5092,0,0,0,26.45,69.1q1.8,4.9,5.6,4.1l.1-.1q28.25-5.3,35.5-12.2a.4477.4477,0,0,0,.25-.3h.05a.29.29,0,0,1,.05-.2.1442.1442,0,0,1-.05-.1v-.1l-.1-.4Q59.45,41.55,55.7,16.25m-1.85.35.1.1q3.65,24.55,11.6,42.5a12.2423,12.2423,0,0,1-4.75-3.15.79.79,0,0,0-.4-.3.819.819,0,0,0-.6.1.5842.5842,0,0,0-.4.35q-5.8,9.4-27.7,15.25l-.1.05q-2.25.3-3.45-2.9a247.2249,247.2249,0,0,1-11.9-42q-.75-3.8,1.4-4.45l1.55-.35L46.75,16l4.4-.9a1.98,1.98,0,0,1,2.7,1.5M60.4,58.05a14.71,14.71,0,0,0,4.45,2.85q-5.4,3.85-17.95,7.2Q56.4,63.7,60.4,58.05Z"/><path d="M64.85,60.9a14.71,14.71,0,0,1-4.45-2.85q-4,5.65-13.5,10.05,12.55-3.35,17.95-7.2M47,16.65a2.4079,2.4079,0,0,0-.25-.65L19.2,21.8l.7,2.65.15.1.1.3A4.2165,4.2165,0,0,0,22.6,26.3q2.45.75,12.15-1.75l8.2-2.1q2.75-.65,3.55-1.75a3.7866,3.7866,0,0,0,.65-2.35.58.58,0,0,0,.1-.15A3.0676,3.0676,0,0,0,47,16.65Z" fill="#ffd48f"/><path d="M53.95,16.7l-.1-.1a1.98,1.98,0,0,0-2.7-1.5l-4.4.9a2.4079,2.4079,0,0,1,.25.65,3.0676,3.0676,0,0,1,.25,1.55.58.58,0,0,1-.1.15,3.7866,3.7866,0,0,1-.65,2.35q-.8,1.1-3.55,1.75l-8.2,2.1q-9.7,2.5-12.15,1.75a4.2165,4.2165,0,0,1-2.45-1.45l-.1-.3-.15-.1-.7-2.65-1.55.35q-2.15.65-1.4,4.45a247.2249,247.2249,0,0,0,11.9,42q1.2,3.2,3.45,2.9l.1-.05Q53.6,65.6,59.4,56.2a.5842.5842,0,0,1,.4-.35.819.819,0,0,1,.6-.1.79.79,0,0,1,.4.3,12.2423,12.2423,0,0,0,4.75,3.15Q57.6,41.25,53.95,16.7Z" fill="#ffecc7"/></g><g id="ItemTran_Basic_0_Layer1_0_FILL" data-name="ItemTran Basic 0 Layer1 0 FILL"><path d="M41.55,7.3l-.9.15a7.2592,7.2592,0,0,0-3.1-3.7,7.987,7.987,0,0,0-3.9-1.3,8.4516,8.4516,0,0,0-2.2.2A7.6611,7.6611,0,0,0,26.5,6v.05a1.0853,1.0853,0,0,0-.4.7,7.0548,7.0548,0,0,0-.9,4.05l-.85.2H24.3a5.98,5.98,0,0,0-1.6.55q-.1,0-.1.05-2.9,1.55-2.05,5.35l.5,2.15a5.3566,5.3566,0,0,0,2.1,3.6,4.6884,4.6884,0,0,0,4.05.55l17.35-3.7a6.0006,6.0006,0,0,0,3.4-1.6,3.15,3.15,0,0,0,.75-2.5q-.25-1.05-.3-1.2v.05l-.7-3.1v-.05q-1.2-4.9-6.05-3.85h-.1m.6,2.3a2.3911,2.3911,0,0,1,3.25,2l.85,4.1a.4442.4442,0,0,0-.05.2.3391.3391,0,0,1-.1.25,3.1612,3.1612,0,0,1-2.15,1.2L26.65,21a2.9784,2.9784,0,0,1-2.2-.2,3.9182,3.9182,0,0,1-1.1-2.1l-.5-2.3a2.1945,2.1945,0,0,1,.9-2.75.6732.6732,0,0,1,.45-.25q.35-.1.6-.15l2.25-.45a.9638.9638,0,0,0,.5-.4h.05v-.05a.4442.4442,0,0,1,.05-.2V12a2.8669,2.8669,0,0,1-.1-.9,5.2794,5.2794,0,0,1,.6-3.35.0442.0442,0,0,1,.05-.05.7867.7867,0,0,1,.2-.3,4.6352,4.6352,0,0,1,2.75-2.2,5.1614,5.1614,0,0,1,.75-.35,7.8294,7.8294,0,0,1,1.75-.1,5.1967,5.1967,0,0,1,2.7.95,5.7986,5.7986,0,0,1,2.5,3.6.7522.7522,0,0,0,.45.6,1.0792,1.0792,0,0,0,.65.1l2.2-.4M30.2,8.05V8a3.1955,3.1955,0,0,0-.45,2.6,3.7261,3.7261,0,0,0,1.5,2.1.228.228,0,0,0,.1.05,3.3385,3.3385,0,0,0,2.5.4,2.6837,2.6837,0,0,0,2.1-1.55v.1a3.049,3.049,0,0,0,.4-2.6v.05A2.9013,2.9013,0,0,0,34.9,7.1a3.1781,3.1781,0,0,0-2.55-.55,3.35,3.35,0,0,0-2.15,1.5m4.2,1.5V9.6a1.15,1.15,0,0,1-.15,1,.0732.0732,0,0,1-.05.05.9064.9064,0,0,1-.7.55h0a1.5619,1.5619,0,0,1-1.1-.15,1.7539,1.7539,0,0,1-.7-.95,1.2631,1.2631,0,0,1,.15-.95h.05a1.4337,1.4337,0,0,1,.85-.65,1.38,1.38,0,0,1,1,.25.2109.2109,0,0,0,.1.05A1.0176,1.0176,0,0,1,34.4,9.55Z"/><path d="M45.4,11.6a2.3911,2.3911,0,0,0-3.25-2l-2.2.4a1.0792,1.0792,0,0,1-.65-.1.7522.7522,0,0,1-.45-.6,5.7986,5.7986,0,0,0-2.5-3.6,5.1967,5.1967,0,0,0-2.7-.95,7.8294,7.8294,0,0,0-1.75.1,5.1614,5.1614,0,0,0-.75.35A4.6352,4.6352,0,0,0,28.4,7.4a.7867.7867,0,0,0-.2.3.0442.0442,0,0,0-.05.05,5.2794,5.2794,0,0,0-.6,3.35,2.8669,2.8669,0,0,0,.1.9v.15a.4442.4442,0,0,0-.05.2v.05h-.05a.9638.9638,0,0,1-.5.4l-2.25.45q-.25.05-.6.15a.6732.6732,0,0,0-.45.25,2.1945,2.1945,0,0,0-.9,2.75l.5,2.3a3.9182,3.9182,0,0,0,1.1,2.1,2.9784,2.9784,0,0,0,2.2.2l17.3-3.65a3.1612,3.1612,0,0,0,2.15-1.2.3391.3391,0,0,0,.1-.25.4442.4442,0,0,1,.05-.2l-.85-4.1M30.2,8v.05a3.35,3.35,0,0,1,2.15-1.5,3.1781,3.1781,0,0,1,2.55.55,2.9013,2.9013,0,0,1,1.45,2.05V9.1a3.049,3.049,0,0,1-.4,2.6v-.1a2.6837,2.6837,0,0,1-2.1,1.55,3.3385,3.3385,0,0,1-2.5-.4.228.228,0,0,1-.1-.05,3.7261,3.7261,0,0,1-1.5-2.1A3.1955,3.1955,0,0,1,30.2,8Z" fill="#ccc"/></g><g id="ItemTran_Basic_0_Layer0_0_FILL" data-name="ItemTran Basic 0 Layer0 0 FILL"><path d="M46,55.05a1.1124,1.1124,0,0,0-.6.45,1.0678,1.0678,0,0,0-.15.75,1.1163,1.1163,0,0,0,.45.65.896.896,0,0,0,.75.1L59.4,54a.89.89,0,0,0,.65-.45.9955.9955,0,0,0-.35-1.35,1.006,1.006,0,0,0-.75-.15L46,55.05M58.35,47.3a1.006,1.006,0,0,0-.75-.15l-12.95,3a1.1124,1.1124,0,0,0-.6.45,1.0678,1.0678,0,0,0-.15.75,1.1163,1.1163,0,0,0,.45.65.896.896,0,0,0,.75.1l12.95-3a.89.89,0,0,0,.65-.45.9955.9955,0,0,0-.35-1.35M53.4,29.25a1.0049,1.0049,0,0,0-.75-.15l-13.7,3.15a1.1138,1.1138,0,0,0-.6.45,1.0658,1.0658,0,0,0-.15.75,1.1163,1.1163,0,0,0,.45.65.895.895,0,0,0,.75.1l13.7-3.15a.89.89,0,0,0,.65-.45.9955.9955,0,0,0-.35-1.35m1.4,4.85a1.0074,1.0074,0,0,0-.75-.15L40.3,37.2a1.1116,1.1116,0,0,0-.6.45,1.0663,1.0663,0,0,0-.15.75,1.1175,1.1175,0,0,0,.45.65.8961.8961,0,0,0,.75.1L54.5,35.9a.89.89,0,0,0,.65-.45.9955.9955,0,0,0-.35-1.35Z" fill="#333"/><path d="M26.05,50.75a1.2978,1.2978,0,0,0-.45.3,1.164,1.164,0,0,0-.3.45,1.23,1.23,0,0,0,.05.55L28.9,63.7a.8858.8858,0,0,0,.45.55.8648.8648,0,0,0,.75.1L42.35,61a.7632.7632,0,0,0,.45-.25.8033.8033,0,0,0,.25-.5.747.747,0,0,0,0-.5L39.55,48.5a1.0556,1.0556,0,0,0-.45-.6,1.1928,1.1928,0,0,0-.75-.1l-12.3,2.95m14.8,8.6L30.5,62.15l-2.95-9.7L37.9,50l2.95,9.35m-20.3-28a1.5613,1.5613,0,0,0-.45.25,1.1407,1.1407,0,0,0-.25.45,1.3451,1.3451,0,0,0-.05.55l3,11.8a1.0867,1.0867,0,0,0,.45.6.9165.9165,0,0,0,.75.1l12.6-2.95a.8023.8023,0,0,0,.5-.25.7134.7134,0,0,0,.25-.45.7917.7917,0,0,0,0-.55L34.1,29.15a.8667.8667,0,0,0-.45-.55,1.0722,1.0722,0,0,0-.75-.15l-12.35,2.9m3.95,11.6L22,33.1l10.4-2.45,2.75,9.8Z" fill="#d3ad70"/><path d="M30.5,62.15l10.35-2.8L37.9,50,27.55,52.45l2.95,9.7M22,33.1l2.5,9.85,10.65-2.5-2.75-9.8Z" fill="#ffd48f"/></g></svg>