<?xml version="1.0" encoding="UTF-8" standalone="no"?>
<svg
   width="127pt"
   height="162pt"
   viewBox="0 0 127 162"
   version="1.1"
   id="svg9"
   sodipodi:docname="coffee.svg"
   inkscape:version="1.1.1 (3bf5ae0d25, 2021-09-20)"
   inkscape:export-filename="C:\Users\Administrator\Documents\GitHub\Neopets-Shop-And-Attic-Autobuyer-Cracked\Autobuyer\icons\coffee.png"
   inkscape:export-xdpi="100"
   inkscape:export-ydpi="100"
   xmlns:inkscape="http://www.inkscape.org/namespaces/inkscape"
   xmlns:sodipodi="http://sodipodi.sourceforge.net/DTD/sodipodi-0.dtd"
   xmlns="http://www.w3.org/2000/svg"
   xmlns:svg="http://www.w3.org/2000/svg">
  <defs
     id="defs13" />
  <sodipodi:namedview
     id="namedview11"
     pagecolor="#ffffff"
     bordercolor="#666666"
     borderopacity="1.0"
     inkscape:pageshadow="2"
     inkscape:pageopacity="0.0"
     inkscape:pagecheckerboard="0"
     inkscape:document-units="pt"
     showgrid="false"
     inkscape:zoom="2.4074074"
     inkscape:cx="69.576923"
     inkscape:cy="106.54615"
     inkscape:window-width="1360"
     inkscape:window-height="705"
     inkscape:window-x="-8"
     inkscape:window-y="-8"
     inkscape:window-maximized="1"
     inkscape:current-layer="svg9" />
  <g
     id="#ffffffff"
     transform="translate(6.6492108,-0.62307692)" />
  <g
     id="#0d0c22ff"
     transform="translate(6.6492108,-0.62307692)"
     style="fill:#03a9f4;fill-opacity:1">
    <path
       fill="#0d0c22"
       opacity="1"
       d="M 20.13,10.36 C 26.81,8.03 33.88,7.15 40.91,6.6 54.63,5.53 68.63,5.71 82.07,8.93 c 3.76,0.99 7.91,2.77 9.58,6.55 1.85,4.98 1.65,10.47 3.33,15.49 1.54,2.13 4.57,1.85 6.46,3.5 2.44,1.78 3.41,4.81 4.06,7.63 0.71,3.42 1.79,6.99 0.9,10.49 -0.61,2.59 -2.46,4.76 -4.69,6.14 -2.1,1.09 -4.57,1.28 -6.57,2.61 -0.82,4.14 -1.02,8.37 -1.51,12.56 -2.1,20.67 -4.26,41.34 -6.33,62.01 -0.37,3.79 -0.99,7.78 -3.34,10.92 -4.61,6.68 -13.21,9.19 -20.97,9.18 -9.3,-0.17 -18.82,0.66 -27.89,-1.85 -5.98,-1.58 -11.14,-6.73 -11.8,-13.01 -2.46,-22.35 -4.66,-44.72 -7.05,-67.07 -0.15,-1.7 -0.46,-3.4 -0.28,-5.11 0.92,-1.82 2.82,-3.4 4.99,-2.94 2.23,0.42 3.22,2.81 3.44,4.83 2.27,21.74 4.49,43.5 6.8,65.24 0.32,3.92 1.99,8.01 5.61,9.97 5.3,2.83 11.48,1.68 17.22,1.95 5.97,0.31 12.08,0.41 17.87,-1.33 2.69,-0.86 5.28,-2.78 6.1,-5.59 1.09,-3.61 0.96,-7.45 1.41,-11.16 2.02,-19.68 4.05,-39.36 6.07,-59.03 0.17,-2.71 1.15,-5.62 -0.34,-8.13 -2.63,-0.95 -5.38,-0.06 -8.06,0.06 -11.99,0.9 -24.04,1.17 -36.06,0.68 C 32.93,62.84 24.84,62.08 16.83,60.76 14.01,60.26 10.97,60.24 8.45,58.72 4.43,56.44 2.38,51.35 3.48,46.89 c 0.8,-3.74 1.05,-7.81 3.33,-11.03 1.57,-2.32 4.39,-3.33 7.08,-3.55 4.77,-0.45 9.33,1.46 14.06,1.69 5.34,0.33 10.64,1.12 15.98,1.33 14.09,0.78 28.23,-0.09 42.24,-1.69 0.85,-2.22 -0.25,-4.52 -0.6,-6.74 -0.76,-2.68 -0.82,-5.67 -2.33,-8.09 -2.08,-2.15 -5.35,-2.03 -8.09,-2.56 -12.25,-2.4 -24.84,-1.9 -37.22,-1.04 -3.37,0.48 -6.88,0.48 -10.05,1.86 7.3,3.05 15.39,2.22 23.1,2.83 7.34,0.09 14.71,-0.38 22,-1.3 2.05,-0.4 4.43,0.48 5.23,2.53 1.01,1.87 -0.25,3.82 -1.27,5.38 -13.81,2.4 -27.95,2.33 -41.86,0.85 -5.32,-0.48 -10.65,-1.56 -15.6,-3.64 -2.66,-1.14 -5.23,-3.59 -5.05,-6.7 0.23,-3.15 2.87,-5.61 5.7,-6.66 M 13.5,41.09 c -1.53,2.62 -2.43,5.85 -1.71,8.85 0.44,1.94 2.75,2.05 4.33,2.41 7.93,0.94 15.84,2.12 23.81,2.63 16.36,0.6 32.81,0.54 49.04,-1.89 3.04,-0.59 7.05,-0.18 8.94,-3.18 0.53,-3.01 0.51,-6.84 -2.18,-8.85 -2.5,-0.73 -5.08,0.32 -7.58,0.6 -20.58,3.04 -41.62,3.67 -62.26,0.8 -4.1,-0.65 -8.2,-2.22 -12.39,-1.37 z"
       id="path3"
       style="fill:#03a9f4;fill-opacity:1" />
    <path
       style="fill:#03a9f4;fill-opacity:1;stroke-width:0.587443"
       d="m 81.199018,7.7457514 c -15.929304,0.433149 -32.578021,0.3623436 -47.46467,6.7464106 -5.63156,2.417196 -6.949221,10.945462 -1.500732,14.339564 11.045957,6.330179 24.331456,6.428522 36.699444,7.509395 13.867932,0.487658 28.043479,0.726902 41.6289,-2.425492 4.7101,-1.976307 2.34109,-10.226849 -2.79838,-9.609046 -17.008005,1.616079 -34.186911,1.495455 -51.236595,0.525064 -3.812327,-0.305248 -7.548648,-1.29318 -10.997892,-2.951706 9.819744,-3.436521 20.506262,-2.984814 30.780964,-3.550839 13.986426,-0.278699 28.216523,0.488531 41.730323,4.270226 4.51166,2.78171 4.01486,9.137565 5.53252,13.637387 -0.003,2.321188 2.39529,6.408528 -0.30175,7.929328 -16.14693,2.60582 -32.640912,2.417287 -48.96409,2.408189 -14.825519,0.09508 -29.509327,-2.024729 -44.157119,-3.972853 -6.909306,-1.202368 -13.36517,4.033677 -14.489167,10.759425 -1.882554,6.899861 -4.009479,15.492621 1.757127,21.212273 5.631964,5.790533 14.537735,4.818345 21.855317,6.415337 26.587524,4.079336 53.587675,2.686886 80.328712,1.386635 2.68709,-0.550099 4.73122,1.653903 3.99621,4.278467 -2.68591,32.417834 -6.45172,64.750084 -9.70314,97.116894 -0.12039,6.97169 -6.58008,11.82144 -13.15549,12.16234 -12.3596,1.18296 -24.901017,1.23909 -37.264927,0.13187 -7.821693,-0.73437 -13.443497,-8.28225 -13.113568,-15.90318 -3.507695,-29.42665 -6.137045,-58.96309 -9.666849,-88.37928 -0.865312,-4.516857 -7.292243,-5.686779 -9.438092,-1.552358 -1.683692,4.82382 0.479375,10.145978 0.452927,15.154098 2.909286,27.66159 5.330562,55.39273 8.868135,82.97749 1.825983,10.73797 12.869409,16.75278 22.929764,17.64163 12.738415,1.03006 25.635387,1.0574 38.36275,-0.10326 11.13629,-2.00878 22.21921,-10.76197 22.4605,-22.83453 4.22159,-33.70076 6.69656,-67.60788 11.04323,-101.285654 0.98763,-3.103265 5.54521,-2.561778 7.80312,-4.371401 5.25928,-2.325086 8.56105,-7.95369 7.47727,-13.699341 -1.13165,-7.243572 -2.01386,-16.874874 -9.99455,-19.890438 -3.08037,-0.953579 -6.32182,-2.822508 -6.25535,-6.515794 -2.02885,-7.113445 -1.17934,-15.936056 -6.85999,-21.445095 C 118.14716,9.5289488 106.23077,9.1199973 95.293052,8.0991348 90.600561,7.8228433 85.899217,7.7230777 81.199018,7.7457514 Z M 30.795988,53.476777 c 10.791706,1.354894 21.484438,3.743523 32.41525,4.000357 22.188917,1.340916 44.392152,-0.609637 66.384102,-3.461102 3.35115,-0.19668 8.2839,-1.400021 9.53905,2.905086 0.74697,3.293842 1.62533,7.798164 -0.77101,10.602649 -5.91496,3.0901 -13.02244,2.613579 -19.48433,3.767845 -30.438774,3.093731 -61.358336,2.376393 -91.543466,-2.660651 -4.629527,-1.154671 -3.162017,-6.776097 -2.593008,-10.190753 0.321803,-2.753278 1.925281,-5.988089 5.286983,-4.981788 l 0.587274,0.01407 z"
       id="path12425"
       transform="matrix(0.75,0,0,0.75,-6.6492108,0.62307692)" />
  </g>
  <g
     id="#ffdd00ff"
     transform="translate(6.6492108,-0.62307692)"
     style="fill:#03a9f4;fill-opacity:1">
    <path
       fill="#ffdd00"
       opacity="1"
       d="m 43.1,79.93 c 9.84,-0.84 18.12,-7.31 27.91,-8.35 3.41,-0.45 6.75,0.57 9.98,1.5 -2.04,20.63 -3.87,41.29 -5.9,61.92 -0.19,3.31 -2.3,6.4 -5.34,7.73 -3.06,1.35 -6.48,1.13 -9.75,1.29 -5.38,0.4 -10.74,-0.3 -16.12,-0.31 -4.55,-0.25 -8.82,-3.89 -9.04,-8.58 -1.86,-18.76 -3.68,-37.52 -5.44,-56.29 4.5,0.91 9.1,1.73 13.7,1.09 z"
       id="path6"
       style="fill:#03a9f4;fill-opacity:1" />
  </g>
</svg>
