
<svg xmlns="http://www.w3.org/2000/svg" version="1.1" xmlns:xlink="http://www.w3.org/1999/xlink" preserveAspectRatio="none" x="0px" y="0px" width="80px" height="80px" viewBox="0 0 80 80">
<defs>
<g id="community_bubble_0_Layer1_0_FILL">
<path fill="#266F95" stroke="none" d="
M 74.85 28.9
Q 74.85 28.8 74.9 28.75 75 17.15 67.85 8.8 60.55 0.4 50.15 0.3
L 25.35 0
Q 14.95 -0.1 7.45 8.1 0.15 16.15 0.05 27.75 0 27.8 0 27.9 -0.1 39.5 7.05 47.8 14.35 56.15 24.75 56.25
L 44.15 56.5
Q 47.85 67.05 63.7 65.4 64.3 65.35 64.7 64.9 65.15 64.45 65.15 63.8 65.2 63.15 64.8 62.7 60.7 57.65 60.9 53.75 64.4 51.85 67.45 48.5 74.7 40.4 74.85 28.9
M 65.3 9.2
Q 66.75 10.7 68.45 13.4 73.95 21.9 73.1 29.9 73.1 30.65 72.75 31.05 72.4 31.5 71.95 33.6
L 71.85 33.15
Q 71.8697265625 33.275 71.85 33.35 72.323828125 35.9720703125 71 39.35 68.25 46.7 61.45 50.85 59.8 51.85 59.45 52.55 59.1 53.2 59.2 54.35 59.3 56.15 60.1 57.65 61.0560546875 59.454296875 61.15 60.4 61.225390625 61.354296875 60.95 62.7 61.082421875 62.8318359375 61.25 62.95 61.0970703125 62.85234375 60.95 62.75 60.9345703125 62.8046875 60.9 62.85 60.6416015625 64.2572265625 60.9 62.8 60.8302734375 62.746875 60.75 62.7 60.4408203125 62.509765625 60.25 63 59.85 64 58 63.8 53.8 63.35 51 61.7 47.5 59.7 46.25 56.3 45.7 54.7 45.2 54.35 44.6 53.9 43.1 53.9
L 37 54.05
Q 27.15 54.25 22.3 53.7 18.3 53.25 15.6 52.05 12.6 50.65 9.8 47.55 6.75 44.2 4.85 39.95 3 35.7 2.45 31.2 1.45 21.8 6 13.6 6.75 12.4 7.3 12.1 7.75 11.85 8.3 12 8.333203125 12.0060546875 8.35 12 8.2935546875 11.6892578125 8.35 11.35 8.4 10.4 9.35 9.25 13 4.65 19.6 3 24.3 1.8 31.7 2 36.23671875 2.1107421875 40.1 2.65 40.1525390625 2.470703125 40.25 2.3 40.65 1.6 41.9 1.8 42.15 1.85 42.85 2.05 43.4 2.2 43.75 2.2 44.05 2.2 45.45 1.85 46.8 1.45 48.7 1.55 53.4 1.75 57.75 3.75 62.1 5.75 65.3 9.2 Z"/>

<path fill="#85BFDD" stroke="none" d="
M 50.15 48.45
Q 49.4 47.65 47.15 47.45
L 29.25 46.3
Q 25.9 46.1 24.1 45.8 21.3 45.35 19.25 44.4 14.65 42.2 11.8 36.9 9.8083984375 33.0478515625 8.6 25.45 7.435546875 17.862890625 7.95 15.4 8.509765625 12.978125 8.45 12.55 8.39921875 12.1720703125 8.35 12 8.333203125 12.0060546875 8.3 12 7.75 11.85 7.3 12.1 6.75 12.4 6 13.6 1.45 21.8 2.45 31.2 3 35.7 4.85 39.95 6.75 44.2 9.8 47.55 12.6 50.65 15.6 52.05 18.3 53.25 22.3 53.7 27.15 54.25 37 54.05
L 43.1 53.9
Q 44.6 53.9 45.2 54.35 45.7 54.7 46.25 56.3 47.5 59.7 51 61.7 53.8 63.35 58 63.8 59.85 64 60.25 63 60.4408203125 62.509765625 60.75 62.7 60.5412109375 62.5396484375 60.45 62.45 59.1486328125 61.7046875 57.5 60.95 55.0060546875 59.8044921875 53 57.3 51.05 54.75 50.85 51.75 50.8 50.15 50.75 50 50.65 49.05 50.15 48.45 Z"/>

<path fill="#B8E7FF" stroke="none" d="
M 59.6 13.2
Q 57.4 11.25 51.9 8.4 48.4 6.55 46 5.8 42.05390625 4.64765625 41.1 4.4 40.1390625 4.161328125 39 3.5 37.9126953125 2.827734375 40.1 2.65 36.23671875 2.1107421875 31.7 2 24.3 1.8 19.6 3 13 4.65 9.35 9.25 8.4 10.4 8.35 11.35 8.2935546875 11.6892578125 8.35 12 8.39921875 12.1720703125 8.45 12.55 8.509765625 12.978125 7.95 15.4 7.435546875 17.862890625 8.6 25.45 9.8083984375 33.0478515625 11.8 36.9 14.65 42.2 19.25 44.4 21.3 45.35 24.1 45.8 25.9 46.1 29.25 46.3
L 47.15 47.45
Q 49.4 47.65 50.15 48.45 50.65 49.05 50.75 50 50.8 50.15 50.85 51.75 51.05 54.75 53 57.3 55.0060546875 59.8044921875 57.5 60.95 59.1486328125 61.7046875 60.45 62.45 60.5412109375 62.5396484375 60.75 62.7 60.8302734375 62.746875 60.9 62.8 60.6416015625 64.2572265625 60.9 62.85 60.9345703125 62.8046875 60.95 62.75 61.0970703125 62.85234375 61.25 62.95 61.082421875 62.8318359375 60.95 62.7 61.225390625 61.354296875 61.15 60.4 61.0560546875 59.454296875 60.1 57.65 59.3 56.15 59.2 54.35 59.1 53.2 59.45 52.55 59.8 51.85 61.45 50.85 68.25 46.7 71 39.35 72.323828125 35.9720703125 71.85 33.35 71.403515625 31.6677734375 71.35 31.6
L 71.3 32.1
Q 70.9412109375 31.1912109375 70.6 30.85 70.15 30.4 69.6 28.65 68.5 24.75 64.6 19.1 61.95 15.25 59.6 13.2 Z"/>

<path fill="#DFF4FF" stroke="none" d="
M 68.45 13.4
Q 66.75 10.7 65.3 9.2 62.1 5.75 57.75 3.75 53.4 1.75 48.7 1.55 46.8 1.45 45.45 1.85 44.05 2.2 43.75 2.2 43.4 2.2 42.85 2.05 42.15 1.85 41.9 1.8 40.65 1.6 40.25 2.3 40.1525390625 2.470703125 40.1 2.65 37.9126953125 2.827734375 39 3.5 40.1390625 4.161328125 41.1 4.4 42.05390625 4.64765625 46 5.8 48.4 6.55 51.9 8.4 57.4 11.25 59.6 13.2 61.95 15.25 64.6 19.1 68.5 24.75 69.6 28.65 70.15 30.4 70.6 30.85 70.9412109375 31.1912109375 71.3 32.1
L 71.35 31.6
Q 71.403515625 31.6677734375 71.85 33.35 71.8697265625 33.275 71.85 33.15
L 71.95 33.6
Q 72.4 31.5 72.75 31.05 73.1 30.65 73.1 29.9 73.95 21.9 68.45 13.4 Z"/>
</g>

<g id="community_bubble_0_Layer0_0_FILL">
<path fill="#266F95" stroke="none" d="
M 74.85 28.9
Q 74.85 28.8 74.9 28.75 75 17.15 67.85 8.8 60.55 0.4 50.15 0.3
L 25.35 0
Q 14.95 -0.1 7.45 8.1 0.15 16.15 0.05 27.75 0 27.8 0 27.9 -0.1 39.5 7.05 47.8 14.35 56.15 24.75 56.25
L 44.15 56.5
Q 47.85 67.05 63.7 65.4 64.3 65.35 64.7 64.9 65.15 64.45 65.15 63.8 65.2 63.15 64.8 62.7 60.7 57.65 60.9 53.75 64.4 51.85 67.45 48.5 74.7 40.4 74.85 28.9
M 64.95 10.7
Q 65.15 10.9 65.3 11 71.6 18.35 71.55 28.6 71.5 28.7 71.5 28.75 71.5 29.9 71.4 31.05 71.45 31.15 71.4 31.3 70.65 39.9 64.95 46.25 62 49.5 58.55 51.2 58.2 51.4 58 51.7 57.75 52.05 57.7 52.4 56.75 56.6 59.95 61.7 60.15 61.95 60.25 62.2 60.3 62.25 60.3 62.3 58.6 62.25 58.1 62.2 57.3 62.15 56.5 62.05 56.15 61.95 55.85 61.9 55.55 61.9 55.25 61.8 54.85 61.75 54.55 61.6 53.5 61.35 52.6 60.95 52.35 60.8 52.15 60.65 50 59.6 48.65 57.75 47.55 56.35 47 54.5 47 54.3 46.9 54.15 46.6 53.5 46 53.25 45.45 53.05 44.95 53.2
L 24.75 52.95
Q 15.85 52.8 9.65 45.6 3.25 38.25 3.35 28.05 3.35 27.95 3.35 27.85 3.4 25.25 3.8 22.85 4.85 17.1 8.2 12.5 9 11.4 9.95 10.35 10.1 10.15 10.3 10 11.15 9.1 11.95 8.35 12.15 8.2 12.3 8.05
L 12.35 8.05
Q 12.35 8 12.4 8 13.35 7.15 14.45 6.45 19.3 3.3 25.3 3.4
L 38.35 3.5 50.1 3.7
Q 53.8 3.7 57.1 5 57.25 5.1 57.45 5.2 60.45 6.4 62.85 8.55
L 64.95 10.7 Z"/>

<path fill="#85BFDD" stroke="none" d="
M 8.2 12.5
Q 4.85 17.1 3.8 22.85 3.4 25.25 3.35 27.85 3.35 27.95 3.35 28.05 3.25 38.25 9.65 45.6 15.85 52.8 24.75 52.95
L 44.95 53.2
Q 45.45 53.05 46 53.25 46.6 53.5 46.9 54.15 47 54.3 47 54.5 47.55 56.35 48.65 57.75 50 59.6 52.15 60.65 52.35 60.8 52.6 60.95 53.5 61.35 54.55 61.6 54.85 61.75 55.25 61.8 55.55 61.9 55.85 61.9 56.15 61.95 56.5 62.05 57.3 62.15 58.1 62.2 58.6 62.25 60.3 62.3 60.3 62.25 60.25 62.2 60.4 62.4 58.1 61.6 55.7 60.75 53.95 59.15 52.1 57.55 51.4 56.5 50.7 55.5 50.2 54.25 49.35 52.15 49.35 50.3 49.35 48.4 46.75 48.5 42.85 48.5 35.85 48.35 24.75 48.1 22.4 47.55 20.05 47 18.2 46.1 16.4 45.4 14.9 44.15 11.95 41.75 9.8 37.35 7.85 33.25 7 28.65 6.25 24.15 6.65 19.5 6.75 17.7 7.15 16.05 7.5 14.2 8.2 12.5 Z"/>

<path fill="#B8E7FF" stroke="none" d="
M 56.9 9.2
Q 47.7 4.75 43.1 4.1 39.0640625 3.530078125 38.35 3.5
L 25.3 3.4
Q 19.3 3.3 14.45 6.45 13.35 7.15 12.4 8 12.35 8 12.35 8.05
L 12.3 8.05
Q 12.15 8.2 11.95 8.35 11.15 9.1 10.3 10 10.1 10.15 9.95 10.35 9 11.4 8.2 12.5 7.5 14.2 7.15 16.05 6.75 17.7 6.65 19.5 6.25 24.15 7 28.65 7.85 33.25 9.8 37.35 11.95 41.75 14.9 44.15 16.4 45.4 18.2 46.1 20.05 47 22.4 47.55 24.75 48.1 35.85 48.35 42.85 48.5 46.75 48.5 49.35 48.4 49.35 50.3 49.35 52.15 50.2 54.25 50.7 55.5 51.4 56.5 52.1 57.55 53.95 59.15 55.7 60.75 58.1 61.6 60.4 62.4 60.25 62.2 60.15 61.95 59.95 61.7 56.75 56.6 57.7 52.4 57.75 52.05 58 51.7 58.2 51.4 58.55 51.2 62 49.5 64.95 46.25 70.65 39.9 71.4 31.3
L 71.4 31.25
Q 66.15 13.6 56.9 9.2
M 65.3 11
Q 65.15 10.9 64.95 10.7 71.9 18.45 71.4 31.05 71.5 29.9 71.5 28.75 71.5 28.7 71.55 28.6 71.6 18.35 65.3 11 Z"/>

<path fill="#DFF4FF" stroke="none" d="
M 64.95 10.7
L 62.85 8.55
Q 60.45 6.4 57.45 5.2 57.25 5.1 57.1 5 53.8 3.7 50.1 3.7
L 38.35 3.5
Q 39.0640625 3.530078125 43.1 4.1 47.7 4.75 56.9 9.2 66.15 13.6 71.4 31.25
L 71.4 31.3
Q 71.45 31.15 71.4 31.05 71.9 18.45 64.95 10.7 Z"/>
</g>

<g id="community_bubble_0_Layer0_1_MEMBER_0_FILL">
<path fill="#266F95" stroke="none" d="
M -178.45 -454.9
Q -177.2 -468.7 -186.25 -479.55 -195.3 -490.4 -209.1 -491.7 -222.9 -492.95 -233.75 -483.9 -244.6 -474.85 -245.9 -461.05 -247.15 -447.25 -238.1 -436.4 -229.05 -425.55 -215.25 -424.3 -201.45 -423 -190.6 -432.05 -179.75 -441.1 -178.45 -454.9 Z"/>
</g>

<g id="community_bubble_0_Layer0_1_MEMBER_1_FILL">
<path fill="#266F95" stroke="none" d="
M -178.45 -454.9
Q -177.2 -468.7 -186.25 -479.55 -195.3 -490.4 -209.1 -491.7 -222.9 -492.95 -233.75 -483.9 -244.6 -474.85 -245.9 -461.05 -247.15 -447.25 -238.1 -436.4 -229.05 -425.55 -215.25 -424.3 -201.45 -423 -190.6 -432.05 -179.75 -441.1 -178.45 -454.9 Z"/>
</g>

<g id="community_bubble_0_Layer0_1_MEMBER_2_FILL">
<path fill="#266F95" stroke="none" d="
M -178.45 -454.9
Q -177.2 -468.7 -186.25 -479.55 -195.3 -490.4 -209.1 -491.7 -222.9 -492.95 -233.75 -483.9 -244.6 -474.85 -245.9 -461.05 -247.15 -447.25 -238.1 -436.4 -229.05 -425.55 -215.25 -424.3 -201.45 -423 -190.6 -432.05 -179.75 -441.1 -178.45 -454.9 Z"/>
</g>
</defs>

<g transform="matrix( 1.02001953125, -0.007476806640625, 0, 1.02001953125, 1.95,7.15) ">
<g transform="matrix( 1, 0, 0, 1, 0,0) ">
<use xlink:href="#community_bubble_0_Layer1_0_FILL"/>
</g>

<g transform="matrix( 1, 0, 0, 1, 0,0) ">
<use xlink:href="#community_bubble_0_Layer0_0_FILL"/>
</g>

<g transform="matrix( 0.1775360107421875, -0.0162353515625, 0.0162353515625, 0.1775360107421875, 62.15,106.15) ">
<use xlink:href="#community_bubble_0_Layer0_1_MEMBER_0_FILL"/>
</g>

<g transform="matrix( 0.1775360107421875, -0.0162353515625, 0.0162353515625, 0.1775360107421875, 82.8,106.25) ">
<use xlink:href="#community_bubble_0_Layer0_1_MEMBER_1_FILL"/>
</g>

<g transform="matrix( 0.1775360107421875, -0.0162353515625, 0.0162353515625, 0.1775360107421875, 103.25,106.25) ">
<use xlink:href="#community_bubble_0_Layer0_1_MEMBER_2_FILL"/>
</g>
</g>
</svg>
