<svg id="Layer_1" data-name="Layer 1" xmlns="http://www.w3.org/2000/svg" width="80" height="80" viewBox="0 0 80 80"><title>quickstock-icon</title><g id="QuickStock_Basic_0_Layer8_0_FILL" data-name="QuickStock Basic 0 Layer8 0 FILL"><path d="M1.7,11.3v-.1a.2708.2708,0,0,1,0,.1m11.4,6.65V18a.7273.7273,0,0,0,.1.4.4892.4892,0,0,0,.1.1l.25.1-.45-.65m-8.85-3.5a.4213.4213,0,0,0,.2.05q-.4848-.2794-.35-.15.0626.0609.1.1a.0717.0717,0,0,0,.05,0M4.1,14.4l.05.05H4.2l-.1-.05m.25-9.15.4-.65q-.1449.0761-.3.15a1.1012,1.1012,0,0,0-.1.5m.8-.8H4.9a.1507.1507,0,0,1-.1.05l.35-.05M8.6,4.3l.35.2L8.9,4.45a.4327.4327,0,0,0-.1-.05q-.126-.0645-.2-.1M27.8,2.35a1.3481,1.3481,0,0,0-.25.1A5.685,5.685,0,0,0,25.1,5.1q.0123.0506,0,.05a5.9543,5.9543,0,0,0-.35,3.5V8.7a.4867.4867,0,0,0,.05.2,4.3335,4.3335,0,0,0,1.3,2.05l-.05-.05a2.652,2.652,0,0,0,.5.4.5689.5689,0,0,0,.25.2.8622.8622,0,0,0,.5.15l7.4,3.3-10.85.25A10.9649,10.9649,0,0,0,17.9,9.35q-.4-.15-.75-.3-8.3-3.9-8.7-4L8.4,5a3.5329,3.5329,0,0,0-3.25.2.0442.0442,0,0,0-.05.05A5.4928,5.4928,0,0,0,2.75,7.8a5.3545,5.3545,0,0,0-.3,3.35v.05A3.9147,3.9147,0,0,0,3.6,13.15a4.7655,4.7655,0,0,0,.6.5l.05.05a.4442.4442,0,0,1,.2.05.288.288,0,0,1,.2.1l9.2,4.1V18a5.2729,5.2729,0,0,1,2.75,3.25,2.3667,2.3667,0,0,0-.25.2.8075.8075,0,0,0-.15.5l-.05.05.7-.15q.0291.0883.05.15l.05-.05v.1l-.75.1.1.3a1.1064,1.1064,0,0,0,.2.2.7411.7411,0,0,0,.5.1.3645.3645,0,0,0,.15-.05l3.5,12.35L16.4,37.5a1.2744,1.2744,0,0,0-.6.65,1.4663,1.4663,0,0,0-.05.85l4.7,17.75a8.8275,8.8275,0,0,0-2.65,3.1,13.3859,13.3859,0,0,0-1.4,7.9,13.0227,13.0227,0,0,0,2.85,7.55q2.75,3.45,6.2,3.1a.3847.3847,0,0,1,.15-.05.4442.4442,0,0,0,.2-.05l4.7-.35a.4442.4442,0,0,0,.2-.05q3.3-.4,5.35-4.1v-.1A11.3655,11.3655,0,0,0,37.1,71l11.3-1.1a11.07,11.07,0,0,0,1.35,2.05q2.55,3.05,5.6,2.8a.4442.4442,0,0,1,.2-.05.29.29,0,0,1,.2-.05l4.1-.3.2-.1a6.2542,6.2542,0,0,0,4.7-3.5.1442.1442,0,0,1,.05-.1,12.6237,12.6237,0,0,0,1.4-7.15q-.016-.1617-.05-.35l6.25-3.5.2-.1.45-.3h.05l4.55-2.65a1.6337,1.6337,0,0,0,.6-.65,1.0728,1.0728,0,0,0,.05-.85,1.5629,1.5629,0,0,0-.55-.7,1.3415,1.3415,0,0,0-.8-.25l-4,.2-8.25-27a1.5225,1.5225,0,0,0-.45-.65,1.1944,1.1944,0,0,0-.8-.3L50.25,26a.5721.5721,0,0,0-.05-.25Q48.375,19.6248,46.4,13.5q.0141-.0125,0-.05Q44.478,8.0014,39.95,6.2a3.4263,3.4263,0,0,0-.65-.3q-.0118.01-.05,0a.2733.2733,0,0,1-.05-.05Q31.9623,2.48,31.35,2.2h0a.5694.5694,0,0,0-.1-.05H31.2a.1786.1786,0,0,0-.05-.05H31.1a3.8314,3.8314,0,0,0-3.3.25M43.1,22.7l.05-.3A17.4519,17.4519,0,0,0,41.2,16l-.35-.4a2.9256,2.9256,0,0,0-.65-.2,5.1875,5.1875,0,0,1-2.1-.45,13.5869,13.5869,0,0,0-1.2-.9q-1.05-.8-1.1-.85a1.8961,1.8961,0,0,1-.4-1.3,5.2621,5.2621,0,0,1,.3-1.4l.35-.8.15-.2a.7525.7525,0,0,1-.15-.35,1.6446,1.6446,0,0,1-.45.3.7977.7977,0,0,1-.35,0,1.5559,1.5559,0,0,1,.15.4v.65l-.15,1.25a1.8994,1.8994,0,0,1-.2.75,1.1789,1.1789,0,0,1-1.05.75,2.8924,2.8924,0,0,1-1.45-.6,19.0409,19.0409,0,0,0-2.15-1.1l-.8-.35L27.25,9.45a2.1956,2.1956,0,0,1-.7-.7,2.3578,2.3578,0,0,1-.2-1.05,3.826,3.826,0,0,1,.15-1.25,1.1471,1.1471,0,0,1,.9-.8.6325.6325,0,0,1,0-.35,1.97,1.97,0,0,1,.6-.85,4.87,4.87,0,0,1,1.15-.65,2.2787,2.2787,0,0,1,1.1.2L36,6.75a1.5568,1.5568,0,0,1,.55.4.98.98,0,0,1,.2.9V8.1A1.2254,1.2254,0,0,1,37,8a4.6909,4.6909,0,0,1,3.25.55A9.9759,9.9759,0,0,1,44.4,13.1,29.45,29.45,0,0,1,46.35,19q1.25,4.75,1.95,6.75a1.9677,1.9677,0,0,1,.15,1.05,1.0361,1.0361,0,0,1-.25.4q.4621.0194.8.05l1.9.25q1.2.15,5.6.4l5.2.2a2.47,2.47,0,0,1,1.2.25,2.3539,2.3539,0,0,1,.65.75,5.8119,5.8119,0,0,1,.55,1.4q.6,1.7,1.05,3.35l.45,2.05q.8,3.3,2.65,9.15l2.5,8a4.7611,4.7611,0,0,1,.3,1.35,1.1878,1.1878,0,0,1-.65,1.2,1.4677,1.4677,0,0,1-.8.1q-.55-.05-.85-.1a7.89,7.89,0,0,0-1.75.2,42.733,42.733,0,0,1-6.9.45q-5.8-.05-7,0a28.28,28.28,0,0,0-4.8.55,3.9733,3.9733,0,0,1-2.1-.1,2.0971,2.0971,0,0,1-.65-.7,2.501,2.501,0,0,1,.1.35,1.7636,1.7636,0,0,1-.3,1,3.9265,3.9265,0,0,1-1.15.75q-2.35,1.2-3,1.55a9.9817,9.9817,0,0,0-2.3,1.55q-.25.25-.75.7a1.3044,1.3044,0,0,1-.95.35,1.2314,1.2314,0,0,1-1-.5,3.7905,3.7905,0,0,1-.65-.95,15.2331,15.2331,0,0,0-2.05-2.95A5.84,5.84,0,0,0,30.45,56a7.163,7.163,0,0,0-1.4-.15A27.41,27.41,0,0,0,24.1,56a2.4413,2.4413,0,0,1-1.6-.1,2.8249,2.8249,0,0,1-1.2-1.95L17.8,40.5a2.1285,2.1285,0,0,1-.05-1.5,2.9238,2.9238,0,0,1,.8-.9l1.9-1.45a1.9694,1.9694,0,0,1,1.8-.6q.55.2.95,1.35a1.0235,1.0235,0,0,1,.05.25q-.0723-.4618-.1-.85a1.4868,1.4868,0,0,1,.1-.95A3.1428,3.1428,0,0,1,24.1,35a36.6408,36.6408,0,0,1,5.25-2.95,1.163,1.163,0,0,1,.7-.15.8577.8577,0,0,1,.4.25,1.7462,1.7462,0,0,1,.05-.4,1.9121,1.9121,0,0,1,.9-.9l.9-.45.3-.25.2-.35a2.8393,2.8393,0,0,1,1.6-1.4,2.3038,2.3038,0,0,1,2.1-.3,2.8037,2.8037,0,0,1,.85,1.3q.4823,1.3.95,3a2.3449,2.3449,0,0,1,.3.65q.9,2.6,1.95,6.15l3.9,14.35a.28.28,0,0,1,0,.1l.7,1.45a.5453.5453,0,0,1,.05.15l-3.05-12.1q-2.65-9.9-4.1-13.95a1.96,1.96,0,0,1-.2-1.45.895.895,0,0,1,.5-.6A1.18,1.18,0,0,1,39.1,27l.6.2a5.5066,5.5066,0,0,0,.85.05l5.1-.1h.9a2.1778,2.1778,0,0,1-.3-.3,2.08,2.08,0,0,1-.25-.3,1.224,1.224,0,0,1-.5.1l-1.6.05a2.2106,2.2106,0,0,1-1.35-.5A3.9175,3.9175,0,0,1,42,25.1a4.5277,4.5277,0,0,1-.15-1.35,1.1484,1.1484,0,0,1,.85-.95.579.579,0,0,0,.4-.1M25.05,20.8a16.4814,16.4814,0,0,1-1.15-2.95q-.2-.75.25-1l.45-.1.55-.25a5.7558,5.7558,0,0,1,1.9-.35l7.45-.25a51.1266,51.1266,0,0,1,5.3.05,2.7686,2.7686,0,0,1,1.1.3,2.0708,2.0708,0,0,1,.85,1.3q.35,1,.9,2.95a1.7568,1.7568,0,0,1,.1,1.4q-.2.45-1.15.55-4.4.65-13.7,1.65a4.5264,4.5264,0,0,1-.95,0,1.8428,1.8428,0,0,1-1.35-1.35q-.35-1.3-.55-1.95m-2.5-5.05a9.8141,9.8141,0,0,1,.75,1.9L26.45,27.7a17.8757,17.8757,0,0,1,.7,2.95,6.8673,6.8673,0,0,1,.2,1.35.84.84,0,0,1-.05.65.7439.7439,0,0,1-.7.6.8166.8166,0,0,1-.85-.35,1.118,1.118,0,0,1-.15-.2.4959.4959,0,0,1-.05.2,2.0067,2.0067,0,0,1-.65.65l-1,.7a2.51,2.51,0,0,1-1,.45,1.251,1.251,0,0,1-1.15-.75,2.6778,2.6778,0,0,1-.45-1.35l-2.05-9.65-2-3.85a6.2537,6.2537,0,0,0-2.05-2.25,7.3283,7.3283,0,0,1-.9-.35,1.3462,1.3462,0,0,1-.75-.55,2.5165,2.5165,0,0,1-.25-1.35q.15-1.1.2-1.35a1.3607,1.3607,0,0,1,.8-1V12.2a.9784.9784,0,0,1-.05-.35.9593.9593,0,0,1,.3-.7,2.5482,2.5482,0,0,1,1.4-.45,2.95,2.95,0,0,1,1.1,0,2.086,2.086,0,0,1,.95.4,11.6843,11.6843,0,0,1,4.1,3.8l.45.85m14.9,9.9a1.1461,1.1461,0,0,0-.9.3l-7.85,4.5q-.7633-2.658-1.55-5.3L39.5,23.8a1.0381,1.0381,0,0,1,0,.15l.55,1.75-2.6-.05m-24.4-13.9a.4442.4442,0,0,1-.2,0,2.7149,2.7149,0,0,1,.3.3.7336.7336,0,0,1,.2.7l-.2.6a6.2028,6.2028,0,0,0-.2,1.5q-.2.95-.85,1.1a1.7343,1.7343,0,0,1-1-.15L5.25,12.85A5.7781,5.7781,0,0,1,4,11.95a2.6141,2.6141,0,0,1-.75-1.35,3.592,3.592,0,0,1,.1-1.4,1.5564,1.5564,0,0,1,.35-.85.8975.8975,0,0,1,.9-.2,2.433,2.433,0,0,1,.25.05.8034.8034,0,0,1-.05-.3,1.19,1.19,0,0,1,.8-1.2,4.3167,4.3167,0,0,1,1.55-.25,6.4166,6.4166,0,0,1,.95.05l1,.35,4.6,2.2a2.0765,2.0765,0,0,1,.65.45,1.295,1.295,0,0,1,.2.8,2.7728,2.7728,0,0,1-.55.65l-.25.35a.9721.9721,0,0,1-.7.45M35.35,61.7l.5,1.75a17.4769,17.4769,0,0,1,.5,5.5,4.6632,4.6632,0,0,1-.3,1.35,10.2057,10.2057,0,0,1-1.15,3.1,5.0088,5.0088,0,0,1-2.4,2.25l-2.1.6a5.293,5.293,0,0,1-1.1.25,1.0825,1.0825,0,0,1-1-.3A1.1424,1.1424,0,0,1,28,75q.0258-.1293.05-.3a4.5278,4.5278,0,0,1-3.95,1.5,3.5857,3.5857,0,0,1-1.45-.5L21.7,75a8.4093,8.4093,0,0,1-1.65-2.05A15.0756,15.0756,0,0,1,18.1,64.9a6.3869,6.3869,0,0,1,.1-1.3l.35-1.25a14.9425,14.9425,0,0,1,1.3-3.05,4.0892,4.0892,0,0,1,1.5-1.45,7.63,7.63,0,0,1,1.45-.45,4.6692,4.6692,0,0,1,2.1-.1,4.48,4.48,0,0,1,1.25.55h0a.87.87,0,0,0,0-.15,1.2719,1.2719,0,0,1,.35-1.05,1.9791,1.9791,0,0,1,1.35-.4A6.9029,6.9029,0,0,1,32.5,57.7a8.5784,8.5784,0,0,1,2.85,4m2.45,1a21.7014,21.7014,0,0,1,3.5-2l4.95-2.45a8.8681,8.8681,0,0,1,1.5-.65,13.6883,13.6883,0,0,1,3.4-.6l13.45-.45.95.15a3.78,3.78,0,0,0,1.25-.15l4.7-.25q.75.1.85.3a.5962.5962,0,0,1-.15.8,3.4164,3.4164,0,0,1-.8.45,12.2158,12.2158,0,0,1-1.75,1,6.3682,6.3682,0,0,1-1.65.4.2119.2119,0,0,1,.05.05q.35.4-.1.85a2.3472,2.3472,0,0,1-.8.5q-3.95,1.7-11.45,5.9a11.5326,11.5326,0,0,1-1.7.8,11.4167,11.4167,0,0,1-2.45.3q-2.7.1-6.8.65-6.25.85-6.75.9a1.4976,1.4976,0,0,1-1.2-.2,1.2747,1.2747,0,0,1-.25-1.15,4.7812,4.7812,0,0,1,.15-1.4,1.1975,1.1975,0,0,1,.3-.65,1.49,1.49,0,0,1-.35-.8,4.0665,4.0665,0,0,1,0-.9,2.858,2.858,0,0,1,1.15-1.4m26.35.15a1.6014,1.6014,0,0,1,1.15.85,2.2531,2.2531,0,0,1,.25,1.4,8.0414,8.0414,0,0,1-.7,2.65,8.6186,8.6186,0,0,1-2.55,3.8,10.8738,10.8738,0,0,1-2.4,1.2,3.8611,3.8611,0,0,1-1.25.3,1.0089,1.0089,0,0,1-1.1-.5,1.0878,1.0878,0,0,1-.2-.65,2.8262,2.8262,0,0,1-1.3.85l-1.1.15a7.4249,7.4249,0,0,1-1.45-.1,4.4312,4.4312,0,0,1-1.5-.85,10.4807,10.4807,0,0,1-1.1-1.35,1.9432,1.9432,0,0,1-.45-.7.9745.9745,0,0,1-.05-.8,1.24,1.24,0,0,1,.8-.65l2.65-.1a7.0165,7.0165,0,0,0,2.15-.5,1.7049,1.7049,0,0,0,.65-.45,2.4792,2.4792,0,0,1,.55-.8,4.3863,4.3863,0,0,1,.65-.3,1.9436,1.9436,0,0,1,1.25,0,.7433.7433,0,0,1,.35.3,1.89,1.89,0,0,1,.35-.85l.7-.75,2.2-1.55a2.8924,2.8924,0,0,1,1.45-.6M24.3,41.2q.1224.5482.2,1,.35,1.5.4,1.65a3.5157,3.5157,0,0,0,.8,1.45q.2915-.2914.6-.65a.8637.8637,0,0,1-.9-.1,1.753,1.753,0,0,1-.55-1Q24.5506,42.1723,24.3,41.2Z"/><path d="M51.2,68.45a1.24,1.24,0,0,0-.8.65.9745.9745,0,0,0,.05.8,1.9432,1.9432,0,0,0,.45.7A10.4807,10.4807,0,0,0,52,71.95a4.4312,4.4312,0,0,0,1.5.85,7.4249,7.4249,0,0,0,1.45.1l1.1-.15a2.8262,2.8262,0,0,0,1.3-.85,1.4515,1.4515,0,0,0,.15-.15,10.8569,10.8569,0,0,0,.9-1.55l.3-.6a4.48,4.48,0,0,0,.55-1.25l.3-1.15a.82.82,0,0,0-.1-.6.7433.7433,0,0,0-.35-.3,1.9436,1.9436,0,0,0-1.25,0,4.3863,4.3863,0,0,0-.65.3,2.4792,2.4792,0,0,0-.55.8,1.7049,1.7049,0,0,1-.65.45,7.0165,7.0165,0,0,1-2.15.5l-2.65.1M24.9,57.3a4.6692,4.6692,0,0,0-2.1.1,7.63,7.63,0,0,0-1.45.45,4.0892,4.0892,0,0,0-1.5,1.45,14.9425,14.9425,0,0,0-1.3,3.05L18.2,63.6a6.3869,6.3869,0,0,0-.1,1.3,15.0756,15.0756,0,0,0,1.95,8.05A8.4093,8.4093,0,0,0,21.7,75l.95.7a3.5857,3.5857,0,0,0,1.45.5,4.5278,4.5278,0,0,0,3.95-1.5.7353.7353,0,0,0,.2-.15,5.4108,5.4108,0,0,0,1.45-3.2q.0078-.1711,0-.35v-.05a6.4914,6.4914,0,0,0,.35-1.3q.1-.95.15-1.4a22.751,22.751,0,0,0-.05-2.5,15.9479,15.9479,0,0,0-.25-1.95h0a1.5505,1.5505,0,0,0-.1-.7,8.2338,8.2338,0,0,0-3.65-5.25h0A4.48,4.48,0,0,0,24.9,57.3Z" fill="#757171"/><path d="M65.3,63.7a1.6014,1.6014,0,0,0-1.15-.85,2.8924,2.8924,0,0,0-1.45.6L60.5,65l-.7.75a1.89,1.89,0,0,0-.35.85.82.82,0,0,1,.1.6l-.3,1.15a4.48,4.48,0,0,1-.55,1.25l-.3.6a10.8569,10.8569,0,0,1-.9,1.55,1.4515,1.4515,0,0,1-.15.15,1.0878,1.0878,0,0,0,.2.65,1.0089,1.0089,0,0,0,1.1.5,3.8611,3.8611,0,0,0,1.25-.3,10.8738,10.8738,0,0,0,2.4-1.2,8.6186,8.6186,0,0,0,2.55-3.8,8.0414,8.0414,0,0,0,.7-2.65,2.2531,2.2531,0,0,0-.25-1.4m-29.45-.25-.5-1.75a8.5784,8.5784,0,0,0-2.85-4,6.9029,6.9029,0,0,0-4.65-1.45,1.9791,1.9791,0,0,0-1.35.4,1.2719,1.2719,0,0,0-.35,1.05.87.87,0,0,1,0,.15A8.2338,8.2338,0,0,1,29.8,63.1a1.5505,1.5505,0,0,1,.1.7h0a15.9479,15.9479,0,0,1,.25,1.95,22.751,22.751,0,0,1,.05,2.5q-.05.45-.15,1.4a6.4914,6.4914,0,0,1-.35,1.3V71q.0078.1789,0,.35a5.4108,5.4108,0,0,1-1.45,3.2.7353.7353,0,0,1-.2.15q-.0242.1707-.05.3a1.1424,1.1424,0,0,0,.3,1.2,1.0825,1.0825,0,0,0,1,.3,5.293,5.293,0,0,0,1.1-.25l2.1-.6a5.0088,5.0088,0,0,0,2.4-2.25,10.2057,10.2057,0,0,0,1.15-3.1,4.6632,4.6632,0,0,0,.3-1.35A17.4769,17.4769,0,0,0,35.85,63.45Z" fill="#999"/><path d="M38.6,65.7q-.1008.0528-.2.1a1.18,1.18,0,0,0-.55-.3.8782.8782,0,0,0-.7.2,1.353,1.353,0,0,0-.15.1,1.1975,1.1975,0,0,0-.3.65,4.7812,4.7812,0,0,0-.15,1.4A1.2747,1.2747,0,0,0,36.8,69a1.4976,1.4976,0,0,0,1.2.2q.5-.05,6.75-.9,4.1-.55,6.8-.65a11.4167,11.4167,0,0,0,2.45-.3,11.5326,11.5326,0,0,0,1.7-.8q7.5-4.2,11.45-5.9a2.3472,2.3472,0,0,0,.8-.5q.45-.45.1-.85a.2119.2119,0,0,0-.05-.05,1.05,1.05,0,0,0-.95-.2l-1.5.3-.25.1q-2.1214.1831-6.15.45a78.5853,78.5853,0,0,0-8.45.95,10.6617,10.6617,0,0,0-2.25.5L38.6,65.7M14.55,12.5a.7519.7519,0,0,1-.25-.3v.05a1.3607,1.3607,0,0,0-.8,1q-.05.25-.2,1.35a2.5165,2.5165,0,0,0,.25,1.35,1.3462,1.3462,0,0,0,.75.55,7.3283,7.3283,0,0,0,.9.35,6.2537,6.2537,0,0,1,2.05,2.25l2,3.85L21.3,32.6a2.6778,2.6778,0,0,0,.45,1.35,1.251,1.251,0,0,0,1.15.75,2.51,2.51,0,0,0,1-.45l1-.7a2.0067,2.0067,0,0,0,.65-.65.4959.4959,0,0,0,.05-.2,3.4314,3.4314,0,0,1-.15-.65q-.25-1.3-1.05-3.9L21.65,19a10.5515,10.5515,0,0,0-1.05-2.75A8.0841,8.0841,0,0,0,17.4,13a2.5678,2.5678,0,0,0-1.55-.5l-.7.1a.819.819,0,0,1-.6-.1m29.9,6.15q-.4-1.5574-.8-2.75-.3257-.7451-.55-1.25a16.1943,16.1943,0,0,0-1-2.1,8.1776,8.1776,0,0,0-2.45-2.1A8.1724,8.1724,0,0,0,38.3,9.7l-.45.15A1.4745,1.4745,0,0,1,36.6,9.8a1.5082,1.5082,0,0,1-.4-.3l-.15.2-.35.8a5.2621,5.2621,0,0,0-.3,1.4,1.8961,1.8961,0,0,0,.4,1.3q.05.05,1.1.85a13.5869,13.5869,0,0,1,1.2.9,5.1875,5.1875,0,0,0,2.1.45,2.9256,2.9256,0,0,1,.65.2l.35.4a17.4519,17.4519,0,0,1,1.95,6.4l-.05.3a.579.579,0,0,1-.4.1,1.1484,1.1484,0,0,0-.85.95A4.5277,4.5277,0,0,0,42,25.1a3.9175,3.9175,0,0,0,.55,1.1,2.2106,2.2106,0,0,0,1.35.5l1.6-.05a1.224,1.224,0,0,0,.5-.1,1.2727,1.2727,0,0,1-.25-1.05l.2-.65a2.7551,2.7551,0,0,0-.1-.9Z" fill="#9cb2da"/><path d="M41.3,60.7a21.7014,21.7014,0,0,0-3.5,2,2.858,2.858,0,0,0-1.15,1.4,4.0665,4.0665,0,0,0,0,.9,1.49,1.49,0,0,0,.35.8,1.353,1.353,0,0,1,.15-.1.8782.8782,0,0,1,.7-.2,1.18,1.18,0,0,1,.55.3q.0992-.0472.2-.1l9.85-4.35a10.6617,10.6617,0,0,1,2.25-.5,78.5853,78.5853,0,0,1,8.45-.95q4.0286-.2668,6.15-.45l.25-.1,1.5-.3a1.05,1.05,0,0,1,.95.2,6.3682,6.3682,0,0,0,1.65-.4,12.2158,12.2158,0,0,0,1.75-1,3.4164,3.4164,0,0,0,.8-.45.5962.5962,0,0,0,.15-.8q-.1-.2-.85-.3l-4.7.25a3.78,3.78,0,0,1-1.25.15l-.95-.15L51.15,57a13.6883,13.6883,0,0,0-3.4.6,8.8681,8.8681,0,0,0-1.5.65L41.3,60.7m-18-43.05a9.8141,9.8141,0,0,0-.75-1.9l-.45-.85A11.6843,11.6843,0,0,0,18,11.1a2.086,2.086,0,0,0-.95-.4,2.95,2.95,0,0,0-1.1,0,2.5482,2.5482,0,0,0-1.4.45.9593.9593,0,0,0-.3.7.9784.9784,0,0,0,.05.35.7519.7519,0,0,0,.25.3.819.819,0,0,0,.6.1l.7-.1a2.5678,2.5678,0,0,1,1.55.5,8.0841,8.0841,0,0,1,3.2,3.25A10.5515,10.5515,0,0,1,21.65,19l2.75,9.15q.8,2.6,1.05,3.9a3.4314,3.4314,0,0,0,.15.65,1.118,1.118,0,0,0,.15.2.8166.8166,0,0,0,.85.35.7439.7439,0,0,0,.7-.6.84.84,0,0,0,.05-.65,6.8673,6.8673,0,0,0-.2-1.35,17.8757,17.8757,0,0,0-.7-2.95L23.3,17.65m.6.2a16.4814,16.4814,0,0,0,1.15,2.95q.2.65.55,1.95a1.8428,1.8428,0,0,0,1.35,1.35,4.5264,4.5264,0,0,0,.95,0q9.3-1,13.7-1.65.95-.1,1.15-.55a1.7568,1.7568,0,0,0-.1-1.4q-.55-1.95-.9-2.95a2.0708,2.0708,0,0,0-.85-1.3,2.7686,2.7686,0,0,0-1.1-.3,51.1266,51.1266,0,0,0-5.3-.05l-7.45.25a5.7558,5.7558,0,0,0-1.9.35l-.55.25-.45.1q-.45.25-.25,1M43.65,15.9q.4,1.1926.8,2.75l1.4,5.3a2.7551,2.7551,0,0,1,.1.9l-.2.65A1.2727,1.2727,0,0,0,46,26.55a2.08,2.08,0,0,0,.25.3,2.1778,2.1778,0,0,0,.3.3q.9659.0129,1.65.05a1.0361,1.0361,0,0,0,.25-.4,1.9677,1.9677,0,0,0-.15-1.05q-.7-2-1.95-6.75a29.45,29.45,0,0,0-1.95-5.9,9.9759,9.9759,0,0,0-4.15-4.55A4.6909,4.6909,0,0,0,37,8a1.2254,1.2254,0,0,0-.25.1,3.2828,3.2828,0,0,1-.45.85,1.3224,1.3224,0,0,1-.25.2.7525.7525,0,0,0,.15.35,1.5082,1.5082,0,0,0,.4.3,1.4745,1.4745,0,0,0,1.25.05l.45-.15a8.1724,8.1724,0,0,1,1.35.75,8.1776,8.1776,0,0,1,2.45,2.1,16.1943,16.1943,0,0,1,1,2.1Q43.3244,15.1549,43.65,15.9Z" fill="#c3d4f6"/><path d="M12.85,11.75a1.8381,1.8381,0,0,0-.4-.15.3978.3978,0,0,0-.1,0l-.05-.05a2.2744,2.2744,0,0,1-.15-.25L7.8,9.6q-.95-.4-1.45-.65-.3628-.2178-.7-.4h0a.2476.2476,0,0,1-.1,0,.4627.4627,0,0,1-.1-.05,3.8077,3.8077,0,0,0-.6-.3,2.433,2.433,0,0,0-.25-.05.8975.8975,0,0,0-.9.2,1.5564,1.5564,0,0,0-.35.85,3.592,3.592,0,0,0-.1,1.4A2.6141,2.6141,0,0,0,4,11.95a5.7781,5.7781,0,0,0,1.25.9L11.1,15.8a1.7343,1.7343,0,0,0,1,.15q.65-.15.85-1.1a6.2028,6.2028,0,0,1,.2-1.5l.2-.6a.7336.7336,0,0,0-.2-.7,2.7149,2.7149,0,0,0-.3-.3M35.4,9.85a1.5559,1.5559,0,0,0-.15-.4.9088.9088,0,0,0-.9-.5H34.3a2.6112,2.6112,0,0,1-.15-.35l-3.7-1.5a8.3849,8.3849,0,0,1-1.3-.6q-.3517-.1876-.65-.35h0a.2275.2275,0,0,1-.05-.05,1.65,1.65,0,0,0-1-.45H27.4a1.1471,1.1471,0,0,0-.9.8,3.826,3.826,0,0,0-.15,1.25,2.3578,2.3578,0,0,0,.2,1.05,2.1956,2.1956,0,0,0,.7.7L29.6,11.2l.8.35a19.0409,19.0409,0,0,1,2.15,1.1,2.8924,2.8924,0,0,0,1.45.6,1.1789,1.1789,0,0,0,1.05-.75,1.8994,1.8994,0,0,0,.2-.75l.15-1.25Z" fill="#992300"/><path d="M12.85,11.75a.4442.4442,0,0,0,.2,0,.9721.9721,0,0,0,.7-.45l.25-.35a2.7728,2.7728,0,0,0,.55-.65,1.295,1.295,0,0,0-.2-.8,2.0765,2.0765,0,0,0-.65-.45L9.1,6.85l-1-.35a6.4166,6.4166,0,0,0-.95-.05A4.3167,4.3167,0,0,0,5.6,6.7a1.19,1.19,0,0,0-.8,1.2.8034.8034,0,0,0,.05.3,3.8077,3.8077,0,0,1,.6.3.4627.4627,0,0,0,.1.05.2476.2476,0,0,0,.1,0h0q.337.1822.7.4.5.25,1.45.65l4.35,1.7a2.2744,2.2744,0,0,0,.15.25l.05.05a.3978.3978,0,0,1,.1,0,1.8381,1.8381,0,0,1,.4.15M36.75,8.1V8.05a.98.98,0,0,0-.2-.9,1.5568,1.5568,0,0,0-.55-.4L30.25,4a2.2787,2.2787,0,0,0-1.1-.2A4.87,4.87,0,0,0,28,4.45a1.97,1.97,0,0,0-.6.85.6325.6325,0,0,0,0,.35h.05a1.65,1.65,0,0,1,1,.45.2275.2275,0,0,0,.05.05h0q.2982.1623.65.35a8.3849,8.3849,0,0,0,1.3.6l3.7,1.5a2.6112,2.6112,0,0,0,.15.35h.05a.9088.9088,0,0,1,.9.5.7977.7977,0,0,0,.35,0,1.6446,1.6446,0,0,0,.45-.3,1.3224,1.3224,0,0,0,.25-.2A3.2828,3.2828,0,0,0,36.75,8.1Z" fill="#cc3305"/><path d="M30.45,32.15a.8577.8577,0,0,0-.4-.25,1.163,1.163,0,0,0-.7.15A36.6408,36.6408,0,0,0,24.1,35a3.1428,3.1428,0,0,0-.85.85,1.4868,1.4868,0,0,0-.1.95q.0278.3881.1.85.5209,1.52.8,2.7l.1.25a.518.518,0,0,1,0,.15.28.28,0,0,1,.05.1l.1.35q.2506.9723.55,2.35a1.753,1.753,0,0,0,.55,1,.8637.8637,0,0,0,.9.1,22.86,22.86,0,0,0,1.55-1.95,7.3608,7.3608,0,0,1,.8-.85,3.1526,3.1526,0,0,1,1.75-.2l2.95.35q-1.4-5.4-2.7-9.2A4.5612,4.5612,0,0,1,30.45,32.15Z" fill="#b49b85"/><path d="M22.25,36.05a1.9694,1.9694,0,0,0-1.8.6l-1.9,1.45a2.9238,2.9238,0,0,0-.8.9,2.1285,2.1285,0,0,0,.05,1.5l3.5,13.45a2.8249,2.8249,0,0,0,1.2,1.95,2.4413,2.4413,0,0,0,1.6.1,27.41,27.41,0,0,1,4.95-.15,7.163,7.163,0,0,1,1.4.15,5.84,5.84,0,0,1,3.05,1.85,15.2331,15.2331,0,0,1,2.05,2.95,3.7905,3.7905,0,0,0,.65.95,1.2314,1.2314,0,0,0,1,.5,1.3044,1.3044,0,0,0,.95-.35q.5-.45.75-.7a9.9817,9.9817,0,0,1,2.3-1.55q.65-.35,3-1.55a3.9265,3.9265,0,0,0,1.15-.75,1.7636,1.7636,0,0,0,.3-1,2.501,2.501,0,0,0-.1-.35q-.1009-.2572-.35-.75a.5453.5453,0,0,0-.05-.15l-.7-1.45a.28.28,0,0,0,0-.1L40.55,39.2q-1.05-3.55-1.95-6.15a2.3449,2.3449,0,0,0-.3-.65q-.4677-1.7-.95-3a2.8037,2.8037,0,0,0-.85-1.3,2.3038,2.3038,0,0,0-2.1.3,2.8393,2.8393,0,0,0-1.6,1.4l-.2.35-.3.25-.9.45a1.9121,1.9121,0,0,0-.9.9,1.7462,1.7462,0,0,0-.05.4,4.5612,4.5612,0,0,0,.2.65q1.3,3.8,2.7,9.2l-2.95-.35a3.1526,3.1526,0,0,0-1.75.2,7.3608,7.3608,0,0,0-.8.85,22.86,22.86,0,0,1-1.55,1.95q-.3086.3587-.6.65a3.5157,3.5157,0,0,1-.8-1.45q-.05-.15-.4-1.65-.0776-.4518-.2-1l-.1-.35a.28.28,0,0,0-.05-.1.518.518,0,0,0,0-.15l-.1-.25q-.2791-1.18-.8-2.7a1.0235,1.0235,0,0,0-.05-.25Q22.8,36.25,22.25,36.05Z" fill="#805632"/><path d="M46.55,27.15h-.9l-5.1.1a5.5066,5.5066,0,0,1-.85-.05l-.6-.2a1.18,1.18,0,0,0-.75.15.895.895,0,0,0-.5.6,1.96,1.96,0,0,0,.2,1.45q1.45,4.05,4.1,13.95l3.05,12.1q.249.4928.35.75a2.0971,2.0971,0,0,0,.65.7,3.9733,3.9733,0,0,0,2.1.1,28.28,28.28,0,0,1,4.8-.55q1.2-.05,7,0A42.733,42.733,0,0,0,67,55.8a7.89,7.89,0,0,1,1.75-.2q.3.05.85.1a1.4677,1.4677,0,0,0,.8-.1,1.1878,1.1878,0,0,0,.65-1.2,4.7611,4.7611,0,0,0-.3-1.35l-2.5-8Q66.4,39.2,65.6,35.9l-.45-2.05Q64.7,32.2,64.1,30.5a5.8119,5.8119,0,0,0-.55-1.4,2.3539,2.3539,0,0,0-.65-.75,2.47,2.47,0,0,0-1.2-.25l-5.2-.2q-4.4-.25-5.6-.4L49,27.25q-.3379-.0306-.8-.05Q47.5158,27.163,46.55,27.15Z" fill="#b07d50"/></g><g id="QuickStock_Basic_0_Layer7_0_FILL" data-name="QuickStock Basic 0 Layer7 0 FILL"><path d="M27.8,2.35a1.3481,1.3481,0,0,0-.25.1A5.685,5.685,0,0,0,25.1,5.1q.0123.0506,0,.05a5.9543,5.9543,0,0,0-.35,3.5V8.7a.4867.4867,0,0,0,.05.2,4.3335,4.3335,0,0,0,1.3,2.05l-.05-.05a2.652,2.652,0,0,0,.5.4.5689.5689,0,0,0,.25.2.8622.8622,0,0,0,.5.15l8.2,3.65a.4411.4411,0,0,0,.15.1,5.7179,5.7179,0,0,1,2.4,3.35l6.3,22.05h.05a2.7946,2.7946,0,0,0,.3.7.67.67,0,0,0,.3.3,4.104,4.104,0,0,0,.6.25q.0518.0137.05,0a1.309,1.309,0,0,0,.9-.05h0l5.75-1.75q.05.0123.05,0a2.0112,2.0112,0,0,0,1-.8.3961.3961,0,0,0,.1-.25,2.211,2.211,0,0,0,.1-1,.44.44,0,0,0-.05-.1q-1.4248-5.7376-3.05-11.45Q48.525,20.0373,46.4,13.5q.0141-.0125,0-.05Q44.478,8.0014,39.95,6.2a3.4263,3.4263,0,0,0-.65-.3q-.0118.01-.05,0a.2733.2733,0,0,1-.05-.05Q31.9623,2.48,31.35,2.2h0a.5694.5694,0,0,0-.1-.05H31.2a.1786.1786,0,0,0-.05-.05H31.1a3.8314,3.8314,0,0,0-3.3.25M50.55,37.8l-1.65.55L46.75,39,40.7,17.9v-.1q-1.4-4-4-4.9h.05l-.4-.15a2.9435,2.9435,0,0,1-.3-.75v.05a2.5629,2.5629,0,0,1-.1-1,3.263,3.263,0,0,1,.35-.95.99.99,0,0,1,.15-.4,3.0008,3.0008,0,0,1,1.1-1.05,1.5552,1.5552,0,0,1,.55-.2.2038.2038,0,0,1,.15.05.2038.2038,0,0,0,.15.05,1.745,1.745,0,0,1,.45.3h.05a8.6429,8.6429,0,0,1,4.9,5.5q2.1,6.55,4,13.1,1.45,5.2,2.75,10.35M35,8.95a.1442.1442,0,0,0-.05.1,1.9419,1.9419,0,0,0-.1.25l-.1.2a4.9482,4.9482,0,0,0-.25.75,3.66,3.66,0,0,0-.15,1.55L28.5,9.2a.1442.1442,0,0,0-.1-.05.3391.3391,0,0,0-.25-.1l-.2-.2a1.156,1.156,0,0,1-.45-.75,3.0992,3.0992,0,0,1-.1-.75,2.8229,2.8229,0,0,1,.35-1.1l-.05.05a1.14,1.14,0,0,1,.25-.45,1.9078,1.9078,0,0,1,.95-.9h-.05a1.6864,1.6864,0,0,1,1.3-.15l-.1-.05q.35.1,6.1,2.85A4.6409,4.6409,0,0,0,35,8.95Z"/><path d="M35,8.95A4.6409,4.6409,0,0,1,36.15,7.6q-5.75-2.75-6.1-2.85l.1.05a1.6864,1.6864,0,0,0-1.3.15h.05a1.9078,1.9078,0,0,0-.95.9q.45.25,1.2.65a8.3849,8.3849,0,0,0,1.3.6Z" fill="#cc3305"/><path d="M34.95,9.05a.1442.1442,0,0,1,.05-.1L30.45,7.1a8.3849,8.3849,0,0,1-1.3-.6q-.75-.4-1.2-.65a1.14,1.14,0,0,0-.25.45l.05-.05a2.8229,2.8229,0,0,0-.35,1.1,3.0992,3.0992,0,0,0,.1.75,1.156,1.156,0,0,0,.45.75l.2.2a.3391.3391,0,0,1,.25.1.1442.1442,0,0,1,.1.05l5.85,2.6a3.66,3.66,0,0,1,.15-1.55,4.9482,4.9482,0,0,1,.25-.75l.1-.2A1.9419,1.9419,0,0,1,34.95,9.05Z" fill="#992300"/><path d="M45.25,23.95q-1.7-5.85-2.1-7.25a13.0037,13.0037,0,0,0-2-3.95,8.39,8.39,0,0,0-2.8-2.15q-.7-.35-1.9-.9a.99.99,0,0,0-.15.4,3.263,3.263,0,0,0-.35.95,2.5629,2.5629,0,0,0,.1,1V12a2.9435,2.9435,0,0,0,.3.75l.4.15H36.7q2.6.9,4,4.9v.1L46.75,39l2.15-.65Q47.15,31.05,45.25,23.95Z" fill="#9cb2da"/><path d="M43.15,16.7q.4,1.4,2.1,7.25,1.9,7.1,3.65,14.4l1.65-.55q-1.3-5.15-2.75-10.35-1.9-6.55-4-13.1a8.6429,8.6429,0,0,0-4.9-5.5h-.05a1.745,1.745,0,0,0-.45-.3.2038.2038,0,0,1-.15-.05.2038.2038,0,0,0-.15-.05,1.5552,1.5552,0,0,0-.55.2,3.0008,3.0008,0,0,0-1.1,1.05q1.2.55,1.9.9a8.39,8.39,0,0,1,2.8,2.15A13.0037,13.0037,0,0,1,43.15,16.7Z" fill="#c3d4f6"/></g><g id="QuickStock_Basic_0_Layer6_0_FILL" data-name="QuickStock Basic 0 Layer6 0 FILL"><path d="M44.8,22.45a.7583.7583,0,0,0-.05-.6l-2.4-6.4a1.2023,1.2023,0,0,0-.35-.5.71.71,0,0,0-.65-.15l-21.7.5a.7393.7393,0,0,0-.65.2.9565.9565,0,0,0-.4.55,1.2494,1.2494,0,0,0,0,.7l2.85,8.1a1.4277,1.4277,0,0,0,.5.6,1.0089,1.0089,0,0,0,.65.2l21.3-2.3a1.18,1.18,0,0,0,.55-.25,1.1453,1.1453,0,0,0,.35-.65m-2.6-1.2L23.25,23.3,21.2,17.45l19.35-.5Z"/><path d="M23.25,23.3,42.2,21.25l-1.65-4.3-19.35.5Z" fill="#c3d4f6"/></g><g id="QuickStock_Basic_0_Layer5_0_FILL" data-name="QuickStock Basic 0 Layer5 0 FILL"><path d="M25.25,16.75a.8089.8089,0,0,0-.05-.2q-2.069-5.95-7.05-7.9-.3615-.15-.7-.3h0Q10.03,4.8792,8.8,4.4a.4828.4828,0,0,0-.1-.1,4.2514,4.2514,0,0,0-3.8.15.8.8,0,0,0-.45.3,6.54,6.54,0,0,0-2.4,2.7q.0119.0505,0,.05a6.0928,6.0928,0,0,0-.35,3.7q-.0013.1011,0,.2a4.6088,4.6088,0,0,0,1.4,2.3l-.05-.05a4.6034,4.6034,0,0,0,.6.5l.05.05a.7811.7811,0,0,0,.45.25h.1a.1291.1291,0,0,0,.1.05l8.95,4a.6825.6825,0,0,0,.25.2q1.68.7035,2.65,3.55a.7376.7376,0,0,0,.1.2L23.1,46.3a1.3393,1.3393,0,0,0,.45.9,1.0524,1.0524,0,0,0,.25.2q.2523.09.5.2c.034.0256.0506.0423.05.05a1.2943,1.2943,0,0,0,1,0L31.7,45.7h0a1.7089,1.7089,0,0,0,1.1-.95h0a1.8143,1.8143,0,0,0,.15-1.35Q31.375,37.1623,29.6,31q-2.016-7.2381-4.35-14.25m-8.2-5.35.05.1a9.1163,9.1163,0,0,1,5.25,6.05q2.35,7.1,4.4,14.25,1.6,5.6,3.05,11.35l-1.85.6-2.3.7L19.1,21.4a.3847.3847,0,0,1-.05-.15q-1.65-4.4-4.3-5.4l-.45-.1a2.1993,2.1993,0,0,1-.35-.75,2.7043,2.7043,0,0,1-.05-1.15,2.8654,2.8654,0,0,1,.3-1v.05q.1-.2.2-.45a2.97,2.97,0,0,1,1.2-1.2q.3-.1.55-.2a.288.288,0,0,1,.2.1.3847.3847,0,0,0,.15.05q.3.1.55.2m-3-1.3a5.4074,5.4074,0,0,0-1.2,1.5.1442.1442,0,0,0-.05.1,1.64,1.64,0,0,0-.2.25l-.1.2v.05a6.3346,6.3346,0,0,0-.25.85,4.32,4.32,0,0,0-.15,1.7L5.7,11.9l-.1-.1a.5374.5374,0,0,0-.3-.1.3218.3218,0,0,0-.15-.2,1.4112,1.4112,0,0,1-.55-.85,6.45,6.45,0,0,1-.05-.8,3.45,3.45,0,0,1,.3-1.15,1.5707,1.5707,0,0,1,.2-.5A2.8913,2.8913,0,0,1,6.2,7.15l-.05.05a1.508,1.508,0,0,1,1.4-.1H7.5Q8.2,7.3,14.05,10.1Z"/><path d="M12.8,11.7a.1442.1442,0,0,1,.05-.1L7.8,9.6q-.95-.4-1.45-.65Q5.6,8.5,5.05,8.2a1.5707,1.5707,0,0,0-.2.5,3.45,3.45,0,0,0-.3,1.15,6.45,6.45,0,0,0,.05.8,1.4112,1.4112,0,0,0,.55.85.3218.3218,0,0,1,.15.2.5374.5374,0,0,1,.3.1l.1.1,6.4,2.85a4.32,4.32,0,0,1,.15-1.7,6.3346,6.3346,0,0,1,.25-.85v-.05l.1-.2A1.64,1.64,0,0,1,12.8,11.7Z" fill="#992300"/><path d="M12.85,11.6a5.4074,5.4074,0,0,1,1.2-1.5Q8.2,7.3,7.5,7.1h.05a1.508,1.508,0,0,0-1.4.1l.05-.05A2.8913,2.8913,0,0,0,5.05,8.2q.55.3,1.3.75.5.25,1.45.65Z" fill="#cc3305"/><path d="M14.4,12.45q-.1.25-.2.45v-.05a2.8654,2.8654,0,0,0-.3,1A2.7043,2.7043,0,0,0,13.95,15a2.1993,2.1993,0,0,0,.35.75l.45.1q2.65,1,4.3,5.4a.3847.3847,0,0,0,.05.15l6.55,23.05,2.3-.7q-1.9-8.1-3.9-15.7-1.9-6.45-2.4-7.95a12.8162,12.8162,0,0,0-2.15-4.35,9.5127,9.5127,0,0,0-3-2.35Q15.7,13,14.4,12.45Z" fill="#9cb2da"/><path d="M17.1,11.5l-.05-.1q-.25-.1-.55-.2a.3847.3847,0,0,1-.15-.05.288.288,0,0,0-.2-.1q-.25.1-.55.2a2.97,2.97,0,0,0-1.2,1.2q1.3.55,2.1.95a9.5127,9.5127,0,0,1,3,2.35,12.8162,12.8162,0,0,1,2.15,4.35q.5,1.5,2.4,7.95,2,7.6,3.9,15.7l1.85-.6Q28.35,37.4,26.75,31.8q-2.05-7.15-4.4-14.25A9.1163,9.1163,0,0,0,17.1,11.5Z" fill="#c3d4f6"/></g><g id="QuickStock_Basic_0_Layer4_0_FILL" data-name="QuickStock Basic 0 Layer4 0 FILL"><path d="M63.5,56.7h.05A7.3991,7.3991,0,0,0,59.5,54h-.15a2.3205,2.3205,0,0,0-.45-.05,1.0091,1.0091,0,0,0-.55.05l-4.1.4a.5571.5571,0,0,0-.25-.05,2.7391,2.7391,0,0,0-1.9.3.6284.6284,0,0,0-.15.1l.1-.1A6.5773,6.5773,0,0,0,48.5,58.1a12.0076,12.0076,0,0,0-1.25,7.1v.05a11.26,11.26,0,0,0,2.5,6.7q2.55,3.05,5.6,2.8a.4442.4442,0,0,1,.2-.05.29.29,0,0,1,.2-.05l4.1-.3.2-.1a6.2542,6.2542,0,0,0,4.7-3.5.1442.1442,0,0,1,.05-.1,12.6237,12.6237,0,0,0,1.4-7.15,12.1861,12.1861,0,0,0-2.7-6.8M59,56.2a5.5483,5.5483,0,0,1,2.8,1.9,10.0412,10.0412,0,0,1,2.15,5.4,9.2594,9.2594,0,0,1-1.1,5.65,4.7669,4.7669,0,0,1-3.4,2.65l-1.1.05a5.6132,5.6132,0,0,0,.9-1.65q.55-1.45.05-1.9l-.45.95q-.45.55-1.15,1.3a3.42,3.42,0,0,1-1.4,1.3l-1.35.35a4.9466,4.9466,0,0,1-3.45-1.95,9.9732,9.9732,0,0,1-2-5.4,10.0834,10.0834,0,0,1,1-5.75A4.36,4.36,0,0,1,54,56.55h.05a.6226.6226,0,0,1,.35,0,3.2455,3.2455,0,0,1,1.5.6,4.4057,4.4057,0,0,1,1.35,1.3A28.5556,28.5556,0,0,1,59.1,61.2a7.641,7.641,0,0,1,.7,1.45,1.1645,1.1645,0,0,0,.2-.3,2.7783,2.7783,0,0,0,0-1.05,1.6618,1.6618,0,0,0-.25-.9,10.9406,10.9406,0,0,0-1-2.35l-.65-.85a5.7248,5.7248,0,0,0-.9-.9l1.3-.15a3.1471,3.1471,0,0,1,.5.05M54.7,61a2.64,2.64,0,0,0-.85-.05,4.242,4.242,0,0,0-1.2.85l-.3.3a3.1979,3.1979,0,0,0-.1.5L52,64v.4l.05.35a4.07,4.07,0,0,0,.55,1.9,2.3827,2.3827,0,0,0,1.15,1.15,3.55,3.55,0,0,0,1,.25h.45a.875.875,0,0,0,.45-.25,2.2717,2.2717,0,0,0,.65-1,2.0924,2.0924,0,0,0,.05-1.35q-.2-.25-.3-.35a.2965.2965,0,0,0-.45.15,1.2036,1.2036,0,0,0-.35.55,2.3009,2.3009,0,0,1-.55.8.5876.5876,0,0,1-.5-.3l-.4-.55a3.7654,3.7654,0,0,1-.4-1.35V64l-.1-.3v-.55a4.0451,4.0451,0,0,1,.15-.7l.35-.4a.955.955,0,0,1,.8-.5.6868.6868,0,0,0,.35-.15.231.231,0,0,0,.15-.25A.7642.7642,0,0,0,54.7,61Z"/><path d="M55.9,57.15a3.2455,3.2455,0,0,0-1.5-.6.6226.6226,0,0,0-.35,0H54a4.36,4.36,0,0,0-3.5,2.55,10.0834,10.0834,0,0,0-1,5.75,9.9732,9.9732,0,0,0,2,5.4,4.9466,4.9466,0,0,0,3.45,1.95l1.35-.35a3.42,3.42,0,0,0,1.4-1.3q.7-.75,1.15-1.3l.45-.95.2-.3v-.05l.2-.55v-.15a8.92,8.92,0,0,0,.2-3.3,5.9056,5.9056,0,0,0-.1-1.15.1442.1442,0,0,1-.05-.1.0442.0442,0,0,1,.05-.05,7.641,7.641,0,0,0-.7-1.45,28.5556,28.5556,0,0,0-1.85-2.75,4.4057,4.4057,0,0,0-1.35-1.3m-2.05,3.8a2.64,2.64,0,0,1,.85.05.7642.7642,0,0,1,.4.15.231.231,0,0,1-.15.25.6868.6868,0,0,1-.35.15.955.955,0,0,0-.8.5l-.35.4a4.0451,4.0451,0,0,0-.15.7v.55l.1.3v.4a3.7654,3.7654,0,0,0,.4,1.35l.4.55a.5876.5876,0,0,0,.5.3,2.3009,2.3009,0,0,0,.55-.8,1.2036,1.2036,0,0,1,.35-.55.2965.2965,0,0,1,.45-.15q.1.1.3.35a2.0924,2.0924,0,0,1-.05,1.35,2.2717,2.2717,0,0,1-.65,1,.875.875,0,0,1-.45.25h-.45a3.55,3.55,0,0,1-1-.25,2.3827,2.3827,0,0,1-1.15-1.15,4.07,4.07,0,0,1-.55-1.9L52,64.4V64l.25-1.4a3.1979,3.1979,0,0,1,.1-.5l.3-.3A4.242,4.242,0,0,1,53.85,60.95Z" fill="#757171"/><path d="M61.8,58.1A5.5483,5.5483,0,0,0,59,56.2a3.1471,3.1471,0,0,0-.5-.05l-1.3.15a5.7248,5.7248,0,0,1,.9.9l.65.85a10.9406,10.9406,0,0,1,1,2.35,1.6618,1.6618,0,0,1,.25.9,2.7783,2.7783,0,0,1,0,1.05,1.1645,1.1645,0,0,1-.2.3.0442.0442,0,0,0-.05.05.1442.1442,0,0,0,.05.1,5.9056,5.9056,0,0,1,.1,1.15,8.92,8.92,0,0,1-.2,3.3v.15l-.2.55V68l-.2.3q.5.45-.05,1.9a5.6132,5.6132,0,0,1-.9,1.65l1.1-.05a4.7669,4.7669,0,0,0,3.4-2.65,9.2594,9.2594,0,0,0,1.1-5.65A10.0412,10.0412,0,0,0,61.8,58.1Z" fill="#999"/></g><g id="QuickStock_Basic_0_Layer3_0_FILL" data-name="QuickStock Basic 0 Layer3 0 FILL"><path d="M47.95,27.9q-3.25-.1-4.85-.1a28.6652,28.6652,0,0,0-4.85.35A26.7346,26.7346,0,0,0,30,31.55q-5.1,3.3-7.75,4.75a22.3224,22.3224,0,0,0-2.35,1.4,4.7323,4.7323,0,0,0-1.7,2q-.7,1.65.1,4.85.5,2.35,1.45,7.1.85,4.15,1.7,7,.6,1.95,1.85,5.8a22.0022,22.0022,0,0,0,1,2.95,4.5677,4.5677,0,0,0,1.85,2.2,4.83,4.83,0,0,0,2.85.5,17.7389,17.7389,0,0,0,3-.7,39.79,39.79,0,0,1,11.05-1.8,13.5933,13.5933,0,0,0,2.4-.15A2.8772,2.8772,0,0,0,47.4,66.1a2.6907,2.6907,0,0,0,2.9.15,18.9491,18.9491,0,0,0,2.6-1.55,24.7517,24.7517,0,0,1,3.75-1.55,43.9575,43.9575,0,0,0,7.85-3.8,16.9361,16.9361,0,0,1,2.15-1.15q.4-.15,1.35-.4a11.1081,11.1081,0,0,0,1.3-.45,3.3127,3.3127,0,0,0,2.05-2.9,8.0335,8.0335,0,0,0-1-3.5,50.9811,50.9811,0,0,1-3.15-8.5Q65.95,36.8,65.1,34l-.45-1.65a7.8555,7.8555,0,0,0-.2-2.1,3.7939,3.7939,0,0,0-3-2.65,13.9806,13.9806,0,0,0-4.15-.15q-6.3.5-9.35.45M27,50.45l4.55-1.1a9.1707,9.1707,0,0,0,1.7-.4,4.0437,4.0437,0,0,0,2.45-2.5q.2-.75.55-.85l3.5,15a41.4014,41.4014,0,0,0-9.7,1.95Z" fill="#805632"/></g><g id="QuickStock_Basic_0_Layer2_0_FILL" data-name="QuickStock Basic 0 Layer2 0 FILL"><path d="M64.25,26.7a1.1944,1.1944,0,0,0-.8-.3l-26-.75a1.1461,1.1461,0,0,0-.9.3L16.4,37.5a1.2744,1.2744,0,0,0-.6.65,1.4663,1.4663,0,0,0-.05.85l8.4,31.75a1.242,1.242,0,0,0,.6.8,1.3273,1.3273,0,0,0,.95.25l22.95-3.65a1.7745,1.7745,0,0,0,.5-.15L72.7,57.35a1.2644,1.2644,0,0,0,.6-.7,1.1823,1.1823,0,0,0,.1-.95L64.7,27.35a1.5225,1.5225,0,0,0-.45-.65M18.65,39.3l3.85-2.25,2.4,8.6a.5142.5142,0,0,0,.3.45,1.3251,1.3251,0,0,0,.65.2.7654.7654,0,0,0,.55-.35l2.9-3.25,4.55.6a.9814.9814,0,0,0,.65-.15,1.2449,1.2449,0,0,0,.35-.45.6328.6328,0,0,0-.05-.55L31.45,31.9,36.6,29,46.8,65.75,26.5,69,18.65,39.3m5.5-3.15,5.8-3.3,2.8,8.45-3.7-.45a1.2279,1.2279,0,0,0-.45.1,1.1645,1.1645,0,0,0-.3.2L26.2,43.6l-2.05-7.45M70.5,55.4,49.3,64.95,39.15,28.35l23.3.7Z"/><path d="M49.3,64.95,70.5,55.4,62.45,29.05l-23.3-.7Z" fill="#b07d50"/><path d="M29.95,32.85l-5.8,3.3L26.2,43.6l2.1-2.45a1.1645,1.1645,0,0,1,.3-.2,1.2279,1.2279,0,0,1,.45-.1l3.7.45Z" fill="#b49b85"/><path d="M22.5,37.05,18.65,39.3,26.5,69l20.3-3.25L36.6,29l-5.15,2.9L34.8,42.15a.6328.6328,0,0,1,.05.55,1.2449,1.2449,0,0,1-.35.45.9814.9814,0,0,1-.65.15l-4.55-.6-2.9,3.25a.7654.7654,0,0,1-.55.35,1.3251,1.3251,0,0,1-.65-.2.5142.5142,0,0,1-.3-.45Z" fill="#805632"/></g><g id="QuickStock_Basic_0_Layer1_0_FILL" data-name="QuickStock Basic 0 Layer1 0 FILL"><path d="M21,69.9a1.5419,1.5419,0,0,0-.6.7,1.0728,1.0728,0,0,0-.05.85,1.06,1.06,0,0,0,.55.75,1.0849,1.0849,0,0,0,.85.25L55.2,69.3a3.878,3.878,0,0,0,.5-.2l16.7-9.45.2-.1.45-.3h.05l4.55-2.65a1.6337,1.6337,0,0,0,.6-.65,1.0728,1.0728,0,0,0,.05-.85,1.5629,1.5629,0,0,0-.55-.7,1.3415,1.3415,0,0,0-.8-.25l-28.7,1.4a1.0491,1.0491,0,0,0-.55.15L21,69.9m10.85-2.8,6.85-3.65V63.4l10-5.2,22.8-1.15-.15.1-.1.1-3.5,1.9L54.65,66.6,28.1,69.2Z"/><path d="M31.85,67.1,28.1,69.2l26.55-2.6,13.1-7.45q-10.7.65-14.05,1T49,60.6L30.95,68.7l.85-1Z" fill="#9cb2da"/><path d="M38.7,63.45,31.85,67.1l-.05.6-.85,1L49,60.6q1.35-.1,4.7-.45t14.05-1l3.5-1.9.1-.1.15-.1L48.7,58.2l-10,5.2Z" fill="#c3d4f6"/></g><g id="QuickStock_Basic_0_Layer0_0_FILL" data-name="QuickStock Basic 0 Layer0 0 FILL"><path d="M34.5,58.3h.05a7.69,7.69,0,0,0-4.5-2.95H29.9q-.3-.05-.55-.1a1.86,1.86,0,0,0-.45.05l-4.6.4a1.1091,1.1091,0,0,1-.35-.05,3.2945,3.2945,0,0,0-2.2.45,7.6116,7.6116,0,0,0-3.95,3.75,13.3859,13.3859,0,0,0-1.4,7.9,13.0227,13.0227,0,0,0,2.85,7.55q2.75,3.45,6.2,3.1a.3847.3847,0,0,1,.15-.05.4442.4442,0,0,0,.2-.05l4.7-.35a.4442.4442,0,0,0,.2-.05q3.3-.4,5.35-4.1v-.1a13.4243,13.4243,0,0,0,1.45-7.8,13.1621,13.1621,0,0,0-3-7.6m-5.55-.65q.2.05.55.1a5.71,5.71,0,0,1,3.2,2.1,10.5307,10.5307,0,0,1,2.35,6.05,10.6642,10.6642,0,0,1-1.2,6.4,5.0871,5.0871,0,0,1-3.8,2.9l-1.2.1q.25-.3.6-.75a11.3767,11.3767,0,0,0,1.25-2.7q.45-1.75-.4-1.75l-.05.15-.1.6v.1L29.3,72.3a16.7652,16.7652,0,0,1-1.2,1.5,3.9481,3.9481,0,0,1-1.65,1.4L25,75.65a5.47,5.47,0,0,1-3.9-2.25,11.2416,11.2416,0,0,1-2.25-6.05A11.5605,11.5605,0,0,1,20,60.95a4.8465,4.8465,0,0,1,3.9-2.85.1442.1442,0,0,1,.1-.05.6226.6226,0,0,1,.35,0,3.6875,3.6875,0,0,1,1.7.65,6.4684,6.4684,0,0,1,1.55,1.6,20.5908,20.5908,0,0,1,2,3q.65,1.1.9,1.6a1.1523,1.1523,0,0,0,.15-.3q.05-.55.05-1.2a6.7989,6.7989,0,0,0-.3-1,15.0836,15.0836,0,0,0-1.1-2.6l-.8-1a9.3449,9.3449,0,0,0-.95-1l1.4-.15M23.7,64.3a1.0469,1.0469,0,0,1,.85-.6.579.579,0,0,0,.4-.1q.25-.1.2-.3a.4807.4807,0,0,0-.4-.3,2.9984,2.9984,0,0,0-1,.05,4.1575,4.1575,0,0,0-1.3.9l-.3.35a1.2649,1.2649,0,0,0-.2.6l-.3,1.55v.45l.05.35a5.45,5.45,0,0,0,.65,2.2,3.1345,3.1345,0,0,0,1.25,1.3,3.8852,3.8852,0,0,0,1.2.3l.4-.05a.895.895,0,0,0,.55-.25,2.252,2.252,0,0,0,.75-1.2,2.4041,2.4041,0,0,0,.05-1.45,3.5236,3.5236,0,0,0-.25-.35.4277.4277,0,0,0-.65.1q-.1.2-.3.65a3.1323,3.1323,0,0,1-.6.8.5208.5208,0,0,1-.6-.25l-.45-.6a4.5181,4.5181,0,0,1-.45-1.55v-.4l-.1-.4.05-.6q.1-.7.1-.75Z"/><path d="M24.35,58.05a.6226.6226,0,0,0-.35,0,.1442.1442,0,0,0-.1.05A4.8465,4.8465,0,0,0,20,60.95a11.5605,11.5605,0,0,0-1.15,6.4A11.2416,11.2416,0,0,0,21.1,73.4,5.47,5.47,0,0,0,25,75.65l1.45-.45a3.9481,3.9481,0,0,0,1.65-1.4,16.7652,16.7652,0,0,0,1.2-1.5l.85-1.35v-.1l.1-.6.05-.15a10.58,10.58,0,0,0,.25-3.75q-.05-.65-.15-1.25-.05-.1,0-.15a.0442.0442,0,0,1,.05-.05h.05q-.25-.5-.9-1.6a20.5908,20.5908,0,0,0-2-3,6.4684,6.4684,0,0,0-1.55-1.6,3.6875,3.6875,0,0,0-1.7-.65m.2,5.65a1.0469,1.0469,0,0,0-.85.6l-.4.45q0,.05-.1.75l-.05.6.1.4v.4a4.5181,4.5181,0,0,0,.45,1.55l.45.6a.5208.5208,0,0,0,.6.25,3.1323,3.1323,0,0,0,.6-.8q.2-.45.3-.65a.4277.4277,0,0,1,.65-.1,3.5236,3.5236,0,0,1,.25.35,2.4041,2.4041,0,0,1-.05,1.45,2.252,2.252,0,0,1-.75,1.2.895.895,0,0,1-.55.25l-.4.05a3.8852,3.8852,0,0,1-1.2-.3,3.1345,3.1345,0,0,1-1.25-1.3,5.45,5.45,0,0,1-.65-2.2l-.05-.35v-.45l.3-1.55a1.2649,1.2649,0,0,1,.2-.6l.3-.35a4.1575,4.1575,0,0,1,1.3-.9,2.9984,2.9984,0,0,1,1-.05.4807.4807,0,0,1,.4.3q.05.2-.2.3A.579.579,0,0,1,24.55,63.7Z" fill="#757171"/><path d="M29.5,57.75q-.35-.05-.55-.1l-1.4.15a9.3449,9.3449,0,0,1,.95,1l.8,1a15.0836,15.0836,0,0,1,1.1,2.6,6.7989,6.7989,0,0,1,.3,1q0,.65-.05,1.2a1.1523,1.1523,0,0,1-.15.3h-.05a.0442.0442,0,0,0-.05.05q-.05.05,0,.15.1.6.15,1.25a10.58,10.58,0,0,1-.25,3.75q.85,0,.4,1.75a11.3767,11.3767,0,0,1-1.25,2.7q-.35.45-.6.75l1.2-.1a5.0871,5.0871,0,0,0,3.8-2.9,10.6642,10.6642,0,0,0,1.2-6.4,10.5307,10.5307,0,0,0-2.35-6.05A5.71,5.71,0,0,0,29.5,57.75Z" fill="#999"/></g></svg>