<svg id="Layer_1" data-name="Layer 1" xmlns="http://www.w3.org/2000/svg" width="80" height="80" viewBox="0 0 80 80"><title>gallery-icon</title><g id="Gallery_Basic_0_Layer1_0_FILL" data-name="Gallery Basic 0 Layer1 0 FILL"><path d="M63.9,3.05h-.05a8.39,8.39,0,0,0-5.2.35,14.2727,14.2727,0,0,0-3.7,2.25,6.39,6.39,0,0,1-2.85,1.2,5.5376,5.5376,0,0,1-2.5-.45q-2.7-1.1-3.05-1.25H46.4a9.92,9.92,0,0,0-5.65.25A9.7478,9.7478,0,0,0,37.2,7.5a5.4038,5.4038,0,0,0-2.8-1.1A8.7137,8.7137,0,0,0,28.7,8q-1.2641.7223-1.95,1.2-.0821.0516-.15.1-1.25.7-2.15,1.1a8.4468,8.4468,0,0,1-2.75.4h-.05a13.2187,13.2187,0,0,1-3.25-.65l.05.05a18.4354,18.4354,0,0,0-3.85-.9q-.41-.0642-.85-.1a11.0418,11.0418,0,0,0-2,0,11.5266,11.5266,0,0,0-2.15.4H9.55A11.0925,11.0925,0,0,0,5.1,12.1H5.05A9.1766,9.1766,0,0,0,2.4,16.7,7.9913,7.9913,0,0,0,2.7,22v.05A21.1741,21.1741,0,0,0,5,25.6a7.2743,7.2743,0,0,1,1.2,2.85A5.9683,5.9683,0,0,1,5.75,31v-.05q-1.15,2.65-1.3,3.2a.1442.1442,0,0,1,.05.1,8.9819,8.9819,0,0,0,.2,5.6A9.2751,9.2751,0,0,0,7,43.45a6.3309,6.3309,0,0,0-.6,1.95A9.5276,9.5276,0,0,0,8,51.15q.9,1.4,1.4,2.2l-.05-.05a9.8711,9.8711,0,0,1,1,1.95V55.2a8.1838,8.1838,0,0,1,.5,2.95v.05a19.6541,19.6541,0,0,1-.65,3.25h.05A18.8958,18.8958,0,0,0,9.3,65.1a11.043,11.043,0,0,0,.3,5.1,11.4777,11.4777,0,0,0,2.5,4.55l.05.05a9.5622,9.5622,0,0,0,4.5,2.6.0442.0442,0,0,1,.05.05,9.1157,9.1157,0,0,0,5.35-.4H22a18.9674,18.9674,0,0,0,3.65-2.3v.1a6.4428,6.4428,0,0,1,2.8-1.3,5.6384,5.6384,0,0,1,2.5.6q2.7,1.05,3.1,1.15a.2038.2038,0,0,0,.15.05,10.5867,10.5867,0,0,0,5.65-.25v-.05a10.8883,10.8883,0,0,0,3.5-2.1A5.5719,5.5719,0,0,0,46.2,74.1v.05a9.8651,9.8651,0,0,0,5.75-1.65v-.05q1.4-.85,2.2-1.35H54.1a8.3444,8.3444,0,0,1,1.95-1l-.05.1a7.0969,7.0969,0,0,1,3-.5h.05a11.7416,11.7416,0,0,1,3.15.6,30.3642,30.3642,0,0,0,3.7.9,11.6624,11.6624,0,0,0,9.6-2.8,9.1857,9.1857,0,0,0,2.65-4.65.0442.0442,0,0,1,.05-.05,8.3,8.3,0,0,0-.4-5.25v.05a18.0685,18.0685,0,0,0-2.2-3.65h.05A6.7609,6.7609,0,0,1,74.35,52a5.5483,5.5483,0,0,1,.6-2.45V49.5q.95-2.8,1.15-3.15V46.3a9.9427,9.9427,0,0,0-.25-5.65l-.05-.05a9.4162,9.4162,0,0,0-2.2-3.55,4.4777,4.4777,0,0,0,.55-2,9.5127,9.5127,0,0,0-1.5-5.7l-.05-.05a20.802,20.802,0,0,1-1.3-2.1h-.05a13.3554,13.3554,0,0,1-1.05-2.05v.1a6.62,6.62,0,0,1-.4-2.9l-.05-.05a12.6141,12.6141,0,0,1,.65-3.2,23.17,23.17,0,0,0,.85-3.7.1442.1442,0,0,1,.05-.1,12.6191,12.6191,0,0,0-.3-5,7.9861,7.9861,0,0,0-.4-1.1,10.1568,10.1568,0,0,0-2.15-3.45,9.2136,9.2136,0,0,0-4.55-2.7m3.2,5.4a13.4186,13.4186,0,0,1,1.25,4.9,37.937,37.937,0,0,1,.2,3.95q0,.3-.6,4.35a10.7,10.7,0,0,0,.05,4.3,15.805,15.805,0,0,0,2,3.85,14.1784,14.1784,0,0,1,1.95,3.85,6.4,6.4,0,0,1-.45,4.65,7.0977,7.0977,0,0,1,3.55,6.1,11.0576,11.0576,0,0,1-.65,3.15q-.2.6-1.25,2.95a6.5228,6.5228,0,0,0-.65,2.55,5.2011,5.2011,0,0,0,.9,2.5q.5.8,1.6,2.3a7.6867,7.6867,0,0,1,1.1,4.3,2.588,2.588,0,0,1-.5,1.7.8421.8421,0,0,1,.15.85,2.6665,2.6665,0,0,1-.6,1.05,8.0051,8.0051,0,0,1-5.7,3.05A20.0864,20.0864,0,0,1,63,67.95a14.3955,14.3955,0,0,0-6.4-.45,12.9658,12.9658,0,0,0-2.95,1.15q-.95.55-2.8,1.6-3.7,1.95-6.15.8a8.2812,8.2812,0,0,0-1.35-.5,2.361,2.361,0,0,0-1.2.25,8.1724,8.1724,0,0,1-1.15.7,8.8249,8.8249,0,0,1-6.35,1q-2.35-.55-3.55-.8a9.0164,9.0164,0,0,0-3.55-.25,9.6126,9.6126,0,0,0-2.75,1,27.2979,27.2979,0,0,1-2.65,1.45,10.4983,10.4983,0,0,1-4.1,1.1A6.2528,6.2528,0,0,1,14,73.75a6.0194,6.0194,0,0,1-2.15-3.1,10.3063,10.3063,0,0,1-.4-3.85A22.6446,22.6446,0,0,1,12.1,63q.85-3.45.9-3.8a9.5345,9.5345,0,0,0,.15-3.7,13.9177,13.9177,0,0,0-1.9-4.1A16.565,16.565,0,0,1,9.1,47.45a4.5583,4.5583,0,0,1,.5-4.3,10.3541,10.3541,0,0,1-2.7-5.3,10.0188,10.0188,0,0,1,.6-5.95A20.5429,20.5429,0,0,0,8.4,30a4.1761,4.1761,0,0,0,.25-2.05,3.2884,3.2884,0,0,0-.8-1.65Q7,25.3,6.6,24.8A9.7382,9.7382,0,0,1,5.25,14.55L7,14.5a.9841.9841,0,0,1,.3-.6,1.8569,1.8569,0,0,1,.25-.15,3.4626,3.4626,0,0,1,.35-.45,5.9129,5.9129,0,0,1,2.6-1.25,14.6174,14.6174,0,0,1,5.55-.25q1.15.2,3.4.75a11.2267,11.2267,0,0,0,3.35.25,16.6058,16.6058,0,0,0,3.85-1.3l5.4-2.45A11.4409,11.4409,0,0,1,33.6,8.5q2.15-.45,4.85,1.6A5.9284,5.9284,0,0,1,41.3,7.55a5.8061,5.8061,0,0,1,3.8-.4,10.9985,10.9985,0,0,1,1.95.7,14.7958,14.7958,0,0,0,1.9.7,6.7627,6.7627,0,0,0,5.1-.4,21.4639,21.4639,0,0,0,3.2-1.9,7.7783,7.7783,0,0,1,5.4-.9,6.5163,6.5163,0,0,1,4.45,3.1m-43,57.8q-.1934.0317-.4.05a10.1764,10.1764,0,0,1-2.05,0,2.8488,2.8488,0,0,1-1.75-1.05l-.05-.05q.1312.7714.25,1.55l4-.5m36.75-52.5q-1.1.05-3.1.35Q37.1,17.2,14.5,19.15a.5851.5851,0,0,0-.5.2.665.665,0,0,0-.05.35,43.4907,43.4907,0,0,0,.7,5.25q.65,3.85.8,5.25,0,.2.3,4.1.25,2.75,1.3,8.3l.5,4.65q.4026,3.66.85,7.25a1.3912,1.3912,0,0,1,.1-.5,1.1107,1.1107,0,0,1,.45-.65.4707.4707,0,0,0,.1-.1.1679.1679,0,0,1-.1-.05,1.63,1.63,0,0,1-.35-.9q-.5-2.7-1.1-8.2L15.05,20.75a1.3783,1.3783,0,0,1,.15-1.05q.2-.3,1.05-.4l35.3-4.05a63.5946,63.5946,0,0,1,8.05-.65,1.7759,1.7759,0,0,1,1.1.25,1.694,1.694,0,0,1,.45,1.1q1,5.95,1.5,11.7.45,5.6.55,6.45a39.0116,39.0116,0,0,0,1.15,6.3,2.4834,2.4834,0,0,1,0,2,.9.9,0,0,1-.45.35l.15.15a2.4324,2.4324,0,0,1,.35,1.2L66,59.4a1.2778,1.2778,0,0,1-.15,1q-.25.35-1.4.35a16.89,16.89,0,0,0-2.85.6,32.7941,32.7941,0,0,1-4.45.9L66.95,61q-.15-2.85-.75-7.55-.75-5.65-.9-7.55-.35-5.25-.55-7.9-.35-4.95-1.55-12.95L61.75,14.6a1.4576,1.4576,0,0,0-.25-.7A1.4332,1.4332,0,0,0,60.85,13.75Z"/><path d="M7,14.5l-1.75.05A9.7382,9.7382,0,0,0,6.6,24.8q.4.5,1.25,1.5a3.2884,3.2884,0,0,1,.8,1.65A4.1761,4.1761,0,0,1,8.4,30a20.5429,20.5429,0,0,1-.9,1.9,10.0188,10.0188,0,0,0-.6,5.95,10.3541,10.3541,0,0,0,2.7,5.3,4.5583,4.5583,0,0,0-.5,4.3,16.565,16.565,0,0,0,2.15,3.95,13.9177,13.9177,0,0,1,1.9,4.1A9.5345,9.5345,0,0,1,13,59.2q-.05.35-.9,3.8a22.6446,22.6446,0,0,0-.65,3.8,10.3063,10.3063,0,0,0,.4,3.85A6.0194,6.0194,0,0,0,14,73.75,6.2528,6.2528,0,0,0,18.05,75a10.4983,10.4983,0,0,0,4.1-1.1,27.2979,27.2979,0,0,0,2.65-1.45,9.6126,9.6126,0,0,1,2.75-1,9.0164,9.0164,0,0,1,3.55.25q1.2.25,3.55.8a8.8249,8.8249,0,0,0,6.35-1,8.1724,8.1724,0,0,0,1.15-.7,2.361,2.361,0,0,1,1.2-.25,8.2812,8.2812,0,0,1,1.35.5q2.45,1.15,6.15-.8,1.85-1.05,2.8-1.6A12.9658,12.9658,0,0,1,56.6,67.5a14.3955,14.3955,0,0,1,6.4.45,20.0864,20.0864,0,0,0,6.45.85,8.0051,8.0051,0,0,0,5.7-3.05,2.6665,2.6665,0,0,0,.6-1.05.8421.8421,0,0,0-.15-.85q-.0715.0775-.15.15a.9988.9988,0,0,1-.4.25.5644.5644,0,0,0-.05-.4q-.3-.45-1.3,0a9.7646,9.7646,0,0,1-2.25.9,7.3094,7.3094,0,0,1-2.85.05q-.1,0-2.85-.6a30.3421,30.3421,0,0,0-4.15-.65q-2.9778.34-6.5.7-1.3941.4563-3.65,1.2a15.67,15.67,0,0,1-5.65.95L44,66.25a4.7859,4.7859,0,0,0-1.8.2,5.4906,5.4906,0,0,0-1.3.75,6.377,6.377,0,0,1-1.2.85,6.4151,6.4151,0,0,1-3.95.45q-2.6-.7-3.9-.95a12.3938,12.3938,0,0,0-6.65.7,31.7338,31.7338,0,0,1-3.65,1.55,4.3316,4.3316,0,0,1-3.85-.35,3.8908,3.8908,0,0,1-1.6-3.3,18.1776,18.1776,0,0,1,.5-3.8,22.9091,22.9091,0,0,0,.35-7.7,11.5822,11.5822,0,0,0-3.3-6.85q-.6-.7-.6-.95a1.2769,1.2769,0,0,1,.25-.8A14.1083,14.1083,0,0,0,14.25,44a3.6585,3.6585,0,0,0,.05-2.15,6.5786,6.5786,0,0,0-1.55-2.25,5.4165,5.4165,0,0,1-1.45-2.3,5.3655,5.3655,0,0,1,.3-2.55,32.292,32.292,0,0,0,1.25-5.5,9.5521,9.5521,0,0,0-.8-5.5,31.9882,31.9882,0,0,0-2-2.85,9.2011,9.2011,0,0,1-1.55-3q-.33-1.32-.45-1.65l.2-.45a5.951,5.951,0,0,1,.05-.9l.1-.45a.6942.6942,0,0,0-.35-.65.8836.8836,0,0,0-.5-.05,1.8569,1.8569,0,0,0-.25.15A.9841.9841,0,0,0,7,14.5Z" fill="#e9ab16"/><path d="M68.35,13.35a13.4186,13.4186,0,0,0-1.25-4.9,6.5163,6.5163,0,0,0-4.45-3.1,7.7783,7.7783,0,0,0-5.4.9,21.4639,21.4639,0,0,1-3.2,1.9,6.7627,6.7627,0,0,1-5.1.4,14.7958,14.7958,0,0,1-1.9-.7,10.9985,10.9985,0,0,0-1.95-.7,5.8061,5.8061,0,0,0-3.8.4,5.9284,5.9284,0,0,0-2.85,2.55q-2.7-2.05-4.85-1.6a11.4409,11.4409,0,0,0-1.55.55l-5.4,2.45a16.6058,16.6058,0,0,1-3.85,1.3,11.2267,11.2267,0,0,1-3.35-.25q-2.25-.55-3.4-.75a14.6174,14.6174,0,0,0-5.55.25A5.9129,5.9129,0,0,0,7.9,13.3a3.4626,3.4626,0,0,0-.35.45.8836.8836,0,0,1,.5.05.6942.6942,0,0,1,.35.65l-.1.45a5.951,5.951,0,0,0-.05.9l-.2.45q.12.33.45,1.65a9.2011,9.2011,0,0,0,1.55,3,31.9882,31.9882,0,0,1,2,2.85,9.5521,9.5521,0,0,1,.8,5.5,32.292,32.292,0,0,1-1.25,5.5,5.3655,5.3655,0,0,0-.3,2.55,5.4165,5.4165,0,0,0,1.45,2.3,6.5786,6.5786,0,0,1,1.55,2.25A3.6585,3.6585,0,0,1,14.25,44a14.1083,14.1083,0,0,1-.95,2.05,1.2769,1.2769,0,0,0-.25.8q0,.25.6.95a11.5822,11.5822,0,0,1,3.3,6.85,22.9091,22.9091,0,0,1-.35,7.7,18.1776,18.1776,0,0,0-.5,3.8,3.8908,3.8908,0,0,0,1.6,3.3,4.3316,4.3316,0,0,0,3.85.35,31.7338,31.7338,0,0,0,3.65-1.55,12.3938,12.3938,0,0,1,6.65-.7q1.3.25,3.9.95a6.4151,6.4151,0,0,0,3.95-.45,6.377,6.377,0,0,0,1.2-.85,5.4906,5.4906,0,0,1,1.3-.75,4.7859,4.7859,0,0,1,1.8-.2l1.8.15a15.67,15.67,0,0,0,5.65-.95q2.2558-.7437,3.65-1.2,3.5223-.36,6.5-.7a30.3421,30.3421,0,0,1,4.15.65q2.75.6,2.85.6a7.3094,7.3094,0,0,0,2.85-.05,9.7646,9.7646,0,0,0,2.25-.9q1-.45,1.3,0a.5644.5644,0,0,1,.05.4.9988.9988,0,0,0,.4-.25q.0785-.0724.15-.15a2.588,2.588,0,0,0,.5-1.7,7.6867,7.6867,0,0,0-1.1-4.3q-1.1-1.5-1.6-2.3a5.2011,5.2011,0,0,1-.9-2.5,6.5228,6.5228,0,0,1,.65-2.55q1.05-2.35,1.25-2.95a11.0576,11.0576,0,0,0,.65-3.15,7.0977,7.0977,0,0,0-3.55-6.1,6.4,6.4,0,0,0,.45-4.65A14.1784,14.1784,0,0,0,70,29.8a15.805,15.805,0,0,1-2-3.85,10.7,10.7,0,0,1-.05-4.3q.6-4.05.6-4.35a37.937,37.937,0,0,0-.2-3.95m-10.6.75q2-.3,3.1-.35a1.4332,1.4332,0,0,1,.65.15,1.4576,1.4576,0,0,1,.25.7L63.2,25.05q1.2,8,1.55,12.95.2,2.65.55,7.9.15,1.9.9,7.55.6,4.7.75,7.55l-9.8,1.25L56,62.4q-2.1222.28-4.2.55-17.23,2.3643-27.7,3.3l-4,.5q-.1188-.7785-.25-1.55a5.1083,5.1083,0,0,1-.4-1.9q-.1036-1.3481-.3-2.95-.02-.1971-.05-.45-.2141-1.5867-.45-3.25a1.383,1.383,0,0,0-.05-.35q-.0361-.3841-.1-.8a4.6819,4.6819,0,0,1-.1-1q-.4474-3.59-.85-7.25l-.5-4.65q-1.05-5.55-1.3-8.3-.3-3.9-.3-4.1-.15-1.4-.8-5.25a43.4907,43.4907,0,0,1-.7-5.25.665.665,0,0,1,.05-.35.5851.5851,0,0,1,.5-.2Q37.1,17.2,57.75,14.1Z" fill="#ffc63e"/><path d="M45.9,46.05q-1.65,1.4-2.45,2.05a12.7029,12.7029,0,0,1-4.4,2.5,7.985,7.985,0,0,1-4.9.15q-1.75-.7-2.6-1a10.0248,10.0248,0,0,0-5.6-.65,7.32,7.32,0,0,0-4.8,2.9,4.2139,4.2139,0,0,1-.9,1.15,1.7688,1.7688,0,0,1-.35.2.4465.4465,0,0,0-.25-.15.8558.8558,0,0,0-.6.05.4707.4707,0,0,1-.1.1,1.1107,1.1107,0,0,0-.45.65,1.3912,1.3912,0,0,0-.1.5,4.6819,4.6819,0,0,0,.1,1q.0639.4158.1.8a1.383,1.383,0,0,1,.05.35q.236,1.6634.45,3.25.03.2529.05.45.1964,1.602.3,2.95a5.1083,5.1083,0,0,0,.4,1.9l.05.05a2.8488,2.8488,0,0,0,1.75,1.05,10.1764,10.1764,0,0,0,2.05,0q.2067-.0183.4-.05,10.47-.9357,27.7-3.3,2.0778-.27,4.2-.55l1.15-.15a32.7941,32.7941,0,0,0,4.45-.9,16.89,16.89,0,0,1,2.85-.6q1.15,0,1.4-.35a1.2778,1.2778,0,0,0,.15-1L64.4,44.1a2.4324,2.4324,0,0,0-.35-1.2l-.15-.15a1.5981,1.5981,0,0,0-.45-.2.5551.5551,0,0,0-.55.2.1115.1115,0,0,1-.05.05,3.6466,3.6466,0,0,1-1.3-.5,24.8647,24.8647,0,0,0-7.1-2.25,4.25,4.25,0,0,0-1.7-.05,1.7434,1.7434,0,0,0-1.4.95.9671.9671,0,0,1,.1,1.05,2.387,2.387,0,0,1-.65,1.05,11.289,11.289,0,0,1-2.45,1.8Q46.7,45.6,45.9,46.05Z" fill="#6c3"/><path d="M60.7,14.85a1.7759,1.7759,0,0,0-1.1-.25,63.5946,63.5946,0,0,0-8.05.65L16.25,19.3q-.85.1-1.05.4a1.3783,1.3783,0,0,0-.15,1.05L17.5,44.1q.6,5.5,1.1,8.2a1.63,1.63,0,0,0,.35.9.1679.1679,0,0,0,.1.05.8558.8558,0,0,1,.6-.05.4465.4465,0,0,1,.25.15,1.7688,1.7688,0,0,0,.35-.2,4.2139,4.2139,0,0,0,.9-1.15,7.32,7.32,0,0,1,4.8-2.9,10.0248,10.0248,0,0,1,5.6.65q.85.3,2.6,1a7.985,7.985,0,0,0,4.9-.15,12.7029,12.7029,0,0,0,4.4-2.5q.8-.65,2.45-2.05.8-.45,2.45-1.2a11.289,11.289,0,0,0,2.45-1.8A2.387,2.387,0,0,0,51.45,42a.9671.9671,0,0,0-.1-1.05,1.7434,1.7434,0,0,1,1.4-.95,4.25,4.25,0,0,1,1.7.05,24.8647,24.8647,0,0,1,7.1,2.25,3.6466,3.6466,0,0,0,1.3.5.1115.1115,0,0,0,.05-.05.5551.5551,0,0,1,.55-.2,1.5981,1.5981,0,0,1,.45.2.9.9,0,0,0,.45-.35,2.4834,2.4834,0,0,0,0-2,39.0116,39.0116,0,0,1-1.15-6.3q-.1-.85-.55-6.45-.5-5.75-1.5-11.7A1.694,1.694,0,0,0,60.7,14.85Z" fill="#4b6de6"/></g><g id="Gallery_Basic_0_Layer0_0_FILL" data-name="Gallery Basic 0 Layer0 0 FILL"><path d="M63.9,3.05h-.05a8.39,8.39,0,0,0-5.2.35,14.2727,14.2727,0,0,0-3.7,2.25,6.39,6.39,0,0,1-2.85,1.2,5.5376,5.5376,0,0,1-2.5-.45q-2.7-1.1-3.05-1.25H46.4a9.92,9.92,0,0,0-5.65.25A9.7478,9.7478,0,0,0,37.2,7.5a5.4038,5.4038,0,0,0-2.8-1.1A8.7137,8.7137,0,0,0,28.7,8q-1.2641.7223-1.95,1.2-.0821.0516-.15.1-1.25.7-2.15,1.1a8.4468,8.4468,0,0,1-2.75.4h-.05a13.2187,13.2187,0,0,1-3.25-.65l.05.05a18.4354,18.4354,0,0,0-3.85-.9q-.41-.0642-.85-.1a11.0418,11.0418,0,0,0-2,0,11.5266,11.5266,0,0,0-2.15.4H9.55A11.0925,11.0925,0,0,0,5.1,12.1H5.05A9.1766,9.1766,0,0,0,2.4,16.7,7.9913,7.9913,0,0,0,2.7,22v.05A21.1741,21.1741,0,0,0,5,25.6a7.2743,7.2743,0,0,1,1.2,2.85A5.9683,5.9683,0,0,1,5.75,31v-.05q-1.15,2.65-1.3,3.2a.1442.1442,0,0,1,.05.1,8.9819,8.9819,0,0,0,.2,5.6A9.2751,9.2751,0,0,0,7,43.45a6.3309,6.3309,0,0,0-.6,1.95A9.5276,9.5276,0,0,0,8,51.15q.9,1.4,1.4,2.2l-.05-.05a9.8711,9.8711,0,0,1,1,1.95V55.2a8.1838,8.1838,0,0,1,.5,2.95v.05a19.6541,19.6541,0,0,1-.65,3.25h.05A18.8958,18.8958,0,0,0,9.3,65.1a11.043,11.043,0,0,0,.3,5.1,11.4777,11.4777,0,0,0,2.5,4.55l.05.05a9.5622,9.5622,0,0,0,4.5,2.6.0442.0442,0,0,1,.05.05,9.1157,9.1157,0,0,0,5.35-.4H22a18.9674,18.9674,0,0,0,3.65-2.3v.1a6.4428,6.4428,0,0,1,2.8-1.3,5.6384,5.6384,0,0,1,2.5.6q2.7,1.05,3.1,1.15a.2038.2038,0,0,0,.15.05,10.5867,10.5867,0,0,0,5.65-.25v-.05a10.8883,10.8883,0,0,0,3.5-2.1A5.5719,5.5719,0,0,0,46.2,74.1v.05a9.8651,9.8651,0,0,0,5.75-1.65v-.05q1.4-.85,2.2-1.35H54.1a8.3444,8.3444,0,0,1,1.95-1l-.05.1a7.0969,7.0969,0,0,1,3-.5h.05a11.7416,11.7416,0,0,1,3.15.6,30.3642,30.3642,0,0,0,3.7.9,11.6624,11.6624,0,0,0,9.6-2.8,9.1857,9.1857,0,0,0,2.65-4.65.0442.0442,0,0,1,.05-.05,8.3,8.3,0,0,0-.4-5.25v.05a18.0685,18.0685,0,0,0-2.2-3.65h.05A6.7609,6.7609,0,0,1,74.35,52a5.5483,5.5483,0,0,1,.6-2.45V49.5q.95-2.8,1.15-3.15V46.3a9.9427,9.9427,0,0,0-.25-5.65l-.05-.05a9.4162,9.4162,0,0,0-2.2-3.55,4.4777,4.4777,0,0,0,.55-2,9.5127,9.5127,0,0,0-1.5-5.7l-.05-.05a20.802,20.802,0,0,1-1.3-2.1h-.05a13.3554,13.3554,0,0,1-1.05-2.05v.1a6.62,6.62,0,0,1-.4-2.9l-.05-.05a12.6141,12.6141,0,0,1,.65-3.2,23.17,23.17,0,0,0,.85-3.7.1442.1442,0,0,1,.05-.1,12.6191,12.6191,0,0,0-.3-5,7.9861,7.9861,0,0,0-.4-1.1,10.1568,10.1568,0,0,0-2.15-3.45,9.2136,9.2136,0,0,0-4.55-2.7M67,9.2a8.5036,8.5036,0,0,1,1.05,5.5,20.6484,20.6484,0,0,1-.75,3.45,18.0714,18.0714,0,0,0-.8,3.6,9.6393,9.6393,0,0,0,1.25,5.85q.3.55,1.5,2.4a12.4092,12.4092,0,0,1,1.3,2.05.7867.7867,0,0,1,.2.3l.2.35a.6519.6519,0,0,1,.05.55l.05.2a9.8223,9.8223,0,0,1,0,1.4V35a.4442.4442,0,0,0-.05.2q-.05.25-.1.55a1.64,1.64,0,0,0-.2.25,3.0684,3.0684,0,0,1-.3.55l-.15.25-.2.45a.58.58,0,0,0-.1.15l.3.2a8.6179,8.6179,0,0,1,1.35,1.35l1.3,1.85a1.665,1.665,0,0,1,.25.75,2.8491,2.8491,0,0,1-.05,1.9,4.879,4.879,0,0,1-.1,1.7,14.1,14.1,0,0,1-.8,2.15q-.6,1.35-.85,2a8.7355,8.7355,0,0,0-.2,3.5,7.8568,7.8568,0,0,0,1.2,3.3,14.2212,14.2212,0,0,1,2.4,3.5A5.1466,5.1466,0,0,1,75,63a5.2378,5.2378,0,0,1-.4,1,6.1679,6.1679,0,0,1-1.4,2,8.016,8.016,0,0,1-6.6,1.95,28.9912,28.9912,0,0,1-3.6-.8,19.11,19.11,0,0,0-3.5-.75,9.8505,9.8505,0,0,0-5.85,1.2q-.55.4-2.35,1.6a20.6325,20.6325,0,0,1-2.45,1.45.1442.1442,0,0,0-.1.05.5374.5374,0,0,0-.3.1,4.8873,4.8873,0,0,1-2.4.1,1.1091,1.1091,0,0,1-.35-.05,2.6612,2.6612,0,0,1-1.25-.65l-1.1-1.1v-.05l-.2.15a4.0231,4.0231,0,0,1-.8.85l-.85.7-.3.2a10.012,10.012,0,0,1-1.45.8,1.8582,1.8582,0,0,1-.95.35l-.6.05a6.5685,6.5685,0,0,1-2.9.05,19,19,0,0,1-2.1-.75q-1.45-.65-2.05-.85a8.1673,8.1673,0,0,0-3.5-.25,7.8568,7.8568,0,0,0-3.3,1.2,13.0879,13.0879,0,0,1-3.5,2.4,4.7355,4.7355,0,0,1-3.4.25,6.6052,6.6052,0,0,1-3-1.8,8.1724,8.1724,0,0,1-1.95-6.6,27.4119,27.4119,0,0,1,.8-3.55,28.8125,28.8125,0,0,0,.75-3.55,9.6421,9.6421,0,0,0-1.2-5.8q-.35-.6-1.55-2.4a14.2623,14.2623,0,0,1-1.45-2.45l-.1-.3a4.5438,4.5438,0,0,1-.2-2.5,2.8448,2.8448,0,0,0,.15-.5,1.64,1.64,0,0,1,.2-.25l.1-.1a1.9432,1.9432,0,0,0,.45-.7,1.3759,1.3759,0,0,0,.4-.35q0-.1.05-.1a14.11,14.11,0,0,1-2.25-3,5.2327,5.2327,0,0,1-.8-1.55,5.68,5.68,0,0,1-.25-3.4,9.5716,9.5716,0,0,1,.75-2.1q.6-1.45.85-2.05a8.1673,8.1673,0,0,0,.25-3.5A7.8508,7.8508,0,0,0,8.2,24.3a13.5481,13.5481,0,0,1-2.4-3.45,4.9443,4.9443,0,0,1-.2-3.4,6.0758,6.0758,0,0,1,1.8-3q.2238-.2107.45-.4a7.9251,7.9251,0,0,1,6.1-1.55,19.3669,19.3669,0,0,1,3.55.8,19.8173,19.8173,0,0,0,3.6.75,10.2645,10.2645,0,0,0,5.8-1.2q.6-.35,2.4-1.6a13.2135,13.2135,0,0,1,2.45-1.4,2.9179,2.9179,0,0,1,1.05-.3,1.1139,1.1139,0,0,1,.4-.15,4.0517,4.0517,0,0,1,1.75-.1l.95.45a16.5952,16.5952,0,0,1,1.85,1.15l.45.5a6.8478,6.8478,0,0,0,.8-.85A6.5,6.5,0,0,1,40.55,9.2q.1227-.0771.25-.15l.35-.35A5.52,5.52,0,0,1,42.8,8a5.8165,5.8165,0,0,1,1.8.1l.2.05a1.3369,1.3369,0,0,1,.5.1,13.7284,13.7284,0,0,1,2.05.8l.35.15q1.1285.4761,1.65.65a7.4825,7.4825,0,0,0,3.55.25,7.9021,7.9021,0,0,0,2.85-.9,4.2388,4.2388,0,0,0,.45-.25,15.2615,15.2615,0,0,1,3.5-2.5,5.1228,5.1228,0,0,1,3.4-.15,6.5517,6.5517,0,0,1,3.05,1.75A7.8856,7.8856,0,0,1,67,9.2m-4.95,4a.9406.9406,0,0,0-.75-.25L14.15,18.3a.9719.9719,0,0,0-.65.35,1.0325,1.0325,0,0,0-.2.75l5.3,47.1a.9132.9132,0,0,0,.4.65.8058.8058,0,0,0,.7.25l47.15-5.35a1.1744,1.1744,0,0,0,.7-.35,1.0325,1.0325,0,0,0,.2-.75l-5.3-47.1a.9132.9132,0,0,0-.4-.65m-1.5,1.9L63.6,42.15,65.65,60.2,20.5,65.3,19.1,53.1,15.4,20.2Z"/><path d="M7.85,14.05q-.2262.1893-.45.4a6.0758,6.0758,0,0,0-1.8,3,4.9443,4.9443,0,0,0,.2,3.4A13.5481,13.5481,0,0,0,8.2,24.3a7.8508,7.8508,0,0,1,1.25,3.35,8.1673,8.1673,0,0,1-.25,3.5q-.25.6-.85,2.05a9.5716,9.5716,0,0,0-.75,2.1,5.68,5.68,0,0,0,.25,3.4,5.2327,5.2327,0,0,0,.8,1.55,14.11,14.11,0,0,0,2.25,3q-.05,0-.05.1a1.3759,1.3759,0,0,1-.4.35,1.9432,1.9432,0,0,1-.45.7l-.1.1a1.64,1.64,0,0,0-.2.25,2.8448,2.8448,0,0,1-.15.5,4.5438,4.5438,0,0,0,.2,2.5l.1.3A14.2623,14.2623,0,0,0,11.3,50.5q1.2,1.8,1.55,2.4a9.6421,9.6421,0,0,1,1.2,5.8,28.8125,28.8125,0,0,1-.75,3.55,27.4119,27.4119,0,0,0-.8,3.55,8.1724,8.1724,0,0,0,1.95,6.6,6.6052,6.6052,0,0,0,3,1.8,4.7355,4.7355,0,0,0,3.4-.25,13.0879,13.0879,0,0,0,3.5-2.4,7.8568,7.8568,0,0,1,3.3-1.2,8.1673,8.1673,0,0,1,3.5.25q.6.2,2.05.85a19,19,0,0,0,2.1.75,6.5685,6.5685,0,0,0,2.9-.05l.6-.05a1.8582,1.8582,0,0,0,.95-.35,10.012,10.012,0,0,0,1.45-.8l.3-.2.85-.7a4.0231,4.0231,0,0,0,.8-.85l.2-.15v.05l1.1,1.1a2.6612,2.6612,0,0,0,1.25.65,1.1091,1.1091,0,0,0,.35.05,4.8873,4.8873,0,0,0,2.4-.1.5374.5374,0,0,1,.3-.1.1442.1442,0,0,1,.1-.05A20.6325,20.6325,0,0,0,51.3,69.2q1.8-1.2,2.35-1.6a9.8505,9.8505,0,0,1,5.85-1.2,19.11,19.11,0,0,1,3.5.75,28.9912,28.9912,0,0,0,3.6.8A8.016,8.016,0,0,0,73.2,66a6.1679,6.1679,0,0,0,1.4-2,7.3446,7.3446,0,0,1-5.05,2.05,19.3291,19.3291,0,0,1-4.3-.9q-5.85-1.7-9.6-.7A12.88,12.88,0,0,0,52.4,65.9q-.5532.3025-2.6,1.55a4.8166,4.8166,0,0,1-4.2.6q-2.1-.6225-2.35-1.2L40,68.75A4.6048,4.6048,0,0,1,37.3,70a4.5713,4.5713,0,0,1-1.75-.5,17.8519,17.8519,0,0,0-6.35-1.2,11.2974,11.2974,0,0,0-6.15,1.9q-.55.4-1.7,1.15a3.4815,3.4815,0,0,1-1.9.55,3.38,3.38,0,0,1-1.9-.75,5.97,5.97,0,0,1-2.75-4.4,8.5814,8.5814,0,0,1,.45-3.1,28.0021,28.0021,0,0,0,1-3.05,11.124,11.124,0,0,0-.05-6,11.42,11.42,0,0,0-3.05-5.2,3.9182,3.9182,0,0,1-1.3-1.75,2.9475,2.9475,0,0,1,.75-2.35,4.9867,4.9867,0,0,0,1.1-2.25,3.8906,3.8906,0,0,0-1.55-2.8A13.8319,13.8319,0,0,1,10.9,39.1a3.1621,3.1621,0,0,1-.85-1.35,3.6031,3.6031,0,0,1,.1-2.2q.15-.5.85-2.1a12.3524,12.3524,0,0,0,1.05-4.9,9.2035,9.2035,0,0,0-1.25-4.8q-.1-.2-2.2-3.1a7.1069,7.1069,0,0,1-1.5-3.3A6.83,6.83,0,0,1,7.85,14.05Z" fill="#e9ab16"/><path d="M68.05,14.7A8.5036,8.5036,0,0,0,67,9.2a7.8856,7.8856,0,0,0-.85-1.15A6.5517,6.5517,0,0,0,63.1,6.3a5.1228,5.1228,0,0,0-3.4.15,15.2615,15.2615,0,0,0-3.5,2.5,4.2388,4.2388,0,0,1-.45.25,7.9021,7.9021,0,0,1-2.85.9,7.4825,7.4825,0,0,1-3.55-.25q-.5216-.1738-1.65-.65l-.35-.15a13.7284,13.7284,0,0,0-2.05-.8,1.3369,1.3369,0,0,0-.5-.1l-.2-.05A5.8165,5.8165,0,0,0,42.8,8a5.52,5.52,0,0,0-1.65.7l-.35.35q-.1273.0729-.25.15A6.5,6.5,0,0,0,39,10.55a6.8478,6.8478,0,0,1-.8.85l-.45-.5A16.5952,16.5952,0,0,0,35.9,9.75l-.95-.45a4.0517,4.0517,0,0,0-1.75.1,1.1139,1.1139,0,0,0-.4.15,2.9179,2.9179,0,0,0-1.05.3,13.2135,13.2135,0,0,0-2.45,1.4q-1.8,1.25-2.4,1.6a10.2645,10.2645,0,0,1-5.8,1.2,19.8173,19.8173,0,0,1-3.6-.75,19.3669,19.3669,0,0,0-3.55-.8,7.9251,7.9251,0,0,0-6.1,1.55,6.83,6.83,0,0,0-.75,3.3,7.1069,7.1069,0,0,0,1.5,3.3q2.1,2.9,2.2,3.1a9.2035,9.2035,0,0,1,1.25,4.8A12.3524,12.3524,0,0,1,11,33.45q-.7,1.6-.85,2.1a3.6031,3.6031,0,0,0-.1,2.2,3.1621,3.1621,0,0,0,.85,1.35,13.8319,13.8319,0,0,0,1.25,1.15,3.8906,3.8906,0,0,1,1.55,2.8,4.9867,4.9867,0,0,1-1.1,2.25,2.9475,2.9475,0,0,0-.75,2.35,3.9182,3.9182,0,0,0,1.3,1.75,11.42,11.42,0,0,1,3.05,5.2,11.124,11.124,0,0,1,.05,6,28.0021,28.0021,0,0,1-1,3.05,8.5814,8.5814,0,0,0-.45,3.1,5.97,5.97,0,0,0,2.75,4.4,3.38,3.38,0,0,0,1.9.75,3.4815,3.4815,0,0,0,1.9-.55q1.15-.75,1.7-1.15a11.2974,11.2974,0,0,1,6.15-1.9,17.8519,17.8519,0,0,1,6.35,1.2,4.5713,4.5713,0,0,0,1.75.5A4.6048,4.6048,0,0,0,40,68.75l3.25-1.9q.25.5775,2.35,1.2a4.8166,4.8166,0,0,0,4.2-.6q2.0469-1.2474,2.6-1.55a12.88,12.88,0,0,1,3.25-1.45q3.75-1,9.6.7a19.3291,19.3291,0,0,0,4.3.9A7.3446,7.3446,0,0,0,74.6,64a5.2378,5.2378,0,0,0,.4-1,5.1466,5.1466,0,0,0-.25-3.4,14.2212,14.2212,0,0,0-2.4-3.5,7.8568,7.8568,0,0,1-1.2-3.3,8.7355,8.7355,0,0,1,.2-3.5q.25-.65.85-2a14.1,14.1,0,0,0,.8-2.15,4.879,4.879,0,0,0,.1-1.7,2.8491,2.8491,0,0,0,.05-1.9,1.665,1.665,0,0,0-.25-.75l-1.3-1.85a8.6179,8.6179,0,0,0-1.35-1.35l-.3-.2a.58.58,0,0,1,.1-.15l.2-.45.15-.25a3.0684,3.0684,0,0,0,.3-.55,1.64,1.64,0,0,1,.2-.25q.05-.3.1-.55a.4442.4442,0,0,1,.05-.2v-.15a9.8223,9.8223,0,0,0,0-1.4l-.05-.2a.6519.6519,0,0,0-.05-.55l-.2-.35a.7867.7867,0,0,0-.2-.3A12.4092,12.4092,0,0,0,69.25,30q-1.2-1.85-1.5-2.4a9.6393,9.6393,0,0,1-1.25-5.85,18.0714,18.0714,0,0,1,.8-3.6,20.6484,20.6484,0,0,0,.75-3.45M61.3,12.95a.9406.9406,0,0,1,.75.25.9132.9132,0,0,1,.4.65l5.3,47.1a1.0325,1.0325,0,0,1-.2.75,1.1744,1.1744,0,0,1-.7.35L19.7,67.4a.8058.8058,0,0,1-.7-.25.9132.9132,0,0,1-.4-.65L13.3,19.4a1.0325,1.0325,0,0,1,.2-.75.9719.9719,0,0,1,.65-.35Z" fill="#ffc63e"/><path d="M61.15,40.85Q56.25,38.4,52.5,39q-.65.15-1.4.4a5.2515,5.2515,0,0,0-.8.5,22.2674,22.2674,0,0,0-4.7,4.35,25.6931,25.6931,0,0,1-4.45,4.6,7.2638,7.2638,0,0,1-6.1,1.55,10.44,10.44,0,0,1-2.15-.75q-1.6-.75-2.1-.95a7.6509,7.6509,0,0,0-5.5.15,8.3358,8.3358,0,0,0-.8.35,28.9912,28.9912,0,0,0-5.4,3.9l1.4,12.2,45.15-5.1L63.6,42.15Q61.9,41.2,61.15,40.85Z" fill="#6c3"/><path d="M52.5,39q3.75-.6,8.65,1.85.75.35,2.45,1.3L60.55,15.1,15.4,20.2l3.7,32.9a28.9912,28.9912,0,0,1,5.4-3.9,8.3358,8.3358,0,0,1,.8-.35,7.6509,7.6509,0,0,1,5.5-.15q.5.2,2.1.95a10.44,10.44,0,0,0,2.15.75,7.2638,7.2638,0,0,0,6.1-1.55,25.6931,25.6931,0,0,0,4.45-4.6,22.2674,22.2674,0,0,1,4.7-4.35,5.2515,5.2515,0,0,1,.8-.5q.75-.25,1.4-.4m-8.1-7.35a5.1983,5.1983,0,0,1-.25,1.25,2.6923,2.6923,0,0,1-1.95,2.15q-.8.25-1.55.5a8.76,8.76,0,0,0-1.3-.2A7.4939,7.4939,0,0,1,33.75,38a10.3234,10.3234,0,0,1-7-1.7,6.4562,6.4562,0,0,1-3.2-.1,2.727,2.727,0,0,1-1.9-1.75,2.6843,2.6843,0,0,1,.25-2.1l1.2-.85a4.6891,4.6891,0,0,1,.55-3.3,8.8559,8.8559,0,0,1,6.45-4.85,22.14,22.14,0,0,1,3.6-.2,5.4487,5.4487,0,0,1,3.6,1.75,3.5206,3.5206,0,0,1,1,1.9,4.3677,4.3677,0,0,1,.1.95,6.7583,6.7583,0,0,1,4.95,1.1,2.4256,2.4256,0,0,1,.8,1A4.6263,4.6263,0,0,1,44.4,31.65Z" fill="#4b6de6"/><path d="M44.15,32.9a5.1983,5.1983,0,0,0,.25-1.25,4.6263,4.6263,0,0,0-.25-1.8,2.4256,2.4256,0,0,0-.8-1,6.7583,6.7583,0,0,0-4.95-1.1,4.3677,4.3677,0,0,0-.1-.95,3.5206,3.5206,0,0,0-1-1.9,5.4487,5.4487,0,0,0-3.6-1.75,22.14,22.14,0,0,0-3.6.2,8.8559,8.8559,0,0,0-6.45,4.85,4.6891,4.6891,0,0,0-.55,3.3l-1.2.85a2.6843,2.6843,0,0,0-.25,2.1,2.727,2.727,0,0,0,1.9,1.75,6.4562,6.4562,0,0,0,3.2.1,10.3234,10.3234,0,0,0,7,1.7,7.4939,7.4939,0,0,0,5.6-2.65,8.76,8.76,0,0,1,1.3.2q.75-.25,1.55-.5A2.6923,2.6923,0,0,0,44.15,32.9Z" fill="#b9ccf0"/></g></svg>