<svg id="Layer_1" data-name="Layer 1" xmlns="http://www.w3.org/2000/svg" width="80" height="80" viewBox="0 0 80 80"><title>myalbum-icon</title><g id="MyAlbum_basic_0_Layer3_0_FILL" data-name="MyAlbum basic 0 Layer3 0 FILL"><path d="M57.5,9a2.0377,2.0377,0,0,0-.1-.2,7.7343,7.7343,0,0,0-8.1-3.65q-17.2611,2.6736-35.8,6.5a2.0842,2.0842,0,0,1-.25.1,11.5175,11.5175,0,0,0-6.4,5.55h0A11.916,11.916,0,0,0,5.7,21.45q-.0038.077,0,.15a.4034.4034,0,0,1-.05.15,1.4531,1.4531,0,0,0,.25,1.1v.05l-.7.55A13.4866,13.4866,0,0,0,2.95,26.5q-.45.9-.8,1.7a12.6888,12.6888,0,0,0-.6,2.25q-.15,1.15-.2,1.45a5.3586,5.3586,0,0,0,.05,1.2l.2,1.3a18.9227,18.9227,0,0,0,1.15,3.05q.25.4.45.8A8.4491,8.4491,0,0,0,6.4,40.9a12.6906,12.6906,0,0,0,1.4.5,2.1936,2.1936,0,0,0-.1.2,12.6888,12.6888,0,0,0-.6,2.25Q6.95,45,6.9,45.3a5.3586,5.3586,0,0,0,.05,1.2l.2,1.3A18.9227,18.9227,0,0,0,8.3,50.85q.25.4.45.8a8.4491,8.4491,0,0,0,3.2,2.65,14.28,14.28,0,0,0,1.75.6q.106.0309.2.05a.8918.8918,0,0,1-.05.15,12.6888,12.6888,0,0,0-.6,2.25q-.15,1.15-.2,1.45A5.3586,5.3586,0,0,0,13.1,60l.2,1.3a18.9227,18.9227,0,0,0,1.15,3.05q.25.4.45.8a8.4491,8.4491,0,0,0,3.2,2.65,14.28,14.28,0,0,0,1.75.6,7.6092,7.6092,0,0,0,2.45.3,3.301,3.301,0,0,0,1.1-.1l.45,1.1a2.6435,2.6435,0,0,0,.2.35q2.9535,4.0958,8.95,3.8a.2821.2821,0,0,0,.15-.05L74.8,67.65a.5186.5186,0,0,0,.2,0,4.7967,4.7967,0,0,0,3.35-2.45,4.3681,4.3681,0,0,0-.1-4.1.0557.0557,0,0,0,0-.05l-3.75-7.9a4.2734,4.2734,0,0,0,1.85-5.45.5679.5679,0,0,0-.05-.2L57.5,9m3.3,11.15q.55,1.2,2.4,4.45,1.6,2.9,4.75,10.25A88.5574,88.5574,0,0,0,72.9,45a2.9168,2.9168,0,0,1,.6,2.1h0a2.3028,2.3028,0,0,1,1.85.85,2.0344,2.0344,0,0,1,.05,2.25,4.1092,4.1092,0,0,1-1.7,1.55,17.2157,17.2157,0,0,1-6.25,1.55l-7.1.85q-9.4,1.3-24.2,3.85a28.1162,28.1162,0,0,0-3.4.75,5.1831,5.1831,0,0,0-3.3,2.45,5.0635,5.0635,0,0,0-.35,2.85,4.881,4.881,0,0,0,1.1,2.8Q31.45,68.1,34.3,68a35.1331,35.1331,0,0,0,4.1-.4q2.8-.4,10.85-1.9,6.8-1.25,10.9-1.75,1.75-.25,5.25-.7,1.55-.25,5.05-1.2a10.4233,10.4233,0,0,1,.8-6.7q.6-1.25,1.35-1.3.95-.05,1.7,1.6l2.3,5.3a4.7336,4.7336,0,0,1,.55,2.15,2.9488,2.9488,0,0,1-1.55,2.45,10.0606,10.0606,0,0,1-4.25,1.25L34.6,71.85q-2.25.25-3.25.25a7.0939,7.0939,0,0,1-3.1-.7,9.002,9.002,0,0,1-3.8-4.75q-.7-1.95-1.1-2.95A13.7486,13.7486,0,0,0,22,60.9a5.8081,5.8081,0,0,1-1.05-2.15q-.2-1.4,1.6-2.9a12.1077,12.1077,0,0,1,2.1-1.45,3.6615,3.6615,0,0,1-1.1.15,1.4007,1.4007,0,0,1-.7-.35,9.4981,9.4981,0,0,0-2.25,2.35,6.2065,6.2065,0,0,0-1.1,2.2,3.3169,3.3169,0,0,0,.35,2.4,7.46,7.46,0,0,0,1.4,1.55,13.0588,13.0588,0,0,1,1.35,2.15q.55,1.4.1,2a1.1308,1.1308,0,0,1-1.15.45,3.0691,3.0691,0,0,1-1.2-.4,12.399,12.399,0,0,1-4.15-4.1,7.4523,7.4523,0,0,1-.85-1.6A9.971,9.971,0,0,1,15,58a2.59,2.59,0,0,1,.35-1.55,2.0691,2.0691,0,0,1,.4-.4,5.2623,5.2623,0,0,1,.55-1.2,16.8354,16.8354,0,0,1,1.15-1.95,9.1627,9.1627,0,0,1,1.8-1.8,15.8708,15.8708,0,0,1,2.55-1.65,12.7634,12.7634,0,0,1,4.15-1.2q-.1908-.0267-.4-.05a4.655,4.655,0,0,0-2.75.15,7.7561,7.7561,0,0,0-.7.5,2.4,2.4,0,0,1-.75.5L20,49.7a10.3735,10.3735,0,0,1-1.3.55,1.5533,1.5533,0,0,1-1.6-1.1,17.6767,17.6767,0,0,0-.7-1.9q-.55-.85-.8-1.3a3.5679,3.5679,0,0,1-.5-1.4,3.1092,3.1092,0,0,1,1.1-2.3A7.934,7.934,0,0,1,20.5,40q1.85-.25,2.2-.35a2.5153,2.5153,0,0,0,1.75-1.3,2.48,2.48,0,0,0-.35-2.25,2.9073,2.9073,0,0,0-.2-.25,2.5085,2.5085,0,0,1,.35,1.65A1.9818,1.9818,0,0,1,23,39.25q-.2.05-1.55.2-3.5.2-6.45,4.1a5.567,5.567,0,0,0-1.3,2.75,11.0083,11.0083,0,0,0,.35,2.3.6024.6024,0,0,1,.85-.1,1.7544,1.7544,0,0,1,.7.6,9.413,9.413,0,0,1,.9,1.3,1.9047,1.9047,0,0,1,.45,1.7q-.25,1-1.55,1a3.9012,3.9012,0,0,1-1.9-.65,9.5973,9.5973,0,0,1-3.15-2.7A7.34,7.34,0,0,1,9.2,44.5a8.6231,8.6231,0,0,1,2.2-5.05,15.9391,15.9391,0,0,1,1.5-1.4,17.5147,17.5147,0,0,1,3.4-2.45q.55-.25,3.05-1a11.53,11.53,0,0,1,1.9-.25,4.61,4.61,0,0,0-.8-.1,7.1988,7.1988,0,0,0-4,1.05,9.8452,9.8452,0,0,1-1.85.9,2.3234,2.3234,0,0,1-2,0,2.8783,2.8783,0,0,1-1.35-1.75,17.6493,17.6493,0,0,0-.7-2.1A4.8048,4.8048,0,0,1,9.9,30.4a2.9429,2.9429,0,0,1,.85-1.2,12.9362,12.9362,0,0,1,3-2.2q.2-.1,2.4-.7a5.2051,5.2051,0,0,0,2.2-1.15,1.7028,1.7028,0,0,0,.6-1.85.7968.7968,0,0,0-.1-.2,1.7509,1.7509,0,0,1-.15.75,3.7109,3.7109,0,0,1-1.8,1.55,1.5722,1.5722,0,0,1-1,.35l-.9-.3a2.29,2.29,0,0,0-1.1.25,8.6756,8.6756,0,0,0-3.95,3.25,7.467,7.467,0,0,0-1.4,4.85,1.62,1.62,0,0,0,.3.85,2.9553,2.9553,0,0,0,.95.5,2.09,2.09,0,0,1,1.25,2.2,2.3693,2.3693,0,0,1-.5,1.25,2.2551,2.2551,0,0,1-1.1.75,3.42,3.42,0,0,1-1.8-.1A5.7582,5.7582,0,0,1,5.55,38a6.9493,6.9493,0,0,1-2-5.75A11.3588,11.3588,0,0,1,5.8,26.5a14.184,14.184,0,0,1,7.45-5.75A6.3382,6.3382,0,0,0,10,21.6q-.75.4-.85.45a1.2266,1.2266,0,0,1-.9.05.9932.9932,0,0,1-.6-.85,2.98,2.98,0,0,1,.15-1.2,10.3261,10.3261,0,0,1,5.45-6.2q1.2-.55,1.75-.1a.1726.1726,0,0,1,.05.05,2.6259,2.6259,0,0,1,1.05-.55q4.5-1.4,15.55-3.55l4.5-.8A125.9111,125.9111,0,0,1,48.7,7.05q3.35-.3,4.95.75a8.3889,8.3889,0,0,1,2.3,2.6,38.3991,38.3991,0,0,1,2.5,4.15q.9,1.8,2.35,5.6M68.25,53.7a1.6877,1.6877,0,0,1,1.1.15.7642.7642,0,0,1,.4.5,1.96,1.96,0,0,1-.15,1.25,14.2853,14.2853,0,0,0-.5,2.15l-.05,1.35.05.55.25.4a1.5726,1.5726,0,0,1,.2,1.4,1.4049,1.4049,0,0,1-1,.7,1.3726,1.3726,0,0,1-.7.1,1.18,1.18,0,0,1-.55-.2,2.2769,2.2769,0,0,1-1.4.55q-4.55.8-13.65,2.2a166.6056,166.6056,0,0,1-17.2,2.05,1.6379,1.6379,0,0,1-.35,0,1.5735,1.5735,0,0,1-1.35.3,2.9071,2.9071,0,0,1-1.3-.65q-.1017-.0707-.2-.15a3.583,3.583,0,0,1-1.1-1.15,7.94,7.94,0,0,1-.5-.95,1.54,1.54,0,0,1-.25-.6l-.05-.5a5.5891,5.5891,0,0,1,.15-1.5,4.242,4.242,0,0,1,.85-1.2,3.7677,3.7677,0,0,1,.65-.55,2.3093,2.3093,0,0,1,.65-.3l1.25-.4a.4442.4442,0,0,0,.15-.05,18.4119,18.4119,0,0,1,3.25-.75q12.3-2.05,28.9-4.2a2.1571,2.1571,0,0,1,.9.05,1.4846,1.4846,0,0,1,.7-.45,2.8107,2.8107,0,0,1,.85-.1m-38.7-7.35H29.5a4.7417,4.7417,0,0,0-.55-.15q.1656.05.35.1a1.1779,1.1779,0,0,0,.25.05M46.9,17.6a23.939,23.939,0,0,0-5.55.85q-5.85,1.3-9.2,2.2-.5.1-.6.35a.8261.8261,0,0,0,.15.8q.5.95,3.4,7.75a32.8045,32.8045,0,0,0,4.05,7.25q8.05-1.45,15.1-2.9l-4.1-10.25A36.3523,36.3523,0,0,0,46.9,17.6m-5.45,1.15a15.1525,15.1525,0,0,0,2.7-.6,3.5991,3.5991,0,0,1,1.85-.3,2.7593,2.7593,0,0,1,1.25,1.05q.15.2,1.25,2.45l4.65,10.5a2.3364,2.3364,0,0,1,.25,1.25,1.1,1.1,0,0,1-.05.25,1.5366,1.5366,0,0,1-.8.75,5.3338,5.3338,0,0,1-1.35.35A99.532,99.532,0,0,0,40.75,36.4a2.3921,2.3921,0,0,1-1.5.1,3.12,3.12,0,0,1-.95-.95,22.5107,22.5107,0,0,1-1.35-2.8l-3.15-7.5q-.75-1.7-1.1-2.3-.75-1.1-.45-1.6.15-.4.9-.6l1.6-.35q.3-.05.95-.15a4.1022,4.1022,0,0,0,.85-.35,20.7169,20.7169,0,0,1,2.15-.75q.6-.15,2.75-.4m9.8-7a2.8529,2.8529,0,0,0-.75-.05q-1.8.3-6.1,1.25A.8143.8143,0,0,1,44,14a2.6721,2.6721,0,0,1-1.1.4l-9.35,1.85q-1.5.3-2-.3a1.7705,1.7705,0,0,1-.2-1.7A60.9537,60.9537,0,0,1,23,16.15a32.7636,32.7636,0,0,1,2.7,6.7,1.53,1.53,0,0,1,1.6-.35q.75.25,1.25,1.8a62.7429,62.7429,0,0,0,4.3,9.95q1,1.75.5,2.6l-.4.7a1.5336,1.5336,0,0,0,.05.65,32.0092,32.0092,0,0,0,.95,3.55,11.9555,11.9555,0,0,0,1.6,3.2l7.4-1.8q-.95-.6-1.4-.9a2.2724,2.2724,0,0,1-.5-.4l-.3.05a.7058.7058,0,0,1,.1.7.9.9,0,0,1-.55.55,5.5066,5.5066,0,0,0-.85.05,6.1347,6.1347,0,0,1-1.25.2l-.5.05a5.2513,5.2513,0,0,0-.7.4,1.0854,1.0854,0,0,1-.8.1.8009.8009,0,0,1-.65-.4,5.5977,5.5977,0,0,1-.35-.65l-1.05-2.95q-.35-.75-.05-1.1.25-.45,1.1-.35a4.0555,4.0555,0,0,1,2.45,1.25,10.0017,10.0017,0,0,0,.85.8l.6.25.9.55a3.1658,3.1658,0,0,1,.75.55h0a.3636.3636,0,0,0,.2-.1,1.0353,1.0353,0,0,1-.25-.9,1.2141,1.2141,0,0,1,.4-.65.2983.2983,0,0,1-.1-.05,4.91,4.91,0,0,1-1.45-.1,9.2654,9.2654,0,0,1-2.15-1.15,14.5543,14.5543,0,0,1-1.75-1.1,9.7567,9.7567,0,0,1-2.1-3.15q-2.6-5.25-4.8-10.9a4.4635,4.4635,0,0,1-.4-2.05,3.3594,3.3594,0,0,1,.7-1.5q.3088-.3971.9-1.1l.95-1.5.15-.05q.1512-.1293.25-.2a5.1148,5.1148,0,0,1,2.75-.85A86.1479,86.1479,0,0,0,44.4,14.7a2.3774,2.3774,0,0,1,.95-.1.7028.7028,0,0,1,.6.4H46l1,.55a3.3028,3.3028,0,0,1,1.4.3,7.2255,7.2255,0,0,1,1.25.8,8.4679,8.4679,0,0,0,1.2.65,6.7216,6.7216,0,0,1,2.05,2.35,35.1736,35.1736,0,0,1,2.65,5.8q1.65,4.45,2.35,5.9a3.84,3.84,0,0,1,.65,2.75,2.3505,2.3505,0,0,1-.45.85l-.6.8q-.35.65-.55.95a2.4556,2.4556,0,0,1-.65.75.3569.3569,0,0,1-.15.05v.05l-.2.4a1.3356,1.3356,0,0,1,.5.6.7484.7484,0,0,1-.15.8q.5226-.1235,1.05-.25a.8162.8162,0,0,1-.1-.75l.15-.3a6.4288,6.4288,0,0,0,.5-1.4,2.0137,2.0137,0,0,1,.35-.6l.4-.9a3.0831,3.0831,0,0,1,.4-1.05,1.2045,1.2045,0,0,1,1-.35.4629.4629,0,0,1,.5-.35,1.2448,1.2448,0,0,1,.55.3l.35.55a10.0518,10.0518,0,0,1,.95,3.05v.55a.87.87,0,0,1-.5.65l-.75.2a.3161.3161,0,0,0-.2.05,26.5046,26.5046,0,0,1,2.7.15,29.1419,29.1419,0,0,0-2.75-6.85.861.861,0,0,1-.7.3,1.06,1.06,0,0,1-.7-.25,4.1,4.1,0,0,1-.9-1.25L53.85,21.2a4.1945,4.1945,0,0,1-.45-1.4,2.0256,2.0256,0,0,1,0-.45l-.05-.05.05.05a.9392.9392,0,0,1,.7-.75l-2.45-6.2a1.201,1.201,0,0,0-.4-.65m-.8.2a1.7682,1.7682,0,0,1,.7.7l.2.7a4.233,4.233,0,0,0,.6,1.15l.45.7.2.6a1.105,1.105,0,0,1-.35,1.1,1.1255,1.1255,0,0,1-1.1.25L49.6,16.3l-.3-.3-2.2-1.2a1.9432,1.9432,0,0,1-.7-.45.905.905,0,0,1-.4-.75,1.0627,1.0627,0,0,1,.6-.8,3.1405,3.1405,0,0,1,1.05-.25,4.2953,4.2953,0,0,0,1.05-.2l.8-.4a1.172,1.172,0,0,1,.95,0m-20,4.6a1.2383,1.2383,0,0,1-.45.8l-.7.6q-.15.2-.8,1.3l-.9,1.6-.3.75a.8312.8312,0,0,1-.65.4.9053.9053,0,0,1-.65-.15,1.69,1.69,0,0,1-.45-.4l-1.15-4a1.31,1.31,0,0,1,.1-.9q.3-.25.35-.3a2.24,2.24,0,0,1,.65-.05l3.1-.5a3.2171,3.2171,0,0,1,.95-.2.9719.9719,0,0,1,.65.35A.8747.8747,0,0,1,30.45,16.55Z"/><path d="M66.7,54.25a2.1571,2.1571,0,0,0-.9-.05q-16.6,2.15-28.9,4.2a18.4119,18.4119,0,0,0-3.25.75.4442.4442,0,0,1-.15.05l-1.25.4a2.3093,2.3093,0,0,0-.65.3,3.7677,3.7677,0,0,0-.65.55,4.242,4.242,0,0,0-.85,1.2,5.5891,5.5891,0,0,0-.15,1.5l.05.5a1.54,1.54,0,0,0,.25.6,7.94,7.94,0,0,0,.5.95,3.583,3.583,0,0,0,1.1,1.15q.0983.0794.2.15a2.9071,2.9071,0,0,0,1.3.65,1.5735,1.5735,0,0,0,1.35-.3,1.6379,1.6379,0,0,0,.35,0,166.6056,166.6056,0,0,0,17.2-2.05q9.1-1.4,13.65-2.2a2.2769,2.2769,0,0,0,1.4-.55,1.3194,1.3194,0,0,1-.4-.35,1.2619,1.2619,0,0,1-.15-1.05l.1-.3v-.3q-.0175-.263-.05-.55a4.71,4.71,0,0,1,.15-3.2l.15-.35a.7769.7769,0,0,1-.6-.55,1.0768,1.0768,0,0,1,.1-1Z" fill="#dcd1b6"/><path d="M69.35,53.85a1.6877,1.6877,0,0,0-1.1-.15,2.8107,2.8107,0,0,0-.85.1,1.4846,1.4846,0,0,0-.7.45l-.1.15a1.0768,1.0768,0,0,0-.1,1,.7769.7769,0,0,0,.6.55l-.15.35a4.71,4.71,0,0,0-.15,3.2q.0324.2871.05.55v.3l-.1.3a1.2619,1.2619,0,0,0,.15,1.05,1.3194,1.3194,0,0,0,.4.35,1.18,1.18,0,0,0,.55.2,1.3726,1.3726,0,0,0,.7-.1,1.4049,1.4049,0,0,0,1-.7,1.5726,1.5726,0,0,0-.2-1.4l-.25-.4-.05-.55.05-1.35a14.2853,14.2853,0,0,1,.5-2.15,1.96,1.96,0,0,0,.15-1.25A.7642.7642,0,0,0,69.35,53.85Z" fill="#fff"/><path d="M17.45,52.9a16.8354,16.8354,0,0,0-1.15,1.95,5.2623,5.2623,0,0,0-.55,1.2,2.0691,2.0691,0,0,0-.4.4A2.59,2.59,0,0,0,15,58a9.971,9.971,0,0,0,.35,3.2,7.4523,7.4523,0,0,0,.85,1.6,12.399,12.399,0,0,0,4.15,4.1,3.0691,3.0691,0,0,0,1.2.4,1.1308,1.1308,0,0,0,1.15-.45q.45-.6-.1-2a13.0588,13.0588,0,0,0-1.35-2.15,7.46,7.46,0,0,1-1.4-1.55,3.3169,3.3169,0,0,1-.35-2.4,6.2065,6.2065,0,0,1,1.1-2.2,9.4981,9.4981,0,0,1,2.25-2.35,1.4007,1.4007,0,0,0,.7.35,3.6615,3.6615,0,0,0,1.1-.15q.1144-.0177.25-.05.9-.25,2.7-.55a4.38,4.38,0,0,0,2.5-1.15A2.824,2.824,0,0,0,31,50.6a1.7363,1.7363,0,0,0-1-1.95,2.8486,2.8486,0,0,0-.95-.25L28,48.2a10.5324,10.5324,0,0,0-1.45,0q-.2915.0178-.6.05a12.7634,12.7634,0,0,0-4.15,1.2,15.8708,15.8708,0,0,0-2.55,1.65,9.1627,9.1627,0,0,0-1.8,1.8M12.9,38.05a15.9391,15.9391,0,0,0-1.5,1.4A8.6231,8.6231,0,0,0,9.2,44.5a7.34,7.34,0,0,0,1.15,5.25,9.5973,9.5973,0,0,0,3.15,2.7,3.9012,3.9012,0,0,0,1.9.65q1.3,0,1.55-1a1.9047,1.9047,0,0,0-.45-1.7,9.413,9.413,0,0,0-.9-1.3,1.7544,1.7544,0,0,0-.7-.6.6024.6024,0,0,0-.85.1,11.0083,11.0083,0,0,1-.35-2.3A5.567,5.567,0,0,1,15,43.55q2.95-3.9,6.45-4.1,1.35-.15,1.55-.2a1.9818,1.9818,0,0,0,1.25-1.75,2.5085,2.5085,0,0,0-.35-1.65,3.1392,3.1392,0,0,0-.35-.5,3.1814,3.1814,0,0,0-1.4-.95,3.0826,3.0826,0,0,0-.9-.05,11.53,11.53,0,0,0-1.9.25q-2.5.75-3.05,1a17.5147,17.5147,0,0,0-3.4,2.45m5.8-14.2a1.7509,1.7509,0,0,0,.15-.75,2.338,2.338,0,0,0-.2-1,3,3,0,0,0-1.3-1.35,4.8309,4.8309,0,0,0-3.65-.1q-.2295.0609-.45.1A14.184,14.184,0,0,0,5.8,26.5a11.3588,11.3588,0,0,0-2.25,5.75,6.9493,6.9493,0,0,0,2,5.75,5.7582,5.7582,0,0,0,2.1,1.25,3.42,3.42,0,0,0,1.8.1,2.2551,2.2551,0,0,0,1.1-.75,2.3693,2.3693,0,0,0,.5-1.25,2.09,2.09,0,0,0-1.25-2.2,2.9553,2.9553,0,0,1-.95-.5,1.62,1.62,0,0,1-.3-.85,7.467,7.467,0,0,1,1.4-4.85A8.6756,8.6756,0,0,1,13.9,25.7a2.29,2.29,0,0,1,1.1-.25l.9.3a1.5722,1.5722,0,0,0,1-.35A3.7109,3.7109,0,0,0,18.7,23.85Z" fill="#999"/><path d="M60.35,54.15l7.1-.85a17.2157,17.2157,0,0,0,6.25-1.55,4.1092,4.1092,0,0,0,1.7-1.55,2.0344,2.0344,0,0,0-.05-2.25,2.3028,2.3028,0,0,0-1.85-.85,1.2318,1.2318,0,0,1-.7.8,1.1879,1.1879,0,0,1-1.05.1,1.8715,1.8715,0,0,1-.75-.6L33.3,53.35a3.9288,3.9288,0,0,0,.65-2.05,4.311,4.311,0,0,0-.45-2.15,4.7109,4.7109,0,0,0-3.3-2.65,4.5261,4.5261,0,0,1-.65-.15,1.1779,1.1779,0,0,1-.25-.05q-.1844-.05-.35-.1a2.613,2.613,0,0,1-.5-.25,3.86,3.86,0,0,1-.85-1.05l-1-1.75a2.3181,2.3181,0,0,1-.3-.95,2.0078,2.0078,0,0,1,.5-1,5.9244,5.9244,0,0,0,1.15-2.95,5.9235,5.9235,0,0,0-.8-2.75,9.3387,9.3387,0,0,0-2.3-3,4.5411,4.5411,0,0,0-3.45-1.2,26.29,26.29,0,0,0-1-2.65,5.8726,5.8726,0,0,0,2.35-3.9,4.4505,4.4505,0,0,0-.55-2.65,6.0141,6.0141,0,0,0-1.75-2.15,8,8,0,0,0-4.25-1.7.9208.9208,0,0,1-.75-.25,1.1867,1.1867,0,0,1-.15-.75l.15-1.3a.1085.1085,0,0,1-.05-.05q-.85-1.2-.5-1.9a.9349.9349,0,0,1,.15-.2.1726.1726,0,0,0-.05-.05q-.55-.45-1.75.1a10.3261,10.3261,0,0,0-5.45,6.2,2.98,2.98,0,0,0-.15,1.2.9932.9932,0,0,0,.6.85,1.2266,1.2266,0,0,0,.9-.05q.1-.05.85-.45a6.3382,6.3382,0,0,1,3.25-.85q.2205-.039.45-.1a4.8309,4.8309,0,0,1,3.65.1,3,3,0,0,1,1.3,1.35,2.338,2.338,0,0,1,.2,1,.7968.7968,0,0,1,.1.2,1.7028,1.7028,0,0,1-.6,1.85,5.2051,5.2051,0,0,1-2.2,1.15q-2.2.6-2.4.7a12.9362,12.9362,0,0,0-3,2.2,2.9429,2.9429,0,0,0-.85,1.2,4.8048,4.8048,0,0,0,.65,1.95,17.6493,17.6493,0,0,1,.7,2.1A2.8783,2.8783,0,0,0,12.6,36.2a2.3234,2.3234,0,0,0,2,0,9.8452,9.8452,0,0,0,1.85-.9,7.1988,7.1988,0,0,1,4-1.05,4.61,4.61,0,0,1,.8.1,3.0826,3.0826,0,0,1,.9.05,3.1814,3.1814,0,0,1,1.4.95,3.1392,3.1392,0,0,1,.35.5,2.9073,2.9073,0,0,1,.2.25,2.48,2.48,0,0,1,.35,2.25,2.5153,2.5153,0,0,1-1.75,1.3q-.35.1-2.2.35a7.934,7.934,0,0,0-4.3,2.25,3.1092,3.1092,0,0,0-1.1,2.3,3.5679,3.5679,0,0,0,.5,1.4q.25.45.8,1.3a17.6767,17.6767,0,0,1,.7,1.9,1.5533,1.5533,0,0,0,1.6,1.1A10.3735,10.3735,0,0,0,20,49.7l1.35-.35a2.4,2.4,0,0,0,.75-.5,7.7561,7.7561,0,0,1,.7-.5,4.655,4.655,0,0,1,2.75-.15q.2092.0232.4.05.3086-.0323.6-.05a10.5324,10.5324,0,0,1,1.45,0l1.05.2a2.8486,2.8486,0,0,1,.95.25,1.7363,1.7363,0,0,1,1,1.95,2.824,2.824,0,0,1-.9,2.05,4.38,4.38,0,0,1-2.5,1.15q-1.8.3-2.7.55-.1356.0322-.25.05a12.1077,12.1077,0,0,0-2.1,1.45q-1.8,1.5-1.6,2.9A5.8081,5.8081,0,0,0,22,60.9a13.7486,13.7486,0,0,1,1.35,2.8q.4,1,1.1,2.95a9.002,9.002,0,0,0,3.8,4.75,7.0939,7.0939,0,0,0,3.1.7q1,0,3.25-.25L71.35,66.8a10.0606,10.0606,0,0,0,4.25-1.25,2.9488,2.9488,0,0,0,1.55-2.45,4.7336,4.7336,0,0,0-.55-2.15l-2.3-5.3q-.75-1.65-1.7-1.6-.75.05-1.35,1.3a10.4233,10.4233,0,0,0-.8,6.7q-3.5.95-5.05,1.2-3.5.45-5.25.7-4.1.5-10.9,1.75Q41.2,67.2,38.4,67.6a35.1331,35.1331,0,0,1-4.1.4q-2.85.1-4.1-1.15a4.881,4.881,0,0,1-1.1-2.8,5.0635,5.0635,0,0,1,.35-2.85,5.1831,5.1831,0,0,1,3.3-2.45,28.1162,28.1162,0,0,1,3.4-.75Q50.95,55.45,60.35,54.15Z" fill="#a33b5b"/><path d="M63.2,24.6q-1.85-3.25-2.4-4.45-1.45-3.8-2.35-5.6a38.3991,38.3991,0,0,0-2.5-4.15,8.3889,8.3889,0,0,0-2.3-2.6q-1.6-1.05-4.95-.75A125.9111,125.9111,0,0,0,36.15,8.9l-4.5.8Q20.6,11.85,16.1,13.25a2.6259,2.6259,0,0,0-1.05.55.9349.9349,0,0,0-.15.2q-.35.7.5,1.9a.1085.1085,0,0,0,.05.05l-.15,1.3a1.1867,1.1867,0,0,0,.15.75.9208.9208,0,0,0,.75.25,8,8,0,0,1,4.25,1.7A6.0141,6.0141,0,0,1,22.2,22.1a4.4505,4.4505,0,0,1,.55,2.65,5.8726,5.8726,0,0,1-2.35,3.9,26.29,26.29,0,0,1,1,2.65,4.5411,4.5411,0,0,1,3.45,1.2,9.3387,9.3387,0,0,1,2.3,3,5.9235,5.9235,0,0,1,.8,2.75A5.9244,5.9244,0,0,1,26.8,41.2a2.0078,2.0078,0,0,0-.5,1,2.3181,2.3181,0,0,0,.3.95l1,1.75a3.86,3.86,0,0,0,.85,1.05,2.613,2.613,0,0,0,.5.25,4.7417,4.7417,0,0,1,.55.15h.05a4.5261,4.5261,0,0,0,.65.15,4.7109,4.7109,0,0,1,3.3,2.65,4.311,4.311,0,0,1,.45,2.15,3.9288,3.9288,0,0,1-.65,2.05L71,47.4a1.8715,1.8715,0,0,0,.75.6,1.1879,1.1879,0,0,0,1.05-.1,1.2318,1.2318,0,0,0,.7-.8h0a2.9168,2.9168,0,0,0-.6-2.1,88.5574,88.5574,0,0,1-4.95-10.15Q64.8,27.5,63.2,24.6M50.5,11.7a2.8529,2.8529,0,0,1,.75.05,1.201,1.201,0,0,1,.4.65l2.45,6.2a.9392.9392,0,0,0-.7.75l-.05-.05.05.05a2.0256,2.0256,0,0,0,0,.45,4.1945,4.1945,0,0,0,.45,1.4l4.75,9.65a4.1,4.1,0,0,0,.9,1.25,1.06,1.06,0,0,0,.7.25.861.861,0,0,0,.7-.3,29.1419,29.1419,0,0,1,2.75,6.85,26.5046,26.5046,0,0,0-2.7-.15v.1a2.4125,2.4125,0,0,0-1.1.2l-1.1.45-.45.1a1.0586,1.0586,0,0,1-.85-.35.5116.5116,0,0,1-.1-.15q-.5274.1266-1.05.25a.7484.7484,0,0,0,.15-.8,1.3356,1.3356,0,0,0-.5-.6l-.1-.05a1.6941,1.6941,0,0,0-.55-.1l-.2.05-12.6,2.2q-.7062.1061-1.3.15a.4794.4794,0,0,1-.1.05,1.2141,1.2141,0,0,0-.4.65,1.0353,1.0353,0,0,0,.25.9.3135.3135,0,0,0,.1.05,2.2724,2.2724,0,0,0,.5.4q.45.3,1.4.9l-7.4,1.8a11.9555,11.9555,0,0,1-1.6-3.2A32.0092,32.0092,0,0,1,33,38.2a1.5336,1.5336,0,0,1-.05-.65l.4-.7q.5-.85-.5-2.6a62.7429,62.7429,0,0,1-4.3-9.95q-.5-1.55-1.25-1.8a1.53,1.53,0,0,0-1.6.35,32.7636,32.7636,0,0,0-2.7-6.7,60.9537,60.9537,0,0,0,8.35-1.9,1.7705,1.7705,0,0,0,.2,1.7q.5.6,2,.3L42.9,14.4A2.6721,2.6721,0,0,0,44,14a.8143.8143,0,0,0,.4-1.05Q48.7,12,50.5,11.7Z" fill="#c25174"/><path d="M40.75,41.9h0a3.1658,3.1658,0,0,0-.75-.55l-.9-.55-.6-.25a10.0017,10.0017,0,0,1-.85-.8A4.0555,4.0555,0,0,0,35.2,38.5q-.85-.1-1.1.35-.3.35.05,1.1L35.2,42.9a5.5977,5.5977,0,0,0,.35.65.8009.8009,0,0,0,.65.4,1.0854,1.0854,0,0,0,.8-.1,5.2513,5.2513,0,0,1,.7-.4l.5-.05a6.1347,6.1347,0,0,0,1.25-.2,5.5066,5.5066,0,0,1,.85-.05.9.9,0,0,0,.55-.55.7058.7058,0,0,0-.1-.7m.3-.05a.3135.3135,0,0,1-.1-.05.3636.3636,0,0,1-.2.1l.3-.05m18-7.75a3.0831,3.0831,0,0,0-.4,1.05l-.4.9a2.0137,2.0137,0,0,0-.35.6,6.4288,6.4288,0,0,1-.5,1.4l-.15.3a.8162.8162,0,0,0,.1.75.5116.5116,0,0,0,.1.15,1.0586,1.0586,0,0,0,.85.35l.45-.1,1.1-.45a2.4125,2.4125,0,0,1,1.1-.2v-.1a.3161.3161,0,0,1,.2-.05l.75-.2a.87.87,0,0,0,.5-.65V37.3a10.0518,10.0518,0,0,0-.95-3.05l-.35-.55a1.2448,1.2448,0,0,0-.55-.3.4629.4629,0,0,0-.5.35,1.2045,1.2045,0,0,0-1,.35M30,17.35a1.2383,1.2383,0,0,0,.45-.8.8747.8747,0,0,0-.25-.7.9719.9719,0,0,0-.65-.35,3.2171,3.2171,0,0,0-.95.2l-3.1.5a2.24,2.24,0,0,0-.65.05q-.05.05-.35.3a1.31,1.31,0,0,0-.1.9l1.15,4a1.69,1.69,0,0,0,.45.4.9053.9053,0,0,0,.65.15.8312.8312,0,0,0,.65-.4l.3-.75.9-1.6q.65-1.1.8-1.3l.7-.6m21.15-4.7a1.7682,1.7682,0,0,0-.7-.7,1.172,1.172,0,0,0-.95,0l-.8.4a4.2953,4.2953,0,0,1-1.05.2,3.1405,3.1405,0,0,0-1.05.25,1.0627,1.0627,0,0,0-.6.8.905.905,0,0,0,.4.75,1.9432,1.9432,0,0,0,.7.45L49.3,16l.3.3,1.55.85a1.1255,1.1255,0,0,0,1.1-.25,1.105,1.105,0,0,0,.35-1.1l-.2-.6-.45-.7a4.233,4.233,0,0,1-.6-1.15Z" fill="#7e523d"/><path d="M50.85,17.3a8.4679,8.4679,0,0,1-1.2-.65,7.2255,7.2255,0,0,0-1.25-.8,3.3028,3.3028,0,0,0-1.4-.3L46,15h-.05a.7028.7028,0,0,0-.6-.4,2.3774,2.3774,0,0,0-.95.1,86.1479,86.1479,0,0,1-10.35,1.85,5.1148,5.1148,0,0,0-2.75.85q-.0988.0707-.25.2l-.15.05-.95,1.5q-.5911.7029-.9,1.1a3.3594,3.3594,0,0,0-.7,1.5,4.4635,4.4635,0,0,0,.4,2.05q2.2,5.65,4.8,10.9a9.7567,9.7567,0,0,0,2.1,3.15,14.5543,14.5543,0,0,0,1.75,1.1,9.2654,9.2654,0,0,0,2.15,1.15,4.91,4.91,0,0,0,1.45.1.2983.2983,0,0,0,.1.05.4794.4794,0,0,0,.1-.05q.5937-.044,1.3-.15l12.6-2.2.2-.05a1.6941,1.6941,0,0,1,.55.1l.1.05.2-.4V37.5a.3569.3569,0,0,0,.15-.05,2.4556,2.4556,0,0,0,.65-.75q.2-.3.55-.95l.6-.8a2.3505,2.3505,0,0,0,.45-.85,3.84,3.84,0,0,0-.65-2.75q-.7-1.45-2.35-5.9a35.1736,35.1736,0,0,0-2.65-5.8,6.7216,6.7216,0,0,0-2.05-2.35m-9.5,1.15a23.939,23.939,0,0,1,5.55-.85,36.3523,36.3523,0,0,1,3.25,6.05l4.1,10.25q-7.05,1.45-15.1,2.9a32.8045,32.8045,0,0,1-4.05-7.25q-2.9-6.8-3.4-7.75a.8261.8261,0,0,1-.15-.8q.1-.25.6-.35Q35.5,19.75,41.35,18.45Z" fill="#fafafa"/><path d="M44.15,18.15a15.1525,15.1525,0,0,1-2.7.6q-2.15.25-2.75.4a20.7169,20.7169,0,0,0-2.15.75,4.1022,4.1022,0,0,1-.85.35q-.65.1-.95.15l-1.6.35q-.75.2-.9.6-.3.5.45,1.6.35.6,1.1,2.3l3.15,7.5a22.5107,22.5107,0,0,0,1.35,2.8,3.12,3.12,0,0,0,.95.95,2.3921,2.3921,0,0,0,1.5-.1A99.532,99.532,0,0,1,51.2,34.45a5.3338,5.3338,0,0,0,1.35-.35,1.5366,1.5366,0,0,0,.8-.75,1.1,1.1,0,0,0,.05-.25,2.3364,2.3364,0,0,0-.25-1.25L48.5,21.35q-1.1-2.25-1.25-2.45A2.7593,2.7593,0,0,0,46,17.85,3.5991,3.5991,0,0,0,44.15,18.15Z" fill="#73b6f3"/></g><g id="MyAlbum_basic_0_Layer2_0_FILL" data-name="MyAlbum basic 0 Layer2 0 FILL"><path d="M57.5,9a2.0377,2.0377,0,0,0-.1-.2,7.7343,7.7343,0,0,0-8.1-3.65q-17.2611,2.6736-35.8,6.5a2.0842,2.0842,0,0,1-.25.1,11.5175,11.5175,0,0,0-6.4,5.55h0A11.916,11.916,0,0,0,5.7,21.45h0L5.4,25a1.6393,1.6393,0,0,0,.1.7l18.35,44a2.6155,2.6155,0,0,0,.2.35q2.9535,4.0958,8.95,3.8a.2821.2821,0,0,0,.15-.05L74.8,67.65a.5186.5186,0,0,0,.2,0,4.7967,4.7967,0,0,0,3.35-2.45,4.3681,4.3681,0,0,0-.1-4.1.0557.0557,0,0,0,0-.05l-3.75-7.9a4.2734,4.2734,0,0,0,1.85-5.45.5679.5679,0,0,0-.05-.2L57.5,9m-7.75-.9a4.9709,4.9709,0,0,1,5.05,2.25l18.15,37.1.6,1.2a2.1667,2.1667,0,0,1-1.35,2.4l-.05.05H72.1l-1,.15a.2051.2051,0,0,1-.1,0q-1.2875.2154-2.6.45a3.0125,3.0125,0,0,0-.7.1L32.8,57.05q-.1381.0427-.3.1-6.13,2.4608-4.8,8.05.5747,3.1742,4.8,3.8,3.2451.569,9.2-.75h-.1L70.85,63.7a1.3476,1.3476,0,0,0,.8-.35,1.4524,1.4524,0,0,0,.45-.75,1.3194,1.3194,0,0,0-.05-.85,8.0459,8.0459,0,0,1,.15-6.45l3.3,7a.1726.1726,0,0,1,.05.05,2.0592,2.0592,0,0,1,.15,1.5,2.6549,2.6549,0,0,1-1.55.9l-41.3,6.1a7.201,7.201,0,0,1-6.35-2.5L8.4,24.95q.1629-1.6248.3-3.2a9.084,9.084,0,0,1,.85-3.1H9.5a8.8421,8.8421,0,0,1,4.6-4.05q.0324.0182.05,0a1.0862,1.0862,0,0,0,.2-.05q18.3246-3.7912,35.4-6.45M68.8,54.65a.9131.9131,0,0,0,.3-.05,10.7253,10.7253,0,0,0-.4,6.45l-2.05.3L41.15,65.3q-.0231.024-.1,0a23.5038,23.5038,0,0,1-8.1.75,2.5307,2.5307,0,0,1-2.3-1.5Q30.0379,61.435,33.5,60l32.85-5,2-.3a.6951.6951,0,0,0,.2,0A.6264.6264,0,0,0,68.8,54.65Z"/><path d="M66.3,55.25q.0281-.1127.05-.25L33.5,60q-3.4622,1.4349-2.85,4.55a2.5307,2.5307,0,0,0,2.3,1.5,23.5038,23.5038,0,0,0,8.1-.75q.077.024.1,0l25.5-3.95a8.3948,8.3948,0,0,1-.35-1,14.3865,14.3865,0,0,1-.3-2.4l.05-1.3Z" fill="#dcd1b6"/><path d="M69.1,54.6a.9131.9131,0,0,1-.3.05.6264.6264,0,0,1-.25.05.6951.6951,0,0,1-.2,0l-2,.3q-.0219.1373-.05.25l-.25,1.4L66,57.95a14.3865,14.3865,0,0,0,.3,2.4,8.3948,8.3948,0,0,0,.35,1l2.05-.3A10.7253,10.7253,0,0,1,69.1,54.6Z" fill="#fff"/><path d="M67.7,51.8a3.0125,3.0125,0,0,1,.7-.1q1.3125-.2346,2.6-.45a.2051.2051,0,0,0,.1,0l1-.15h.05l.05-.05a2.1667,2.1667,0,0,0,1.35-2.4l-.6-1.2a10.3978,10.3978,0,0,1-2.4.65l-36.8,6.35a1.3054,1.3054,0,0,1-.95-.1q-.55-.3-.4-1.25.35-.9.5-1.35a3.3825,3.3825,0,0,0-.55-3.2,3.2273,3.2273,0,0,0-2.7-1.4q-.85.05-1.25.1a1.4863,1.4863,0,0,1-1.1-.4,2.3345,2.3345,0,0,1-.65-1.3A23.2182,23.2182,0,0,0,25.3,42q.3-.2.55-.4A4.2775,4.2775,0,0,0,27,39a2.7619,2.7619,0,0,0,.1-1.25,7.01,7.01,0,0,0-.4-1.4l-.25-.5a3.3213,3.3213,0,0,0-1.15-1.1,4.0736,4.0736,0,0,0-1.55-.45,4.3922,4.3922,0,0,0-1.45.15,1.26,1.26,0,0,0-.3.15q-1.3416-2.8818-2.8-6,.6053-.3539.95-.6a7.4316,7.4316,0,0,0,.95-1.1l.05-.05a3.1437,3.1437,0,0,0,.4-1l.05-.65a4.5494,4.5494,0,0,0,0-1.65l-.2-.7a4.5586,4.5586,0,0,0-.7-1,3.9787,3.9787,0,0,0-1.55-.8,5.341,5.341,0,0,0-1.8-.2,3.0916,3.0916,0,0,0-1.5.5,18.3628,18.3628,0,0,1-1.2-3.1,8.9138,8.9138,0,0,1-.3-3.7,1.0862,1.0862,0,0,1-.2.05q-.0176.0182-.05,0a8.8421,8.8421,0,0,0-4.6,4.05h.05a9.084,9.084,0,0,0-.85,3.1q-.1371,1.5752-.3,3.2l18.1,43.4a7.201,7.201,0,0,0,6.35,2.5l41.3-6.1a2.6549,2.6549,0,0,0,1.55-.9,2.0592,2.0592,0,0,0-.15-1.5.1726.1726,0,0,0-.05-.05l-3.3-7a8.0459,8.0459,0,0,0-.15,6.45,1.3194,1.3194,0,0,1,.05.85,1.4524,1.4524,0,0,1-.45.75,1.3476,1.3476,0,0,1-.8.35L41.6,68.25h.1q-5.9549,1.319-9.2.75-4.2253-.6258-4.8-3.8-1.33-5.5893,4.8-8.05.1619-.0573.3-.1Z" fill="#a33b5b"/><path d="M54.8,10.35A4.9709,4.9709,0,0,0,49.75,8.1q-17.0754,2.6588-35.4,6.45a8.9138,8.9138,0,0,0,.3,3.7,18.3628,18.3628,0,0,0,1.2,3.1,3.0916,3.0916,0,0,1,1.5-.5,5.341,5.341,0,0,1,1.8.2,3.9787,3.9787,0,0,1,1.55.8,4.5586,4.5586,0,0,1,.7,1l.2.7a4.5494,4.5494,0,0,1,0,1.65l-.05.65a3.1437,3.1437,0,0,1-.4,1l-.05.05a7.4316,7.4316,0,0,1-.95,1.1q-.3447.2462-.95.6,1.4585,3.1182,2.8,6a1.26,1.26,0,0,1,.3-.15,4.3922,4.3922,0,0,1,1.45-.15,4.0736,4.0736,0,0,1,1.55.45,3.3213,3.3213,0,0,1,1.15,1.1l.25.5a7.01,7.01,0,0,1,.4,1.4A2.7619,2.7619,0,0,1,27,39a4.2775,4.2775,0,0,1-1.15,2.6q-.25.2-.55.4a23.2182,23.2182,0,0,1,1.35,3.55,2.3345,2.3345,0,0,0,.65,1.3,1.4863,1.4863,0,0,0,1.1.4q.4-.05,1.25-.1a3.2273,3.2273,0,0,1,2.7,1.4,3.3825,3.3825,0,0,1,.55,3.2q-.15.45-.5,1.35-.15.95.4,1.25a1.3054,1.3054,0,0,0,.95.1l36.8-6.35a10.3978,10.3978,0,0,0,2.4-.65Z" fill="#c25174"/></g><g id="MyAlbum_basic_0_Layer1_0_FILL" data-name="MyAlbum basic 0 Layer1 0 FILL"><path d="M23.45,56.25a6.2175,6.2175,0,0,0-1.7,1.7q1.0879,2.434,2.2,4.9A19.7776,19.7776,0,0,0,25.6,66q.7.95,1.3.5.45-.25.2-1.25a31.95,31.95,0,0,0-1.25-3.6q-.6374-1.58-2.3-5.5a.3366.3366,0,0,1-.1.1M17.75,42.5q-.1947.1209-.4.25a6.9993,6.9993,0,0,0-1.65,1.6q1.1458,2.5614,2.3,5.2,1.0874-.7288,2.2-1.35-.3349-.7908-.7-1.65L17.75,42.5M12.2,29.1q-.1948.1209-.4.25a6.684,6.684,0,0,0-1.6,1.55q.3674,1.0635,1.25,3.45.329.7753.65,1.55,1.1133-.7132,2.25-1.3-1.4-3.267-2.15-5.5m-1.55-8.8a1.377,1.377,0,0,0,.05-.3,1.2174,1.2174,0,0,0-.15-.85q-.35-.5-.95-.1a2.0432,2.0432,0,0,0-.7.85,7.1545,7.1545,0,0,0-.4,1.45Q9.5835,20.7767,10.65,20.3Z" fill="#c25174"/><path d="M16.9,55.65q.2633-.2573.5-.5a2.1943,2.1943,0,0,0,.3-.25,20.0814,20.0814,0,0,1,2-1.5,23.29,23.29,0,0,1,2.15-1.25h.05a10.8909,10.8909,0,0,1,1.7-.65,15.6877,15.6877,0,0,1,3.1-.9q.9-.05,1.4-.05.45.2,1.35.55a.1442.1442,0,0,0,.1.05,1.11,1.11,0,0,0,.15-.35l.05-.5a2.5118,2.5118,0,0,0-.25-.8,1.0088,1.0088,0,0,0-.4-.45,3.1667,3.1667,0,0,0-.9-.15,10.0923,10.0923,0,0,0-5.4,1q-.8009.3906-1.55.85a13.8116,13.8116,0,0,0-2,1.6,12.2347,12.2347,0,0,0-1.75,2.1q-.126.2385-.25.45v.05l-.1.2a.131.131,0,0,1-.05.05q-.12.2407-.25.5l.05-.05M16.7,36.4q-.6613.3227-1.3.7a13.8809,13.8809,0,0,0-2.1,1.6q-.0749.0774-.15.15a11.1443,11.1443,0,0,0-1.45,1.7q-.2916.4094-.55.85v.05l-.1.2a1.3144,1.3144,0,0,1-.15.2,3.0347,3.0347,0,0,1-.15.35l.05-.05q.156-.1525.3-.3.4324-.3884.85-.75a20.5356,20.5356,0,0,1,1.8-1.3,18.9705,18.9705,0,0,1,2.05-1.15,1.2968,1.2968,0,0,0,.25-.15A12.1544,12.1544,0,0,1,17.5,38a15.6877,15.6877,0,0,1,3.1-.9q.9-.05,1.4-.05.45.2,1.35.55a.1442.1442,0,0,0,.1.05,1.11,1.11,0,0,0,.15-.35l.05-.5a2.5118,2.5118,0,0,0-.25-.8,1.0088,1.0088,0,0,0-.4-.45,3.1667,3.1667,0,0,0-.9-.15,10.0923,10.0923,0,0,0-5.4,1M5.2,28.8l.05-.05A18.61,18.61,0,0,1,8.85,26q.6776-.4016,1.4-.75.4588-.2086.8-.35a8.0241,8.0241,0,0,1,.9-.3,15.6877,15.6877,0,0,1,3.1-.9q.9-.05,1.4-.05.45.2,1.35.55a.1442.1442,0,0,0,.1.05,1.11,1.11,0,0,0,.15-.35l.05-.5a2.5118,2.5118,0,0,0-.25-.8,1.0088,1.0088,0,0,0-.4-.45,3.1667,3.1667,0,0,0-.9-.15,10.0923,10.0923,0,0,0-5.4,1q-.1751.0853-.35.15a17.5148,17.5148,0,0,0-2.2,1.4q-.5242.44-1,.9A11.6691,11.6691,0,0,0,5.6,28v.05l-.1.2Q5.35,28.5,5.2,28.8Z" fill="#ccc"/><path d="M17.4,55.15q-.2367.2429-.5.5a6.7017,6.7017,0,0,0-.5,5.15,5.5444,5.5444,0,0,0,.9,1.95,19.68,19.68,0,0,0,1.5,1.55,8.6477,8.6477,0,0,0,1.85.9l.7.2a5.9664,5.9664,0,0,0,1.3.25,7.2067,7.2067,0,0,1-.8-2.15,9.7551,9.7551,0,0,1-1.1-.25,3.3237,3.3237,0,0,1-2.05-1.8,6.098,6.098,0,0,1,.75-5.2,10.5107,10.5107,0,0,1,.95-1.35,8.6921,8.6921,0,0,1,1.75-1.6l.15-.1q.3725-.2453.7-.45l.7-.3a2.732,2.732,0,0,0,.35-.15.1442.1442,0,0,1,.1-.05,9.522,9.522,0,0,1,3.55-.9.3847.3847,0,0,0,.15.05,4.2026,4.2026,0,0,0,1.5-.1.3218.3218,0,0,0,.2-.15.1442.1442,0,0,1-.1-.05q-.9-.35-1.35-.55-.5,0-1.4.05a15.6877,15.6877,0,0,0-3.1.9,10.8909,10.8909,0,0,0-1.7.65h-.05A23.29,23.29,0,0,0,19.7,53.4a20.0814,20.0814,0,0,0-2,1.5,2.1943,2.1943,0,0,1-.3.25m-6.3-13.3q-.144.1474-.3.3a6.7017,6.7017,0,0,0-.5,5.15,5.5444,5.5444,0,0,0,.9,1.95,19.68,19.68,0,0,0,1.5,1.55,8.6477,8.6477,0,0,0,1.85.9l.7.2q.1638.05.3.1.3246-.4352.6-.8-.4734-1.09-.4-1.2a9.7551,9.7551,0,0,1-1.1-.25,3.3237,3.3237,0,0,1-2.05-1.8,6.098,6.098,0,0,1,.75-5.2,11.9873,11.9873,0,0,1,1.05-1.5,9.3736,9.3736,0,0,1,1.65-1.45,4.2827,4.2827,0,0,0,.4-.3q.2452-.1221.45-.25l.7-.3a2.732,2.732,0,0,0,.35-.15.1442.1442,0,0,1,.1-.05,9.522,9.522,0,0,1,3.55-.9.3847.3847,0,0,0,.15.05,4.2026,4.2026,0,0,0,1.5-.1.3218.3218,0,0,0,.2-.15.1442.1442,0,0,1-.1-.05q-.9-.35-1.35-.55-.5,0-1.4.05a15.6877,15.6877,0,0,0-3.1.9,12.1544,12.1544,0,0,0-1.45.5,1.2968,1.2968,0,0,1-.25.15,18.9705,18.9705,0,0,0-2.05,1.15,20.5356,20.5356,0,0,0-1.8,1.3q-.4176.3616-.85.75M8.85,26a18.61,18.61,0,0,0-3.6,2.75,6.7017,6.7017,0,0,0-.5,5.15,5.5444,5.5444,0,0,0,.9,1.95,19.68,19.68,0,0,0,1.5,1.55A8.6477,8.6477,0,0,0,9,38.3l.5.15a11.7339,11.7339,0,0,1,.9-1.15q-.2546-.6181-.2-.7a9.7551,9.7551,0,0,1-1.1-.25,3.3237,3.3237,0,0,1-2.05-1.8,6.098,6.098,0,0,1,.75-5.2A11.7439,11.7439,0,0,1,9.15,27.5a10.7951,10.7951,0,0,1,1.35-1.1q.416-.2773.8-.5a.1581.1581,0,0,1,.05-.05l.7-.3a2.732,2.732,0,0,0,.35-.15.1442.1442,0,0,1,.1-.05,9.522,9.522,0,0,1,3.55-.9.3847.3847,0,0,0,.15.05,4.2026,4.2026,0,0,0,1.5-.1.3218.3218,0,0,0,.2-.15.1442.1442,0,0,1-.1-.05q-.9-.35-1.35-.55-.5,0-1.4.05a15.6877,15.6877,0,0,0-3.1.9,8.0241,8.0241,0,0,0-.9.3q-.3413.1414-.8.35Q9.5276,25.5985,8.85,26Z" fill="#999"/><path d="M20.25,21.45l-.4-.5a5.0816,5.0816,0,0,0-1.3-1.15l-.7-.3a9.3977,9.3977,0,0,0-6.1.4q-.5369.1944-1.1.4-1.0667.4767-2.15,1.05a26.3313,26.3313,0,0,0-2.3,1.4l-.95.75A13.4866,13.4866,0,0,0,3,26.55q-.45.9-.8,1.7a12.6888,12.6888,0,0,0-.6,2.25q-.15,1.15-.2,1.45a5.3586,5.3586,0,0,0,.05,1.2l.2,1.3A18.9227,18.9227,0,0,0,2.8,37.5q.25.4.45.8a8.4491,8.4491,0,0,0,3.2,2.65,12.6906,12.6906,0,0,0,1.4.5,2.1936,2.1936,0,0,0-.1.2,12.6888,12.6888,0,0,0-.6,2.25q-.15,1.15-.2,1.45A5.3586,5.3586,0,0,0,7,46.55l.2,1.3A18.9227,18.9227,0,0,0,8.35,50.9q.25.4.45.8A8.4491,8.4491,0,0,0,12,54.35a14.28,14.28,0,0,0,1.75.6q.0835.0244.15.05a.8249.8249,0,0,1-.05.15,12.6888,12.6888,0,0,0-.6,2.25q-.15,1.15-.2,1.45a5.3586,5.3586,0,0,0,.05,1.2l.2,1.3a18.9227,18.9227,0,0,0,1.15,3.05q.25.4.45.8a8.4491,8.4491,0,0,0,3.2,2.65,14.28,14.28,0,0,0,1.75.6,7.6092,7.6092,0,0,0,2.45.3,2.3024,2.3024,0,0,0,1.6-.3.3264.3264,0,0,1-.15-.15,6.859,6.859,0,0,0-.35-.7q-.3-.8-.6-1.65a.4322.4322,0,0,1-.15-.3,5.9664,5.9664,0,0,1-1.3-.25l-.7-.2a8.6477,8.6477,0,0,1-1.85-.9,19.68,19.68,0,0,1-1.5-1.55,5.5444,5.5444,0,0,1-.9-1.95,6.7017,6.7017,0,0,1,.5-5.15l-.05.05q.13-.2592.25-.5a.131.131,0,0,0,.05-.05l.1-.2V54.9q.124-.2115.25-.45a12.2347,12.2347,0,0,1,1.75-2.1,13.8116,13.8116,0,0,1,2-1.6q.7493-.4595,1.55-.85a10.0923,10.0923,0,0,1,5.4-1,3.1667,3.1667,0,0,1,.9.15,1.0088,1.0088,0,0,1,.4.45,2.5118,2.5118,0,0,1,.25.8l-.05.5a1.11,1.11,0,0,1-.15.35.3218.3218,0,0,1-.2.15,4.2026,4.2026,0,0,1-1.5.1.3847.3847,0,0,1-.15-.05,9.522,9.522,0,0,0-3.55.9.1442.1442,0,0,0-.1.05,2.732,2.732,0,0,1-.35.15l-.7.3q-.3276.2047-.7.45l-.15.1a8.6921,8.6921,0,0,0-1.75,1.6,10.5107,10.5107,0,0,0-.95,1.35,6.098,6.098,0,0,0-.75,5.2,3.3237,3.3237,0,0,0,2.05,1.8,9.7551,9.7551,0,0,0,1.1.25,4.4831,4.4831,0,0,1-.5-1.6q-.05-.95-.05-1.95a3.65,3.65,0,0,1,.4-1.85,1.0057,1.0057,0,0,0,.05-.15,6.2175,6.2175,0,0,1,1.7-1.7.3366.3366,0,0,0,.1-.1q1.2992-.7734,2.4-1.3l2.1-.45a8.7731,8.7731,0,0,0,2-.6,1.336,1.336,0,0,1,.35-.25,5.12,5.12,0,0,0,1.65-2.8l.05-1.25a2.6376,2.6376,0,0,0-.2-1.15l-.4-.5a5.0816,5.0816,0,0,0-1.3-1.15l-.7-.3a9.3977,9.3977,0,0,0-6.1.4,27.0087,27.0087,0,0,0-3.2,1.4q-1.1127.6212-2.2,1.35-.0711.0465-.15.1l-.95.75a7.2011,7.2011,0,0,0-.75.8q-.2754.3648-.6.8-.1362-.05-.3-.1l-.7-.2a8.6477,8.6477,0,0,1-1.85-.9,19.68,19.68,0,0,1-1.5-1.55,5.5444,5.5444,0,0,1-.9-1.95,6.7017,6.7017,0,0,1,.5-5.15l-.05.05a3.0347,3.0347,0,0,0,.15-.35,1.3144,1.3144,0,0,0,.15-.2l.1-.2V41.4q.2584-.4407.55-.85a11.1443,11.1443,0,0,1,1.45-1.7q.0752-.0726.15-.15a13.8809,13.8809,0,0,1,2.1-1.6q.6387-.3774,1.3-.7a10.0923,10.0923,0,0,1,5.4-1,3.1667,3.1667,0,0,1,.9.15,1.0088,1.0088,0,0,1,.4.45,2.5118,2.5118,0,0,1,.25.8l-.05.5a1.11,1.11,0,0,1-.15.35.3218.3218,0,0,1-.2.15,4.2026,4.2026,0,0,1-1.5.1.3847.3847,0,0,1-.15-.05,9.522,9.522,0,0,0-3.55.9.1442.1442,0,0,0-.1.05,2.732,2.732,0,0,1-.35.15l-.7.3q-.2047.1279-.45.25a4.2827,4.2827,0,0,1-.4.3,9.3736,9.3736,0,0,0-1.65,1.45,11.9873,11.9873,0,0,0-1.05,1.5,6.098,6.098,0,0,0-.75,5.2,3.3237,3.3237,0,0,0,2.05,1.8,9.7551,9.7551,0,0,0,1.1.25,4.4831,4.4831,0,0,1-.5-1.6q-.05-.95-.05-1.95a3.65,3.65,0,0,1,.4-1.85q.0545-.1247.1-.25a6.9993,6.9993,0,0,1,1.65-1.6q.2052-.1292.4-.25,1.1249-.6835,2.1-1.15l2.1-.45a8.7731,8.7731,0,0,0,2-.6,1.336,1.336,0,0,1,.35-.25,5.12,5.12,0,0,0,1.65-2.8L26,36a2.6376,2.6376,0,0,0-.2-1.15l-.4-.5a5.0816,5.0816,0,0,0-1.3-1.15l-.7-.3a9.3977,9.3977,0,0,0-6.1.4,24.0319,24.0319,0,0,0-2.95,1.3q-1.1367.5866-2.25,1.3-.1693.1272-.35.25l-.95.75a5.4245,5.4245,0,0,0-.4.4,11.7339,11.7339,0,0,0-.9,1.15L9,38.3a8.6477,8.6477,0,0,1-1.85-.9,19.68,19.68,0,0,1-1.5-1.55,5.5444,5.5444,0,0,1-.9-1.95,6.7017,6.7017,0,0,1,.5-5.15l-.05.05q.15-.3.3-.55l.1-.2V28a11.6691,11.6691,0,0,1,2-2.55q.4758-.46,1-.9a17.5148,17.5148,0,0,1,2.2-1.4q.175-.0647.35-.15a10.0923,10.0923,0,0,1,5.4-1,3.1667,3.1667,0,0,1,.9.15,1.0088,1.0088,0,0,1,.4.45,2.5118,2.5118,0,0,1,.25.8l-.05.5a1.11,1.11,0,0,1-.15.35.3218.3218,0,0,1-.2.15,4.2026,4.2026,0,0,1-1.5.1.3847.3847,0,0,1-.15-.05,9.522,9.522,0,0,0-3.55.9.1442.1442,0,0,0-.1.05,2.732,2.732,0,0,1-.35.15l-.7.3a.1581.1581,0,0,0-.05.05q-.384.2226-.8.5a10.7951,10.7951,0,0,0-1.35,1.1A11.7439,11.7439,0,0,0,7.8,29.35a6.098,6.098,0,0,0-.75,5.2,3.3237,3.3237,0,0,0,2.05,1.8,9.7551,9.7551,0,0,0,1.1.25A4.4831,4.4831,0,0,1,9.7,35q-.05-.95-.05-1.95a3.65,3.65,0,0,1,.4-1.85q.0588-.1346.15-.3a6.684,6.684,0,0,1,1.6-1.55q.205-.1292.4-.25,1.1249-.6836,2.1-1.15l2.1-.45a8.7731,8.7731,0,0,0,2-.6,1.336,1.336,0,0,1,.35-.25,5.12,5.12,0,0,0,1.65-2.8l.05-1.25A2.6376,2.6376,0,0,0,20.25,21.45Z"/></g><g id="MyAlbum_basic_0_Layer0_0_FILL" data-name="MyAlbum basic 0 Layer0 0 FILL"><path d="M60.9,30.9a1.1654,1.1654,0,0,0-.75,0,1.09,1.09,0,0,0-.55.45l-.2.4L53.3,19.2l.35.2a.8772.8772,0,0,0,.6.15.8923.8923,0,0,0,.55-.25.8352.8352,0,0,0,.3-.55.7511.7511,0,0,0-.05-.6L52,11.2a.9729.9729,0,0,0-.45-.5,1.0712,1.0712,0,0,0-.6-.1l-6.8,1.15a1.2979,1.2979,0,0,0-.55.25,1.288,1.288,0,0,0-.3.55,1.141,1.141,0,0,0,.1.6.805.805,0,0,0,.15.25l-11.4,2.05a.8247.8247,0,0,0,.05-.6.9071.9071,0,0,0-.4-.6.974.974,0,0,0-.7-.15l-7.95,1.15a1.2975,1.2975,0,0,0-.55.25,1.4779,1.4779,0,0,0-.3.5,1.303,1.303,0,0,0,.05.6l2.85,7.05a1.1062,1.1062,0,0,0,.5.55.9262.9262,0,0,0,.7.05.9419.9419,0,0,0,.6-.45l.15-.25L32.9,35.8a.9712.9712,0,0,0-.55-.1.91.91,0,0,0-.5.25,1.1435,1.1435,0,0,0-.35.5,1.33,1.33,0,0,0,.05.6l3,7.8a.9792.9792,0,0,0,.45.5.8623.8623,0,0,0,.7.1l8.05-1.75a.6981.6981,0,0,0,.5-.3.89.89,0,0,0,.2-1.1,1.1121,1.1121,0,0,0-.45-.45l-.65-.35L55.2,39.3l-.15.25a1.1109,1.1109,0,0,0-.1.7,1.0022,1.0022,0,0,0,.4.6,1.0355,1.0355,0,0,0,.75.2l7.85-1.1a.929.929,0,0,0,.55-.3.7926.7926,0,0,0,.25-.55.8574.8574,0,0,0-.05-.6l-3.3-7.1a1.09,1.09,0,0,0-.5-.5M51.95,16.1l-.45-.3a.6823.6823,0,0,1-.15-.05q-.0014.0128-.05,0c-.0013-.0063-.018-.0229-.05-.05L47.1,13.25l3.35-.55,1.5,3.4M46.15,15l4.1,2.4L58.2,33.9l-1.7,3.15L40.6,40l-4.75-2.65L28.4,21.55l2.45-3.85L46.15,15M58,38.45a.6715.6715,0,0,0,.1-.15l2.05-3.75a.1723.1723,0,0,0,.05-.1l.2-.4,1.9,4.1-4.45.6.15-.3M40.05,42l.65.35-4.6,1-1.75-4.5.15.05a.1174.1174,0,0,0,.1.05.1187.1187,0,0,0,.1.05l5.2,2.9a.6177.6177,0,0,0,.15.1M26.35,21.05v.05L24.7,17.05l4.6-.65-2.75,4.4q-.0951.11-.2.25m21.35-4a1.272,1.272,0,0,0-.65-.1L31,19.7a1.2021,1.2021,0,0,0-.8.8,1.0814,1.0814,0,0,0,.1.6l7.6,16.3a.99.99,0,0,0,.45.5.7755.7755,0,0,0,.6.05l16-2.9a.86.86,0,0,0,.8-.8.8916.8916,0,0,0-.05-.6L48.15,17.5a1.1431,1.1431,0,0,0-.45-.45m5.65,16.3-14,2.55-6.7-14.45,14-2.4Z"/><path d="M26.35,21.1v-.05q.1048-.14.2-.25l2.75-4.4-4.6.65,1.65,4.05M40.7,42.35,40.05,42a.6177.6177,0,0,1-.15-.1L34.7,39a.1187.1187,0,0,1-.1-.05.1174.1174,0,0,1-.1-.05l-.15-.05,1.75,4.5,4.6-1M58.1,38.3a.6715.6715,0,0,1-.1.15l-.15.3,4.45-.6-1.9-4.1-.2.4a.1723.1723,0,0,1-.05.1L58.1,38.3M51.5,15.8l.45.3-1.5-3.4-3.35.55,4.15,2.45c.032.0271.0487.0437.05.05q.0486.0128.05,0A.6823.6823,0,0,0,51.5,15.8Z" fill="#7e523d"/><path d="M50.25,17.4,46.15,15l-15.3,2.7L28.4,21.55l7.45,15.8L40.6,40l15.9-2.95,1.7-3.15L50.25,17.4m-3.2-.45a1.272,1.272,0,0,1,.65.1,1.1431,1.1431,0,0,1,.45.45L55.7,33.65a.8916.8916,0,0,1,.05.6.86.86,0,0,1-.8.8l-16,2.9a.7755.7755,0,0,1-.6-.05.99.99,0,0,1-.45-.5L30.3,21.1a1.0814,1.0814,0,0,1-.1-.6,1.2021,1.2021,0,0,1,.8-.8Z" fill="#fafafa"/><path d="M39.35,35.9l14-2.55-6.7-14.3-14,2.4Z" fill="#73b6f3"/></g></svg>