<?xml version="1.0" encoding="UTF-8" standalone="no"?>
<svg
   id="Layer_1"
   data-name="Layer 1"
   width="80"
   height="80"
   viewBox="0 0 80 80"
   version="1.1"
   sodipodi:docname="mymanual-icon.svg"
   inkscape:version="1.3.2 (091e20e, 2023-11-25, custom)"
   xmlns:inkscape="http://www.inkscape.org/namespaces/inkscape"
   xmlns:sodipodi="http://sodipodi.sourceforge.net/DTD/sodipodi-0.dtd"
   xmlns="http://www.w3.org/2000/svg"
   xmlns:svg="http://www.w3.org/2000/svg"
   xmlns:rdf="http://www.w3.org/1999/02/22-rdf-syntax-ns#"
   xmlns:cc="http://creativecommons.org/ns#"
   xmlns:dc="http://purl.org/dc/elements/1.1/">
  <defs
     id="defs22" />
  <sodipodi:namedview
     id="namedview22"
     pagecolor="#ffffff"
     bordercolor="#000000"
     borderopacity="0.25"
     inkscape:showpageshadow="2"
     inkscape:pageopacity="0.0"
     inkscape:pagecheckerboard="0"
     inkscape:deskcolor="#d1d1d1"
     inkscape:zoom="3.18125"
     inkscape:cx="-8.0157171"
     inkscape:cy="39.449902"
     inkscape:window-width="1360"
     inkscape:window-height="705"
     inkscape:window-x="-8"
     inkscape:window-y="-8"
     inkscape:window-maximized="1"
     inkscape:current-layer="Layer_1" />
  <title
     id="title1">myalbum-icon</title>
  <g
     id="MyAlbum_basic_0_Layer2_0_FILL"
     data-name="MyAlbum basic 0 Layer2 0 FILL"
     style="display:inline">
    <path
       d="M 57.5,9 A 2.0377,2.0377 0 0 0 57.4,8.8 7.7343,7.7343 0 0 0 49.3,5.15 q -17.2611,2.6736 -35.8,6.5 a 2.0842,2.0842 0 0 1 -0.25,0.1 11.5175,11.5175 0 0 0 -6.4,5.55 v 0 A 11.916,11.916 0 0 0 5.7,21.45 v 0 L 5.4,25 a 1.6393,1.6393 0 0 0 0.1,0.7 l 18.35,44 a 2.6155,2.6155 0 0 0 0.2,0.35 q 2.9535,4.0958 8.95,3.8 A 0.2821,0.2821 0 0 0 33.15,73.8 L 74.8,67.65 a 0.5186,0.5186 0 0 0 0.2,0 4.7967,4.7967 0 0 0 3.35,-2.45 4.3681,4.3681 0 0 0 -0.1,-4.1 0.0557,0.0557 0 0 0 0,-0.05 L 74.5,53.15 A 4.2734,4.2734 0 0 0 76.35,47.7 0.5679,0.5679 0 0 0 76.3,47.5 L 57.5,9 M 49.75,8.1 a 4.9709,4.9709 0 0 1 5.05,2.25 l 18.15,37.1 0.6,1.2 a 2.1667,2.1667 0 0 1 -1.35,2.4 L 72.15,51.1 H 72.1 l -1,0.15 a 0.2051,0.2051 0 0 1 -0.1,0 q -1.2875,0.2154 -2.6,0.45 a 3.0125,3.0125 0 0 0 -0.7,0.1 l -34.9,5.25 q -0.1381,0.0427 -0.3,0.1 -6.13,2.4608 -4.8,8.05 0.5747,3.1742 4.8,3.8 3.2451,0.569 9.2,-0.75 H 41.6 L 70.85,63.7 a 1.3476,1.3476 0 0 0 0.8,-0.35 1.4524,1.4524 0 0 0 0.45,-0.75 1.3194,1.3194 0 0 0 -0.05,-0.85 8.0459,8.0459 0 0 1 0.15,-6.45 l 3.3,7 a 0.1726,0.1726 0 0 1 0.05,0.05 2.0592,2.0592 0 0 1 0.15,1.5 2.6549,2.6549 0 0 1 -1.55,0.9 l -41.3,6.1 A 7.201,7.201 0 0 1 26.5,68.35 L 8.4,24.95 q 0.1629,-1.6248 0.3,-3.2 a 9.084,9.084 0 0 1 0.85,-3.1 H 9.5 a 8.8421,8.8421 0 0 1 4.6,-4.05 q 0.0324,0.0182 0.05,0 a 1.0862,1.0862 0 0 0 0.2,-0.05 Q 32.6746,10.7588 49.75,8.1 M 68.8,54.65 a 0.9131,0.9131 0 0 0 0.3,-0.05 10.7253,10.7253 0 0 0 -0.4,6.45 l -2.05,0.3 -25.5,3.95 q -0.0231,0.024 -0.1,0 a 23.5038,23.5038 0 0 1 -8.1,0.75 2.5307,2.5307 0 0 1 -2.3,-1.5 Q 30.0379,61.435 33.5,60 l 32.85,-5 2,-0.3 a 0.6951,0.6951 0 0 0 0.2,0 0.6264,0.6264 0 0 0 0.25,-0.05 z"
       id="path10"
       style="display:inline" />
    <path
       d="M 66.3,55.25 Q 66.3281,55.1373 66.35,55 L 33.5,60 q -3.4622,1.4349 -2.85,4.55 a 2.5307,2.5307 0 0 0 2.3,1.5 23.5038,23.5038 0 0 0 8.1,-0.75 q 0.077,0.024 0.1,0 l 25.5,-3.95 a 8.3948,8.3948 0 0 1 -0.35,-1 14.3865,14.3865 0 0 1 -0.3,-2.4 l 0.05,-1.3 z"
       fill="#dcd1b6"
       id="path11" />
    <path
       d="m 69.1,54.6 a 0.9131,0.9131 0 0 1 -0.3,0.05 0.6264,0.6264 0 0 1 -0.25,0.05 0.6951,0.6951 0 0 1 -0.2,0 l -2,0.3 q -0.0219,0.1373 -0.05,0.25 l -0.25,1.4 -0.05,1.3 a 14.3865,14.3865 0 0 0 0.3,2.4 8.3948,8.3948 0 0 0 0.35,1 l 2.05,-0.3 a 10.7253,10.7253 0 0 1 0.4,-6.45 z"
       fill="#ffffff"
       id="path12" />
    <path
       d="m 67.7,51.8 a 3.0125,3.0125 0 0 1 0.7,-0.1 q 1.3125,-0.2346 2.6,-0.45 a 0.2051,0.2051 0 0 0 0.1,0 l 1,-0.15 h 0.05 l 0.05,-0.05 a 2.1667,2.1667 0 0 0 1.35,-2.4 l -0.6,-1.2 a 10.3978,10.3978 0 0 1 -2.4,0.65 l -36.8,6.35 a 1.3054,1.3054 0 0 1 -0.95,-0.1 q -0.55,-0.3 -0.4,-1.25 0.35,-0.9 0.5,-1.35 a 3.3825,3.3825 0 0 0 -0.55,-3.2 3.2273,3.2273 0 0 0 -2.7,-1.4 Q 28.8,47.2 28.4,47.25 A 1.4863,1.4863 0 0 1 27.3,46.85 2.3345,2.3345 0 0 1 26.65,45.55 23.2182,23.2182 0 0 0 25.3,42 q 0.3,-0.2 0.55,-0.4 A 4.2775,4.2775 0 0 0 27,39 a 2.7619,2.7619 0 0 0 0.1,-1.25 7.01,7.01 0 0 0 -0.4,-1.4 l -0.25,-0.5 A 3.3213,3.3213 0 0 0 25.3,34.75 4.0736,4.0736 0 0 0 23.75,34.3 4.3922,4.3922 0 0 0 22.3,34.45 1.26,1.26 0 0 0 22,34.6 q -1.3416,-2.8818 -2.8,-6 0.6053,-0.3539 0.95,-0.6 a 7.4316,7.4316 0 0 0 0.95,-1.1 l 0.05,-0.05 a 3.1437,3.1437 0 0 0 0.4,-1 L 21.6,25.2 a 4.5494,4.5494 0 0 0 0,-1.65 l -0.2,-0.7 a 4.5586,4.5586 0 0 0 -0.7,-1 3.9787,3.9787 0 0 0 -1.55,-0.8 5.341,5.341 0 0 0 -1.8,-0.2 3.0916,3.0916 0 0 0 -1.5,0.5 18.3628,18.3628 0 0 1 -1.2,-3.1 8.9138,8.9138 0 0 1 -0.3,-3.7 1.0862,1.0862 0 0 1 -0.2,0.05 q -0.0176,0.0182 -0.05,0 a 8.8421,8.8421 0 0 0 -4.6,4.05 h 0.05 a 9.084,9.084 0 0 0 -0.85,3.1 q -0.1371,1.5752 -0.3,3.2 l 18.1,43.4 a 7.201,7.201 0 0 0 6.35,2.5 l 41.3,-6.1 a 2.6549,2.6549 0 0 0 1.55,-0.9 2.0592,2.0592 0 0 0 -0.15,-1.5 0.1726,0.1726 0 0 0 -0.05,-0.05 l -3.3,-7 a 8.0459,8.0459 0 0 0 -0.15,6.45 1.3194,1.3194 0 0 1 0.05,0.85 1.4524,1.4524 0 0 1 -0.45,0.75 1.3476,1.3476 0 0 1 -0.8,0.35 L 41.6,68.25 h 0.1 q -5.9549,1.319 -9.2,0.75 -4.2253,-0.6258 -4.8,-3.8 -1.33,-5.5893 4.8,-8.05 0.1619,-0.0573 0.3,-0.1 z"
       fill="#a33b5b"
       id="path13"
       style="display:inline;fill:#0a65b0;fill-opacity:1" />
    <path
       d="M 54.8,10.35 A 4.9709,4.9709 0 0 0 49.75,8.1 q -17.0754,2.6588 -35.4,6.45 a 8.9138,8.9138 0 0 0 0.3,3.7 18.3628,18.3628 0 0 0 1.2,3.1 3.0916,3.0916 0 0 1 1.5,-0.5 5.341,5.341 0 0 1 1.8,0.2 3.9787,3.9787 0 0 1 1.55,0.8 4.5586,4.5586 0 0 1 0.7,1 l 0.2,0.7 a 4.5494,4.5494 0 0 1 0,1.65 l -0.05,0.65 a 3.1437,3.1437 0 0 1 -0.4,1 L 21.1,26.9 A 7.4316,7.4316 0 0 1 20.15,28 q -0.3447,0.2462 -0.95,0.6 1.4585,3.1182 2.8,6 a 1.26,1.26 0 0 1 0.3,-0.15 4.3922,4.3922 0 0 1 1.45,-0.15 4.0736,4.0736 0 0 1 1.55,0.45 3.3213,3.3213 0 0 1 1.15,1.1 l 0.25,0.5 a 7.01,7.01 0 0 1 0.4,1.4 A 2.7619,2.7619 0 0 1 27,39 4.2775,4.2775 0 0 1 25.85,41.6 Q 25.6,41.8 25.3,42 a 23.2182,23.2182 0 0 1 1.35,3.55 2.3345,2.3345 0 0 0 0.65,1.3 1.4863,1.4863 0 0 0 1.1,0.4 q 0.4,-0.05 1.25,-0.1 a 3.2273,3.2273 0 0 1 2.7,1.4 3.3825,3.3825 0 0 1 0.55,3.2 q -0.15,0.45 -0.5,1.35 -0.15,0.95 0.4,1.25 a 1.3054,1.3054 0 0 0 0.95,0.1 l 36.8,-6.35 a 10.3978,10.3978 0 0 0 2.4,-0.65 z"
       fill="#c25174"
       id="path14"
       style="display:inline;fill:#21b7f3;fill-opacity:1" />
  </g>
  <g
     id="MyAlbum_basic_0_Layer1_0_FILL"
     data-name="MyAlbum basic 0 Layer1 0 FILL"
     style="display:inline">
    <path
       d="m 23.45,56.25 a 6.2175,6.2175 0 0 0 -1.7,1.7 q 1.0879,2.434 2.2,4.9 A 19.7776,19.7776 0 0 0 25.6,66 q 0.7,0.95 1.3,0.5 0.45,-0.25 0.2,-1.25 a 31.95,31.95 0 0 0 -1.25,-3.6 q -0.6374,-1.58 -2.3,-5.5 a 0.3366,0.3366 0 0 1 -0.1,0.1 M 17.75,42.5 q -0.1947,0.1209 -0.4,0.25 a 6.9993,6.9993 0 0 0 -1.65,1.6 q 1.1458,2.5614 2.3,5.2 1.0874,-0.7288 2.2,-1.35 -0.3349,-0.7908 -0.7,-1.65 L 17.75,42.5 M 12.2,29.1 q -0.1948,0.1209 -0.4,0.25 a 6.684,6.684 0 0 0 -1.6,1.55 q 0.3674,1.0635 1.25,3.45 0.329,0.7753 0.65,1.55 1.1133,-0.7132 2.25,-1.3 -1.4,-3.267 -2.15,-5.5 M 10.65,20.3 A 1.377,1.377 0 0 0 10.7,20 1.2174,1.2174 0 0 0 10.55,19.15 Q 10.2,18.65 9.6,19.05 A 2.0432,2.0432 0 0 0 8.9,19.9 7.1545,7.1545 0 0 0 8.5,21.35 q 1.0835,-0.5733 2.15,-1.05 z"
       fill="#c25174"
       id="path15"
       style="display:inline;fill:#0a65b0;fill-opacity:1" />
    <path
       d="m 16.9,55.65 q 0.2633,-0.2573 0.5,-0.5 a 2.1943,2.1943 0 0 0 0.3,-0.25 20.0814,20.0814 0 0 1 2,-1.5 23.29,23.29 0 0 1 2.15,-1.25 h 0.05 a 10.8909,10.8909 0 0 1 1.7,-0.65 15.6877,15.6877 0 0 1 3.1,-0.9 q 0.9,-0.05 1.4,-0.05 0.45,0.2 1.35,0.55 a 0.1442,0.1442 0 0 0 0.1,0.05 1.11,1.11 0 0 0 0.15,-0.35 l 0.05,-0.5 a 2.5118,2.5118 0 0 0 -0.25,-0.8 1.0088,1.0088 0 0 0 -0.4,-0.45 3.1667,3.1667 0 0 0 -0.9,-0.15 10.0923,10.0923 0 0 0 -5.4,1 q -0.8009,0.3906 -1.55,0.85 a 13.8116,13.8116 0 0 0 -2,1.6 12.2347,12.2347 0 0 0 -1.75,2.1 q -0.126,0.2385 -0.25,0.45 v 0.05 l -0.1,0.2 A 0.131,0.131 0 0 1 17.1,55.2 q -0.12,0.2407 -0.25,0.5 L 16.9,55.65 M 16.7,36.4 q -0.6613,0.3227 -1.3,0.7 a 13.8809,13.8809 0 0 0 -2.1,1.6 q -0.0749,0.0774 -0.15,0.15 a 11.1443,11.1443 0 0 0 -1.45,1.7 q -0.2916,0.4094 -0.55,0.85 v 0.05 l -0.1,0.2 a 1.3144,1.3144 0 0 1 -0.15,0.2 3.0347,3.0347 0 0 1 -0.15,0.35 l 0.05,-0.05 q 0.156,-0.1525 0.3,-0.3 0.4324,-0.3884 0.85,-0.75 a 20.5356,20.5356 0 0 1 1.8,-1.3 18.9705,18.9705 0 0 1 2.05,-1.15 1.2968,1.2968 0 0 0 0.25,-0.15 12.1544,12.1544 0 0 1 1.45,-0.5 15.6877,15.6877 0 0 1 3.1,-0.9 q 0.9,-0.05 1.4,-0.05 0.45,0.2 1.35,0.55 a 0.1442,0.1442 0 0 0 0.1,0.05 1.11,1.11 0 0 0 0.15,-0.35 l 0.05,-0.5 A 2.5118,2.5118 0 0 0 23.4,36 1.0088,1.0088 0 0 0 23,35.55 3.1667,3.1667 0 0 0 22.1,35.4 a 10.0923,10.0923 0 0 0 -5.4,1 M 5.2,28.8 5.25,28.75 A 18.61,18.61 0 0 1 8.85,26 q 0.6776,-0.4016 1.4,-0.75 0.4588,-0.2086 0.8,-0.35 a 8.0241,8.0241 0 0 1 0.9,-0.3 15.6877,15.6877 0 0 1 3.1,-0.9 q 0.9,-0.05 1.4,-0.05 0.45,0.2 1.35,0.55 a 0.1442,0.1442 0 0 0 0.1,0.05 1.11,1.11 0 0 0 0.15,-0.35 l 0.05,-0.5 a 2.5118,2.5118 0 0 0 -0.25,-0.8 1.0088,1.0088 0 0 0 -0.4,-0.45 3.1667,3.1667 0 0 0 -0.9,-0.15 10.0923,10.0923 0 0 0 -5.4,1 q -0.1751,0.0853 -0.35,0.15 a 17.5148,17.5148 0 0 0 -2.2,1.4 q -0.5242,0.44 -1,0.9 A 11.6691,11.6691 0 0 0 5.6,28 v 0.05 l -0.1,0.2 Q 5.35,28.5 5.2,28.8 Z"
       fill="#cccccc"
       id="path16"
       style="display:inline" />
    <path
       d="m 17.4,55.15 q -0.2367,0.2429 -0.5,0.5 a 6.7017,6.7017 0 0 0 -0.5,5.15 5.5444,5.5444 0 0 0 0.9,1.95 19.68,19.68 0 0 0 1.5,1.55 8.6477,8.6477 0 0 0 1.85,0.9 l 0.7,0.2 a 5.9664,5.9664 0 0 0 1.3,0.25 7.2067,7.2067 0 0 1 -0.8,-2.15 9.7551,9.7551 0 0 1 -1.1,-0.25 3.3237,3.3237 0 0 1 -2.05,-1.8 6.098,6.098 0 0 1 0.75,-5.2 10.5107,10.5107 0 0 1 0.95,-1.35 8.6921,8.6921 0 0 1 1.75,-1.6 l 0.15,-0.1 q 0.3725,-0.2453 0.7,-0.45 l 0.7,-0.3 a 2.732,2.732 0 0 0 0.35,-0.15 0.1442,0.1442 0 0 1 0.1,-0.05 9.522,9.522 0 0 1 3.55,-0.9 0.3847,0.3847 0 0 0 0.15,0.05 4.2026,4.2026 0 0 0 1.5,-0.1 0.3218,0.3218 0 0 0 0.2,-0.15 0.1442,0.1442 0 0 1 -0.1,-0.05 q -0.9,-0.35 -1.35,-0.55 -0.5,0 -1.4,0.05 a 15.6877,15.6877 0 0 0 -3.1,0.9 10.8909,10.8909 0 0 0 -1.7,0.65 h -0.05 a 23.29,23.29 0 0 0 -2.15,1.25 20.0814,20.0814 0 0 0 -2,1.5 2.1943,2.1943 0 0 1 -0.3,0.25 m -6.3,-13.3 q -0.144,0.1474 -0.3,0.3 a 6.7017,6.7017 0 0 0 -0.5,5.15 5.5444,5.5444 0 0 0 0.9,1.95 19.68,19.68 0 0 0 1.5,1.55 8.6477,8.6477 0 0 0 1.85,0.9 l 0.7,0.2 q 0.1638,0.05 0.3,0.1 0.3246,-0.4352 0.6,-0.8 -0.4734,-1.09 -0.4,-1.2 a 9.7551,9.7551 0 0 1 -1.1,-0.25 3.3237,3.3237 0 0 1 -2.05,-1.8 6.098,6.098 0 0 1 0.75,-5.2 11.9873,11.9873 0 0 1 1.05,-1.5 9.3736,9.3736 0 0 1 1.65,-1.45 4.2827,4.2827 0 0 0 0.4,-0.3 q 0.2452,-0.1221 0.45,-0.25 l 0.7,-0.3 a 2.732,2.732 0 0 0 0.35,-0.15 0.1442,0.1442 0 0 1 0.1,-0.05 9.522,9.522 0 0 1 3.55,-0.9 0.3847,0.3847 0 0 0 0.15,0.05 4.2026,4.2026 0 0 0 1.5,-0.1 0.3218,0.3218 0 0 0 0.2,-0.15 0.1442,0.1442 0 0 1 -0.1,-0.05 q -0.9,-0.35 -1.35,-0.55 -0.5,0 -1.4,0.05 a 15.6877,15.6877 0 0 0 -3.1,0.9 12.1544,12.1544 0 0 0 -1.45,0.5 1.2968,1.2968 0 0 1 -0.25,0.15 18.9705,18.9705 0 0 0 -2.05,1.15 20.5356,20.5356 0 0 0 -1.8,1.3 q -0.4176,0.3616 -0.85,0.75 M 8.85,26 a 18.61,18.61 0 0 0 -3.6,2.75 6.7017,6.7017 0 0 0 -0.5,5.15 5.5444,5.5444 0 0 0 0.9,1.95 19.68,19.68 0 0 0 1.5,1.55 8.6477,8.6477 0 0 0 1.85,0.9 l 0.5,0.15 A 11.7339,11.7339 0 0 1 10.4,37.3 Q 10.1454,36.6819 10.2,36.6 A 9.7551,9.7551 0 0 1 9.1,36.35 3.3237,3.3237 0 0 1 7.05,34.55 6.098,6.098 0 0 1 7.8,29.35 11.7439,11.7439 0 0 1 9.15,27.5 10.7951,10.7951 0 0 1 10.5,26.4 q 0.416,-0.2773 0.8,-0.5 a 0.1581,0.1581 0 0 1 0.05,-0.05 l 0.7,-0.3 a 2.732,2.732 0 0 0 0.35,-0.15 0.1442,0.1442 0 0 1 0.1,-0.05 9.522,9.522 0 0 1 3.55,-0.9 0.3847,0.3847 0 0 0 0.15,0.05 4.2026,4.2026 0 0 0 1.5,-0.1 0.3218,0.3218 0 0 0 0.2,-0.15 0.1442,0.1442 0 0 1 -0.1,-0.05 q -0.9,-0.35 -1.35,-0.55 -0.5,0 -1.4,0.05 a 15.6877,15.6877 0 0 0 -3.1,0.9 8.0241,8.0241 0 0 0 -0.9,0.3 q -0.3413,0.1414 -0.8,0.35 -0.7224,0.3485 -1.4,0.75 z"
       fill="#999999"
       id="path17"
       style="display:inline" />
    <path
       d="m 20.25,21.45 -0.4,-0.5 a 5.0816,5.0816 0 0 0 -1.3,-1.15 l -0.7,-0.3 a 9.3977,9.3977 0 0 0 -6.1,0.4 q -0.5369,0.1944 -1.1,0.4 -1.0667,0.4767 -2.15,1.05 a 26.3313,26.3313 0 0 0 -2.3,1.4 L 5.25,23.5 A 13.4866,13.4866 0 0 0 3,26.55 q -0.45,0.9 -0.8,1.7 A 12.6888,12.6888 0 0 0 1.6,30.5 q -0.15,1.15 -0.2,1.45 a 5.3586,5.3586 0 0 0 0.05,1.2 l 0.2,1.3 A 18.9227,18.9227 0 0 0 2.8,37.5 q 0.25,0.4 0.45,0.8 a 8.4491,8.4491 0 0 0 3.2,2.65 12.6906,12.6906 0 0 0 1.4,0.5 2.1936,2.1936 0 0 0 -0.1,0.2 12.6888,12.6888 0 0 0 -0.6,2.25 Q 7,45.05 6.95,45.35 A 5.3586,5.3586 0 0 0 7,46.55 l 0.2,1.3 a 18.9227,18.9227 0 0 0 1.15,3.05 q 0.25,0.4 0.45,0.8 a 8.4491,8.4491 0 0 0 3.2,2.65 14.28,14.28 0 0 0 1.75,0.6 q 0.0835,0.0244 0.15,0.05 a 0.8249,0.8249 0 0 1 -0.05,0.15 12.6888,12.6888 0 0 0 -0.6,2.25 q -0.15,1.15 -0.2,1.45 a 5.3586,5.3586 0 0 0 0.05,1.2 l 0.2,1.3 a 18.9227,18.9227 0 0 0 1.15,3.05 q 0.25,0.4 0.45,0.8 a 8.4491,8.4491 0 0 0 3.2,2.65 14.28,14.28 0 0 0 1.75,0.6 7.6092,7.6092 0 0 0 2.45,0.3 2.3024,2.3024 0 0 0 1.6,-0.3 0.3264,0.3264 0 0 1 -0.15,-0.15 6.859,6.859 0 0 0 -0.35,-0.7 q -0.3,-0.8 -0.6,-1.65 a 0.4322,0.4322 0 0 1 -0.15,-0.3 5.9664,5.9664 0 0 1 -1.3,-0.25 l -0.7,-0.2 A 8.6477,8.6477 0 0 1 18.8,64.3 19.68,19.68 0 0 1 17.3,62.75 5.5444,5.5444 0 0 1 16.4,60.8 6.7017,6.7017 0 0 1 16.9,55.65 l -0.05,0.05 q 0.13,-0.2592 0.25,-0.5 a 0.131,0.131 0 0 0 0.05,-0.05 l 0.1,-0.2 V 54.9 q 0.124,-0.2115 0.25,-0.45 a 12.2347,12.2347 0 0 1 1.75,-2.1 13.8116,13.8116 0 0 1 2,-1.6 q 0.7493,-0.4595 1.55,-0.85 a 10.0923,10.0923 0 0 1 5.4,-1 3.1667,3.1667 0 0 1 0.9,0.15 1.0088,1.0088 0 0 1 0.4,0.45 2.5118,2.5118 0 0 1 0.25,0.8 l -0.05,0.5 a 1.11,1.11 0 0 1 -0.15,0.35 0.3218,0.3218 0 0 1 -0.2,0.15 4.2026,4.2026 0 0 1 -1.5,0.1 0.3847,0.3847 0 0 1 -0.15,-0.05 9.522,9.522 0 0 0 -3.55,0.9 0.1442,0.1442 0 0 0 -0.1,0.05 2.732,2.732 0 0 1 -0.35,0.15 l -0.7,0.3 q -0.3276,0.2047 -0.7,0.45 l -0.15,0.1 a 8.6921,8.6921 0 0 0 -1.75,1.6 10.5107,10.5107 0 0 0 -0.95,1.35 6.098,6.098 0 0 0 -0.75,5.2 3.3237,3.3237 0 0 0 2.05,1.8 9.7551,9.7551 0 0 0 1.1,0.25 4.4831,4.4831 0 0 1 -0.5,-1.6 Q 21.3,60.95 21.3,59.95 a 3.65,3.65 0 0 1 0.4,-1.85 1.0057,1.0057 0 0 0 0.05,-0.15 6.2175,6.2175 0 0 1 1.7,-1.7 0.3366,0.3366 0 0 0 0.1,-0.1 q 1.2992,-0.7734 2.4,-1.3 l 2.1,-0.45 a 8.7731,8.7731 0 0 0 2,-0.6 1.336,1.336 0 0 1 0.35,-0.25 5.12,5.12 0 0 0 1.65,-2.8 L 32.1,49.5 a 2.6376,2.6376 0 0 0 -0.2,-1.15 l -0.4,-0.5 A 5.0816,5.0816 0 0 0 30.2,46.7 l -0.7,-0.3 a 9.3977,9.3977 0 0 0 -6.1,0.4 27.0087,27.0087 0 0 0 -3.2,1.4 q -1.1127,0.6212 -2.2,1.35 -0.0711,0.0465 -0.15,0.1 L 16.9,50.4 a 7.2011,7.2011 0 0 0 -0.75,0.8 q -0.2754,0.3648 -0.6,0.8 -0.1362,-0.05 -0.3,-0.1 l -0.7,-0.2 A 8.6477,8.6477 0 0 1 12.7,50.8 19.68,19.68 0 0 1 11.2,49.25 5.5444,5.5444 0 0 1 10.3,47.3 6.7017,6.7017 0 0 1 10.8,42.15 l -0.05,0.05 a 3.0347,3.0347 0 0 0 0.15,-0.35 1.3144,1.3144 0 0 0 0.15,-0.2 l 0.1,-0.2 V 41.4 q 0.2584,-0.4407 0.55,-0.85 a 11.1443,11.1443 0 0 1 1.45,-1.7 q 0.0752,-0.0726 0.15,-0.15 a 13.8809,13.8809 0 0 1 2.1,-1.6 q 0.6387,-0.3774 1.3,-0.7 a 10.0923,10.0923 0 0 1 5.4,-1 3.1667,3.1667 0 0 1 0.9,0.15 1.0088,1.0088 0 0 1 0.4,0.45 2.5118,2.5118 0 0 1 0.25,0.8 l -0.05,0.5 a 1.11,1.11 0 0 1 -0.15,0.35 0.3218,0.3218 0 0 1 -0.2,0.15 4.2026,4.2026 0 0 1 -1.5,0.1 0.3847,0.3847 0 0 1 -0.15,-0.05 9.522,9.522 0 0 0 -3.55,0.9 0.1442,0.1442 0 0 0 -0.1,0.05 2.732,2.732 0 0 1 -0.35,0.15 l -0.7,0.3 q -0.2047,0.1279 -0.45,0.25 a 4.2827,4.2827 0 0 1 -0.4,0.3 9.3736,9.3736 0 0 0 -1.65,1.45 11.9873,11.9873 0 0 0 -1.05,1.5 6.098,6.098 0 0 0 -0.75,5.2 3.3237,3.3237 0 0 0 2.05,1.8 9.7551,9.7551 0 0 0 1.1,0.25 4.4831,4.4831 0 0 1 -0.5,-1.6 Q 15.2,47.45 15.2,46.45 a 3.65,3.65 0 0 1 0.4,-1.85 q 0.0545,-0.1247 0.1,-0.25 a 6.9993,6.9993 0 0 1 1.65,-1.6 q 0.2052,-0.1292 0.4,-0.25 1.1249,-0.6835 2.1,-1.15 l 2.1,-0.45 a 8.7731,8.7731 0 0 0 2,-0.6 1.336,1.336 0 0 1 0.35,-0.25 5.12,5.12 0 0 0 1.65,-2.8 L 26,36 a 2.6376,2.6376 0 0 0 -0.2,-1.15 l -0.4,-0.5 A 5.0816,5.0816 0 0 0 24.1,33.2 l -0.7,-0.3 a 9.3977,9.3977 0 0 0 -6.1,0.4 24.0319,24.0319 0 0 0 -2.95,1.3 q -1.1367,0.5866 -2.25,1.3 -0.1693,0.1272 -0.35,0.25 L 10.8,36.9 a 5.4245,5.4245 0 0 0 -0.4,0.4 11.7339,11.7339 0 0 0 -0.9,1.15 L 9,38.3 A 8.6477,8.6477 0 0 1 7.15,37.4 19.68,19.68 0 0 1 5.65,35.85 5.5444,5.5444 0 0 1 4.75,33.9 6.7017,6.7017 0 0 1 5.25,28.75 L 5.2,28.8 q 0.15,-0.3 0.3,-0.55 l 0.1,-0.2 V 28 a 11.6691,11.6691 0 0 1 2,-2.55 q 0.4758,-0.46 1,-0.9 a 17.5148,17.5148 0 0 1 2.2,-1.4 Q 10.975,23.0853 11.15,23 a 10.0923,10.0923 0 0 1 5.4,-1 3.1667,3.1667 0 0 1 0.9,0.15 1.0088,1.0088 0 0 1 0.4,0.45 2.5118,2.5118 0 0 1 0.25,0.8 l -0.05,0.5 a 1.11,1.11 0 0 1 -0.15,0.35 0.3218,0.3218 0 0 1 -0.2,0.15 4.2026,4.2026 0 0 1 -1.5,0.1 0.3847,0.3847 0 0 1 -0.15,-0.05 9.522,9.522 0 0 0 -3.55,0.9 0.1442,0.1442 0 0 0 -0.1,0.05 2.732,2.732 0 0 1 -0.35,0.15 l -0.7,0.3 A 0.1581,0.1581 0 0 0 11.3,25.9 q -0.384,0.2226 -0.8,0.5 A 10.7951,10.7951 0 0 0 9.15,27.5 11.7439,11.7439 0 0 0 7.8,29.35 6.098,6.098 0 0 0 7.05,34.55 3.3237,3.3237 0 0 0 9.1,36.35 9.7551,9.7551 0 0 0 10.2,36.6 4.4831,4.4831 0 0 1 9.7,35 Q 9.65,34.05 9.65,33.05 a 3.65,3.65 0 0 1 0.4,-1.85 q 0.0588,-0.1346 0.15,-0.3 a 6.684,6.684 0 0 1 1.6,-1.55 q 0.205,-0.1292 0.4,-0.25 1.1249,-0.6836 2.1,-1.15 l 2.1,-0.45 a 8.7731,8.7731 0 0 0 2,-0.6 1.336,1.336 0 0 1 0.35,-0.25 5.12,5.12 0 0 0 1.65,-2.8 l 0.05,-1.25 a 2.6376,2.6376 0 0 0 -0.2,-1.15 z"
       id="path18"
       style="display:inline" />
  </g>
  <metadata
     id="metadata22">
    <rdf:RDF>
      <cc:Work
         rdf:about="">
        <dc:title>myalbum-icon</dc:title>
      </cc:Work>
    </rdf:RDF>
  </metadata>
</svg>
