<svg id="Layer_1" data-name="Layer 1" xmlns="http://www.w3.org/2000/svg" width="80" height="80" viewBox="0 0 80 80"><title>mypets-icon</title><g id="MyPets_basic_0_Layer1_0_FILL" data-name="MyPets basic 0 Layer1 0 FILL"><path d="M65.1361,22.1386a8.7844,8.7844,0,0,0-.1631-3.0177,10.6166,10.6166,0,0,0-3.0992-5.79,9.806,9.806,0,0,0-6.0352-2.61,15.7168,15.7168,0,0,0-3.2623.2447,12.8088,12.8088,0,0,0-3.7516,1.1418A17.03,17.03,0,0,0,44.4205,15.94a29.3082,29.3082,0,0,0-4.8934,8.1557A15.3,15.3,0,0,0,38.63,32.66a1.137,1.137,0,0,1-.1631,0q-2.2518-.1364-3.5886-.0816a1.121,1.121,0,0,1-.0815-.1631Q30.9636,22.8726,31.616,16.43a1.3289,1.3289,0,0,1,.3263-.9786,1.1009,1.1009,0,0,1,1.06-.1632,38.6313,38.6313,0,0,0,4.8934-.1631,18.0256,18.0256,0,0,0,4.73-1.3049,6.2185,6.2185,0,0,0,3.2623-3.507,5.5139,5.5139,0,0,0-.2447-4.2409A7.8743,7.8743,0,0,0,42.871,2.7279Q39.5271.689,34.389,1.423a12.9787,12.9787,0,0,0-2.6914.734,11.5525,11.5525,0,0,0-6.7693,6.6061,17.818,17.818,0,0,0-1.2233,9.5423,35.9925,35.9925,0,0,0,2.61,9.2975q.3546.886.734,1.7127L25.173,27.44l-2.6914-1.7943a25.02,25.02,0,0,0-4.4857-2.0389,2.2184,2.2184,0,0,0-1.55-.0816,2.1461,2.1461,0,0,0-.9787,1.3865,10.0981,10.0981,0,0,0-.3262,2.61,54.0524,54.0524,0,0,0,1.55,11.2549L17.9959,43.18l.4894.9787h0q-.1683.568-.3263,1.1418a12.2708,12.2708,0,0,0-.2446,6.1168,15.3165,15.3165,0,0,0,7.34,9.7053,22.7812,22.7812,0,0,0,8.7267,3.0992A12.2758,12.2758,0,0,0,30.23,69.605a18.3412,18.3412,0,0,0-1.2233,6.9324,2.3362,2.3362,0,0,0,.2447,1.06,2.1276,2.1276,0,0,0,1.3049.6525,37.4519,37.4519,0,0,0,15.17.3262,3.1892,3.1892,0,0,0,1.55-.5709,2.6507,2.6507,0,0,0,.734-1.3864,7.4742,7.4742,0,0,0,.1631-2.773,15.24,15.24,0,0,0-3.7517-8.8082q-.3192-.3651-.6524-.734a21.7284,21.7284,0,0,0,10.1947-3.9963A15.5055,15.5055,0,0,0,58.53,55.2509a9.8486,9.8486,0,0,0,1.1418-6.443A12.7663,12.7663,0,0,0,56.41,42.61a14.2792,14.2792,0,0,1-1.2234-1.7943,8.0127,8.0127,0,0,1-.0815-2.7729,47.5813,47.5813,0,0,0,0-7.9111,13.2959,13.2959,0,0,0-.8156-4.241,2.3722,2.3722,0,0,0-1.468-1.3865,2.5924,2.5924,0,0,0-1.9574.9787,47.9782,47.9782,0,0,0-6.9324,8.0742q.0533-.2616-.8971-.4078-.2358-.05-.4894-.0815v-.0816a18.3246,18.3246,0,0,1,3.507-7.4217,18.1364,18.1364,0,0,1,6.1168-5.22,20.8338,20.8338,0,0,0,5.8721,5.1381q2.773,1.6313,4.5673.8972,2.202-.8971,2.5282-4.241M59.4271,12.107l.8972.6525a5.5633,5.5633,0,0,1,1.1418,1.1418,11.7173,11.7173,0,0,1,2.2836,4.241,4.1553,4.1553,0,0,1,.0815,1.8758,3.0938,3.0938,0,0,1-.2446,1.468.92.92,0,0,1,.0815.2447,1.4,1.4,0,0,1-.0815,1.2233,3.3227,3.3227,0,0,1-2.8546,1.9574,5.3031,5.3031,0,0,1-2.6914-.8156A10.9541,10.9541,0,0,1,54.289,20.589q-.8972-1.3864-1.6312-1.4681a1.8967,1.8967,0,0,0-1.1418.2447,11.2559,11.2559,0,0,0-1.9573,1.1418q-6.3615,4.6488-7.9927,10.3578a9.89,9.89,0,0,1-.5709,1.3049,1.19,1.19,0,0,1-1.3049.4078,1.0678,1.0678,0,0,1-.4893-1.06q0-.1632.1631-1.2234l.0815-1.7127q.0816-2.61,2.6914-7.0139a31.8281,31.8281,0,0,1,3.9964-5.7091A11.2676,11.2676,0,0,1,52.0054,12.27l1.2234-.0815a1.7641,1.7641,0,0,0,.1631.0815q.0641-.1477.1631-.3262a1.7669,1.7669,0,0,1,1.1418-.8971,7.7809,7.7809,0,0,1,1.55-.0816,8.975,8.975,0,0,1,3.1807,1.1418M40.18,2.81l1.2233.4893a6.3835,6.3835,0,0,1,1.7127,1.7127l.8156,1.1418a4.1831,4.1831,0,0,1,.734,1.468,1.2,1.2,0,0,1-.3262.7341l.0815.0815a1.0675,1.0675,0,0,1,.4894.4894.8645.8645,0,0,1,0,.734,2.3058,2.3058,0,0,1-.6525,1.06,2.3009,2.3009,0,0,1-.2446.3263,2.3643,2.3643,0,0,1-1.06.734,12.9212,12.9212,0,0,1-4.8119,2.1205,20.0429,20.0429,0,0,1-6.7692.1631.85.85,0,0,0-.4894.0815l-.1631.2447a12.9817,12.9817,0,0,0-.8156,4.8119l.3262,2.61q.9787,6.1985,2.6914,9.0529.8157,1.3864.4894,2.039a1.12,1.12,0,0,1-1.3865.734A2.3781,2.3781,0,0,1,30.23,32.4964a5.4526,5.4526,0,0,1-.9786-1.9574l-3.507-9.2976q-.0816-.4893-.3262-3.1807a27.006,27.006,0,0,1,.4077-6.9324,17.599,17.599,0,0,1,2.3652-4.975,2.66,2.66,0,0,1,.8156-.9787,1.2682,1.2682,0,0,1,.8156-.2447,4.5453,4.5453,0,0,1,.3262-.734.8828.8828,0,0,1,.3262-.4078.7963.7963,0,0,1,.5709-.1631l.6525-.3262A18.8391,18.8391,0,0,1,33.41,2.4832a8.2017,8.2017,0,0,1,3.8332-.4893A7.9845,7.9845,0,0,1,40.18,2.81M17.425,25.2378a1.593,1.593,0,0,1,1.6312.3262q1.6311.8971,5.6274,3.7516l3.5886,3.0177q.4893.4893,1.3864,1.468a2.7337,2.7337,0,0,0,1.55.8971,3.496,3.496,0,0,0,1.8759-.2446,6.3245,6.3245,0,0,1,1.8758-.571.643.643,0,0,1,.8156.2447.6325.6325,0,0,1-.1632.734l-.2446.0816a17.86,17.86,0,0,1,7.6664-.5709,2.1639,2.1639,0,0,0,1.3864-.0816,2.7987,2.7987,0,0,0,.8156-.8155,25.44,25.44,0,0,1,5.8722-6.7693,1.6044,1.6044,0,0,1,1.6311-.5709q.7341.1631,1.06,1.6311a28.39,28.39,0,0,1,.3262,4.73q-.0816,1.6311-.1631,4.8119,0,4.2409,1.3864,6.3614l1.305,1.7127a9.7035,9.7035,0,0,1,1.06,4.8119,8.15,8.15,0,0,1-.1631,1.7943.7843.7843,0,0,1,.2447.8971,2.93,2.93,0,0,1-.5709,1.06L55.3492,56.23a18.517,18.517,0,0,1-2.936,2.9361A17.7691,17.7691,0,0,1,44.7468,62.51a37.65,37.65,0,0,1-6.0353.4894q-7.2587.3263-11.5811-1.7943a15.8885,15.8885,0,0,1-4.73-3.67,14.24,14.24,0,0,1-3.5069-6.443,11.5337,11.5337,0,0,1,.4893-7.1771l.2447-.734L19.464,42.61A36.7522,36.7522,0,0,1,16.61,27.1951q0-1.55.8155-1.9573M42.6263,66.18l.8156.5709q.0815.163.734,1.3865l.4893,1.1418q.6525.0816.9787,1.3049l1.1418,3.67a2.4022,2.4022,0,0,1-.4078,1.55l-.734.6524a8.0851,8.0851,0,0,1-2.0389.8972,16.3694,16.3694,0,0,1-3.3439.2446l-2.202-.0815a2.0709,2.0709,0,0,1-.8156-.2447,1.2933,1.2933,0,0,1-.6525-.5709H36.51a.9334.9334,0,0,1-.4894.8156,3.6512,3.6512,0,0,1-1.06.0815l-2.773-.5709q-1.3865-.3261-1.55-.9786a1.975,1.975,0,0,1-.0815-.8156l.1631-2.2836.6525-2.3652a11.7029,11.7029,0,0,1,4.4856-6.1168l.9787-.5709a4.8673,4.8673,0,0,1,3.0992.2447,1.4615,1.4615,0,0,1,.734.4893q.2335.5448-.4078.8156a.88.88,0,0,0,.3262.0815q.411.0277.7341.0816A2.3661,2.3661,0,0,1,42.6263,66.18Z"/><path d="M36.8357,63.896l-.9787.5709a11.7029,11.7029,0,0,0-4.4856,6.1168l-.6525,2.3652-.1631,2.2836a1.975,1.975,0,0,0,.0815.8156q.1632.6523,1.55.9786l2.773.5709a3.6512,3.6512,0,0,0,1.06-.0815.9334.9334,0,0,0,.4894-.8156h.0815a.6664.6664,0,0,1-.0815-.1631h0a1.335,1.335,0,0,0-.1631-.734,1.6574,1.6574,0,0,0-.2447-.2447l-.1631-.5709-.1631-1.1418-.0816-2.1205.0816-1.1418a7.95,7.95,0,0,1,1.55-3.3439l.4894-.5709.9787-.6524a8.9614,8.9614,0,0,1,1.7942-.4894.88.88,0,0,1-.3262-.0815q.6414-.2707.4078-.8156a1.4615,1.4615,0,0,0-.734-.4893,4.8673,4.8673,0,0,0-3.0992-.2447m-17.78-38.332a1.593,1.593,0,0,0-1.6312-.3262q-.8156.4077-.8155,1.9573A36.7522,36.7522,0,0,0,19.464,42.61l.1631.5709-.2447.734a11.5337,11.5337,0,0,0-.4893,7.1771A14.24,14.24,0,0,0,22.4,57.5345a15.8885,15.8885,0,0,0,4.73,3.67q4.3226,2.1205,11.5811,1.7943a37.65,37.65,0,0,0,6.0353-.4894,17.7691,17.7691,0,0,0,7.6664-3.3438,18.517,18.517,0,0,0,2.936-2.9361l1.8759-2.2836a2.93,2.93,0,0,0,.5709-1.06.7843.7843,0,0,0-.2447-.8971,1.6423,1.6423,0,0,0-.1631-.0816q-.6525-.163-1.3049.6525a32.5211,32.5211,0,0,1-3.507,3.67,17.5989,17.5989,0,0,1-3.4254,1.8758l-5.4644.9787a16.2662,16.2662,0,0,1-8.5635-1.55,17.2159,17.2159,0,0,1-6.8508-5.5459l-.8156-1.1418a13.5758,13.5758,0,0,1-1.468-5.7906,9.5361,9.5361,0,0,1,.2446-2.5283,8.4093,8.4093,0,0,1,2.2836-3.5069,17.7218,17.7218,0,0,1,2.2837-1.8759A20.4106,20.4106,0,0,1,34.96,35.1878l.4078-.2447.2446-.0816a.6325.6325,0,0,0,.1632-.734.643.643,0,0,0-.8156-.2447,6.3245,6.3245,0,0,0-1.8758.571,3.496,3.496,0,0,1-1.8759.2446,2.7337,2.7337,0,0,1-1.55-.8971q-.897-.9787-1.3864-1.468l-3.5886-3.0177q-3.9963-2.8545-5.6274-3.7516m9.95-20.3894a2.66,2.66,0,0,0-.8156.9787,17.599,17.599,0,0,0-2.3652,4.975,27.006,27.006,0,0,0-.4077,6.9324q.2447,2.6914.3262,3.1807l3.507,9.2976a5.4526,5.4526,0,0,0,.9786,1.9574,2.3781,2.3781,0,0,0,1.7943,1.1418,1.12,1.12,0,0,0,1.3865-.734q.3263-.6525-.4894-2.039-1.7127-2.8545-2.6914-9.0529l-.3262-2.61a12.9817,12.9817,0,0,1,.8156-4.8119l.1631-.2447a.85.85,0,0,1,.4894-.0815,20.0429,20.0429,0,0,0,6.7692-.1631,12.9212,12.9212,0,0,0,4.8119-2.1205,2.3643,2.3643,0,0,0,1.06-.734,2.3009,2.3009,0,0,0,.2446-.3263A2.3058,2.3058,0,0,0,44.91,9.66a.8645.8645,0,0,0,0-.734,1.0675,1.0675,0,0,0-.4894-.4894l-.0815-.0815A1.1059,1.1059,0,0,0,43.36,8.6l-.8156.8972a7.2207,7.2207,0,0,1-1.8758,1.3049q-.2412.0405-.5709.0815a17.5178,17.5178,0,0,1-3.4254,0l-1.468-.2446A10.5372,10.5372,0,0,1,32.35,9.66a5.75,5.75,0,0,1-2.12-2.039L29.9033,7.05l.4894-.8155a.9732.9732,0,0,0-.1632-.9787.937.937,0,0,0-.4077-.3263,1.2682,1.2682,0,0,0-.8156.2447m34.58,17.78a1.4,1.4,0,0,0,.0815-1.2233.92.92,0,0,0-.0815-.2447.6294.6294,0,0,0-.8156-.4078q-.4079.0816-.734.734a3.6686,3.6686,0,0,1-.7341.8972.4361.4361,0,0,1-.1631.0815,4.843,4.843,0,0,1-1.7942-.4078l-1.6312-1.1418a8.5276,8.5276,0,0,1-1.7127-1.9573L54.289,16.1033a4.5284,4.5284,0,0,1-.2447-1.7127V13.82L53.8,13.575a.8246.8246,0,0,0,.1631-.4893,1.0568,1.0568,0,0,0-.5709-.8156,1.7641,1.7641,0,0,1-.1631-.0815l-1.2234.0815a11.2676,11.2676,0,0,0-5.8721,3.5885,31.8281,31.8281,0,0,0-3.9964,5.7091q-2.61,4.404-2.6914,7.0139l-.0815,1.7127q-.1632,1.06-.1631,1.2234a1.0678,1.0678,0,0,0,.4893,1.06,1.19,1.19,0,0,0,1.3049-.4078,9.89,9.89,0,0,0,.5709-1.3049q1.6312-5.709,7.9927-10.3578a11.2559,11.2559,0,0,1,1.9573-1.1418,1.8967,1.8967,0,0,1,1.1418-.2447q.7341.0816,1.6312,1.4681a10.9541,10.9541,0,0,0,3.7516,3.5069,5.3031,5.3031,0,0,0,2.6914.8156A3.3227,3.3227,0,0,0,63.5866,22.9541Z" fill="#47ab83"/><path d="M43.4419,66.7505l-.8156-.5709a2.3661,2.3661,0,0,0-1.3049-.5709q-.3231-.0538-.7341-.0816a8.9614,8.9614,0,0,0-1.7942.4894l-.9787.6524-.4894.5709a7.95,7.95,0,0,0-1.55,3.3439l-.0816,1.1418.0816,2.1205.1631,1.1418.1631.5709a1.6574,1.6574,0,0,1,.2447.2447,1.335,1.335,0,0,1,.1631.734h0a.6664.6664,0,0,0,.0815.1631,1.2933,1.2933,0,0,0,.6525.5709,2.0709,2.0709,0,0,0,.8156.2447l2.202.0815a16.3694,16.3694,0,0,0,3.3439-.2446,8.0851,8.0851,0,0,0,2.0389-.8972l.734-.6524a2.4022,2.4022,0,0,0,.4078-1.55l-1.1418-3.67q-.3263-1.2234-.9787-1.3049l-.4893-1.1418q-.6525-1.2234-.734-1.3865M53.8,27.766q-.3263-1.468-1.06-1.6311a1.6044,1.6044,0,0,0-1.6311.5709,25.44,25.44,0,0,0-5.8722,6.7693,2.7987,2.7987,0,0,1-.8156.8155,2.1639,2.1639,0,0,1-1.3864.0816,17.86,17.86,0,0,0-7.6664.5709l-.4078.2447a20.4106,20.4106,0,0,0-4.1594,1.9573,17.7218,17.7218,0,0,0-2.2837,1.8759,8.4093,8.4093,0,0,0-2.2836,3.5069,9.5361,9.5361,0,0,0-.2446,2.5283,13.5758,13.5758,0,0,0,1.468,5.7906l.8156,1.1418a17.2159,17.2159,0,0,0,6.8508,5.5459,16.2662,16.2662,0,0,0,8.5635,1.55l5.4644-.9787A17.5989,17.5989,0,0,0,52.5763,56.23a32.5211,32.5211,0,0,0,3.507-3.67q.6523-.8156,1.3049-.6525a1.6423,1.6423,0,0,1,.1631.0816,8.15,8.15,0,0,0,.1631-1.7943,9.7035,9.7035,0,0,0-1.06-4.8119L55.3492,43.67q-1.3865-2.12-1.3864-6.3614.0814-3.1808.1631-4.8119a28.39,28.39,0,0,0-.3262-4.73M41.4029,3.2988,40.18,2.81a7.9845,7.9845,0,0,0-2.9361-.8156,8.2017,8.2017,0,0,0-3.8332.4893,18.8391,18.8391,0,0,0-1.7127.8156l-.6525.3262a.7963.7963,0,0,0-.5709.1631.8828.8828,0,0,0-.3262.4078,4.5453,4.5453,0,0,0-.3262.734.937.937,0,0,1,.4077.3263.9732.9732,0,0,1,.1632.9787l-.4894.8155.3262.5709A5.75,5.75,0,0,0,32.35,9.66a10.5372,10.5372,0,0,0,2.8546.9787l1.468.2446a17.5178,17.5178,0,0,0,3.4254,0q.33-.0411.5709-.0815a7.2207,7.2207,0,0,0,1.8758-1.3049L43.36,8.6a1.1059,1.1059,0,0,1,.9787-.2446,1.2,1.2,0,0,0,.3262-.7341,4.1831,4.1831,0,0,0-.734-1.468l-.8156-1.1418a6.3835,6.3835,0,0,0-1.7127-1.7127M60.3243,12.76l-.8972-.6525a8.975,8.975,0,0,0-3.1807-1.1418,7.7809,7.7809,0,0,0-1.55.0816,1.7669,1.7669,0,0,0-1.1418.8971q-.0992.1784-.1631.3262a1.0568,1.0568,0,0,1,.5709.8156.8246.8246,0,0,1-.1631.4893l.2446.2447v.5709a4.5284,4.5284,0,0,0,.2447,1.7127l1.7127,3.1808a8.5276,8.5276,0,0,0,1.7127,1.9573l1.6312,1.1418a4.843,4.843,0,0,0,1.7942.4078.4361.4361,0,0,0,.1631-.0815,3.6686,3.6686,0,0,0,.7341-.8972q.3261-.6523.734-.734a.6294.6294,0,0,1,.8156.4078,3.0938,3.0938,0,0,0,.2446-1.468,4.1553,4.1553,0,0,0-.0815-1.8758,11.7173,11.7173,0,0,0-2.2836-4.241A5.5633,5.5633,0,0,0,60.3243,12.76Z" fill="#73d7a5"/></g><g id="MyPets_basic_0_Layer0_0_FILL" data-name="MyPets basic 0 Layer0 0 FILL"><path d="M65.1361,22.1386a8.7844,8.7844,0,0,0-.1631-3.0177,10.6166,10.6166,0,0,0-3.0992-5.79,9.806,9.806,0,0,0-6.0352-2.61,15.7168,15.7168,0,0,0-3.2623.2447,12.8088,12.8088,0,0,0-3.7516,1.1418A17.03,17.03,0,0,0,44.4205,15.94a29.3082,29.3082,0,0,0-4.8934,8.1557A15.3,15.3,0,0,0,38.63,32.66a1.137,1.137,0,0,1-.1631,0q-2.2518-.1364-3.5886-.0816a1.121,1.121,0,0,1-.0815-.1631Q30.9636,22.8726,31.616,16.43a1.3289,1.3289,0,0,1,.3263-.9786,1.1009,1.1009,0,0,1,1.06-.1632,38.6313,38.6313,0,0,0,4.8934-.1631,18.0256,18.0256,0,0,0,4.73-1.3049,6.2185,6.2185,0,0,0,3.2623-3.507,5.5139,5.5139,0,0,0-.2447-4.2409A7.8743,7.8743,0,0,0,42.871,2.7279Q39.5271.689,34.389,1.423a12.9787,12.9787,0,0,0-2.6914.734,11.5525,11.5525,0,0,0-6.7693,6.6061,17.818,17.818,0,0,0-1.2233,9.5423,35.9925,35.9925,0,0,0,2.61,9.2975q.3546.886.734,1.7127L25.173,27.44l-2.6914-1.7943a25.02,25.02,0,0,0-4.4857-2.0389,2.2184,2.2184,0,0,0-1.55-.0816,2.1461,2.1461,0,0,0-.9787,1.3865,10.0981,10.0981,0,0,0-.3262,2.61,54.0524,54.0524,0,0,0,1.55,11.2549L17.9959,43.18l.4894.9787h0q-.1683.568-.3263,1.1418a12.2708,12.2708,0,0,0-.2446,6.1168,15.3165,15.3165,0,0,0,7.34,9.7053,22.7812,22.7812,0,0,0,8.7267,3.0992A12.2758,12.2758,0,0,0,30.23,69.605a18.3412,18.3412,0,0,0-1.2233,6.9324,2.3362,2.3362,0,0,0,.2447,1.06,2.1276,2.1276,0,0,0,1.3049.6525,37.4519,37.4519,0,0,0,15.17.3262,3.1892,3.1892,0,0,0,1.55-.5709,2.6507,2.6507,0,0,0,.734-1.3864,7.4742,7.4742,0,0,0,.1631-2.773,15.24,15.24,0,0,0-3.7517-8.8082q-.3192-.3651-.6524-.734a21.7284,21.7284,0,0,0,10.1947-3.9963A15.5055,15.5055,0,0,0,58.53,55.2509a9.8486,9.8486,0,0,0,1.1418-6.443A12.7663,12.7663,0,0,0,56.41,42.61a14.2792,14.2792,0,0,1-1.2234-1.7943,8.0127,8.0127,0,0,1-.0815-2.7729,47.5813,47.5813,0,0,0,0-7.9111,13.2959,13.2959,0,0,0-.8156-4.241,2.3722,2.3722,0,0,0-1.468-1.3865,2.5924,2.5924,0,0,0-1.9574.9787,47.9782,47.9782,0,0,0-6.9324,8.0742q.0533-.2616-.8971-.4078-.2358-.05-.4894-.0815v-.0816a18.3246,18.3246,0,0,1,3.507-7.4217,18.1364,18.1364,0,0,1,6.1168-5.22,20.8338,20.8338,0,0,0,5.8721,5.1381q2.773,1.6313,4.5673.8972,2.202-.8971,2.5282-4.241m-2.202-.9787a2.7615,2.7615,0,0,1,0,.3262q.01.2242,0,.4078a9.1149,9.1149,0,0,1-.2447,1.2234,3.1008,3.1008,0,0,1-.1631.4077,1.7,1.7,0,0,1-1.2234.9787,3.7806,3.7806,0,0,1-1.55-.4893,17.8433,17.8433,0,0,1-5.546-4.6488,5.0181,5.0181,0,0,0-1.3864-1.1418,2.7825,2.7825,0,0,0-2.039.4894q-.0636.0366-.1631.0815a21.982,21.982,0,0,0-6.443,5.7906,20.7714,20.7714,0,0,0-3.7517,7.9111,6.6843,6.6843,0,0,1-.0815-2.773,21.7513,21.7513,0,0,1,4.0778-10.1947l1.8759-2.3651a21.6925,21.6925,0,0,1,1.55-1.7127,7.2617,7.2617,0,0,1,.9787-.8156q.2379-.17.4893-.3262.4439-.2648.8971-.4894h0a15.0045,15.0045,0,0,1,1.8758-.5709q.6414-.15,1.305-.2447a16.0475,16.0475,0,0,1,1.7942-.1631,6.2986,6.2986,0,0,1,1.7943.2447,6.745,6.745,0,0,1,4.5672,3.2623A8.6913,8.6913,0,0,1,62.9341,21.16M33.9,4.0328a9.9551,9.9551,0,0,1,6.4431.1631A6.8986,6.8986,0,0,1,43.0341,5.99,5.7187,5.7187,0,0,1,44.339,8.4369q.049.2018.0815.4078a2.3179,2.3179,0,0,1-.4077,2.2021,3.3674,3.3674,0,0,1-1.9574,1.06,27.2542,27.2542,0,0,1-8.3189.9787h0a6.0674,6.0674,0,0,1-.6524,0,3.6425,3.6425,0,0,0-2.2021.2447,3.0761,3.0761,0,0,0-1.3049,2.202q-1.06,4.975.9787,12.3968a47.4135,47.4135,0,0,0,1.8758,5.1381l-.9787.1631a.75.75,0,0,0-.0815-.2447,59.9854,59.9854,0,0,1-4.5673-10.6025,19.0237,19.0237,0,0,1-.0815-11.418,15.9084,15.9084,0,0,1,1.1418-2.5283,10.0941,10.0941,0,0,1,2.5283-2.8545h.0815A10.0177,10.0177,0,0,1,33.9,4.0328M17.67,26.0533a15.6181,15.6181,0,0,1,3.5885,1.6312,20.4335,20.4335,0,0,1,2.5283,1.6311l4.8119,4.975a3.2705,3.2705,0,0,0,.734.7341.1725.1725,0,0,1,.0816.0815.8174.8174,0,0,0,.4893.4078.7634.7634,0,0,0,.4894.1631q.163,0,1.1418-.1631a25.385,25.385,0,0,1,5.3828-.4893q.2035-.0059.4077,0l1.8759.0815q.8972,0,2.5283.1631l2.4467.2447a1.4877,1.4877,0,0,0,.8156-.0816q.4893-.163.5709-.4893a.8117.8117,0,0,0,0-.5709,28.492,28.492,0,0,1,7.0139-7.9111,28.6909,28.6909,0,0,1,.8156,10.4394,13.4839,13.4839,0,0,0,.0815,4.6487,4.6484,4.6484,0,0,0,.4894,1.06,6.4487,6.4487,0,0,0-1.06,0,5.9553,5.9553,0,0,0-3.67,1.7127,4.7572,4.7572,0,0,0-1.1418,1.7943,3.3654,3.3654,0,0,0-.5709,1.6311,1.3272,1.3272,0,0,0,0,.6525.383.383,0,0,0,.2447.3262,13.4536,13.4536,0,0,1,1.6312-1.7127q2.4517-2.0434,3.7516-2.12a4.7425,4.7425,0,0,1,2.2836.5709l.5709.2447a9.7494,9.7494,0,0,1,1.3049,4.5672,4.5585,4.5585,0,0,1-.0815.9787,9.4936,9.4936,0,0,1-3.67,6.443,17.4955,17.4955,0,0,1-7.4217,3.67,27.6951,27.6951,0,0,1-7.34.8971A24.8017,24.8017,0,0,1,27.62,59.9812q-5.7906-2.936-7.2586-8.4a13.3964,13.3964,0,0,1,1.7943-10.7656q.4077-.5709.0815-.8971-.2447-.1631-.8156.1631a11.1267,11.1267,0,0,0-1.468,1.468.4694.4694,0,0,1-.0815.1632,56.513,56.513,0,0,1-2.2837-12.2337,14.1547,14.1547,0,0,1,.0816-3.4254M44.9915,71.2362l.2446,1.2233a9.2659,9.2659,0,0,1,.4078,2.61,1.1246,1.1246,0,0,1-.2447.8155.8814.8814,0,0,1-.6524.2447,34.2,34.2,0,0,1-6.7693.5709,12.9724,12.9724,0,0,1-1.3865,0,15.005,15.005,0,0,1-5.22-.734,16.2164,16.2164,0,0,1,.2446-1.7127,24.714,24.714,0,0,1,.4894-2.773,10.5627,10.5627,0,0,1,.8155-1.9573,7.4273,7.4273,0,0,1,.7341-1.305,9.9146,9.9146,0,0,1,2.0389-1.9573,11.77,11.77,0,0,1,2.5283-1.06,14.4624,14.4624,0,0,1,2.61.4078l.734.3262a2.874,2.874,0,0,1,.4078.3263,4.0648,4.0648,0,0,1,.8156.8971,11.7116,11.7116,0,0,1,2.2021,4.0779M40.3427,49.3788A6.6027,6.6027,0,0,0,40.18,47.34l-.2447-.5709a4.3585,4.3585,0,0,0-1.55-1.7127,8.1859,8.1859,0,0,0-4.8119-1.55l-2.202.0816L30.23,43.996a1.8669,1.8669,0,0,0-.5709.4893q-.2447.6525.5709,1.1418a4.6487,4.6487,0,0,0,1.2234.0816,12.6657,12.6657,0,0,1,3.507.4078l1.06.3262,1.9574,1.2234L40.18,49.46Z"/><path d="M38.2222,65.2009a11.77,11.77,0,0,0-2.5283,1.06,9.9146,9.9146,0,0,0-2.0389,1.9573,7.4273,7.4273,0,0,0-.7341,1.305,10.5627,10.5627,0,0,0-.8155,1.9573,24.714,24.714,0,0,0-.4894,2.773,16.2164,16.2164,0,0,0-.2446,1.7127,15.005,15.005,0,0,0,5.22.734,24.6851,24.6851,0,0,1-.4893-2.7729,10.4752,10.4752,0,0,1,0-2.61,8.1643,8.1643,0,0,1,.8156-2.2836,7.7918,7.7918,0,0,1,1.468-2.0389,2.9685,2.9685,0,0,1,1.3049-.9787,9.5906,9.5906,0,0,0,1.1418-.4078,14.4624,14.4624,0,0,0-2.61-.4078M21.2582,27.6845A15.6181,15.6181,0,0,0,17.67,26.0533a14.1547,14.1547,0,0,0-.0816,3.4254,56.513,56.513,0,0,0,2.2837,12.2337.4694.4694,0,0,0,.0815-.1632,11.1267,11.1267,0,0,1,1.468-1.468q.5709-.3263.8156-.1631.3263.3262-.0815.8971a13.3964,13.3964,0,0,0-1.7943,10.7656q1.468,5.4643,7.2586,8.4a24.8017,24.8017,0,0,0,11.1734,2.2836,27.6951,27.6951,0,0,0,7.34-.8971,17.4955,17.4955,0,0,0,7.4217-3.67,9.4936,9.4936,0,0,0,3.67-6.443,1.2262,1.2262,0,0,1-.1631.3262,16.3009,16.3009,0,0,1-10.1947,6.5246,18.0129,18.0129,0,0,1-11.989-1.55,14.3259,14.3259,0,0,1-7.34-7.177,10.0474,10.0474,0,0,1-.6525-5.0566,8.1032,8.1032,0,0,1,2.0389-4.6488,13.8365,13.8365,0,0,1,3.5886-2.61,33.9678,33.9678,0,0,1,4.4041-2.0389,25.385,25.385,0,0,0-5.3828.4893q-.9787.163-1.1418.1631a.7634.7634,0,0,1-.4894-.1631.8174.8174,0,0,1-.4893-.4078.1725.1725,0,0,0-.0816-.0815,3.2705,3.2705,0,0,1-.734-.7341l-4.8119-4.975a20.4335,20.4335,0,0,0-2.5283-1.6311M31.1267,8.1922a3.17,3.17,0,0,1-.734-1.9573V5.5824a10.0941,10.0941,0,0,0-2.5283,2.8545,15.9084,15.9084,0,0,0-1.1418,2.5283,19.0237,19.0237,0,0,0,.0815,11.418,59.9854,59.9854,0,0,0,4.5673,10.6025.75.75,0,0,1,.0815.2447l.9787-.1631a47.4135,47.4135,0,0,1-1.8758-5.1381q-2.039-7.4218-.9787-12.3968A3.0761,3.0761,0,0,1,30.882,13.33a3.6425,3.6425,0,0,1,2.2021-.2447,6.0674,6.0674,0,0,0,.6524,0h0a27.2542,27.2542,0,0,0,8.3189-.9787,3.3674,3.3674,0,0,0,1.9574-1.06,2.3179,2.3179,0,0,0,.4077-2.2021q-.0324-.2061-.0815-.4078-.2017.1715-.4078.3262a7.5286,7.5286,0,0,1-3.67,1.4681,13.7417,13.7417,0,0,1-2.2836.3262,11.2528,11.2528,0,0,1-2.3652-.2447L33.41,9.66a5.5142,5.5142,0,0,1-2.2836-1.4681M62.9341,21.4861a2.7615,2.7615,0,0,0,0-.3262,2.6805,2.6805,0,0,1-1.3865.8156,4.33,4.33,0,0,1-2.7729-1.06,18.7559,18.7559,0,0,1-1.8759-1.6311q-.2673-.2622-.5709-.5709h0a16.4536,16.4536,0,0,1-1.06-1.8759,6.1713,6.1713,0,0,1-.6525-2.2836,2.6089,2.6089,0,0,1,.5709-1.7127,16.0475,16.0475,0,0,0-1.7942.1631q-.6636.0949-1.305.2447a15.0045,15.0045,0,0,0-1.8758.5709h0q-.4533.2246-.8971.4894-.2514.156-.4893.3262a7.2617,7.2617,0,0,0-.9787.8156,21.6925,21.6925,0,0,0-1.55,1.7127l-1.8759,2.3651a21.7513,21.7513,0,0,0-4.0778,10.1947,6.6843,6.6843,0,0,0,.0815,2.773,20.7714,20.7714,0,0,1,3.7517-7.9111,21.982,21.982,0,0,1,6.443-5.7906q.0995-.0448.1631-.0815a2.7825,2.7825,0,0,1,2.039-.4894,5.0181,5.0181,0,0,1,1.3864,1.1418,17.8433,17.8433,0,0,0,5.546,4.6488,3.7806,3.7806,0,0,0,1.55.4893,1.7,1.7,0,0,0,1.2234-.9787,3.1008,3.1008,0,0,0,.1631-.4077,9.1149,9.1149,0,0,0,.2447-1.2234Q62.9437,21.71,62.9341,21.4861Z" fill="#47ab83"/><path d="M45.2361,72.46l-.2446-1.2233a11.7116,11.7116,0,0,0-2.2021-4.0779,4.0648,4.0648,0,0,0-.8156-.8971,2.874,2.874,0,0,0-.4078-.3263l-.734-.3262a9.5906,9.5906,0,0,1-1.1418.4078,2.9685,2.9685,0,0,0-1.3049.9787,7.7918,7.7918,0,0,0-1.468,2.0389,8.1643,8.1643,0,0,0-.8156,2.2836,10.4752,10.4752,0,0,0,0,2.61,24.6851,24.6851,0,0,0,.4893,2.7729,12.9724,12.9724,0,0,0,1.3865,0,34.2,34.2,0,0,0,6.7693-.5709.8814.8814,0,0,0,.6524-.2447,1.1246,1.1246,0,0,0,.2447-.8155,9.2659,9.2659,0,0,0-.4078-2.61m-.2446-37.0271a1.4877,1.4877,0,0,1-.8156.0816l-2.4467-.2447q-1.6313-.163-2.5283-.1631l-1.8759-.0815q-.2042-.0059-.4077,0a33.9678,33.9678,0,0,0-4.4041,2.0389,13.8365,13.8365,0,0,0-3.5886,2.61,8.1032,8.1032,0,0,0-2.0389,4.6488,10.0474,10.0474,0,0,0,.6525,5.0566,14.3259,14.3259,0,0,0,7.34,7.177,18.0129,18.0129,0,0,0,11.989,1.55A16.3009,16.3009,0,0,0,57.062,51.5808a1.2262,1.2262,0,0,0,.1631-.3262,4.5585,4.5585,0,0,0,.0815-.9787,9.7494,9.7494,0,0,0-1.3049-4.5672l-.5709-.2447a4.7425,4.7425,0,0,0-2.2836-.5709q-1.3.0771-3.7516,2.1205a13.4536,13.4536,0,0,0-1.6312,1.7127A.383.383,0,0,1,47.52,48.4a1.3272,1.3272,0,0,1,0-.6525,3.3654,3.3654,0,0,1,.5709-1.6311,4.7572,4.7572,0,0,1,1.1418-1.7943,5.9553,5.9553,0,0,1,3.67-1.7127,6.4487,6.4487,0,0,1,1.06,0,4.6484,4.6484,0,0,1-.4894-1.06,13.4839,13.4839,0,0,1-.0815-4.6487,28.6909,28.6909,0,0,0-.8156-10.4394,28.492,28.492,0,0,0-7.0139,7.9111.8117.8117,0,0,1,0,.5709q-.0816.3263-.5709.4893M40.18,47.34a6.6027,6.6027,0,0,1,.1631,2.039L40.18,49.46l-2.2021-1.7942L36.02,46.4427l-1.06-.3262a12.6657,12.6657,0,0,0-3.507-.4078,4.6487,4.6487,0,0,1-1.2234-.0816q-.8156-.4893-.5709-1.1418a1.8669,1.8669,0,0,1,.5709-.4893l1.1419-.4078,2.202-.0816a8.1859,8.1859,0,0,1,4.8119,1.55,4.3585,4.3585,0,0,1,1.55,1.7127l.2447.5709m.1631-43.1439A9.9551,9.9551,0,0,0,33.9,4.0328a10.0177,10.0177,0,0,0-3.4254,1.55h-.0815v.6525a3.17,3.17,0,0,0,.734,1.9573A5.5142,5.5142,0,0,0,33.41,9.66l2.202.6524a11.2528,11.2528,0,0,0,2.3652.2447,13.7417,13.7417,0,0,0,2.2836-.3262,7.5286,7.5286,0,0,0,3.67-1.4681q.2061-.1548.4078-.3262A5.7187,5.7187,0,0,0,43.0341,5.99a6.8986,6.8986,0,0,0-2.6914-1.7943m18.432,16.7193a4.33,4.33,0,0,0,2.7729,1.06,2.6805,2.6805,0,0,0,1.3865-.8156,8.6913,8.6913,0,0,0-1.3865-4.8119A6.745,6.745,0,0,0,56.98,13.0857a6.2986,6.2986,0,0,0-1.7943-.2447,2.6089,2.6089,0,0,0-.5709,1.7127,6.1713,6.1713,0,0,0,.6525,2.2836,16.4536,16.4536,0,0,0,1.06,1.8759h0q.3036.3087.5709.5709A18.7559,18.7559,0,0,0,58.7747,20.9152Z" fill="#73d7a5"/></g></svg>