<?xml version="1.0" encoding="UTF-8" standalone="no"?>
<svg
   width="200pt"
   height="200pt"
   viewBox="0 0 200 200"
   version="1.1"
   id="svg57"
   sodipodi:docname="myshop-icon.svg"
   inkscape:version="1.3.2 (091e20e, 2023-11-25, custom)"
   xmlns:inkscape="http://www.inkscape.org/namespaces/inkscape"
   xmlns:sodipodi="http://sodipodi.sourceforge.net/DTD/sodipodi-0.dtd"
   xmlns="http://www.w3.org/2000/svg"
   xmlns:svg="http://www.w3.org/2000/svg">
  <defs
     id="defs57" />
  <sodipodi:namedview
     id="namedview57"
     pagecolor="#ffffff"
     bordercolor="#000000"
     borderopacity="0.25"
     inkscape:showpageshadow="2"
     inkscape:pageopacity="0.0"
     inkscape:pagecheckerboard="0"
     inkscape:deskcolor="#d1d1d1"
     inkscape:document-units="pt"
     inkscape:zoom="1.90875"
     inkscape:cx="90.635232"
     inkscape:cy="134.90504"
     inkscape:window-width="1360"
     inkscape:window-height="705"
     inkscape:window-x="-8"
     inkscape:window-y="-8"
     inkscape:window-maximized="1"
     inkscape:current-layer="svg57" />
  <g
     id="#422c00ff"
     style="display:inline;fill:#442c00;fill-opacity:1">
    <path
       fill="#422c00"
       opacity="1"
       d="M 62.89,7.39 C 73.94,6.64 84.9,4.63 96.02,4.78 c 15.72,2.68 31.6,4.38 47.38,6.73 1.32,0.34 3.43,0.87 3.24,2.63 -0.54,5.5 -1.96,10.9 -3.2,16.27 -0.5,2.43 -3.13,2.61 -5.11,2.93 -0.84,-1.56 -1.69,-3.13 -2.53,-4.69 -1.36,-0.23 -2.71,-0.45 -4.06,-0.68 l 0.92,-0.11 c 1.72,-0.2 3.46,-0.38 5.18,-0.69 0.42,-0.39 1.27,-1.17 1.69,-1.55 0.29,-2.3 0.54,-4.67 0,-6.95 -3.63,-1.77 -7.64,-2.6 -11.58,-3.31 C 117.83,13.5 107.56,12.71 97.42,10.98 85.89,9.92 74.5,12.73 63.03,13.45 c -10.3,0.56 -20.48,2.39 -30.77,3.05 -6.89,-1.24 -13.71,0.23 -20.55,0.98 0.1,4.75 0.63,9.49 1.83,14.09 1.81,0.44 3.63,0.86 5.46,1.21 8.25,1.48 16.2,4.22 24.22,6.57 1.93,0.69 4.01,0.08 6,0.24 21.99,-3.27 44.03,-6.32 66.05,-9.49 -3.19,1.05 -6.26,2.43 -9.31,3.81 1.77,0.7 3.56,1.38 5.36,2 -5.37,0.32 -10.64,1.34 -15.85,2.65 -12.31,1.89 -24.64,3.72 -37.01,5.16 -1.62,0.38 -3.2,0.91 -4.79,1.4 -0.56,0.03 -1.69,0.1 -2.25,0.13 -1.03,0.6 -2,1.31 -2.95,2.04 -0.25,-0.83 -0.65,-1.61 -1.05,-2.38 -8.95,-0.9 -17.54,-3.45 -26.13,-5.94 -0.03,1.42 -0.05,2.84 -0.04,4.26 -0.9,-1.73 -1.89,-3.41 -2.86,-5.11 -0.63,0.14 -1.87,0.41 -2.49,0.54 C 15.28,38.11 14.67,37.55 14.05,37 12.79,36.97 11.54,36.95 10.28,36.92 8.51,29.35 8.71,21.38 6.03,14.03 c 3.53,-1.32 7.19,-2.28 11,-2.07 15.29,-1.69 30.58,-3 45.86,-4.57 z"
       id="path1"
       style="fill:#442c00;fill-opacity:1" />
    <path
       fill="#422c00"
       opacity="1"
       d="m 17.42,143.84 c 16.91,9.57 34.88,17.01 52.28,25.61 3.24,1.5 6.4,3.16 9.61,4.74 -0.94,-0.03 -1.88,-0.05 -2.82,-0.04 -14.14,-6.45 -28.18,-13.11 -42.23,-19.75 -5.8,-2.38 -11.19,-5.57 -16.75,-8.43 -0.02,-0.53 -0.06,-1.6 -0.09,-2.13 z"
       id="path2"
       style="fill:#442c00;fill-opacity:1" />
  </g>
  <g
     id="#ffe640ff"
     style="display:inline">
    <path
       fill="#ffe640"
       opacity="1"
       d="m 63.03,13.45 c 11.47,-0.72 22.86,-3.53 34.39,-2.47 10.14,1.73 20.41,2.52 30.53,4.38 -3.16,0.17 -6.32,0.42 -9.47,0.72 -3.51,0.28 -7.02,0.72 -10.45,1.53 -5.99,1.47 -12.19,1.26 -18.28,1.93 -8.35,0.32 -16.5,2.42 -24.83,2.91 -5.9,0.68 -12.01,0.27 -17.73,2.09 -3.65,-0.23 -7.27,-0.89 -10.8,-1.83 -5.95,-1.63 -12.09,-2.63 -17.77,-5.12 4.55,-0.29 9.1,-0.65 13.64,-1.09 10.29,-0.66 20.47,-2.49 30.77,-3.05 z"
       id="path3" />
  </g>
  <g
     id="#7b5f0bff"
     style="display:inline">
    <path
       fill="#7b5f0b"
       opacity="1"
       d="m 11.71,17.48 c 6.84,-0.75 13.66,-2.22 20.55,-0.98 -4.54,0.44 -9.09,0.8 -13.64,1.09 5.68,2.49 11.82,3.49 17.77,5.12 3.53,0.94 7.15,1.6 10.8,1.83 -0.1,1.33 -0.19,2.67 -0.29,4 -0.31,3.85 1.01,7.51 2.32,11.05 -1.99,-0.16 -4.07,0.45 -6,-0.24 0.32,-0.15 0.96,-0.45 1.27,-0.6 C 46.6,35.56 44.3,31.29 44.44,27.63 37.99,25.75 31.55,23.69 24.87,22.78 20.21,22.4 16.59,19.12 12.18,17.94 c 0.73,4.51 1.35,9.05 1.36,13.63 -1.2,-4.6 -1.73,-9.34 -1.83,-14.09 z"
       id="path4" />
  </g>
  <g
     id="#fffff1ff"
     style="display:inline">
    <path
       fill="#fffff1"
       opacity="1"
       d="m 118.48,16.08 c 3.15,-0.3 6.31,-0.55 9.47,-0.72 3.94,0.71 7.95,1.54 11.58,3.31 0.54,2.28 0.29,4.65 0,6.95 -0.42,0.38 -1.27,1.16 -1.69,1.55 -0.95,-1.85 -1.89,-3.7 -2.81,-5.56 -0.95,-0.31 -1.89,-0.62 -2.84,-0.92 -3.35,-0.43 -6.73,-0.26 -10.08,0.04 -1.21,-1.55 -2.42,-3.1 -3.63,-4.65 z"
       id="path5" />
    <path
       fill="#fffff1"
       opacity="1"
       d="m 140.36,76.58 c -0.37,-1.68 -0.38,-3.38 0.07,-5.04 2.4,-0.06 4.81,-0.17 7.21,-0.31 0.39,1.68 1.78,4.1 -0.49,5.03 -2.24,0.45 -4.53,0.28 -6.79,0.32 z"
       id="path6" />
  </g>
  <g
     id="#ffffcbff"
     style="display:inline">
    <path
       fill="#ffffcb"
       opacity="1"
       d="m 108.03,17.61 c 3.43,-0.81 6.94,-1.25 10.45,-1.53 1.21,1.55 2.42,3.1 3.63,4.65 -7.82,0.68 -15.45,2.8 -23.32,3.07 -0.46,-0.78 -1.38,-2.33 -1.84,-3.11 -2.39,-0.42 -4.79,-0.85 -7.2,-1.15 6.09,-0.67 12.29,-0.46 18.28,-1.93 z"
       id="path7" />
  </g>
  <g
     id="#e1b22cff"
     style="display:inline">
    <path
       fill="#e1b22c"
       opacity="1"
       d="m 12.18,17.94 c 4.41,1.18 8.03,4.46 12.69,4.84 6.68,0.91 13.12,2.97 19.57,4.85 -0.14,3.66 2.16,7.93 0.05,11.12 -0.31,0.15 -0.95,0.45 -1.27,0.6 C 35.2,37 27.25,34.26 19,32.78 19.48,32.44 20.45,31.76 20.94,31.43 20.46,28.91 20.5,26.1 18.96,23.94 16.92,21.7 14.39,20 12.18,17.94 Z"
       id="path8" />
  </g>
  <g
     id="#ecc63aff"
     style="display:inline">
    <path
       fill="#ecc63a"
       opacity="1"
       d="m 12.18,17.94 c 2.21,2.06 4.74,3.76 6.78,6 1.54,2.16 1.5,4.97 1.98,7.49 -0.49,0.33 -1.46,1.01 -1.94,1.35 -1.83,-0.35 -3.65,-0.77 -5.46,-1.21 -0.01,-4.58 -0.63,-9.12 -1.36,-13.63 z"
       id="path9" />
  </g>
  <g
     id="#fffffeff"
     style="display:inline">
    <path
       fill="#fffffe"
       opacity="1"
       d="m 64.92,22.45 c 8.33,-0.49 16.48,-2.59 24.83,-2.91 2.41,0.3 4.81,0.73 7.2,1.15 0.46,0.78 1.38,2.33 1.84,3.11 -10.32,0.53 -20.57,1.88 -30.88,2.62 -7.03,0.47 -13.91,2.54 -21.01,2.12 0.1,-1.33 0.19,-2.67 0.29,-4 5.72,-1.82 11.83,-1.41 17.73,-2.09 z"
       id="path10" />
  </g>
  <g
     id="#ffe545ff"
     style="display:inline">
    <path
       fill="#ffe545"
       opacity="1"
       d="m 122.11,20.73 c 3.35,-0.3 6.73,-0.47 10.08,-0.04 0.16,2.39 0.31,4.78 0.47,7.17 l -0.92,0.11 c 1.35,0.23 2.7,0.45 4.06,0.68 -6.89,-0.95 -13.71,0.8 -20.53,1.45 -22.02,3.17 -44.06,6.22 -66.05,9.49 -1.31,-3.54 -2.63,-7.2 -2.32,-11.05 7.1,0.42 13.98,-1.65 21.01,-2.12 10.31,-0.74 20.56,-2.09 30.88,-2.62 7.87,-0.27 15.5,-2.39 23.32,-3.07 z"
       id="path11" />
  </g>
  <g
     id="#ffe97aff"
     style="display:inline">
    <path
       fill="#ffe97a"
       opacity="1"
       d="m 132.19,20.69 c 0.95,0.3 1.89,0.61 2.84,0.92 0.92,1.86 1.86,3.71 2.81,5.56 -1.72,0.31 -3.46,0.49 -5.18,0.69 -0.16,-2.39 -0.31,-4.78 -0.47,-7.17 z"
       id="path12" />
  </g>
  <g
     id="#342204ff"
     style="display:inline;fill:#442c00;fill-opacity:1">
    <path
       fill="#342204"
       opacity="1"
       d="m 115.27,30.1 c 6.82,-0.65 13.64,-2.4 20.53,-1.45 0.84,1.56 1.69,3.13 2.53,4.69 l -1.47,0.05 c -0.71,0.03 -2.13,0.09 -2.84,0.12 -0.84,0.83 -1.68,1.66 -2.51,2.49 -0.02,-1.23 -0.04,-2.46 -0.05,-3.69 -0.47,0.02 -1.42,0.05 -1.89,0.07 -0.26,1.68 -0.54,3.35 -0.78,5.03 -0.42,-2.61 -1,-5.19 -1.6,-7.76 -1.3,1.5 -2.59,3.03 -3.5,4.81 -4.05,0.97 -8.21,1.33 -12.37,1.45 -1.8,-0.62 -3.59,-1.3 -5.36,-2 3.05,-1.38 6.12,-2.76 9.31,-3.81 z"
       id="path13"
       style="fill:#442c00;fill-opacity:1" />
  </g>
  <g
     id="#1a1f0eff"
     style="display:inline;fill:#442c00;fill-opacity:1">
    <path
       fill="#1a1f0e"
       opacity="1"
       d="m 123.69,34.46 c 0.91,-1.78 2.2,-3.31 3.5,-4.81 0.6,2.57 1.18,5.15 1.6,7.76 -0.24,1.93 -0.54,3.86 -0.86,5.78 -1.03,5.39 -0.93,10.98 -2.58,16.26 -0.44,0.89 -0.89,1.78 -1.35,2.66 -3.32,-0.67 -6.66,-1.87 -10.09,-1.52 -3.76,0.75 -7.1,2.89 -10.93,3.35 -5.64,0.7 -11.38,-0.21 -17.01,0.76 -4.71,0.72 -9.16,2.72 -13.95,2.98 -4.22,0.26 -8.45,-0.03 -12.67,-0.13 -0.05,-0.38 -0.16,-1.12 -0.22,-1.5 l -0.17,-1.24 c 8.83,-0.65 17.54,-2.42 26.34,-3.34 4.03,-0.22 8.05,-0.63 12.04,-1.24 5.07,-0.56 10.13,-1.32 15.15,-2.27 3.85,-2.14 4.59,-6.66 3.74,-10.65 0.43,3.09 0.45,6.23 0.54,9.35 1.56,0.02 3.12,0.03 4.69,0.03 1.42,-4.49 0.79,-9.26 1.43,-13.87 0.42,-2.77 0.6,-5.57 0.8,-8.36 z"
       id="path14"
       style="fill:#442c00;fill-opacity:1" />
  </g>
  <g
     id="#8f6b3bff"
     style="display:inline">
    <path
       fill="#8f6b3b"
       opacity="1"
       d="m 129.57,32.38 c 0.47,-0.02 1.42,-0.05 1.89,-0.07 0.01,1.23 0.03,2.46 0.05,3.69 0.4,7.81 0,15.69 -2.04,23.27 1.42,2.4 3.14,4.71 5.69,6.02 0.19,0.72 0.38,1.45 0.58,2.17 -2.94,0.07 -5.88,0.14 -8.82,0.25 1.75,-0.98 3.57,-1.85 5.36,-2.77 -1.67,-1.04 -3.4,-2.04 -5.36,-2.4 -0.48,-1.05 -1.01,-2.09 -1.57,-3.09 0.76,-0.02 2.29,-0.06 3.06,-0.08 1.33,-6.72 2.92,-13.56 1.78,-20.43 -0.78,1.4 -1.55,2.81 -2.26,4.25 0.32,-1.92 0.62,-3.85 0.86,-5.78 0.24,-1.68 0.52,-3.35 0.78,-5.03 z"
       id="path15" />
  </g>
  <g
     id="#120c03ff"
     style="display:inline;fill:#442c00;fill-opacity:1">
    <path
       fill="#120c03"
       opacity="1"
       d="m 131.51,36 c 0.83,-0.83 1.67,-1.66 2.51,-2.49 0.71,-0.03 2.13,-0.09 2.84,-0.12 0.14,3.98 0.35,8 -0.29,11.96 -0.71,4.25 -0.3,8.69 -2.03,12.73 4.18,1.74 8.37,3.82 11.61,7.05 -3.59,1.03 -7.37,1 -10.99,0.16 -2.55,-1.31 -4.27,-3.62 -5.69,-6.02 2.04,-7.58 2.44,-15.46 2.04,-23.27 z"
       id="path16"
       style="fill:#442c00;fill-opacity:1" />
  </g>
  <g
     id="#a5c8b7ff"
     style="display:inline">
    <path
       fill="#a5c8b7"
       opacity="1"
       d="m 111.32,35.91 c 4.16,-0.12 8.32,-0.48 12.37,-1.45 -0.2,2.79 -0.38,5.59 -0.8,8.36 -0.2,-1.94 -0.47,-3.88 -1.05,-5.75 -4.09,-1.17 -8.46,0.11 -12.64,0.29 0.49,1 0.97,2 1.49,2.99 -4.59,-1.32 -9.43,-1 -14.1,-0.42 l -1.12,-1.37 c 5.21,-1.31 10.48,-2.33 15.85,-2.65 z"
       id="path17" />
  </g>
  <g
     id="#b6dcdaff"
     style="display:inline">
    <path
       fill="#b6dcda"
       opacity="1"
       d="m 109.2,37.36 c 4.18,-0.18 8.55,-1.46 12.64,-0.29 0.58,1.87 0.85,3.81 1.05,5.75 -0.64,4.61 -0.01,9.38 -1.43,13.87 -1.57,0 -3.13,-0.01 -4.69,-0.03 -0.09,-3.12 -0.11,-6.26 -0.54,-9.35 -1.37,-2.67 -3.61,-4.72 -5.54,-6.96 -0.52,-0.99 -1,-1.99 -1.49,-2.99 z"
       id="path18" />
  </g>
  <g
     id="#110e08ff"
     style="display:inline;fill:#442c00;fill-opacity:1">
    <path
       fill="#110e08"
       opacity="1"
       d="m 15.9,38.66 c 0.62,-0.13 1.86,-0.4 2.49,-0.54 0.97,1.7 1.96,3.38 2.86,5.11 0.56,3.24 1.12,6.49 1.31,9.77 0.24,18.01 0.1,36.03 0.16,54.04 0.13,8.97 -1.87,17.84 -1.55,26.81 1.3,2.12 3.82,2.99 5.91,4.11 5.08,2.26 10.15,4.55 15.13,7.03 -1.21,1.41 -2.43,2.81 -3.64,4.22 -6.65,-3.4 -13.7,-5.94 -20.25,-9.55 -0.7,-0.33 -1.41,-0.64 -2.13,-0.93 -0.48,-2.01 -0.96,-4.02 -1.45,-6.02 0.27,-0.26 0.82,-0.78 1.1,-1.04 0.4,-3.22 1.18,-6.41 1.18,-9.67 -0.03,-23.34 -0.03,-46.68 0,-70.02 C 16.78,47.53 15.7,43.15 15.9,38.66 Z"
       id="path19"
       style="fill:#442c00;fill-opacity:1" />
  </g>
  <g
     id="#7b5b29ff"
     style="display:inline">
    <path
       fill="#7b5b29"
       opacity="1"
       d="m 21.29,38.97 c 8.59,2.49 17.18,5.04 26.13,5.94 0.03,9.57 -0.67,19.32 1.9,28.66 -1.33,-1.16 -2.59,-2.4 -3.85,-3.63 -4.39,3.21 -4.9,8.99 -6.92,13.65 C 35.81,90.1 33.74,97.13 29,102.54 27.84,94.07 28.08,85.49 27.14,77 26.13,67.96 27.61,58.78 25.81,49.83 c -1.09,1.05 -2.17,2.11 -3.25,3.17 -0.19,-3.28 -0.75,-6.53 -1.31,-9.77 -0.01,-1.42 0.01,-2.84 0.04,-4.26 z"
       id="path20" />
  </g>
  <g
     id="#b9dcdaff"
     style="display:inline">
    <path
       fill="#b9dcda"
       opacity="1"
       d="m 58.46,43.72 c 12.37,-1.44 24.7,-3.27 37.01,-5.16 l 1.12,1.37 c -3.54,2.62 -6.96,5.71 -8.98,9.69 -1.68,3.71 -1.81,7.87 -2.31,11.85 -8.8,0.92 -17.51,2.69 -26.34,3.34 l 0.17,1.24 C 57.81,58.66 59.29,51.16 58.46,43.72 Z"
       id="path21" />
  </g>
  <g
     id="#bd9c62ff"
     style="display:inline">
    <path
       fill="#bd9c62"
       opacity="1"
       d="m 130.19,38.94 c 1.14,6.87 -0.45,13.71 -1.78,20.43 -0.77,0.02 -2.3,0.06 -3.06,0.08 1.65,-5.28 1.55,-10.87 2.58,-16.26 0.71,-1.44 1.48,-2.85 2.26,-4.25 z"
       id="path22" />
  </g>
  <g
     id="#163b22ff"
     style="display:inline;fill:#442c00;fill-opacity:1">
    <path
       fill="#163b22"
       opacity="1"
       d="m 96.59,39.93 c 4.67,-0.58 9.51,-0.9 14.1,0.42 1.93,2.24 4.17,4.29 5.54,6.96 0.85,3.99 0.11,8.51 -3.74,10.65 1.12,-4.92 0.84,-11.67 -4.59,-13.88 -4.18,-1.12 -9.43,-0.9 -12.84,2.06 -2.75,3.92 -3.49,8.82 -4.87,13.32 2.38,0.27 4.76,0.57 7.15,0.77 -3.99,0.61 -8.01,1.02 -12.04,1.24 0.5,-3.98 0.63,-8.14 2.31,-11.85 2.02,-3.98 5.44,-7.07 8.98,-9.69 z"
       id="path23"
       style="fill:#442c00;fill-opacity:1" />
  </g>
  <g
     id="#372f19ff"
     style="display:inline;fill:#442c00;fill-opacity:1">
    <path
       fill="#372f19"
       opacity="1"
       d="m 53.67,45.12 c 1.59,-0.49 3.17,-1.02 4.79,-1.4 0.83,7.44 -0.65,14.94 0.67,22.33 0.06,0.38 0.17,1.12 0.22,1.5 4.22,0.1 8.45,0.39 12.67,0.13 4.79,-0.26 9.24,-2.26 13.95,-2.98 5.63,-0.97 11.37,-0.06 17.01,-0.76 3.83,-0.46 7.17,-2.6 10.93,-3.35 3.43,-0.35 6.77,0.85 10.09,1.52 0.46,-0.88 0.91,-1.77 1.35,-2.66 0.56,1 1.09,2.04 1.57,3.09 -8.8,2.49 -17.93,3.35 -26.93,4.84 -6.82,0.94 -13.53,2.49 -20.36,3.34 -5.9,-0.46 -11.81,-0.17 -17.71,-0.02 -2.97,0.16 -6.2,-1.26 -7.46,-4.06 -0.62,-3.54 0.36,-7.11 0.58,-10.65 0.4,-3.68 -0.58,-7.31 -1.37,-10.87 z"
       id="path24"
       style="fill:#442c00;fill-opacity:1" />
  </g>
  <g
     id="#68cd3cff"
     style="display:inline">
    <path
       fill="#68cd3c"
       opacity="1"
       d="m 95.06,46.14 c 3.41,-2.96 8.66,-3.18 12.84,-2.06 5.43,2.21 5.71,8.96 4.59,13.88 -5.02,0.95 -10.08,1.71 -15.15,2.27 -2.39,-0.2 -4.77,-0.5 -7.15,-0.77 1.38,-4.5 2.12,-9.4 4.87,-13.32 z"
       id="path25" />
  </g>
  <g
     id="#312711ff"
     style="display:inline;fill:#442c00;fill-opacity:1">
    <path
       fill="#312711"
       opacity="1"
       d="m 47.42,44.91 c 0.4,0.77 0.8,1.55 1.05,2.38 0.95,-0.73 1.92,-1.44 2.95,-2.04 -1.13,7.88 -0.72,15.91 0.31,23.77 0.45,3.42 3.89,4.95 6.32,6.83 6.58,5.71 9.65,14.41 11.66,22.65 2.6,10.72 2.58,21.96 0.7,32.79 -0.28,0.34 -0.84,1.01 -1.12,1.35 20.66,-3.45 41.15,-7.9 61.78,-11.58 6.98,-1.61 14.05,-3.3 21.28,-2.65 l 0.1,-1.03 c 0.25,-3.23 0.79,-6.42 1.26,-9.62 -0.05,3.92 -0.85,8.11 0.82,11.82 -1.17,0.02 -2.33,0.12 -3.49,0.3 -20.22,4.58 -40.7,7.92 -61.03,11.95 -5.89,1.16 -11.81,2.08 -17.73,3.09 0.06,0.32 0.18,0.97 0.24,1.29 4.32,2.6 8.49,5.74 13.43,7.04 6.53,-0.51 12.81,-2.66 19.24,-3.87 17.06,-3.43 33.94,-7.73 51.13,-10.51 3.38,-0.62 6.82,-0.36 10.19,0.08 -7.43,1.49 -14.92,2.69 -22.39,4.05 -18.98,4.13 -37.95,8.32 -56.95,12.39 -0.75,6.14 -1.27,12.3 -2.12,18.43 -2.21,-0.35 -4.34,-1.04 -6.4,-1.88 0.59,-0.08 1.78,-0.24 2.37,-0.32 0.77,-4.69 0.77,-9.46 0.62,-14.19 -5.65,-4.08 -11.94,-7.32 -17.19,-11.88 0.07,-4.9 1.74,-9.63 1.77,-14.54 0.41,-12.73 0.1,-26.33 -6.62,-37.59 -2.38,-4.25 -6.47,-7.01 -10.28,-9.85 -2.57,-9.34 -1.87,-19.09 -1.9,-28.66 z"
       id="path26"
       style="fill:#442c00;fill-opacity:1" />
  </g>
  <g
     id="#624723ff"
     style="display:inline">
    <path
       fill="#624723"
       opacity="1"
       d="m 51.42,45.25 c 0.56,-0.03 1.69,-0.1 2.25,-0.13 0.79,3.56 1.77,7.19 1.37,10.87 -0.22,3.54 -1.2,7.11 -0.58,10.65 1.26,2.8 4.49,4.22 7.46,4.06 5.9,-0.15 11.81,-0.44 17.71,0.02 -7.25,1.44 -14.82,1.86 -21.58,5.13 C 55.62,73.97 52.18,72.44 51.73,69.02 50.7,61.16 50.29,53.13 51.42,45.25 Z"
       id="path27" />
  </g>
  <g
     id="#957139ff"
     style="display:inline">
    <path
       fill="#957139"
       opacity="1"
       d="m 22.56,53 c 1.08,-1.06 2.16,-2.12 3.25,-3.17 1.8,8.95 0.32,18.13 1.33,27.17 0.94,8.49 0.7,17.07 1.86,25.54 4.74,-5.41 6.81,-12.44 9.55,-18.95 2.02,-4.66 2.53,-10.44 6.92,-13.65 1.26,1.23 2.52,2.47 3.85,3.63 3.81,2.84 7.9,5.6 10.28,9.85 6.72,11.26 7.03,24.86 6.62,37.59 -0.03,4.91 -1.7,9.64 -1.77,14.54 5.25,4.56 11.54,7.8 17.19,11.88 0.15,4.73 0.15,9.5 -0.62,14.19 -0.59,0.08 -1.78,0.24 -2.37,0.32 -12.36,-5.2 -24.16,-11.59 -36.44,-16.95 -4.98,-2.48 -10.05,-4.77 -15.13,-7.03 -2.09,-1.12 -4.61,-1.99 -5.91,-4.11 -0.32,-8.97 1.68,-17.84 1.55,-26.81 C 22.66,89.03 22.8,71.01 22.56,53 Z"
       id="path28" />
  </g>
  <g
     id="#bf9958ff"
     style="display:inline">
    <path
       fill="#bf9958"
       opacity="1"
       d="m 99.99,67.38 c 9,-1.49 18.13,-2.35 26.93,-4.84 1.96,0.36 3.69,1.36 5.36,2.4 -1.79,0.92 -3.61,1.79 -5.36,2.77 -3.28,2.25 -7.75,4.73 -7.66,9.29 -0.05,2.32 0.02,5.11 1.89,6.77 2.3,1.48 5.03,2.06 7.59,2.91 1.75,8.61 0.14,17.35 0.8,26.02 5.51,0.64 9.5,-3.62 12.78,-7.4 2.91,-3.5 4.46,-7.87 6.08,-12.07 0.2,7.83 -0.36,15.65 -0.09,23.47 1.37,0.22 2.75,0.45 4.14,0.68 l -0.1,1.03 c -7.23,-0.65 -14.3,1.04 -21.28,2.65 -20.63,3.68 -41.12,8.13 -61.78,11.58 0.28,-0.34 0.84,-1.01 1.12,-1.35 1.88,-10.83 1.9,-22.07 -0.7,-32.79 -2.01,-8.24 -5.08,-16.94 -11.66,-22.65 6.76,-3.27 14.33,-3.69 21.58,-5.13 6.83,-0.85 13.54,-2.4 20.36,-3.34 M 72.03,82 c -2.48,3.1 -0.32,6.92 0.77,10.11 2.6,0.82 5.18,1.69 7.77,2.54 0.96,4.06 1.17,8.23 1.53,12.37 0.49,4.58 -0.83,9.19 0.3,13.73 2,-0.26 4.26,-0.04 5.88,-1.48 5.22,-3.92 9.16,-9.46 11.32,-15.61 1.52,-3.63 1.71,-7.65 3.2,-11.27 2.49,-3.15 6.58,-5.25 7.66,-9.37 1.16,-4.51 -3.39,-8.19 -7.48,-8.58 C 97.02,73.95 91.02,74.32 85.05,74.26 79.54,73.82 75.23,78.05 72.03,82 Z"
       id="path29" />
  </g>
  <g
     id="#402c04ff"
     style="display:inline;fill:#442c00;fill-opacity:1">
    <path
       fill="#402c04"
       opacity="1"
       d="m 135.16,65.29 c 3.62,0.84 7.4,0.87 10.99,-0.16 l 0.03,-0.01 c 4.27,1.01 9.65,1.39 11.82,5.89 1.74,2.38 -0.46,4.91 -1.07,7.27 -1.05,0.15 -2.09,0.3 -3.14,0.44 -0.47,1.25 -0.95,2.49 -1.37,3.76 -0.57,0.16 -1.15,0.32 -1.72,0.48 -0.88,3.4 -1.65,6.82 -2.3,10.27 -1.62,4.2 -3.17,8.57 -6.08,12.07 -3.28,3.78 -7.27,8.04 -12.78,7.4 -0.66,-8.67 0.95,-17.41 -0.8,-26.02 -2.56,-0.85 -5.29,-1.43 -7.59,-2.91 -1.87,-1.66 -1.94,-4.45 -1.89,-6.77 -0.09,-4.56 4.38,-7.04 7.66,-9.29 2.94,-0.11 5.88,-0.18 8.82,-0.25 -0.2,-0.72 -0.39,-1.45 -0.58,-2.17 m -6.31,6.61 c -3.07,1.58 -4.82,4.92 -4.46,8.35 9.64,2.41 20.24,1.07 28.7,-4.25 0.95,-1.58 -1.01,-2.85 -1.72,-4.09 -0.54,-0.17 -1.62,-0.52 -2.16,-0.69 -2.93,-1.25 -6.17,-0.67 -9.26,-0.68 -3.71,0.15 -7.61,-0.16 -11.1,1.36 m 13.58,13.51 c -3.1,0.3 -6.16,0.81 -9.22,1.31 0.64,3.7 1.72,7.43 1.19,11.22 -0.38,3.24 -0.89,6.52 -0.07,9.74 0.5,0.11 1.49,0.32 1.98,0.43 l -0.17,-0.48 c 4.87,-3.78 6.05,-10.12 7.71,-15.68 0.55,-2.61 2.04,-5.46 0.52,-8.03 -0.48,0.38 -1.46,1.12 -1.94,1.49 z"
       id="path30"
       style="fill:#442c00;fill-opacity:1" />
  </g>
  <g
     id="#c79729ff"
     style="display:inline">
    <path
       fill="#c79729"
       opacity="1"
       d="m 128.85,71.9 c 3.49,-1.52 7.39,-1.21 11.1,-1.36 3.09,0.01 6.33,-0.57 9.26,0.68 -4.03,-0.03 -8.06,0.12 -12.08,0.2 -2.58,0.15 -5.24,0.22 -7.68,1.12 -2.09,0.77 -2.56,3.21 -3.62,4.9 4.62,0.13 9.23,0.47 13.81,1.03 4.39,0.63 8.59,-0.89 12.38,-2.95 -0.16,-0.9 -0.49,-2.71 -0.65,-3.61 0.71,1.24 2.67,2.51 1.72,4.09 -8.46,5.32 -19.06,6.66 -28.7,4.25 -0.36,-3.43 1.39,-6.77 4.46,-8.35 z"
       id="path31" />
  </g>
  <g
     id="#fff68bff"
     style="display:inline">
    <path
       fill="#fff68b"
       opacity="1"
       d="m 137.13,71.42 c 4.02,-0.08 8.05,-0.23 12.08,-0.2 0.54,0.17 1.62,0.52 2.16,0.69 0.16,0.9 0.49,2.71 0.65,3.61 -3.79,2.06 -7.99,3.58 -12.38,2.95 -0.89,-2.33 -1.72,-4.69 -2.51,-7.05 m 3.23,5.16 c 2.26,-0.04 4.55,0.13 6.79,-0.32 2.27,-0.93 0.88,-3.35 0.49,-5.03 -2.4,0.14 -4.81,0.25 -7.21,0.31 -0.45,1.66 -0.44,3.36 -0.07,5.04 z"
       id="path32" />
    <path
       fill="#fff68b"
       opacity="1"
       d="m 80.68,170.83 c 2.79,-0.01 5.61,-0.01 8.36,-0.61 2.34,0.85 4.75,1.46 7.21,1.84 -5.2,1.13 -10.36,4.46 -15.79,2.4 l -0.55,-0.13 c 0.26,-1.17 0.51,-2.34 0.77,-3.5 z"
       id="path33" />
  </g>
  <g
     id="#ffed5dff"
     style="display:inline">
    <path
       fill="#ffed5d"
       opacity="1"
       d="m 129.45,72.54 c 2.44,-0.9 5.1,-0.97 7.68,-1.12 0.79,2.36 1.62,4.72 2.51,7.05 -4.58,-0.56 -9.19,-0.9 -13.81,-1.03 1.06,-1.69 1.53,-4.13 3.62,-4.9 z"
       id="path34" />
  </g>
  <g
     id="#423009ff"
     style="display:inline;fill:#442c00;fill-opacity:1">
    <path
       fill="#423009"
       opacity="1"
       d="m 72.03,82 c 3.2,-3.95 7.51,-8.18 13.02,-7.74 5.97,0.06 11.97,-0.31 17.93,0.18 4.09,0.39 8.64,4.07 7.48,8.58 -1.08,4.12 -5.17,6.22 -7.66,9.37 -1.49,3.62 -1.68,7.64 -3.2,11.27 -2.16,6.15 -6.1,11.69 -11.32,15.61 -1.62,1.44 -3.88,1.22 -5.88,1.48 -1.13,-4.54 0.19,-9.15 -0.3,-13.73 C 81.74,102.88 81.53,98.71 80.57,94.65 77.98,93.8 75.4,92.93 72.8,92.11 71.71,88.92 69.55,85.1 72.03,82 m 6.32,-0.03 c -1.56,1.91 -2.15,4.21 -0.75,6.44 4.45,0.45 8.94,1.29 13.41,0.48 3.09,-0.54 6.94,-0.45 9,-3.26 0.31,-0.02 0.93,-0.05 1.24,-0.07 1.04,-0.86 2.09,-1.71 3.16,-2.53 0.11,-0.82 0.22,-1.63 0.32,-2.44 -1.5,-0.51 -3,-1.02 -4.52,-1.45 -2.52,0.14 -5.04,0.18 -7.56,0.2 -0.79,-0.02 -2.37,-0.07 -3.16,-0.09 l 0.03,-0.81 c -1.26,0.17 -2.51,0.35 -3.77,0.52 -2.72,0.31 -5.34,1.15 -7.4,3.01 m 7.07,12.56 c 0.21,0.02 0.62,0.06 0.83,0.08 0.37,7.08 0.76,14.16 1.12,21.24 0.28,-0.02 0.83,-0.08 1.11,-0.1 l -0.02,-0.32 c 6.13,-5.67 6.73,-14.7 9.08,-22.27 -3.98,0.88 -8.03,1.49 -12.12,1.37 z"
       id="path35"
       style="fill:#442c00;fill-opacity:1" />
  </g>
  <g
     id="#110d07ff"
     style="display:inline;fill:#442c00;fill-opacity:1">
    <path
       fill="#110d07"
       opacity="1"
       d="m 153.79,78.72 c 1.05,-0.14 2.09,-0.29 3.14,-0.44 1.58,4.75 3.42,9.6 3.1,14.7 -0.21,5.02 0.31,10.07 -0.25,15.07 -0.65,2.2 -3.09,4.99 -0.9,7.05 6.72,4.74 15.59,5.19 22.26,10.07 -1.09,4.21 -0.55,8.81 -2.32,12.82 -1.07,1.89 -2.21,3.74 -3.34,5.59 -1.59,-0.09 -3.17,-0.19 -4.76,-0.19 4.21,-4.04 3.2,-10.56 4.1,-15.84 -6.59,-3.1 -13.7,-4.87 -20.29,-7.97 -1.67,-3.71 -0.87,-7.9 -0.82,-11.82 0.96,-8.43 0.88,-17.03 -1.29,-25.28 0.42,-1.27 0.9,-2.51 1.37,-3.76 z"
       id="path36"
       style="fill:#442c00;fill-opacity:1" />
  </g>
  <g
     id="#ffe741ff"
     style="display:inline">
    <path
       fill="#ffe741"
       opacity="1"
       d="m 78.35,81.97 c 2.06,-1.86 4.68,-2.7 7.4,-3.01 0.15,2.02 0.29,4.05 0.43,6.07 -2.19,0.25 -4.37,0.5 -6.56,0.74 -0.42,-1.27 -0.85,-2.53 -1.27,-3.8 z"
       id="path37" />
  </g>
  <g
     id="#dcab30ff"
     style="display:inline">
    <path
       fill="#dcab30"
       opacity="1"
       d="m 85.75,78.96 c 1.26,-0.17 2.51,-0.35 3.77,-0.52 l -0.03,0.81 c -0.07,2.06 -0.14,4.12 -0.21,6.19 3.57,0.23 7.15,0.38 10.73,0.19 -2.06,2.81 -5.91,2.72 -9,3.26 -4.47,0.81 -8.96,-0.03 -13.41,-0.48 -1.4,-2.23 -0.81,-4.53 0.75,-6.44 0.42,1.27 0.85,2.53 1.27,3.8 2.19,-0.24 4.37,-0.49 6.56,-0.74 -0.14,-2.02 -0.28,-4.05 -0.43,-6.07 z"
       id="path38" />
  </g>
  <g
     id="#fffb9fff"
     style="display:inline">
    <path
       fill="#fffb9f"
       opacity="1"
       d="m 89.49,79.25 c 0.79,0.02 2.37,0.07 3.16,0.09 -0.14,1.51 -0.27,3.02 -0.4,4.53 2.79,0.35 5.63,0.35 8.42,-0.05 -0.11,-1.17 -0.35,-3.51 -0.46,-4.68 1.52,0.43 3.02,0.94 4.52,1.45 -0.1,0.81 -0.21,1.62 -0.32,2.44 -1.07,0.82 -2.12,1.67 -3.16,2.53 -0.31,0.02 -0.93,0.05 -1.24,0.07 -3.58,0.19 -7.16,0.04 -10.73,-0.19 0.07,-2.07 0.14,-4.13 0.21,-6.19 z"
       id="path39" />
  </g>
  <g
     id="#fffffdff"
     style="display:inline">
    <path
       fill="#fffffd"
       opacity="1"
       d="m 92.65,79.34 c 2.52,-0.02 5.04,-0.06 7.56,-0.2 0.11,1.17 0.35,3.51 0.46,4.68 -2.79,0.4 -5.63,0.4 -8.42,0.05 0.13,-1.51 0.26,-3.02 0.4,-4.53 z"
       id="path40" />
  </g>
  <g
     id="#d2ad6aff"
     style="display:inline">
    <path
       fill="#d2ad6a"
       opacity="1"
       d="m 150.7,82.96 c 0.57,-0.16 1.15,-0.32 1.72,-0.48 2.17,8.25 2.25,16.85 1.29,25.28 -0.47,3.2 -1.01,6.39 -1.26,9.62 -1.39,-0.23 -2.77,-0.46 -4.14,-0.68 -0.27,-7.82 0.29,-15.64 0.09,-23.47 0.65,-3.45 1.42,-6.87 2.3,-10.27 z"
       id="path41" />
  </g>
  <g
     id="#f6d43dff"
     style="display:inline">
    <path
       fill="#f6d43d"
       opacity="1"
       d="m 142.43,85.41 c 0.48,-0.37 1.46,-1.11 1.94,-1.49 1.52,2.57 0.03,5.42 -0.52,8.03 -1.66,5.56 -2.84,11.9 -7.71,15.68 -2,-3.71 0.02,-7.66 1.09,-11.31 1.27,-3.84 1.33,-8.58 5.2,-10.91 z"
       id="path42" />
  </g>
  <g
     id="#cc9e28ff"
     style="display:inline">
    <path
       fill="#cc9e28"
       opacity="1"
       d="m 133.21,86.72 c 3.06,-0.5 6.12,-1.01 9.22,-1.31 -3.87,2.33 -3.93,7.07 -5.2,10.91 -1.07,3.65 -3.09,7.6 -1.09,11.31 l 0.17,0.48 c -0.49,-0.11 -1.48,-0.32 -1.98,-0.43 -0.82,-3.22 -0.31,-6.5 0.07,-9.74 0.53,-3.79 -0.55,-7.52 -1.19,-11.22 z"
       id="path43" />
  </g>
  <g
     id="#f8d338ff"
     style="display:inline">
    <path
       fill="#f8d338"
       opacity="1"
       d="m 85.42,94.53 c 4.09,0.12 8.14,-0.49 12.12,-1.37 -2.35,7.57 -2.95,16.6 -9.08,22.27 -1.04,-7.02 2.94,-13.35 3.46,-20.24 -1.89,-0.2 -3.78,-0.39 -5.67,-0.58 -0.21,-0.02 -0.62,-0.06 -0.83,-0.08 z"
       id="path44" />
  </g>
  <g
     id="#dba928ff"
     style="display:inline">
    <path
       fill="#dba928"
       opacity="1"
       d="m 86.25,94.61 c 1.89,0.19 3.78,0.38 5.67,0.58 -0.52,6.89 -4.5,13.22 -3.46,20.24 l 0.02,0.32 c -0.28,0.02 -0.83,0.08 -1.11,0.1 -0.36,-7.08 -0.75,-14.16 -1.12,-21.24 z"
       id="path45" />
  </g>
  <g
     id="#d9b577ff"
     style="display:inline">
    <path
       fill="#d9b577"
       opacity="1"
       d="m 90.01,131.83 c 20.33,-4.03 40.81,-7.37 61.03,-11.95 1.16,-0.18 2.32,-0.28 3.49,-0.3 6.59,3.1 13.7,4.87 20.29,7.97 -0.9,5.28 0.11,11.8 -4.1,15.84 -0.56,0.14 -1.7,0.43 -2.27,0.57 -1.65,-4.84 0.57,-9.89 0.02,-14.85 -0.49,-0.04 -1.47,-0.12 -1.96,-0.16 -3.37,-0.44 -6.81,-0.7 -10.19,-0.08 -17.19,2.78 -34.07,7.08 -51.13,10.51 -6.43,1.21 -12.71,3.36 -19.24,3.87 -4.94,-1.3 -9.11,-4.44 -13.43,-7.04 -0.06,-0.32 -0.18,-0.97 -0.24,-1.29 5.92,-1.01 11.84,-1.93 17.73,-3.09 z"
       id="path46" />
  </g>
  <g
     id="#c0995aff"
     style="display:inline">
    <path
       fill="#c0995a"
       opacity="1"
       d="m 166.51,128.95 c 0.49,0.04 1.47,0.12 1.96,0.16 0.55,4.96 -1.67,10.01 -0.02,14.85 -16.1,4.56 -32.48,8.1 -48.66,12.38 -11.59,2.45 -22.87,6.59 -34.74,7.48 0.85,-6.13 1.37,-12.29 2.12,-18.43 19,-4.07 37.97,-8.26 56.95,-12.39 7.47,-1.36 14.96,-2.56 22.39,-4.05 z"
       id="path47" />
  </g>
  <g
     id="#442c00ff"
     style="display:inline;fill:#442c00;fill-opacity:1">
    <path
       fill="#442c00"
       opacity="1"
       d="m 5.31,134.42 c 3.14,-0.6 6.3,-1.04 9.43,-1.71 0.49,2 0.97,4.01 1.45,6.02 -1.33,-0.52 -2.67,-1.01 -4.02,-1.49 -1.53,5.51 0.14,11.14 0.72,16.66 0.68,5.64 7.06,5.97 11.09,8.12 12.18,6.93 24.74,13.15 37.04,19.87 5.59,2.75 10.92,6.04 16.63,8.54 1.19,0.38 2.41,0.67 3.62,0.96 7.66,-1.58 15.1,-4.06 22.7,-5.87 26.4,-7.25 53.08,-13.48 79.36,-21.17 0.98,-0.31 1.96,-0.62 2.94,-0.94 0.97,-5.85 2.14,-11.7 2.25,-17.64 -2.84,-0.59 -5.69,-1.14 -8.59,-1.3 -0.49,0.13 -1.48,0.38 -1.98,0.51 0.58,-1.94 1.09,-3.91 1.32,-5.93 5.39,0.62 10.18,3.54 15.58,4.23 -1.22,8.59 -3.43,16.99 -4.95,25.53 -2.46,0.4 -4.91,0.84 -7.3,1.56 -8.12,2.63 -16.6,3.95 -24.7,6.66 -22.46,5.65 -44.76,11.94 -67.22,17.57 -3.46,1.24 -7.07,2.04 -10.7,2.53 -3.67,-0.29 -7.05,-2.01 -10.12,-3.92 -5.87,-3.69 -12.47,-6.03 -18.3,-9.78 -4.84,-2.98 -10.24,-4.92 -15.1,-7.87 -5.64,-3.62 -11.98,-5.95 -17.73,-9.38 -2.77,-1.67 -5.62,-3.19 -8.54,-4.57 C 8.44,156.04 8.43,150.12 6.67,144.57 5.88,141.24 5.51,137.83 5.31,134.42 Z"
       id="path48"
       style="fill:#442c00;fill-opacity:1" />
  </g>
  <g
     id="#f3d93bff"
     style="display:inline">
    <path
       fill="#f3d93b"
       opacity="1"
       d="m 12.17,137.24 c 1.35,0.48 2.69,0.97 4.02,1.49 0.72,0.29 1.43,0.6 2.13,0.93 -1.02,1.74 -1.99,3.54 -2.37,5.55 -0.45,3.07 -1.28,6.1 -3.06,8.69 -0.58,-5.52 -2.25,-11.15 -0.72,-16.66 z"
       id="path49" />
  </g>
  <g
     id="#0f0d00ff"
     style="display:inline;fill:#442c00;fill-opacity:1">
    <path
       fill="#0f0d00"
       opacity="1"
       d="m 175.48,143.58 c 1.13,-1.85 2.27,-3.7 3.34,-5.59 l 0.45,1.06 c -0.23,2.02 -0.74,3.99 -1.32,5.93 -6.26,3.99 -13.88,4.64 -20.84,6.82 -18.05,4.08 -35.83,9.34 -53.76,13.92 -5.77,1.35 -11.36,3.61 -17.3,4.09 -5,0.51 -9.23,-2.62 -13.64,-4.41 -11.29,-5.37 -22.52,-10.87 -33.84,-16.19 1.21,-1.41 2.43,-2.81 3.64,-4.22 12.28,5.36 24.08,11.75 36.44,16.95 2.06,0.84 4.19,1.53 6.4,1.88 11.87,-0.89 23.15,-5.03 34.74,-7.48 16.18,-4.28 32.56,-7.82 48.66,-12.38 0.57,-0.14 1.71,-0.43 2.27,-0.57 1.59,0 3.17,0.1 4.76,0.19 z"
       id="path50"
       style="fill:#442c00;fill-opacity:1" />
  </g>
  <g
     id="#d9a729ff"
     style="display:inline">
    <path
       fill="#d9a729"
       opacity="1"
       d="m 15.95,145.21 c 0.38,-2.01 1.35,-3.81 2.37,-5.55 6.55,3.61 13.6,6.15 20.25,9.55 11.32,5.32 22.55,10.82 33.84,16.19 -0.9,1.35 -1.81,2.7 -2.71,4.05 -17.4,-8.6 -35.37,-16.04 -52.28,-25.61 0.03,0.53 0.07,1.6 0.09,2.13 z"
       id="path51" />
  </g>
  <g
     id="#ffffabff"
     style="display:inline">
    <path
       fill="#ffffab"
       opacity="1"
       d="m 157.11,151.8 c 6.96,-2.18 14.58,-2.83 20.84,-6.82 0.5,-0.13 1.49,-0.38 1.98,-0.51 0.54,4.1 2.36,8.28 0.92,12.41 -0.14,-1.59 -0.28,-3.17 -0.44,-4.75 -2.72,0.57 -5.39,1.33 -8.02,2.19 -4.54,1.55 -9.47,1.36 -13.94,3.13 -3.39,1.34 -6.88,2.41 -10.51,2.81 -6.07,0.75 -11.86,2.91 -17.91,3.75 -5.53,0.78 -10.46,3.83 -16.08,4.18 -6.07,0.49 -11.67,3.15 -17.7,3.87 -2.46,-0.38 -4.87,-0.99 -7.21,-1.84 4.65,-1.71 9.47,-2.85 14.31,-3.91 15.6,-4.04 31.14,-8.28 46.86,-11.84 2.43,-0.5 4.8,-1.33 6.9,-2.67 z"
       id="path52" />
  </g>
  <g
     id="#ffffebff"
     style="display:inline">
    <path
       fill="#ffffeb"
       opacity="1"
       d="m 179.93,144.47 c 2.9,0.16 5.75,0.71 8.59,1.3 -0.11,5.94 -1.28,11.79 -2.25,17.64 -0.98,0.32 -1.96,0.63 -2.94,0.94 -0.77,0.1 -2.32,0.31 -3.1,0.42 0.14,-2.64 0.31,-5.27 0.62,-7.89 1.44,-4.13 -0.38,-8.31 -0.92,-12.41 z"
       id="path53" />
  </g>
  <g
     id="#dfb12eff"
     style="display:inline">
    <path
       fill="#dfb12e"
       opacity="1"
       d="m 12.89,153.9 c 1.78,-2.59 2.61,-5.62 3.06,-8.69 l 1.56,0.76 c 5.56,2.86 10.95,6.05 16.75,8.43 14.05,6.64 28.09,13.3 42.23,19.75 1.66,5.27 1.46,10.83 1.16,16.28 -5.71,-2.5 -11.04,-5.79 -16.63,-8.54 -12.3,-6.72 -24.86,-12.94 -37.04,-19.87 -4.03,-2.15 -10.41,-2.48 -11.09,-8.12 z"
       id="path54" />
  </g>
  <g
     id="#eec036ff"
     style="display:inline">
    <path
       fill="#eec036"
       opacity="1"
       d="m 103.35,165.72 c 17.93,-4.58 35.71,-9.84 53.76,-13.92 -2.1,1.34 -4.47,2.17 -6.9,2.67 -15.72,3.56 -31.26,7.8 -46.86,11.84 -4.84,1.06 -9.66,2.2 -14.31,3.91 -2.75,0.6 -5.57,0.6 -8.36,0.61 -0.26,1.16 -0.51,2.33 -0.77,3.5 l -0.6,-0.14 c -3.21,-1.58 -6.37,-3.24 -9.61,-4.74 0.9,-1.35 1.81,-2.7 2.71,-4.05 4.41,1.79 8.64,4.92 13.64,4.41 5.94,-0.48 11.53,-2.74 17.3,-4.09 z"
       id="path55" />
  </g>
  <g
     id="#ffe64cff"
     style="display:inline">
    <path
       fill="#ffe64c"
       opacity="1"
       d="m 172.39,154.32 c 2.63,-0.86 5.3,-1.62 8.02,-2.19 0.16,1.58 0.3,3.16 0.44,4.75 -0.31,2.62 -0.48,5.25 -0.62,7.89 0.78,-0.11 2.33,-0.32 3.1,-0.42 -26.28,7.69 -52.96,13.92 -79.36,21.17 -7.6,1.81 -15.04,4.29 -22.7,5.87 0.11,-5.66 -0.03,-11.32 -0.81,-16.93 5.43,2.06 10.59,-1.27 15.79,-2.4 6.03,-0.72 11.63,-3.38 17.7,-3.87 5.62,-0.35 10.55,-3.4 16.08,-4.18 6.05,-0.84 11.84,-3 17.91,-3.75 3.63,-0.4 7.12,-1.47 10.51,-2.81 4.47,-1.77 9.4,-1.58 13.94,-3.13 z"
       id="path56" />
  </g>
  <g
     id="#93761bff"
     style="display:inline">
    <path
       fill="#93761b"
       opacity="1"
       d="m 79.31,174.19 0.6,0.14 0.55,0.13 c 0.78,5.61 0.92,11.27 0.81,16.93 -1.21,-0.29 -2.43,-0.58 -3.62,-0.96 0.3,-5.45 0.5,-11.01 -1.16,-16.28 0.94,-0.01 1.88,0.01 2.82,0.04 z"
       id="path57" />
  </g>
  <g
     id="g59"
     style="display:inline;fill:#442c00;fill-opacity:1">
    <path
       fill="#422c00"
       opacity="1"
       d="M 62.89,7.39 C 73.94,6.64 84.9,4.63 96.02,4.78 c 15.72,2.68 31.6,4.38 47.38,6.73 1.32,0.34 3.43,0.87 3.24,2.63 -0.54,5.5 -1.96,10.9 -3.2,16.27 -0.5,2.43 -3.13,2.61 -5.11,2.93 -0.84,-1.56 -1.69,-3.13 -2.53,-4.69 -1.36,-0.23 -2.71,-0.45 -4.06,-0.68 l 0.92,-0.11 c 1.72,-0.2 3.46,-0.38 5.18,-0.69 0.42,-0.39 1.27,-1.17 1.69,-1.55 0.29,-2.3 0.54,-4.67 0,-6.95 -3.63,-1.77 -7.64,-2.6 -11.58,-3.31 C 117.83,13.5 107.56,12.71 97.42,10.98 85.89,9.92 74.5,12.73 63.03,13.45 c -10.3,0.56 -20.48,2.39 -30.77,3.05 -6.89,-1.24 -13.71,0.23 -20.55,0.98 0.1,4.75 0.63,9.49 1.83,14.09 1.81,0.44 3.63,0.86 5.46,1.21 8.25,1.48 16.2,4.22 24.22,6.57 1.93,0.69 4.01,0.08 6,0.24 21.99,-3.27 44.03,-6.32 66.05,-9.49 -3.19,1.05 -6.26,2.43 -9.31,3.81 1.77,0.7 3.56,1.38 5.36,2 -5.37,0.32 -10.64,1.34 -15.85,2.65 -12.31,1.89 -24.64,3.72 -37.01,5.16 -1.62,0.38 -3.2,0.91 -4.79,1.4 -0.56,0.03 -1.69,0.1 -2.25,0.13 -1.03,0.6 -2,1.31 -2.95,2.04 -0.25,-0.83 -0.65,-1.61 -1.05,-2.38 -8.95,-0.9 -17.54,-3.45 -26.13,-5.94 -0.03,1.42 -0.05,2.84 -0.04,4.26 -0.9,-1.73 -1.89,-3.41 -2.86,-5.11 -0.63,0.14 -1.87,0.41 -2.49,0.54 C 15.28,38.11 14.67,37.55 14.05,37 12.79,36.97 11.54,36.95 10.28,36.92 8.51,29.35 8.71,21.38 6.03,14.03 c 3.53,-1.32 7.19,-2.28 11,-2.07 15.29,-1.69 30.58,-3 45.86,-4.57 z"
       id="path58"
       style="fill:#442c00;fill-opacity:1" />
    <path
       fill="#422c00"
       opacity="1"
       d="m 17.42,143.84 c 16.91,9.57 34.88,17.01 52.28,25.61 3.24,1.5 6.4,3.16 9.61,4.74 -0.94,-0.03 -1.88,-0.05 -2.82,-0.04 -14.14,-6.45 -28.18,-13.11 -42.23,-19.75 -5.8,-2.38 -11.19,-5.57 -16.75,-8.43 -0.02,-0.53 -0.06,-1.6 -0.09,-2.13 z"
       id="path59"
       style="fill:#442c00;fill-opacity:1" />
  </g>
  <g
     id="g60"
     style="display:inline">
    <path
       fill="#ffe640"
       opacity="1"
       d="m 63.03,13.45 c 11.47,-0.72 22.86,-3.53 34.39,-2.47 10.14,1.73 20.41,2.52 30.53,4.38 -3.16,0.17 -6.32,0.42 -9.47,0.72 -3.51,0.28 -7.02,0.72 -10.45,1.53 -5.99,1.47 -12.19,1.26 -18.28,1.93 -8.35,0.32 -16.5,2.42 -24.83,2.91 -5.9,0.68 -12.01,0.27 -17.73,2.09 -3.65,-0.23 -7.27,-0.89 -10.8,-1.83 -5.95,-1.63 -12.09,-2.63 -17.77,-5.12 4.55,-0.29 9.1,-0.65 13.64,-1.09 10.29,-0.66 20.47,-2.49 30.77,-3.05 z"
       id="path60" />
  </g>
  <g
     id="g61"
     style="display:inline">
    <path
       fill="#7b5f0b"
       opacity="1"
       d="m 11.71,17.48 c 6.84,-0.75 13.66,-2.22 20.55,-0.98 -4.54,0.44 -9.09,0.8 -13.64,1.09 5.68,2.49 11.82,3.49 17.77,5.12 3.53,0.94 7.15,1.6 10.8,1.83 -0.1,1.33 -0.19,2.67 -0.29,4 -0.31,3.85 1.01,7.51 2.32,11.05 -1.99,-0.16 -4.07,0.45 -6,-0.24 0.32,-0.15 0.96,-0.45 1.27,-0.6 C 46.6,35.56 44.3,31.29 44.44,27.63 37.99,25.75 31.55,23.69 24.87,22.78 20.21,22.4 16.59,19.12 12.18,17.94 c 0.73,4.51 1.35,9.05 1.36,13.63 -1.2,-4.6 -1.73,-9.34 -1.83,-14.09 z"
       id="path61" />
  </g>
  <g
     id="g63"
     style="display:inline">
    <path
       fill="#fffff1"
       opacity="1"
       d="m 118.48,16.08 c 3.15,-0.3 6.31,-0.55 9.47,-0.72 3.94,0.71 7.95,1.54 11.58,3.31 0.54,2.28 0.29,4.65 0,6.95 -0.42,0.38 -1.27,1.16 -1.69,1.55 -0.95,-1.85 -1.89,-3.7 -2.81,-5.56 -0.95,-0.31 -1.89,-0.62 -2.84,-0.92 -3.35,-0.43 -6.73,-0.26 -10.08,0.04 -1.21,-1.55 -2.42,-3.1 -3.63,-4.65 z"
       id="path62" />
    <path
       fill="#fffff1"
       opacity="1"
       d="m 140.36,76.58 c -0.37,-1.68 -0.38,-3.38 0.07,-5.04 2.4,-0.06 4.81,-0.17 7.21,-0.31 0.39,1.68 1.78,4.1 -0.49,5.03 -2.24,0.45 -4.53,0.28 -6.79,0.32 z"
       id="path63" />
  </g>
  <g
     id="g64"
     style="display:inline">
    <path
       fill="#ffffcb"
       opacity="1"
       d="m 108.03,17.61 c 3.43,-0.81 6.94,-1.25 10.45,-1.53 1.21,1.55 2.42,3.1 3.63,4.65 -7.82,0.68 -15.45,2.8 -23.32,3.07 -0.46,-0.78 -1.38,-2.33 -1.84,-3.11 -2.39,-0.42 -4.79,-0.85 -7.2,-1.15 6.09,-0.67 12.29,-0.46 18.28,-1.93 z"
       id="path64" />
  </g>
  <g
     id="g65"
     style="display:inline">
    <path
       fill="#e1b22c"
       opacity="1"
       d="m 12.18,17.94 c 4.41,1.18 8.03,4.46 12.69,4.84 6.68,0.91 13.12,2.97 19.57,4.85 -0.14,3.66 2.16,7.93 0.05,11.12 -0.31,0.15 -0.95,0.45 -1.27,0.6 C 35.2,37 27.25,34.26 19,32.78 19.48,32.44 20.45,31.76 20.94,31.43 20.46,28.91 20.5,26.1 18.96,23.94 16.92,21.7 14.39,20 12.18,17.94 Z"
       id="path65" />
  </g>
  <g
     id="g66"
     style="display:inline">
    <path
       fill="#ecc63a"
       opacity="1"
       d="m 12.18,17.94 c 2.21,2.06 4.74,3.76 6.78,6 1.54,2.16 1.5,4.97 1.98,7.49 -0.49,0.33 -1.46,1.01 -1.94,1.35 -1.83,-0.35 -3.65,-0.77 -5.46,-1.21 -0.01,-4.58 -0.63,-9.12 -1.36,-13.63 z"
       id="path66" />
  </g>
  <g
     id="g67"
     style="display:inline">
    <path
       fill="#fffffe"
       opacity="1"
       d="m 64.92,22.45 c 8.33,-0.49 16.48,-2.59 24.83,-2.91 2.41,0.3 4.81,0.73 7.2,1.15 0.46,0.78 1.38,2.33 1.84,3.11 -10.32,0.53 -20.57,1.88 -30.88,2.62 -7.03,0.47 -13.91,2.54 -21.01,2.12 0.1,-1.33 0.19,-2.67 0.29,-4 5.72,-1.82 11.83,-1.41 17.73,-2.09 z"
       id="path67" />
  </g>
  <g
     id="g68"
     style="display:inline">
    <path
       fill="#ffe545"
       opacity="1"
       d="m 122.11,20.73 c 3.35,-0.3 6.73,-0.47 10.08,-0.04 0.16,2.39 0.31,4.78 0.47,7.17 l -0.92,0.11 c 1.35,0.23 2.7,0.45 4.06,0.68 -6.89,-0.95 -13.71,0.8 -20.53,1.45 -22.02,3.17 -44.06,6.22 -66.05,9.49 -1.31,-3.54 -2.63,-7.2 -2.32,-11.05 7.1,0.42 13.98,-1.65 21.01,-2.12 10.31,-0.74 20.56,-2.09 30.88,-2.62 7.87,-0.27 15.5,-2.39 23.32,-3.07 z"
       id="path68" />
  </g>
  <g
     id="g69"
     style="display:inline">
    <path
       fill="#ffe97a"
       opacity="1"
       d="m 132.19,20.69 c 0.95,0.3 1.89,0.61 2.84,0.92 0.92,1.86 1.86,3.71 2.81,5.56 -1.72,0.31 -3.46,0.49 -5.18,0.69 -0.16,-2.39 -0.31,-4.78 -0.47,-7.17 z"
       id="path69" />
  </g>
  <g
     id="g70"
     style="display:inline;fill:#442c00;fill-opacity:1">
    <path
       fill="#342204"
       opacity="1"
       d="m 115.27,30.1 c 6.82,-0.65 13.64,-2.4 20.53,-1.45 0.84,1.56 1.69,3.13 2.53,4.69 l -1.47,0.05 c -0.71,0.03 -2.13,0.09 -2.84,0.12 -0.84,0.83 -1.68,1.66 -2.51,2.49 -0.02,-1.23 -0.04,-2.46 -0.05,-3.69 -0.47,0.02 -1.42,0.05 -1.89,0.07 -0.26,1.68 -0.54,3.35 -0.78,5.03 -0.42,-2.61 -1,-5.19 -1.6,-7.76 -1.3,1.5 -2.59,3.03 -3.5,4.81 -4.05,0.97 -8.21,1.33 -12.37,1.45 -1.8,-0.62 -3.59,-1.3 -5.36,-2 3.05,-1.38 6.12,-2.76 9.31,-3.81 z"
       id="path70"
       style="fill:#442c00;fill-opacity:1" />
  </g>
  <g
     id="g71"
     style="display:inline;fill:#442c00;fill-opacity:1">
    <path
       fill="#1a1f0e"
       opacity="1"
       d="m 123.69,34.46 c 0.91,-1.78 2.2,-3.31 3.5,-4.81 0.6,2.57 1.18,5.15 1.6,7.76 -0.24,1.93 -0.54,3.86 -0.86,5.78 -1.03,5.39 -0.93,10.98 -2.58,16.26 -0.44,0.89 -0.89,1.78 -1.35,2.66 -3.32,-0.67 -6.66,-1.87 -10.09,-1.52 -3.76,0.75 -7.1,2.89 -10.93,3.35 -5.64,0.7 -11.38,-0.21 -17.01,0.76 -4.71,0.72 -9.16,2.72 -13.95,2.98 -4.22,0.26 -8.45,-0.03 -12.67,-0.13 -0.05,-0.38 -0.16,-1.12 -0.22,-1.5 l -0.17,-1.24 c 8.83,-0.65 17.54,-2.42 26.34,-3.34 4.03,-0.22 8.05,-0.63 12.04,-1.24 5.07,-0.56 10.13,-1.32 15.15,-2.27 3.85,-2.14 4.59,-6.66 3.74,-10.65 0.43,3.09 0.45,6.23 0.54,9.35 1.56,0.02 3.12,0.03 4.69,0.03 1.42,-4.49 0.79,-9.26 1.43,-13.87 0.42,-2.77 0.6,-5.57 0.8,-8.36 z"
       id="path71"
       style="fill:#442c00;fill-opacity:1" />
  </g>
  <g
     id="g72"
     style="display:inline">
    <path
       fill="#8f6b3b"
       opacity="1"
       d="m 129.57,32.38 c 0.47,-0.02 1.42,-0.05 1.89,-0.07 0.01,1.23 0.03,2.46 0.05,3.69 0.4,7.81 0,15.69 -2.04,23.27 1.42,2.4 3.14,4.71 5.69,6.02 0.19,0.72 0.38,1.45 0.58,2.17 -2.94,0.07 -5.88,0.14 -8.82,0.25 1.75,-0.98 3.57,-1.85 5.36,-2.77 -1.67,-1.04 -3.4,-2.04 -5.36,-2.4 -0.48,-1.05 -1.01,-2.09 -1.57,-3.09 0.76,-0.02 2.29,-0.06 3.06,-0.08 1.33,-6.72 2.92,-13.56 1.78,-20.43 -0.78,1.4 -1.55,2.81 -2.26,4.25 0.32,-1.92 0.62,-3.85 0.86,-5.78 0.24,-1.68 0.52,-3.35 0.78,-5.03 z"
       id="path72" />
  </g>
  <g
     id="g73"
     style="display:inline;fill:#442c00;fill-opacity:1">
    <path
       fill="#120c03"
       opacity="1"
       d="m 131.51,36 c 0.83,-0.83 1.67,-1.66 2.51,-2.49 0.71,-0.03 2.13,-0.09 2.84,-0.12 0.14,3.98 0.35,8 -0.29,11.96 -0.71,4.25 -0.3,8.69 -2.03,12.73 4.18,1.74 8.37,3.82 11.61,7.05 -3.59,1.03 -7.37,1 -10.99,0.16 -2.55,-1.31 -4.27,-3.62 -5.69,-6.02 2.04,-7.58 2.44,-15.46 2.04,-23.27 z"
       id="path73"
       style="fill:#442c00;fill-opacity:1" />
  </g>
  <g
     id="g74"
     style="display:inline">
    <path
       fill="#a5c8b7"
       opacity="1"
       d="m 111.32,35.91 c 4.16,-0.12 8.32,-0.48 12.37,-1.45 -0.2,2.79 -0.38,5.59 -0.8,8.36 -0.2,-1.94 -0.47,-3.88 -1.05,-5.75 -4.09,-1.17 -8.46,0.11 -12.64,0.29 0.49,1 0.97,2 1.49,2.99 -4.59,-1.32 -9.43,-1 -14.1,-0.42 l -1.12,-1.37 c 5.21,-1.31 10.48,-2.33 15.85,-2.65 z"
       id="path74" />
  </g>
  <g
     id="g75"
     style="display:inline">
    <path
       fill="#b6dcda"
       opacity="1"
       d="m 109.2,37.36 c 4.18,-0.18 8.55,-1.46 12.64,-0.29 0.58,1.87 0.85,3.81 1.05,5.75 -0.64,4.61 -0.01,9.38 -1.43,13.87 -1.57,0 -3.13,-0.01 -4.69,-0.03 -0.09,-3.12 -0.11,-6.26 -0.54,-9.35 -1.37,-2.67 -3.61,-4.72 -5.54,-6.96 -0.52,-0.99 -1,-1.99 -1.49,-2.99 z"
       id="path75" />
  </g>
  <g
     id="g76"
     style="display:inline;fill:#442c00;fill-opacity:1">
    <path
       fill="#110e08"
       opacity="1"
       d="m 15.9,38.66 c 0.62,-0.13 1.86,-0.4 2.49,-0.54 0.97,1.7 1.96,3.38 2.86,5.11 0.56,3.24 1.12,6.49 1.31,9.77 0.24,18.01 0.1,36.03 0.16,54.04 0.13,8.97 -1.87,17.84 -1.55,26.81 1.3,2.12 3.82,2.99 5.91,4.11 5.08,2.26 10.15,4.55 15.13,7.03 -1.21,1.41 -2.43,2.81 -3.64,4.22 -6.65,-3.4 -13.7,-5.94 -20.25,-9.55 -0.7,-0.33 -1.41,-0.64 -2.13,-0.93 -0.48,-2.01 -0.96,-4.02 -1.45,-6.02 0.27,-0.26 0.82,-0.78 1.1,-1.04 0.4,-3.22 1.18,-6.41 1.18,-9.67 -0.03,-23.34 -0.03,-46.68 0,-70.02 C 16.78,47.53 15.7,43.15 15.9,38.66 Z"
       id="path76"
       style="fill:#442c00;fill-opacity:1" />
  </g>
  <g
     id="g77"
     style="display:inline">
    <path
       fill="#7b5b29"
       opacity="1"
       d="m 21.29,38.97 c 8.59,2.49 17.18,5.04 26.13,5.94 0.03,9.57 -0.67,19.32 1.9,28.66 -1.33,-1.16 -2.59,-2.4 -3.85,-3.63 -4.39,3.21 -4.9,8.99 -6.92,13.65 C 35.81,90.1 33.74,97.13 29,102.54 27.84,94.07 28.08,85.49 27.14,77 26.13,67.96 27.61,58.78 25.81,49.83 c -1.09,1.05 -2.17,2.11 -3.25,3.17 -0.19,-3.28 -0.75,-6.53 -1.31,-9.77 -0.01,-1.42 0.01,-2.84 0.04,-4.26 z"
       id="path77" />
  </g>
  <g
     id="g78"
     style="display:inline">
    <path
       fill="#b9dcda"
       opacity="1"
       d="m 58.46,43.72 c 12.37,-1.44 24.7,-3.27 37.01,-5.16 l 1.12,1.37 c -3.54,2.62 -6.96,5.71 -8.98,9.69 -1.68,3.71 -1.81,7.87 -2.31,11.85 -8.8,0.92 -17.51,2.69 -26.34,3.34 l 0.17,1.24 C 57.81,58.66 59.29,51.16 58.46,43.72 Z"
       id="path78" />
  </g>
  <g
     id="g79"
     style="display:inline">
    <path
       fill="#bd9c62"
       opacity="1"
       d="m 130.19,38.94 c 1.14,6.87 -0.45,13.71 -1.78,20.43 -0.77,0.02 -2.3,0.06 -3.06,0.08 1.65,-5.28 1.55,-10.87 2.58,-16.26 0.71,-1.44 1.48,-2.85 2.26,-4.25 z"
       id="path79" />
  </g>
  <g
     id="g80"
     style="display:inline;fill:#442c00;fill-opacity:1">
    <path
       fill="#163b22"
       opacity="1"
       d="m 96.59,39.93 c 4.67,-0.58 9.51,-0.9 14.1,0.42 1.93,2.24 4.17,4.29 5.54,6.96 0.85,3.99 0.11,8.51 -3.74,10.65 1.12,-4.92 0.84,-11.67 -4.59,-13.88 -4.18,-1.12 -9.43,-0.9 -12.84,2.06 -2.75,3.92 -3.49,8.82 -4.87,13.32 2.38,0.27 4.76,0.57 7.15,0.77 -3.99,0.61 -8.01,1.02 -12.04,1.24 0.5,-3.98 0.63,-8.14 2.31,-11.85 2.02,-3.98 5.44,-7.07 8.98,-9.69 z"
       id="path80"
       style="fill:#442c00;fill-opacity:1" />
  </g>
  <g
     id="g81"
     style="display:inline;fill:#442c00;fill-opacity:1">
    <path
       fill="#372f19"
       opacity="1"
       d="m 53.67,45.12 c 1.59,-0.49 3.17,-1.02 4.79,-1.4 0.83,7.44 -0.65,14.94 0.67,22.33 0.06,0.38 0.17,1.12 0.22,1.5 4.22,0.1 8.45,0.39 12.67,0.13 4.79,-0.26 9.24,-2.26 13.95,-2.98 5.63,-0.97 11.37,-0.06 17.01,-0.76 3.83,-0.46 7.17,-2.6 10.93,-3.35 3.43,-0.35 6.77,0.85 10.09,1.52 0.46,-0.88 0.91,-1.77 1.35,-2.66 0.56,1 1.09,2.04 1.57,3.09 -8.8,2.49 -17.93,3.35 -26.93,4.84 -6.82,0.94 -13.53,2.49 -20.36,3.34 -5.9,-0.46 -11.81,-0.17 -17.71,-0.02 -2.97,0.16 -6.2,-1.26 -7.46,-4.06 -0.62,-3.54 0.36,-7.11 0.58,-10.65 0.4,-3.68 -0.58,-7.31 -1.37,-10.87 z"
       id="path81"
       style="fill:#442c00;fill-opacity:1" />
  </g>
  <g
     id="g82"
     style="display:inline">
    <path
       fill="#68cd3c"
       opacity="1"
       d="m 95.06,46.14 c 3.41,-2.96 8.66,-3.18 12.84,-2.06 5.43,2.21 5.71,8.96 4.59,13.88 -5.02,0.95 -10.08,1.71 -15.15,2.27 -2.39,-0.2 -4.77,-0.5 -7.15,-0.77 1.38,-4.5 2.12,-9.4 4.87,-13.32 z"
       id="path82" />
  </g>
  <g
     id="g83"
     style="display:inline;fill:#442c00;fill-opacity:1">
    <path
       fill="#312711"
       opacity="1"
       d="m 47.42,44.91 c 0.4,0.77 0.8,1.55 1.05,2.38 0.95,-0.73 1.92,-1.44 2.95,-2.04 -1.13,7.88 -0.72,15.91 0.31,23.77 0.45,3.42 3.89,4.95 6.32,6.83 6.58,5.71 9.65,14.41 11.66,22.65 2.6,10.72 2.58,21.96 0.7,32.79 -0.28,0.34 -0.84,1.01 -1.12,1.35 20.66,-3.45 41.15,-7.9 61.78,-11.58 6.98,-1.61 14.05,-3.3 21.28,-2.65 l 0.1,-1.03 c 0.25,-3.23 0.79,-6.42 1.26,-9.62 -0.05,3.92 -0.85,8.11 0.82,11.82 -1.17,0.02 -2.33,0.12 -3.49,0.3 -20.22,4.58 -40.7,7.92 -61.03,11.95 -5.89,1.16 -11.81,2.08 -17.73,3.09 0.06,0.32 0.18,0.97 0.24,1.29 4.32,2.6 8.49,5.74 13.43,7.04 6.53,-0.51 12.81,-2.66 19.24,-3.87 17.06,-3.43 33.94,-7.73 51.13,-10.51 3.38,-0.62 6.82,-0.36 10.19,0.08 -7.43,1.49 -14.92,2.69 -22.39,4.05 -18.98,4.13 -37.95,8.32 -56.95,12.39 -0.75,6.14 -1.27,12.3 -2.12,18.43 -2.21,-0.35 -4.34,-1.04 -6.4,-1.88 0.59,-0.08 1.78,-0.24 2.37,-0.32 0.77,-4.69 0.77,-9.46 0.62,-14.19 -5.65,-4.08 -11.94,-7.32 -17.19,-11.88 0.07,-4.9 1.74,-9.63 1.77,-14.54 0.41,-12.73 0.1,-26.33 -6.62,-37.59 -2.38,-4.25 -6.47,-7.01 -10.28,-9.85 -2.57,-9.34 -1.87,-19.09 -1.9,-28.66 z"
       id="path83"
       style="fill:#442c00;fill-opacity:1" />
  </g>
  <g
     id="g84"
     style="display:inline">
    <path
       fill="#624723"
       opacity="1"
       d="m 51.42,45.25 c 0.56,-0.03 1.69,-0.1 2.25,-0.13 0.79,3.56 1.77,7.19 1.37,10.87 -0.22,3.54 -1.2,7.11 -0.58,10.65 1.26,2.8 4.49,4.22 7.46,4.06 5.9,-0.15 11.81,-0.44 17.71,0.02 -7.25,1.44 -14.82,1.86 -21.58,5.13 C 55.62,73.97 52.18,72.44 51.73,69.02 50.7,61.16 50.29,53.13 51.42,45.25 Z"
       id="path84" />
  </g>
  <g
     id="g85"
     style="display:inline">
    <path
       fill="#957139"
       opacity="1"
       d="m 22.56,53 c 1.08,-1.06 2.16,-2.12 3.25,-3.17 1.8,8.95 0.32,18.13 1.33,27.17 0.94,8.49 0.7,17.07 1.86,25.54 4.74,-5.41 6.81,-12.44 9.55,-18.95 2.02,-4.66 2.53,-10.44 6.92,-13.65 1.26,1.23 2.52,2.47 3.85,3.63 3.81,2.84 7.9,5.6 10.28,9.85 6.72,11.26 7.03,24.86 6.62,37.59 -0.03,4.91 -1.7,9.64 -1.77,14.54 5.25,4.56 11.54,7.8 17.19,11.88 0.15,4.73 0.15,9.5 -0.62,14.19 -0.59,0.08 -1.78,0.24 -2.37,0.32 -12.36,-5.2 -24.16,-11.59 -36.44,-16.95 -4.98,-2.48 -10.05,-4.77 -15.13,-7.03 -2.09,-1.12 -4.61,-1.99 -5.91,-4.11 -0.32,-8.97 1.68,-17.84 1.55,-26.81 C 22.66,89.03 22.8,71.01 22.56,53 Z"
       id="path85" />
  </g>
  <g
     id="g86"
     style="display:inline">
    <path
       fill="#bf9958"
       opacity="1"
       d="m 99.99,67.38 c 9,-1.49 18.13,-2.35 26.93,-4.84 1.96,0.36 3.69,1.36 5.36,2.4 -1.79,0.92 -3.61,1.79 -5.36,2.77 -3.28,2.25 -7.75,4.73 -7.66,9.29 -0.05,2.32 0.02,5.11 1.89,6.77 2.3,1.48 5.03,2.06 7.59,2.91 1.75,8.61 0.14,17.35 0.8,26.02 5.51,0.64 9.5,-3.62 12.78,-7.4 2.91,-3.5 4.46,-7.87 6.08,-12.07 0.2,7.83 -0.36,15.65 -0.09,23.47 1.37,0.22 2.75,0.45 4.14,0.68 l -0.1,1.03 c -7.23,-0.65 -14.3,1.04 -21.28,2.65 -20.63,3.68 -41.12,8.13 -61.78,11.58 0.28,-0.34 0.84,-1.01 1.12,-1.35 1.88,-10.83 1.9,-22.07 -0.7,-32.79 -2.01,-8.24 -5.08,-16.94 -11.66,-22.65 6.76,-3.27 14.33,-3.69 21.58,-5.13 6.83,-0.85 13.54,-2.4 20.36,-3.34 M 72.03,82 c -2.48,3.1 -0.32,6.92 0.77,10.11 2.6,0.82 5.18,1.69 7.77,2.54 0.96,4.06 1.17,8.23 1.53,12.37 0.49,4.58 -0.83,9.19 0.3,13.73 2,-0.26 4.26,-0.04 5.88,-1.48 5.22,-3.92 9.16,-9.46 11.32,-15.61 1.52,-3.63 1.71,-7.65 3.2,-11.27 2.49,-3.15 6.58,-5.25 7.66,-9.37 1.16,-4.51 -3.39,-8.19 -7.48,-8.58 C 97.02,73.95 91.02,74.32 85.05,74.26 79.54,73.82 75.23,78.05 72.03,82 Z"
       id="path86" />
  </g>
  <g
     id="g87"
     style="display:inline;fill:#442c00;fill-opacity:1">
    <path
       fill="#402c04"
       opacity="1"
       d="m 135.16,65.29 c 3.62,0.84 7.4,0.87 10.99,-0.16 l 0.03,-0.01 c 4.27,1.01 9.65,1.39 11.82,5.89 1.74,2.38 -0.46,4.91 -1.07,7.27 -1.05,0.15 -2.09,0.3 -3.14,0.44 -0.47,1.25 -0.95,2.49 -1.37,3.76 -0.57,0.16 -1.15,0.32 -1.72,0.48 -0.88,3.4 -1.65,6.82 -2.3,10.27 -1.62,4.2 -3.17,8.57 -6.08,12.07 -3.28,3.78 -7.27,8.04 -12.78,7.4 -0.66,-8.67 0.95,-17.41 -0.8,-26.02 -2.56,-0.85 -5.29,-1.43 -7.59,-2.91 -1.87,-1.66 -1.94,-4.45 -1.89,-6.77 -0.09,-4.56 4.38,-7.04 7.66,-9.29 2.94,-0.11 5.88,-0.18 8.82,-0.25 -0.2,-0.72 -0.39,-1.45 -0.58,-2.17 m -6.31,6.61 c -3.07,1.58 -4.82,4.92 -4.46,8.35 9.64,2.41 20.24,1.07 28.7,-4.25 0.95,-1.58 -1.01,-2.85 -1.72,-4.09 -0.54,-0.17 -1.62,-0.52 -2.16,-0.69 -2.93,-1.25 -6.17,-0.67 -9.26,-0.68 -3.71,0.15 -7.61,-0.16 -11.1,1.36 m 13.58,13.51 c -3.1,0.3 -6.16,0.81 -9.22,1.31 0.64,3.7 1.72,7.43 1.19,11.22 -0.38,3.24 -0.89,6.52 -0.07,9.74 0.5,0.11 1.49,0.32 1.98,0.43 l -0.17,-0.48 c 4.87,-3.78 6.05,-10.12 7.71,-15.68 0.55,-2.61 2.04,-5.46 0.52,-8.03 -0.48,0.38 -1.46,1.12 -1.94,1.49 z"
       id="path87"
       style="fill:#442c00;fill-opacity:1" />
  </g>
  <g
     id="g88"
     style="display:inline">
    <path
       fill="#c79729"
       opacity="1"
       d="m 128.85,71.9 c 3.49,-1.52 7.39,-1.21 11.1,-1.36 3.09,0.01 6.33,-0.57 9.26,0.68 -4.03,-0.03 -8.06,0.12 -12.08,0.2 -2.58,0.15 -5.24,0.22 -7.68,1.12 -2.09,0.77 -2.56,3.21 -3.62,4.9 4.62,0.13 9.23,0.47 13.81,1.03 4.39,0.63 8.59,-0.89 12.38,-2.95 -0.16,-0.9 -0.49,-2.71 -0.65,-3.61 0.71,1.24 2.67,2.51 1.72,4.09 -8.46,5.32 -19.06,6.66 -28.7,4.25 -0.36,-3.43 1.39,-6.77 4.46,-8.35 z"
       id="path88" />
  </g>
  <g
     id="g90"
     style="display:inline">
    <path
       fill="#fff68b"
       opacity="1"
       d="m 137.13,71.42 c 4.02,-0.08 8.05,-0.23 12.08,-0.2 0.54,0.17 1.62,0.52 2.16,0.69 0.16,0.9 0.49,2.71 0.65,3.61 -3.79,2.06 -7.99,3.58 -12.38,2.95 -0.89,-2.33 -1.72,-4.69 -2.51,-7.05 m 3.23,5.16 c 2.26,-0.04 4.55,0.13 6.79,-0.32 2.27,-0.93 0.88,-3.35 0.49,-5.03 -2.4,0.14 -4.81,0.25 -7.21,0.31 -0.45,1.66 -0.44,3.36 -0.07,5.04 z"
       id="path89" />
    <path
       fill="#fff68b"
       opacity="1"
       d="m 80.68,170.83 c 2.79,-0.01 5.61,-0.01 8.36,-0.61 2.34,0.85 4.75,1.46 7.21,1.84 -5.2,1.13 -10.36,4.46 -15.79,2.4 l -0.55,-0.13 c 0.26,-1.17 0.51,-2.34 0.77,-3.5 z"
       id="path90" />
  </g>
  <g
     id="g91"
     style="display:inline">
    <path
       fill="#ffed5d"
       opacity="1"
       d="m 129.45,72.54 c 2.44,-0.9 5.1,-0.97 7.68,-1.12 0.79,2.36 1.62,4.72 2.51,7.05 -4.58,-0.56 -9.19,-0.9 -13.81,-1.03 1.06,-1.69 1.53,-4.13 3.62,-4.9 z"
       id="path91" />
  </g>
  <g
     id="g92"
     style="display:inline;fill:#442c00;fill-opacity:1">
    <path
       fill="#423009"
       opacity="1"
       d="m 72.03,82 c 3.2,-3.95 7.51,-8.18 13.02,-7.74 5.97,0.06 11.97,-0.31 17.93,0.18 4.09,0.39 8.64,4.07 7.48,8.58 -1.08,4.12 -5.17,6.22 -7.66,9.37 -1.49,3.62 -1.68,7.64 -3.2,11.27 -2.16,6.15 -6.1,11.69 -11.32,15.61 -1.62,1.44 -3.88,1.22 -5.88,1.48 -1.13,-4.54 0.19,-9.15 -0.3,-13.73 C 81.74,102.88 81.53,98.71 80.57,94.65 77.98,93.8 75.4,92.93 72.8,92.11 71.71,88.92 69.55,85.1 72.03,82 m 6.32,-0.03 c -1.56,1.91 -2.15,4.21 -0.75,6.44 4.45,0.45 8.94,1.29 13.41,0.48 3.09,-0.54 6.94,-0.45 9,-3.26 0.31,-0.02 0.93,-0.05 1.24,-0.07 1.04,-0.86 2.09,-1.71 3.16,-2.53 0.11,-0.82 0.22,-1.63 0.32,-2.44 -1.5,-0.51 -3,-1.02 -4.52,-1.45 -2.52,0.14 -5.04,0.18 -7.56,0.2 -0.79,-0.02 -2.37,-0.07 -3.16,-0.09 l 0.03,-0.81 c -1.26,0.17 -2.51,0.35 -3.77,0.52 -2.72,0.31 -5.34,1.15 -7.4,3.01 m 7.07,12.56 c 0.21,0.02 0.62,0.06 0.83,0.08 0.37,7.08 0.76,14.16 1.12,21.24 0.28,-0.02 0.83,-0.08 1.11,-0.1 l -0.02,-0.32 c 6.13,-5.67 6.73,-14.7 9.08,-22.27 -3.98,0.88 -8.03,1.49 -12.12,1.37 z"
       id="path92"
       style="fill:#442c00;fill-opacity:1" />
  </g>
  <g
     id="g93"
     style="display:inline;fill:#442c00;fill-opacity:1">
    <path
       fill="#110d07"
       opacity="1"
       d="m 153.79,78.72 c 1.05,-0.14 2.09,-0.29 3.14,-0.44 1.58,4.75 3.42,9.6 3.1,14.7 -0.21,5.02 0.31,10.07 -0.25,15.07 -0.65,2.2 -3.09,4.99 -0.9,7.05 6.72,4.74 15.59,5.19 22.26,10.07 -1.09,4.21 -0.55,8.81 -2.32,12.82 -1.07,1.89 -2.21,3.74 -3.34,5.59 -1.59,-0.09 -3.17,-0.19 -4.76,-0.19 4.21,-4.04 3.2,-10.56 4.1,-15.84 -6.59,-3.1 -13.7,-4.87 -20.29,-7.97 -1.67,-3.71 -0.87,-7.9 -0.82,-11.82 0.96,-8.43 0.88,-17.03 -1.29,-25.28 0.42,-1.27 0.9,-2.51 1.37,-3.76 z"
       id="path93"
       style="fill:#442c00;fill-opacity:1" />
  </g>
  <g
     id="g94"
     style="display:inline">
    <path
       fill="#ffe741"
       opacity="1"
       d="m 78.35,81.97 c 2.06,-1.86 4.68,-2.7 7.4,-3.01 0.15,2.02 0.29,4.05 0.43,6.07 -2.19,0.25 -4.37,0.5 -6.56,0.74 -0.42,-1.27 -0.85,-2.53 -1.27,-3.8 z"
       id="path94" />
  </g>
  <g
     id="g95"
     style="display:inline">
    <path
       fill="#dcab30"
       opacity="1"
       d="m 85.75,78.96 c 1.26,-0.17 2.51,-0.35 3.77,-0.52 l -0.03,0.81 c -0.07,2.06 -0.14,4.12 -0.21,6.19 3.57,0.23 7.15,0.38 10.73,0.19 -2.06,2.81 -5.91,2.72 -9,3.26 -4.47,0.81 -8.96,-0.03 -13.41,-0.48 -1.4,-2.23 -0.81,-4.53 0.75,-6.44 0.42,1.27 0.85,2.53 1.27,3.8 2.19,-0.24 4.37,-0.49 6.56,-0.74 -0.14,-2.02 -0.28,-4.05 -0.43,-6.07 z"
       id="path95" />
  </g>
  <g
     id="g96"
     style="display:inline">
    <path
       fill="#fffb9f"
       opacity="1"
       d="m 89.49,79.25 c 0.79,0.02 2.37,0.07 3.16,0.09 -0.14,1.51 -0.27,3.02 -0.4,4.53 2.79,0.35 5.63,0.35 8.42,-0.05 -0.11,-1.17 -0.35,-3.51 -0.46,-4.68 1.52,0.43 3.02,0.94 4.52,1.45 -0.1,0.81 -0.21,1.62 -0.32,2.44 -1.07,0.82 -2.12,1.67 -3.16,2.53 -0.31,0.02 -0.93,0.05 -1.24,0.07 -3.58,0.19 -7.16,0.04 -10.73,-0.19 0.07,-2.07 0.14,-4.13 0.21,-6.19 z"
       id="path96" />
  </g>
  <g
     id="g97"
     style="display:inline">
    <path
       fill="#fffffd"
       opacity="1"
       d="m 92.65,79.34 c 2.52,-0.02 5.04,-0.06 7.56,-0.2 0.11,1.17 0.35,3.51 0.46,4.68 -2.79,0.4 -5.63,0.4 -8.42,0.05 0.13,-1.51 0.26,-3.02 0.4,-4.53 z"
       id="path97" />
  </g>
  <g
     id="g98"
     style="display:inline">
    <path
       fill="#d2ad6a"
       opacity="1"
       d="m 150.7,82.96 c 0.57,-0.16 1.15,-0.32 1.72,-0.48 2.17,8.25 2.25,16.85 1.29,25.28 -0.47,3.2 -1.01,6.39 -1.26,9.62 -1.39,-0.23 -2.77,-0.46 -4.14,-0.68 -0.27,-7.82 0.29,-15.64 0.09,-23.47 0.65,-3.45 1.42,-6.87 2.3,-10.27 z"
       id="path98" />
  </g>
  <g
     id="g99"
     style="display:inline">
    <path
       fill="#f6d43d"
       opacity="1"
       d="m 142.43,85.41 c 0.48,-0.37 1.46,-1.11 1.94,-1.49 1.52,2.57 0.03,5.42 -0.52,8.03 -1.66,5.56 -2.84,11.9 -7.71,15.68 -2,-3.71 0.02,-7.66 1.09,-11.31 1.27,-3.84 1.33,-8.58 5.2,-10.91 z"
       id="path99" />
  </g>
  <g
     id="g100"
     style="display:inline">
    <path
       fill="#cc9e28"
       opacity="1"
       d="m 133.21,86.72 c 3.06,-0.5 6.12,-1.01 9.22,-1.31 -3.87,2.33 -3.93,7.07 -5.2,10.91 -1.07,3.65 -3.09,7.6 -1.09,11.31 l 0.17,0.48 c -0.49,-0.11 -1.48,-0.32 -1.98,-0.43 -0.82,-3.22 -0.31,-6.5 0.07,-9.74 0.53,-3.79 -0.55,-7.52 -1.19,-11.22 z"
       id="path100" />
  </g>
  <g
     id="g101"
     style="display:inline">
    <path
       fill="#f8d338"
       opacity="1"
       d="m 85.42,94.53 c 4.09,0.12 8.14,-0.49 12.12,-1.37 -2.35,7.57 -2.95,16.6 -9.08,22.27 -1.04,-7.02 2.94,-13.35 3.46,-20.24 -1.89,-0.2 -3.78,-0.39 -5.67,-0.58 -0.21,-0.02 -0.62,-0.06 -0.83,-0.08 z"
       id="path101" />
  </g>
  <g
     id="g102"
     style="display:inline">
    <path
       fill="#dba928"
       opacity="1"
       d="m 86.25,94.61 c 1.89,0.19 3.78,0.38 5.67,0.58 -0.52,6.89 -4.5,13.22 -3.46,20.24 l 0.02,0.32 c -0.28,0.02 -0.83,0.08 -1.11,0.1 -0.36,-7.08 -0.75,-14.16 -1.12,-21.24 z"
       id="path102" />
  </g>
  <g
     id="g103"
     style="display:inline">
    <path
       fill="#d9b577"
       opacity="1"
       d="m 90.01,131.83 c 20.33,-4.03 40.81,-7.37 61.03,-11.95 1.16,-0.18 2.32,-0.28 3.49,-0.3 6.59,3.1 13.7,4.87 20.29,7.97 -0.9,5.28 0.11,11.8 -4.1,15.84 -0.56,0.14 -1.7,0.43 -2.27,0.57 -1.65,-4.84 0.57,-9.89 0.02,-14.85 -0.49,-0.04 -1.47,-0.12 -1.96,-0.16 -3.37,-0.44 -6.81,-0.7 -10.19,-0.08 -17.19,2.78 -34.07,7.08 -51.13,10.51 -6.43,1.21 -12.71,3.36 -19.24,3.87 -4.94,-1.3 -9.11,-4.44 -13.43,-7.04 -0.06,-0.32 -0.18,-0.97 -0.24,-1.29 5.92,-1.01 11.84,-1.93 17.73,-3.09 z"
       id="path103" />
  </g>
  <g
     id="g104"
     style="display:inline">
    <path
       fill="#c0995a"
       opacity="1"
       d="m 166.51,128.95 c 0.49,0.04 1.47,0.12 1.96,0.16 0.55,4.96 -1.67,10.01 -0.02,14.85 -16.1,4.56 -32.48,8.1 -48.66,12.38 -11.59,2.45 -22.87,6.59 -34.74,7.48 0.85,-6.13 1.37,-12.29 2.12,-18.43 19,-4.07 37.97,-8.26 56.95,-12.39 7.47,-1.36 14.96,-2.56 22.39,-4.05 z"
       id="path104" />
  </g>
  <g
     id="g105"
     style="display:inline;fill:#442c00;fill-opacity:1">
    <path
       fill="#442c00"
       opacity="1"
       d="m 5.31,134.42 c 3.14,-0.6 6.3,-1.04 9.43,-1.71 0.49,2 0.97,4.01 1.45,6.02 -1.33,-0.52 -2.67,-1.01 -4.02,-1.49 -1.53,5.51 0.14,11.14 0.72,16.66 0.68,5.64 7.06,5.97 11.09,8.12 12.18,6.93 24.74,13.15 37.04,19.87 5.59,2.75 10.92,6.04 16.63,8.54 1.19,0.38 2.41,0.67 3.62,0.96 7.66,-1.58 15.1,-4.06 22.7,-5.87 26.4,-7.25 53.08,-13.48 79.36,-21.17 0.98,-0.31 1.96,-0.62 2.94,-0.94 0.97,-5.85 2.14,-11.7 2.25,-17.64 -2.84,-0.59 -5.69,-1.14 -8.59,-1.3 -0.49,0.13 -1.48,0.38 -1.98,0.51 0.58,-1.94 1.09,-3.91 1.32,-5.93 5.39,0.62 10.18,3.54 15.58,4.23 -1.22,8.59 -3.43,16.99 -4.95,25.53 -2.46,0.4 -4.91,0.84 -7.3,1.56 -8.12,2.63 -16.6,3.95 -24.7,6.66 -22.46,5.65 -44.76,11.94 -67.22,17.57 -3.46,1.24 -7.07,2.04 -10.7,2.53 -3.67,-0.29 -7.05,-2.01 -10.12,-3.92 -5.87,-3.69 -12.47,-6.03 -18.3,-9.78 -4.84,-2.98 -10.24,-4.92 -15.1,-7.87 -5.64,-3.62 -11.98,-5.95 -17.73,-9.38 -2.77,-1.67 -5.62,-3.19 -8.54,-4.57 C 8.44,156.04 8.43,150.12 6.67,144.57 5.88,141.24 5.51,137.83 5.31,134.42 Z"
       id="path105"
       style="fill:#442c00;fill-opacity:1" />
  </g>
  <g
     id="g106"
     style="display:inline">
    <path
       fill="#f3d93b"
       opacity="1"
       d="m 12.17,137.24 c 1.35,0.48 2.69,0.97 4.02,1.49 0.72,0.29 1.43,0.6 2.13,0.93 -1.02,1.74 -1.99,3.54 -2.37,5.55 -0.45,3.07 -1.28,6.1 -3.06,8.69 -0.58,-5.52 -2.25,-11.15 -0.72,-16.66 z"
       id="path106" />
  </g>
  <g
     id="g107"
     style="display:inline;fill:#442c00;fill-opacity:1">
    <path
       fill="#0f0d00"
       opacity="1"
       d="m 175.48,143.58 c 1.13,-1.85 2.27,-3.7 3.34,-5.59 l 0.45,1.06 c -0.23,2.02 -0.74,3.99 -1.32,5.93 -6.26,3.99 -13.88,4.64 -20.84,6.82 -18.05,4.08 -35.83,9.34 -53.76,13.92 -5.77,1.35 -11.36,3.61 -17.3,4.09 -5,0.51 -9.23,-2.62 -13.64,-4.41 -11.29,-5.37 -22.52,-10.87 -33.84,-16.19 1.21,-1.41 2.43,-2.81 3.64,-4.22 12.28,5.36 24.08,11.75 36.44,16.95 2.06,0.84 4.19,1.53 6.4,1.88 11.87,-0.89 23.15,-5.03 34.74,-7.48 16.18,-4.28 32.56,-7.82 48.66,-12.38 0.57,-0.14 1.71,-0.43 2.27,-0.57 1.59,0 3.17,0.1 4.76,0.19 z"
       id="path107"
       style="fill:#442c00;fill-opacity:1" />
  </g>
  <g
     id="g108"
     style="display:inline">
    <path
       fill="#d9a729"
       opacity="1"
       d="m 15.95,145.21 c 0.38,-2.01 1.35,-3.81 2.37,-5.55 6.55,3.61 13.6,6.15 20.25,9.55 11.32,5.32 22.55,10.82 33.84,16.19 -0.9,1.35 -1.81,2.7 -2.71,4.05 -17.4,-8.6 -35.37,-16.04 -52.28,-25.61 0.03,0.53 0.07,1.6 0.09,2.13 z"
       id="path108" />
  </g>
  <g
     id="g109"
     style="display:inline">
    <path
       fill="#ffffab"
       opacity="1"
       d="m 157.11,151.8 c 6.96,-2.18 14.58,-2.83 20.84,-6.82 0.5,-0.13 1.49,-0.38 1.98,-0.51 0.54,4.1 2.36,8.28 0.92,12.41 -0.14,-1.59 -0.28,-3.17 -0.44,-4.75 -2.72,0.57 -5.39,1.33 -8.02,2.19 -4.54,1.55 -9.47,1.36 -13.94,3.13 -3.39,1.34 -6.88,2.41 -10.51,2.81 -6.07,0.75 -11.86,2.91 -17.91,3.75 -5.53,0.78 -10.46,3.83 -16.08,4.18 -6.07,0.49 -11.67,3.15 -17.7,3.87 -2.46,-0.38 -4.87,-0.99 -7.21,-1.84 4.65,-1.71 9.47,-2.85 14.31,-3.91 15.6,-4.04 31.14,-8.28 46.86,-11.84 2.43,-0.5 4.8,-1.33 6.9,-2.67 z"
       id="path109" />
  </g>
  <g
     id="g110"
     style="display:inline">
    <path
       fill="#ffffeb"
       opacity="1"
       d="m 179.93,144.47 c 2.9,0.16 5.75,0.71 8.59,1.3 -0.11,5.94 -1.28,11.79 -2.25,17.64 -0.98,0.32 -1.96,0.63 -2.94,0.94 -0.77,0.1 -2.32,0.31 -3.1,0.42 0.14,-2.64 0.31,-5.27 0.62,-7.89 1.44,-4.13 -0.38,-8.31 -0.92,-12.41 z"
       id="path110" />
  </g>
  <g
     id="g111"
     style="display:inline">
    <path
       fill="#dfb12e"
       opacity="1"
       d="m 12.89,153.9 c 1.78,-2.59 2.61,-5.62 3.06,-8.69 l 1.56,0.76 c 5.56,2.86 10.95,6.05 16.75,8.43 14.05,6.64 28.09,13.3 42.23,19.75 1.66,5.27 1.46,10.83 1.16,16.28 -5.71,-2.5 -11.04,-5.79 -16.63,-8.54 -12.3,-6.72 -24.86,-12.94 -37.04,-19.87 -4.03,-2.15 -10.41,-2.48 -11.09,-8.12 z"
       id="path111" />
  </g>
  <g
     id="g112"
     style="display:inline">
    <path
       fill="#eec036"
       opacity="1"
       d="m 103.35,165.72 c 17.93,-4.58 35.71,-9.84 53.76,-13.92 -2.1,1.34 -4.47,2.17 -6.9,2.67 -15.72,3.56 -31.26,7.8 -46.86,11.84 -4.84,1.06 -9.66,2.2 -14.31,3.91 -2.75,0.6 -5.57,0.6 -8.36,0.61 -0.26,1.16 -0.51,2.33 -0.77,3.5 l -0.6,-0.14 c -3.21,-1.58 -6.37,-3.24 -9.61,-4.74 0.9,-1.35 1.81,-2.7 2.71,-4.05 4.41,1.79 8.64,4.92 13.64,4.41 5.94,-0.48 11.53,-2.74 17.3,-4.09 z"
       id="path112" />
  </g>
  <g
     id="g113"
     style="display:inline">
    <path
       fill="#ffe64c"
       opacity="1"
       d="m 172.39,154.32 c 2.63,-0.86 5.3,-1.62 8.02,-2.19 0.16,1.58 0.3,3.16 0.44,4.75 -0.31,2.62 -0.48,5.25 -0.62,7.89 0.78,-0.11 2.33,-0.32 3.1,-0.42 -26.28,7.69 -52.96,13.92 -79.36,21.17 -7.6,1.81 -15.04,4.29 -22.7,5.87 0.11,-5.66 -0.03,-11.32 -0.81,-16.93 5.43,2.06 10.59,-1.27 15.79,-2.4 6.03,-0.72 11.63,-3.38 17.7,-3.87 5.62,-0.35 10.55,-3.4 16.08,-4.18 6.05,-0.84 11.84,-3 17.91,-3.75 3.63,-0.4 7.12,-1.47 10.51,-2.81 4.47,-1.77 9.4,-1.58 13.94,-3.13 z"
       id="path113" />
  </g>
  <g
     id="g114"
     style="display:inline">
    <path
       fill="#93761b"
       opacity="1"
       d="m 79.31,174.19 0.6,0.14 0.55,0.13 c 0.78,5.61 0.92,11.27 0.81,16.93 -1.21,-0.29 -2.43,-0.58 -3.62,-0.96 0.3,-5.45 0.5,-11.01 -1.16,-16.28 0.94,-0.01 1.88,0.01 2.82,0.04 z"
       id="path114" />
  </g>
</svg>
