<?xml version="1.0" encoding="UTF-8" standalone="no"?>
<svg
   id="Layer_1"
   data-name="Layer 1"
   width="80"
   height="80"
   viewBox="0 0 80 80"
   version="1.1"
   sodipodi:docname="neomail.svg"
   inkscape:version="1.3.2 (091e20e, 2023-11-25, custom)"
   xmlns:inkscape="http://www.inkscape.org/namespaces/inkscape"
   xmlns:sodipodi="http://sodipodi.sourceforge.net/DTD/sodipodi-0.dtd"
   xmlns="http://www.w3.org/2000/svg"
   xmlns:svg="http://www.w3.org/2000/svg">
  <defs
     id="defs11" />
  <sodipodi:namedview
     id="namedview11"
     pagecolor="#ffffff"
     bordercolor="#000000"
     borderopacity="0.25"
     inkscape:showpageshadow="2"
     inkscape:pageopacity="0.0"
     inkscape:pagecheckerboard="0"
     inkscape:deskcolor="#d1d1d1"
     inkscape:zoom="6.3625"
     inkscape:cx="39.921415"
     inkscape:cy="40"
     inkscape:window-width="1360"
     inkscape:window-height="705"
     inkscape:window-x="-8"
     inkscape:window-y="-8"
     inkscape:window-maximized="1"
     inkscape:current-layer="Layer_1" />
  <title
     id="title1">neomail-icon</title>
  <g
     id="neomail_basic_0_Layer3_0_FILL"
     data-name="neomail basic 0 Layer3 0 FILL"
     style="display:inline">
    <path
       d="m 70.1049,12.8305 q -1.3077,-5.05 -4.43,-7.196 Q 61.2458,2.0276 52.8659,5.3487 33.2189,13.09 12.9941,21.4838 A 0.8768,0.8768 0 0 0 12.6089,21.7584 14.5339,14.5339 0 0 0 5.1932,28.03 0.3768,0.3768 0 0 1 5.0969,28.2191 Q 2.6143,32.7758 4.3264,39.651 a 226.17,226.17 0 0 0 9.053,28.0748 l 0.0963,0.0036 q 2.718,6.4707 7.2231,7.7819 a 0.7349,0.7349 0 0 0 0.2889,0.1071 l 0.1926,0.0072 0.0963,0.0036 a 9.4474,9.4474 0 0 0 5.6822,-0.462 236.52,236.52 0 0 0 43.2424,-20.15 0.4282,0.4282 0 0 0 0.2889,-0.1819 9.6688,9.6688 0 0 0 3.756,-4.0972 q 0.0526,-0.0918 0.0963,-0.189 a 0.252,0.252 0 0 0 0,-0.1927 0.3079,0.3079 0 0 0 0.1926,-0.1854 0.6885,0.6885 0 0 0 0.0963,-0.3816 V 49.693 a 11.7774,11.7774 0 0 0 0.3853,-3.7417 V 45.7587 A 168.6122,168.6122 0 0 0 70.1049,12.8305 m -1.0594,8.2429 2.4077,16.5587 q 0.5778,4.0665 0.8667,8.2185 a 5.4961,5.4961 0 0 1 -0.0963,2.3078 6.4029,6.4029 0 0 1 -1.9261,3.2026 q -0.578,0.46 -3.1782,2 L 64.3264,54.99 A 3.6326,3.6326 0 0 1 62.978,55.4211 1.3257,1.3257 0 0 1 62.1113,55.2924 1.0205,1.0205 0 0 1 61.726,55.567 l 0.4816,-0.0783 a 0.9007,0.9007 0 0 1 0.77,0.8955 1.1038,1.1038 0 0 1 -0.6741,0.649 113.25,113.25 0 0 1 -13.5795,6.427 l -17.335,6.7685 q -4.3339,1.668 -6.549,2.3557 a 6.2205,6.2205 0 0 1 -3.1781,0.2665 6.015,6.015 0 0 1 -3.2745,-2.8189 41.1684,41.1684 0 0 1 -4.43,-8.3517 L 8.66,46.7473 a 59.4614,59.4614 0 0 1 -2.2151,-7.6911 19.0184,19.0184 0 0 1 0.0963,-7.8936 8.3206,8.3206 0 0 1 1.5409,-3.0243 10.7113,10.7113 0 0 1 2.0225,-1.8507 35.4866,35.4866 0 0 1 3.9486,-2.3565 L 50.6506,8.3478 a 69.2975,69.2975 0 0 1 8.7641,-2.08 q 1.1556,-0.1494 1.5409,0.25 a 0.7584,0.7584 0 0 1 0.0963,1.0629 1.9233,1.9233 0 0 1 2.1188,-0.1134 6.1043,6.1043 0 0 1 1.83,1.5129 22.2647,22.2647 0 0 1 2.6966,6.8423 l 1.3484,5.251 M 5.8673,27.7666 6.0599,27.6775 5.9636,27.7702 5.8673,27.7666 m 22.8251,34.1752 a 6.16,6.16 0 0 0 -0.6742,-0.0252 q -0.5011,0.1171 0.6742,0.1215 v -0.0963 m 25.5216,-35.74 a 6.5126,6.5126 0 0 0 -2.6966,-0.6785 15.9432,15.9432 0 0 0 -10.2087,2.7005 14.8837,14.8837 0 0 0 -6.4526,8.1378 L 34.2782,38.94 a 15.0278,15.0278 0 0 0 -0.2889,2.9748 l 0.2889,2.0333 a 17.0556,17.0556 0 0 0 1.0594,4.0845 8.77,8.77 0 0 0 3.3708,4.0745 10.5683,10.5683 0 0 0 5.008,1.9206 l 2.3114,0.1827 a 13.5712,13.5712 0 0 0 3.2745,-0.4556 13.2089,13.2089 0 0 0 2.7929,-1.4366 q 5.2007,-3.3691 6.7416,-6.5861 a 21.77,21.77 0 0 0 1.0594,-2.9459 L 60.474,40.1111 A 14.0767,14.0767 0 0 0 57.2,28.6245 8.8169,8.8169 0 0 0 54.2144,26.2016 m -7.8973,0.2829 q 5.49,-0.8544 8.6678,1.0942 A 10.1628,10.1628 0 0 1 59.222,34.19 q 0.1279,0.6864 0.1927,1.4518 a 8.5808,8.5808 0 0 1 0.1926,2.03 5.7825,5.7825 0 0 1 -0.0963,2.4041 l -0.4816,2.4861 -0.1926,0.2817 -0.1926,1.2448 a 14.3885,14.3885 0 0 1 -1.252,2.4573 14.8992,14.8992 0 0 1 -9.92,6.5636 9.13,9.13 0 0 1 -3.0818,0.0775 l -1.7336,-0.6426 a 16.7893,16.7893 0 0 1 -4.0449,-2.27 10.4078,10.4078 0 0 1 -3.3708,-7.5417 16.7918,16.7918 0 0 1 1.1559,-7.5656 15.4562,15.4562 0 0 1 4.3339,-6.1945 7.61,7.61 0 0 1 2.3114,-1.5509 9.0714,9.0714 0 0 1 3.2744,-0.9371 z"
       id="path1"
       style="display:inline;fill:#66421b;fill-opacity:1" />
    <path
       d="M 61.0519,7.5806 A 0.7584,0.7584 0 0 0 60.9556,6.5177 q -0.3852,-0.4 -1.5409,-0.25 a 69.2975,69.2975 0 0 0 -8.7641,2.08 L 14.0535,23.9311 A 35.4866,35.4866 0 0 0 10.1049,26.2876 10.7113,10.7113 0 0 0 8.0824,28.1383 8.3206,8.3206 0 0 0 6.5415,31.1626 19.0184,19.0184 0 0 0 6.4452,39.0562 59.4614,59.4614 0 0 0 8.66,46.7473 L 13.9572,61.68 a 41.1684,41.1684 0 0 0 4.43,8.3517 6.015,6.015 0 0 0 3.2745,2.8189 6.2205,6.2205 0 0 0 3.1781,-0.2665 q 2.2152,-0.6878 6.549,-2.3557 l 17.3354,-6.7682 a 113.25,113.25 0 0 0 13.5795,-6.427 1.1038,1.1038 0 0 0 0.6741,-0.649 0.9007,0.9007 0 0 0 -0.77,-0.8955 l -0.4816,0.0783 -0.5778,0.0747 -3.2745,1.0334 q -8.3788,2.48 -14.8314,4.8393 -4.1414,1.5789 -6.1638,2.2738 A 29.015,29.015 0 0 1 30.33,65.0848 l 3.5634,-6.9937 q 1.0594,-1.983 0.3852,-2.9712 a 2.1748,2.1748 0 0 0 -2.4077,-0.7641 8.2151,8.2151 0 0 0 -2.1188,1.4618 l -1.6372,1.48 q -3.5634,3.045 -6.9342,6.3862 L 20.1209,49.3905 q -0.5778,-8.9783 0.1926,-13.38 0.0583,-0.3762 0.0964,-0.6705 v -0.2889 a 4.27,4.27 0 0 1 0.0963,-1.2485 l 0.5778,-0.46 0.5779,-0.2673 0.8667,0.0323 1.0594,0.4248 0.3853,0.0144 1.4446,0.6318 0.77,0.2214 1.541,0.25 3.3708,0.2222 a 1.6044,1.6044 0 0 0 -0.0964,-0.7741 q -0.4815,-1.3662 -3.467,-2.9224 -1.614,-0.7868 -3.7561,-2.0665 A 4.8407,4.8407 0 0 0 24.9359,28.4783 79.2017,79.2017 0 0 1 39.19,19.7657 q 11.1718,-5.65 14.7352,-8.0211 0.7344,-0.4556 1.3483,-0.8164 L 59.8,8.69 A 2.3533,2.3533 0 0 0 60.6668,8.0482 L 60.9557,7.7701 A 0.345,0.345 0 0 0 61.052,7.581 M 28.0182,61.9166 a 6.16,6.16 0 0 1 0.6742,0.0252 v 0.0963 Q 27.517,62.0336 28.0182,61.9166 Z"
       fill="#daa972"
       id="path2"
       style="display:inline" />
    <path
       d="M 71.4532,37.6321 69.0455,21.0734 67.6971,15.8224 A 22.2647,22.2647 0 0 0 65.0005,8.98 6.1043,6.1043 0 0 0 63.1705,7.4671 1.9233,1.9233 0 0 0 61.0517,7.5805 0.345,0.345 0 0 1 60.9554,7.7696 L 60.6665,8.0477 A 2.3533,2.3533 0 0 1 59.8,8.69 l -4.5265,2.2386 q -0.614,0.3607 -1.3483,0.8164 -3.5635,2.3705 -14.7352,8.0207 a 79.2017,79.2017 0 0 0 -14.2536,8.7132 4.8407,4.8407 0 0 1 -1.1557,0.6309 q 2.1422,1.28 3.7561,2.0665 2.9855,1.5561 3.467,2.9224 a 1.6044,1.6044 0 0 1 0.0964,0.7741 l -3.3708,-0.2222 -1.541,-0.25 -0.77,-0.2214 -1.4446,-0.6318 -0.3853,-0.0144 -1.0594,-0.4248 -0.8667,-0.0323 -0.5779,0.2673 -0.5778,0.46 a 4.27,4.27 0 0 0 -0.0963,1.2485 V 35.34 q -0.0381,0.2943 -0.0964,0.6705 -0.77,4.4014 -0.1926,13.38 L 21.18,63.6836 q 3.3708,-3.3411 6.9342,-6.3862 l 1.6372,-1.48 a 8.2151,8.2151 0 0 1 2.1188,-1.4618 2.1748,2.1748 0 0 1 2.4077,0.7641 q 0.6743,0.9882 -0.3852,2.9712 L 30.33,65.0848 a 29.015,29.015 0 0 0 6.5489,-1.2963 q 2.0226,-0.6949 6.1638,-2.2738 6.4526,-2.3593 14.8314,-4.8393 l 3.2745,-1.0334 0.5778,-0.0747 a 1.0205,1.0205 0 0 0 0.3853,-0.2746 1.3257,1.3257 0 0 0 0.8667,0.1287 3.6326,3.6326 0 0 0 1.3484,-0.4311 l 2.7929,-1.6293 q 2.6,-1.54 3.1782,-2 a 6.4029,6.4029 0 0 0 1.9261,-3.2026 5.4961,5.4961 0 0 0 0.0963,-2.3078 q -0.2889,-4.152 -0.8667,-8.2185 M 51.5174,25.5231 a 6.5126,6.5126 0 0 1 2.6966,0.6785 8.8169,8.8169 0 0 1 2.986,2.4229 14.0767,14.0767 0 0 1 3.274,11.4867 l -0.5778,2.6751 a 21.77,21.77 0 0 1 -1.0594,2.9459 q -1.5409,3.2171 -6.7416,6.5861 a 13.2089,13.2089 0 0 1 -2.7929,1.4366 13.5712,13.5712 0 0 1 -3.2745,0.4556 l -2.3114,-0.1827 a 10.5683,10.5683 0 0 1 -5.008,-1.9206 8.77,8.77 0 0 1 -3.3708,-4.0745 17.0556,17.0556 0 0 1 -1.0594,-4.0845 l -0.2889,-2.0333 a 15.0278,15.0278 0 0 1 0.2889,-2.9748 l 0.5779,-2.5787 a 14.8837,14.8837 0 0 1 6.4526,-8.1378 15.9432,15.9432 0 0 1 10.2087,-2.7005 z"
       fill="#fdd1a5"
       id="path3"
       style="display:inline" />
    <path
       d="m 54.9845,27.5787 q -3.1782,-1.9485 -8.6678,-1.0942 a 9.0714,9.0714 0 0 0 -3.2744,0.9371 7.61,7.61 0 0 0 -2.3114,1.5509 15.4562,15.4562 0 0 0 -4.3339,6.1945 16.7918,16.7918 0 0 0 -1.1557,7.5651 10.4078,10.4078 0 0 0 3.3708,7.5417 16.7893,16.7893 0 0 0 4.0449,2.27 l 1.7336,0.6426 a 9.13,9.13 0 0 0 3.0818,-0.0775 14.8992,14.8992 0 0 0 9.92,-6.5636 14.3885,14.3885 0 0 0 1.252,-2.4573 l 0.1926,-1.2448 0.1926,-0.2817 0.4816,-2.4861 a 5.7825,5.7825 0 0 0 0.0963,-2.4041 8.5808,8.5808 0 0 0 -0.1926,-2.03 q -0.0648,-0.7655 -0.1927,-1.4518 a 10.1628,10.1628 0 0 0 -4.2377,-6.6108 z"
       fill="#8d1d0d"
       id="path4"
       style="display:inline" />
  </g>
  <g
     id="neomail_basic_0_Layer2_0_FILL"
     data-name="neomail basic 0 Layer2 0 FILL"
     style="display:inline">
    <path
       d="m 70.1049,12.8305 q -1.3077,-5.05 -4.43,-7.196 Q 61.2458,2.0276 52.8659,5.3487 33.2189,13.09 12.9941,21.4838 A 0.8768,0.8768 0 0 0 12.6089,21.7584 14.5339,14.5339 0 0 0 5.1932,28.03 0.3768,0.3768 0 0 1 5.0969,28.2191 Q 2.6143,32.7758 4.3264,39.651 a 226.17,226.17 0 0 0 9.053,28.0748 l 0.0963,0.0036 q 2.718,6.4707 7.2231,7.7819 a 0.7349,0.7349 0 0 0 0.2889,0.1071 l 0.1926,0.0072 0.0963,0.0036 a 9.4474,9.4474 0 0 0 5.6822,-0.462 236.52,236.52 0 0 0 43.2424,-20.15 0.4282,0.4282 0 0 0 0.2889,-0.1819 9.6688,9.6688 0 0 0 3.756,-4.0972 q 0.0526,-0.0918 0.0963,-0.189 a 0.252,0.252 0 0 0 0,-0.1927 0.3079,0.3079 0 0 0 0.1926,-0.1854 0.6885,0.6885 0 0 0 0.0963,-0.3816 V 49.693 a 11.7774,11.7774 0 0 0 0.3853,-3.7417 V 45.7587 A 168.6122,168.6122 0 0 0 70.1049,12.8305 M 65.0005,9.9432 a 10.7416,10.7416 0 0 1 1.5409,3.621 164.7472,164.7472 0 0 1 4.8155,32.3468 q 0.0127,0.2951 0,0.5778 a 17.1855,17.1855 0 0 0 -4.6228,-0.3653 q -0.5588,1.7609 3.756,3.7037 a 6.0616,6.0616 0 0 1 -2.2151,2.0361 l -0.0963,-0.0036 q -3.8667,2.3208 -7.8973,4.4241 a 216.6435,216.6435 0 0 1 -22.825,10.897 q -5.4806,2.3422 -11.1717,4.3018 a 3.253,3.253 0 0 1 -0.5779,0.2674 7.1643,7.1643 0 0 1 -1.9262,0.41 q 3.1368,-6.7165 4.8154,-10.0288 -1.5936,-0.4316 -6.3563,7.4672 L 20.8914,71.57 a 4.685,4.685 0 0 1 -0.9631,-0.6138 11.8485,11.8485 0 0 1 -3.0818,-4.6416 214.0815,214.0815 0 0 1 -9.053,-27.497 13.7562,13.7562 0 0 1 0.1926,-8.0827 l 12.6164,2.8789 9.1492,2.1716 a 1.139,1.139 0 0 0 1.0594,-0.153 1.0061,1.0061 0 0 0 0.4816,-0.56 l -0.77,-0.3177 -20.2252,-6.4374 q 0.9552,-2.06 4.2376,-3.5014 v 0.0963 Q 31.618,17.8129 48.2429,11.1472 a 3.3226,3.3226 0 0 0 0.6742,-0.2638 Q 51.1961,9.9915 53.4435,9.03 a 4.265,4.265 0 0 0 0.77,-0.26 16.4545,16.4545 0 0 1 5.7785,-1.3251 5.2951,5.2951 0 0 1 2.1188,0.5607 l -3.4666,16.8206 q 1.6083,0.8218 6.3563,-14.883 M 5.8673,27.7666 6.0599,27.6775 5.9636,27.7702 5.8673,27.7666 m 22.8251,34.1752 a 6.16,6.16 0 0 0 -0.6742,-0.0252 q -0.5011,0.1171 0.6742,0.1215 z"
       id="path5"
       style="display:inline;fill:#462d12;fill-opacity:1" />
    <path
       d="m 20.0246,34.4591 a 4.12,4.12 0 0 0 0.5779,-0.8452 L 7.9861,30.735 a 13.7562,13.7562 0 0 0 -0.1926,8.0827 214.0815,214.0815 0 0 0 9.053,27.497 11.8485,11.8485 0 0 0 3.0818,4.6416 4.685,4.685 0 0 0 0.9631,0.6138 L 22.24,69.598 q 4.7628,-7.8989 6.3563,-7.4672 -1.6788,3.3122 -4.8157,10.0292 a 7.1643,7.1643 0 0 0 1.9262,-0.41 3.253,3.253 0 0 0 0.5779,-0.2674 q 5.6912,-1.96 11.1717,-4.3018 a 216.6435,216.6435 0 0 0 22.825,-10.897 q -10.4686,4.39 -21.2841,8.0653 A 25.0645,25.0645 0 0 1 30.8111,66.2585 1.541,1.541 0 0 1 29.7517,65.93 1.8654,1.8654 0 0 1 29.4628,65.5339 l 2.793,-5.1926 a 21.8225,21.8225 0 0 0 1.0593,-2.7533 1.4257,1.4257 0 0 0 -0.0963,-1.1593 1.4983,1.4983 0 0 0 -1.83,-0.55 6.7349,6.7349 0 0 0 -2.1188,1.3655 L 28.0182,58.45 q -4.9926,4.6343 -7.512,7.52 A 38.9787,38.9787 0 0 1 19.0615,56.2852 Q 18.58,47.0217 18.8689,38.9425 q 0.1926,-3.2673 1.1557,-4.4833 m 7.9936,27.4575 a 6.16,6.16 0 0 1 0.6742,0.0252 v 0.0963 Q 27.517,62.0337 28.0182,61.9167 M 59.9925,7.4448 A 16.4545,16.4545 0 0 0 54.214,8.77 4.265,4.265 0 0 1 53.444,9.03 q -2.2473,0.9615 -4.5264,1.8534 a 3.3226,3.3226 0 0 1 -0.6742,0.2638 q -16.6248,6.6657 -33.7078,13.765 v -0.0963 q -3.2825,1.4417 -4.2376,3.5014 l 20.2247,6.4376 v -0.0963 q 0.0963,-0.4779 -0.4815,-0.8848 a 14.0662,14.0662 0 0 0 -3.66,-2.0628 29.4983,29.4983 0 0 1 -3.8524,-1.9738 1.245,1.245 0 0 1 -0.77,-0.9918 q -0.0963,-0.5814 0.77,-1.2232 A 67.026,67.026 0 0 1 34.471,20.9377 Q 48.5033,14.2222 59.9925,7.4448 Z"
       fill="#daa972"
       id="path6"
       style="display:inline" />
    <path
       d="m 66.5414,13.5642 a 10.7416,10.7416 0 0 0 -1.5409,-3.621 q -4.7481,15.7049 -6.3563,14.883 L 62.1113,8.0055 A 5.2951,5.2951 0 0 0 59.9925,7.4448 Q 48.5032,14.2221 34.4708,20.9377 a 67.026,67.026 0 0 0 -11.9422,6.5845 q -0.8667,0.6417 -0.77,1.2232 a 1.245,1.245 0 0 0 0.77,0.9918 29.4983,29.4983 0 0 0 3.8524,1.9738 14.0662,14.0662 0 0 1 3.66,2.0628 q 0.5778,0.4069 0.4815,0.8848 v 0.0963 l 0.77,0.3177 a 1.0061,1.0061 0 0 1 -0.4816,0.56 1.139,1.139 0 0 1 -1.0594,0.153 L 20.6023,33.614 a 4.12,4.12 0 0 1 -0.5779,0.8452 q -0.963,1.216 -1.1557,4.4833 -0.2889,8.0791 0.1926,17.3427 a 38.9787,38.9787 0 0 0 1.4449,9.6848 q 2.5194,-2.8863 7.512,-7.52 l 1.252,-1.2053 a 6.7349,6.7349 0 0 1 2.1188,-1.3654 1.4983,1.4983 0 0 1 1.83,0.55 1.4257,1.4257 0 0 1 0.0963,1.1593 21.8225,21.8225 0 0 1 -1.0593,2.7533 l -2.793,5.1926 a 1.8654,1.8654 0 0 0 0.2889,0.3961 1.541,1.541 0 0 0 1.0594,0.3285 25.0645,25.0645 0 0 0 8.1862,-1.9094 Q 49.8129,60.6742 60.2816,56.2844 64.3121,54.18 68.1787,51.86 l 0.0963,0.0036 a 6.0616,6.0616 0 0 0 2.215,-2.0364 q -4.3147,-1.9428 -3.756,-3.7037 a 17.1855,17.1855 0 0 1 4.6228,0.3653 q 0.0127,-0.2827 0,-0.5778 A 164.7472,164.7472 0 0 0 66.5414,13.5642 Z"
       fill="#fdd1a5"
       id="path7"
       style="display:inline" />
  </g>
  <g
     id="neomail_basic_0_Layer1_0_FILL"
     data-name="neomail basic 0 Layer1 0 FILL"
     style="display:inline">
    <path
       d="m 48.6281,25.03 a 6.3223,6.3223 0 0 0 -3.66,0.8264 4.55,4.55 0 0 0 -1.9261,1.18 l -1.4447,1.4869 -1.252,1.0127 a 17.6341,17.6341 0 0 0 -4.5264,7.15 l -0.7705,2.86 a 14.4713,14.4713 0 0 0 0.6741,6.1889 14.91,14.91 0 0 0 2.6,5.0088 8.5025,8.5025 0 0 0 4.8154,2.9728 8.3,8.3 0 0 0 3.0818,0.1151 16.2039,16.2039 0 0 0 10.0161,-4.5376 15.17,15.17 0 0 0 4.7191,-10.0324 14.2836,14.2836 0 0 0 -3.3708,-10.72 8.8169,8.8169 0 0 0 -2.9849,-2.4216 6.9647,6.9647 0 0 0 -2.7929,-0.5858 l -1.5409,-0.0576 z"
       fill="#8d1d0d"
       id="path8"
       style="display:inline;fill:#462d12;fill-opacity:1" />
  </g>
  <g
     id="neomail_basic_0_Layer0_0_FILL"
     data-name="neomail basic 0 Layer0 0 FILL"
     style="display:inline">
    <path
       d="m 59.222,29.4706 v -0.0964 a 11.9514,11.9514 0 0 0 -9.5345,-4.9789 14.4614,14.4614 0 0 0 -10.5939,4.1308 17.7482,17.7482 0 0 0 -5.6821,10.6706 14.4183,14.4183 0 0 0 2.504,11.0726 l 0.0963,0.0036 A 11.5674,11.5674 0 0 0 45.45,55.4409 14.295,14.295 0 0 0 56.0439,51.2138 17.3475,17.3475 0 0 0 61.726,40.64 14.6223,14.6223 0 0 0 59.222,29.4711 m -2.2151,1.4581 0.0964,0.0036 a 12.5724,12.5724 0 0 1 1.9261,9.2213 14.8054,14.8054 0 0 1 -4.8154,9.0657 12.0023,12.0023 0 0 1 -8.764,3.525 8.9767,8.9767 0 0 1 -7.3194,-3.9331 v -0.0963 a 11.6337,11.6337 0 0 1 -2.0225,-9.0323 15.2286,15.2286 0 0 1 4.8154,-9.162 12.1442,12.1442 0 0 1 8.764,-3.4286 9.0861,9.0861 0 0 1 7.3194,3.8367 M 50.1691,34.14 a 3.7429,3.7429 0 0 1 3.0818,1.56 5.082,5.082 0 0 1 0.8668,3.981 v 0.0963 q -0.8532,5.8791 -2.2151,6.4662 0.7069,0.6249 1.0594,0.3285 a 6.0212,6.0212 0 0 0 0.9631,-0.7345 l -0.0963,-0.0036 a 8.9132,8.9132 0 0 0 2.9855,-5.5707 v 0 A 7.6407,7.6407 0 0 0 55.466,34.242 v -0.0963 a 6.6386,6.6386 0 0 0 -5.2969,-2.7019 7.76,7.76 0 0 0 -5.6822,2.1955 9.2386,9.2386 0 0 0 -2.9856,5.5707 v 0.0963 a 7.3535,7.3535 0 0 0 1.4447,6.0251 l -0.0964,-0.1 a 7.3791,7.3791 0 0 0 0.5779,0.6957 4.663,4.663 0 0 0 1.1557,0.8137 2.0708,2.0708 0 0 0 0.7705,0.3177 q -1.54,-5.0464 -1.1557,-7.2663 v 0 a 6.84,6.84 0 0 1 2.1187,-4.1584 5.4415,5.4415 0 0 1 3.8524,-1.4938 z"
       id="path9"
       style="display:inline;fill:#462d12;fill-opacity:1" />
    <path
       d="m 57.1033,30.9323 -0.0964,-0.0036 a 9.0861,9.0861 0 0 0 -7.3194,-3.8367 12.1442,12.1442 0 0 0 -8.764,3.4286 15.2286,15.2286 0 0 0 -4.8154,9.162 11.6337,11.6337 0 0 0 2.0225,9.0323 v 0.0963 a 8.9767,8.9767 0 0 0 7.3194,3.9331 12.0023,12.0023 0 0 0 8.764,-3.525 14.8054,14.8054 0 0 0 4.8154,-9.0657 12.5724,12.5724 0 0 0 -1.9261,-9.2213 m -3.8524,-0.9143 0.3853,-0.4672 a 1.43,1.43 0 0 1 1.252,0.0468 l 0.4815,0.5 0.1926,0.2961 a 0.8478,0.8478 0 0 1 0.0963,0.87 l -0.0963,0.189 -0.0963,0.2854 -0.2889,0.1818 a 1.6845,1.6845 0 0 1 -1.0594,0.2493 v -0.1926 q -0.2889,0.0855 -0.6742,-0.3141 l -0.2889,-0.4923 a 0.6363,0.6363 0 0 1 0,-0.6742 l 0.0963,-0.4779 M 49.206,29.2892 v 0.3852 q -0.0963,0.4779 -1.0594,0.8272 a 15.8167,15.8167 0 0 0 -2.1188,0.6913 6.99,6.99 0 0 0 -2.3114,1.3583 l -1.9264,1.9504 -1.541,2.5428 -0.2889,0.76 -0.0963,0.4779 -0.2889,0.3745 -0.1926,0.5706 a 0.2947,0.2947 0 0 1 -0.1927,0.2817 q -0.0963,0.0927 -0.2889,-0.0108 -0.2889,-0.0106 -0.2889,-0.4923 l -0.1926,-0.6813 0.1926,-0.667 0.0963,-0.7669 a 8.1131,8.1131 0 0 1 0.9631,-2.95 l 0.4815,-0.6562 a 11.7828,11.7828 0 0 1 3.1782,-3.541 l 1.6372,-0.8056 a 8.8636,8.8636 0 0 1 1.7336,-0.5131 2.2572,2.2572 0 0 1 1.7335,0.161 q 0.6743,0.2178 0.7705,0.703 m -1.1557,8.9136 0.3852,-0.4671 0.5779,-0.3637 q 0.3852,-0.3708 0.5778,-0.3636 l 0.1926,0.1035 0.1927,-0.0891 a 3.4412,3.4412 0 0 1 1.5409,0.25 l 0.8668,0.61 0.4815,0.4995 0.0963,0.2925 0.1926,0.2 0.0963,0.2926 0.0963,0.1962 0.0963,0.2925 0.1927,0.97 -0.3853,1.7191 -0.0963,0.1891 a 3.5811,3.5811 0 0 1 -1.7335,1.6687 l -0.5779,0.1711 -0.6741,0.0711 -0.8668,-0.0324 -0.4815,-0.1143 -1.2521,-0.8172 q 0.0965,-0.0927 -0.1926,-0.585 a 1.9369,1.9369 0 0 1 -0.3852,-1.3627 l 0.1926,-1.63 0.3852,-0.8524 0.1927,-0.2817 q 0.1926,-0.2817 0.0963,-0.3816 L 48.05,38.2021 M 53.2509,35.7 a 3.7429,3.7429 0 0 0 -3.0818,-1.56 5.4415,5.4415 0 0 0 -3.8524,1.4934 6.84,6.84 0 0 0 -2.1187,4.1584 v 0 q -0.3842,2.22 1.1557,7.2663 A 2.0708,2.0708 0 0 1 44.5832,46.7404 4.663,4.663 0 0 1 43.4275,45.9267 7.3791,7.3791 0 0 1 42.8496,45.231 l 0.0964,0.1 A 7.3535,7.3535 0 0 1 41.5013,39.3059 V 39.21 a 9.2386,9.2386 0 0 1 2.9856,-5.5706 7.76,7.76 0 0 1 5.6822,-2.1955 6.6386,6.6386 0 0 1 5.2969,2.7019 v 0.0963 a 7.6407,7.6407 0 0 1 1.3483,6.0214 v 0 a 8.9132,8.9132 0 0 1 -2.9855,5.5707 l 0.0963,0.0036 a 6.0212,6.0212 0 0 1 -0.9631,0.7345 q -0.3525,0.2964 -1.0594,-0.3285 1.3618,-0.5871 2.2151,-6.4662 V 39.6813 A 5.082,5.082 0 0 0 53.2509,35.7 Z"
       fill="#8d1d0d"
       id="path10" />
    <path
       d="m 48.4355,37.7354 -0.3852,0.4671 -0.1926,0.1855 q 0.0963,0.1 -0.0963,0.3816 l -0.1927,0.2817 -0.3852,0.8524 -0.1926,1.63 a 1.9369,1.9369 0 0 0 0.3852,1.3627 q 0.2889,0.4923 0.1926,0.585 l 1.2521,0.8172 0.4815,0.1143 0.8668,0.0324 0.6741,-0.0711 0.5779,-0.1711 a 3.5811,3.5811 0 0 0 1.7335,-1.6687 l 0.0963,-0.1891 0.3853,-1.7191 -0.1927,-0.97 -0.0963,-0.2925 -0.0963,-0.1962 -0.0963,-0.2926 -0.1926,-0.2 -0.0963,-0.2925 -0.4815,-0.4995 -0.8668,-0.61 a 3.4412,3.4412 0 0 0 -1.5409,-0.25 l -0.1927,0.0891 -0.1926,-0.1035 q -0.1926,-0.0072 -0.5778,0.3636 l -0.5779,0.3637 m 0.7705,-8.0611 v -0.3852 q -0.0963,-0.4853 -0.7705,-0.703 a 2.2572,2.2572 0 0 0 -1.7335,-0.161 8.8636,8.8636 0 0 0 -1.7336,0.5131 l -1.6372,0.8056 a 11.7828,11.7828 0 0 0 -3.1782,3.541 l -0.4815,0.6562 a 8.1131,8.1131 0 0 0 -0.9631,2.95 l -0.0963,0.7669 -0.1926,0.667 0.1926,0.6813 q 0,0.4815 0.2889,0.4923 0.1926,0.1035 0.2889,0.0108 a 0.2947,0.2947 0 0 0 0.1927,-0.2817 l 0.1926,-0.5706 0.2889,-0.3745 0.0963,-0.4779 0.2889,-0.76 1.541,-2.5428 1.9261,-1.9505 a 6.99,6.99 0 0 1 2.3114,-1.3583 15.8167,15.8167 0 0 1 2.1188,-0.6913 q 0.963,-0.3492 1.0594,-0.8272 m 4.43,-0.1235 -0.3853,0.4672 -0.0963,0.4779 a 0.6363,0.6363 0 0 0 0,0.6742 l 0.2889,0.4923 q 0.3854,0.4 0.6742,0.3141 v 0.1926 a 1.6845,1.6845 0 0 0 1.0594,-0.2493 l 0.2889,-0.1818 0.0963,-0.2854 0.0963,-0.189 a 0.8478,0.8478 0 0 0 -0.0963,-0.87 l -0.1926,-0.2961 -0.4815,-0.5 a 1.43,1.43 0 0 0 -1.2518,-0.0473 z"
       fill="#d8332d"
       id="path11" />
  </g>
</svg>
