<svg id="Layer_1" data-name="Layer 1" xmlns="http://www.w3.org/2000/svg" width="80" height="80" viewBox="0 0 80 80"><title>neomail-icon</title><g id="neomail_basic_0_Layer3_0_FILL" data-name="neomail basic 0 Layer3 0 FILL"><path d="M70.1049,12.8305q-1.3077-5.05-4.43-7.196-4.4291-3.6069-12.809-.2858Q33.2189,13.09,12.9941,21.4838a.8768.8768,0,0,0-.3852.2746A14.5339,14.5339,0,0,0,5.1932,28.03a.3768.3768,0,0,1-.0963.1891q-2.4826,4.5567-.7705,11.4319a226.17,226.17,0,0,0,9.053,28.0748l.0963.0036q2.718,6.4707,7.2231,7.7819a.7349.7349,0,0,0,.2889.1071l.1926.0072.0963.0036a9.4474,9.4474,0,0,0,5.6822-.462,236.52,236.52,0,0,0,43.2424-20.15.4282.4282,0,0,0,.2889-.1819,9.6688,9.6688,0,0,0,3.756-4.0972q.0526-.0918.0963-.189a.252.252,0,0,0,0-.1927.3079.3079,0,0,0,.1926-.1854.6885.6885,0,0,0,.0963-.3816V49.693a11.7774,11.7774,0,0,0,.3853-3.7417v-.1926a168.6122,168.6122,0,0,0-4.9117-32.9282m-1.0594,8.2429,2.4077,16.5587q.5778,4.0665.8667,8.2185a5.4961,5.4961,0,0,1-.0963,2.3078,6.4029,6.4029,0,0,1-1.9261,3.2026q-.578.46-3.1782,2L64.3264,54.99a3.6326,3.6326,0,0,1-1.3484.4311,1.3257,1.3257,0,0,1-.8667-.1287,1.0205,1.0205,0,0,1-.3853.2746l.4816-.0783a.9007.9007,0,0,1,.77.8955,1.1038,1.1038,0,0,1-.6741.649,113.25,113.25,0,0,1-13.5795,6.427L31.389,70.2287q-4.3339,1.668-6.549,2.3557a6.2205,6.2205,0,0,1-3.1781.2665,6.015,6.015,0,0,1-3.2745-2.8189,41.1684,41.1684,0,0,1-4.43-8.3517L8.66,46.7473a59.4614,59.4614,0,0,1-2.2151-7.6911,19.0184,19.0184,0,0,1,.0963-7.8936,8.3206,8.3206,0,0,1,1.5409-3.0243,10.7113,10.7113,0,0,1,2.0225-1.8507,35.4866,35.4866,0,0,1,3.9486-2.3565L50.6506,8.3478a69.2975,69.2975,0,0,1,8.7641-2.08q1.1556-.1494,1.5409.25a.7584.7584,0,0,1,.0963,1.0629,1.9233,1.9233,0,0,1,2.1188-.1134,6.1043,6.1043,0,0,1,1.83,1.5129,22.2647,22.2647,0,0,1,2.6966,6.8423l1.3484,5.251M5.8673,27.7666l.1926-.0891-.0963.0927-.0963-.0036M28.6924,61.9418a6.16,6.16,0,0,0-.6742-.0252q-.5011.1171.6742.1215v-.0963m25.5216-35.74a6.5126,6.5126,0,0,0-2.6966-.6785,15.9432,15.9432,0,0,0-10.2087,2.7005,14.8837,14.8837,0,0,0-6.4526,8.1378L34.2782,38.94a15.0278,15.0278,0,0,0-.2889,2.9748l.2889,2.0333a17.0556,17.0556,0,0,0,1.0594,4.0845,8.77,8.77,0,0,0,3.3708,4.0745,10.5683,10.5683,0,0,0,5.008,1.9206l2.3114.1827a13.5712,13.5712,0,0,0,3.2745-.4556,13.2089,13.2089,0,0,0,2.7929-1.4366q5.2007-3.3691,6.7416-6.5861a21.77,21.77,0,0,0,1.0594-2.9459l.5778-2.6751A14.0767,14.0767,0,0,0,57.2,28.6245a8.8169,8.8169,0,0,0-2.9856-2.4229m-7.8973.2829q5.49-.8544,8.6678,1.0942A10.1628,10.1628,0,0,1,59.222,34.19q.1279.6864.1927,1.4518a8.5808,8.5808,0,0,1,.1926,2.03,5.7825,5.7825,0,0,1-.0963,2.4041l-.4816,2.4861-.1926.2817-.1926,1.2448a14.3885,14.3885,0,0,1-1.252,2.4573,14.8992,14.8992,0,0,1-9.92,6.5636,9.13,9.13,0,0,1-3.0818.0775l-1.7336-.6426a16.7893,16.7893,0,0,1-4.0449-2.27,10.4078,10.4078,0,0,1-3.3708-7.5417A16.7918,16.7918,0,0,1,36.397,35.167a15.4562,15.4562,0,0,1,4.3339-6.1945,7.61,7.61,0,0,1,2.3114-1.5509A9.0714,9.0714,0,0,1,46.3167,26.4845Z"/><path d="M61.0519,7.5806a.7584.7584,0,0,0-.0963-1.0629q-.3852-.4-1.5409-.25a69.2975,69.2975,0,0,0-8.7641,2.08L14.0535,23.9311a35.4866,35.4866,0,0,0-3.9486,2.3565,10.7113,10.7113,0,0,0-2.0225,1.8507,8.3206,8.3206,0,0,0-1.5409,3.0243,19.0184,19.0184,0,0,0-.0963,7.8936A59.4614,59.4614,0,0,0,8.66,46.7473L13.9572,61.68a41.1684,41.1684,0,0,0,4.43,8.3517,6.015,6.015,0,0,0,3.2745,2.8189,6.2205,6.2205,0,0,0,3.1781-.2665q2.2152-.6878,6.549-2.3557l17.3354-6.7682a113.25,113.25,0,0,0,13.5795-6.427,1.1038,1.1038,0,0,0,.6741-.649.9007.9007,0,0,0-.77-.8955l-.4816.0783-.5778.0747-3.2745,1.0334q-8.3788,2.48-14.8314,4.8393-4.1414,1.5789-6.1638,2.2738A29.015,29.015,0,0,1,30.33,65.0848l3.5634-6.9937q1.0594-1.983.3852-2.9712a2.1748,2.1748,0,0,0-2.4077-.7641,8.2151,8.2151,0,0,0-2.1188,1.4618l-1.6372,1.48q-3.5634,3.045-6.9342,6.3862L20.1209,49.3905q-.5778-8.9783.1926-13.38.0583-.3762.0964-.6705v-.2889a4.27,4.27,0,0,1,.0963-1.2485l.5778-.46.5779-.2673.8667.0323,1.0594.4248.3853.0144,1.4446.6318.77.2214,1.541.25,3.3708.2222a1.6044,1.6044,0,0,0-.0964-.7741q-.4815-1.3662-3.467-2.9224-1.614-.7868-3.7561-2.0665a4.8407,4.8407,0,0,0,1.1557-.6309A79.2017,79.2017,0,0,1,39.19,19.7657q11.1718-5.65,14.7352-8.0211.7344-.4556,1.3483-.8164L59.8,8.69a2.3533,2.3533,0,0,0,.8668-.6418l.2889-.2781a.345.345,0,0,0,.0963-.1891M28.0182,61.9166a6.16,6.16,0,0,1,.6742.0252v.0963Q27.517,62.0336,28.0182,61.9166Z" fill="#daa972"/><path d="M71.4532,37.6321,69.0455,21.0734l-1.3484-5.251A22.2647,22.2647,0,0,0,65.0005,8.98a6.1043,6.1043,0,0,0-1.83-1.5129,1.9233,1.9233,0,0,0-2.1188.1134.345.345,0,0,1-.0963.1891l-.2889.2781A2.3533,2.3533,0,0,1,59.8,8.69l-4.5265,2.2386q-.614.3607-1.3483.8164Q50.3617,14.1155,39.19,19.7657a79.2017,79.2017,0,0,0-14.2536,8.7132,4.8407,4.8407,0,0,1-1.1557.6309q2.1422,1.28,3.7561,2.0665,2.9855,1.5561,3.467,2.9224a1.6044,1.6044,0,0,1,.0964.7741l-3.3708-.2222-1.541-.25-.77-.2214-1.4446-.6318-.3853-.0144-1.0594-.4248-.8667-.0323-.5779.2673-.5778.46a4.27,4.27,0,0,0-.0963,1.2485V35.34q-.0381.2943-.0964.6705-.77,4.4014-.1926,13.38L21.18,63.6836q3.3708-3.3411,6.9342-6.3862l1.6372-1.48a8.2151,8.2151,0,0,1,2.1188-1.4618,2.1748,2.1748,0,0,1,2.4077.7641q.6743.9882-.3852,2.9712L30.33,65.0848a29.015,29.015,0,0,0,6.5489-1.2963q2.0226-.6949,6.1638-2.2738,6.4526-2.3593,14.8314-4.8393l3.2745-1.0334.5778-.0747a1.0205,1.0205,0,0,0,.3853-.2746,1.3257,1.3257,0,0,0,.8667.1287,3.6326,3.6326,0,0,0,1.3484-.4311l2.7929-1.6293q2.6-1.54,3.1782-2a6.4029,6.4029,0,0,0,1.9261-3.2026,5.4961,5.4961,0,0,0,.0963-2.3078q-.2889-4.152-.8667-8.2185M51.5174,25.5231a6.5126,6.5126,0,0,1,2.6966.6785A8.8169,8.8169,0,0,1,57.2,28.6245,14.0767,14.0767,0,0,1,60.474,40.1112l-.5778,2.6751a21.77,21.77,0,0,1-1.0594,2.9459q-1.5409,3.2171-6.7416,6.5861a13.2089,13.2089,0,0,1-2.7929,1.4366,13.5712,13.5712,0,0,1-3.2745.4556l-2.3114-.1827a10.5683,10.5683,0,0,1-5.008-1.9206,8.77,8.77,0,0,1-3.3708-4.0745,17.0556,17.0556,0,0,1-1.0594-4.0845l-.2889-2.0333a15.0278,15.0278,0,0,1,.2889-2.9748l.5779-2.5787a14.8837,14.8837,0,0,1,6.4526-8.1378A15.9432,15.9432,0,0,1,51.5174,25.5231Z" fill="#fdd1a5"/><path d="M54.9845,27.5787q-3.1782-1.9485-8.6678-1.0942a9.0714,9.0714,0,0,0-3.2744.9371,7.61,7.61,0,0,0-2.3114,1.5509A15.4562,15.4562,0,0,0,36.397,35.167a16.7918,16.7918,0,0,0-1.1557,7.5651,10.4078,10.4078,0,0,0,3.3708,7.5417,16.7893,16.7893,0,0,0,4.0449,2.27l1.7336.6426a9.13,9.13,0,0,0,3.0818-.0775,14.8992,14.8992,0,0,0,9.92-6.5636,14.3885,14.3885,0,0,0,1.252-2.4573l.1926-1.2448.1926-.2817.4816-2.4861a5.7825,5.7825,0,0,0,.0963-2.4041,8.5808,8.5808,0,0,0-.1926-2.03q-.0648-.7655-.1927-1.4518A10.1628,10.1628,0,0,0,54.9845,27.5787Z" fill="#8d1d0d"/></g><g id="neomail_basic_0_Layer2_0_FILL" data-name="neomail basic 0 Layer2 0 FILL"><path d="M70.1049,12.8305q-1.3077-5.05-4.43-7.196-4.4291-3.6069-12.809-.2858Q33.2189,13.09,12.9941,21.4838a.8768.8768,0,0,0-.3852.2746A14.5339,14.5339,0,0,0,5.1932,28.03a.3768.3768,0,0,1-.0963.1891q-2.4826,4.5567-.7705,11.4319a226.17,226.17,0,0,0,9.053,28.0748l.0963.0036q2.718,6.4707,7.2231,7.7819a.7349.7349,0,0,0,.2889.1071l.1926.0072.0963.0036a9.4474,9.4474,0,0,0,5.6822-.462,236.52,236.52,0,0,0,43.2424-20.15.4282.4282,0,0,0,.2889-.1819,9.6688,9.6688,0,0,0,3.756-4.0972q.0526-.0918.0963-.189a.252.252,0,0,0,0-.1927.3079.3079,0,0,0,.1926-.1854.6885.6885,0,0,0,.0963-.3816V49.693a11.7774,11.7774,0,0,0,.3853-3.7417v-.1926a168.6122,168.6122,0,0,0-4.9117-32.9282M65.0005,9.9432a10.7416,10.7416,0,0,1,1.5409,3.621A164.7472,164.7472,0,0,1,71.3569,45.911q.0127.2951,0,.5778a17.1855,17.1855,0,0,0-4.6228-.3653q-.5588,1.7609,3.756,3.7037a6.0616,6.0616,0,0,1-2.2151,2.0361l-.0963-.0036q-3.8667,2.3208-7.8973,4.4241a216.6435,216.6435,0,0,1-22.825,10.897q-5.4806,2.3422-11.1717,4.3018a3.253,3.253,0,0,1-.5779.2674,7.1643,7.1643,0,0,1-1.9262.41q3.1368-6.7165,4.8154-10.0288-1.5936-.4316-6.3563,7.4672L20.8914,71.57a4.685,4.685,0,0,1-.9631-.6138,11.8485,11.8485,0,0,1-3.0818-4.6416,214.0815,214.0815,0,0,1-9.053-27.497,13.7562,13.7562,0,0,1,.1926-8.0827l12.6164,2.8789,9.1492,2.1716a1.139,1.139,0,0,0,1.0594-.153,1.0061,1.0061,0,0,0,.4816-.56l-.77-.3177L10.2975,28.3173q.9552-2.06,4.2376-3.5014v.0963q17.0829-7.0993,33.7078-13.765a3.3226,3.3226,0,0,0,.6742-.2638q2.279-.8919,4.5264-1.8534a4.265,4.265,0,0,0,.77-.26,16.4545,16.4545,0,0,1,5.7785-1.3251,5.2951,5.2951,0,0,1,2.1188.5607L58.6442,24.8262q1.6083.8218,6.3563-14.883M5.8673,27.7666l.1926-.0891-.0963.0927-.0963-.0036M28.6924,61.9418a6.16,6.16,0,0,0-.6742-.0252q-.5011.1171.6742.1215Z"/><path d="M20.0246,34.4591a4.12,4.12,0,0,0,.5779-.8452L7.9861,30.735a13.7562,13.7562,0,0,0-.1926,8.0827,214.0815,214.0815,0,0,0,9.053,27.497,11.8485,11.8485,0,0,0,3.0818,4.6416,4.685,4.685,0,0,0,.9631.6138L22.24,69.598q4.7628-7.8989,6.3563-7.4672Q26.9175,65.443,23.7806,72.16a7.1643,7.1643,0,0,0,1.9262-.41,3.253,3.253,0,0,0,.5779-.2674q5.6912-1.96,11.1717-4.3018a216.6435,216.6435,0,0,0,22.825-10.897q-10.4686,4.39-21.2841,8.0653a25.0645,25.0645,0,0,1-8.1862,1.9094,1.541,1.541,0,0,1-1.0594-.3285,1.8654,1.8654,0,0,1-.2889-.3961l2.793-5.1926a21.8225,21.8225,0,0,0,1.0593-2.7533,1.4257,1.4257,0,0,0-.0963-1.1593,1.4983,1.4983,0,0,0-1.83-.55A6.7349,6.7349,0,0,0,29.27,57.2442L28.0182,58.45q-4.9926,4.6343-7.512,7.52a38.9787,38.9787,0,0,1-1.4447-9.6848q-.4815-9.2635-.1926-17.3427.1926-3.2673,1.1557-4.4833m7.9936,27.4575a6.16,6.16,0,0,1,.6742.0252v.0963q-1.1754-.0045-.6742-.1215M59.9925,7.4448A16.4545,16.4545,0,0,0,54.214,8.77a4.265,4.265,0,0,1-.77.26q-2.2473.9615-4.5264,1.8534a3.3226,3.3226,0,0,1-.6742.2638q-16.6248,6.6657-33.7078,13.765v-.0963q-3.2825,1.4417-4.2376,3.5014l20.2247,6.4376v-.0963q.0963-.4779-.4815-.8848a14.0662,14.0662,0,0,0-3.66-2.0628,29.4983,29.4983,0,0,1-3.8524-1.9738,1.245,1.245,0,0,1-.77-.9918q-.0963-.5814.77-1.2232a67.026,67.026,0,0,1,11.9422-6.5845Q48.5033,14.2222,59.9925,7.4448Z" fill="#daa972"/><path d="M66.5414,13.5642a10.7416,10.7416,0,0,0-1.5409-3.621q-4.7481,15.7049-6.3563,14.883L62.1113,8.0055a5.2951,5.2951,0,0,0-2.1188-.5607Q48.5032,14.2221,34.4708,20.9377a67.026,67.026,0,0,0-11.9422,6.5845q-.8667.6417-.77,1.2232a1.245,1.245,0,0,0,.77.9918A29.4983,29.4983,0,0,0,26.381,31.711a14.0662,14.0662,0,0,1,3.66,2.0628q.5778.4069.4815.8848v.0963l.77.3177a1.0061,1.0061,0,0,1-.4816.56,1.139,1.139,0,0,1-1.0594.153l-9.1492-2.1716a4.12,4.12,0,0,1-.5779.8452q-.963,1.216-1.1557,4.4833-.2889,8.0791.1926,17.3427A38.9787,38.9787,0,0,0,20.5062,65.97q2.5194-2.8863,7.512-7.52l1.252-1.2053a6.7349,6.7349,0,0,1,2.1188-1.3654,1.4983,1.4983,0,0,1,1.83.55,1.4257,1.4257,0,0,1,.0963,1.1593,21.8225,21.8225,0,0,1-1.0593,2.7533l-2.793,5.1926a1.8654,1.8654,0,0,0,.2889.3961,1.541,1.541,0,0,0,1.0594.3285,25.0645,25.0645,0,0,0,8.1862-1.9094q10.8154-3.6755,21.2841-8.0653Q64.3121,54.18,68.1787,51.86l.0963.0036A6.0616,6.0616,0,0,0,70.49,49.8272q-4.3147-1.9428-3.756-3.7037a17.1855,17.1855,0,0,1,4.6228.3653q.0127-.2827,0-.5778A164.7472,164.7472,0,0,0,66.5414,13.5642Z" fill="#fdd1a5"/></g><g id="neomail_basic_0_Layer1_0_FILL" data-name="neomail basic 0 Layer1 0 FILL"><path d="M48.6281,25.03a6.3223,6.3223,0,0,0-3.66.8264,4.55,4.55,0,0,0-1.9261,1.18l-1.4447,1.4869-1.252,1.0127a17.6341,17.6341,0,0,0-4.5264,7.15l-.7705,2.86a14.4713,14.4713,0,0,0,.6741,6.1889,14.91,14.91,0,0,0,2.6,5.0088,8.5025,8.5025,0,0,0,4.8154,2.9728,8.3,8.3,0,0,0,3.0818.1151,16.2039,16.2039,0,0,0,10.0161-4.5376,15.17,15.17,0,0,0,4.7191-10.0324,14.2836,14.2836,0,0,0-3.3708-10.72A8.8169,8.8169,0,0,0,54.5992,26.12a6.9647,6.9647,0,0,0-2.7929-.5858l-1.5409-.0576Z" fill="#8d1d0d"/></g><g id="neomail_basic_0_Layer0_0_FILL" data-name="neomail basic 0 Layer0 0 FILL"><path d="M59.222,29.4706v-.0964a11.9514,11.9514,0,0,0-9.5345-4.9789,14.4614,14.4614,0,0,0-10.5939,4.1308,17.7482,17.7482,0,0,0-5.6821,10.6706,14.4183,14.4183,0,0,0,2.504,11.0726l.0963.0036a11.5674,11.5674,0,0,0,9.4382,5.168,14.295,14.295,0,0,0,10.5939-4.2271A17.3475,17.3475,0,0,0,61.726,40.64a14.6223,14.6223,0,0,0-2.504-11.1689m-2.2151,1.4581.0964.0036a12.5724,12.5724,0,0,1,1.9261,9.2213,14.8054,14.8054,0,0,1-4.8154,9.0657,12.0023,12.0023,0,0,1-8.764,3.525,8.9767,8.9767,0,0,1-7.3194-3.9331v-.0963a11.6337,11.6337,0,0,1-2.0225-9.0323,15.2286,15.2286,0,0,1,4.8154-9.162,12.1442,12.1442,0,0,1,8.764-3.4286,9.0861,9.0861,0,0,1,7.3194,3.8367M50.1691,34.14a3.7429,3.7429,0,0,1,3.0818,1.56,5.082,5.082,0,0,1,.8668,3.981v.0963q-.8532,5.8791-2.2151,6.4662.7069.6249,1.0594.3285a6.0212,6.0212,0,0,0,.9631-.7345l-.0963-.0036a8.9132,8.9132,0,0,0,2.9855-5.5707h0A7.6407,7.6407,0,0,0,55.466,34.242v-.0963a6.6386,6.6386,0,0,0-5.2969-2.7019,7.76,7.76,0,0,0-5.6822,2.1955A9.2386,9.2386,0,0,0,41.5013,39.21v.0963a7.3535,7.3535,0,0,0,1.4447,6.0251l-.0964-.1a7.3791,7.3791,0,0,0,.5779.6957,4.663,4.663,0,0,0,1.1557.8137,2.0708,2.0708,0,0,0,.7705.3177q-1.54-5.0464-1.1557-7.2663h0a6.84,6.84,0,0,1,2.1187-4.1584A5.4415,5.4415,0,0,1,50.1691,34.14Z"/><path d="M57.1033,30.9323l-.0964-.0036a9.0861,9.0861,0,0,0-7.3194-3.8367,12.1442,12.1442,0,0,0-8.764,3.4286,15.2286,15.2286,0,0,0-4.8154,9.162,11.6337,11.6337,0,0,0,2.0225,9.0323v.0963A8.9767,8.9767,0,0,0,45.45,52.7443a12.0023,12.0023,0,0,0,8.764-3.525,14.8054,14.8054,0,0,0,4.8154-9.0657,12.5724,12.5724,0,0,0-1.9261-9.2213m-3.8524-.9143.3853-.4672a1.43,1.43,0,0,1,1.252.0468l.4815.5.1926.2961a.8478.8478,0,0,1,.0963.87l-.0963.189-.0963.2854-.2889.1818a1.6845,1.6845,0,0,1-1.0594.2493v-.1926q-.2889.0855-.6742-.3141l-.2889-.4923a.6363.6363,0,0,1,0-.6742l.0963-.4779m-4.0449-.7289v.3852q-.0963.4779-1.0594.8272a15.8167,15.8167,0,0,0-2.1188.6913,6.99,6.99,0,0,0-2.3114,1.3583L41.79,34.5016l-1.541,2.5428-.2889.76-.0963.4779-.2889.3745-.1926.5706a.2947.2947,0,0,1-.1927.2817q-.0963.0927-.2889-.0108-.2889-.0106-.2889-.4923l-.1926-.6813.1926-.667.0963-.7669a8.1131,8.1131,0,0,1,.9631-2.95l.4815-.6562a11.7828,11.7828,0,0,1,3.1782-3.541l1.6372-.8056a8.8636,8.8636,0,0,1,1.7336-.5131,2.2572,2.2572,0,0,1,1.7335.161q.6743.2178.7705.703M48.05,38.2025l.3852-.4671.5779-.3637q.3852-.3708.5778-.3636l.1926.1035.1927-.0891a3.4412,3.4412,0,0,1,1.5409.25l.8668.61.4815.4995.0963.2925.1926.2.0963.2926.0963.1962.0963.2925.1927.97-.3853,1.7191-.0963.1891a3.5811,3.5811,0,0,1-1.7335,1.6687l-.5779.1711-.6741.0711-.8668-.0324-.4815-.1143-1.2521-.8172q.0965-.0927-.1926-.585a1.9369,1.9369,0,0,1-.3852-1.3627l.1926-1.63.3852-.8524.1927-.2817q.1926-.2817.0963-.3816l.1926-.1855M53.2509,35.7a3.7429,3.7429,0,0,0-3.0818-1.56,5.4415,5.4415,0,0,0-3.8524,1.4934,6.84,6.84,0,0,0-2.1187,4.1584h0q-.3842,2.22,1.1557,7.2663a2.0708,2.0708,0,0,1-.7705-.3177,4.663,4.663,0,0,1-1.1557-.8137,7.3791,7.3791,0,0,1-.5779-.6957l.0964.1a7.3535,7.3535,0,0,1-1.4447-6.0251V39.21a9.2386,9.2386,0,0,1,2.9856-5.5706,7.76,7.76,0,0,1,5.6822-2.1955,6.6386,6.6386,0,0,1,5.2969,2.7019v.0963a7.6407,7.6407,0,0,1,1.3483,6.0214h0a8.9132,8.9132,0,0,1-2.9855,5.5707l.0963.0036a6.0212,6.0212,0,0,1-.9631.7345q-.3525.2964-1.0594-.3285,1.3618-.5871,2.2151-6.4662v-.0963A5.082,5.082,0,0,0,53.2509,35.7Z" fill="#8d1d0d"/><path d="M48.4355,37.7354l-.3852.4671-.1926.1855q.0963.1-.0963.3816l-.1927.2817-.3852.8524-.1926,1.63a1.9369,1.9369,0,0,0,.3852,1.3627q.2889.4923.1926.585l1.2521.8172.4815.1143.8668.0324.6741-.0711.5779-.1711a3.5811,3.5811,0,0,0,1.7335-1.6687l.0963-.1891.3853-1.7191-.1927-.97-.0963-.2925-.0963-.1962-.0963-.2926-.1926-.2-.0963-.2925-.4815-.4995-.8668-.61a3.4412,3.4412,0,0,0-1.5409-.25l-.1927.0891-.1926-.1035q-.1926-.0072-.5778.3636l-.5779.3637m.7705-8.0611v-.3852q-.0963-.4853-.7705-.703a2.2572,2.2572,0,0,0-1.7335-.161,8.8636,8.8636,0,0,0-1.7336.5131l-1.6372.8056a11.7828,11.7828,0,0,0-3.1782,3.541l-.4815.6562a8.1131,8.1131,0,0,0-.9631,2.95l-.0963.7669-.1926.667.1926.6813q0,.4815.2889.4923.1926.1035.2889.0108a.2947.2947,0,0,0,.1927-.2817l.1926-.5706.2889-.3745.0963-.4779.2889-.76,1.541-2.5428,1.9261-1.9505a6.99,6.99,0,0,1,2.3114-1.3583,15.8167,15.8167,0,0,1,2.1188-.6913q.963-.3492,1.0594-.8272m4.43-.1235-.3853.4672-.0963.4779a.6363.6363,0,0,0,0,.6742l.2889.4923q.3854.4.6742.3141v.1926a1.6845,1.6845,0,0,0,1.0594-.2493l.2889-.1818.0963-.2854.0963-.189a.8478.8478,0,0,0-.0963-.87l-.1926-.2961-.4815-.5A1.43,1.43,0,0,0,53.6362,29.5508Z" fill="#d8332d"/></g></svg>