<?xml version="1.0" encoding="UTF-8" standalone="no"?>
<svg
   id="Layer_1"
   data-name="Layer 1"
   width="28.793661"
   height="31.059868"
   viewBox="0 0 28.793661 31.059868"
   version="1.1"
   sodipodi:docname="newneomail.svg"
   inkscape:version="1.3.2 (091e20e, 2023-11-25, custom)"
   xmlns:inkscape="http://www.inkscape.org/namespaces/inkscape"
   xmlns:sodipodi="http://sodipodi.sourceforge.net/DTD/sodipodi-0.dtd"
   xmlns="http://www.w3.org/2000/svg"
   xmlns:svg="http://www.w3.org/2000/svg"
   xmlns:rdf="http://www.w3.org/1999/02/22-rdf-syntax-ns#"
   xmlns:cc="http://creativecommons.org/ns#"
   xmlns:dc="http://purl.org/dc/elements/1.1/">
  <defs
     id="defs11" />
  <sodipodi:namedview
     id="namedview11"
     pagecolor="#ffffff"
     bordercolor="#000000"
     borderopacity="0.25"
     inkscape:showpageshadow="2"
     inkscape:pageopacity="0.0"
     inkscape:pagecheckerboard="0"
     inkscape:deskcolor="#d1d1d1"
     inkscape:zoom="12.725"
     inkscape:cx="11.552063"
     inkscape:cy="18.664047"
     inkscape:window-width="1360"
     inkscape:window-height="705"
     inkscape:window-x="-8"
     inkscape:window-y="-8"
     inkscape:window-maximized="1"
     inkscape:current-layer="Layer_1" />
  <title
     id="title1">neomail-icon</title>
  <g
     id="neomail_basic_0_Layer1_0_FILL"
     data-name="neomail basic 0 Layer1 0 FILL"
     style="display:inline"
     transform="translate(-33.172784,-24.387777)">
    <path
       d="m 48.6281,25.03 a 6.3223,6.3223 0 0 0 -3.66,0.8264 4.55,4.55 0 0 0 -1.9261,1.18 l -1.4447,1.4869 -1.252,1.0127 a 17.6341,17.6341 0 0 0 -4.5264,7.15 l -0.7705,2.86 a 14.4713,14.4713 0 0 0 0.6741,6.1889 14.91,14.91 0 0 0 2.6,5.0088 8.5025,8.5025 0 0 0 4.8154,2.9728 8.3,8.3 0 0 0 3.0818,0.1151 16.2039,16.2039 0 0 0 10.0161,-4.5376 15.17,15.17 0 0 0 4.7191,-10.0324 14.2836,14.2836 0 0 0 -3.3708,-10.72 8.8169,8.8169 0 0 0 -2.9849,-2.4216 6.9647,6.9647 0 0 0 -2.7929,-0.5858 l -1.5409,-0.0576 z"
       fill="#8d1d0d"
       id="path8"
       style="display:inline;fill:#462d12;fill-opacity:1" />
  </g>
  <g
     id="neomail_basic_0_Layer0_0_FILL"
     data-name="neomail basic 0 Layer0 0 FILL"
     style="display:inline"
     transform="translate(-33.172784,-24.387777)">
    <path
       d="m 59.222,29.4706 v -0.0964 c -2.209543,-3.076836 -5.74689,-4.924033 -9.5345,-4.9789 -3.947201,-0.12737 -7.774777,1.365088 -10.5939,4.1308 -3.084377,2.782337 -5.095129,6.558393 -5.6821,10.6706 -0.714579,3.87799 0.190322,7.879432 2.504,11.0726 l 0.0963,0.0036 c 2.10455,3.17018 5.633612,5.10256 9.4382,5.168 3.964837,0.121842 7.802037,-1.409249 10.5939,-4.2271 3.091984,-2.736116 5.106717,-6.485325 5.6821,-10.5738 0.717693,-3.90855 -0.186327,-7.940861 -2.504,-11.1689 m -2.2151,1.4581 0.0964,0.0036 c 1.812853,2.707981 2.503413,6.014073 1.9261,9.2213 -0.472641,3.499463 -2.180499,6.714758 -4.8154,9.0657 -2.316699,2.323542 -5.483648,3.597332 -8.764,3.525 -2.936241,-0.03496 -5.669751,-1.503822 -7.3194,-3.9331 v -0.0963 c -1.894409,-2.601445 -2.626611,-5.87139 -2.0225,-9.0323 0.486222,-3.522542 2.189814,-6.763874 4.8154,-9.162 2.341785,-2.274322 5.500589,-3.51009 8.764,-3.4286 2.913883,0.03118 5.636005,1.458073 7.3194,3.8367"
       id="path9"
       style="display:inline;fill:#462d12;fill-opacity:1"
       sodipodi:nodetypes="cccccccccccccccccccccc" />
    <path
       d="m 57.1033,30.9323 -0.0964,-0.0036 c -1.683395,-2.378627 -4.405517,-3.805515 -7.3194,-3.8367 -3.263411,-0.08149 -6.422215,1.154278 -8.764,3.4286 -2.625586,2.398126 -4.329178,5.639458 -4.8154,9.162 -0.604111,3.16091 0.128091,6.430855 2.0225,9.0323 v 0.0963 c 1.649649,2.429278 4.383159,3.898137 7.3194,3.9331 3.280352,0.07233 6.447301,-1.201458 8.764,-3.525 2.634901,-2.350942 4.342759,-5.566237 4.8154,-9.0657 0.577313,-3.207227 -0.113247,-6.513319 -1.9261,-9.2213 m -3.8524,-0.9143 0.3853,-0.4672 c 0.402321,-0.17778 0.864074,-0.16052 1.252,0.0468 l 0.4815,0.5 0.1926,0.2961 c 0.190899,0.249724 0.227964,0.584572 0.0963,0.87 l -0.0963,0.189 -0.0963,0.2854 -0.2889,0.1818 c -0.315821,0.198031 -0.68841,0.285709 -1.0594,0.2493 v -0.1926 c -0.1926,0.057 -0.417333,-0.0477 -0.6742,-0.3141 l -0.2889,-0.4923 c -0.128843,-0.206266 -0.128843,-0.467934 0,-0.6742 l 0.0963,-0.4779 M 49.206,29.2892 v 0.3852 c -0.0642,0.3186 -0.417333,0.594333 -1.0594,0.8272 -0.721643,0.180325 -1.429667,0.411332 -2.1188,0.6913 -0.850891,0.299388 -1.635791,0.760637 -2.3114,1.3583 l -1.9264,1.9504 -1.541,2.5428 -0.2889,0.76 -0.0963,0.4779 -0.2889,0.3745 -0.1926,0.5706 c 0.0022,0.125325 -0.07509,0.238336 -0.1927,0.2817 -0.0642,0.0618 -0.1605,0.0582 -0.2889,-0.0108 -0.1926,-0.0071 -0.2889,-0.171167 -0.2889,-0.4923 l -0.1926,-0.6813 0.1926,-0.667 0.0963,-0.7669 c 0.12823,-1.036142 0.455244,-2.037796 0.9631,-2.95 l 0.4815,-0.6562 c 0.807577,-1.38418 1.889023,-2.589076 3.1782,-3.541 l 1.6372,-0.8056 c 0.558867,-0.229675 1.139755,-0.401602 1.7336,-0.5131 0.576115,-0.180297 1.200443,-0.122312 1.7335,0.161 0.449533,0.1452 0.706367,0.379533 0.7705,0.703"
       fill="#8d1d0d"
       id="path10"
       style="display:inline;fill:#ff270d;fill-opacity:1"
       sodipodi:nodetypes="cccccccccccccccccccccccccccccccccccccccccccccccccc" />
    <path
       d="m 49.206,29.6747 v -0.3852 c -0.0642,-0.323533 -0.321033,-0.557867 -0.7705,-0.703 -0.533057,-0.283312 -1.157385,-0.341297 -1.7335,-0.161 -0.593845,0.111498 -1.174733,0.283425 -1.7336,0.5131 l -1.6372,0.8056 c -1.289177,0.951924 -2.370623,2.15682 -3.1782,3.541 l -0.4815,0.6562 c -0.507856,0.912204 -0.83487,1.913858 -0.9631,2.95 l -0.0963,0.7669 -0.1926,0.667 0.1926,0.6813 c 0,0.321 0.0963,0.4851 0.2889,0.4923 0.1284,0.069 0.2247,0.0726 0.2889,0.0108 0.117605,-0.04336 0.194911,-0.156375 0.1927,-0.2817 l 0.1926,-0.5706 0.2889,-0.3745 0.0963,-0.4779 0.2889,-0.76 1.541,-2.5428 1.9261,-1.9505 c 0.675609,-0.597663 1.460509,-1.058912 2.3114,-1.3583 0.689133,-0.279968 1.397157,-0.510975 2.1188,-0.6913 0.642,-0.2328 0.995133,-0.508533 1.0594,-0.8272 m 4.43,-0.1235 -0.3853,0.4672 -0.0963,0.4779 c -0.128843,0.206266 -0.128843,0.467934 0,0.6742 l 0.2889,0.4923 c 0.256933,0.266667 0.481667,0.371367 0.6742,0.3141 v 0.1926 c 0.37099,0.03641 0.743579,-0.05127 1.0594,-0.2493 l 0.2889,-0.1818 0.0963,-0.2854 0.0963,-0.189 c 0.131664,-0.285428 0.0946,-0.620276 -0.0963,-0.87 l -0.1926,-0.2961 -0.4815,-0.5 c -0.387794,-0.207416 -0.849459,-0.22486 -1.2518,-0.0473 z"
       fill="#d8332d"
       id="path11"
       style="display:inline;fill:#ff9292;fill-opacity:1"
       sodipodi:nodetypes="cccccccccccccccccccccccccccccccccccccccc" />
  </g>
  <metadata
     id="metadata11">
    <rdf:RDF>
      <cc:Work
         rdf:about="">
        <dc:title>neomail-icon</dc:title>
      </cc:Work>
    </rdf:RDF>
  </metadata>
</svg>
