<?xml version="1.0" encoding="UTF-8" standalone="no"?>
<!-- Generator: Adobe Illustrator 23.1.0, SVG Export Plug-In . SVG Version: 6.00 Build 0)  -->

<svg
   version="1.1"
   id="Layer_1"
   x="0px"
   y="0px"
   viewBox="0 0 73.240413 79.26313"
   xml:space="preserve"
   sodipodi:docname="np-icon.svg"
   width="73.24041"
   height="79.26313"
   inkscape:version="1.1.1 (3bf5ae0d25, 2021-09-20)"
   xmlns:inkscape="http://www.inkscape.org/namespaces/inkscape"
   xmlns:sodipodi="http://sodipodi.sourceforge.net/DTD/sodipodi-0.dtd"
   xmlns="http://www.w3.org/2000/svg"
   xmlns:svg="http://www.w3.org/2000/svg"><defs
   id="defs121" /><sodipodi:namedview
   id="namedview119"
   pagecolor="#ffffff"
   bordercolor="#666666"
   borderopacity="1.0"
   inkscape:pageshadow="2"
   inkscape:pageopacity="0.0"
   inkscape:pagecheckerboard="0"
   showgrid="false"
   fit-margin-top="0"
   fit-margin-left="0"
   fit-margin-right="0"
   fit-margin-bottom="0"
   inkscape:zoom="1.6403785"
   inkscape:cx="-87.175003"
   inkscape:cy="40.234617"
   inkscape:window-width="1271"
   inkscape:window-height="728"
   inkscape:window-x="73"
   inkscape:window-y="0"
   inkscape:window-maximized="0"
   inkscape:current-layer="Layer_1" />
<style
   type="text/css"
   id="style2">
	.st0{fill:#FFC400;}
	.st1{fill:#F5A100;}
	.st2{fill:#FFD200;}
	.st3{fill:#FFB600;}
	.st4{fill:#FFEE00;}
	.st5{fill:#E78B00;}
	.st6{fill:#AF6A00;}
	.st7{fill:#955A00;}
	.st8{fill:#825E10;}
	.st9{fill:#E98D00;}
</style>
<g
   transform="matrix(0.25868813,0,0,0.24811088,5.2806852,-87.707842)"
   id="g116">
	<g
   id="g15">
		<g
   id="g13">
			<g
   id="Symbol_1_copy_0_Layer6_0_FILL">
				<path
   class="st0"
   d="m 110.6,392.9 c -10.5,0.7 -20.4,3.3 -29.8,8 -7.8,4.1 -15.1,9.1 -22,15.1 -7.2,5.7 -13.7,12.2 -19.4,19.4 v -0.2 c -5.7,7.4 -10.7,15.4 -14.8,24 -4.4,8.9 -7.8,18 -10.2,27.4 -2.6,9.7 -4.2,19.6 -4.8,29.5 -0.5,9.2 -0.1,18.5 1.4,27.9 1.5,9 4,17.8 7.6,26.5 v 0.1 c 3.4,8.5 7.7,16.5 13.1,24 5.8,8.2 13,15.2 21.6,21 8.7,5.8 18.1,9.9 28,12.3 l -0.2,-0.2 c 9.5,1.6 19.1,3.2 28.6,4.5 9.7,1.8 19.2,1.8 28.3,0 10.4,-2.1 20.2,-5.5 29.5,-10.2 4.6,-2.4 9.1,-5 13.4,-7.9 h -0.1 c 8.5,-6.1 16.2,-13.3 22.9,-21.6 5.3,-6.7 9.9,-13.9 13.8,-21.5 4.7,-9.4 8.3,-19.2 11,-29.5 1.8,-7.6 3.1,-15.1 3.7,-22.7 0,0.2 0,0.4 0,0.7 0,-0.4 0.1,-0.8 0.1,-1.3 0,-1.4 0.1,-2.8 0.2,-4.2 0,0.1 -0.1,0.2 -0.2,0.2 0.3,-11.9 0.1,-21.5 -0.6,-28.9 -1,-9 -3.1,-17.5 -6.3,-25.6 -3.5,-8.2 -7.7,-16.1 -12.8,-23.6 -5.7,-8.8 -13.1,-15.9 -22.1,-21.4 -8.6,-5.3 -17.4,-10.2 -26.4,-14.6 -8.9,-4.1 -18,-6.4 -27.4,-6.9 h -0.1 c -8.8,-1.2 -17.4,-1.3 -26,-0.3 m 56.3,15.6 c 1.1,0.4 2,0.9 2.9,1.5 16,7.7 28.7,18 37.9,30.9 2.2,3.1 4.2,6.4 6,9.9 0.9,1.7 1.6,3.4 2.3,5.1 v -0.3 c 7.4,16.2 10.9,33.3 10.7,51.2 l -0.5,9.1 c -1,7.2 -2.4,14.7 -4.2,22.5 -2.2,8.4 -4.3,16.6 -6.3,24.6 -15.2,29.2 -27.5,46.6 -36.8,52.4 -1.9,1.1 -3.6,2 -5.1,2.9 -1.1,0.6 -2.1,1.2 -3.1,1.8 -0.5,0.2 -1,0.3 -1.4,0.4 -1,0.3 -2,0.5 -2.9,0.5 h -0.3 c -0.2,-0.1 -0.4,-0.1 -0.6,-0.1 -0.3,2.8 -10.8,6.5 -31.5,11.2 -10.9,0.1 -24.6,-1.8 -41.2,-5.6 -6.4,-0.6 -7.8,-1.2 -4.2,-1.6 25.6,-5.2 43,-8.5 52.2,-10 l -0.1,-0.4 c 0.5,-0.3 1.1,-0.6 1.8,-0.9 1.8,-1.1 3.6,-2.2 5.4,-3.4 1.3,-1 2.5,-1.9 3.7,-2.8 h 0.2 c 15.6,-11.3 27.8,-25.5 36.6,-42.5 1.9,-3.7 3.8,-7.5 5.5,-11.3 2.7,-6.6 5,-13.6 6.8,-20.9 2.3,-8.9 3.8,-17.6 4.6,-26.1 l 0.1,0.1 c 0.1,-2.6 0.2,-5.4 0.4,-8.5 0.4,-19 -3.3,-37.1 -11.2,-54.4 -2.1,-4.6 -4.4,-9 -7.2,-13 -5.9,-9 -12.7,-16.5 -20.5,-22.3 z"
   id="path4" />
				<path
   class="st1"
   d="m 151.5,607.5 c -1.2,0.9 -2.4,1.8 -3.7,2.8 -1.7,1.2 -3.5,2.3 -5.4,3.4 -0.7,0.3 -1.3,0.6 -1.8,0.9 l 0.1,0.4 c -9.2,1.5 -26.6,4.8 -52.2,10 -3.6,0.4 -2.2,1 4.2,1.6 16.5,3.8 30.3,5.7 41.2,5.6 20.6,-4.7 31.1,-8.4 31.5,-11.2 0.2,0 0.4,0 0.6,0.1 h 0.3 c 0.9,0 1.9,-0.2 2.9,-0.5 0.4,-0.1 0.9,-0.2 1.4,-0.4 1,-0.6 2,-1.2 3.1,-1.8 1.4,-0.9 3.1,-1.8 5.1,-2.9 9.3,-5.7 21.6,-23.2 36.8,-52.4 -8.1,-3.8 -15.4,-6.9 -21.9,-9.4 -1.7,3.9 -3.6,7.6 -5.5,11.3 -8.9,17 -21.1,31.1 -36.6,42.5 z"
   id="path6" />
				<path
   class="st2"
   d="m 226.7,506.8 -21.1,-8.5 c -0.1,3 -0.3,5.9 -0.4,8.5 l -0.1,-0.1 c -0.8,8.5 -2.3,17.2 -4.6,26.1 -1.8,7.3 -4.1,14.3 -6.8,20.9 6.5,2.5 13.8,5.6 21.9,9.4 2,-8 4.1,-16.2 6.3,-24.6 1.8,-7.8 3.2,-15.3 4.2,-22.5 l 0.6,-9.2 m -56.9,-96.9 c -0.9,-0.5 -1.8,-1 -2.9,-1.5 7.8,5.8 14.6,13.3 20.4,22.5 l 20.4,9.9 c -9.3,-12.9 -21.9,-23.2 -37.9,-30.9 z"
   id="path8" />
				<path
   class="st3"
   d="m 187.3,431 c 2.7,4 5.1,8.3 7.2,13 7.9,17.3 11.6,35.4 11.2,54.4 l 21.1,8.5 c 0.2,-17.9 -3.3,-35 -10.7,-51.2 v 0.3 c -0.6,-1.7 -1.4,-3.4 -2.3,-5.1 -1.8,-3.5 -3.8,-6.8 -6,-9.9 z"
   id="path10" />
			</g>
		</g>
	</g>
	<g
   transform="matrix(3.2412415,0,0,3.2412415,0.9,-1.95)"
   id="g22">
		<g
   id="g20">
			<g
   id="Symbol_1_copy_0_Layer6_1_FILL">
				<path
   class="st2"
   d="m 49.8,192.2 c 0.9,0.3 1.5,0.5 2,0.5 1,0 2.5,-0.9 4.6,-2.6 0.2,-0.2 0.4,-0.3 0.6,-0.5 -1.1,-0.4 -1.9,-0.7 -2.3,-0.9 -3.6,-1.5 -5.6,-2.3 -6,-2.4 -0.3,-0.1 -0.4,-0.2 -0.5,-0.4 -0.3,0.2 -0.6,0.5 -1.1,0.8 -2.4,1.7 -3.4,2.6 -3.1,2.8 0.3,0.2 1.8,0.9 4.5,2.2 z"
   id="path17" />
			</g>
		</g>
	</g>
	<g
   id="g35">
		<g
   id="g33">
			<g
   id="Symbol_1_copy_0_Layer5_0_FILL">
				<path
   class="st4"
   d="m 175.3,422.7 c -1,-1.4 -2.1,-2.7 -3.3,-3.9 -12.6,-13.5 -28,-20.6 -46.1,-21.4 -18.5,-1.8 -36.8,3.3 -55,15.3 -9.8,6.5 -18.4,14.1 -25.7,22.8 -9.7,11.4 -17.4,24.9 -23,40.5 -0.8,2 -1.5,4 -2.1,6.2 -0.4,1.3 -0.8,2.6 -1.1,4 5.7,-1.7 11.5,-3.4 17.4,-5 -0.2,0.4 -0.4,0.9 -0.7,1.5 -0.5,1.6 -1.1,3.3 -1.7,4.8 -7.4,24 -7,46.6 1.3,67.9 0,0.1 0.1,0.3 0.2,0.3 0,0.3 0,0.5 0,0.7 0.6,1.5 1.3,3 2,4.5 8.4,18 21.6,29.9 39.5,35.7 13.6,3.9 27.3,3.3 40.9,-1.8 3.8,-1.6 7.8,-3.6 11.8,-6 1.2,-0.8 2.4,-1.6 3.6,-2.4 0.3,-0.1 0.6,-0.2 0.6,-0.3 1.2,-0.8 2.4,-1.5 3.8,-2.3 0.9,-0.7 1.7,-1.3 2.6,-1.9 1.7,-1.4 3.5,-2.8 5.2,-4.3 1.3,-1.2 2.6,-2.4 3.8,-3.6 5.2,-5.2 9.7,-10.8 13.6,-17 0.5,-1 1.1,-1.9 1.6,-2.9 4.2,-7.2 7.6,-15.2 10.3,-23.8 6.6,-21.1 7.1,-41.1 1.6,-60.1 -0.9,-3 -1.9,-6 -3.1,-9 -2.9,-7.3 -6.5,-13.7 -10.7,-19.1 0.1,0 0.2,0 0.3,0 1.6,-0.5 3.3,-1.1 4.9,-1.7 5.5,-1.8 11,-3.7 16.5,-5.5 -1.9,-3.2 -4.1,-6.3 -6.3,-9 l 2.9,1.1 c -1.5,-1 -2.9,-1.9 -4.2,-2.8 -0.4,-0.5 -0.9,-1 -1.3,-1.5 v 0 m -40.6,3.3 c 1.7,0.6 3.5,1.4 5.2,2.3 2.7,1.4 5.2,3 7.4,4.7 4.1,2.9 7.8,6.4 11.2,10.3 4.4,5.4 8.1,11.8 11.1,19.1 1,2.6 1.9,5.2 2.8,7.8 5.6,18.7 5.2,38.3 -1.3,59 -2.9,9.2 -6.7,17.6 -11.2,25.1 -1,1.5 -1.9,3 -2.9,4.4 -4.8,6.8 -10.3,12.9 -16.6,18.3 h -0.2 c -1,0.8 -1.9,1.5 -2.8,2.2 -1.8,1.4 -3.6,2.8 -5.3,4 -0.2,0 -0.4,0 -0.5,0.1 -3.7,2.4 -7.3,4.4 -11,6.2 -1.7,0.8 -3.5,1.5 -5.2,2.1 -6.1,2.2 -12.2,3.4 -18.3,3.8 -6.4,0.3 -12.8,-0.5 -19.2,-2.3 -16.5,-5.3 -28.7,-16 -36.5,-32 -0.8,-1.5 -1.4,-3 -1.9,-4.5 -0.2,-0.3 -0.4,-0.7 -0.5,-1 0,-0.3 -0.1,-0.5 -0.2,-0.7 -8.5,-20.7 -9,-42.8 -1.5,-66.3 0.9,-3 1.9,-5.9 3.1,-8.6 0.1,-0.4 0.3,-0.9 0.5,-1.3 0.5,-1.4 1.1,-2.8 1.8,-4 6.7,-14.8 16.2,-26.9 28.6,-36.3 1.7,-1.4 3.5,-2.7 5.3,-3.9 1.3,-0.9 2.6,-1.7 3.9,-2.4 13.8,-8.3 27.9,-11.4 42.2,-9.3 2.6,0.4 5.2,1.1 7.8,2 1.6,0.3 2.9,0.7 4.2,1.2 z"
   id="path24" />
				<path
   class="st5"
   d="m 140,428.2 c -2.5,-0.9 -5,-1.5 -7.4,-1.8 -1.7,-0.3 -3.5,-0.5 -5.2,-0.5 -9.6,0.4 -19.1,3.5 -28.5,9.2 -1.3,0.8 -2.5,1.5 -3.8,2.3 -1.8,1.2 -3.6,2.4 -5.2,3.7 -11.9,9.1 -21,20.7 -27.4,34.8 -0.7,1.2 -1.3,2.5 -1.8,3.9 -0.2,0.4 -0.4,0.8 -0.5,1.1 -1.1,2.6 -2,5.3 -2.9,8.3 -7.2,22.5 -6.8,43.6 1.5,63.6 0.1,0.1 0.2,0.3 0.2,0.6 0,0.2 0.1,0.5 0.3,0.8 0.5,1.5 1.2,3 2,4.4 7.4,15.5 19.1,25.7 34.8,30.8 4,1.1 7.9,1.8 11.8,2.1 0.1,0 0.2,0 0.3,0 4.2,-0.3 8.4,-1 12.7,-2.1 3.7,-1.7 7.3,-3.8 11,-6.2 0.1,-0.1 0.3,-0.1 0.5,-0.1 1.7,-1.3 3.5,-2.7 5.3,-4 0.9,-0.7 1.8,-1.4 2.8,-2.2 h 0.2 c 6.3,-5.4 11.8,-11.5 16.6,-18.3 1,-1.4 1.9,-2.9 2.9,-4.4 4.5,-7.6 8.3,-15.9 11.2,-25.1 6.5,-20.6 6.9,-40.3 1.3,-59 -0.8,-2.6 -1.8,-5.2 -2.8,-7.8 -3,-7.3 -6.7,-13.7 -11.1,-19.1 -3.4,-4 -7.1,-7.4 -11.2,-10.3 -2.4,-1.7 -4.9,-3.3 -7.6,-4.7 z"
   id="path26" />
				<path
   class="st6"
   d="m 132.5,426.4 c 2.5,0.3 4.9,0.9 7.4,1.8 -1.7,-0.9 -3.5,-1.6 -5.2,-2.3 -1.3,-0.4 -2.6,-0.9 -3.9,-1.3 -2.6,-0.9 -5.2,-1.5 -7.8,-2 -14.3,-2.2 -28.3,0.9 -42.2,9.3 -1.3,0.7 -2.6,1.5 -3.9,2.4 -1.8,1.2 -3.6,2.5 -5.3,3.9 -12.4,9.4 -22,21.5 -28.6,36.3 -0.7,1.3 -1.3,2.6 -1.8,4 -0.2,0.4 -0.4,0.9 -0.5,1.3 -1.2,2.7 -2.2,5.6 -3.1,8.6 -7.6,23.4 -7.1,45.5 1.5,66.3 0.1,0.1 0.2,0.4 0.2,0.7 0.1,0.3 0.3,0.7 0.5,1 0.5,1.5 1.2,3 1.9,4.5 7.8,16.1 19.9,26.8 36.5,32 6.4,1.8 12.8,2.6 19.2,2.3 6.1,-0.3 12.2,-1.6 18.3,-3.8 1.7,-0.6 3.5,-1.3 5.2,-2.1 -4.2,1.1 -8.4,1.8 -12.7,2.1 -0.1,0 -0.3,0 -0.3,0 -3.9,-0.3 -7.8,-1 -11.8,-2.1 -15.8,-5.1 -27.4,-15.3 -34.8,-30.8 -0.8,-1.4 -1.4,-2.9 -2,-4.4 -0.2,-0.3 -0.3,-0.6 -0.3,-0.8 0,-0.3 0,-0.5 -0.2,-0.6 -8.2,-19.9 -8.7,-41.1 -1.5,-63.6 0.9,-2.9 1.8,-5.7 2.9,-8.3 0.1,-0.3 0.3,-0.7 0.5,-1.1 0.5,-1.4 1.1,-2.7 1.8,-3.9 C 68.9,461.7 78,450 89.9,441 c 1.6,-1.3 3.4,-2.5 5.2,-3.7 1.2,-0.8 2.5,-1.5 3.8,-2.3 9.4,-5.7 18.9,-8.8 28.5,-9.2 1.7,0.2 3.4,0.3 5.1,0.6 z"
   id="path28" />
				<path
   class="st0"
   d="m 185.2,436.5 c -0.3,-0.5 -0.6,-1 -1,-1.5 -5.5,1.8 -11,3.7 -16.5,5.5 -1.6,0.6 -3.2,1.1 -4.9,1.7 -0.1,0 -0.2,0 -0.3,0 4.2,5.4 7.8,11.8 10.7,19.1 1.2,2.9 2.2,5.9 3.1,9 5.5,19 5,39 -1.6,60.1 -2.6,8.6 -6,16.6 -10.3,23.8 -0.5,1 -1.1,2 -1.6,2.9 -3.9,6.2 -8.4,11.8 -13.6,17 -1.2,1.2 -2.4,2.4 -3.8,3.6 -1.7,1.4 -3.5,2.8 -5.2,4.3 -0.8,0.6 -1.7,1.3 -2.6,1.9 -1.3,0.7 -2.6,1.5 -3.8,2.3 -0.1,0.1 -0.3,0.2 -0.6,0.3 -1.2,0.9 -2.4,1.7 -3.6,2.4 -4.1,2.4 -8.1,4.4 -11.8,6 -13.6,5.1 -27.2,5.7 -40.9,1.8 C 59.2,590.9 46,579 37.6,561 c -0.7,-1.5 -1.3,-3 -2,-4.5 0,-0.1 0,-0.3 0,-0.7 -0.1,-0.1 -0.2,-0.2 -0.2,-0.3 -8.3,-21.3 -8.7,-43.9 -1.3,-67.9 0.6,-1.6 1.1,-3.2 1.7,-4.8 0.2,-0.5 0.4,-1 0.7,-1.5 -5.8,1.6 -11.6,3.3 -17.4,5 -6.4,22.4 -7.1,43.8 -2.3,64.3 0.9,3.5 1.9,7 3,10.6 0.8,2.2 1.6,4.4 2.5,6.6 v 0.2 c 5.2,12.9 12,23.4 20.5,31.6 8.3,8 18.3,13.8 30,17.4 19.8,5.9 39.4,4 59,-5.9 2.2,-1.3 4.5,-2.7 7.1,-4.2 1.2,-0.8 2.4,-1.5 3.6,-2.3 h 0.1 c 9.9,-6.7 18.7,-14.5 26.3,-23.5 4,-4.9 7.7,-10.1 11.1,-15.8 0.4,-0.8 0.9,-1.5 1.3,-2.3 1.7,-2.9 3.3,-6 4.9,-9.1 2.7,-5.9 5.1,-12.2 7.3,-18.8 3.1,-10 5.1,-19.9 6,-29.5 1.2,-12.1 0.6,-23.9 -1.8,-35.5 -1.5,-7 -3.7,-14 -6.4,-20.8 -1.6,-4.5 -3.6,-8.8 -6.1,-12.8 z"
   id="path30" />
			</g>
		</g>
	</g>
	<g
   transform="matrix(3.2412415,0,0,3.2412415,-136.2,-129.3)"
   id="g42">
		<g
   id="g40">
			<g
   id="Symbol_1_copy_0_Layer5_1_FILL">
				<path
   class="st2"
   d="m 66.3,170.9 c 0.6,-0.4 0.9,-0.8 1.2,-1.1 0.4,-0.6 0.4,-1.1 -0.1,-1.5 -0.2,-0.3 -0.6,-0.4 -1,-0.4 -0.1,0 -0.5,0.1 -1.1,0.3 -1.3,0.4 -2.1,0.8 -2.6,1.1 -0.6,0.4 -1,0.8 -1.3,1.4 -0.6,0.8 -0.6,1.4 -0.1,1.9 0.1,0.1 0.3,0.2 0.7,0.4 0.6,0.2 1,0.3 1.3,0.1 0.2,0 0.4,-0.1 0.7,-0.3 z"
   id="path37" />
			</g>
		</g>
	</g>
	<g
   id="g49">
		<g
   id="g47">
			<g
   id="Symbol_1_copy_0_Layer4_0_FILL">
				<path
   class="st7"
   d="m 125.2,473.4 -4.5,-4.5 -10.1,-5.7 -10.8,11.2 -3.4,49.9 -12.7,-52 -12.4,-4.7 -7.7,1.1 -2.6,7.8 -5.2,73.5 -1.4,0.9 7.6,5.3 13.3,0.2 2.3,-42.8 9.4,35.6 -2.1,1 7.9,5 28.9,1.2 -1,-0.4 11.7,-0.3 2.6,-21.3 c 4.5,0.7 9,0.1 13.4,-1.8 1.2,-0.6 2.5,-1.2 4.1,-1.8 1.9,-0.8 3.4,-1.6 4.5,-2.6 1.6,-1.7 3.3,-3.5 4.9,-5.4 3.1,-3.5 5.5,-7.7 7.1,-12.8 2.6,-8.1 3.1,-16.4 1.7,-25 -0.6,-2.6 -1.6,-5.3 -2.9,-7.9 -0.7,-1.3 -2.8,-4.5 -6.3,-9.6 0.4,1.7 -1,2 -4.2,0.8 -4.3,-1.7 -8.7,-2.4 -13.2,-2 -3.6,0.1 -7.2,0.9 -11,2.5 -1.7,0.9 -3.5,1.8 -5.2,2.8 -1.2,0.8 -2,1.3 -2.7,1.8 z"
   id="path44" />
			</g>
		</g>
	</g>
	<g
   transform="matrix(3.2412415,0,0,3.2412415,0.9,-1.95)"
   id="g56">
		<g
   id="g54">
			<g
   id="Symbol_1_copy_0_Layer4_1_FILL">
				<path
   class="st7"
   d="m 14.6,151.5 -0.5,2.3 c -0.7,4.2 -0.4,8.3 0.7,12.5 0.4,1.3 0.8,2.4 1.3,3.3 0.8,1.3 1.7,1.9 2.6,1.9 0.8,0.1 1.4,-0.2 1.9,-0.8 0.4,-0.6 0.6,-1.3 0.4,-2 -0.1,-0.3 -0.2,-0.6 -0.4,-0.9 -0.1,-0.2 -0.3,-0.4 -0.6,-0.8 -0.6,-1 -1,-2.3 -1.4,-4.1 -0.4,-1.9 -0.6,-3.4 -0.5,-4.8 0,-0.7 0.1,-1.8 0.3,-3.3 l 0.5,-3.3 c 0.2,-1.4 0.4,-2.2 0.5,-2.6 0.1,-0.3 0.3,-0.7 0.5,-1.2 0.2,-0.5 0.3,-0.9 0.2,-1.3 0,-0.4 -0.2,-0.8 -0.6,-1.1 -0.3,-0.3 -0.7,-0.5 -1.2,-0.4 -0.9,0 -1.7,0.7 -2.4,1.9 -0.5,1.1 -0.9,2.7 -1.3,4.7 z"
   id="path51" />
			</g>
		</g>
	</g>
	<g
   transform="matrix(3.2412415,0,0,3.2412415,0.9,-1.95)"
   id="g63">
		<g
   id="g61">
			<g
   id="Symbol_1_copy_0_Layer4_2_FILL">
				<path
   class="st7"
   d="m 49.7,143.4 c -0.4,-0.3 -1,-0.5 -1.7,-0.7 -0.8,-0.2 -1.4,-0.4 -1.8,-0.5 -0.5,-0.2 -0.8,-0.3 -1.1,-0.3 -0.4,-0.1 -0.8,-0.2 -1,-0.1 -0.4,0.1 -0.8,0.3 -1,0.6 -0.3,0.4 -0.5,0.7 -0.4,1.1 0.1,0.3 0.3,0.5 0.6,0.8 0.4,0.3 1.3,0.7 2.5,1.1 1.2,0.4 2,0.9 2.4,1.5 0.3,0.3 0.6,0.8 0.8,1.5 0.8,2.1 1.1,3.9 1,5.5 -0.2,2.2 -0.9,3.9 -2.3,5.1 -0.6,0.5 -1.4,1 -2.5,1.4 l -1.8,0.8 c -0.7,0.4 -1.1,0.9 -1.3,1.5 0,0 0,0.1 -0.1,0.1 -0.5,0.4 -0.9,0.8 -1.3,1.4 -0.4,0.6 -0.6,1.5 -0.8,2.8 l -0.3,1.5 -1.1,0.3 c -0.5,0.2 -0.8,0.4 -1,0.7 -0.4,0.6 -0.4,1.2 0.2,1.8 0.3,0.4 0.9,0.7 1.8,0.9 0.9,0.2 1.6,0.2 2.3,0.1 0.7,-0.1 1.1,-0.3 1.3,-0.7 0.2,-0.3 0.3,-0.7 0.4,-1.1 0,-0.5 0,-0.8 0,-1.1 0,-0.7 0.1,-1.6 0.3,-2.6 0,-0.2 0,-0.4 0.2,-0.6 0.1,-0.2 0.2,-0.5 0.5,-0.7 0.1,-0.1 0.1,-0.1 0.3,-0.3 0.1,0 0.2,0 0.3,-0.1 0.7,-0.2 1.4,-0.5 2.2,-1 1.8,-1 3.1,-2 4,-2.9 1.2,-1.4 1.9,-3.1 2.3,-5 0.4,-1.7 0.4,-3.5 0.2,-5.5 -0.1,-0.7 -0.2,-1.3 -0.3,-1.8 -0.1,-0.4 -0.4,-1.1 -0.9,-1.9 -1.1,-1.9 -2,-3.1 -2.9,-3.6 z"
   id="path58" />
			</g>
		</g>
	</g>
	<g
   transform="matrix(3.2412415,0,0,3.2412415,0.9,-1.95)"
   id="g72">
		<g
   id="g70">
			<g
   id="Symbol_1_copy_0_Layer3_0_FILL">
				<path
   class="st6"
   d="m 16.1,145.5 c -0.2,0.2 -0.3,0.4 -0.3,0.6 L 14.2,170 c 0,0.1 0,0.2 0.1,0.4 0.1,0.1 0.2,0.1 0.4,0.1 0.9,0.1 1.7,0.2 2.3,0.3 l 2.3,0.2 c 0.1,0 0.1,0 0.2,0 0,0 0.1,-0.1 0.1,-0.2 0.2,-0.1 0.3,-0.3 0.3,-0.6 V 170 l 0.8,-10.6 c 1.3,3.1 2.8,6.8 4.6,11.2 0,0.1 0.1,0.1 0.1,0.2 0,0.1 0.1,0.1 0.3,0.1 l 4.7,0.4 h 0.1 c 0.2,0 0.4,-0.1 0.6,-0.2 v 0 c 0.3,-0.2 0.4,-0.4 0.4,-0.7 v 0 l 2.7,-26.1 v -0.1 c 0,-0.1 0,-0.3 0,-0.4 0,0 0,-0.1 0,-0.1 -0.1,-0.2 -0.3,-0.3 -0.4,-0.4 -0.1,-0.1 -0.3,-0.1 -0.5,-0.1 h -0.1 l -5.6,0.9 c -0.1,0 -0.2,0.1 -0.3,0.2 -0.1,0.1 -0.1,0.2 -0.1,0.3 -0.4,3.6 -0.8,6.7 -1.2,9.3 -0.1,0.6 -0.2,1.2 -0.3,1.7 -1.7,-5.3 -2.8,-8.9 -3.2,-10.7 0,-0.1 -0.1,-0.2 -0.2,-0.3 -0.1,-0.1 -0.2,-0.1 -0.4,-0.1 l -5,0.6 c -0.4,0 -0.7,0.1 -0.8,0.4 m 11.8,-0.6 5.3,-0.8 -2.7,26.2 v 0 l -4.4,-0.4 c -2.1,-5.2 -3.9,-9.4 -5.3,-12.8 0,-0.1 -0.1,-0.2 -0.2,-0.2 -0.1,-0.1 -0.2,-0.1 -0.3,-0.1 -0.1,0 -0.2,0.1 -0.3,0.2 -0.1,0.1 -0.1,0.2 -0.1,0.3 l -0.9,12.6 -1.9,-0.2 c -0.4,0 -1,-0.1 -1.7,-0.1 l 1.5,-23.4 v -0.1 0 l 4.6,-0.6 c 0.5,2.1 1.7,6 3.6,11.8 0,0 0,0.1 0,0.1 l 0.2,0.3 c 0,0.2 0.1,0.3 0.2,0.3 0.2,0.2 0.5,0.2 0.7,-0.1 0,0 0,-0.1 0.1,-0.3 0,-0.1 0,-0.3 0.1,-0.6 0.1,-0.6 0.3,-1.6 0.5,-2.9 0.2,-2.7 0.6,-5.7 1,-9.2 m 22.6,0.6 c 0,0 0,-0.1 0,-0.1 -0.8,-1.5 -2,-2.6 -3.6,-3.1 -1.4,-0.6 -2.9,-0.8 -4.3,-0.7 h -0.1 c -1.1,0 -2.3,0.3 -3.5,0.8 -0.1,0 -0.2,0 -0.2,0.1 -0.5,0.3 -1,0.5 -1.5,0.8 -0.2,0 -0.3,0.1 -0.4,0.2 -0.4,0.2 -0.7,0.4 -1,0.6 -0.2,0.2 -0.3,0.4 -0.3,0.7 L 34,170.2 c 0,0.1 0,0.2 0.1,0.4 0,0 0,0.1 0,0.1 0.1,0.1 0.2,0.3 0.4,0.4 h 0.1 c 0.1,0.1 0.3,0.1 0.4,0.1 l 4,-0.1 c 0.2,0 0.4,-0.1 0.6,-0.2 0,-0.1 0.1,-0.1 0.2,-0.1 0.1,-0.2 0.1,-0.3 0.2,-0.5 v -0.1 l 1.1,-7.1 c 3.8,0.5 7,-1.4 9.5,-5.6 0,0 0,-0.1 0,-0.1 0.1,-0.4 0.3,-0.7 0.4,-1.1 v 0 c 0.8,-2.6 1,-5.3 0.5,-8.1 0,0 0,-0.1 0,-0.1 -0.1,-0.3 -0.1,-0.5 -0.2,-0.8 v 0 c -0.3,-0.6 -0.5,-1.2 -0.8,-1.8 m -1,0.3 c 0,0 0,0.1 0,0.1 0.3,0.5 0.5,1.1 0.8,1.6 0,0.2 0.1,0.5 0.2,0.7 0,0 0,0.1 0,0.1 0.5,2.6 0.3,5.2 -0.5,7.7 -0.1,0.4 -0.3,0.7 -0.4,1.1 -2.3,3.9 -5.3,5.5 -8.9,4.9 -0.1,0 -0.2,0 -0.3,0.1 -0.1,0 -0.2,0 -0.3,0.1 -0.1,0.1 -0.1,0.1 -0.1,0.3 l -1.1,7.6 -4,0.1 1.7,-25.4 v 0 c 0.2,-0.2 0.5,-0.4 0.9,-0.6 0.1,0 0.1,-0.1 0.2,-0.1 0.5,-0.3 0.9,-0.5 1.4,-0.8 0,0 0,-0.1 0,-0.1 1.1,-0.5 2.2,-0.7 3.2,-0.8 h 0.1 c 1.3,-0.1 2.6,0.1 3.9,0.6 v 0.1 c 1.5,0.6 2.5,1.5 3.2,2.7 m -5.3,3.2 c -0.2,0 -0.3,-0.1 -0.5,-0.1 -0.9,-0.1 -1.7,0 -2.6,0.4 -0.1,0 -0.1,0.1 -0.2,0.1 -0.1,0.1 -0.1,0.1 -0.1,0.3 l -0.5,6.4 c 0,0.1 0,0.3 0.1,0.4 0.1,0.1 0.2,0.1 0.3,0.1 0.9,0.1 1.8,-0.1 2.8,-0.5 v 0.1 c 1.2,-0.5 2.2,-1.3 2.8,-2.5 v -0.1 c 0.2,-0.4 0.3,-0.8 0.4,-1.1 v 0 c 0.1,-0.6 0,-1.2 -0.3,-1.8 v 0 c -0.3,-1 -1.1,-1.6 -2.2,-1.7 m -0.6,0.9 v 0 c 0.2,0 0.3,0 0.5,0.1 0,0 0.1,0 0.1,0 0.7,0.1 1.2,0.5 1.5,1.2 0.2,0.4 0.2,0.8 0.2,1.2 -0.1,0.3 -0.2,0.6 -0.3,0.9 -0.5,1 -1.3,1.6 -2.3,2 h -0.1 c -0.6,0.3 -1.2,0.4 -1.8,0.4 l 0.5,-5.6 c 0.5,-0.2 1.1,-0.2 1.7,-0.2 z"
   id="path65" />
				<path
   class="st2"
   d="m 33.2,144.1 -5.3,0.8 c -0.4,3.4 -0.8,6.4 -1.2,9.1 -0.2,1.3 -0.4,2.3 -0.5,2.9 -0.1,0.3 -0.1,0.5 -0.1,0.6 -0.1,0.2 -0.1,0.3 -0.1,0.3 -0.2,0.3 -0.5,0.3 -0.7,0.1 -0.1,0 -0.2,-0.1 -0.2,-0.3 l -0.2,-0.3 c 0,0 0,-0.1 0,-0.1 -1.9,-5.7 -3.1,-9.7 -3.6,-11.8 l -4.6,0.6 v 0 0.1 l -1.5,23.4 c 0.7,0.1 1.3,0.1 1.7,0.1 l 1.9,0.2 0.9,-12.6 c 0,-0.1 0,-0.2 0.1,-0.3 0.1,-0.1 0.2,-0.2 0.3,-0.2 0.1,0 0.2,0 0.3,0.1 0.1,0 0.2,0.1 0.2,0.2 1.4,3.4 3.2,7.7 5.3,12.8 l 4.4,0.4 v 0 l 2.9,-26.1 m 16.3,1.8 c 0,-0.1 0,-0.1 0,-0.1 -0.7,-1.2 -1.7,-2.1 -3,-2.6 v -0.1 c -1.3,-0.5 -2.6,-0.7 -3.9,-0.6 h -0.1 c -1,0 -2.1,0.3 -3.2,0.8 0,0 0,0 0,0.1 -0.5,0.2 -0.9,0.5 -1.4,0.8 -0.1,0 -0.1,0.1 -0.2,0.1 -0.4,0.2 -0.7,0.3 -0.9,0.6 v 0 l -1.8,25.3 4,-0.1 1.1,-7.6 c 0,-0.1 0,-0.2 0.1,-0.3 0.1,-0.1 0.2,-0.1 0.3,-0.1 0.1,0 0.2,-0.1 0.3,-0.1 3.6,0.6 6.6,-1 8.9,-4.9 0.1,-0.4 0.3,-0.7 0.4,-1.1 0.8,-2.5 0.9,-5.1 0.5,-7.7 0,0 0,-0.1 0,-0.1 -0.1,-0.2 -0.1,-0.5 -0.2,-0.7 -0.3,-0.5 -0.6,-1 -0.9,-1.6 m -5.8,3 c 0.2,0 0.3,0 0.5,0.1 1.1,0.1 1.9,0.7 2.3,1.8 v 0 c 0.2,0.5 0.3,1.1 0.3,1.8 v 0 c -0.1,0.3 -0.2,0.7 -0.4,1.1 v 0.1 c -0.6,1.2 -1.6,2 -2.8,2.5 v -0.1 c -1,0.4 -1.9,0.6 -2.8,0.5 -0.1,0 -0.2,-0.1 -0.3,-0.1 -0.1,-0.1 -0.1,-0.3 -0.1,-0.4 l 0.5,-6.4 c 0,-0.1 0,-0.2 0.1,-0.3 0.1,-0.1 0.1,-0.1 0.2,-0.1 0.8,-0.5 1.6,-0.6 2.5,-0.5 z"
   id="path67" />
			</g>
		</g>
	</g>
	<g
   transform="matrix(3.2412415,0,0,3.2412415,0.9,-1.95)"
   id="g79">
		<g
   id="g77">
			<g
   id="Symbol_1_copy_0_Layer3_1_FILL">
				<path
   class="st4"
   d="m 20.7,148.6 c 0.5,-0.3 0.8,-0.7 0.8,-1.3 0,-0.6 -0.2,-1.1 -0.7,-1.4 v 0 c -2.6,0.4 -3.9,0.8 -4,1.2 -0.2,0.6 -0.1,1.3 0.3,2 0.6,-0.1 1.2,-0.2 2,-0.2 0.7,0 1.3,-0.1 1.6,-0.3 z"
   id="path74" />
			</g>
		</g>
	</g>
	<g
   transform="matrix(3.2412415,0,0,3.2412415,2.2,-11.15)"
   id="g86">
		<g
   id="g84">
			<g
   id="Symbol_1_copy_0_Layer3_2_FILL">
				<path
   class="st4"
   d="m 32.6,148.5 c -0.1,-0.1 -0.2,-0.3 -0.3,-0.4 -0.5,-0.5 -1.1,-0.8 -2,-0.8 -0.3,0 -0.8,0 -1.4,0.1 -0.4,0.1 -0.8,0.2 -1.1,0.4 0,0 -0.1,0.1 -0.2,0.1 l -0.2,1.6 c 0,0 0,0.3 -0.1,0.9 0.2,0.2 0.4,0.4 0.6,0.5 0.3,0.2 0.9,0.3 1.8,0.3 0.5,0.1 0.9,0.2 1.1,0.2 0.8,-0.1 1.4,-0.4 1.7,-1.1 z"
   id="path81" />
			</g>
		</g>
	</g>
	<g
   transform="matrix(3.2412415,0,0,3.2412415,0.9,-1.95)"
   id="g93">
		<g
   id="g91">
			<g
   id="Symbol_1_copy_0_Layer3_3_FILL">
				<path
   class="st4"
   d="m 28.5,191.2 2.6,-0.1 c 0.8,0.1 1.5,0 2.1,-0.4 0.8,-0.6 1.1,-1.4 0.9,-2.4 -0.2,-1 -0.9,-1.6 -1.9,-1.9 -0.5,-0.1 -1.2,-0.1 -2.1,0.1 -0.2,0 -0.8,0 -1.7,-0.1 -2.8,-0.4 -4.7,-0.7 -5.8,-1 -1.4,-0.4 -2.3,-0.5 -2.8,-0.5 -0.5,0.1 -0.9,0.2 -1.4,0.5 -0.4,0.3 -0.7,0.7 -0.7,1.2 -0.1,0.7 0.4,1.5 1.3,2.2 1.3,0.9 3.1,1.6 5.5,2.1 1.8,0.1 3.1,0.2 4,0.3 z"
   id="path88" />
			</g>
		</g>
	</g>
	<g
   transform="translate(-0.7,-9.85)"
   id="g100">
		<g
   id="g98">
			<g
   id="Symbol_1_copy_0_Layer3_4_FILL">
				<path
   class="st4"
   d="m 144,479 c 5.6,0.3 10.2,1.6 13.8,3.9 3.4,2.2 5.1,1.3 5.1,-2.6 -0.5,-1.3 -1.4,-2.5 -2.6,-3.6 -1.9,-2.2 -4.3,-3.7 -7.1,-4.7 l -3.8,-0.8 c -8.2,-1.3 -15.6,-0.8 -22.3,1.5 -6.4,2.1 -8.4,6.2 -6,12.5 0.8,-0.3 1.6,-0.7 2.4,-1 8.1,-3.8 14.9,-5.6 20.5,-5.2 z"
   id="path95" />
			</g>
		</g>
	</g>
	<g
   id="g107">
		<g
   id="g105">
			<g
   id="Symbol_1_copy_0_Layer1_0_FILL">
				<path
   class="st8"
   d="m 160.7,389.2 c -13.5,-4.3 -26.4,-6.4 -38.6,-6.2 -10.2,0.2 -21.5,2.1 -33.8,5.7 -0.5,0 -1,0.1 -1.5,0.3 -1.3,0.4 -2.4,1 -3.4,1.6 l 0.1,-0.1 c -8.8,3.7 -17.3,8.7 -25.8,15 -25.8,19 -43,45.4 -51.6,79 -8.9,33.8 -6.6,65.2 6.9,94.3 0.1,0.2 0.3,0.5 0.5,0.7 13.8,30.3 35.5,49 64.9,56.1 0.2,0 9.9,2.4 29,7.1 2.6,0.2 5.4,0.4 8.3,0.6 12.6,0.7 24.9,-0.6 36.8,-3.7 12.2,-3.8 24.4,-11 36.6,-21.5 13,-10.3 25.2,-25 36.8,-44.1 l -4.3,6.8 c 6.4,-11.1 11.4,-23.5 15,-37.3 2.4,-10.1 3.9,-19.8 4.6,-29 0,-0.1 0,-0.2 0,-0.3 0.1,-1.8 0.2,-3.8 0.2,-5.9 l 0.1,-3.7 c 0,-0.1 0,-0.3 0,-0.4 0,-0.1 0,-0.2 0,-0.3 -0.1,-9.1 -1,-17.8 -2.8,-26.1 0,-0.2 0,-0.5 0,-0.6 -2,-9.3 -4.9,-18.3 -8.6,-27.1 -0.2,-0.3 -0.4,-0.6 -0.6,-0.9 -0.7,-1.5 -1.5,-3 -2.3,-4.5 -11.2,-21.1 -23.8,-35.1 -37.8,-42 -13.7,-6.6 -21.4,-10.4 -22.9,-11.3 -0.1,-0.1 -0.2,-0.2 -0.3,-0.2 -0.5,-0.2 -1,-0.4 -1.3,-0.5 l -2.9,-0.9 c -0.3,-0.4 -0.8,-0.6 -1.3,-0.6 m 7.1,19.7 c 0.7,0.2 1.3,0.6 1.9,1 16,7.7 28.7,18 37.9,30.9 2.2,3.1 4.2,6.4 6,9.9 0.9,1.7 1.6,3.4 2.3,5.1 v -0.3 c 7.7,17 11.2,34.9 10.6,53.6 -0.1,0.9 -0.1,1.8 -0.1,2.9 -0.7,8.4 -2.1,17.2 -4.4,26.3 -3.2,12.4 -7.7,23.6 -13.3,33.5 0,0.1 -0.1,0.2 -0.3,0.3 -8,13.9 -15.6,24.6 -22.9,32.1 -7.4,7.5 -14.4,13.1 -21.1,16.8 -6.8,3.8 -13.4,6.4 -19.9,7.7 -6.5,1.3 -11,1.9 -13.4,1.9 -2.5,-0.1 -3.6,-0.3 -3.3,-0.6 l -25.3,-3.8 c -1.4,-0.5 -2.5,-1 -3.3,-1.3 -15.8,-3.7 -26.1,-6.9 -31.1,-9.6 1.4,0.4 2.8,0.7 4.1,1.1 -23.2,-7.3 -39.9,-23.6 -50,-48.8 v -0.2 C 11.4,540.6 10.7,512.1 20.1,481.8 29.6,451.6 46.6,428.4 71,412.3 c 20.8,-13.7 43.1,-18.2 67,-13.5 8.2,1.1 17.8,4.1 28.9,9.3 0.3,0.5 0.6,0.6 0.9,0.8 z"
   id="path102" />
			</g>
		</g>
	</g>
	<g
   transform="matrix(3.2412415,0,0,3.2412415,0.9,-1.95)"
   id="g114">
		<g
   id="g112">
			<g
   id="Symbol_1_copy_0_Layer1_1_FILL">
				<path
   class="st9"
   d="m 51.2,126.6 c -3.4,-1.6 -6.4,-2.5 -8.9,-2.8 -0.1,0 -0.1,0 -0.2,0 0.2,0 0.4,0.1 0.7,0.2 0.1,0 0.3,0.1 0.4,0.2 0.1,0 0.3,0.1 0.4,0.2 v 0 c 0.4,0.1 0.8,0.2 1.2,0.4 1.7,0.6 3.2,1.4 4.6,2.4 3,2.1 5.5,4.8 7.5,8.2 0.8,1.2 1.4,2.6 1.9,4 2.2,5.5 3.1,11.3 2.5,17.4 -0.3,3 -0.9,6 -1.9,9.1 -1.1,3.4 -2.5,6.5 -4.2,9.3 -2.9,4.9 -6.8,8.9 -11.5,12.1 v 0 c -0.4,0.2 -0.7,0.5 -1.1,0.7 -0.8,0.5 -1.5,0.9 -2.2,1.3 -4.3,2.2 -8.7,3.1 -13.1,2.8 -0.5,-0.1 -1.1,-0.1 -1.6,-0.2 -1.1,-0.2 -2.2,-0.5 -3.5,-0.8 -0.5,-0.1 -1,-0.3 -1.5,-0.4 1.6,0.9 3.2,1.6 4.9,2.1 1,0.4 2.3,0.7 3.9,0.8 l 1,0.1 c 4.2,0.1 8.5,-0.9 12.8,-3.1 v -0.1 c 0.2,-0.1 0.4,-0.2 0.6,-0.3 0.6,-0.3 1.1,-0.7 1.6,-1 0.4,-0.3 0.8,-0.6 1.2,-0.9 v 0 c 4.8,-3.5 8.6,-7.9 11.3,-13.1 1.6,-3 2.9,-6.3 3.8,-9.9 0.8,-3.2 1.3,-6.4 1.5,-9.6 0.3,-6.2 -0.8,-12.2 -3.4,-17.9 -0.6,-1.4 -1.4,-2.8 -2.2,-4 -2,-3.1 -4.1,-5.4 -6.5,-7.2 z"
   id="path109" />
			</g>
		</g>
	</g>
</g>
</svg>
