<?xml version="1.0" encoding="UTF-8"?><svg id="Layer_1" xmlns="http://www.w3.org/2000/svg" width="78.2052" height="77.0731" viewBox="0 0 78.2052 77.0731"><g id="Duplicate_Items_Folder_reward_icon_green_0_Layer2_0_FILL"><path d="m19.2357,60.3327c-.2-.6-.4167-1.0333-.65-1.3-.4333-.4333-.8667-.6-1.3-.5-.8333.2333-1.1333,1.05-.9,2.45.4667,2.5333,1.5,4.85,3.1,6.95,1.6,2.1333,3.55,3.7667,5.85,4.9.8333.4667,1.55.6167,2.15.45.7-.1667,1.2333-.6333,1.6-1.4.2667-.6.3667-1.3333.3-2.2-.0241-1.4755-.3241-2.8755-.9-4.2.8016,1.3967,1.2516,3.0467,1.35,4.95.1667,1.6333.5667,2.6333,1.2,3,.3328.1566.7495.19,1.25.1.3089-.0516.6255-.1182.95-.2.0807-.0344.1641-.0677.25-.1,4.8333-1.7,10.45-3.4333,16.85-5.2,2.5667-.7,8.2667-2.2,17.1-4.5,1.6667-.4,2.7-1.0167,3.1-1.85.2667-.5667.3333-1.3667.2-2.4-.2-1.9333-.8167-3.05-1.85-3.35-.4667-.1333-.9833-.0833-1.55.15-.1.0333-.6167.2833-1.55.75-.8.4-1.9167.7167-3.35.95-1.8667.3333-3.0333.5667-3.5.7-.6667.1667-1.5167.4667-2.55.9-1.4.5667-2.2167.9-2.45,1-2.2.7667-5.7333,1.3667-10.6,1.8-4.7.3667-8.1833,1-10.45,1.9-.6.2667-1.0833.3667-1.45.3-.243-.0608-.6263-.3441-1.15-.85l3.3-.65c2.3667-.5,4.2667-.95,5.7-1.35,3.3333-1.2333,5.85-2.1167,7.55-2.65,2.1333-.6667,5.0833-1.3167,8.85-1.95.8333-.1333,1.4333-.3,1.8-.5.6667-.3667,1.0167-.8333,1.05-1.4.0333-.4667-.1-.8833-.4-1.25-.3333-.3667-.7333-.6-1.2-.7-.5333-.1333-1.45-.05-2.75.25-2.6667.6333-4.6833,1.1167-6.05,1.45-2.3667.5667-4.35,1.1167-5.95,1.65l-3.9,1.35c-.7333.2333-2.1833.6-4.35,1.1-3.8.8667-6.7,1.35-8.7,1.45-1.2667.0667-2.0667.35-2.4.85-.3667.5-.4,1.15-.1,1.95.1.2333.4833.8,1.15,1.7.9333,1.2333,1.5667,2.5667,1.9,4-1.5333-.6667-2.8833-1.8333-4.05-3.5-.8333-1.2333-1.6667-2.9-2.5-5m8.65,3.8c.0049.0342.0049.0676,0,.1-.024-.0616-.0573-.1283-.1-.2l.05-.05c.0236.0611.0402.1111.05.15m4.9,6.05l-.5-3.05c.9333-.1,2.2-.35,3.8-.75,1.8-.4667,3.0667-.75,3.8-.85l4.95-.45c3.1333-.2,6.1833-.7,9.15-1.5.7667-.1667,1.6-.4167,2.5-.75l2.5-1.15c.8-.3333,2.25-.6833,4.35-1.05,1.8667-.3333,3.2667-.75,4.2-1.25l.25.85c-11.9667,3-23.6333,6.3167-35,9.95m-4.05-24.55c-.013-.1592-.0464-.3259-.1-.5-.0667-.3333-.2333-.75-.5-1.25-.0225-.0507-.0559-.1007-.1-.15-.3596-.8132-.7596-1.3298-1.2-1.55-.4667-.2-.95-.2-1.45,0-.5333.2-.85.5667-.95,1.1-.1333.4333-.0667,1,.2,1.7l.45,1.45c-.3667.5667-.75,1.4-1.15,2.5-.9333,2.6333-1.4,4.9667-1.4,7,0,1.2667.3167,2.0833.95,2.45.3.1667.7833.25,1.45.25,1.2667.0667,2.3.0167,3.1-.15.7-.1333,1.4667-.3667,2.3-.7,1.8-.7,2.9667-1.4333,3.5-2.2l.55-1.2c.6-1.5.8-2.7167.6-3.65-.1333-.4333-.3-.75-.5-.95-.3333-.4-.75-.5167-1.25-.35h-.05c-.4703.1185-.7536.4185-.85.9-.0667.2-.1.4833-.1.85l-.6,1.5c-.2667.5333-.4333.8333-.5.9-.1333.1333-.35.25-.65.35-.1667.0667-.4333.1333-.8.2-.1667.0333-.7667.25-1.8.65-.6441.2635-1.1941.3635-1.65.3-.0725-.0171-.1392-.0337-.2-.05l.1-.65.3-1.3c.0143-.0568.031-.1234.05-.2.4482-1.6932.8982-2.9432,1.35-3.75.0184-.0301.035-.0634.05-.1.4372-.7119.7039-1.2119.8-1.5.1865-.5859.2031-1.2193.05-1.9m-13.3-27.45c-.4333-.8667-1.2333-1.95-2.4-3.25-.5333-.5333-.9167-.85-1.15-.95-.3667-.1667-.8333-.2167-1.4-.15s-1.05.2167-1.45.45-.8.65-1.2,1.25c-.3.4333-.6833,1.1167-1.15,2.05-.5667,1.2333-.9167,2.1333-1.05,2.7-.2.8667-.1667,2.15.1,3.85.3333,1.8667.8333,3.15,1.5,3.85.3682.4208.8016.7375,1.3.95.1523.0578.3023.1078.45.15.7.2,1.3667.2,2,0l2.4-.75c.1487-.0417.282-.0917.4-.15.6618-.2047,1.2118-.4714,1.65-.8.6667-.4667,1.1333-1.0667,1.4-1.8.1667-.5.2167-.9833.15-1.45,0-1.1333-.2833-2.5167-.85-4.15-.2667-.8-.5-1.4-.7-1.8Z" fill="#dba46c"/><path d="m32.2857,67.1327l.5,3.05c11.3667-3.6333,23.0333-6.95,35-9.95l-.25-.85c-.9333.5-2.3333.9167-4.2,1.25-2.1.3667-3.55.7167-4.35,1.05l-2.5,1.15c-.9.3333-1.7333.5833-2.5.75-2.9667.8-6.0167,1.3-9.15,1.5l-4.95.45c-.7333.1-2,.3833-3.8.85-1.6.4-2.8667.65-3.8.75m-4.4-2.9c.0049-.0324.0049-.0658,0-.1-.0098-.0389-.0264-.0889-.05-.15l-.05.05c.0427.0717.076.1384.1.2M46.7357,8.6827c1.5-.9,2.15-1.7667,1.95-2.6-.1667-.7333-.8167-1.2333-1.95-1.5-1.3667-.2667-2.9333-.1167-4.7.45-.2.0667-1.7167.6667-4.55,1.8-2.4,1-5.9833,1.9833-10.75,2.95-3.3333.7333-5.8833,1.15-7.65,1.25-.8.0333-2.1333.0333-4,0-1.7-.0333-3.0333,0-4,.1-3.2.3-5.5667,1.3667-7.1,3.2-1.7667,2.2-2.2167,5.2667-1.35,9.2.4333,2.0667,1.1833,3.5167,2.25,4.35.9286.7086,2.1453,1.0586,3.65,1.05-.4984-.2125-.9318-.5292-1.3-.95-.6667-.7-1.1667-1.9833-1.5-3.85-.2667-1.7-.3-2.9833-.1-3.85.1333-.5667.4833-1.4667,1.05-2.7.4667-.9333.85-1.6167,1.15-2.05.4-.6.8-1.0167,1.2-1.25s.8833-.3833,1.45-.45,1.0333-.0167,1.4.15c.2333.1.6167.4167,1.15.95,1.1667,1.3,1.9667,2.3833,2.4,3.25.2.4.4333,1,.7,1.8.5667,1.6333.85,3.0167.85,4.15.0667.4667.0167.95-.15,1.45-.2667.7333-.7333,1.3333-1.4,1.8-.4382.3286-.9881.5953-1.65.8.8803-.0872,1.6303-.1039,2.25-.05.3333.5333.4,1.45.2,2.75l-2.2,13.85c-.5333,3.3333-.6167,5.8167-.25,7.45.3,1.2667.85,2.3833,1.65,3.35.9,1.0333,1.9167,1.6667,3.05,1.9-1.3.4333-2.3333,1.2833-3.1,2.55s-1.0333,2.5833-.8,3.95c.2333,1.3.9667,2.75,2.2,4.35,2.0333,2.6667,4.1833,4.4167,6.45,5.25,1.7333.6333,3.75.8333,6.05.6.8488-.1107,1.8488-.3107,3-.6-.5005.09-.9172.0566-1.25-.1-.6333-.3667-1.0333-1.3667-1.2-3-.0984-1.9033-.5484-3.5533-1.35-4.95.5759,1.3245.8759,2.7245.9,4.2.0667.8667-.0333,1.6-.3,2.2-.3667.7667-.9,1.2333-1.6,1.4-.6.1667-1.3167.0167-2.15-.45-2.3-1.1333-4.25-2.7667-5.85-4.9-1.6-2.1-2.6333-4.4167-3.1-6.95-.2333-1.4.0667-2.2167.9-2.45.4333-.1.8667.0667,1.3.5.2333.2667.45.7.65,1.3.8333,2.1,1.6667,3.7667,2.5,5,1.1667,1.6667,2.5167,2.8333,4.05,3.5-.3333-1.4333-.9667-2.7667-1.9-4-.6667-.9-1.05-1.4667-1.15-1.7-.3-.8-.2667-1.45.1-1.95.3333-.5,1.1333-.7833,2.4-.85,2-.1,4.9-.5833,8.7-1.45,2.1667-.5,3.6167-.8667,4.35-1.1l3.9-1.35c1.6-.5333,3.5833-1.0833,5.95-1.65,1.3667-.3333,3.3833-.8167,6.05-1.45,1.3-.3,2.2167-.3833,2.75-.25.4667.1.8667.3333,1.2.7.3.3667.4333.7833.4,1.25-.0333.5667-.3833,1.0333-1.05,1.4-.3667.2-.9667.3667-1.8.5-3.7667.6333-6.7167,1.2833-8.85,1.95-1.7.5333-4.2167,1.4167-7.55,2.65-1.4333.4-3.3333.85-5.7,1.35l-3.3.65c.5237.5059.907.7892,1.15.85.3667.0667.85-.0333,1.45-.3,2.2667-.9,5.75-1.5333,10.45-1.9,4.8667-.4333,8.4-1.0333,10.6-1.8.2333-.1,1.05-.4333,2.45-1,1.0333-.4333,1.8833-.7333,2.55-.9.4667-.1333,1.6333-.3667,3.5-.7,1.4333-.2333,2.55-.55,3.35-.95.9333-.4667,1.45-.7167,1.55-.75.5667-.2333,1.0833-.2833,1.55-.15,1.0333.3,1.65,1.4167,1.85,3.35.1333,1.0333.0667,1.8333-.2,2.4-.4.8333-1.4333,1.45-3.1,1.85-8.8333,2.3-14.5333,3.8-17.1,4.5-6.4,1.7667-12.0167,3.5-16.85,5.2-.0859.0323-.1693.0656-.25.1.6703-.1792,1.387-.3792,2.15-.6,7.2667-2.1333,12.7333-3.7333,16.4-4.8,6.3667-1.8333,11.8667-3.2833,16.5-4.35,1.5-.3,2.65-.6667,3.45-1.1,1.2-.6333,1.95-1.5167,2.25-2.65.2-.9333-.0167-2.1333-.65-3.6-1.1-2.5333-2.4333-3.9-4-4.1-.7-.0667-1.9667.2333-3.8.9-1.5667.6-2.75.6667-3.55.2-.5667-.3333-1.0667-.9667-1.5-1.9-1.2333-2.6667-1.6833-5.9167-1.35-9.75.1333-1.3333.3833-2.9667.75-4.9.2-1.0667.5167-2.7.95-4.9.1333-.6667.1333-1.25,0-1.75-.1667-.6333-.5-.9833-1-1.05-.6-.1-1.2667.3667-2,1.4-1.4333,2.0333-3.2833,3.5667-5.55,4.6-.6333.2667-1.1.4667-1.4.6-.5333.2667-.9333.5667-1.2.9-.3333.4333-.4833.9167-.45,1.45.0333.6.2833,1,.75,1.2l-9.95,4.95c-1.8667.9667-3.2667,1.7833-4.2,2.45-1.177.9033-2.0603,1.8699-2.65,2.9h.05c.5-.1667.9167-.05,1.25.35.2.2.3667.5167.5.95.2.9333,0,2.15-.6,3.65l-.55,1.2c-.5333.7667-1.7,1.5-3.5,2.2-.8333.3333-1.6.5667-2.3.7-.8.1667-1.8333.2167-3.1.15-.6667,0-1.15-.0833-1.45-.25-.6333-.3667-.95-1.1833-.95-2.45,0-2.0333.4667-4.3667,1.4-7,.4-1.1.7833-1.9333,1.15-2.5l-.45-1.45c-.2667-.7-.3333-1.2667-.2-1.7.1-.5333.4167-.9.95-1.1.5-.2.9833-.2,1.45,0,.4404.2202.8404.7368,1.2,1.55.029-.0852.0457-.1685.05-.25.0333-.6667-.0333-1.55-.2-2.65-.1667-1.3667-.2667-2.2667-.3-2.7-.1125-1.593.0375-3.1596.45-4.7.0779-.8457.2779-1.4457.6-1.8.0135-.0135.0302-.0302.05-.05.2275-.5508.4941-1.1008.8-1.65.0333.4333.3.7667.8,1,.4667.2.9167.1667,1.35-.1.6155-.3479.9822-.9313,1.1-1.75-.0125-.3906-.0292-.8073-.05-1.25-.0224-.4783-.0391-.9449-.05-1.4-.019-.2393-.0523-.506-.1-.8-.0667-2.1667,1.0167-4.6333,3.25-7.4,3.0667-3.7667,6.7167-6.95,10.95-9.55Z" fill="#f3c69a"/><path d="m58.1357,6.0827c-.3333-.3667-.7333-.6-1.2-.7-.6667-.1667-1.55-.05-2.65.35-6.9,2.2667-12.9333,6.35-18.1,12.25-1.5,1.7-2.5,3.2833-3,4.75-.3362.9827-.5195,2.216-.55,3.7.0109.4551.0276.9217.05,1.4.0208.4427.0375.8594.05,1.25.0896,2.099.1062,3.4156.05,3.95-.6333-.8-1.2333-1.35-1.8-1.65-.9449-.4236-1.7116-.3569-2.3.2l-.05.05c-.3221.3543-.5221.9543-.6,1.8.0022.0365.0022.0698,0,.1-.3333,2.9-.35,5.1833-.05,6.85.0333.1667.2.9333.5,2.3.2.9333.3,1.7.3,2.3.006.2111-.0107.4277-.05.65.1531.6807.1365,1.3141-.05,1.9-.0961.2881-.3628.7881-.8,1.5-.0465.1353-.0965.2686-.15.4-.5863,1.5108-1.003,2.6608-1.25,3.45-.019.0766-.0357.1432-.05.2l-.3,1.3c.0095.2672.0428.5005.1.7.4559.0635,1.0059-.0365,1.65-.3,1.0333-.4,1.6333-.6167,1.8-.65.3667-.0667.6333-.1333.8-.2.3-.1.5167-.2167.65-.35.0667-.0667.2333-.3667.5-.9.0154-.0501.032-.1001.05-.15.1333-.3667.2833-.9667.45-1.8.1333-.8.2833-1.4167.45-1.85.4333-1.1333,1.3667-2.3167,2.8-3.55,2.7333-2.3333,5.85-3.9,9.35-4.7,2.1333-.5333,3.2333-1.3167,3.3-2.35.0667-.4667-.1167-.8833-.55-1.25-.4-.3667-.8333-.5-1.3-.4,4.7333-1.3667,9.0333-4.6167,12.9-9.75,1.3333-1.7667,2.8-4.0667,4.4-6.9.9333-1.5667,2.3-3.95,4.1-7.15,1.9333-3.2667,3.7667-5.5667,5.5-6.9,1.0333-.8667,1.6167-1.3833,1.75-1.55.5333-.9.5667-1.6333.1-2.2-.4-.5-1.1333-.75-2.2-.75-2.4-.0667-4.2833,0-5.65.2-2.0667.2667-3.7667.8833-5.1,1.85-.9.6667-2.05,1.9333-3.45,3.8.0333-.4333-.1-.8333-.4-1.2Z" fill="#9335cb"/></g><g id="Duplicate_Items_Folder_reward_icon_green_0_Layer1_0_FILL"><path d="m31.4857,6.4827h.05c-1.3587.4168-2.9921.8835-4.9,1.4-1.5686.3758-3.2853.6924-5.15.95-1.8708.2654-4.7708.5487-8.7.85h-.05c-2.1931.0335-3.7098.0835-4.55.15h-.05c-1.0646.1383-1.8646.3049-2.4.5-.0091.0322-.0258.0488-.05.05-.4098.2548-.7431.5215-1,.8-1.246.6637-2.2793,1.6137-3.1,2.85C.1668,16.2718-.2998,19.1718.1857,22.7327c.2809,1.8529.7975,3.4195,1.55,4.7.2832.4415.5665.8915.85,1.35l.05.05c.9289,1.2827,1.8789,2.1327,2.85,2.55,1.0934.4521,2.0934.5354,3,.25h-.05c.2892-.0487.6392-.1487,1.05-.3.0161.0087.0328.0087.05,0l2.95-1.35h-.05c.6647-.2073,1.2647-.3573,1.8-.45-.041.3378-.091.6878-.15,1.05-.2676,1.5112-.8342,4.2112-1.7,8.1-.7342,3.4111-1.2509,6.0944-1.55,8.05-.4026,3.1855-.5526,6.1189-.45,8.8.0034.1186.0367.2186.1.3.065.0841.1483.1341.25.15l4,1.25-.7.5c-1.1413.7497-2.1246,1.3664-2.95,1.85-.0891.0714-.1557.1547-.2.25-.047.0883-.0637.1716-.05.25.207,1.2092.4737,2.3592.8,3.45.8322,2.721,2.1155,5.2376,3.85,7.55,1.8997,2.6582,3.9664,4.4249,6.2,5.3h0c1.3134.5715,2.6801.7882,4.1.65.5741-.069,1.1241-.1857,1.65-.35,1.307-.2017,3.2237-.7684,5.75-1.7h0l3.9-1.3c13.181-4.107,24.3643-7.1737,33.55-9.2v-.05c1.4772-.3357,2.4439-.6857,2.9-1.05v-.05c.474-.3671.824-.8004,1.05-1.3h0c.0883-.1536.1549-.337.2-.55l-.05.1c.1085-.2483.2085-.5316.3-.85v-.05c.4124-1.5072.3457-3.0405-.2-4.6-.5148-1.5914-1.3648-2.9081-2.55-3.95-1.0112-.9055-2.0779-1.3721-3.2-1.4-.6699-.0451-1.6699.2216-3,.8-.8503.3737-1.7503.7404-2.7,1.1-1.3961-2.212-2.0628-5.0786-2-8.6.034-1.1448.1507-2.7281.35-4.75.2678-2.2807.4178-3.8807.45-4.8.0659-1.176.0826-2.3927.05-3.65.0271-.2802.0437-.4635.05-.55.0283-.0329.0449-.0663.05-.1.4083-3.4651.0083-7.0151-1.2-10.65-.4891-1.568-1.1224-3.068-1.9-4.5v.05c-1.1576-2.5565-2.2909-4.4732-3.4-5.75-1.0905-1.2693-1.9738-2.1193-2.65-2.55h0c-.6242-.3579-1.0576-.6079-1.3-.75-2.0396-1.5579-4.1229-2.4913-6.25-2.8-2.2845-.3811-4.8178-.1145-7.6.8h-.05c-2.7828,1.0831-4.9495,1.8997-6.5,2.45m-18.2,6.05h2.4c2.6667-.0333,4.9333-.2167,6.8-.55.9667-.1667,2.1167-.45,3.45-.85,3.2333-.8333,5.65-1.5333,7.25-2.1,3.3-1.1,5.3167-1.7333,6.05-1.9.1667-.0333.3167-.0667.45-.1,1.4333-.4667,2.65-.7167,3.65-.75,2.7333-.1,5.1333.7833,7.2,2.65,2.0333,1.8667,3.8667,4.35,5.5,7.45,1.6,3.0667,2.5,6.2,2.7,9.4s.1667,6.3-.1,9.3c-.1333,1.7-.3833,4.25-.75,7.65-.0667,1.7.0667,3.5167.4,5.45.3667,1.9.9667,3.9,1.8,6-.2.1-.4.2167-.6.35-.1667.0667-.35.1333-.55.2l-.2.1-2.7,1c0-.0333-.0167-.05-.05-.05h-.05c-.1333.0333-.25.0667-.35.1s-.1833.0667-.25.1c-.2667.0667-.5167.1333-.75.2-.9333.2667-1.8667.5333-2.8.8-2.8667.7333-5.7333,1.3833-8.6,1.95-3.7.7333-9.3833,1.6-17.05,2.6-.4333.0333-.7833.1-1.05.2-.7667.7-.5833,1.6333.55,2.8.1333.3333.3167.6833.55,1.05,1.2,1.7333,1.8167,3.2167,1.85,4.45,0,.2-.0333.4167-.1.65,0,.2-.05.4167-.15.65l-.05.1v.05c-.0333,0-.05.0167-.05.05l-.05.05c-.0667.1-.1167.1833-.15.25-.2.3-.4333.5333-.7.7-.0667,0-.1167.0167-.15.05-.2333.1333-.4833.25-.75.35-.7333.2667-1.5.3-2.3.1-1.2-.3333-2.4833-1.1833-3.85-2.55-2.1333-2.2667-3.6667-5.1-4.6-8.5-.1-.3667-.2167-.7667-.35-1.2l1.95-1.3,1.2-.85c.5-.3333.9167-.6667,1.25-1,.3-.3667.4167-.7333.35-1.1-.0667-.2-.2-.3667-.4-.5l-.65-.35c0-.0333-.0167-.05-.05-.05-.6667-.2333-1.2667-.4333-1.8-.6-.1333-.0667-.25-.1167-.35-.15-.1667-.0667-.3333-.1333-.5-.2-.4667-.2333-1.05-.45-1.75-.65,0-.6.0167-1.2.05-1.8.1-2.7.5167-5.9167,1.25-9.65,1-4.2,1.6833-7.35,2.05-9.45.9333-4.3667,1.1-7.9.5-10.6-.3667-1.6333-1.1333-3.5833-2.3-5.85-1-1.7667-2.0667-3.15-3.2-4.15.3,0,.6,0,.9,0m-5.35,1.45c.2667,0,.5333.05.8.15,1.3333.3333,2.5833,1.55,3.75,3.65-.5667.3-1.25.5333-2.05.7-.1,0-1,.1333-2.7.4-.7667.1333-1.2.4167-1.3.85-.1333.4,0,.8.4,1.2l.35.2c.0333.1333.2167.4167.55.85.5667.8.8833,1.7333.95,2.8.0667,1.0333-.1,2-.5,2.9-.0333.0333-.05.0667-.05.1-.1.2-.2167.3667-.35.5-.1667.1333-.3333.2-.5.2-.2.0333-.4667-.05-.8-.25-.6333-.4667-1.35-1.2833-2.15-2.45-1.2667-3.2333-1.45-6.0667-.55-8.5.3667-.9333.9333-1.7167,1.7-2.35.7333-.6667,1.55-.9833,2.45-.95m2.7,8.35c-.2333-.4333-.4667-.8167-.7-1.15-.0667-.1-.1333-.1833-.2-.25,1.3333-.1,2.6167-.4333,3.85-1,.2333.5333.4333,1.0333.6,1.5.4,1.2333.6667,2.4.8,3.5.0333.3667.05.8.05,1.3-1.0667.0333-2.1667.2833-3.3.75-.2.0667-.4167.15-.65.25.2333-1.1333.2333-2.2667,0-3.4-.1333-.5333-.2833-1.0333-.45-1.5m60.65,33.15c.0333.0333.05.0667.05.1.2.3667.3667.75.5,1.15.3333.8667.45,1.8.35,2.8-.1.4333-.1667.7833-.2,1.05-.3667.2667-1.05.55-2.05.85l-.65.15c-.1.0333-.1667.05-.2.05-13.0333,3.0333-25.7667,6.6833-38.2,10.95.3333-.8667.4667-1.8667.4-3-.0667-1-.3-1.9833-.7-2.95-.0333-.1333-.0667-.25-.1-.35-.3667-.6667-.7667-1.3167-1.2-1.95-.1-.1-.1833-.2-.25-.3-.1333-.1667-.2833-.3167-.45-.45.5-.0333,1.0167-.0833,1.55-.15,12.8-1.2333,25.1333-4.25,37-9.05.8333-.3667,1.5167-.5167,2.05-.45.6333.0667,1.1833.3667,1.65.9.1333.1333.2333.2833.3.45.0667.0667.1167.1333.15.2Z" fill="#4c3a26"/><path d="m69.7857,60.0327c.0667-.6333.0167-1.2667-.15-1.9-.2-.6333-.3667-1.0167-.5-1.15-.1667-.1667-.2833-.2667-.35-.3-4.5,2.4333-9.8167,4.3833-15.95,5.85-3.2667.8333-7.1333,1.5833-11.6,2.25-.3333.0667-3.4167.5-9.25,1.3-.1333-.2667-.25-.5-.35-.7-.2667-.5-.7667-1.15-1.5-1.95-.5333.0667-1.05.1167-1.55.15.1667.1333.3167.2833.45.45.0667.1.15.2.25.3.4333.6333.8333,1.2833,1.2,1.95.0333.1.0667.2167.1.35.4.9667.6333,1.95.7,2.95.0667,1.1333-.0667,2.1333-.4,3,12.4333-4.2667,25.1667-7.9167,38.2-10.95.3333-.4667.5667-1,.7-1.6M14.1857,21.4327c-.5333.3-1.0167.5333-1.45.7-.7333.2333-1.4333.3-2.1.2.1667.4667.3167.9667.45,1.5.2333,1.1333.2333,2.2667,0,3.4.2333-.1.45-.1833.65-.25,1.1333-.4667,2.2333-.7167,3.3-.75,0-.5-.0167-.9333-.05-1.3-.1333-1.1-.4-2.2667-.8-3.5m-5.45-7.3c-.0667.0333-.15.0833-.25.15-1.5,1.0333-2.5333,2.4667-3.1,4.3-.5667,1.7667-.6333,3.5667-.2,5.4.4,1.5333,1.0167,2.6333,1.85,3.3.4.3.7667.4667,1.1.5,0-.0333.0167-.0667.05-.1.4-.9.5667-1.8667.5-2.9-.0667-1.0667-.3833-2-.95-2.8-.3333-.4333-.5167-.7167-.55-.85l-.35-.2c-.4-.4-.5333-.8-.4-1.2.1-.4333.5333-.7167,1.3-.85,1.7-.2667,2.6-.4,2.7-.4.8-.1667,1.4833-.4,2.05-.7-1.1667-2.1-2.4167-3.3167-3.75-3.65m11.55,14.9h-.05c-.0667-.0333-.1167-.05-.15-.05-.3667-.0667-.6167.1167-.75.55-.0667.2333-.0667.5833,0,1.05v.25c-.1.2667-.1667.65-.2,1.15,0,.7667-.1333,1.8333-.4,3.2-.3333,1.5-.6333,3.0167-.9,4.55-.0333.0333-.05.0667-.05.1-.1.5333-.2333,1.1167-.4,1.75-.6333,2.8333-1.0667,5.1333-1.3,6.9-.2324,1.6272-.3491,3.2605-.35,4.9.0021-.0729.0187-.1562.05-.25.4667.1.8333.25,1.1.45l.4.3.35.15,1.65.95c.2667.2.4.45.4.75.0333.2333-.0167.4333-.15.6l-.05.05c-.0667-.1333-.1833-.25-.35-.35.2.1333.3333.3.4.5.0667.3667-.05.7333-.35,1.1-.3333.3333-.75.6667-1.25,1l-1.2.85c.4333,2.1333,1.05,4.1,1.85,5.9.6333,1.3667,1.2333,2.4167,1.8,3.15,1.5333,1.9667,3.6667,3.3,6.4,4,.2667-.1667.5-.4.7-.7.0333-.0667.0833-.15.15-.25l.05-.05c0-.0333.0167-.05.05-.05v-.05l.05-.1c.1-.2333.15-.45.15-.65.0667-.2333.1-.45.1-.65-.0333-1.2333-.65-2.7167-1.85-4.45-.2333-.3667-.4167-.7167-.55-1.05-1.1333-1.1667-1.3167-2.1-.55-2.8.2667-.1.6167-.1667,1.05-.2,7.6667-1,13.35-1.8667,17.05-2.6,2.8667-.5667,5.7333-1.2167,8.6-1.95.9333-.2667,1.8667-.5333,2.8-.8.2333-.0667.4833-.1333.75-.2.0667-.0333.15-.0667.25-.1s.2167-.0667.35-.1h.05c.0333,0,.05.0167.05.05l2.7-1c-1.2-2.1-1.9667-4.3667-2.3-6.8-3,2.1667-6.85,3.3333-11.55,3.5-1.9.0667-3.5333-.0333-4.9-.3-3-.6333-5.5833-1.9333-7.75-3.9-.5333-.4667-.9833-.9333-1.35-1.4-.1-.1-.2167-.2-.35-.3-.1-.1-.2-.1833-.3-.25l.05-.05c-.3667-.3333-.7333-.65-1.1-.95-2.8333-2.7667-5.35-6.4667-7.55-11.1-.7333-1.6-1.1833-3.0167-1.35-4.25m-.35-13.9c-.6.1-.9833.4667-1.15,1.1-.1333.4333-.0833.9833.15,1.65.3.8333.85,1.3833,1.65,1.65.3667.1667.75.2,1.15.1.4333-.0667.75-.2667.95-.6.3333-.5333.4-1.1333.2-1.8-.2667-.5667-.6667-1.0667-1.2-1.5-.6667-.5333-1.25-.7333-1.75-.6m9.8,7.7c0-.2333-.0667-.5167-.2-.85-.2-.4-.4333-.7333-.7-1-.2667-.2333-.6333-.4667-1.1-.7-.4-.2333-.7833-.3667-1.15-.4-.7667-.1-1.4667.1333-2.1.7-.3667.2667-.75.65-1.15,1.15-.6,1-1.05,2.1333-1.35,3.4-.2.9667-.2,1.7667,0,2.4.3333.9.9833,1.55,1.95,1.95.6333.2,1.2.25,1.7.15.8667-.1667,1.6667-.8167,2.4-1.95l1.1-2.25c.2-.3.3667-.8833.5-1.75l.1-.85Z" fill="#dba46c"/><path d="m69.6357,58.1327c.1667.6333.2167,1.2667.15,1.9-.1333.6-.3667,1.1333-.7,1.6.0333,0,.1-.0167.2-.05l.65-.15c1-.3,1.6833-.5833,2.05-.85.0333-.2667.1-.6167.2-1.05.1-1-.0167-1.9333-.35-2.8-.1333-.4-.3-.7833-.5-1.15,0-.0333-.0167-.0667-.05-.1-.0333-.0667-.0833-.1333-.15-.2-.0667-.1667-.1667-.3167-.3-.45-.4667-.5333-1.0167-.8333-1.65-.9-.5333-.0667-1.2167.0833-2.05.45-11.8667,4.8-24.2,7.8167-37,9.05.7333.8,1.2333,1.45,1.5,1.95.1.2.2167.4333.35.7,5.8333-.8,8.9167-1.2333,9.25-1.3,4.4667-.6667,8.3333-1.4167,11.6-2.25,6.1333-1.4667,11.45-3.4167,15.95-5.85.0667.0333.1833.1333.35.3.1333.1333.3.5167.5,1.15M9.9357,21.1827c.2333.3333.4667.7167.7,1.15.6667.1,1.3667.0333,2.1-.2.4333-.1667.9167-.4,1.45-.7-.1667-.4667-.3667-.9667-.6-1.5-1.2333.5667-2.5167.9-3.85,1,.0667.0667.1333.15.2.25m-1.2-7.05c-.2667-.1-.5333-.15-.8-.15-.9-.0333-1.7167.2833-2.45.95-.7667.6333-1.3333,1.4167-1.7,2.35-.9,2.4333-.7167,5.2667.55,8.5.8,1.1667,1.5167,1.9833,2.15,2.45.3333.2.6.2833.8.25.1667,0,.3333-.0667.5-.2.1333-.1333.25-.3.35-.5-.3333-.0333-.7-.2-1.1-.5-.8333-.6667-1.45-1.7667-1.85-3.3-.4333-1.8333-.3667-3.6333.2-5.4.5667-1.8333,1.6-3.2667,3.1-4.3.1-.0667.1833-.1167.25-.15m6.95-1.6h-3.3c1.1333,1,2.2,2.3833,3.2,4.15,1.1667,2.2667,1.9333,4.2167,2.3,5.85.6,2.7.4333,6.2333-.5,10.6-.3667,2.1-1.05,5.25-2.05,9.45-.7333,3.7333-1.15,6.95-1.25,9.65-.0333.6-.05,1.2-.05,1.8.7.2,1.2833.4167,1.75.65.1667.0667.3333.1333.5.2.1.0333.2167.0833.35.15.5333.1667,1.1333.3667,1.8.6.0333,0,.05.0167.05.05l.65.35c.1667.1.2833.2167.35.35l.05-.05c.1333-.1667.1833-.3667.15-.6,0-.3-.1333-.55-.4-.75l-1.65-.95-.35-.15-.4-.3c-.2667-.2-.6333-.35-1.1-.45-.0312.0938-.0479.1771-.05.25.0009-1.6395.1176-3.2728.35-4.9.2333-1.7667.6667-4.0667,1.3-6.9.1667-.6333.3-1.2167.4-1.75,0-.0333.0167-.0667.05-.1.2667-1.5333.5667-3.05.9-4.55.2667-1.3667.4-2.4333.4-3.2.0333-.5.1-.8833.2-1.15v-.25c-.0667-.4667-.0667-.8167,0-1.05.1333-.4333.3833-.6167.75-.55.0333,0,.0833.0167.15.05h.05c.1667,1.2333.6167,2.65,1.35,4.25,2.2,4.6333,4.7167,8.3333,7.55,11.1.3667.3.7333.6167,1.1.95l-.05.05c.1.0667.2.15.3.25.1333.1.25.2.35.3.3667.4667.8167.9333,1.35,1.4,2.1667,1.9667,4.75,3.2667,7.75,3.9,1.3667.2667,3,.3667,4.9.3,4.7-.1667,8.55-1.3333,11.55-3.5.3333,2.4333,1.1,4.7,2.3,6.8l.2-.1c.2-.0667.3833-.1333.55-.2.2-.1333.4-.25.6-.35-.8333-2.1-1.4333-4.1-1.8-6-.3333-1.9333-.4667-3.75-.4-5.45.3667-3.4.6167-5.95.75-7.65.2667-3,.3-6.1.1-9.3-.2-3.2-1.1-6.3333-2.7-9.4-1.6333-3.1-3.4667-5.5833-5.5-7.45-2.0667-1.8667-4.4667-2.75-7.2-2.65-1,.0333-2.2167.2833-3.65.75-.1333.0333-.2833.0667-.45.1-.7333.1667-2.75.8-6.05,1.9-1.6.5667-4.0167,1.2667-7.25,2.1-1.3333.4-2.4833.6833-3.45.85-1.8667.3333-4.1333.5167-6.8.55m13.85,9.45c.1333.3333.2.6167.2.85l-.1.85c-.1333.8667-.3,1.45-.5,1.75l-1.1,2.25c-.7333,1.1333-1.5333,1.7833-2.4,1.95-.5.1-1.0667.05-1.7-.15-.9667-.4-1.6167-1.05-1.95-1.95-.2-.6333-.2-1.4333,0-2.4.3-1.2667.75-2.4,1.35-3.4.4-.5.7833-.8833,1.15-1.15.6333-.5667,1.3333-.8,2.1-.7.3667.0333.75.1667,1.15.4.4667.2333.8333.4667,1.1.7.2667.2667.5.6.7,1m-10.75-5.75c.1667-.6333.55-1,1.15-1.1.5-.1333,1.0833.0667,1.75.6.5333.4333.9333.9333,1.2,1.5.2.6667.1333,1.2667-.2,1.8-.2.3333-.5167.5333-.95.6-.4.1-.7833.0667-1.15-.1-.8-.2667-1.35-.8167-1.65-1.65-.2333-.6667-.2833-1.2167-.15-1.65Z" fill="#f3c69a"/><path d="m14.7857,60.7827c.1333.4333.25.8333.35,1.2.9333,3.4,2.4667,6.2333,4.6,8.5,1.3667,1.3667,2.65,2.2167,3.85,2.55.8.2,1.5667.1667,2.3-.1.2667-.1.5167-.2167.75-.35.0333-.0333.0833-.05.15-.05-2.7333-.7-4.8667-2.0333-6.4-4-.5667-.7333-1.1667-1.7833-1.8-3.15-.8-1.8-1.4167-3.7667-1.85-5.9l-1.95,1.3Z" fill="#ffc993"/></g><g id="Duplicate_Items_Folder_reward_icon_green_0_Layer0_0_FILL"><path d="m58.2357,3.1827h-.05c-.4-.2-.95-.2-1.65,0-.0333,0-.0667.0167-.1.05-1.4667.4-2.9167.9-4.35,1.5h.05c-1.5333.5333-3.2,1.2833-5,2.25-.0333,0-.0833.0167-.15.05-1.903,1.05-3.4197,2.05-4.55,3-.9.5667-2.05,1.5667-3.45,3h-.05c-2.2,1.9667-4.15,4.15-5.85,6.55-1.4667,2-2.2667,3.7333-2.4,5.2-.0333.2333-.05.5-.05.8l.6,4.1c0,.3-.0833.4667-.25.5-.1,0-.2167-.1-.35-.3-.1333-.3333-.4-.8-.8-1.4-.3333-.1-.6833-.0833-1.05.05l-.05.05c-.1.0333-.1833.1-.25.2l-.1.1c-.0667.0667-.1333.1667-.2.3-.0333.0667-.0667.1667-.1.3-.1333.2-.25.45-.35.75-.2.2667-.3833.6833-.55,1.25-1.3,4.0333-1.35,8.65-.15,13.85,0,.0667.0167.15.05.25.0333.1333.15.55.35,1.25l-.4.8-.05.05c-.1667.3667-.3333.7333-.5,1.1-.0333.0667-.05.1333-.05.2-.7,1.6667-1.35,3.5333-1.95,5.6-.1667.3333-.2333.6667-.2,1-.0333.0667-.0333.15,0,.25-.0333.0667-.05.1333-.05.2,0,.2667.1.5.3.7.1.1.2167.1833.35.25.0667.0667.1833.1333.35.2h-.05c.3333.2.7.2333,1.1.1.4667,0,1.0333-.0833,1.7-.25l.9-.3c.0667-.0333.1333-.0833.2-.15,1.1-.4667,1.8333-.85,2.2-1.15.0667-.0333.1167-.0667.15-.1,1.0333-.7667,1.6167-1.6333,1.75-2.6,0-.0667.0167-.1167.05-.15.0667-.1.1-.2.1-.3.1667-.9.2833-1.5.35-1.8l.2-.4v-.2c.0333-.2.0667-.4.1-.6.0333-.1667.0833-.3167.15-.45,1.2667-1.3667,2.8667-2.6167,4.8-3.75.1-.0333.1833-.0833.25-.15.0333-.0333.0667-.05.1-.05l2.6-1.4c1.5667-.8,3.9333-1.8167,7.1-3.05v-.05c.9667-.4,1.7-.7333,2.2-1,.0667-.0333.1333-.0667.2-.1.3333-.3667.55-.75.65-1.15,0-.2667-.1167-.5-.35-.7-.2333-.2333-.4833-.3333-.75-.3l-1.05-.35c0-.1667.1667-.3167.5-.45,1.0333-.3333,2-.6833,2.9-1.05,2.7667-1.6333,5.35-4.2667,7.75-7.9,1.4333-2.2667,3.3833-5.7167,5.85-10.35,2.8667-4.9333,6.35-9.35,10.45-13.25.6667-.6667.95-1.2667.85-1.8.0333-1.0333-.6667-1.6167-2.1-1.75h-.1c-4-.5333-8.0167-.15-12.05,1.15-1.2.3333-2.2.7667-3,1.3-.1,0-.1667.0333-.2.1-.2333.1-.45.2167-.65.35-.0333.0333-.0667.0667-.1.1l-.7.9-.3.3c-.1667.1333-.3167.1333-.45,0-.0667-.0667-.1-.2167-.1-.45,0-.1333-.0667-.3667-.2-.7v-.1m2.9,2.05c.1667-.2.2333-.3.2-.3.3333-.1333,1.1833-.45,2.55-.95,2.0333-.7667,4.1-1.1833,6.2-1.25,2.0667-.0667,3.0167-.1167,2.85-.15h1.65l-1.25,1.25h-.05c-2.7,2.5333-5.35,5.95-7.95,10.25l-4.4,7.9c-.2.3-.3667.5667-.5.8l-.05.05v.1c-.9333,1.5-1.7333,2.7833-2.4,3.85-1.0667,1.6667-2.1167,3.05-3.15,4.15-.2667.2333-.55.4667-.85.7-.8667.7-1.95,1.4167-3.25,2.15-.9.4-1.95.8333-3.15,1.3-1.3667.5-2.6167.9333-3.75,1.3l-1.1.45c-.2333.0667-.3833.15-.45.25l-.1.2v.15l.15.2c.1333.1333.2833.25.45.35h.05l3.2.5h1c-.8.3333-1.4.5833-1.8.75-.0667.0333-.1167.05-.15.05-.1333.0667-.25.1167-.35.15-3.5254,1.1307-6.7921,2.8307-9.8,5.1.135-.3684.2184-.5684.25-.6,1.4667-3.7667,3.5-7.6,6.1-11.5.1333-.1667.2667-.3333.4-.5.4-.6333.8167-1.25,1.25-1.85.4-.5333.8167-1.0833,1.25-1.65.3333-.4667.7-.95,1.1-1.45.2667-.3.5333-.6167.8-.95.9667-1.2,2.0167-2.4167,3.15-3.65.3-.3667.6167-.7167.95-1.05.5667-.7333,1.1833-1.4667,1.85-2.2.6333-.7333,1.45-1.7,2.45-2.9l.3-.4c1.4667-1.5,2.25-2.6,2.35-3.3-.8667-.0333-2.1833.5667-3.95,1.8l-1,.65c-.2333.1667-.4667.3667-.7.6-.6667.5667-1.35,1.1833-2.05,1.85-.1667.1333-.3167.2833-.45.45-1.9667,1.7-3.8667,3.5833-5.7,5.65-1.4333,1.5667-2.8167,3.2333-4.15,5-.5333.7-1.0667,1.4333-1.6,2.2-.4.5333-.7833,1.0833-1.15,1.65-.8333,1.2-1.65,2.45-2.45,3.75-.8,1.2667-1.7167,2.8167-2.75,4.65l-.75,1.3v.1c-.3.7-.6667,1.4167-1.1,2.15-.0323.0323-.049.0656-.05.1v-.05c-.1-.4-.1667-.65-.2-.75-.2-1-.35-1.9833-.45-2.95-.2-2.3333-.0333-4.6833.5-7.05v-.1c.0333-.0667.05-.15.05-.25l.05-.15c.0333-.1333.0667-.2667.1-.4l.05-.1c.0333-.0667.0667-.1333.1-.2,0-.0667.0167-.1333.05-.2,0,.0333.0167.0667.05.1.3333-.2667,1.05.6667,2.15,2.8.2667.4667.55.7.85.7h.15c.2-.0333.3667-.15.5-.35l.3-.65c.0667-.2333.1333-.4833.2-.75v-1.55c0-.0333.0167-.0667.05-.1l-.05-.3c0-.3-.0167-.5833-.05-.85l-.15-.9v-.05l-.15-.9v-.35l-.1-.6c-.0333-.2333-.05-.45-.05-.65-.1667-1.2-.1667-2.2,0-3,.1333-.6.4-1.3.8-2.1.2333-.4.5-.8167.8-1.25,2.6333-3.7667,5.8167-7,9.55-9.7,3.8-2.7333,7.8667-4.7167,12.2-5.95v.1c.1333,0,.2333.0833.3.25.0667.1333.0667.3333,0,.6v.2l-.05.3-.05.2c-.0333.3667-.0333.7167,0,1.05l.05.35c0,.1667.0333.2667.1.3.0667.1.2167.0833.45-.05.5333-.3333.9833-.7,1.35-1.1v-.05h.1c0-.0667.0167-.1.05-.1v-.05c.0333-.0333.0667-.05.1-.05.0333-.0667.0667-.1333.1-.2.4-.5.7833-.95,1.15-1.35.3333-.4333.6333-.7667.9-1m-13.05,15.95c-1.5667,1.8333-3.25,4-5.05,6.5-5,6.8667-8.1333,12.0667-9.4,15.6-1.3,3.5-2.05,5.75-2.25,6.75-.2.9667-.6167,1.9833-1.25,3.05s-1.7333,1.6-3.3,1.6c.0667-.2333.1333-.4667.2-.7.5-1.5,1.0333-2.95,1.6-4.35,1.4333-3.4333,3.2-6.8667,5.3-10.3s4.2833-6.7167,6.55-9.85,4.8-5.9,7.6-8.3m-18.85,35.1v-.05l.05-.05-.05.1Z" fill="#460a68"/><path d="m43.0357,27.6827c1.8-2.5,3.4833-4.6667,5.05-6.5-2.8,2.4-5.3333,5.1667-7.6,8.3s-4.45,6.4167-6.55,9.85-3.8667,6.8667-5.3,10.3c-.5667,1.4-1.1,2.85-1.6,4.35-.0667.2333-.1333.4667-.2.7,1.5667,0,2.6667-.5333,3.3-1.6.6333-1.0667,1.05-2.0833,1.25-3.05.2-1,.95-3.25,2.25-6.75,1.2667-3.5333,4.4-8.7333,9.4-15.6m-13.45,4.65c-.0333-.0333-.05-.0667-.05-.1-.0333.0667-.05.1333-.05.2-.0333.0667-.0667.1333-.1.2l-.05.1c-.0333.1333-.0667.2667-.1.4v.25l-.1.25c-.5333,2.3667-.7,4.7167-.5,7.05.1.9667.25,1.95.45,2.95.0333.1.1.35.2.75l.05-.8c0-1.6.0833-2.95.25-4.05.1667-1.2667.4167-2.5.75-3.7.2.0667.4.15.6.25l.75.35c.3.0667.5333.0333.7-.1.1333-.1.25-.2667.35-.5h-.15c-.3,0-.5833-.2333-.85-.7-1.1-2.1333-1.8167-3.0667-2.15-2.8M56.5857,5.9327v-.1c-4.3333,1.2333-8.4,3.2167-12.2,5.95-3.7333,2.7-6.9167,5.9333-9.55,9.7-.3.4333-.5667.85-.8,1.25-.4.8-.6667,1.5-.8,2.1-.1667.8-.1667,1.8,0,3,.3667-1,.8-1.9833,1.3-2.95.1667,1.0667.4167,2.2167.75,3.45.4667,1.6667.8333,3.0167,1.1,4.05.3667-.5667.75-1.1167,1.15-1.65-.1667-1.3333-.3667-2.8333-.6-4.5-.3-2-.4833-3.4833-.55-4.45.5333-.8667,1.1333-1.7167,1.8-2.55v.4c.1,2.9333.4167,5.9.95,8.9,1.3333-1.7667,2.7167-3.4333,4.15-5-.0333-.7333-.0167-1.6833.05-2.85.1333-2.3667.2667-4.4667.4-6.3.9667-.7667,1.8333-1.4333,2.6-2,2.3667-1.7,4.65-2.9833,6.85-3.85.3667-.1333.7667-.2833,1.2-.45.3333-.1.6667-.2167,1-.35.6333-.2333,1.1167-.3833,1.45-.45l.05-.3v-.2c.0667-.2667.0667-.4667,0-.6-.0667-.1667-.1667-.25-.3-.25m4.75-1c.0333,0-.0333.1-.2.3-.2667.2333-.5667.5667-.9,1,.5667-.2,1.2-.3833,1.9-.55,3.6333-.7333,6.6833-1.2667,9.15-1.6-1.1,1.2-2.1833,2.4667-3.25,3.8l-1.5,2.05c-.6333,1.0333-1.2,1.9667-1.7,2.8-.6667,1-1.3333,2.1167-2,3.35-.3.5333-.5667,1.05-.8,1.55-2,1.5-4.4667,3-7.4,4.5-2.6667,1.4-5.5167,2.7-8.55,3.9-.2667.3333-.5333.65-.8.95-.4.5-.7667.9833-1.1,1.45-.4333.5667-.85,1.1167-1.25,1.65-.4333.6-.85,1.2167-1.25,1.85-.1333.1667-.2667.3333-.4.5.1,0,.2167-.0167.35-.05.6333-.2333,2.9667-1.15,7-2.75,4.0333-1.6667,6.75-2.9667,8.15-3.9-.4333.7333-.85,1.4167-1.25,2.05-.9,1.4-1.6333,2.35-2.2,2.85-.1667.1333-.35.3-.55.5-2.1667,1-3.6167,1.6667-4.35,2-2.6,1.2-4.95,2.1333-7.05,2.8-.549.1829-.9823.3829-1.3.6.029-.0146.0624-.0313.1-.05-.1333.2333-.2167.4667-.25.7-.1333.6333.05,1.0833.55,1.35l.55.25c.3333.1.7333.2,1.2.3.1667,0,.35-.0167.55-.05l.85.05c.5333.0667,1.0167.1333,1.45.2.0333,0,.0833-.0167.15-.05.4-.1667,1-.4167,1.8-.75h-1l-3.2-.5h-.05c-.1667-.1-.3167-.2167-.45-.35l-.15-.2v-.15l.1-.2c.0667-.1.2167-.1833.45-.25l1.1-.45c1.1333-.3667,2.3833-.8,3.75-1.3,1.2-.4667,2.25-.9,3.15-1.3,1.3-.7333,2.3833-1.45,3.25-2.15.3-.2333.5833-.4667.85-.7,1.0333-1.1,2.0833-2.4833,3.15-4.15.6667-1.0667,1.4667-2.35,2.4-3.85v-.1l.05-.05c.1333-.2333.3-.5.5-.8l4.4-7.9c2.6-4.3,5.25-7.7167,7.95-10.25h.05c.1667-.1667.5833-.5833,1.25-1.25h-1.65c.1667.0333-.7833.0833-2.85.15-2.1.0667-4.1667.4833-6.2,1.25-1.3667.5-2.2167.8167-2.55.95Z" fill="#d7a3f5"/><path d="m29.3357,44.3327v-.55l-.05.6v.05c.001-.0344.0177-.0677.05-.1Z" fill="#6c3"/><path d="m29.1357,33.5327v.1l.1-.25v-.25l-.05.15c0,.1-.0167.1833-.05.25Z" fill="#339819"/><path d="m34.5357,24.8827c-.5.9667-.9333,1.95-1.3,2.95,0,.2.0167.4167.05.65l.1.6v.35l.15.9v.05l.15.9c.0333.2667.05.55.05.85l.05.3c-.0333.0333-.05.0667-.05.1v1.55c-.0667.2667-.1333.5167-.2.75l-.3.65c-.1333.2-.3.3167-.5.35-.1.2333-.2167.4-.35.5-.1667.1333-.4.1667-.7.1l-.75-.35c-.2-.1-.4-.1833-.6-.25-.3333,1.2-.5833,2.4333-.75,3.7-.1667,1.1-.25,2.45-.25,4.05l-.05.8.05-.6v.55c.4333-.7333.8-1.45,1.1-2.15v-.1l.75-1.3c1.0333-1.8333,1.95-3.3833,2.75-4.65.8-1.3,1.6167-2.55,2.45-3.75-.2667-1.0333-.6333-2.3833-1.1-4.05-.3333-1.2333-.5833-2.3833-.75-3.45m7.1,7.5c-.1333.0333-.25.05-.35.05-2.6,3.9-4.6333,7.7333-6.1,11.5-.0316.0316-.115.2316-.25.6,3.0079-2.2693,6.2746-3.9693,9.8-5.1.1-.0333.2167-.0833.35-.15-.4333-.0667-.9167-.1333-1.45-.2l-.85-.05c-.2.0333-.3833.05-.55.05-.4667-.1-.8667-.2-1.2-.3l-.55-.25c-.5-.2667-.6833-.7167-.55-1.35.0333-.2333.1167-.4667.25-.7-.0376.0187-.071.0354-.1.05.3177-.2171.751-.4171,1.3-.6,2.1-.6667,4.45-1.6,7.05-2.8.7333-.3333,2.1833-1,4.35-2,.2-.2.3833-.3667.55-.5.5667-.5,1.3-1.45,2.2-2.85.4-.6333.8167-1.3167,1.25-2.05-1.4.9333-4.1167,2.2333-8.15,3.9-4.0333,1.6-6.3667,2.5167-7,2.75m-3.45-13.15c-.6667.8333-1.2667,1.6833-1.8,2.55.0667.9667.25,2.45.55,4.45.2333,1.6667.4333,3.1667.6,4.5.5333-.7667,1.0667-1.5,1.6-2.2-.5333-3-.85-5.9667-.95-8.9v-.4m22.05-13c-.3667.4-.75.85-1.15,1.35-.0333.0667-.0667.1333-.1.2-.0333,0-.0667.0167-.1.05v.05c-.0333,0-.05.0333-.05.1h-.1v.05c-.3667.4-.8167.7667-1.35,1.1-.2333.1333-.3833.15-.45.05-.0667-.0333-.1-.1333-.1-.3l-.05-.35c-.0333-.3333-.0333-.6833,0-1.05l.05-.2c-.3333.0667-.8167.2167-1.45.45-.3333.1333-.6667.25-1,.35-.4333.1667-.8333.3167-1.2.45-2.2.8667-4.4833,2.15-6.85,3.85-.7667.5667-1.6333,1.2333-2.6,2-.1333,1.8333-.2667,3.9333-.4,6.3-.0667,1.1667-.0833,2.1167-.05,2.85,1.8333-2.0667,3.7333-3.95,5.7-5.65.1333-.1667.2833-.3167.45-.45.7-.6667,1.3833-1.2833,2.05-1.85.2333-.2333.4667-.4333.7-.6l1-.65c1.7667-1.2333,3.0833-1.8333,3.95-1.8-.1.7-.8833,1.8-2.35,3.3l-.3.4c-1,1.2-1.8167,2.1667-2.45,2.9-.6667.7333-1.2833,1.4667-1.85,2.2-.3333.3333-.65.6833-.95,1.05-1.1333,1.2333-2.1833,2.45-3.15,3.65,3.0333-1.2,5.8833-2.5,8.55-3.9,2.9333-1.5,5.4-3,7.4-4.5.2333-.5.5-1.0167.8-1.55.6667-1.2333,1.3333-2.35,2-3.35.5-.8333,1.0667-1.7667,1.7-2.8l1.5-2.05c1.0667-1.3333,2.15-2.6,3.25-3.8-2.4667.3333-5.5167.8667-9.15,1.6-.7.1667-1.3333.35-1.9.55Z" fill="#9335cb"/></g></svg>