<?xml version="1.0" encoding="UTF-8" standalone="no"?>
<svg
   id="Layer_1"
   data-name="Layer 1"
   width="80"
   height="80"
   viewBox="0 0 80 80"
   version="1.1"
   sodipodi:docname="quickstock-icon.svg"
   inkscape:export-filename="C:\Users\Administrator\Documents\GitHub\Neopets-Shop-And-Attic-Autobuyer-Cracked\Autobuyer\icons\quickstock-icon.png"
   inkscape:export-xdpi="1200"
   inkscape:export-ydpi="1200"
   inkscape:version="1.1.1 (3bf5ae0d25, 2021-09-20)"
   xmlns:inkscape="http://www.inkscape.org/namespaces/inkscape"
   xmlns:sodipodi="http://sodipodi.sourceforge.net/DTD/sodipodi-0.dtd"
   xmlns="http://www.w3.org/2000/svg"
   xmlns:svg="http://www.w3.org/2000/svg"
   xmlns:rdf="http://www.w3.org/1999/02/22-rdf-syntax-ns#"
   xmlns:cc="http://creativecommons.org/ns#"
   xmlns:dc="http://purl.org/dc/elements/1.1/">
  <defs
     id="defs88" />
  <sodipodi:namedview
     id="namedview86"
     pagecolor="#ffffff"
     bordercolor="#666666"
     borderopacity="1.0"
     inkscape:pageshadow="2"
     inkscape:pageopacity="0.0"
     inkscape:pagecheckerboard="0"
     showgrid="false"
     inkscape:zoom="4.5961941"
     inkscape:cx="24.259202"
     inkscape:cy="38.401337"
     inkscape:window-width="1360"
     inkscape:window-height="705"
     inkscape:window-x="-8"
     inkscape:window-y="-8"
     inkscape:window-maximized="1"
     inkscape:current-layer="QuickStock_Basic_0_Layer4_0_FILL" />
  <title
     id="title2">quickstock-icon</title>
  <g
     id="QuickStock_Basic_0_Layer8_0_FILL"
     data-name="QuickStock Basic 0 Layer8 0 FILL"
     style="display:inline">
    <path
       d="m 1.7,11.3 v -0.1 a 0.2708,0.2708 0 0 1 0,0.1 m 11.4,6.65 V 18 a 0.7273,0.7273 0 0 0 0.1,0.4 0.4892,0.4892 0 0 0 0.1,0.1 l 0.25,0.1 -0.45,-0.65 m -8.85,-3.5 a 0.4213,0.4213 0 0 0 0.2,0.05 Q 3.9652,14.2206 4.1,14.35 q 0.0626,0.0609 0.1,0.1 a 0.0717,0.0717 0 0 0 0.05,0 M 4.1,14.4 4.15,14.45 H 4.2 L 4.1,14.4 M 4.35,5.25 4.75,4.6 Q 4.6051,4.6761 4.45,4.75 a 1.1012,1.1012 0 0 0 -0.1,0.5 m 0.8,-0.8 H 4.9 A 0.1507,0.1507 0 0 1 4.8,4.5 L 5.15,4.45 M 8.6,4.3 8.95,4.5 8.9,4.45 A 0.4327,0.4327 0 0 0 8.8,4.4 Q 8.674,4.3355 8.6,4.3 M 27.8,2.35 A 1.3481,1.3481 0 0 0 27.55,2.45 5.685,5.685 0 0 0 25.1,5.1 q 0.0123,0.0506 0,0.05 a 5.9543,5.9543 0 0 0 -0.35,3.5 V 8.7 a 0.4867,0.4867 0 0 0 0.05,0.2 4.3335,4.3335 0 0 0 1.3,2.05 L 26.05,10.9 a 2.652,2.652 0 0 0 0.5,0.4 0.5689,0.5689 0 0 0 0.25,0.2 0.8622,0.8622 0 0 0 0.5,0.15 l 7.4,3.3 -10.85,0.25 A 10.9649,10.9649 0 0 0 17.9,9.35 Q 17.5,9.2 17.15,9.05 8.85,5.15 8.45,5.05 L 8.4,5 A 3.5329,3.5329 0 0 0 5.15,5.2 0.0442,0.0442 0 0 0 5.1,5.25 5.4928,5.4928 0 0 0 2.75,7.8 5.3545,5.3545 0 0 0 2.45,11.15 v 0.05 a 3.9147,3.9147 0 0 0 1.15,1.95 4.7655,4.7655 0 0 0 0.6,0.5 l 0.05,0.05 a 0.4442,0.4442 0 0 1 0.2,0.05 0.288,0.288 0 0 1 0.2,0.1 l 9.2,4.1 V 18 a 5.2729,5.2729 0 0 1 2.75,3.25 2.3667,2.3667 0 0 0 -0.25,0.2 0.8075,0.8075 0 0 0 -0.15,0.5 l -0.05,0.05 0.7,-0.15 q 0.0291,0.0883 0.05,0.15 l 0.05,-0.05 v 0.1 l -0.75,0.1 0.1,0.3 a 1.1064,1.1064 0 0 0 0.2,0.2 0.7411,0.7411 0 0 0 0.5,0.1 0.3645,0.3645 0 0 0 0.15,-0.05 l 3.5,12.35 -4.25,2.45 A 1.2744,1.2744 0 0 0 15.8,38.15 1.4663,1.4663 0 0 0 15.75,39 l 4.7,17.75 a 8.8275,8.8275 0 0 0 -2.65,3.1 13.3859,13.3859 0 0 0 -1.4,7.9 13.0227,13.0227 0 0 0 2.85,7.55 q 2.75,3.45 6.2,3.1 a 0.3847,0.3847 0 0 1 0.15,-0.05 0.4442,0.4442 0 0 0 0.2,-0.05 l 4.7,-0.35 A 0.4442,0.4442 0 0 0 30.7,77.9 Q 34,77.5 36.05,73.8 V 73.7 A 11.3655,11.3655 0 0 0 37.1,71 l 11.3,-1.1 a 11.07,11.07 0 0 0 1.35,2.05 q 2.55,3.05 5.6,2.8 a 0.4442,0.4442 0 0 1 0.2,-0.05 0.29,0.29 0 0 1 0.2,-0.05 l 4.1,-0.3 0.2,-0.1 a 6.2542,6.2542 0 0 0 4.7,-3.5 0.1442,0.1442 0 0 1 0.05,-0.1 12.6237,12.6237 0 0 0 1.4,-7.15 q -0.016,-0.1617 -0.05,-0.35 l 6.25,-3.5 0.2,-0.1 0.45,-0.3 h 0.05 l 4.55,-2.65 a 1.6337,1.6337 0 0 0 0.6,-0.65 1.0728,1.0728 0 0 0 0.05,-0.85 1.5629,1.5629 0 0 0 -0.55,-0.7 1.3415,1.3415 0 0 0 -0.8,-0.25 l -4,0.2 -8.25,-27 A 1.5225,1.5225 0 0 0 64.25,26.7 1.1944,1.1944 0 0 0 63.45,26.4 L 50.25,26 A 0.5721,0.5721 0 0 0 50.2,25.75 Q 48.375,19.6248 46.4,13.5 46.4141,13.4875 46.4,13.45 44.478,8.0014 39.95,6.2 A 3.4263,3.4263 0 0 0 39.3,5.9 q -0.0118,0.01 -0.05,0 A 0.2733,0.2733 0 0 1 39.2,5.85 Q 31.9623,2.48 31.35,2.2 v 0 A 0.5694,0.5694 0 0 0 31.25,2.15 H 31.2 A 0.1786,0.1786 0 0 0 31.15,2.1 H 31.1 A 3.8314,3.8314 0 0 0 27.8,2.35 M 43.1,22.7 43.15,22.4 A 17.4519,17.4519 0 0 0 41.2,16 l -0.35,-0.4 a 2.9256,2.9256 0 0 0 -0.65,-0.2 5.1875,5.1875 0 0 1 -2.1,-0.45 13.5869,13.5869 0 0 0 -1.2,-0.9 q -1.05,-0.8 -1.1,-0.85 a 1.8961,1.8961 0 0 1 -0.4,-1.3 5.2621,5.2621 0 0 1 0.3,-1.4 L 36.05,9.7 36.2,9.5 a 0.7525,0.7525 0 0 1 -0.15,-0.35 1.6446,1.6446 0 0 1 -0.45,0.3 0.7977,0.7977 0 0 1 -0.35,0 1.5559,1.5559 0 0 1 0.15,0.4 v 0.65 l -0.15,1.25 A 1.8994,1.8994 0 0 1 35.05,12.5 1.1789,1.1789 0 0 1 34,13.25 2.8924,2.8924 0 0 1 32.55,12.65 19.0409,19.0409 0 0 0 30.4,11.55 L 29.6,11.2 27.25,9.45 A 2.1956,2.1956 0 0 1 26.55,8.75 2.3578,2.3578 0 0 1 26.35,7.7 3.826,3.826 0 0 1 26.5,6.45 1.1471,1.1471 0 0 1 27.4,5.65 0.6325,0.6325 0 0 1 27.4,5.3 1.97,1.97 0 0 1 28,4.45 4.87,4.87 0 0 1 29.15,3.8 2.2787,2.2787 0 0 1 30.25,4 L 36,6.75 a 1.5568,1.5568 0 0 1 0.55,0.4 0.98,0.98 0 0 1 0.2,0.9 V 8.1 A 1.2254,1.2254 0 0 1 37,8 4.6909,4.6909 0 0 1 40.25,8.55 9.9759,9.9759 0 0 1 44.4,13.1 29.45,29.45 0 0 1 46.35,19 q 1.25,4.75 1.95,6.75 a 1.9677,1.9677 0 0 1 0.15,1.05 1.0361,1.0361 0 0 1 -0.25,0.4 q 0.4621,0.0194 0.8,0.05 l 1.9,0.25 q 1.2,0.15 5.6,0.4 l 5.2,0.2 a 2.47,2.47 0 0 1 1.2,0.25 2.3539,2.3539 0 0 1 0.65,0.75 5.8119,5.8119 0 0 1 0.55,1.4 q 0.6,1.7 1.05,3.35 l 0.45,2.05 q 0.8,3.3 2.65,9.15 l 2.5,8 a 4.7611,4.7611 0 0 1 0.3,1.35 1.1878,1.1878 0 0 1 -0.65,1.2 1.4677,1.4677 0 0 1 -0.8,0.1 Q 69.05,55.65 68.75,55.6 A 7.89,7.89 0 0 0 67,55.8 42.733,42.733 0 0 1 60.1,56.25 q -5.8,-0.05 -7,0 a 28.28,28.28 0 0 0 -4.8,0.55 3.9733,3.9733 0 0 1 -2.1,-0.1 2.0971,2.0971 0 0 1 -0.65,-0.7 2.501,2.501 0 0 1 0.1,0.35 1.7636,1.7636 0 0 1 -0.3,1 3.9265,3.9265 0 0 1 -1.15,0.75 q -2.35,1.2 -3,1.55 a 9.9817,9.9817 0 0 0 -2.3,1.55 q -0.25,0.25 -0.75,0.7 a 1.3044,1.3044 0 0 1 -0.95,0.35 1.2314,1.2314 0 0 1 -1,-0.5 A 3.7905,3.7905 0 0 1 35.55,60.8 15.2331,15.2331 0 0 0 33.5,57.85 5.84,5.84 0 0 0 30.45,56 7.163,7.163 0 0 0 29.05,55.85 27.41,27.41 0 0 0 24.1,56 2.4413,2.4413 0 0 1 22.5,55.9 2.8249,2.8249 0 0 1 21.3,53.95 L 17.8,40.5 a 2.1285,2.1285 0 0 1 -0.05,-1.5 2.9238,2.9238 0 0 1 0.8,-0.9 l 1.9,-1.45 a 1.9694,1.9694 0 0 1 1.8,-0.6 q 0.55,0.2 0.95,1.35 a 1.0235,1.0235 0 0 1 0.05,0.25 q -0.0723,-0.4618 -0.1,-0.85 a 1.4868,1.4868 0 0 1 0.1,-0.95 3.1428,3.1428 0 0 1 0.85,-0.85 36.6408,36.6408 0 0 1 5.25,-2.95 1.163,1.163 0 0 1 0.7,-0.15 0.8577,0.8577 0 0 1 0.4,0.25 1.7462,1.7462 0 0 1 0.05,-0.4 1.9121,1.9121 0 0 1 0.9,-0.9 l 0.9,-0.45 0.3,-0.25 0.2,-0.35 a 2.8393,2.8393 0 0 1 1.6,-1.4 2.3038,2.3038 0 0 1 2.1,-0.3 2.8037,2.8037 0 0 1 0.85,1.3 q 0.4823,1.3 0.95,3 a 2.3449,2.3449 0 0 1 0.3,0.65 q 0.9,2.6 1.95,6.15 l 3.9,14.35 a 0.28,0.28 0 0 1 0,0.1 l 0.7,1.45 a 0.5453,0.5453 0 0 1 0.05,0.15 L 42.15,43.15 Q 39.5,33.25 38.05,29.2 a 1.96,1.96 0 0 1 -0.2,-1.45 0.895,0.895 0 0 1 0.5,-0.6 A 1.18,1.18 0 0 1 39.1,27 l 0.6,0.2 a 5.5066,5.5066 0 0 0 0.85,0.05 l 5.1,-0.1 h 0.9 a 2.1778,2.1778 0 0 1 -0.3,-0.3 2.08,2.08 0 0 1 -0.25,-0.3 1.224,1.224 0 0 1 -0.5,0.1 L 43.9,26.7 A 2.2106,2.2106 0 0 1 42.55,26.2 3.9175,3.9175 0 0 1 42,25.1 4.5277,4.5277 0 0 1 41.85,23.75 1.1484,1.1484 0 0 1 42.7,22.8 0.579,0.579 0 0 0 43.1,22.7 M 25.05,20.8 A 16.4814,16.4814 0 0 1 23.9,17.85 q -0.2,-0.75 0.25,-1 l 0.45,-0.1 0.55,-0.25 a 5.7558,5.7558 0 0 1 1.9,-0.35 L 34.5,15.9 a 51.1266,51.1266 0 0 1 5.3,0.05 2.7686,2.7686 0 0 1 1.1,0.3 2.0708,2.0708 0 0 1 0.85,1.3 q 0.35,1 0.9,2.95 a 1.7568,1.7568 0 0 1 0.1,1.4 q -0.2,0.45 -1.15,0.55 -4.4,0.65 -13.7,1.65 a 4.5264,4.5264 0 0 1 -0.95,0 1.8428,1.8428 0 0 1 -1.35,-1.35 q -0.35,-1.3 -0.55,-1.95 m -2.5,-5.05 a 9.8141,9.8141 0 0 1 0.75,1.9 l 3.15,10.05 a 17.8757,17.8757 0 0 1 0.7,2.95 6.8673,6.8673 0 0 1 0.2,1.35 0.84,0.84 0 0 1 -0.05,0.65 0.7439,0.7439 0 0 1 -0.7,0.6 0.8166,0.8166 0 0 1 -0.85,-0.35 1.118,1.118 0 0 1 -0.15,-0.2 0.4959,0.4959 0 0 1 -0.05,0.2 2.0067,2.0067 0 0 1 -0.65,0.65 l -1,0.7 a 2.51,2.51 0 0 1 -1,0.45 1.251,1.251 0 0 1 -1.15,-0.75 2.6778,2.6778 0 0 1 -0.45,-1.35 l -2.05,-9.65 -2,-3.85 A 6.2537,6.2537 0 0 0 15.2,16.85 7.3283,7.3283 0 0 1 14.3,16.5 1.3462,1.3462 0 0 1 13.55,15.95 2.5165,2.5165 0 0 1 13.3,14.6 q 0.15,-1.1 0.2,-1.35 a 1.3607,1.3607 0 0 1 0.8,-1 V 12.2 a 0.9784,0.9784 0 0 1 -0.05,-0.35 0.9593,0.9593 0 0 1 0.3,-0.7 2.5482,2.5482 0 0 1 1.4,-0.45 2.95,2.95 0 0 1 1.1,0 2.086,2.086 0 0 1 0.95,0.4 11.6843,11.6843 0 0 1 4.1,3.8 l 0.45,0.85 m 14.9,9.9 a 1.1461,1.1461 0 0 0 -0.9,0.3 l -7.85,4.5 q -0.7633,-2.658 -1.55,-5.3 L 39.5,23.8 a 1.0381,1.0381 0 0 1 0,0.15 l 0.55,1.75 -2.6,-0.05 m -24.4,-13.9 a 0.4442,0.4442 0 0 1 -0.2,0 2.7149,2.7149 0 0 1 0.3,0.3 0.7336,0.7336 0 0 1 0.2,0.7 l -0.2,0.6 a 6.2028,6.2028 0 0 0 -0.2,1.5 q -0.2,0.95 -0.85,1.1 a 1.7343,1.7343 0 0 1 -1,-0.15 L 5.25,12.85 A 5.7781,5.7781 0 0 1 4,11.95 2.6141,2.6141 0 0 1 3.25,10.6 3.592,3.592 0 0 1 3.35,9.2 1.5564,1.5564 0 0 1 3.7,8.35 0.8975,0.8975 0 0 1 4.6,8.15 2.433,2.433 0 0 1 4.85,8.2 0.8034,0.8034 0 0 1 4.8,7.9 1.19,1.19 0 0 1 5.6,6.7 4.3167,4.3167 0 0 1 7.15,6.45 6.4166,6.4166 0 0 1 8.1,6.5 l 1,0.35 4.6,2.2 a 2.0765,2.0765 0 0 1 0.65,0.45 1.295,1.295 0 0 1 0.2,0.8 2.7728,2.7728 0 0 1 -0.55,0.65 l -0.25,0.35 a 0.9721,0.9721 0 0 1 -0.7,0.45 m 22.3,49.95 0.5,1.75 a 17.4769,17.4769 0 0 1 0.5,5.5 4.6632,4.6632 0 0 1 -0.3,1.35 10.2057,10.2057 0 0 1 -1.15,3.1 5.0088,5.0088 0 0 1 -2.4,2.25 l -2.1,0.6 A 5.293,5.293 0 0 1 29.3,76.5 1.0825,1.0825 0 0 1 28.3,76.2 1.1424,1.1424 0 0 1 28,75 q 0.0258,-0.1293 0.05,-0.3 A 4.5278,4.5278 0 0 1 24.1,76.2 3.5857,3.5857 0 0 1 22.65,75.7 L 21.7,75 A 8.4093,8.4093 0 0 1 20.05,72.95 15.0756,15.0756 0 0 1 18.1,64.9 6.3869,6.3869 0 0 1 18.2,63.6 l 0.35,-1.25 a 14.9425,14.9425 0 0 1 1.3,-3.05 4.0892,4.0892 0 0 1 1.5,-1.45 7.63,7.63 0 0 1 1.45,-0.45 4.6692,4.6692 0 0 1 2.1,-0.1 4.48,4.48 0 0 1 1.25,0.55 v 0 a 0.87,0.87 0 0 0 0,-0.15 1.2719,1.2719 0 0 1 0.35,-1.05 1.9791,1.9791 0 0 1 1.35,-0.4 6.9029,6.9029 0 0 1 4.65,1.45 8.5784,8.5784 0 0 1 2.85,4 m 2.45,1 a 21.7014,21.7014 0 0 1 3.5,-2 l 4.95,-2.45 a 8.8681,8.8681 0 0 1 1.5,-0.65 13.6883,13.6883 0 0 1 3.4,-0.6 l 13.45,-0.45 0.95,0.15 a 3.78,3.78 0 0 0 1.25,-0.15 l 4.7,-0.25 q 0.75,0.1 0.85,0.3 a 0.5962,0.5962 0 0 1 -0.15,0.8 3.4164,3.4164 0 0 1 -0.8,0.45 12.2158,12.2158 0 0 1 -1.75,1 6.3682,6.3682 0 0 1 -1.65,0.4 0.2119,0.2119 0 0 1 0.05,0.05 q 0.35,0.4 -0.1,0.85 a 2.3472,2.3472 0 0 1 -0.8,0.5 q -3.95,1.7 -11.45,5.9 a 11.5326,11.5326 0 0 1 -1.7,0.8 11.4167,11.4167 0 0 1 -2.45,0.3 q -2.7,0.1 -6.8,0.65 Q 38.5,69.15 38,69.2 A 1.4976,1.4976 0 0 1 36.8,69 1.2747,1.2747 0 0 1 36.55,67.85 4.7812,4.7812 0 0 1 36.7,66.45 1.1975,1.1975 0 0 1 37,65.8 1.49,1.49 0 0 1 36.65,65 a 4.0665,4.0665 0 0 1 0,-0.9 2.858,2.858 0 0 1 1.15,-1.4 m 26.35,0.15 a 1.6014,1.6014 0 0 1 1.15,0.85 2.2531,2.2531 0 0 1 0.25,1.4 8.0414,8.0414 0 0 1 -0.7,2.65 8.6186,8.6186 0 0 1 -2.55,3.8 10.8738,10.8738 0 0 1 -2.4,1.2 3.8611,3.8611 0 0 1 -1.25,0.3 1.0089,1.0089 0 0 1 -1.1,-0.5 1.0878,1.0878 0 0 1 -0.2,-0.65 2.8262,2.8262 0 0 1 -1.3,0.85 l -1.1,0.15 A 7.4249,7.4249 0 0 1 53.5,72.8 4.4312,4.4312 0 0 1 52,71.95 10.4807,10.4807 0 0 1 50.9,70.6 1.9432,1.9432 0 0 1 50.45,69.9 0.9745,0.9745 0 0 1 50.4,69.1 1.24,1.24 0 0 1 51.2,68.45 l 2.65,-0.1 a 7.0165,7.0165 0 0 0 2.15,-0.5 1.7049,1.7049 0 0 0 0.65,-0.45 2.4792,2.4792 0 0 1 0.55,-0.8 4.3863,4.3863 0 0 1 0.65,-0.3 1.9436,1.9436 0 0 1 1.25,0 0.7433,0.7433 0 0 1 0.35,0.3 1.89,1.89 0 0 1 0.35,-0.85 L 60.5,65 62.7,63.45 a 2.8924,2.8924 0 0 1 1.45,-0.6 M 24.3,41.2 q 0.1224,0.5482 0.2,1 0.35,1.5 0.4,1.65 a 3.5157,3.5157 0 0 0 0.8,1.45 q 0.2915,-0.2914 0.6,-0.65 a 0.8637,0.8637 0 0 1 -0.9,-0.1 1.753,1.753 0 0 1 -0.55,-1 Q 24.5506,42.1723 24.3,41.2 Z"
       id="path4"
       style="display:inline;fill:#004455" />
    <path
       d="m 51.2,68.45 a 1.24,1.24 0 0 0 -0.8,0.65 0.9745,0.9745 0 0 0 0.05,0.8 1.9432,1.9432 0 0 0 0.45,0.7 10.4807,10.4807 0 0 0 1.1,1.35 4.4312,4.4312 0 0 0 1.5,0.85 7.4249,7.4249 0 0 0 1.45,0.1 l 1.1,-0.15 a 2.8262,2.8262 0 0 0 1.3,-0.85 1.4515,1.4515 0 0 0 0.15,-0.15 10.8569,10.8569 0 0 0 0.9,-1.55 l 0.3,-0.6 a 4.48,4.48 0 0 0 0.55,-1.25 l 0.3,-1.15 a 0.82,0.82 0 0 0 -0.1,-0.6 0.7433,0.7433 0 0 0 -0.35,-0.3 1.9436,1.9436 0 0 0 -1.25,0 4.3863,4.3863 0 0 0 -0.65,0.3 2.4792,2.4792 0 0 0 -0.55,0.8 1.7049,1.7049 0 0 1 -0.65,0.45 7.0165,7.0165 0 0 1 -2.15,0.5 l -2.65,0.1 M 24.9,57.3 a 4.6692,4.6692 0 0 0 -2.1,0.1 7.63,7.63 0 0 0 -1.45,0.45 4.0892,4.0892 0 0 0 -1.5,1.45 14.9425,14.9425 0 0 0 -1.3,3.05 L 18.2,63.6 a 6.3869,6.3869 0 0 0 -0.1,1.3 15.0756,15.0756 0 0 0 1.95,8.05 8.4093,8.4093 0 0 0 1.65,2.05 l 0.95,0.7 a 3.5857,3.5857 0 0 0 1.45,0.5 4.5278,4.5278 0 0 0 3.95,-1.5 0.7353,0.7353 0 0 0 0.2,-0.15 5.4108,5.4108 0 0 0 1.45,-3.2 q 0.0078,-0.1711 0,-0.35 v -0.05 a 6.4914,6.4914 0 0 0 0.35,-1.3 q 0.1,-0.95 0.15,-1.4 A 22.751,22.751 0 0 0 30.15,65.75 15.9479,15.9479 0 0 0 29.9,63.8 v 0 a 1.5505,1.5505 0 0 0 -0.1,-0.7 8.2338,8.2338 0 0 0 -3.65,-5.25 v 0 A 4.48,4.48 0 0 0 24.9,57.3 Z"
       fill="#757171"
       id="path6"
       style="display:inline;fill:#006680" />
    <path
       d="m 65.3,63.7 a 1.6014,1.6014 0 0 0 -1.15,-0.85 2.8924,2.8924 0 0 0 -1.45,0.6 L 60.5,65 59.8,65.75 a 1.89,1.89 0 0 0 -0.35,0.85 0.82,0.82 0 0 1 0.1,0.6 l -0.3,1.15 A 4.48,4.48 0 0 1 58.7,69.6 l -0.3,0.6 a 10.8569,10.8569 0 0 1 -0.9,1.55 1.4515,1.4515 0 0 1 -0.15,0.15 1.0878,1.0878 0 0 0 0.2,0.65 1.0089,1.0089 0 0 0 1.1,0.5 3.8611,3.8611 0 0 0 1.25,-0.3 10.8738,10.8738 0 0 0 2.4,-1.2 8.6186,8.6186 0 0 0 2.55,-3.8 8.0414,8.0414 0 0 0 0.7,-2.65 2.2531,2.2531 0 0 0 -0.25,-1.4 M 35.85,63.45 35.35,61.7 a 8.5784,8.5784 0 0 0 -2.85,-4 6.9029,6.9029 0 0 0 -4.65,-1.45 1.9791,1.9791 0 0 0 -1.35,0.4 1.2719,1.2719 0 0 0 -0.35,1.05 0.87,0.87 0 0 1 0,0.15 8.2338,8.2338 0 0 1 3.65,5.25 1.5505,1.5505 0 0 1 0.1,0.7 v 0 a 15.9479,15.9479 0 0 1 0.25,1.95 22.751,22.751 0 0 1 0.05,2.5 q -0.05,0.45 -0.15,1.4 a 6.4914,6.4914 0 0 1 -0.35,1.3 V 71 q 0.0078,0.1789 0,0.35 a 5.4108,5.4108 0 0 1 -1.45,3.2 0.7353,0.7353 0 0 1 -0.2,0.15 Q 28.0258,74.8707 28,75 a 1.1424,1.1424 0 0 0 0.3,1.2 1.0825,1.0825 0 0 0 1,0.3 5.293,5.293 0 0 0 1.1,-0.25 l 2.1,-0.6 a 5.0088,5.0088 0 0 0 2.4,-2.25 10.2057,10.2057 0 0 0 1.15,-3.1 4.6632,4.6632 0 0 0 0.3,-1.35 17.4769,17.4769 0 0 0 -0.5,-5.5 z"
       fill="#999999"
       id="path8"
       style="display:inline;fill:#00aad4" />
    <path
       d="m 38.6,65.7 q -0.1008,0.0528 -0.2,0.1 a 1.18,1.18 0 0 0 -0.55,-0.3 0.8782,0.8782 0 0 0 -0.7,0.2 1.353,1.353 0 0 0 -0.15,0.1 1.1975,1.1975 0 0 0 -0.3,0.65 4.7812,4.7812 0 0 0 -0.15,1.4 1.2747,1.2747 0 0 0 0.25,1.15 1.4976,1.4976 0 0 0 1.2,0.2 q 0.5,-0.05 6.75,-0.9 4.1,-0.55 6.8,-0.65 a 11.4167,11.4167 0 0 0 2.45,-0.3 11.5326,11.5326 0 0 0 1.7,-0.8 q 7.5,-4.2 11.45,-5.9 a 2.3472,2.3472 0 0 0 0.8,-0.5 Q 68.4,59.7 68.05,59.3 A 0.2119,0.2119 0 0 0 68,59.25 1.05,1.05 0 0 0 67.05,59.05 l -1.5,0.3 -0.25,0.1 q -2.1214,0.1831 -6.15,0.45 a 78.5853,78.5853 0 0 0 -8.45,0.95 10.6617,10.6617 0 0 0 -2.25,0.5 L 38.6,65.7 M 14.55,12.5 A 0.7519,0.7519 0 0 1 14.3,12.2 v 0.05 a 1.3607,1.3607 0 0 0 -0.8,1 q -0.05,0.25 -0.2,1.35 a 2.5165,2.5165 0 0 0 0.25,1.35 1.3462,1.3462 0 0 0 0.75,0.55 7.3283,7.3283 0 0 0 0.9,0.35 6.2537,6.2537 0 0 1 2.05,2.25 l 2,3.85 2.05,9.65 a 2.6778,2.6778 0 0 0 0.45,1.35 1.251,1.251 0 0 0 1.15,0.75 2.51,2.51 0 0 0 1,-0.45 l 1,-0.7 A 2.0067,2.0067 0 0 0 25.55,32.9 0.4959,0.4959 0 0 0 25.6,32.7 3.4314,3.4314 0 0 1 25.45,32.05 Q 25.2,30.75 24.4,28.15 L 21.65,19 A 10.5515,10.5515 0 0 0 20.6,16.25 8.0841,8.0841 0 0 0 17.4,13 2.5678,2.5678 0 0 0 15.85,12.5 l -0.7,0.1 a 0.819,0.819 0 0 1 -0.6,-0.1 m 29.9,6.15 q -0.4,-1.5574 -0.8,-2.75 -0.3257,-0.7451 -0.55,-1.25 a 16.1943,16.1943 0 0 0 -1,-2.1 8.1776,8.1776 0 0 0 -2.45,-2.1 A 8.1724,8.1724 0 0 0 38.3,9.7 L 37.85,9.85 A 1.4745,1.4745 0 0 1 36.6,9.8 1.5082,1.5082 0 0 1 36.2,9.5 l -0.15,0.2 -0.35,0.8 a 5.2621,5.2621 0 0 0 -0.3,1.4 1.8961,1.8961 0 0 0 0.4,1.3 q 0.05,0.05 1.1,0.85 a 13.5869,13.5869 0 0 1 1.2,0.9 5.1875,5.1875 0 0 0 2.1,0.45 2.9256,2.9256 0 0 1 0.65,0.2 L 41.2,16 a 17.4519,17.4519 0 0 1 1.95,6.4 l -0.05,0.3 a 0.579,0.579 0 0 1 -0.4,0.1 1.1484,1.1484 0 0 0 -0.85,0.95 4.5277,4.5277 0 0 0 0.15,1.35 3.9175,3.9175 0 0 0 0.55,1.1 2.2106,2.2106 0 0 0 1.35,0.5 l 1.6,-0.05 A 1.224,1.224 0 0 0 46,26.55 1.2727,1.2727 0 0 1 45.75,25.5 l 0.2,-0.65 a 2.7551,2.7551 0 0 0 -0.1,-0.9 z"
       fill="#9cb2da"
       id="path10"
       style="display:inline;fill:#00ccff" />
    <path
       d="m 41.3,60.7 a 21.7014,21.7014 0 0 0 -3.5,2 2.858,2.858 0 0 0 -1.15,1.4 4.0665,4.0665 0 0 0 0,0.9 1.49,1.49 0 0 0 0.35,0.8 1.353,1.353 0 0 1 0.15,-0.1 0.8782,0.8782 0 0 1 0.7,-0.2 1.18,1.18 0 0 1 0.55,0.3 q 0.0992,-0.0472 0.2,-0.1 l 9.85,-4.35 a 10.6617,10.6617 0 0 1 2.25,-0.5 78.5853,78.5853 0 0 1 8.45,-0.95 q 4.0286,-0.2668 6.15,-0.45 l 0.25,-0.1 1.5,-0.3 a 1.05,1.05 0 0 1 0.95,0.2 6.3682,6.3682 0 0 0 1.65,-0.4 12.2158,12.2158 0 0 0 1.75,-1 3.4164,3.4164 0 0 0 0.8,-0.45 0.5962,0.5962 0 0 0 0.15,-0.8 q -0.1,-0.2 -0.85,-0.3 l -4.7,0.25 A 3.78,3.78 0 0 1 65.55,56.7 L 64.6,56.55 51.15,57 a 13.6883,13.6883 0 0 0 -3.4,0.6 8.8681,8.8681 0 0 0 -1.5,0.65 L 41.3,60.7 m -18,-43.05 a 9.8141,9.8141 0 0 0 -0.75,-1.9 L 22.1,14.9 a 11.6843,11.6843 0 0 0 -4.1,-3.8 2.086,2.086 0 0 0 -0.95,-0.4 2.95,2.95 0 0 0 -1.1,0 2.5482,2.5482 0 0 0 -1.4,0.45 0.9593,0.9593 0 0 0 -0.3,0.7 0.9784,0.9784 0 0 0 0.05,0.35 0.7519,0.7519 0 0 0 0.25,0.3 0.819,0.819 0 0 0 0.6,0.1 l 0.7,-0.1 a 2.5678,2.5678 0 0 1 1.55,0.5 8.0841,8.0841 0 0 1 3.2,3.25 10.5515,10.5515 0 0 1 1.05,2.75 l 2.75,9.15 q 0.8,2.6 1.05,3.9 a 3.4314,3.4314 0 0 0 0.15,0.65 1.118,1.118 0 0 0 0.15,0.2 0.8166,0.8166 0 0 0 0.85,0.35 0.7439,0.7439 0 0 0 0.7,-0.6 0.84,0.84 0 0 0 0.05,-0.65 6.8673,6.8673 0 0 0 -0.2,-1.35 17.8757,17.8757 0 0 0 -0.7,-2.95 L 23.3,17.65 m 0.6,0.2 a 16.4814,16.4814 0 0 0 1.15,2.95 q 0.2,0.65 0.55,1.95 a 1.8428,1.8428 0 0 0 1.35,1.35 4.5264,4.5264 0 0 0 0.95,0 q 9.3,-1 13.7,-1.65 0.95,-0.1 1.15,-0.55 a 1.7568,1.7568 0 0 0 -0.1,-1.4 q -0.55,-1.95 -0.9,-2.95 a 2.0708,2.0708 0 0 0 -0.85,-1.3 2.7686,2.7686 0 0 0 -1.1,-0.3 51.1266,51.1266 0 0 0 -5.3,-0.05 l -7.45,0.25 a 5.7558,5.7558 0 0 0 -1.9,0.35 l -0.55,0.25 -0.45,0.1 q -0.45,0.25 -0.25,1 M 43.65,15.9 q 0.4,1.1926 0.8,2.75 l 1.4,5.3 a 2.7551,2.7551 0 0 1 0.1,0.9 l -0.2,0.65 a 1.2727,1.2727 0 0 0 0.25,1.05 2.08,2.08 0 0 0 0.25,0.3 2.1778,2.1778 0 0 0 0.3,0.3 q 0.9659,0.0129 1.65,0.05 A 1.0361,1.0361 0 0 0 48.45,26.8 1.9677,1.9677 0 0 0 48.3,25.75 Q 47.6,23.75 46.35,19 A 29.45,29.45 0 0 0 44.4,13.1 9.9759,9.9759 0 0 0 40.25,8.55 4.6909,4.6909 0 0 0 37,8 1.2254,1.2254 0 0 0 36.75,8.1 3.2828,3.2828 0 0 1 36.3,8.95 1.3224,1.3224 0 0 1 36.05,9.15 0.7525,0.7525 0 0 0 36.2,9.5 1.5082,1.5082 0 0 0 36.6,9.8 1.4745,1.4745 0 0 0 37.85,9.85 L 38.3,9.7 a 8.1724,8.1724 0 0 1 1.35,0.75 8.1776,8.1776 0 0 1 2.45,2.1 16.1943,16.1943 0 0 1 1,2.1 q 0.2244,0.5049 0.55,1.25 z"
       fill="#c3d4f6"
       id="path12"
       style="display:inline;fill:#afdde9" />
    <path
       d="m 12.85,11.75 a 1.8381,1.8381 0 0 0 -0.4,-0.15 0.3978,0.3978 0 0 0 -0.1,0 L 12.3,11.55 A 2.2744,2.2744 0 0 1 12.15,11.3 L 7.8,9.6 Q 6.85,9.2 6.35,8.95 5.9872,8.7322 5.65,8.55 v 0 a 0.2476,0.2476 0 0 1 -0.1,0 A 0.4627,0.4627 0 0 1 5.45,8.5 3.8077,3.8077 0 0 0 4.85,8.2 2.433,2.433 0 0 0 4.6,8.15 0.8975,0.8975 0 0 0 3.7,8.35 1.5564,1.5564 0 0 0 3.35,9.2 3.592,3.592 0 0 0 3.25,10.6 2.6141,2.6141 0 0 0 4,11.95 a 5.7781,5.7781 0 0 0 1.25,0.9 l 5.85,2.95 a 1.7343,1.7343 0 0 0 1,0.15 q 0.65,-0.15 0.85,-1.1 a 6.2028,6.2028 0 0 1 0.2,-1.5 l 0.2,-0.6 a 0.7336,0.7336 0 0 0 -0.2,-0.7 2.7149,2.7149 0 0 0 -0.3,-0.3 M 35.4,9.85 a 1.5559,1.5559 0 0 0 -0.15,-0.4 0.9088,0.9088 0 0 0 -0.9,-0.5 H 34.3 A 2.6112,2.6112 0 0 1 34.15,8.6 L 30.45,7.1 A 8.3849,8.3849 0 0 1 29.15,6.5 Q 28.7983,6.3124 28.5,6.15 v 0 A 0.2275,0.2275 0 0 1 28.45,6.1 1.65,1.65 0 0 0 27.45,5.65 H 27.4 a 1.1471,1.1471 0 0 0 -0.9,0.8 3.826,3.826 0 0 0 -0.15,1.25 2.3578,2.3578 0 0 0 0.2,1.05 2.1956,2.1956 0 0 0 0.7,0.7 l 2.35,1.75 0.8,0.35 a 19.0409,19.0409 0 0 1 2.15,1.1 2.8924,2.8924 0 0 0 1.45,0.6 1.1789,1.1789 0 0 0 1.05,-0.75 1.8994,1.8994 0 0 0 0.2,-0.75 L 35.4,10.5 Z"
       fill="#992300"
       id="path14"
       style="display:inline;fill:#006680" />
    <path
       d="m 12.85,11.75 a 0.4442,0.4442 0 0 0 0.2,0 0.9721,0.9721 0 0 0 0.7,-0.45 L 14,10.95 A 2.7728,2.7728 0 0 0 14.55,10.3 1.295,1.295 0 0 0 14.35,9.5 2.0765,2.0765 0 0 0 13.7,9.05 L 9.1,6.85 8.1,6.5 A 6.4166,6.4166 0 0 0 7.15,6.45 4.3167,4.3167 0 0 0 5.6,6.7 1.19,1.19 0 0 0 4.8,7.9 a 0.8034,0.8034 0 0 0 0.05,0.3 3.8077,3.8077 0 0 1 0.6,0.3 0.4627,0.4627 0 0 0 0.1,0.05 0.2476,0.2476 0 0 0 0.1,0 v 0 q 0.337,0.1822 0.7,0.4 0.5,0.25 1.45,0.65 l 4.35,1.7 a 2.2744,2.2744 0 0 0 0.15,0.25 l 0.05,0.05 a 0.3978,0.3978 0 0 1 0.1,0 1.8381,1.8381 0 0 1 0.4,0.15 M 36.75,8.1 V 8.05 A 0.98,0.98 0 0 0 36.55,7.15 1.5568,1.5568 0 0 0 36,6.75 L 30.25,4 A 2.2787,2.2787 0 0 0 29.15,3.8 4.87,4.87 0 0 0 28,4.45 1.97,1.97 0 0 0 27.4,5.3 a 0.6325,0.6325 0 0 0 0,0.35 h 0.05 a 1.65,1.65 0 0 1 1,0.45 0.2275,0.2275 0 0 0 0.05,0.05 v 0 q 0.2982,0.1623 0.65,0.35 a 8.3849,8.3849 0 0 0 1.3,0.6 l 3.7,1.5 a 2.6112,2.6112 0 0 0 0.15,0.35 h 0.05 a 0.9088,0.9088 0 0 1 0.9,0.5 0.7977,0.7977 0 0 0 0.35,0 1.6446,1.6446 0 0 0 0.45,-0.3 1.3224,1.3224 0 0 0 0.25,-0.2 3.2828,3.2828 0 0 0 0.45,-0.85 z"
       fill="#cc3305"
       id="path16"
       style="display:inline;fill:#2ad4ff" />
    <path
       d="m 30.45,32.15 a 0.8577,0.8577 0 0 0 -0.4,-0.25 1.163,1.163 0 0 0 -0.7,0.15 36.6408,36.6408 0 0 0 -5.25,2.95 3.1428,3.1428 0 0 0 -0.85,0.85 1.4868,1.4868 0 0 0 -0.1,0.95 q 0.0278,0.3881 0.1,0.85 0.5209,1.52 0.8,2.7 l 0.1,0.25 a 0.518,0.518 0 0 1 0,0.15 0.28,0.28 0 0 1 0.05,0.1 l 0.1,0.35 q 0.2506,0.9723 0.55,2.35 a 1.753,1.753 0 0 0 0.55,1 0.8637,0.8637 0 0 0 0.9,0.1 22.86,22.86 0 0 0 1.55,-1.95 7.3608,7.3608 0 0 1 0.8,-0.85 3.1526,3.1526 0 0 1 1.75,-0.2 L 33.35,42 q -1.4,-5.4 -2.7,-9.2 a 4.5612,4.5612 0 0 1 -0.2,-0.65 z"
       fill="#b49b85"
       id="path18"
       style="display:inline" />
    <path
       d="m 22.25,36.05 a 1.9694,1.9694 0 0 0 -1.8,0.6 l -1.9,1.45 a 2.9238,2.9238 0 0 0 -0.8,0.9 2.1285,2.1285 0 0 0 0.05,1.5 l 3.5,13.45 a 2.8249,2.8249 0 0 0 1.2,1.95 2.4413,2.4413 0 0 0 1.6,0.1 27.41,27.41 0 0 1 4.95,-0.15 7.163,7.163 0 0 1 1.4,0.15 5.84,5.84 0 0 1 3.05,1.85 15.2331,15.2331 0 0 1 2.05,2.95 3.7905,3.7905 0 0 0 0.65,0.95 1.2314,1.2314 0 0 0 1,0.5 1.3044,1.3044 0 0 0 0.95,-0.35 q 0.5,-0.45 0.75,-0.7 a 9.9817,9.9817 0 0 1 2.3,-1.55 q 0.65,-0.35 3,-1.55 a 3.9265,3.9265 0 0 0 1.15,-0.75 1.7636,1.7636 0 0 0 0.3,-1 A 2.501,2.501 0 0 0 45.55,56 Q 45.4491,55.7428 45.2,55.25 A 0.5453,0.5453 0 0 0 45.15,55.1 l -0.7,-1.45 a 0.28,0.28 0 0 0 0,-0.1 L 40.55,39.2 Q 39.5,35.65 38.6,33.05 A 2.3449,2.3449 0 0 0 38.3,32.4 q -0.4677,-1.7 -0.95,-3 a 2.8037,2.8037 0 0 0 -0.85,-1.3 2.3038,2.3038 0 0 0 -2.1,0.3 2.8393,2.8393 0 0 0 -1.6,1.4 l -0.2,0.35 -0.3,0.25 -0.9,0.45 a 1.9121,1.9121 0 0 0 -0.9,0.9 1.7462,1.7462 0 0 0 -0.05,0.4 4.5612,4.5612 0 0 0 0.2,0.65 q 1.3,3.8 2.7,9.2 L 30.4,41.65 a 3.1526,3.1526 0 0 0 -1.75,0.2 7.3608,7.3608 0 0 0 -0.8,0.85 22.86,22.86 0 0 1 -1.55,1.95 q -0.3086,0.3587 -0.6,0.65 a 3.5157,3.5157 0 0 1 -0.8,-1.45 q -0.05,-0.15 -0.4,-1.65 -0.0776,-0.4518 -0.2,-1 l -0.1,-0.35 a 0.28,0.28 0 0 0 -0.05,-0.1 0.518,0.518 0 0 0 0,-0.15 l -0.1,-0.25 q -0.2791,-1.18 -0.8,-2.7 A 1.0235,1.0235 0 0 0 23.2,37.4 q -0.4,-1.15 -0.95,-1.35 z"
       fill="#805632"
       id="path20"
       style="display:inline" />
    <path
       d="m 46.55,27.15 h -0.9 l -5.1,0.1 A 5.5066,5.5066 0 0 1 39.7,27.2 L 39.1,27 a 1.18,1.18 0 0 0 -0.75,0.15 0.895,0.895 0 0 0 -0.5,0.6 1.96,1.96 0 0 0 0.2,1.45 q 1.45,4.05 4.1,13.95 l 3.05,12.1 q 0.249,0.4928 0.35,0.75 a 2.0971,2.0971 0 0 0 0.65,0.7 3.9733,3.9733 0 0 0 2.1,0.1 28.28,28.28 0 0 1 4.8,-0.55 q 1.2,-0.05 7,0 A 42.733,42.733 0 0 0 67,55.8 7.89,7.89 0 0 1 68.75,55.6 q 0.3,0.05 0.85,0.1 a 1.4677,1.4677 0 0 0 0.8,-0.1 1.1878,1.1878 0 0 0 0.65,-1.2 4.7611,4.7611 0 0 0 -0.3,-1.35 l -2.5,-8 Q 66.4,39.2 65.6,35.9 L 65.15,33.85 Q 64.7,32.2 64.1,30.5 A 5.8119,5.8119 0 0 0 63.55,29.1 2.3539,2.3539 0 0 0 62.9,28.35 2.47,2.47 0 0 0 61.7,28.1 L 56.5,27.9 Q 52.1,27.65 50.9,27.5 L 49,27.25 Q 48.6621,27.2194 48.2,27.2 47.5158,27.163 46.55,27.15 Z"
       fill="#b07d50"
       id="path22"
       style="display:inline" />
  </g>
  <g
     id="QuickStock_Basic_0_Layer7_0_FILL"
     data-name="QuickStock Basic 0 Layer7 0 FILL"
     style="display:inline">
    <path
       d="M 27.8,2.35 A 1.3481,1.3481 0 0 0 27.55,2.45 5.685,5.685 0 0 0 25.1,5.1 q 0.0123,0.0506 0,0.05 a 5.9543,5.9543 0 0 0 -0.35,3.5 V 8.7 a 0.4867,0.4867 0 0 0 0.05,0.2 4.3335,4.3335 0 0 0 1.3,2.05 L 26.05,10.9 a 2.652,2.652 0 0 0 0.5,0.4 0.5689,0.5689 0 0 0 0.25,0.2 0.8622,0.8622 0 0 0 0.5,0.15 l 8.2,3.65 a 0.4411,0.4411 0 0 0 0.15,0.1 5.7179,5.7179 0 0 1 2.4,3.35 l 6.3,22.05 h 0.05 a 2.7946,2.7946 0 0 0 0.3,0.7 0.67,0.67 0 0 0 0.3,0.3 4.104,4.104 0 0 0 0.6,0.25 q 0.0518,0.0137 0.05,0 A 1.309,1.309 0 0 0 46.55,42 v 0 l 5.75,-1.75 q 0.05,0.0123 0.05,0 a 2.0112,2.0112 0 0 0 1,-0.8 0.3961,0.3961 0 0 0 0.1,-0.25 2.211,2.211 0 0 0 0.1,-1 0.44,0.44 0 0 0 -0.05,-0.1 Q 52.0752,32.3624 50.45,26.65 48.525,20.0373 46.4,13.5 46.4141,13.4875 46.4,13.45 44.478,8.0014 39.95,6.2 A 3.4263,3.4263 0 0 0 39.3,5.9 q -0.0118,0.01 -0.05,0 A 0.2733,0.2733 0 0 1 39.2,5.85 Q 31.9623,2.48 31.35,2.2 v 0 A 0.5694,0.5694 0 0 0 31.25,2.15 H 31.2 A 0.1786,0.1786 0 0 0 31.15,2.1 H 31.1 A 3.8314,3.8314 0 0 0 27.8,2.35 M 50.55,37.8 48.9,38.35 46.75,39 40.7,17.9 v -0.1 q -1.4,-4 -4,-4.9 h 0.05 l -0.4,-0.15 A 2.9435,2.9435 0 0 1 36.05,12 v 0.05 a 2.5629,2.5629 0 0 1 -0.1,-1 3.263,3.263 0 0 1 0.35,-0.95 0.99,0.99 0 0 1 0.15,-0.4 3.0008,3.0008 0 0 1 1.1,-1.05 1.5552,1.5552 0 0 1 0.55,-0.2 0.2038,0.2038 0 0 1 0.15,0.05 0.2038,0.2038 0 0 0 0.15,0.05 1.745,1.745 0 0 1 0.45,0.3 h 0.05 a 8.6429,8.6429 0 0 1 4.9,5.5 q 2.1,6.55 4,13.1 1.45,5.2 2.75,10.35 M 35,8.95 a 0.1442,0.1442 0 0 0 -0.05,0.1 1.9419,1.9419 0 0 0 -0.1,0.25 l -0.1,0.2 A 4.9482,4.9482 0 0 0 34.5,10.25 3.66,3.66 0 0 0 34.35,11.8 L 28.5,9.2 A 0.1442,0.1442 0 0 0 28.4,9.15 0.3391,0.3391 0 0 0 28.15,9.05 l -0.2,-0.2 A 1.156,1.156 0 0 1 27.5,8.1 3.0992,3.0992 0 0 1 27.4,7.35 2.8229,2.8229 0 0 1 27.75,6.25 L 27.7,6.3 a 1.14,1.14 0 0 1 0.25,-0.45 1.9078,1.9078 0 0 1 0.95,-0.9 h -0.05 a 1.6864,1.6864 0 0 1 1.3,-0.15 l -0.1,-0.05 q 0.35,0.1 6.1,2.85 A 4.6409,4.6409 0 0 0 35,8.95 Z"
       id="path25"
       style="fill:#004455" />
    <path
       d="M 35,8.95 A 4.6409,4.6409 0 0 1 36.15,7.6 Q 30.4,4.85 30.05,4.75 l 0.1,0.05 a 1.6864,1.6864 0 0 0 -1.3,0.15 h 0.05 a 1.9078,1.9078 0 0 0 -0.95,0.9 q 0.45,0.25 1.2,0.65 a 8.3849,8.3849 0 0 0 1.3,0.6 z"
       fill="#cc3305"
       id="path27"
       style="fill:#2ad4ff" />
    <path
       d="M 34.95,9.05 A 0.1442,0.1442 0 0 1 35,8.95 L 30.45,7.1 A 8.3849,8.3849 0 0 1 29.15,6.5 Q 28.4,6.1 27.95,5.85 A 1.14,1.14 0 0 0 27.7,6.3 l 0.05,-0.05 a 2.8229,2.8229 0 0 0 -0.35,1.1 3.0992,3.0992 0 0 0 0.1,0.75 1.156,1.156 0 0 0 0.45,0.75 l 0.2,0.2 a 0.3391,0.3391 0 0 1 0.25,0.1 0.1442,0.1442 0 0 1 0.1,0.05 l 5.85,2.6 A 3.66,3.66 0 0 1 34.5,10.25 4.9482,4.9482 0 0 1 34.75,9.5 l 0.1,-0.2 a 1.9419,1.9419 0 0 1 0.1,-0.25 z"
       fill="#992300"
       id="path29"
       style="fill:#006680" />
    <path
       d="m 45.25,23.95 q -1.7,-5.85 -2.1,-7.25 a 13.0037,13.0037 0 0 0 -2,-3.95 8.39,8.39 0 0 0 -2.8,-2.15 q -0.7,-0.35 -1.9,-0.9 a 0.99,0.99 0 0 0 -0.15,0.4 3.263,3.263 0 0 0 -0.35,0.95 2.5629,2.5629 0 0 0 0.1,1 V 12 a 2.9435,2.9435 0 0 0 0.3,0.75 l 0.4,0.15 H 36.7 q 2.6,0.9 4,4.9 v 0.1 L 46.75,39 48.9,38.35 q -1.75,-7.3 -3.65,-14.4 z"
       fill="#9cb2da"
       id="path31"
       style="fill:#00ccff" />
    <path
       d="m 43.15,16.7 q 0.4,1.4 2.1,7.25 1.9,7.1 3.65,14.4 L 50.55,37.8 Q 49.25,32.65 47.8,27.45 45.9,20.9 43.8,14.35 A 8.6429,8.6429 0 0 0 38.9,8.85 H 38.85 A 1.745,1.745 0 0 0 38.4,8.55 0.2038,0.2038 0 0 1 38.25,8.5 0.2038,0.2038 0 0 0 38.1,8.45 1.5552,1.5552 0 0 0 37.55,8.65 3.0008,3.0008 0 0 0 36.45,9.7 q 1.2,0.55 1.9,0.9 a 8.39,8.39 0 0 1 2.8,2.15 13.0037,13.0037 0 0 1 2,3.95 z"
       fill="#c3d4f6"
       id="path33"
       style="fill:#afdde9" />
  </g>
  <g
     id="QuickStock_Basic_0_Layer6_0_FILL"
     data-name="QuickStock Basic 0 Layer6 0 FILL"
     style="display:inline">
    <path
       d="m 44.8,22.45 a 0.7583,0.7583 0 0 0 -0.05,-0.6 l -2.4,-6.4 A 1.2023,1.2023 0 0 0 42,14.95 0.71,0.71 0 0 0 41.35,14.8 l -21.7,0.5 a 0.7393,0.7393 0 0 0 -0.65,0.2 0.9565,0.9565 0 0 0 -0.4,0.55 1.2494,1.2494 0 0 0 0,0.7 l 2.85,8.1 a 1.4277,1.4277 0 0 0 0.5,0.6 1.0089,1.0089 0 0 0 0.65,0.2 l 21.3,-2.3 a 1.18,1.18 0 0 0 0.55,-0.25 1.1453,1.1453 0 0 0 0.35,-0.65 m -2.6,-1.2 -18.95,2.05 -2.05,-5.85 19.35,-0.5 z"
       id="path36"
       style="fill:#004455" />
    <path
       d="M 23.25,23.3 42.2,21.25 40.55,16.95 21.2,17.45 Z"
       fill="#c3d4f6"
       id="path38"
       style="fill:#afdde9" />
  </g>
  <g
     id="QuickStock_Basic_0_Layer5_0_FILL"
     data-name="QuickStock Basic 0 Layer5 0 FILL"
     style="display:inline">
    <path
       d="M 25.25,16.75 A 0.8089,0.8089 0 0 0 25.2,16.55 Q 23.131,10.6 18.15,8.65 17.7885,8.5 17.45,8.35 v 0 Q 10.03,4.8792 8.8,4.4 A 0.4828,0.4828 0 0 0 8.7,4.3 4.2514,4.2514 0 0 0 4.9,4.45 0.8,0.8 0 0 0 4.45,4.75 6.54,6.54 0 0 0 2.05,7.45 q 0.0119,0.0505 0,0.05 A 6.0928,6.0928 0 0 0 1.7,11.2 q -0.0013,0.1011 0,0.2 a 4.6088,4.6088 0 0 0 1.4,2.3 L 3.05,13.65 a 4.6034,4.6034 0 0 0 0.6,0.5 L 3.7,14.2 a 0.7811,0.7811 0 0 0 0.45,0.25 h 0.1 a 0.1291,0.1291 0 0 0 0.1,0.05 l 8.95,4 a 0.6825,0.6825 0 0 0 0.25,0.2 q 1.68,0.7035 2.65,3.55 a 0.7376,0.7376 0 0 0 0.1,0.2 l 6.8,23.85 a 1.3393,1.3393 0 0 0 0.45,0.9 1.0524,1.0524 0 0 0 0.25,0.2 q 0.2523,0.09 0.5,0.2 c 0.034,0.0256 0.0506,0.0423 0.05,0.05 a 1.2943,1.2943 0 0 0 1,0 L 31.7,45.7 v 0 a 1.7089,1.7089 0 0 0 1.1,-0.95 v 0 A 1.8143,1.8143 0 0 0 32.95,43.4 Q 31.375,37.1623 29.6,31 27.584,23.7619 25.25,16.75 m -8.2,-5.35 0.05,0.1 a 9.1163,9.1163 0 0 1 5.25,6.05 q 2.35,7.1 4.4,14.25 1.6,5.6 3.05,11.35 l -1.85,0.6 -2.3,0.7 L 19.1,21.4 a 0.3847,0.3847 0 0 1 -0.05,-0.15 q -1.65,-4.4 -4.3,-5.4 L 14.3,15.75 A 2.1993,2.1993 0 0 1 13.95,15 2.7043,2.7043 0 0 1 13.9,13.85 a 2.8654,2.8654 0 0 1 0.3,-1 v 0.05 q 0.1,-0.2 0.2,-0.45 a 2.97,2.97 0 0 1 1.2,-1.2 q 0.3,-0.1 0.55,-0.2 a 0.288,0.288 0 0 1 0.2,0.1 0.3847,0.3847 0 0 0 0.15,0.05 q 0.3,0.1 0.55,0.2 m -3,-1.3 a 5.4074,5.4074 0 0 0 -1.2,1.5 0.1442,0.1442 0 0 0 -0.05,0.1 1.64,1.64 0 0 0 -0.2,0.25 l -0.1,0.2 v 0.05 a 6.3346,6.3346 0 0 0 -0.25,0.85 4.32,4.32 0 0 0 -0.15,1.7 L 5.7,11.9 5.6,11.8 A 0.5374,0.5374 0 0 0 5.3,11.7 0.3218,0.3218 0 0 0 5.15,11.5 1.4112,1.4112 0 0 1 4.6,10.65 6.45,6.45 0 0 1 4.55,9.85 3.45,3.45 0 0 1 4.85,8.7 1.5707,1.5707 0 0 1 5.05,8.2 2.8913,2.8913 0 0 1 6.2,7.15 L 6.15,7.2 A 1.508,1.508 0 0 1 7.55,7.1 H 7.5 q 0.7,0.2 6.55,3 z"
       id="path41"
       style="display:inline;fill:#004455" />
    <path
       d="m 12.8,11.7 a 0.1442,0.1442 0 0 1 0.05,-0.1 L 7.8,9.6 Q 6.85,9.2 6.35,8.95 5.6,8.5 5.05,8.2 a 1.5707,1.5707 0 0 0 -0.2,0.5 3.45,3.45 0 0 0 -0.3,1.15 6.45,6.45 0 0 0 0.05,0.8 1.4112,1.4112 0 0 0 0.55,0.85 0.3218,0.3218 0 0 1 0.15,0.2 0.5374,0.5374 0 0 1 0.3,0.1 l 0.1,0.1 6.4,2.85 a 4.32,4.32 0 0 1 0.15,-1.7 6.3346,6.3346 0 0 1 0.25,-0.85 v -0.05 l 0.1,-0.2 a 1.64,1.64 0 0 1 0.2,-0.25 z"
       fill="#992300"
       id="path43"
       style="display:inline;fill:#006680" />
    <path
       d="m 12.85,11.6 a 5.4074,5.4074 0 0 1 1.2,-1.5 Q 8.2,7.3 7.5,7.1 H 7.55 A 1.508,1.508 0 0 0 6.15,7.2 L 6.2,7.15 A 2.8913,2.8913 0 0 0 5.05,8.2 Q 5.6,8.5 6.35,8.95 6.85,9.2 7.8,9.6 Z"
       fill="#cc3305"
       id="path45"
       style="fill:#2ad4ff" />
    <path
       d="m 14.4,12.45 q -0.1,0.25 -0.2,0.45 v -0.05 a 2.8654,2.8654 0 0 0 -0.3,1 2.7043,2.7043 0 0 0 0.05,1.15 2.1993,2.1993 0 0 0 0.35,0.75 l 0.45,0.1 q 2.65,1 4.3,5.4 a 0.3847,0.3847 0 0 0 0.05,0.15 l 6.55,23.05 2.3,-0.7 q -1.9,-8.1 -3.9,-15.7 -1.9,-6.45 -2.4,-7.95 A 12.8162,12.8162 0 0 0 19.5,15.75 9.5127,9.5127 0 0 0 16.5,13.4 Q 15.7,13 14.4,12.45 Z"
       fill="#9cb2da"
       id="path47"
       style="display:inline;fill:#00ccff" />
    <path
       d="M 17.1,11.5 17.05,11.4 Q 16.8,11.3 16.5,11.2 a 0.3847,0.3847 0 0 1 -0.15,-0.05 0.288,0.288 0 0 0 -0.2,-0.1 q -0.25,0.1 -0.55,0.2 a 2.97,2.97 0 0 0 -1.2,1.2 q 1.3,0.55 2.1,0.95 a 9.5127,9.5127 0 0 1 3,2.35 12.8162,12.8162 0 0 1 2.15,4.35 q 0.5,1.5 2.4,7.95 2,7.6 3.9,15.7 l 1.85,-0.6 Q 28.35,37.4 26.75,31.8 24.7,24.65 22.35,17.55 A 9.1163,9.1163 0 0 0 17.1,11.5 Z"
       fill="#c3d4f6"
       id="path49"
       style="display:inline;fill:#afdde9" />
  </g>
  <g
     id="QuickStock_Basic_0_Layer4_0_FILL"
     data-name="QuickStock Basic 0 Layer4 0 FILL"
     style="display:inline">
    <path
       d="m 63.5,56.7 h 0.05 A 7.3991,7.3991 0 0 0 59.5,54 H 59.35 A 2.3205,2.3205 0 0 0 58.9,53.95 1.0091,1.0091 0 0 0 58.35,54 l -4.1,0.4 A 0.5571,0.5571 0 0 0 54,54.35 a 2.7391,2.7391 0 0 0 -1.9,0.3 0.6284,0.6284 0 0 0 -0.15,0.1 l 0.1,-0.1 a 6.5773,6.5773 0 0 0 -3.55,3.45 12.0076,12.0076 0 0 0 -1.25,7.1 v 0.05 a 11.26,11.26 0 0 0 2.5,6.7 q 2.55,3.05 5.6,2.8 a 0.4442,0.4442 0 0 1 0.2,-0.05 0.29,0.29 0 0 1 0.2,-0.05 l 4.1,-0.3 0.2,-0.1 a 6.2542,6.2542 0 0 0 4.7,-3.5 0.1442,0.1442 0 0 1 0.05,-0.1 12.6237,12.6237 0 0 0 1.4,-7.15 12.1861,12.1861 0 0 0 -2.7,-6.8 M 59,56.2 a 5.5483,5.5483 0 0 1 2.8,1.9 10.0412,10.0412 0 0 1 2.15,5.4 9.2594,9.2594 0 0 1 -1.1,5.65 4.7669,4.7669 0 0 1 -3.4,2.65 l -1.1,0.05 a 5.6132,5.6132 0 0 0 0.9,-1.65 q 0.55,-1.45 0.05,-1.9 l -0.45,0.95 q -0.45,0.55 -1.15,1.3 a 3.42,3.42 0 0 1 -1.4,1.3 l -1.35,0.35 a 4.9466,4.9466 0 0 1 -3.45,-1.95 9.9732,9.9732 0 0 1 -2,-5.4 10.0834,10.0834 0 0 1 1,-5.75 4.36,4.36 0 0 1 3.5,-2.55 h 0.05 a 0.6226,0.6226 0 0 1 0.35,0 3.2455,3.2455 0 0 1 1.5,0.6 4.4057,4.4057 0 0 1 1.35,1.3 28.5556,28.5556 0 0 1 1.85,2.75 7.641,7.641 0 0 1 0.7,1.45 1.1645,1.1645 0 0 0 0.2,-0.3 2.7783,2.7783 0 0 0 0,-1.05 1.6618,1.6618 0 0 0 -0.25,-0.9 10.9406,10.9406 0 0 0 -1,-2.35 L 58.1,57.2 a 5.7248,5.7248 0 0 0 -0.9,-0.9 l 1.3,-0.15 A 3.1471,3.1471 0 0 1 59,56.2 M 54.7,61 a 2.64,2.64 0 0 0 -0.85,-0.05 4.242,4.242 0 0 0 -1.2,0.85 l -0.3,0.3 a 3.1979,3.1979 0 0 0 -0.1,0.5 L 52,64 v 0.4 l 0.05,0.35 a 4.07,4.07 0 0 0 0.55,1.9 2.3827,2.3827 0 0 0 1.15,1.15 3.55,3.55 0 0 0 1,0.25 h 0.45 a 0.875,0.875 0 0 0 0.45,-0.25 2.2717,2.2717 0 0 0 0.65,-1 2.0924,2.0924 0 0 0 0.05,-1.35 Q 56.15,65.2 56.05,65.1 A 0.2965,0.2965 0 0 0 55.6,65.25 1.2036,1.2036 0 0 0 55.25,65.8 2.3009,2.3009 0 0 1 54.7,66.6 0.5876,0.5876 0 0 1 54.2,66.3 L 53.8,65.75 A 3.7654,3.7654 0 0 1 53.4,64.4 V 64 l -0.1,-0.3 v -0.55 a 4.0451,4.0451 0 0 1 0.15,-0.7 l 0.35,-0.4 A 0.955,0.955 0 0 1 54.6,61.55 0.6868,0.6868 0 0 0 54.95,61.4 0.231,0.231 0 0 0 55.1,61.15 0.7642,0.7642 0 0 0 54.7,61 Z"
       id="path52"
       style="fill:#004455" />
    <path
       d="m 55.9,57.15 a 3.2455,3.2455 0 0 0 -1.5,-0.6 0.6226,0.6226 0 0 0 -0.35,0 H 54 a 4.36,4.36 0 0 0 -3.5,2.55 10.0834,10.0834 0 0 0 -1,5.75 9.9732,9.9732 0 0 0 2,5.4 4.9466,4.9466 0 0 0 3.45,1.95 l 1.35,-0.35 a 3.42,3.42 0 0 0 1.4,-1.3 q 0.7,-0.75 1.15,-1.3 L 59.3,68.3 59.5,68 v -0.05 l 0.2,-0.55 v -0.15 a 8.92,8.92 0 0 0 0.2,-3.3 5.9056,5.9056 0 0 0 -0.1,-1.15 0.1442,0.1442 0 0 1 -0.05,-0.1 0.0442,0.0442 0 0 1 0.05,-0.05 7.641,7.641 0 0 0 -0.7,-1.45 28.5556,28.5556 0 0 0 -1.85,-2.75 4.4057,4.4057 0 0 0 -1.35,-1.3 m -2.05,3.8 a 2.64,2.64 0 0 1 0.85,0.05 0.7642,0.7642 0 0 1 0.4,0.15 0.231,0.231 0 0 1 -0.15,0.25 0.6868,0.6868 0 0 1 -0.35,0.15 0.955,0.955 0 0 0 -0.8,0.5 l -0.35,0.4 a 4.0451,4.0451 0 0 0 -0.15,0.7 v 0.55 l 0.1,0.3 v 0.4 a 3.7654,3.7654 0 0 0 0.4,1.35 l 0.4,0.55 a 0.5876,0.5876 0 0 0 0.5,0.3 2.3009,2.3009 0 0 0 0.55,-0.8 1.2036,1.2036 0 0 1 0.35,-0.55 0.2965,0.2965 0 0 1 0.45,-0.15 q 0.1,0.1 0.3,0.35 a 2.0924,2.0924 0 0 1 -0.05,1.35 2.2717,2.2717 0 0 1 -0.65,1 0.875,0.875 0 0 1 -0.45,0.25 h -0.45 a 3.55,3.55 0 0 1 -1,-0.25 2.3827,2.3827 0 0 1 -1.15,-1.15 4.07,4.07 0 0 1 -0.55,-1.9 L 52,64.4 V 64 l 0.25,-1.4 a 3.1979,3.1979 0 0 1 0.1,-0.5 l 0.3,-0.3 a 4.242,4.242 0 0 1 1.2,-0.85 z"
       fill="#757171"
       id="path54"
       style="display:inline;fill:#006680" />
    <path
       d="M 61.8,58.1 A 5.5483,5.5483 0 0 0 59,56.2 3.1471,3.1471 0 0 0 58.5,56.15 l -1.3,0.15 a 5.7248,5.7248 0 0 1 0.9,0.9 l 0.65,0.85 a 10.9406,10.9406 0 0 1 1,2.35 1.6618,1.6618 0 0 1 0.25,0.9 2.7783,2.7783 0 0 1 0,1.05 1.1645,1.1645 0 0 1 -0.2,0.3 0.0442,0.0442 0 0 0 -0.05,0.05 0.1442,0.1442 0 0 0 0.05,0.1 5.9056,5.9056 0 0 1 0.1,1.15 8.92,8.92 0 0 1 -0.2,3.3 v 0.15 l -0.2,0.55 V 68 l -0.2,0.3 q 0.5,0.45 -0.05,1.9 a 5.6132,5.6132 0 0 1 -0.9,1.65 l 1.1,-0.05 a 4.7669,4.7669 0 0 0 3.4,-2.65 9.2594,9.2594 0 0 0 1.1,-5.65 10.0412,10.0412 0 0 0 -2.15,-5.4 z"
       fill="#999999"
       id="path56"
       style="display:inline;fill:#00aad4" />
  </g>
  <g
     id="QuickStock_Basic_0_Layer3_0_FILL"
     data-name="QuickStock Basic 0 Layer3 0 FILL"
     style="display:inline">
    <path
       d="M 47.95,27.9 Q 44.7,27.8 43.1,27.8 a 28.6652,28.6652 0 0 0 -4.85,0.35 26.7346,26.7346 0 0 0 -8.25,3.4 q -5.1,3.3 -7.75,4.75 a 22.3224,22.3224 0 0 0 -2.35,1.4 4.7323,4.7323 0 0 0 -1.7,2 q -0.7,1.65 0.1,4.85 0.5,2.35 1.45,7.1 0.85,4.15 1.7,7 0.6,1.95 1.85,5.8 a 22.0022,22.0022 0 0 0 1,2.95 4.5677,4.5677 0 0 0 1.85,2.2 4.83,4.83 0 0 0 2.85,0.5 17.7389,17.7389 0 0 0 3,-0.7 39.79,39.79 0 0 1 11.05,-1.8 13.5933,13.5933 0 0 0 2.4,-0.15 2.8772,2.8772 0 0 0 1.95,-1.35 2.6907,2.6907 0 0 0 2.9,0.15 18.9491,18.9491 0 0 0 2.6,-1.55 24.7517,24.7517 0 0 1 3.75,-1.55 43.9575,43.9575 0 0 0 7.85,-3.8 16.9361,16.9361 0 0 1 2.15,-1.15 q 0.4,-0.15 1.35,-0.4 a 11.1081,11.1081 0 0 0 1.3,-0.45 3.3127,3.3127 0 0 0 2.05,-2.9 8.0335,8.0335 0 0 0 -1,-3.5 50.9811,50.9811 0 0 1 -3.15,-8.5 Q 65.95,36.8 65.1,34 l -0.45,-1.65 a 7.8555,7.8555 0 0 0 -0.2,-2.1 3.7939,3.7939 0 0 0 -3,-2.65 13.9806,13.9806 0 0 0 -4.15,-0.15 Q 51,27.95 47.95,27.9 M 27,50.45 l 4.55,-1.1 a 9.1707,9.1707 0 0 0 1.7,-0.4 4.0437,4.0437 0 0 0 2.45,-2.5 q 0.2,-0.75 0.55,-0.85 l 3.5,15 a 41.4014,41.4014 0 0 0 -9.7,1.95 z"
       fill="#805632"
       id="path59" />
  </g>
  <g
     id="QuickStock_Basic_0_Layer2_0_FILL"
     data-name="QuickStock Basic 0 Layer2 0 FILL"
     style="display:inline">
    <path
       d="m 64.25,26.7 a 1.1944,1.1944 0 0 0 -0.8,-0.3 l -26,-0.75 a 1.1461,1.1461 0 0 0 -0.9,0.3 L 16.4,37.5 A 1.2744,1.2744 0 0 0 15.8,38.15 1.4663,1.4663 0 0 0 15.75,39 l 8.4,31.75 a 1.242,1.242 0 0 0 0.6,0.8 1.3273,1.3273 0 0 0 0.95,0.25 L 48.65,68.15 A 1.7745,1.7745 0 0 0 49.15,68 L 72.7,57.35 a 1.2644,1.2644 0 0 0 0.6,-0.7 1.1823,1.1823 0 0 0 0.1,-0.95 L 64.7,27.35 A 1.5225,1.5225 0 0 0 64.25,26.7 m -45.6,12.6 3.85,-2.25 2.4,8.6 a 0.5142,0.5142 0 0 0 0.3,0.45 1.3251,1.3251 0 0 0 0.65,0.2 0.7654,0.7654 0 0 0 0.55,-0.35 l 2.9,-3.25 4.55,0.6 A 0.9814,0.9814 0 0 0 34.5,43.15 1.2449,1.2449 0 0 0 34.85,42.7 0.6328,0.6328 0 0 0 34.8,42.15 L 31.45,31.9 36.6,29 46.8,65.75 26.5,69 18.65,39.3 m 5.5,-3.15 5.8,-3.3 2.8,8.45 -3.7,-0.45 a 1.2279,1.2279 0 0 0 -0.45,0.1 1.1645,1.1645 0 0 0 -0.3,0.2 L 26.2,43.6 24.15,36.15 M 70.5,55.4 49.3,64.95 39.15,28.35 l 23.3,0.7 z"
       id="path62"
       style="display:inline;fill:#004455" />
    <path
       d="M 49.3,64.95 70.5,55.4 62.45,29.05 39.15,28.35 Z"
       fill="#b07d50"
       id="path64"
       style="fill:#00ccff" />
    <path
       d="m 29.95,32.85 -5.8,3.3 2.05,7.45 2.1,-2.45 a 1.1645,1.1645 0 0 1 0.3,-0.2 1.2279,1.2279 0 0 1 0.45,-0.1 l 3.7,0.45 z"
       fill="#b49b85"
       id="path66"
       style="fill:#00aad4" />
    <path
       d="M 22.5,37.05 18.65,39.3 26.5,69 46.8,65.75 36.6,29 31.45,31.9 34.8,42.15 a 0.6328,0.6328 0 0 1 0.05,0.55 1.2449,1.2449 0 0 1 -0.35,0.45 0.9814,0.9814 0 0 1 -0.65,0.15 L 29.3,42.7 26.4,45.95 A 0.7654,0.7654 0 0 1 25.85,46.3 1.3251,1.3251 0 0 1 25.2,46.1 0.5142,0.5142 0 0 1 24.9,45.65 Z"
       fill="#805632"
       id="path68"
       style="fill:#0088aa" />
  </g>
  <g
     id="QuickStock_Basic_0_Layer1_0_FILL"
     data-name="QuickStock Basic 0 Layer1 0 FILL"
     style="display:inline">
    <path
       d="m 21,69.9 a 1.5419,1.5419 0 0 0 -0.6,0.7 1.0728,1.0728 0 0 0 -0.05,0.85 1.06,1.06 0 0 0 0.55,0.75 1.0849,1.0849 0 0 0 0.85,0.25 L 55.2,69.3 a 3.878,3.878 0 0 0 0.5,-0.2 l 16.7,-9.45 0.2,-0.1 0.45,-0.3 h 0.05 l 4.55,-2.65 a 1.6337,1.6337 0 0 0 0.6,-0.65 1.0728,1.0728 0 0 0 0.05,-0.85 1.5629,1.5629 0 0 0 -0.55,-0.7 1.3415,1.3415 0 0 0 -0.8,-0.25 l -28.7,1.4 A 1.0491,1.0491 0 0 0 47.7,55.7 L 21,69.9 M 31.85,67.1 38.7,63.45 V 63.4 l 10,-5.2 22.8,-1.15 -0.15,0.1 -0.1,0.1 -3.5,1.9 -13.1,7.45 -26.55,2.6 z"
       id="path71"
       style="fill:#004455" />
    <path
       d="m 31.85,67.1 -3.75,2.1 26.55,-2.6 13.1,-7.45 q -10.7,0.65 -14.05,1 -3.35,0.35 -4.7,0.45 l -18.05,8.1 0.85,-1 z"
       fill="#9cb2da"
       id="path73"
       style="fill:#00ccff" />
    <path
       d="m 38.7,63.45 -6.85,3.65 -0.05,0.6 -0.85,1 L 49,60.6 q 1.35,-0.1 4.7,-0.45 3.35,-0.35 14.05,-1 l 3.5,-1.9 0.1,-0.1 0.15,-0.1 -22.8,1.15 -10,5.2 z"
       fill="#c3d4f6"
       id="path75"
       style="display:inline;fill:#aaeeff" />
  </g>
  <g
     id="QuickStock_Basic_0_Layer0_0_FILL"
     data-name="QuickStock Basic 0 Layer0 0 FILL"
     style="display:inline">
    <path
       d="m 34.5,58.3 h 0.05 a 7.69,7.69 0 0 0 -4.5,-2.95 H 29.9 Q 29.6,55.3 29.35,55.25 A 1.86,1.86 0 0 0 28.9,55.3 l -4.6,0.4 a 1.1091,1.1091 0 0 1 -0.35,-0.05 3.2945,3.2945 0 0 0 -2.2,0.45 7.6116,7.6116 0 0 0 -3.95,3.75 13.3859,13.3859 0 0 0 -1.4,7.9 13.0227,13.0227 0 0 0 2.85,7.55 q 2.75,3.45 6.2,3.1 a 0.3847,0.3847 0 0 1 0.15,-0.05 0.4442,0.4442 0 0 0 0.2,-0.05 l 4.7,-0.35 a 0.4442,0.4442 0 0 0 0.2,-0.05 q 3.3,-0.4 5.35,-4.1 v -0.1 a 13.4243,13.4243 0 0 0 1.45,-7.8 13.1621,13.1621 0 0 0 -3,-7.6 m -5.55,-0.65 q 0.2,0.05 0.55,0.1 a 5.71,5.71 0 0 1 3.2,2.1 10.5307,10.5307 0 0 1 2.35,6.05 10.6642,10.6642 0 0 1 -1.2,6.4 5.0871,5.0871 0 0 1 -3.8,2.9 l -1.2,0.1 q 0.25,-0.3 0.6,-0.75 a 11.3767,11.3767 0 0 0 1.25,-2.7 Q 31.15,70.1 30.3,70.1 l -0.05,0.15 -0.1,0.6 v 0.1 L 29.3,72.3 a 16.7652,16.7652 0 0 1 -1.2,1.5 3.9481,3.9481 0 0 1 -1.65,1.4 L 25,75.65 A 5.47,5.47 0 0 1 21.1,73.4 11.2416,11.2416 0 0 1 18.85,67.35 11.5605,11.5605 0 0 1 20,60.95 4.8465,4.8465 0 0 1 23.9,58.1 0.1442,0.1442 0 0 1 24,58.05 a 0.6226,0.6226 0 0 1 0.35,0 3.6875,3.6875 0 0 1 1.7,0.65 6.4684,6.4684 0 0 1 1.55,1.6 20.5908,20.5908 0 0 1 2,3 q 0.65,1.1 0.9,1.6 a 1.1523,1.1523 0 0 0 0.15,-0.3 q 0.05,-0.55 0.05,-1.2 a 6.7989,6.7989 0 0 0 -0.3,-1 15.0836,15.0836 0 0 0 -1.1,-2.6 l -0.8,-1 a 9.3449,9.3449 0 0 0 -0.95,-1 l 1.4,-0.15 M 23.7,64.3 a 1.0469,1.0469 0 0 1 0.85,-0.6 0.579,0.579 0 0 0 0.4,-0.1 q 0.25,-0.1 0.2,-0.3 a 0.4807,0.4807 0 0 0 -0.4,-0.3 2.9984,2.9984 0 0 0 -1,0.05 4.1575,4.1575 0 0 0 -1.3,0.9 l -0.3,0.35 a 1.2649,1.2649 0 0 0 -0.2,0.6 l -0.3,1.55 v 0.45 l 0.05,0.35 a 5.45,5.45 0 0 0 0.65,2.2 3.1345,3.1345 0 0 0 1.25,1.3 3.8852,3.8852 0 0 0 1.2,0.3 L 25.2,71 a 0.895,0.895 0 0 0 0.55,-0.25 2.252,2.252 0 0 0 0.75,-1.2 2.4041,2.4041 0 0 0 0.05,-1.45 3.5236,3.5236 0 0 0 -0.25,-0.35 0.4277,0.4277 0 0 0 -0.65,0.1 q -0.1,0.2 -0.3,0.65 a 3.1323,3.1323 0 0 1 -0.6,0.8 0.5208,0.5208 0 0 1 -0.6,-0.25 L 23.7,68.45 A 4.5181,4.5181 0 0 1 23.25,66.9 v -0.4 l -0.1,-0.4 0.05,-0.6 q 0.1,-0.7 0.1,-0.75 z"
       id="path78"
       style="display:inline;fill:#004455" />
    <path
       d="m 24.35,58.05 a 0.6226,0.6226 0 0 0 -0.35,0 0.1442,0.1442 0 0 0 -0.1,0.05 4.8465,4.8465 0 0 0 -3.9,2.85 11.5605,11.5605 0 0 0 -1.15,6.4 11.2416,11.2416 0 0 0 2.25,6.05 5.47,5.47 0 0 0 3.9,2.25 l 1.45,-0.45 a 3.9481,3.9481 0 0 0 1.65,-1.4 16.7652,16.7652 0 0 0 1.2,-1.5 l 0.85,-1.35 v -0.1 l 0.1,-0.6 0.05,-0.15 a 10.58,10.58 0 0 0 0.25,-3.75 Q 30.5,65.7 30.4,65.1 30.35,65 30.4,64.95 a 0.0442,0.0442 0 0 1 0.05,-0.05 h 0.05 q -0.25,-0.5 -0.9,-1.6 a 20.5908,20.5908 0 0 0 -2,-3 6.4684,6.4684 0 0 0 -1.55,-1.6 3.6875,3.6875 0 0 0 -1.7,-0.65 m 0.2,5.65 a 1.0469,1.0469 0 0 0 -0.85,0.6 l -0.4,0.45 q 0,0.05 -0.1,0.75 l -0.05,0.6 0.1,0.4 v 0.4 a 4.5181,4.5181 0 0 0 0.45,1.55 l 0.45,0.6 a 0.5208,0.5208 0 0 0 0.6,0.25 3.1323,3.1323 0 0 0 0.6,-0.8 q 0.2,-0.45 0.3,-0.65 a 0.4277,0.4277 0 0 1 0.65,-0.1 3.5236,3.5236 0 0 1 0.25,0.35 2.4041,2.4041 0 0 1 -0.05,1.45 2.252,2.252 0 0 1 -0.75,1.2 A 0.895,0.895 0 0 1 25.2,71 l -0.4,0.05 a 3.8852,3.8852 0 0 1 -1.2,-0.3 3.1345,3.1345 0 0 1 -1.25,-1.3 5.45,5.45 0 0 1 -0.65,-2.2 L 21.65,66.9 v -0.45 l 0.3,-1.55 a 1.2649,1.2649 0 0 1 0.2,-0.6 l 0.3,-0.35 a 4.1575,4.1575 0 0 1 1.3,-0.9 2.9984,2.9984 0 0 1 1,-0.05 0.4807,0.4807 0 0 1 0.4,0.3 q 0.05,0.2 -0.2,0.3 a 0.579,0.579 0 0 1 -0.4,0.1 z"
       fill="#757171"
       id="path80"
       style="fill:#006680" />
    <path
       d="m 29.5,57.75 q -0.35,-0.05 -0.55,-0.1 l -1.4,0.15 a 9.3449,9.3449 0 0 1 0.95,1 l 0.8,1 a 15.0836,15.0836 0 0 1 1.1,2.6 6.7989,6.7989 0 0 1 0.3,1 q 0,0.65 -0.05,1.2 a 1.1523,1.1523 0 0 1 -0.15,0.3 h -0.05 a 0.0442,0.0442 0 0 0 -0.05,0.05 q -0.05,0.05 0,0.15 0.1,0.6 0.15,1.25 A 10.58,10.58 0 0 1 30.3,70.1 q 0.85,0 0.4,1.75 a 11.3767,11.3767 0 0 1 -1.25,2.7 Q 29.1,75 28.85,75.3 l 1.2,-0.1 a 5.0871,5.0871 0 0 0 3.8,-2.9 10.6642,10.6642 0 0 0 1.2,-6.4 10.5307,10.5307 0 0 0 -2.35,-6.05 5.71,5.71 0 0 0 -3.2,-2.1 z"
       fill="#999999"
       id="path82"
       style="fill:#00aad4" />
  </g>
  <metadata
     id="metadata4561">
    <rdf:RDF>
      <cc:Work
         rdf:about="">
        <dc:title>quickstock-icon</dc:title>
      </cc:Work>
    </rdf:RDF>
  </metadata>
</svg>
