<?xml version="1.0" encoding="UTF-8" standalone="no"?>
<svg
   width="200pt"
   height="200pt"
   viewBox="0 0 200 200"
   version="1.1"
   id="svg5"
   sodipodi:docname="safetydeposit-icon.svg"
   inkscape:version="1.3.2 (091e20e, 2023-11-25, custom)"
   xmlns:inkscape="http://www.inkscape.org/namespaces/inkscape"
   xmlns:sodipodi="http://sodipodi.sourceforge.net/DTD/sodipodi-0.dtd"
   xmlns="http://www.w3.org/2000/svg"
   xmlns:svg="http://www.w3.org/2000/svg">
  <defs
     id="defs5" />
  <sodipodi:namedview
     id="namedview5"
     pagecolor="#ffffff"
     bordercolor="#000000"
     borderopacity="0.25"
     inkscape:showpageshadow="2"
     inkscape:pageopacity="0.0"
     inkscape:pagecheckerboard="0"
     inkscape:deskcolor="#d1d1d1"
     inkscape:document-units="pt"
     inkscape:zoom="1.98375"
     inkscape:cx="133.08129"
     inkscape:cy="133.33333"
     inkscape:window-width="1360"
     inkscape:window-height="705"
     inkscape:window-x="-8"
     inkscape:window-y="-8"
     inkscape:window-maximized="1"
     inkscape:current-layer="svg5" />
  <g
     id="#000000ff"
     style="display:inline;fill:#1e374a;fill-opacity:1">
    <path
       fill="#000000"
       opacity="1"
       d="M 49.25,18.12 C 78.13,13.11 107.1,8.61 136.03,3.9 c 4.17,8.67 10.4,16.73 19.27,20.93 8.88,4.48 19.07,5.33 28.86,5.19 0.72,15.01 0.18,30.07 -1.25,45.02 -3.11,30.33 -11.68,60.65 -28.65,86.26 -8.53,13.2 -19.46,24.66 -31.38,34.83 C 108.64,190.64 95.07,183.33 82.99,173.97 62.91,158.55 46.95,138.23 35,116.01 25,97.66 17.48,78.03 11.65,57.98 21.5,54.66 31.64,50.66 38.76,42.75 45.12,36.1 48.05,27.06 49.25,18.12 m 8.8,8.38 c -1.95,7.45 -4.7,14.88 -9.76,20.82 -6.27,7.89 -15.19,13.01 -24.32,16.91 9.42,28.39 22.18,56.22 41.75,79.12 14.79,17.78 33.85,31.93 55.06,41.13 8.46,-7.45 16.04,-15.9 22.49,-25.15 16.02,-22.75 24.91,-49.88 28.65,-77.28 1.99,-13.99 2.5,-28.12 2.53,-42.24 -3.79,-0.54 -7.63,-0.68 -11.36,-1.61 -13.5,-2.68 -25.62,-11.29 -32.41,-23.3 -24.24,3.63 -48.38,8.03 -72.63,11.6 z"
       id="path1"
       style="fill:#1e374a;fill-opacity:1" />
    <path
       fill="#000000"
       opacity="1"
       d="m 62.28,36.18 c 22.1,-4.26 44.45,-7.19 66.57,-11.29 2.81,5.04 5.79,10.22 10.63,13.58 7.59,5.73 17.48,6.72 26.69,6.47 0.39,18.82 -0.3,37.8 -4.66,56.19 -4.96,22.29 -15.18,43.67 -30.94,60.35 -3.66,4.08 -7.91,7.55 -11.89,11.3 C 104.67,166.92 91.27,159.3 80.19,148.81 56.5,126.97 42.2,96.91 33.35,66.37 c 8.19,-2.56 16.68,-6 22.21,-12.87 4.03,-4.88 6.1,-11.09 6.72,-17.32 m 7.24,7.23 c -2.26,12.96 -12.6,23.04 -24.55,27.67 -1.9,0.35 -0.55,2.26 -0.35,3.36 8.2,24.07 20.19,47.46 38.52,65.42 9.75,9.76 21.41,17.48 33.97,23.13 13.32,-11.94 23.59,-27.17 30.06,-43.84 8.16,-20.92 10.91,-43.6 10.7,-65.94 -6.1,-0.51 -12.26,-1.64 -17.78,-4.38 -6.61,-3.1 -11.9,-8.46 -15.64,-14.66 -18.28,3.26 -36.68,5.82 -54.93,9.24 z"
       id="path2"
       style="fill:#1e374a;fill-opacity:1" />
    <path
       fill="#000000"
       opacity="1"
       d="m 83.91,57.91 c 4.6,-6.18 12.52,-9.62 20.18,-8.82 10.35,0.87 19.54,9.56 20.47,20.01 1.04,6.87 -1.96,13.58 -6.44,18.64 6.14,12.89 12.24,25.81 18.32,38.73 -16.73,2.72 -33.45,5.51 -50.2,8.15 1.46,-14.48 3,-28.95 4.45,-43.43 C 79.22,84.86 75.83,68.2 83.91,57.91 Z"
       id="path3"
       style="fill:#1e374a;fill-opacity:1" />
  </g>
  <g
     id="#ffee4bff"
     style="display:inline">
    <path
       fill="#ffee4b"
       opacity="1"
       d="m 58.05,26.5 c 24.25,-3.57 48.39,-7.97 72.63,-11.6 6.79,12.01 18.91,20.62 32.41,23.3 3.73,0.93 7.57,1.07 11.36,1.61 -0.03,14.12 -0.54,28.25 -2.53,42.24 -3.74,27.4 -12.63,54.53 -28.65,77.28 -6.45,9.25 -14.03,17.7 -22.49,25.15 C 99.57,175.28 80.51,161.13 65.72,143.35 46.15,120.45 33.39,92.62 23.97,64.23 33.1,60.33 42.02,55.21 48.29,47.32 53.35,41.38 56.1,33.95 58.05,26.5 m 4.23,9.68 c -0.62,6.23 -2.69,12.44 -6.72,17.32 -5.53,6.87 -14.02,10.31 -22.21,12.87 8.85,30.54 23.15,60.6 46.84,82.44 11.08,10.49 24.48,18.11 38.49,23.97 3.98,-3.75 8.23,-7.22 11.89,-11.3 15.76,-16.68 25.98,-38.06 30.94,-60.35 4.36,-18.39 5.05,-37.37 4.66,-56.19 -9.21,0.25 -19.1,-0.74 -26.69,-6.47 -4.84,-3.36 -7.82,-8.54 -10.63,-13.58 -22.12,4.1 -44.47,7.03 -66.57,11.29 z"
       id="path4" />
  </g>
  <g
     id="#2184cdff"
     style="display:inline">
    <path
       fill="#2184cd"
       opacity="1"
       d="m 69.52,43.41 c 18.25,-3.42 36.65,-5.98 54.93,-9.24 3.74,6.2 9.03,11.56 15.64,14.66 5.52,2.74 11.68,3.87 17.78,4.38 0.21,22.34 -2.54,45.02 -10.7,65.94 -6.47,16.67 -16.74,31.9 -30.06,43.84 C 104.55,157.34 92.89,149.62 83.14,139.86 64.81,121.9 52.82,98.51 44.62,74.44 44.42,73.34 43.07,71.43 44.97,71.08 56.92,66.45 67.26,56.37 69.52,43.41 m 14.39,14.5 c -8.08,10.29 -4.69,26.95 6.78,33.28 -1.45,14.48 -2.99,28.95 -4.45,43.43 16.75,-2.64 33.47,-5.43 50.2,-8.15 -6.08,-12.92 -12.18,-25.84 -18.32,-38.73 4.48,-5.06 7.48,-11.77 6.44,-18.64 -0.93,-10.45 -10.12,-19.14 -20.47,-20.01 -7.66,-0.8 -15.58,2.64 -20.18,8.82 z"
       id="path5" />
  </g>
</svg>
