<?xml version="1.0" encoding="UTF-8" standalone="no"?>
<svg
   id="Layer_1"
   data-name="Layer 1"
   width="80"
   height="80"
   viewBox="0 0 80 80"
   version="1.1"
   sodipodi:docname="settings-icon.svg"
   inkscape:version="1.3.2 (091e20e, 2023-11-25, custom)"
   xmlns:inkscape="http://www.inkscape.org/namespaces/inkscape"
   xmlns:sodipodi="http://sodipodi.sourceforge.net/DTD/sodipodi-0.dtd"
   xmlns="http://www.w3.org/2000/svg"
   xmlns:svg="http://www.w3.org/2000/svg">
  <defs
     id="defs12" />
  <sodipodi:namedview
     id="namedview12"
     pagecolor="#ffffff"
     bordercolor="#000000"
     borderopacity="0.25"
     inkscape:showpageshadow="2"
     inkscape:pageopacity="0.0"
     inkscape:pagecheckerboard="0"
     inkscape:deskcolor="#d1d1d1"
     inkscape:zoom="6.3625"
     inkscape:cx="30.176817"
     inkscape:cy="40"
     inkscape:window-width="1360"
     inkscape:window-height="705"
     inkscape:window-x="-8"
     inkscape:window-y="-8"
     inkscape:window-maximized="1"
     inkscape:current-layer="Layer_1" />
  <title
     id="title1">settings-icon</title>
  <g
     id="setting_basic_0_Layer2_0_FILL"
     data-name="setting basic 0 Layer2 0 FILL"
     style="display:inline">
    <path
       d="m 64.6714,11.1381 a 1.4891,1.4891 0 0 0 -0.5677,-0.3785 24.2878,24.2878 0 0 0 -6.34,-1.7978 1.7887,1.7887 0 0 0 -0.5678,0.0946 0.919,0.919 0 0 0 -0.5677,0.3785 l -3.8794,4.6364 A 25.6526,25.6526 0 0 0 49.2479,13.1251 V 6.0286 A 1.2834,1.2834 0 0 0 48.964,5.177 1.2378,1.2378 0 0 0 48.3963,4.6093 22.5212,22.5212 0 0 0 37.2317,2.7169 34.1432,34.1432 0 0 0 26.7289,4.9878 1.4272,1.4272 0 0 0 26.1612,5.4609 1.2578,1.2578 0 0 0 25.8773,6.2178 v 8.0427 a 20.18,20.18 0 0 0 -5.8664,5.7718 l -7.8535,-2.8386 a 1.0029,1.0029 0 0 0 -0.8515,0 0.8851,0.8851 0 0 0 -0.6624,0.4731 40.9476,40.9476 0 0 0 -7.4749,19.5863 1.8259,1.8259 0 0 0 0.2838,0.9462 1.2742,1.2742 0 0 0 0.8516,0.4731 l 5.3933,0.9462 a 1.0956,1.0956 0 0 0 0.5678,0.2839 l 0.2838,0.0946 v 0.8516 a 27.3984,27.3984 0 0 0 1.23,8.3265 l -6.34,4.8256 a 1.2113,1.2113 0 0 0 -0.4731,0.757 0.8045,0.8045 0 0 0 0,0.7569 26.6937,26.6937 0 0 0 8.0432,10.9759 q 5.0984,4.3074 8.9889,5.0149 0.279,0.0609 0.5677,0.0946 a 2.6393,2.6393 0 0 0 0.5677,-0.1892 Q 23.4368,71.29 23.4172,71.127 l 5.2041,-5.9611 a 15.3474,15.3474 0 0 0 1.8924,1.0409 v 0.0946 a 0.2072,0.2072 0 0 0 0.0946,0 13.5872,13.5872 0 0 0 1.4193,0.5677 v 7.475 a 1.1663,1.1663 0 0 0 0.1892,0.6623 12.8264,12.8264 0 0 0 2.9332,1.4193 13.9626,13.9626 0 0 0 3.88,1.0408 1.2538,1.2538 0 0 0 0.6623,0.1893 31.1988,31.1988 0 0 0 3.5009,-0.1893 33.4587,33.4587 0 0 0 12.3952,-3.5009 0.97,0.97 0 0 0 0.5677,-0.4731 1.3648,1.3648 0 0 0 0.1893,-0.757 l -0.5678,-8.8 a 30.43,30.43 0 0 0 5.6772,-5.2041 q 0.0691,0 0.0947,-0.0946 0.0346,0.0056 0,-0.0946 l 7.0964,2.8386 a 1.293,1.293 0 0 0 0.9462,0 0.9338,0.9338 0 0 0 0.6624,-0.4731 38.8463,38.8463 0 0 0 6.6234,-16.937 1.2313,1.2313 0 0 0 -0.2839,-0.9462 1.2924,1.2924 0 0 0 -0.757,-0.5677 l -6.8126,-1.7031 q 0.0972,-1.0883 0.0946,-2.2709 A 30.2206,30.2206 0 0 0 68.1728,30.724 l 6.34,-3.4064 a 1.11,1.11 0 0 0 0.6623,-0.6623 1.3184,1.3184 0 0 0 0,-0.9462 32.3285,32.3285 0 0 0 -7.9481,-12.3952 19.8521,19.8521 0 0 0 -2.46,-2.0816 0.1961,0.1961 0 0 0 -0.0946,-0.0946 m -3.1224,0.4731 0.6623,0.4731 0.1892,0.7569 -0.0946,0.5677 -0.5677,0.6624 -1.5139,1.4193 -0.8516,1.1354 -0.3785,0.3785 -0.6623,0.2839 -0.4731,-0.0947 a 2.7668,2.7668 0 0 1 -0.9462,-0.5677 l -1.1355,-0.2838 -1.1354,-0.5678 -0.4731,-0.3784 -0.0946,-0.6624 0.0946,-0.5677 2.46,-2.2709 0.2839,-0.5677 a 1.7429,1.7429 0 0 1 1.4193,-0.4731 l 1.4193,0.2839 H 60.13 l 0.7569,0.1892 0.6624,0.2839 m 1.1354,2.3655 a 3.7669,3.7669 0 0 1 1.1354,-0.9462 q 1.0408,-0.1893 2.2709,1.23 a 32.0826,32.0826 0 0 1 4.6364,5.5826 30.0406,30.0406 0 0 1 2.2708,4.5417 2.1993,2.1993 0 0 1 0.2839,1.3247 q -0.1892,0.7571 -1.7031,1.4193 a 2.7692,2.7692 0 0 1 -1.4193,0.2839 1.1608,1.1608 0 0 1 -0.4731,-0.1893 1.32,1.32 0 0 1 -0.3785,0.757 l -2.6494,1.3247 -0.6623,0.1892 a 0.8183,0.8183 0 0 1 -0.3785,-0.0946 0.6065,0.6065 0 0 0 0.0946,0.0946 4.5833,4.5833 0 0 1 1.0408,2.0816 16.5012,16.5012 0 0 1 0.5678,6.0557 l -0.0947,1.987 a 3.21,3.21 0 0 0 0.8516,1.7978 5.8055,5.8055 0 0 0 1.3247,0.6623 l 3.69,1.23 q 1.6085,0.3785 1.7977,1.3247 a 4.081,4.081 0 0 1 -0.0946,1.4193 81.8924,81.8924 0 0 1 -4.0686,11.5436 1.7989,1.7989 0 0 1 -0.8516,1.0408 l -0.8516,0.2838 a 1.448,1.448 0 0 1 -0.8516,0.0947 0.9675,0.9675 0 0 1 -0.6623,-0.5678 0.8434,0.8434 0 0 1 -0.5677,0.4731 H 66.6585 A 3.99,3.99 0 0 1 65.05,58.2582 l -0.8516,-0.3785 q -0.8516,-0.3785 -1.23,-0.5677 A 3.6768,3.6768 0 0 1 61.6437,56.4604 L 61.076,55.9873 a 4.7672,4.7672 0 0 1 -0.757,0.757 11.0826,11.0826 0 0 0 -1.514,1.3257 l -4.4471,4.2579 q -0.3786,0.1891 -0.3785,0.4731 l -0.0946,0.5677 a 52.8942,52.8942 0 0 0 0.5677,7.8534 3.7138,3.7138 0 0 1 -0.0946,1.1354 0.8832,0.8832 0 0 1 -0.6624,0.6624 0.9889,0.9889 0 0 1 -1.0408,-0.1893 q -0.89,0.89 -1.6085,0.2839 -0.1179,0.0411 -0.2839,0.0946 a 0.5814,0.5814 0 0 1 0,0.4731 q -0.0947,0.4731 -1.1354,0.8516 a 68.4047,68.4047 0 0 1 -7.6642,1.1354 3.18,3.18 0 0 1 -1.4193,-0.1892 2.39,2.39 0 0 1 -0.757,-1.7032 q -0.0417,-0.456 -0.0946,-0.9462 l -0.0946,0.3785 v 0.5677 l -0.1893,1.0409 A 1.1965,1.1965 0 0 1 38.8402,75.48 l -0.3785,0.0946 a 4.658,4.658 0 0 1 -1.3246,0 l -1.23,-0.2838 -1.5139,-0.5678 Q 33.8255,74.5339 33.7309,74.1553 A 1.5322,1.5322 0 0 1 33.447,73.2091 l 0.0946,-1.1354 -0.0946,-0.6623 -0.0946,-0.3785 -0.0946,-0.8516 v -0.4731 a 6.3181,6.3181 0 0 1 0.0946,-1.7978 1.1069,1.1069 0 0 1 0.3785,-0.9462 9.6873,9.6873 0 0 0 1.0408,-0.2838 h 0.0946 l 1.3247,0.2838 1.0408,0.0946 a 10.39,10.39 0 0 0 1.23,0.1893 l 0.4731,0.2838 0.2839,0.4731 0.2839,0.8516 0.0946,1.0408 q 0.0144,-1.5324 0.0946,-3.217 A 20.18,20.18 0 0 1 29,63.3682 l -0.4731,-0.1893 a 1.0382,1.0382 0 0 0 -0.6624,0.3785 l -4.731,4.6364 a 2.7674,2.7674 0 0 1 -1.1354,0.6623 1.9085,1.9085 0 0 1 -1.3247,-0.6623 29.2014,29.2014 0 0 1 -3.5955,-4.0687 L 14.05,59.3 a 2.2913,2.2913 0 0 1 -0.4731,-1.4193 2.0157,2.0157 0 0 1 0.9462,-1.4193 l 5.3934,-4.8256 a 49.0217,49.0217 0 0 1 -1.7032,-11.5436 29.83,29.83 0 0 0 -5.2041,-1.5139 2.7147,2.7147 0 0 1 -1.4193,-0.6623 1.3452,1.3452 0 0 1 -0.2838,-1.3247 14.2238,14.2238 0 0 1 0.4731,-2.3655 35.7385,35.7385 0 0 1 3.217,-8.3265 1.1245,1.1245 0 0 1 0.6624,-0.5678 0.778,0.778 0 0 1 0.6623,0.1893 0.23,0.23 0 0 0 0.0946,-0.0946 2.5986,2.5986 0 0 1 -0.1892,-1.0409 2.1755,2.1755 0 0 1 0.5677,-1.6085 2.7331,2.7331 0 0 1 1.987,-0.2839 l 4.8254,1.9871 a 1.1839,1.1839 0 0 0 0.757,0.0946 l 0.3785,-0.2839 2.1762,-2.6493 a 32.7113,32.7113 0 0 1 5.8665,-4.4472 2.336,2.336 0 0 1 1.3246,-0.5677 h 0.3785 a 0.0762,0.0762 0 0 1 -0.0946,0 L 33.92,16.1534 33.8254,15.7749 q -0.1893,-0.1891 0,-0.4731 v -0.4731 l -0.0946,-0.9462 -0.0947,-0.0946 v -0.1892 l -0.0946,-0.757 V 11.8 l 0.0946,-0.3785 V 10.665 L 33.7308,10.4757 33.92,10.1919 A 0.2075,0.2075 0 0 0 34.0146,10.0973 1.16,1.16 0 0 1 33.7308,9.7188 Q 33.4468,8.8672 34.4877,8.2049 A 9,9 0 0 1 39.03,6.7856 q 1.6084,-0.0946 4.7309,-0.1893 2.46,-0.1892 3.2171,0.6624 a 6.0126,6.0126 0 0 1 0.4731,1.5139 L 47.64,12.652 a 3.06,3.06 0 0 0 0.2838,1.5139 2.7064,2.7064 0 0 0 1.7032,0.6623 35.9212,35.9212 0 0 1 8.2319,3.2171 l 0.8516,0.1893 0.5677,-0.4731 3.4063,-3.7848 M 38.4617,4.42 39.4079,4.5146 q 0.3786,0.0946 0.5678,0.6623 0,0.6624 -1.23,1.0408 l -4.92,1.23 -0.5677,0.2839 -0.1893,0.4731 a 9.4788,9.4788 0 0 0 -0.0946,3.1224 18.0424,18.0424 0 0 1 0.0946,3.0278 1.8827,1.8827 0 0 1 -0.2838,1.1355 1.6643,1.6643 0 0 1 -0.5678,0.5677 v 0.0946 q -0.8182,0.5008 -1.6085,1.0408 a 34.0066,34.0066 0 0 0 -5.2987,5.11 4.0462,4.0462 0 0 1 -1.5139,1.1354 1.6239,1.6239 0 0 1 -1.4193,-0.0946 4.9375,4.9375 0 0 1 -1.7032,-1.23 0.8453,0.8453 0 0 1 -0.3785,-0.8516 0.5452,0.5452 0 0 1 0.1893,-0.3785 0.6094,0.6094 0 0 1 0.4731,0 10.7094,10.7094 0 0 1 5.961,-5.7718 l 0.4731,-0.2839 0.0946,-0.5677 -0.0946,-5.3933 A 3.7071,3.7071 0 0 1 27.9592,6.502 4.8065,4.8065 0 0 1 30.6086,5.4612 l 1.987,-0.4731 A 9.7153,9.7153 0 0 1 34.9611,4.7042 L 38.4617,4.42 m -24.5065,15.5177 1.23,0.3785 a 1.446,1.446 0 0 1 0.9462,0.7569 2.78,2.78 0 0 1 -0.6624,1.9871 q -2.3655,3.3117 -4.4471,10.5974 L 10.36,35.9284 a 8.6865,8.6865 0 0 1 -0.5677,1.3247 1.5257,1.5257 0 0 1 -1.1355,0.757 H 7.9 L 6.1022,37.6316 a 2.5786,2.5786 0 0 1 -1.23,-0.4731 1.1939,1.1939 0 0 1 -0.3785,-1.23 3.05,3.05 0 0 1 0.3785,-1.3246 L 5.2507,33.7523 V 32.806 A 16.5789,16.5789 0 0 1 5.7238,29.8728 24.5646,24.5646 0 0 1 8.278,24.5741 l 2.3655,-4.1633 q 0.6624,-1.0408 1.1355,-1.1354 0.4731,-0.1893 2.1762,0.6623 m -1.7978,19.87 a 1.2736,1.2736 0 0 1 1.6086,-0.3785 l 3.0278,1.3247 a 2.0261,2.0261 0 0 1 0.5677,1.23 35.3257,35.3257 0 0 1 0.4731,3.7848 16.512,16.512 0 0 0 0.6624,3.7848 q 0.2838,1.4193 0.2838,1.5139 a 3.5542,3.5542 0 0 1 -1.1354,1.7032 30.9529,30.9529 0 0 1 -4.5418,3.5955 l -0.4731,0.4731 a 1.4488,1.4488 0 0 0 0.0947,0.8516 39.4394,39.4394 0 0 0 4.5417,7.6642 5.4452,5.4452 0 0 1 0.757,1.1354 q 0.1891,0.8516 -0.3785,1.1355 -0.4731,0.3785 -1.5139,-0.2839 A 25.3522,25.3522 0 0 1 7.6157,57.7854 5.3868,5.3868 0 0 1 7.048,56.0823 3.9882,3.9882 0 0 1 7.9,53.9062 l 1.892,-1.5139 3.69,-2.3655 a 78.3737,78.3737 0 0 1 -1.5139,-8.8 1.6893,1.6893 0 0 1 0.1892,-1.4192 m 38.51,-10.3136 q -0.2817,0.6458 -1.23,0.4731 A 3.2349,3.2349 0 0 1 47.9237,29.4 9.91,9.91 0 0 0 42.72,28.3589 a 9.6007,9.6007 0 0 0 -5.11,1.6085 12.0866,12.0866 0 0 0 -4.5418,6.2449 18.09,18.09 0 0 0 -0.4731,7.6642 q 0.4731,1.7978 0.5677,2.0816 l 1.1355,1.7032 a 13.9448,13.9448 0 0 0 5.0148,3.8794 q 1.2792,0.8224 1.23,1.4193 a 10.2434,10.2434 0 0 0 3.1224,0.1892 12.22,12.22 0 0 0 8.4212,-4.5417 13.4547,13.4547 0 0 0 3.5009,-9.1781 11.8983,11.8983 0 0 0 -3.5009,-8.8 H 51.9921 A 10.4006,10.4006 0 0 0 50.6674,29.494 m -2.6494,2.9332 a 7.5637,7.5637 0 0 1 -0.9462,-1.0408 1.0808,1.0808 0 0 1 0.2839,-1.1354 1.9547,1.9547 0 0 1 1.7031,-0.2839 5.2648,5.2648 0 0 1 2.744,2.46 14.3615,14.3615 0 0 1 1.4193,2.8386 l 0.2839,1.1354 0.284,4.0689 a 6.8794,6.8794 0 0 1 -0.2838,1.987 7.31,7.31 0 0 1 -1.5139,3.2171 l -1.1354,1.3249 a 16.0049,16.0049 0 0 1 -6.6234,4.2578 q -1.4193,0.3786 -1.987,-0.1892 a 0.8717,0.8717 0 0 1 0.0946,-1.3247 4.0243,4.0243 0 0 1 0.5678,-0.3784 9.5933,9.5933 0 0 0 3.8794,-3.4064 20.7455,20.7455 0 0 0 2.2708,-4.731 9.9991,9.9991 0 0 0 0.4731,-2.7439 12.1542,12.1542 0 0 0 -0.4731,-3.5956 5.0068,5.0068 0 0 0 -1.0408,-2.46 m -2.7439,-1.0408 v 0 a 9.4781,9.4781 0 0 1 2.7439,6.9072 10.9664,10.9664 0 0 1 -2.8386,7.475 9.673,9.673 0 0 1 -6.6233,3.5956 q -0.1179,6e-4 -0.2839,0 a 10.8741,10.8741 0 0 1 -1.4193,-1.23 h -0.0946 a 9.3219,9.3219 0 0 1 -2.6494,-6.9073 6.3066,6.3066 0 0 1 0.0946,-0.9461 0.78,0.78 0 0 0 0,-0.0947 11.0875,11.0875 0 0 1 2.6494,-6.4341 9.5618,9.5618 0 0 1 6.8126,-3.5009 H 43.76 a 9.4359,9.4359 0 0 1 1.5144,1.1352 z"
       id="path1"
       style="display:inline" />
    <path
       d="m 13.766,39.4294 a 1.2736,1.2736 0 0 0 -1.6086,0.3785 1.6893,1.6893 0 0 0 -0.1892,1.4192 78.3737,78.3737 0 0 0 1.5139,8.8 L 9.7921,52.3926 7.9,53.9062 a 3.9882,3.9882 0 0 0 -0.8516,2.1763 5.3868,5.3868 0 0 0 0.5677,1.7031 25.3522,25.3522 0 0 0 8.5158,9.5566 q 1.0408,0.6624 1.5139,0.2839 0.5678,-0.2839 0.3785,-1.1355 a 5.4452,5.4452 0 0 0 -0.757,-1.1354 39.4394,39.4394 0 0 1 -4.5417,-7.6642 1.4488,1.4488 0 0 1 -0.0947,-0.8516 l 0.4731,-0.4731 a 30.9529,30.9529 0 0 0 4.5418,-3.5955 3.5542,3.5542 0 0 0 1.1354,-1.7032 q 0,-0.0947 -0.2838,-1.5139 a 16.512,16.512 0 0 1 -0.6624,-3.7848 35.3257,35.3257 0 0 0 -0.4731,-3.7848 2.0261,2.0261 0 0 0 -0.5677,-1.23 L 13.766,39.4294 m 1.4193,-19.1132 -1.23,-0.3785 q -1.7031,-0.8515 -2.1762,-0.6623 -0.4731,0.0945 -1.1355,1.1354 L 8.278,24.5741 A 24.5646,24.5646 0 0 0 5.7233,29.8728 16.5789,16.5789 0 0 0 5.25,32.806 v 0.9462 l -0.3785,0.8516 a 3.05,3.05 0 0 0 -0.3785,1.3246 1.1939,1.1939 0 0 0 0.3785,1.23 2.5786,2.5786 0 0 0 1.23,0.4731 L 7.9,38.01 h 0.7569 a 1.5257,1.5257 0 0 0 1.1355,-0.757 8.6865,8.6865 0 0 0 0.5677,-1.3247 l 0.6623,-2.2708 q 2.0817,-7.2858 4.4471,-10.5974 A 2.78,2.78 0 0 0 16.1319,21.073 1.446,1.446 0 0 0 15.1857,20.3161 M 39.4079,4.5147 38.4617,4.42 34.9608,4.7038 a 9.7153,9.7153 0 0 0 -2.3655,0.2839 l -1.987,0.4731 a 4.8065,4.8065 0 0 0 -2.6494,1.0408 3.7071,3.7071 0 0 0 -0.5677,2.3655 l 0.0946,5.3933 -0.0946,0.5677 -0.4731,0.2839 a 10.7094,10.7094 0 0 0 -5.961,5.7718 0.6094,0.6094 0 0 0 -0.4731,0 0.5452,0.5452 0 0 0 -0.1893,0.3785 0.8453,0.8453 0 0 0 0.3785,0.8516 4.9375,4.9375 0 0 0 1.7032,1.23 1.6239,1.6239 0 0 0 1.4193,0.0946 4.0462,4.0462 0 0 0 1.5143,-1.1353 34.0066,34.0066 0 0 1 5.2987,-5.11 q 0.79,-0.54 1.6085,-1.0408 v -0.0946 a 1.6643,1.6643 0 0 0 0.5678,-0.5677 1.8827,1.8827 0 0 0 0.2838,-1.1355 18.0424,18.0424 0 0 0 -0.0946,-3.0278 9.4788,9.4788 0 0 1 0.0946,-3.1224 l 0.1893,-0.4731 0.5677,-0.2839 4.92,-1.23 q 1.23,-0.3785 1.23,-1.0408 Q 39.7865,4.6088 39.408,4.5143 m 0.0947,64.3414 -0.2839,-0.8516 -0.2839,-0.4731 -0.4731,-0.2838 a 10.39,10.39 0 0 1 -1.23,-0.1893 L 36.191,66.9633 34.8662,66.68 h -0.0946 a 9.6873,9.6873 0 0 1 -1.0408,0.2838 1.1069,1.1069 0 0 0 -0.3785,0.9462 6.3181,6.3181 0 0 0 -0.0946,1.7978 v 0.4731 l 0.0946,0.8516 0.0946,0.3785 0.0946,0.6623 -0.0946,1.1354 a 1.5322,1.5322 0 0 0 0.2839,0.9462 q 0.0945,0.3785 0.6623,0.5677 l 1.5139,0.5678 1.23,0.2838 a 4.658,4.658 0 0 0 1.3246,0 L 38.84,75.48 a 1.1965,1.1965 0 0 0 0.5677,-0.6623 l 0.1893,-1.0409 v -0.5677 l 0.0946,-0.3785 V 72.736 q -0.08,-1.32 -0.0946,-2.8386 l -0.0946,-1.0408 m 7.5695,-37.4694 a 7.5637,7.5637 0 0 0 0.9462,1.0408 5.0068,5.0068 0 0 1 1.0408,2.46 12.1542,12.1542 0 0 1 0.4731,3.5956 9.9991,9.9991 0 0 1 -0.4731,2.7439 20.7455,20.7455 0 0 1 -2.2708,4.731 9.5933,9.5933 0 0 1 -3.8794,3.4064 4.0243,4.0243 0 0 0 -0.5678,0.3784 0.8717,0.8717 0 0 0 -0.0946,1.3247 q 0.5678,0.5678 1.987,0.1892 a 16.0049,16.0049 0 0 0 6.6234,-4.2578 l 1.1355,-1.3247 A 7.31,7.31 0 0 0 53.5061,42.4576 6.8794,6.8794 0 0 0 53.79,40.47 l -0.2838,-4.0687 -0.2839,-1.1354 a 14.3615,14.3615 0 0 0 -1.4193,-2.8386 5.2648,5.2648 0 0 0 -2.744,-2.46 1.9547,1.9547 0 0 0 -1.7031,0.2839 1.0808,1.0808 0 0 0 -0.2839,1.1354 M 62.2113,12.0843 61.549,11.6112 60.8866,11.3273 60.1297,11.1381 h -0.3785 l -1.4193,-0.2839 a 1.7429,1.7429 0 0 0 -1.4193,0.4731 l -0.2839,0.5677 -2.46,2.2709 -0.0946,0.5677 0.0946,0.6624 0.4731,0.3784 1.1354,0.5678 1.1355,0.2838 a 2.7668,2.7668 0 0 0 0.9462,0.5677 l 0.4731,0.0947 0.6623,-0.2839 0.3785,-0.3785 0.8516,-1.1354 1.5139,-1.4193 0.5677,-0.6624 0.0946,-0.5677 z"
       fill="#6c6f63"
       id="path2"
       style="display:inline" />
    <path
       d="m 16.4153,25.4257 a 1.9356,1.9356 0 0 0 0.1893,0.2838 3.6089,3.6089 0 0 0 0.8516,0.757 31.9865,31.9865 0 0 0 4.4471,2.1762 4.38,4.38 0 0 0 5.2987,-0.7569 l 8.61,-8.2319 q 0.8516,-0.8517 0.7569,-1.4193 -0.0945,-0.3786 -0.9462,-1.0409 a 4.8114,4.8114 0 0 0 -0.7569,-0.3784 h -0.0946 q -0.132,-0.0828 -0.2839,-0.1893 h -0.3785 a 2.336,2.336 0 0 0 -1.3246,0.5677 32.7113,32.7113 0 0 0 -5.8665,4.4472 l -2.1758,2.6491 -0.3785,0.2839 a 1.1839,1.1839 0 0 1 -0.757,-0.0946 l -4.8256,-1.9871 a 2.7331,2.7331 0 0 0 -1.987,0.2839 2.1755,2.1755 0 0 0 -0.5677,1.6085 2.5986,2.5986 0 0 0 0.1892,1.0409 m 44.6606,30.5623 -0.1893,-0.1892 -0.0946,-0.2839 0.0946,-0.2838 q 0.1893,-0.3784 0.3785,-0.3785 a 0.1854,0.1854 0 0 0 0.0946,-0.0946 1.8693,1.8693 0 0 0 -0.6623,-0.6624 2.5382,2.5382 0 0 0 -2.744,-0.2838 8.3321,8.3321 0 0 0 -1.5134,1.1354 l -5.0149,5.8664 a 5.7934,5.7934 0 0 0 -1.5139,3.3117 l 0.757,7.475 a 2.2463,2.2463 0 0 0 0.2838,1.4193 l 0.0947,0.0946 q 0.7185,0.6061 1.6085,-0.2839 a 0.9889,0.9889 0 0 0 1.0408,0.1893 0.8832,0.8832 0 0 0 0.6624,-0.6624 3.7138,3.7138 0 0 0 0.0946,-1.1354 52.8942,52.8942 0 0 1 -0.5677,-7.8534 l 0.0946,-0.5677 q 0,-0.284 0.3785,-0.4731 L 58.805,58.07 a 11.0826,11.0826 0 0 1 1.5139,-1.3247 4.7672,4.7672 0 0 0 0.757,-0.757 m 4.6363,-26.4935 a 0.6065,0.6065 0 0 1 -0.0946,-0.0946 0.7428,0.7428 0 0 1 -0.3785,-0.2839 h -0.0946 a 1.7445,1.7445 0 0 0 -0.7569,-0.1892 1.8319,1.8319 0 0 0 -1.6086,1.3247 7.5118,7.5118 0 0 0 -0.1892,2.1762 l 0.1892,6.812 q 0.1893,3.3117 1.0408,4.3525 a 6.0694,6.0694 0 0 0 3.2171,1.8924 20.6863,20.6863 0 0 1 3.5956,1.3251 25.2662,25.2662 0 0 1 -2.2709,8.2319 22.7292,22.7292 0 0 0 -0.8516,2.1763 l 0.0946,0.0946 0.1893,0.6623 -0.1893,0.3785 a 0.11,0.11 0 0 1 -0.0946,0.0946 0.9675,0.9675 0 0 0 0.6623,0.5678 1.448,1.448 0 0 0 0.8516,-0.0947 l 0.8516,-0.2838 a 1.7989,1.7989 0 0 0 0.8516,-1.0408 81.8924,81.8924 0 0 0 4.0686,-11.5436 4.081,4.081 0 0 0 0.0946,-1.4193 q -0.1891,-0.9462 -1.7977,-1.3247 l -3.69,-1.23 A 5.8055,5.8055 0 0 1 68.0779,41.4168 3.21,3.21 0 0 1 67.2263,39.619 L 67.321,37.632 A 16.5012,16.5012 0 0 0 66.7532,31.5763 4.5833,4.5833 0 0 0 65.7124,29.4947 M 50.3838,27.98 q -1.7031,-2.3655 -6.0556,-2.3655 a 16.2794,16.2794 0 0 0 -9.8405,3.0278 13.8832,13.8832 0 0 0 -5.6772,9.7459 19.741,19.741 0 0 0 -0.1892,3.217 10.1271,10.1271 0 0 0 0.2838,2.46 12.5893,12.5893 0 0 0 2.5548,4.731 24.65,24.65 0 0 0 3.3117,3.4063 7.0238,7.0238 0 0 0 4.3525,1.6086 q 1.1354,0 1.4193,-0.757 V 52.96 q 0.0491,-0.597 -1.23,-1.4193 A 13.9448,13.9448 0 0 1 34.2986,47.6613 L 33.163,45.9581 q -0.0945,-0.2838 -0.5677,-2.0816 a 18.09,18.09 0 0 1 0.4731,-7.6642 12.0866,12.0866 0 0 1 4.5416,-6.2449 9.6007,9.6007 0 0 1 5.11,-1.6085 9.91,9.91 0 0 1 5.2037,1.0411 3.2349,3.2349 0 0 0 1.5139,0.5677 q 0.9484,0.1726 1.23,-0.4731 0.4128,0.285 0.7569,0.5677 a 8.5485,8.5485 0 0 0 -0.6623,-0.7569 q 0.24,-0.53 -0.3785,-1.3247 m 13.436,-14.95 a 3.7669,3.7669 0 0 0 -1.1354,0.9462 l -3.4063,3.7848 -0.5677,0.4731 -0.8516,-0.1893 A 35.9212,35.9212 0 0 0 49.6268,14.8284 2.7064,2.7064 0 0 1 47.9236,14.1661 3.06,3.06 0 0 1 47.64,12.652 L 47.4507,8.7726 A 6.0126,6.0126 0 0 0 46.9776,7.2587 Q 46.2207,6.407 43.7605,6.5963 40.6381,6.6909 39.0296,6.7856 A 9,9 0 0 0 34.4878,8.2049 Q 33.447,8.8671 33.7309,9.7188 a 1.16,1.16 0 0 0 0.2838,0.3785 1.4176,1.4176 0 0 1 1.4193,0.1892 29.8967,29.8967 0 0 0 3.1225,-0.6623 19.6172,19.6172 0 0 1 3.1224,-0.5678 2.0735,2.0735 0 0 1 1.5139,0.4731 2.36,2.36 0 0 1 0.1892,1.0405 l 0.3784,5.6771 a 3.875,3.875 0 0 0 0.5678,1.9871 3.4451,3.4451 0 0 0 1.987,0.7569 22.5237,22.5237 0 0 1 7.6642,2.1763 q 0.7569,0.4731 2.0816,1.3246 a 3.7274,3.7274 0 0 0 2.2709,0.6624 4.2938,4.2938 0 0 0 2.9332,-1.5139 27.3853,27.3853 0 0 1 2.5549,-2.3651 5.8531,5.8531 0 0 1 2.46,2.3655 l 1.1355,2.5547 a 7.6661,7.6661 0 0 0 1.1354,1.987 1.3709,1.3709 0 0 1 0.4731,0 1.187,1.187 0 0 1 0.6624,0.8516 v 0.1892 a 1.1608,1.1608 0 0 0 0.4731,0.1893 2.7692,2.7692 0 0 0 1.4193,-0.2839 q 1.5138,-0.6624 1.7031,-1.4193 A 2.1993,2.1993 0 0 0 72.998,24.3848 30.0406,30.0406 0 0 0 70.7272,19.8431 32.0826,32.0826 0 0 0 66.0908,14.2605 q -1.2301,-1.4193 -2.2708,-1.23 z"
       fill="#ffffff"
       id="path3"
       style="display:inline" />
    <path
       d="m 63.82,19.2754 a 27.3853,27.3853 0 0 0 -2.5547,2.3655 4.2938,4.2938 0 0 1 -2.9332,1.5139 3.7274,3.7274 0 0 1 -2.2709,-0.6624 q -1.3246,-0.8515 -2.0816,-1.3246 a 22.5237,22.5237 0 0 0 -7.6642,-2.1763 3.4451,3.4451 0 0 1 -1.987,-0.7569 3.875,3.875 0 0 1 -0.5678,-1.9871 L 43.382,10.57 A 2.36,2.36 0 0 0 43.1927,9.53 2.0735,2.0735 0 0 0 41.6788,9.0569 19.6172,19.6172 0 0 0 38.5564,9.6247 29.8967,29.8967 0 0 1 35.4339,10.287 1.4176,1.4176 0 0 0 34.0146,10.0978 0.2075,0.2075 0 0 1 33.92,10.1924 l -0.1892,0.2838 -0.0947,0.1893 v 0.7569 l -0.0946,0.3785 v 1.0408 l 0.0946,0.757 v 0.1892 l 0.0947,0.0946 0.0946,0.9462 v 0.4731 q -0.1893,0.284 0,0.4731 l 0.0946,0.3785 0.4731,0.4731 a 0.0762,0.0762 0 0 0 0.0946,0 q 0.152,0.1065 0.2839,0.1893 h 0.0946 a 4.8114,4.8114 0 0 1 0.7569,0.3784 q 0.8517,0.6624 0.9462,1.0409 0.0947,0.5676 -0.7569,1.4193 l -8.61,8.2319 a 4.38,4.38 0 0 1 -5.2987,0.7569 31.9865,31.9865 0 0 1 -4.4471,-2.1762 3.6089,3.6089 0 0 1 -0.8516,-0.757 1.9356,1.9356 0 0 1 -0.1893,-0.2838 0.23,0.23 0 0 1 -0.0946,0.0946 0.778,0.778 0 0 0 -0.6623,-0.1893 1.1245,1.1245 0 0 0 -0.6624,0.5678 35.7385,35.7385 0 0 0 -3.217,8.3265 14.2238,14.2238 0 0 0 -0.4731,2.3655 1.3452,1.3452 0 0 0 0.2838,1.3247 2.7147,2.7147 0 0 0 1.4193,0.6623 29.83,29.83 0 0 1 5.2041,1.5139 49.0217,49.0217 0 0 0 1.7032,11.5436 l -5.3934,4.8256 A 2.0157,2.0157 0 0 0 13.5771,57.8807 2.2913,2.2913 0 0 0 14.05,59.3 l 3.0279,4.8256 a 29.2014,29.2014 0 0 0 3.5955,4.0687 1.9085,1.9085 0 0 0 1.3247,0.6623 2.7674,2.7674 0 0 0 1.1354,-0.6623 l 4.731,-4.6364 a 1.0382,1.0382 0 0 1 0.6624,-0.3785 L 29,63.3682 A 20.18,20.18 0 0 0 39.6918,66.68 q -0.08,1.6846 -0.0946,3.217 0.0144,1.5187 0.0946,2.8386 V 72.83 q 0.0528,0.49 0.0946,0.9462 a 2.39,2.39 0 0 0 0.757,1.7032 3.18,3.18 0 0 0 1.4193,0.1892 68.4047,68.4047 0 0 0 7.6642,-1.1354 q 1.0407,-0.3784 1.1354,-0.8516 a 0.5814,0.5814 0 0 0 0,-0.4731 q 0.1659,-0.0536 0.2839,-0.0946 L 50.9515,73.0193 A 2.2463,2.2463 0 0 1 50.6677,71.6 l -0.757,-7.475 a 5.7934,5.7934 0 0 1 1.5139,-3.3117 L 56.44,54.947 a 8.3321,8.3321 0 0 1 1.5139,-1.1354 2.5382,2.5382 0 0 1 2.744,0.2838 1.8693,1.8693 0 0 1 0.6623,0.6624 0.1854,0.1854 0 0 1 -0.0946,0.0946 q -0.1893,0 -0.3785,0.3785 l -0.0946,0.2838 0.0946,0.2839 0.1893,0.1892 0.5677,0.4731 a 3.6768,3.6768 0 0 0 1.3247,0.8516 q 0.3785,0.1893 1.23,0.5677 l 0.8516,0.3785 a 3.99,3.99 0 0 0 1.6085,0.6623 h 0.2839 a 0.8434,0.8434 0 0 0 0.5677,-0.4731 0.11,0.11 0 0 0 0.0946,-0.0946 l 0.1893,-0.3785 -0.1893,-0.6623 -0.0946,-0.0946 A 22.7292,22.7292 0 0 1 68.3621,55.0416 25.2662,25.2662 0 0 0 70.6325,46.81 20.6863,20.6863 0 0 0 67.0369,45.4853 6.0694,6.0694 0 0 1 63.82,43.5926 Q 62.9684,42.5519 62.7792,39.2401 L 62.59,32.4275 a 7.5118,7.5118 0 0 1 0.1892,-2.1762 1.8319,1.8319 0 0 1 1.6086,-1.3247 1.7445,1.7445 0 0 1 0.7569,0.1892 h 0.0946 a 0.7428,0.7428 0 0 0 0.3785,0.2839 0.8183,0.8183 0 0 0 0.3785,0.0946 l 0.6623,-0.1892 2.6492,-1.3251 a 1.32,1.32 0 0 0 0.3785,-0.757 v -0.1892 a 1.187,1.187 0 0 0 -0.6624,-0.8516 1.3709,1.3709 0 0 0 -0.4731,0 7.6661,7.6661 0 0 1 -1.1354,-1.987 L 66.28,21.6409 a 5.8531,5.8531 0 0 0 -2.46,-2.3655 m -19.4918,6.3395 q 4.3524,0 6.0556,2.3655 0.6185,0.795 0.3785,1.3247 a 8.5485,8.5485 0 0 1 0.6623,0.7569 q -0.3441,-0.2828 -0.7569,-0.5677 a 10.4006,10.4006 0 0 1 1.3247,1.1357 h 0.0946 a 11.8983,11.8983 0 0 1 3.5009,8.8 13.4547,13.4547 0 0 1 -3.5009,9.1781 12.22,12.22 0 0 1 -8.4212,4.5417 10.2434,10.2434 0 0 1 -3.1224,-0.1892 v 0.0946 q -0.2839,0.757 -1.4193,0.757 a 7.0238,7.0238 0 0 1 -4.3525,-1.6086 24.65,24.65 0 0 1 -3.3116,-3.4069 12.5893,12.5893 0 0 1 -2.5548,-4.731 10.1271,10.1271 0 0 1 -0.2838,-2.46 19.741,19.741 0 0 1 0.1892,-3.217 13.8832,13.8832 0 0 1 5.6772,-9.7459 16.2794,16.2794 0 0 1 9.8404,-3.0279 z"
       fill="#cfd1d5"
       id="path4"
       style="display:inline" />
  </g>
  <g
     id="setting_basic_0_Layer1_0_FILL"
     data-name="setting basic 0 Layer1 0 FILL"
     style="display:inline">
    <path
       d="m 46.9775,60.7188 a 1.1666,1.1666 0 0 0 -0.1892,0.6624 l 0.5677,8.705 q -1.6086,0.7569 -2.9332,1.5139 -2.9333,1.6085 -5.0149,3.0278 a 14.54,14.54 0 0 1 -4.731,-1.0408 V 65.2606 A 0.9963,0.9963 0 0 0 34.2985,64.409 1.085,1.085 0 0 0 33.4469,63.9359 15.0742,15.0742 0 0 1 31.176,63.652 2.85,2.85 0 0 1 31.0814,64.5036 l -0.5677,1.7978 q 0.7491,0.1113 1.5139,0.1892 v 7.8535 a 1.1663,1.1663 0 0 0 0.1892,0.6623 12.8264,12.8264 0 0 0 2.9332,1.4193 13.3139,13.3139 0 0 0 4.731,1.1354 3.9771,3.9771 0 0 0 2.9332,-1.4193 q 1.1355,-1.4193 6.5288,-4.0686 a 1.43,1.43 0 0 0 0.4731,-0.5677 1.68,1.68 0 0 0 0.1892,-0.757 l -0.4731,-8.8 a 42.3826,42.3826 0 0 0 5.6772,-5.11 v -0.0946 l 0.0946,-0.0946 1.4193,0.5677 a 1.4755,1.4755 0 0 0 1.0409,0 1.1431,1.1431 0 0 0 0.6623,-0.6623 1.4755,1.4755 0 0 0 0,-1.0409 1.1484,1.1484 0 0 0 -0.6623,-0.7569 l -2.2709,-0.9462 a 1.5373,1.5373 0 0 0 -0.757,0 1.023,1.023 0 0 0 -0.7569,0.2838 6.8064,6.8064 0 0 0 -0.8516,1.0409 34.4082,34.4082 0 0 1 -5.7718,5.1094 0.9125,0.9125 0 0 0 -0.3785,0.4731 M 64.6714,11.1381 a 1.4891,1.4891 0 0 0 -0.5677,-0.3785 24.2878,24.2878 0 0 0 -6.34,-1.7978 1.7887,1.7887 0 0 0 -0.5678,0.0946 0.919,0.919 0 0 0 -0.5677,0.3785 l -4.6363,5.5826 a 21.592,21.592 0 0 0 -7.6642,-3.501 L 48.7748,6.7856 A 1.44,1.44 0 0 0 49.1533,6.0286 1.8774,1.8774 0 0 0 48.964,5.177 1.2378,1.2378 0 0 0 48.3963,4.6093 22.5212,22.5212 0 0 0 37.2317,2.7169 34.1432,34.1432 0 0 0 26.7289,4.9878 1.4272,1.4272 0 0 0 26.1612,5.4609 1.2578,1.2578 0 0 0 25.8773,6.2178 v 8.0427 a 20.18,20.18 0 0 0 -5.8664,5.7718 l -7.8535,-2.8386 a 1.0029,1.0029 0 0 0 -0.8515,0 0.8851,0.8851 0 0 0 -0.6624,0.4731 40.9476,40.9476 0 0 0 -7.4749,19.5863 1.8259,1.8259 0 0 0 0.2838,0.9462 1.2742,1.2742 0 0 0 0.8516,0.4731 l 6.2449,1.1355 v 1.0408 a 27.3984,27.3984 0 0 0 1.23,8.3265 l -6.34,4.8256 a 1.2113,1.2113 0 0 0 -0.4731,0.757 0.8045,0.8045 0 0 0 0,0.7569 26.6937,26.6937 0 0 0 8.0432,10.9759 q 5.4881,4.6364 9.5566,5.1094 1.1355,-0.2838 0.8516,-0.5677 -0.3785,-0.2839 -0.1892,-0.5677 a 1.1668,1.1668 0 0 0 0.1892,-0.6624 v -5.961 a 22.4379,22.4379 0 0 0 3.4063,1.5139 l 1.0408,-2.46 a 19.5178,19.5178 0 0 1 -5.0148,-2.46 0.9,0.9 0 0 0 -0.8516,-0.2839 1.2742,1.2742 0 0 0 -0.8516,0.4731 1.1767,1.1767 0 0 0 -0.3785,0.8516 V 68.383 A 13.6688,13.6688 0 0 1 13.8606,64.409 26.9512,26.9512 0 0 1 8.0888,56.0825 l -0.2839,-0.5678 6.34,-4.8256 a 2.527,2.527 0 0 0 0.4731,-0.6623 v -0.3785 a 0.84,0.84 0 0 0 -0.0947,-0.3785 25.901,25.901 0 0 1 -1.3246,-8.4211 q 0,-1.0408 0.0946,-1.987 A 1.5322,1.5322 0 0 0 13.0094,37.9155 1.1257,1.1257 0 0 0 12.2525,37.3477 L 6.0072,36.3069 a 37.4757,37.4757 0 0 1 4.1628,-12.7736 39.3246,39.3246 0 0 1 2.0817,-3.501 l 5.4883,1.8924 2.3655,0.8516 a 1.2893,1.2893 0 0 0 0.8516,0.0946 1.8771,1.8771 0 0 0 0.6623,-0.5677 16.5762,16.5762 0 0 1 6.2449,-6.0557 l 0.3785,-0.3784 0.0946,-0.0947 a 1.6789,1.6789 0 0 0 0.1893,-0.7569 V 7.164 a 1.87,1.87 0 0 0 0.3784,-0.1892 34.1464,34.1464 0 0 1 7.6642,-1.5139 3.5174,3.5174 0 0 1 0.8516,-0.0946 19.9114,19.9114 0 0 1 6.4342,0.4731 8.9929,8.9929 0 0 1 1.7031,0.5677 l -1.3247,1.3247 -3.5955,3.7847 a 0.9967,0.9967 0 0 0 -0.3785,0.8516 1.1767,1.1767 0 0 0 0.3785,0.8516 1.0708,1.0708 0 0 0 0.3785,0.3785 1.0526,1.0526 0 0 0 0.4731,0.0946 11.2261,11.2261 0 0 1 2.3655,0.4731 19.2427,19.2427 0 0 1 7.5695,3.69 1.0245,1.0245 0 0 0 0.9462,0.2838 0.908,0.908 0 0 0 0.6624,-0.2838 L 53.2224,17.6666 57.48,12.652 a 3.7793,3.7793 0 0 0 0.3785,-0.5677 2.6149,2.6149 0 0 0 0.3785,-0.3785 22.77,22.77 0 0 1 4.353,1.3247 5.8172,5.8172 0 0 1 0.1892,0.8515 h 0.0946 q 0.0144,0.1017 0,0.0947 v 0 q 0.1116,0.4062 0.1893,0.7569 v 0.0946 a 0.719,0.719 0 0 1 0.0946,0.1893 q 0.0947,0.2838 0.1892,0.6623 1.1355,3.69 2.6494,7.8535 l -6.34,3.4063 a 1.143,1.143 0 0 0 -0.6624,0.6623 1.0031,1.0031 0 0 0 0,0.8516 28.574,28.574 0 0 1 0.9462,11.26 0.9006,0.9006 0 0 0 0.2839,0.8516 1.7214,1.7214 0 0 0 0.7569,0.5677 l 0.6624,0.1893 V 35.55 h 1.1357 a 29.5914,29.5914 0 0 0 -0.9462,-6.8127 l 6.4342,-3.3116 a 1.723,1.723 0 0 0 0.5677,-0.757 1.0031,1.0031 0 0 0 0,-0.8516 Q 66.4692,17.099 64.9553,11.6112 a 1.1867,1.1867 0 0 0 -0.2839,-0.4731 z"
       id="path5"
       style="display:inline;fill:#41443d;fill-opacity:1" />
    <path
       d="m 14.6176,49.6483 v 0.3785 a 2.527,2.527 0 0 1 -0.4731,0.6623 l -6.34,4.8256 0.2839,0.5678 a 44.0693,44.0693 0 0 0 5.8664,1.3246 2.9711,2.9711 0 0 0 1.5139,0 q 0.9462,-0.3785 0.5678,-1.23 l 1.8924,-1.1355 a 1.6956,1.6956 0 0 0 0.8515,-0.5677 2.9185,2.9185 0 0 1 0.8516,-0.7569 l 1.0408,-0.6624 a 1.4012,1.4012 0 0 0 0,-1.23 4.6347,4.6347 0 0 0 -0.9462,-0.8516 9.8259,9.8259 0 0 0 -5.1094,-1.3247 m 0.1892,-24.4119 a 1.7747,1.7747 0 0 0 1.4193,-0.1892 0.8771,0.8771 0 0 0 0.6623,-1.1355 1.5127,1.5127 0 0 0 0.9462,-1.23 3.11,3.11 0 0 0 -0.0946,-0.757 l -5.4879,-1.8924 a 39.3246,39.3246 0 0 0 -2.0817,3.501 13.6157,13.6157 0 0 0 4.6364,1.7031 M 28.9051,6.9748 q 1.4268,0.3493 2.9333,0.8516 l 2.5547,0.8516 0.8516,0.3784 0.2838,0.2839 a 0.9085,0.9085 0 0 1 0.1893,-0.5677 l 0.4731,-0.2839 a 10.9176,10.9176 0 0 1 2.3655,-0.4731 30.7369,30.7369 0 0 1 3.8794,-0.3785 l 1.23,-0.1892 A 1.5555,1.5555 0 0 0 44.1389,7.3533 L 43.95,6.4071 A 1.7857,1.7857 0 0 1 43.8554,5.8394 19.9114,19.9114 0 0 0 37.4212,5.3663 3.5174,3.5174 0 0 0 36.5696,5.4609 34.1464,34.1464 0 0 0 28.9054,6.9748 m 32.9277,7.0965 q 0.5463,-0.0684 1.0408,-0.0946 v 0 q 0.0144,0.0069 0,-0.0947 H 62.779 a 5.8172,5.8172 0 0 0 -0.1892,-0.8515 22.77,22.77 0 0 0 -4.3525,-1.3247 2.6149,2.6149 0 0 1 -0.3785,0.3785 3.7793,3.7793 0 0 1 -0.3785,0.5677 l -0.0946,0.0946 0.1892,0.0946 a 32.9852,32.9852 0 0 1 4.1633,1.1355 z"
       fill="#8d9182"
       id="path6"
       style="display:inline" />
    <path
       d="M 28.9051,6.9748 A 1.87,1.87 0 0 1 28.5267,7.164 v 7.8535 a 1.6789,1.6789 0 0 1 -0.1893,0.7569 l -0.0946,0.0947 -0.3785,0.3784 a 16.5762,16.5762 0 0 0 -6.2449,6.0557 1.8771,1.8771 0 0 1 -0.6623,0.5677 1.2893,1.2893 0 0 1 -0.8516,-0.0946 L 17.74,21.9247 a 3.11,3.11 0 0 1 0.0946,0.757 1.5127,1.5127 0 0 1 -0.9462,1.23 0.8771,0.8771 0 0 1 -0.6623,1.1355 1.7747,1.7747 0 0 1 -1.4193,0.1892 A 13.6157,13.6157 0 0 1 10.17,23.5333 37.4757,37.4757 0 0 0 6.0072,36.3069 l 6.2449,1.0408 a 1.1257,1.1257 0 0 1 0.7569,0.5678 1.5322,1.5322 0 0 1 0.2839,0.9462 q -0.0947,0.9462 -0.0946,1.987 a 25.901,25.901 0 0 0 1.3246,8.4213 0.84,0.84 0 0 1 0.0947,0.3785 9.8259,9.8259 0 0 1 5.1094,1.3245 4.6347,4.6347 0 0 1 0.9462,0.8516 1.4012,1.4012 0 0 1 0,1.23 l -1.0408,0.6624 a 2.9185,2.9185 0 0 0 -0.8516,0.7569 1.6956,1.6956 0 0 1 -0.8515,0.5677 l -1.8924,1.1355 q 0.3785,0.8515 -0.5678,1.23 a 2.9711,2.9711 0 0 1 -1.5139,0 44.0693,44.0693 0 0 1 -5.8664,-1.3246 26.9512,26.9512 0 0 0 5.7718,8.3265 13.6688,13.6688 0 0 0 6.9072,3.974 v -6.9072 a 1.1767,1.1767 0 0 1 0.3785,-0.8516 1.2742,1.2742 0 0 1 0.8516,-0.4731 0.9,0.9 0 0 1 0.8516,0.2839 19.5178,19.5178 0 0 0 5.0148,2.46 l 0.2839,-0.6624 0.6623,-0.9462 a 0.6369,0.6369 0 0 1 0.5677,-0.2838 l 0.2839,-0.1893 a 1.9886,1.9886 0 0 1 1.0408,0.6624 1.2716,1.2716 0 0 1 0.3785,1.1354 v 0.4731 l 0.0946,0.2839 a 0.5637,0.5637 0 0 1 0,0.2838 15.0742,15.0742 0 0 0 2.2709,0.2839 1.085,1.085 0 0 1 0.8516,0.4731 0.9963,0.9963 0 0 1 0.3784,0.8516 v 8.3265 a 14.54,14.54 0 0 0 4.731,1.0408 Q 41.49,73.2086 44.4228,71.6 a 22.1364,22.1364 0 0 0 0.4731,-3.7848 9.4827,9.4827 0 0 0 0,-1.8924 7.601,7.601 0 0 0 -2.9332,-4.3528 q -2.9333,-2.0817 -4.3525,-3.1225 a 26.63,26.63 0 0 1 -3.8794,-3.3116 15.9181,15.9181 0 0 1 -2.3655,-2.46 15.51,15.51 0 0 1 -2.0817,-5.204 A 12.8172,12.8172 0 0 1 28.7159,43.5924 19.0161,19.0161 0 0 1 29,40.281 l 0.8515,-6.6234 a 16.7538,16.7538 0 0 1 1.0409,-2.744 17.5794,17.5794 0 0 1 3.5007,-5.2036 q 3.5009,-3.3117 5.2987,-5.0148 a 14.7077,14.7077 0 0 0 3.974,-6.0557 3.6752,3.6752 0 0 0 0.1893,-0.4731 A 11.2261,11.2261 0 0 0 41.4896,13.6933 1.0526,1.0526 0 0 1 41.0165,13.5987 1.0708,1.0708 0 0 1 40.638,13.2202 1.1767,1.1767 0 0 1 40.2595,12.3686 0.9967,0.9967 0 0 1 40.638,11.517 L 44.2335,7.7323 44.1389,7.3538 a 1.5555,1.5555 0 0 1 -0.4731,0.0946 l -1.23,0.1892 A 30.7369,30.7369 0 0 0 38.5564,8.0161 10.9176,10.9176 0 0 0 36.1909,8.4892 L 35.7178,8.7731 A 0.9085,0.9085 0 0 0 35.5285,9.3408 L 35.2447,9.0569 34.3931,8.6785 31.8384,7.8269 Q 30.3318,7.3246 28.9051,6.9753 m 6.34,8.4212 a 1.2389,1.2389 0 0 0 0.5677,-0.6624 1.1383,1.1383 0 0 1 -0.3785,0.8516 l -0.1892,-0.1892 m 0.0946,-2.2709 A 0.7388,0.7388 0 0 0 35.1504,13.031 l 0.1893,-0.1893 a 0.3556,0.3556 0 0 1 0,0.2839 m 27.5343,0.8516 q -0.4946,0.0262 -1.0408,0.0946 l -0.0946,-0.0946 a 32.9852,32.9852 0 0 0 -4.1633,-1.1355 l -0.1892,-0.0946 0.0946,-0.0946 -4.2579,5.0148 -0.1892,0.1893 a 3.1091,3.1091 0 0 0 -0.0946,0.7569 l 0.0946,0.6624 a 1.2138,1.2138 0 0 0 1.4193,0.8515 1.4066,1.4066 0 0 0 1.23,-1.23 q 0.0947,0 0.5677,0.757 a 1.18,1.18 0 0 0 1.3247,0.473 2.297,2.297 0 0 0 1.1355,-0.5677 l 0.4731,-0.6623 a 7.1357,7.1357 0 0 0 1.0408,-1.23 l 1.5139,-2.1762 a 1.31,1.31 0 0 0 1.6085,0.1892 q -0.0947,-0.3785 -0.1892,-0.6623 a 0.719,0.719 0 0 0 -0.0946,-0.1893 v -0.0946 q -0.0781,-0.3513 -0.1897,-0.7575 z"
       fill="#6c6f63"
       id="path7"
       style="display:inline" />
    <path
       d="m 35.15,13.0305 a 0.7388,0.7388 0 0 1 0.1893,0.0946 0.3556,0.3556 0 0 0 0,-0.2839 L 35.15,13.0305 m 0.6624,1.7031 a 1.2389,1.2389 0 0 1 -0.5677,0.6624 l 0.1892,0.1892 a 1.1383,1.1383 0 0 0 0.3785,-0.8516 z"
       fill="#767a69"
       id="path8"
       style="display:inline" />
  </g>
  <g
     id="setting_basic_0_Layer0_0_FILL"
     data-name="setting basic 0 Layer0 0 FILL"
     style="display:inline">
    <path
       d="m 63.82,10.9488 a 1.3314,1.3314 0 0 0 -0.8515,0.4731 l -4.731,5.488 A 22.1232,22.1232 0 0 0 49.2486,13.1251 V 6.0286 a 1.3354,1.3354 0 0 0 -0.3785,-0.9462 1.2733,1.2733 0 0 0 -0.8516,-0.3785 31.8956,31.8956 0 0 0 -5.0148,0 33.7234,33.7234 0 0 0 -9.9351,2.2709 1.5962,1.5962 0 0 0 -0.6623,0.4731 1.589,1.589 0 0 0 -0.1893,0.757 v 7.948 a 30.2125,30.2125 0 0 0 -7.8534,6.5288 v 0 q -0.1878,0.231 -0.3785,0.4731 L 17.5508,20.6 a 1.4726,1.4726 0 0 0 -0.8516,-0.0946 1.9517,1.9517 0 0 0 -0.757,0.5677 39.5094,39.5094 0 0 0 -6.6233,17.41 1.5315,1.5315 0 0 0 0.1892,0.9462 1.2239,1.2239 0 0 0 0.757,0.4731 l 6.6233,1.7031 q -0.0015,0.63 0,1.23 a 28,28 0 0 0 1.23,8.3265 l -6.4342,4.8256 a 1.981,1.981 0 0 0 -0.4731,0.6624 1.5943,1.5943 0 0 0 0.0947,0.8516 32.86,32.86 0 0 0 7.4749,11.3543 v 0 q 1.4183,1.3021 2.8386,2.46 a 1.3358,1.3358 0 0 0 0.9462,0.2839 1.1,1.1 0 0 0 0.8516,-0.4731 l 5.2041,-5.9611 a 22.155,22.155 0 0 0 9.7458,3.3117 v 7.8535 a 1.2936,1.2936 0 0 0 1.3247,1.3247 31.1988,31.1988 0 0 0 3.5009,-0.1893 33.4587,33.4587 0 0 0 12.3952,-3.5009 0.97,0.97 0 0 0 0.5677,-0.4731 1.3648,1.3648 0 0 0 0.1893,-0.757 l -0.5678,-8.8 a 30.43,30.43 0 0 0 5.6772,-5.2041 q 0.0691,0 0.0947,-0.0946 0.0346,0.0056 0,-0.0946 l 7.0964,2.8386 a 1.293,1.293 0 0 0 0.9462,0 0.9338,0.9338 0 0 0 0.6624,-0.4731 38.8463,38.8463 0 0 0 6.6234,-16.937 1.2313,1.2313 0 0 0 -0.2839,-0.9462 1.2924,1.2924 0 0 0 -0.757,-0.5677 l -6.8126,-1.7031 q 0.0972,-1.0883 0.0946,-2.2709 a 30.2206,30.2206 0 0 0 -0.9462,-7.7588 l 6.34,-3.4064 a 1.11,1.11 0 0 0 0.6623,-0.6623 1.3184,1.3184 0 0 0 0,-0.9462 32.3285,32.3285 0 0 0 -7.9481,-12.3952 19.8521,19.8521 0 0 0 -2.46,-2.0816 1.2083,1.2083 0 0 0 -0.9462,-0.2839 m 0.3785,3.1225 q 0.5692,0.5618 1.1354,1.1354 A 29.03,29.03 0 0 1 72.241,25.52 l -2.271,1.23 -4.0685,2.082 a 2.3563,2.3563 0 0 1 -0.3785,0.2838 q -0.0994,0.2111 -0.1893,0.3785 a 1.6366,1.6366 0 0 0 -0.0946,0.9462 25.67,25.67 0 0 1 1.23,8.0427 25.9776,25.9776 0 0 1 -0.1893,3.1224 1.4827,1.4827 0 0 0 0.1893,0.9462 1.3109,1.3109 0 0 0 0.8516,0.4731 l 6.718,1.7032 a 35.1192,35.1192 0 0 1 -5.3934,13.72 l -6.9072,-2.6493 a 1.21,1.21 0 0 0 -0.4731,-0.0946 1.2141,1.2141 0 0 1 -0.2839,0 1.5725,1.5725 0 0 0 -0.6623,0.3785 q -0.4262,0.4431 -0.8516,0.9462 V 56.934 a 27.9712,27.9712 0 0 1 -5.7718,5.2041 2.4665,2.4665 0 0 0 -0.4731,0.5677 1.6966,1.6966 0 0 0 -0.0946,0.6624 l 0.4731,8.61 a 12.3423,12.3423 0 0 1 -1.987,0.8515 30.7237,30.7237 0 0 1 -8.61,1.9871 h -0.0946 a 14.0663,14.0663 0 0 1 -1.8924,0.0946 V 67.2476 A 1.42,1.42 0 0 0 40.6383,66.3014 1.4541,1.4541 0 0 0 39.6921,65.9229 19.31,19.31 0 0 1 29.189,62.3274 1.4854,1.4854 0 0 0 28.2428,62.1381 1.6158,1.6158 0 0 0 27.3912,62.5166 l -5.1094,5.8664 q -0.8081,-0.67 -1.6086,-1.4193 l -0.0946,-0.0946 a 29.81,29.81 0 0 1 -6.4341,-9.462 l 6.2449,-4.731 a 1.0341,1.0341 0 0 0 0.4731,-0.6623 1.2113,1.2113 0 0 0 0,-0.8516 24.8159,24.8159 0 0 1 -1.3247,-8.3265 q 0.0025,-1.0619 0.0946,-2.0816 a 1.1586,1.1586 0 0 0 -0.2839,-0.8516 1.323,1.323 0 0 0 -0.7569,-0.5677 l -6.5288,-1.7032 a 37.8414,37.8414 0 0 1 4.5418,-12.679 q 0.4948,-0.7422 0.9462,-1.514 l 6.4341,2.5548 a 1.1048,1.1048 0 0 0 0.8516,0 0.9766,0.9766 0 0 0 0.6623,-0.4731 6.7794,6.7794 0 0 0 0.5677,-0.757 3.6932,3.6932 0 0 0 0.3785,-0.3785 H 26.35 a 27.4129,27.4129 0 0 1 7.7592,-6.2448 0.937,0.937 0 0 0 0.5677,-0.4731 q 0.04,-0.0233 0,-0.0946 h 0.0947 a 1.6376,1.6376 0 0 0 0.0946,-0.5677 V 9.0564 A 32.76,32.76 0 0 1 43.1927,7.3533 Q 44.92,7.221 46.599,7.2587 v 7.0964 a 1.262,1.262 0 0 0 0.2839,0.8516 1.3763,1.3763 0 0 0 0.8516,0.4731 18.8721,18.8721 0 0 1 9.935,4.1633 1.3159,1.3159 0 0 0 0.9462,0.2838 1.355,1.355 0 0 0 0.9462,-0.473 l 4.6364,-5.5826 M 43.5712,27.6019 h -0.0946 a 11.9294,11.9294 0 0 0 -8.61,4.4471 13.6252,13.6252 0 0 0 -3.3117,7.7589 9.2274,9.2274 0 0 0 -0.0946,1.4192 11.7539,11.7539 0 0 0 3.5009,8.8 v 0 a 10.7777,10.7777 0 0 0 2.3655,1.7978 l 0.0946,0.0946 a 0.0981,0.0981 0 0 0 0.0946,0 0.3334,0.3334 0 0 0 0.2839,0.0946 0.479,0.479 0 0 0 0.0946,0.0946 2.2418,2.2418 0 0 0 0.3785,0.1893 9.6582,9.6582 0 0 0 1.987,0.6623 11.6366,11.6366 0 0 0 3.4063,0.1892 12.22,12.22 0 0 0 8.4212,-4.5417 13.4547,13.4547 0 0 0 3.5009,-9.1781 11.8983,11.8983 0 0 0 -3.5009,-8.8 h -0.0946 a 9.14,9.14 0 0 0 -1.514,-1.23 l -4.1632,-1.7032 a 0.6229,0.6229 0 0 1 -0.1893,0 Q 46.018,27.6637 45.8425,27.6019 a 1.4265,1.4265 0 0 1 -0.2839,0 2.5828,2.5828 0 0 1 -0.2838,0 q -0.0962,0.0033 -0.1893,0 -0.2136,-7e-4 -0.4731,0 -0.0281,-0.0011 -0.0946,0 -0.1235,-0.0038 -0.2839,0 a 0.2146,0.2146 0 0 0 -0.0946,0 h -0.5677 m 6.6234,4.92 v 0 a 9.4007,9.4007 0 0 1 2.744,6.9073 10.9673,10.9673 0 0 1 -2.839,7.4751 9.7966,9.7966 0 0 1 -6.5288,3.5957 13.3239,13.3239 0 0 0 3.5956,-3.0278 13.4554,13.4554 0 0 0 3.5009,-9.1782 12.4235,12.4235 0 0 0 -1.987,-7.0018 9.8527,9.8527 0 0 1 1.5139,1.23 m -4.92,-1.1354 v 0 a 9.4781,9.4781 0 0 1 2.7439,6.9072 10.9664,10.9664 0 0 1 -2.8386,7.475 9.673,9.673 0 0 1 -6.6233,3.5956 q -0.1179,6e-4 -0.2839,0 a 10.8741,10.8741 0 0 1 -1.4193,-1.23 h -0.0946 a 9.3219,9.3219 0 0 1 -2.6494,-6.9073 6.3066,6.3066 0 0 1 0.0946,-0.9461 0.78,0.78 0 0 0 0,-0.0947 11.0875,11.0875 0 0 1 2.6494,-6.4341 9.5618,9.5618 0 0 1 6.8126,-3.5009 h 0.094 a 9.4359,9.4359 0 0 1 1.5144,1.1352 z"
       id="path9"
       style="display:inline;fill:#41443d;fill-opacity:1" />
    <path
       d="m 16.6046,24.9526 2.6493,1.5139 0.8516,0.1892 0.757,0.4731 0.5677,0.1892 0.8516,0.4731 a 5.386,5.386 0 0 0 2.1762,0.3785 2.1575,2.1575 0 0 0 1.8924,-0.3785 l 0.5677,-0.5677 0.6624,-1.4193 A 0.55,0.55 0 0 0 27.77,25.71 2.669,2.669 0 0 0 28.6216,24.8584 29.2654,29.2654 0 0 1 35.15,19.37 q 1.0408,-0.6624 0.8516,-1.3247 -0.0947,-0.3785 -0.7569,-0.5677 l -0.4731,0.0946 h -0.0947 q 0.04,0.0714 0,0.0946 a 0.937,0.937 0 0 1 -0.5677,0.4731 27.4129,27.4129 0 0 0 -7.7592,6.2449 h 0.0946 a 3.6932,3.6932 0 0 1 -0.3785,0.3785 6.7794,6.7794 0 0 1 -0.5677,0.757 0.9766,0.9766 0 0 1 -0.6623,0.4731 1.1048,1.1048 0 0 1 -0.8516,0 l -6.4341,-2.5548 q -0.4513,0.7717 -0.9462,1.514 M 61.2651,55.704 q 0.2121,-0.0037 0.3785,0 A 1.8409,1.8409 0 0 0 61.36,55.42 2.304,2.304 0 0 0 59.4676,54.6631 2.7183,2.7183 0 0 0 57.7645,55.7985 l -1.3245,1.6086 -1.0408,0.9462 q -2.5548,2.2709 -2.6494,2.3655 a 5.9791,5.9791 0 0 0 -1.7031,1.6086 l -0.0947,1.23 0.2839,3.7848 a 10.4461,10.4461 0 0 0 0,1.987 l 0.3785,3.5009 a 12.3423,12.3423 0 0 0 1.987,-0.8515 l -0.4731,-8.61 a 1.6966,1.6966 0 0 1 0.0946,-0.6624 2.4665,2.4665 0 0 1 0.4731,-0.5677 27.9712,27.9712 0 0 0 5.7718,-5.2041 v 0.0947 q 0.4254,-0.5031 0.8516,-0.9462 a 1.5725,1.5725 0 0 1 0.6623,-0.3785 1.2141,1.2141 0 0 0 0.2839,0 M 65.523,29.1158 a 1.9235,1.9235 0 0 0 -1.3247,0.3785 1.5921,1.5921 0 0 0 -0.6623,1.5139 l 0.1892,1.6086 a 33,33 0 0 1 0.2839,8.61 3.5166,3.5166 0 0 0 0.1892,1.514 q 0.1893,0.5677 1.4193,1.3246 a 21.6709,21.6709 0 0 0 5.9611,2.0817 L 71.2,49.1752 a 54.3566,54.3566 0 0 1 -3.1225,9.0835 l 0.5677,0.1892 a 35.1192,35.1192 0 0 0 5.3934,-13.72 l -6.718,-1.7032 a 1.3109,1.3109 0 0 1 -0.8516,-0.4731 1.4827,1.4827 0 0 1 -0.1893,-0.9462 25.9776,25.9776 0 0 0 0.1893,-3.1224 25.67,25.67 0 0 0 -1.23,-8.0427 1.6366,1.6366 0 0 1 0.0946,-0.9462 q 0.09,-0.1674 0.1893,-0.3785 M 43.4766,27.6019 h 0.6623 a 0.2146,0.2146 0 0 1 0.0946,0 q 0.16,-0.0038 0.2839,0 0.0666,-0.0011 0.0946,0 0.2595,-7e-4 0.4731,0 0.0932,0.0033 0.1893,0 a 2.5828,2.5828 0 0 0 0.2838,0 1.4265,1.4265 0 0 0 0.2839,0 q 0.1755,0.0618 0.2838,0.0946 a 0.6229,0.6229 0 0 0 0.1893,0 L 50.4784,29.4 a 7.6778,7.6778 0 0 1 0.9462,0.6623 9.815,9.815 0 0 0 -8.2319,-3.7848 13.2347,13.2347 0 0 0 -8.9889,3.501 9.9561,9.9561 0 0 0 -2.8385,3.5009 14.7856,14.7856 0 0 0 -1.3247,3.7848 16.9359,16.9359 0 0 0 0.4731,8.9889 9.639,9.639 0 0 0 6.15,6.2449 17.2922,17.2922 0 0 0 3.5009,0.6623 0.2647,0.2647 0 0 0 0.0946,0 9.6582,9.6582 0 0 1 -1.987,-0.6623 2.2418,2.2418 0 0 1 -0.3785,-0.1893 0.479,0.479 0 0 1 -0.0946,-0.0946 0.3334,0.3334 0 0 1 -0.2839,-0.0946 0.0981,0.0981 0 0 1 -0.0946,0 L 37.326,51.8249 a 10.7777,10.7777 0 0 1 -2.3655,-1.7978 v 0 a 11.7539,11.7539 0 0 1 -3.5009,-8.8 9.2274,9.2274 0 0 1 0.0946,-1.4192 13.6252,13.6252 0 0 1 3.3117,-7.7589 11.9294,11.9294 0 0 1 8.61,-4.4471 M 65.3337,15.2067 q -0.5661,-0.5736 -1.1354,-1.1354 l -4.6364,5.5826 a 1.355,1.355 0 0 1 -0.9462,0.473 1.3159,1.3159 0 0 1 -0.9462,-0.2838 18.8721,18.8721 0 0 0 -9.935,-4.1633 1.3763,1.3763 0 0 1 -0.8516,-0.4731 1.262,1.262 0 0 1 -0.2839,-0.8516 V 7.2587 Q 44.9204,7.2209 43.1927,7.3533 A 32.76,32.76 0 0 0 34.8662,9.0564 V 9.908 a 20.8014,20.8014 0 0 1 9.5566,-1.1354 l 0.3785,7.0965 a 2.29,2.29 0 0 0 0.2838,1.3246 3.1727,3.1727 0 0 0 1.5139,0.4731 18.058,18.058 0 0 1 10.1243,3.69 q 1.8924,1.4193 3.0279,1.0408 a 3.722,3.722 0 0 0 1.23,-1.1354 L 64.5768,16.91 a 17.9515,17.9515 0 0 1 5.3932,9.84 l 2.2709,-1.23 A 29.03,29.03 0 0 0 65.3337,15.2067 Z"
       fill="#ffffff"
       id="path10"
       style="display:inline" />
    <path
       d="m 69.97,26.75 a 17.9515,17.9515 0 0 0 -5.3933,-9.84 l -3.5956,4.3525 a 3.722,3.722 0 0 1 -1.23,1.1354 q -1.1355,0.3784 -3.0279,-1.0408 A 18.058,18.058 0 0 0 46.5989,17.6671 3.1727,3.1727 0 0 1 45.085,17.194 2.29,2.29 0 0 1 44.8012,15.8694 L 44.4227,8.7729 A 20.8014,20.8014 0 0 0 34.8662,9.908 v 7.0965 a 1.6376,1.6376 0 0 1 -0.0946,0.5677 l 0.4731,-0.0946 q 0.6622,0.1893 0.7569,0.5677 0.1893,0.6624 -0.8516,1.3247 a 29.2654,29.2654 0 0 0 -6.5287,5.4879 2.669,2.669 0 0 1 -0.8516,0.8516 0.55,0.55 0 0 1 -0.1892,0.0946 l -0.6624,1.4193 -0.5677,0.5677 A 2.1575,2.1575 0 0 1 24.458,28.1696 5.386,5.386 0 0 1 22.2818,27.7911 L 21.43,27.318 20.8623,27.1288 20.1053,26.6557 19.2537,26.4665 16.6044,24.9526 a 37.8414,37.8414 0 0 0 -4.5418,12.679 l 6.5288,1.7032 a 1.323,1.323 0 0 1 0.7569,0.5677 1.1586,1.1586 0 0 1 0.2839,0.8516 q -0.0921,1.02 -0.0946,2.0816 a 24.8159,24.8159 0 0 0 1.3247,8.3265 1.2113,1.2113 0 0 1 0,0.8516 1.0341,1.0341 0 0 1 -0.4731,0.6623 l -6.2449,4.731 a 29.81,29.81 0 0 0 6.4341,9.462 l 0.0946,0.0946 q 0.8006,0.7493 1.6086,1.4193 l 5.1094,-5.8664 a 1.6158,1.6158 0 0 1 0.8516,-0.3785 1.4854,1.4854 0 0 1 0.9462,0.1893 19.31,19.31 0 0 0 10.5028,3.5955 1.4541,1.4541 0 0 1 0.9462,0.3785 1.42,1.42 0 0 1 0.3785,0.9462 v 7.6642 a 14.0663,14.0663 0 0 0 1.8924,-0.0946 h 0.0946 a 30.7237,30.7237 0 0 0 8.61,-1.9871 l -0.3785,-3.5009 a 10.4461,10.4461 0 0 1 0,-1.987 l -0.2839,-3.7848 0.0947,-1.23 a 5.9791,5.9791 0 0 1 1.7031,-1.6086 q 0.0946,-0.0947 2.6494,-2.3655 l 1.0408,-0.9462 1.3247,-1.6085 a 2.7183,2.7183 0 0 1 1.7031,-1.1354 2.304,2.304 0 0 1 1.8933,0.7568 1.8409,1.8409 0 0 1 0.2839,0.2839 q -0.1664,-0.0037 -0.3785,0 a 1.21,1.21 0 0 1 0.4731,0.0946 l 6.9072,2.6493 -0.5677,-0.1892 A 54.3566,54.3566 0 0 0 71.2,49.1752 l 0.3785,-3.0278 a 21.6709,21.6709 0 0 1 -5.9611,-2.0817 q -1.23,-0.7569 -1.4193,-1.3246 a 3.5166,3.5166 0 0 1 -0.1892,-1.514 33,33 0 0 0 -0.2839,-8.61 l -0.1892,-1.6086 a 1.5921,1.5921 0 0 1 0.6623,-1.5139 1.9235,1.9235 0 0 1 1.3247,-0.3785 2.3563,2.3563 0 0 0 0.3785,-0.2838 L 69.97,26.75 m -17.9776,3.88 h 0.0946 a 11.8983,11.8983 0 0 1 3.5009,8.8 13.4547,13.4547 0 0 1 -3.5009,9.1781 12.22,12.22 0 0 1 -8.4212,4.5417 11.6366,11.6366 0 0 1 -3.4058,-0.1898 0.2647,0.2647 0 0 1 -0.0946,0 17.2922,17.2922 0 0 1 -3.5009,-0.6623 9.639,9.639 0 0 1 -6.15,-6.2449 16.9359,16.9359 0 0 1 -0.4731,-8.9889 14.7856,14.7856 0 0 1 1.3247,-3.7848 9.9561,9.9561 0 0 1 2.8385,-3.5009 13.2347,13.2347 0 0 1 8.9889,-3.501 9.815,9.815 0 0 1 8.2319,3.7848 7.6778,7.6778 0 0 0 -0.9462,-0.6623 9.14,9.14 0 0 1 1.5132,1.2303 z"
       fill="#cfd1d5"
       id="path11"
       style="display:inline" />
    <path
       d="m 50.1946,32.5221 v 0 a 9.8527,9.8527 0 0 0 -1.5139,-1.23 12.4235,12.4235 0 0 1 1.987,7.0018 13.4554,13.4554 0 0 1 -3.5009,9.1782 13.3239,13.3239 0 0 1 -3.5956,3.0279 9.7966,9.7966 0 0 0 6.5288,-3.5957 10.9673,10.9673 0 0 0 2.8386,-7.4749 9.4007,9.4007 0 0 0 -2.744,-6.9073 z"
       fill="#6c6f63"
       id="path12"
       style="display:inline" />
  </g>
</svg>
