<?xml version="1.0" encoding="UTF-8" standalone="no"?>
<svg
   width="200pt"
   height="200pt"
   viewBox="0 0 200 200"
   version="1.1"
   id="svg73"
   sodipodi:docname="sw-icon.svg"
   inkscape:version="1.3.2 (091e20e, 2023-11-25, custom)"
   xmlns:inkscape="http://www.inkscape.org/namespaces/inkscape"
   xmlns:sodipodi="http://sodipodi.sourceforge.net/DTD/sodipodi-0.dtd"
   xmlns="http://www.w3.org/2000/svg"
   xmlns:svg="http://www.w3.org/2000/svg">
  <defs
     id="defs77" />
  <sodipodi:namedview
     id="namedview75"
     pagecolor="#ffffff"
     bordercolor="#666666"
     borderopacity="1.0"
     inkscape:pageshadow="2"
     inkscape:pageopacity="0.0"
     inkscape:pagecheckerboard="0"
     inkscape:document-units="pt"
     showgrid="false"
     inkscape:zoom="1.3788582"
     inkscape:cx="131.63065"
     inkscape:cy="170.06825"
     inkscape:window-width="1204"
     inkscape:window-height="705"
     inkscape:window-x="148"
     inkscape:window-y="0"
     inkscape:window-maximized="0"
     inkscape:current-layer="svg73"
     inkscape:showpageshadow="2"
     inkscape:deskcolor="#d1d1d1" />
  <g
     id="#000207ff"
     style="fill:#000339;fill-opacity:1">
    <path
       fill="#000207"
       opacity="1.00"
       d=" M 63.34 31.84 C 67.79 29.77 72.20 27.44 76.97 26.21 C 81.96 25.72 86.98 26.05 91.98 25.98 C 97.75 25.74 102.50 29.78 106.50 33.44 C 110.72 38.58 116.47 42.16 120.55 47.43 C 135.38 63.36 147.93 81.46 157.47 101.03 C 159.66 99.72 161.75 98.13 164.24 97.43 C 171.42 95.98 178.76 96.02 186.05 95.61 C 189.91 95.47 192.89 98.26 195.85 100.34 C 196.24 102.31 196.69 104.28 197.08 106.26 C 197.36 108.70 197.37 111.17 197.09 113.61 C 196.41 117.30 196.02 121.10 194.66 124.61 C 189.85 128.55 185.90 133.53 180.51 136.73 C 173.94 141.27 166.05 143.07 158.55 145.43 C 152.98 146.20 147.60 148.13 141.94 148.10 C 137.22 148.18 132.72 149.98 128.00 150.02 C 123.64 150.17 119.28 149.80 114.92 149.95 C 112.06 149.91 110.08 152.31 107.93 153.84 C 99.23 161.25 88.97 166.61 78.23 170.38 C 71.60 172.32 64.77 173.55 58.00 174.83 C 50.67 175.23 43.31 174.87 35.97 175.00 C 29.54 175.11 23.76 172.02 17.72 170.31 C 12.40 168.67 7.29 166.26 2.92 162.78 C 2.87 158.33 3.14 153.87 4.17 149.53 C 9.83 141.24 15.91 132.71 25.08 128.00 C 31.10 125.16 36.25 120.59 42.73 118.73 C 46.44 117.45 50.55 116.98 53.84 114.73 C 55.35 111.02 55.57 106.95 55.98 103.01 C 56.23 99.42 57.68 96.08 58.36 92.57 C 56.63 92.93 54.65 92.90 53.34 94.27 C 48.40 98.54 42.33 101.64 35.91 102.86 C 31.16 103.01 25.36 104.16 21.66 100.35 C 17.96 97.27 17.25 91.88 18.54 87.46 C 23.06 70.64 32.96 55.49 45.72 43.74 C 50.53 39.23 56.33 36.01 61.62 32.14 C 62.05 32.06 62.91 31.91 63.34 31.84 M 54.68 44.69 C 51.36 47.40 48.03 50.57 46.60 54.71 C 45.25 55.53 43.90 56.36 42.55 57.19 L 42.53 57.93 C 38.94 63.28 34.39 68.01 31.60 73.87 C 30.70 75.28 29.58 76.68 29.44 78.42 C 27.17 83.43 25.28 88.74 25.38 94.32 C 33.35 97.34 41.85 94.06 48.38 89.35 C 51.32 87.01 53.87 84.21 56.82 81.88 C 58.78 80.33 60.70 78.74 62.60 77.12 C 59.07 73.64 55.70 69.86 54.15 65.05 C 58.93 65.03 61.39 69.59 65.03 71.88 C 68.47 71.78 69.88 67.65 71.60 65.20 C 71.34 67.89 71.00 70.59 70.14 73.17 C 68.25 75.26 66.72 77.75 66.34 80.59 C 65.40 86.65 64.25 92.67 63.19 98.71 C 61.94 100.72 61.87 103.08 62.11 105.37 C 64.10 105.84 66.16 106.15 68.04 106.98 C 69.69 107.90 69.34 110.13 69.87 111.67 C 68.43 110.26 66.70 109.20 64.98 108.16 C 62.88 109.94 60.37 111.59 59.53 114.37 C 57.85 119.08 55.60 123.56 53.81 128.24 C 53.49 126.20 53.10 124.18 52.62 122.17 C 46.77 123.64 41.39 126.38 36.38 129.70 C 35.54 130.32 34.70 130.94 33.86 131.56 C 31.30 131.09 29.27 132.97 27.38 134.38 C 22.22 138.49 17.12 142.85 13.18 148.19 C 16.23 147.71 18.55 145.61 21.19 144.21 C 27.40 141.11 34.23 139.60 40.95 138.03 L 41.55 138.71 C 42.58 137.98 43.61 137.25 44.64 136.53 C 54.68 137.58 64.79 137.73 74.83 138.65 C 84.01 140.50 93.22 142.99 102.65 142.68 C 102.49 142.23 102.17 141.34 102.01 140.90 C 102.40 141.30 103.16 142.11 103.55 142.51 C 104.18 142.19 104.82 141.87 105.45 141.56 C 105.47 141.24 105.49 140.60 105.50 140.28 C 114.06 143.06 123.17 141.88 132.00 142.20 C 135.64 142.46 139.24 141.73 142.61 140.36 L 142.63 139.79 C 143.84 139.71 145.06 139.63 146.28 139.57 C 150.77 139.90 156.11 139.67 159.69 136.83 C 162.46 136.67 165.75 136.77 167.47 134.15 C 170.56 133.13 173.50 131.71 176.44 130.33 L 176.46 129.49 C 178.68 129.27 181.11 129.01 182.35 126.87 C 185.65 123.60 188.78 119.97 190.39 115.54 C 191.48 112.82 192.28 109.24 190.07 106.85 C 187.39 103.72 183.11 101.87 178.98 102.39 C 172.37 103.39 165.46 104.39 160.12 108.80 C 160.81 112.03 162.28 115.08 162.42 118.42 L 161.63 116.85 C 156.35 113.44 154.12 107.20 149.98 102.70 C 149.09 99.47 147.50 96.52 145.83 93.65 L 145.33 93.60 C 142.61 89.19 139.93 84.75 137.07 80.43 C 137.02 79.23 136.37 77.13 134.85 77.31 C 131.27 73.01 129.16 67.59 125.17 63.68 C 124.84 64.19 124.18 65.22 123.85 65.73 C 123.02 63.59 122.26 61.42 121.55 59.24 C 118.20 55.32 114.73 51.51 111.40 47.58 C 107.44 43.94 103.30 40.48 99.41 36.75 L 99.15 35.99 C 97.89 35.93 96.64 35.88 95.39 35.83 C 93.40 32.32 88.56 32.58 85.04 32.65 C 73.81 32.77 63.47 38.09 54.68 44.69 M 32.58 148.45 C 25.94 150.93 19.22 153.59 13.60 158.02 C 19.07 162.69 26.32 163.98 33.13 165.44 C 42.74 167.23 52.57 166.06 62.14 164.58 C 73.12 163.31 83.47 159.05 93.34 154.25 C 95.53 153.19 97.33 151.51 99.12 149.87 C 87.02 149.11 75.18 145.85 63.01 145.79 C 52.85 145.82 42.36 145.13 32.58 148.45 Z"
       id="path2"
       style="fill:#000339;fill-opacity:1" />
  </g>
  <g
     id="#2367bcff"
     style="display:inline">
    <path
       fill="#2367bc"
       opacity="1"
       d="m 54.68,44.69 c 8.79,-6.6 19.13,-11.92 30.36,-12.04 3.52,-0.07 8.36,-0.33 10.35,3.18 1.42,4.71 3.4,9.3 4.26,14.16 -2.13,5.85 -7.48,9.91 -9.54,15.86 -0.44,1.23 -0.62,2.53 -0.89,3.81 7.31,-1.61 13.57,-5.99 20.65,-8.3 1.41,4.73 1.68,9.73 3.29,14.41 0.61,1.93 2.77,2.48 4.34,3.39 2.66,-4.22 3.71,-9.21 6.35,-13.43 0.33,-0.51 0.99,-1.54 1.32,-2.05 3.99,3.91 6.1,9.33 9.68,13.63 -4.02,2.01 -7.91,4.32 -11.5,7.01 -3.75,2.82 -6.09,6.99 -8.36,10.99 8.84,0.28 17.73,0.04 26.52,1.29 2.98,1.8 5.85,3.8 8.47,6.1 4.14,4.5 6.37,10.74 11.65,14.15 l 0.79,1.57 c 0.7,1.51 1.48,2.99 2.26,4.46 -2.13,4.48 -3.48,9.25 -4.99,13.95 -3.58,2.84 -8.92,3.07 -13.41,2.74 0.63,-1.32 1.26,-2.65 1.87,-3.98 0.45,-1.65 2.28,-3.81 0.13,-4.95 -4.79,-1.43 -10.39,1.43 -14.76,-1.18 -2.74,-4.63 -3.93,-10.35 -8.69,-13.57 -3.4,4.49 -5.15,9.96 -8.48,14.47 -1.12,1.82 -3.44,1.89 -5.33,2.05 -4.39,0.22 -8.78,0.44 -13.14,1.03 1.32,2.51 2.69,5.01 4.13,7.46 0.16,0.44 0.48,1.33 0.64,1.78 -9.43,0.31 -18.64,-2.18 -27.82,-4.03 -10.04,-0.92 -20.15,-1.07 -30.19,-2.12 -2.53,-2.54 -5.15,-5.02 -8.26,-6.83 5.01,-3.32 10.39,-6.06 16.24,-7.53 0.48,2.01 0.87,4.03 1.19,6.07 1.79,-4.68 4.04,-9.16 5.72,-13.87 0.84,-2.78 3.35,-4.43 5.45,-6.21 1.72,1.04 3.45,2.1 4.89,3.51 4.05,3.92 8.65,7.29 12.03,11.86 1.02,0.07 2.03,0.14 3.05,0.21 -0.65,-7.68 -2.24,-15.23 -3.5,-22.82 5.35,-3.7 10.23,-7.99 15.09,-12.29 1.33,-1.08 2.08,-2.63 2.81,-4.14 -4.58,-2.75 -9.75,-4.07 -14.87,-5.34 -2.78,-0.62 -3.72,-3.66 -4.11,-6.13 -0.68,-4.63 -1,-9.33 -2.11,-13.9 -3.64,0 -5.35,3.21 -6.66,6.08 -1.72,2.45 -3.13,6.58 -6.57,6.68 -3.64,-2.29 -6.1,-6.85 -10.88,-6.83 1.55,4.81 4.92,8.59 8.45,12.07 -1.9,1.62 -3.82,3.21 -5.78,4.76 -3.53,-2 -6.71,-4.54 -9.65,-7.33 -1.32,-6.52 -0.86,-13.24 -0.57,-19.84 1.43,-4.14 4.76,-7.31 8.08,-10.02 z"
       id="path5" />
  </g>
  <g
     id="#140000ff"
     style="display:inline;fill:#000339;fill-opacity:1">
    <path
       fill="#140000"
       opacity="1"
       d="m 95.39,35.83 c 1.25,0.05 2.5,0.1 3.76,0.16 l 0.26,0.76 c 1.24,4.12 3.48,7.97 4.03,12.28 -0.53,4.64 -3.47,8.49 -6.14,12.15 -0.5,-0.06 -1.48,-0.19 -1.97,-0.25 -1.93,1.43 -3.65,3.11 -5.22,4.92 2.06,-5.95 7.41,-10.01 9.54,-15.86 -0.86,-4.86 -2.84,-9.45 -4.26,-14.16 z"
       id="path8"
       style="fill:#000339;fill-opacity:1" />
  </g>
  <g
     id="#d52400ff"
     style="display:inline">
    <path
       fill="#d52400"
       opacity="1"
       d="m 103.44,49.03 c -0.55,-4.31 -2.79,-8.16 -4.03,-12.28 3.89,3.73 8.03,7.19 11.99,10.83 3.33,3.93 6.8,7.74 10.15,11.66 -1.06,3.42 -2.75,6.62 -5.37,9.1 -1.22,-4.09 -2.57,-8.14 -4.17,-12.1 -4.92,0.92 -9.32,3.36 -13.99,5.01 -0.18,-0.02 -0.54,-0.06 -0.72,-0.07 2.67,-3.66 5.61,-7.51 6.14,-12.15 z"
       id="path11" />
  </g>
  <g
     id="#192e00ff"
     style="display:inline;fill:#000339;fill-opacity:1">
    <path
       fill="#192e00"
       opacity="1"
       d="m 42.55,57.19 c 1.35,-0.83 2.7,-1.66 4.05,-2.48 -0.29,6.6 -0.75,13.32 0.57,19.84 0.71,3 1.35,6.02 1.8,9.08 -3.62,0.61 -7.39,1.37 -11,0.28 -3.36,-0.84 -6.1,-3.12 -8.53,-5.49 0.14,-1.74 1.26,-3.14 2.16,-4.55 0,0.49 -0.01,1.48 -0.02,1.98 3.85,2.9 8.16,5.5 13.2,5.19 C 42.42,73.56 41.9,65.72 42.53,57.93 Z"
       id="path14"
       style="fill:#000339;fill-opacity:1" />
  </g>
  <g
     id="#2b0000ff"
     style="display:inline;fill:#000339;fill-opacity:1">
    <path
       fill="#2b0000"
       opacity="1"
       d="m 98.02,61.25 c 4.67,-1.65 9.07,-4.09 13.99,-5.01 1.6,3.96 2.95,8.01 4.17,12.1 2.62,-2.48 4.31,-5.68 5.37,-9.1 0.71,2.18 1.47,4.35 2.3,6.49 -2.64,4.22 -3.69,9.21 -6.35,13.43 -1.57,-0.91 -3.73,-1.46 -4.34,-3.39 -1.61,-4.68 -1.88,-9.68 -3.29,-14.41 -7.08,2.31 -13.34,6.69 -20.65,8.3 0.27,-1.28 0.45,-2.58 0.89,-3.81 1.57,-1.81 3.29,-3.49 5.22,-4.92 0.49,0.06 1.47,0.19 1.97,0.25 0.18,0.01 0.54,0.05 0.72,0.07 z"
       id="path17"
       style="fill:#000339;fill-opacity:1" />
    <path
       fill="#2b0000"
       opacity="1"
       d="m 71.6,65.2 c 1.31,-2.87 3.02,-6.08 6.66,-6.08 1.11,4.57 1.43,9.27 2.11,13.9 0.39,2.47 1.33,5.51 4.11,6.13 5.12,1.27 10.29,2.59 14.87,5.34 -0.73,1.51 -1.48,3.06 -2.81,4.14 -4.86,4.3 -9.74,8.59 -15.09,12.29 1.26,7.59 2.85,15.14 3.5,22.82 -1.02,-0.07 -2.03,-0.14 -3.05,-0.21 -3.38,-4.57 -7.98,-7.94 -12.03,-11.86 -0.53,-1.54 -0.18,-3.77 -1.83,-4.69 -1.88,-0.83 -3.94,-1.14 -5.93,-1.61 -0.24,-2.29 -0.17,-4.65 1.08,-6.66 -0.14,0.9 -0.43,2.69 -0.57,3.59 3.29,1.55 6.71,3.07 9.29,5.72 2.32,2.37 4.65,4.82 7.74,6.17 -0.23,-5.19 -1.95,-10.15 -2.43,-15.3 3.07,-4.11 8.19,-6.27 12.51,-8.94 1.76,-1.09 3.29,-2.49 4.78,-3.91 C 89.31,84.76 84,83.98 78.64,83.85 78.08,83.74 76.95,83.53 76.39,83.42 76.51,78.1 76.01,72.81 75.19,67.57 c -1.71,1.84 -3.42,3.68 -5.05,5.6 0.86,-2.58 1.2,-5.28 1.46,-7.97 z"
       id="path19"
       style="fill:#000339;fill-opacity:1" />
  </g>
  <g
     id="#72e834ff"
     style="display:inline">
    <path
       fill="#72e834"
       opacity="1"
       d="m 42.53,57.93 c -0.63,7.79 -0.11,15.63 2.25,23.11 -5.04,0.31 -9.35,-2.29 -13.2,-5.19 0.01,-0.5 0.02,-1.49 0.02,-1.98 2.79,-5.86 7.34,-10.59 10.93,-15.94 z"
       id="path22" />
  </g>
  <g
     id="#de2400ff"
     style="display:inline">
    <path
       fill="#de2400"
       opacity="1"
       d="m 70.14,73.17 c 1.63,-1.92 3.34,-3.76 5.05,-5.6 0.82,5.24 1.32,10.53 1.2,15.85 0.56,0.11 1.69,0.32 2.25,0.43 3.98,1.38 9.27,1.6 11.09,6.1 -4.32,2.67 -9.44,4.83 -12.51,8.94 0.48,5.15 2.2,10.11 2.43,15.3 -3.09,-1.35 -5.42,-3.8 -7.74,-6.17 -2.58,-2.65 -6,-4.17 -9.29,-5.72 0.14,-0.9 0.43,-2.69 0.57,-3.59 1.06,-6.04 2.21,-12.06 3.15,-18.12 0.38,-2.84 1.91,-5.33 3.8,-7.42 z"
       id="path25" />
  </g>
  <g
     id="#1e69b5ff"
     style="display:inline">
    <path
       fill="#1e69b5"
       opacity="1"
       d="m 47.17,74.55 c 2.94,2.79 6.12,5.33 9.65,7.33 -2.95,2.33 -5.5,5.13 -8.44,7.47 -6.53,4.71 -15.03,7.99 -23,4.97 -0.1,-5.58 1.79,-10.89 4.06,-15.9 2.43,2.37 5.17,4.65 8.53,5.49 3.61,1.09 7.38,0.33 11,-0.28 -0.45,-3.06 -1.09,-6.08 -1.8,-9.08 z"
       id="path28" />
  </g>
  <g
     id="#121a00ff"
     style="display:inline;fill:#000339;fill-opacity:1">
    <path
       fill="#121a00"
       opacity="1"
       d="m 134.85,77.31 c 1.52,-0.18 2.17,1.92 2.22,3.12 -6.78,2.21 -12.24,6.83 -17.16,11.83 7.73,0.37 15.5,0.12 23.2,1.15 0.63,0.94 1.26,1.89 1.9,2.84 -0.88,0.09 -2.63,0.27 -3.5,0.35 -8.79,-1.25 -17.68,-1.01 -26.52,-1.29 2.27,-4 4.61,-8.17 8.36,-10.99 3.59,-2.69 7.48,-5 11.5,-7.01 z"
       id="path31"
       style="fill:#000339;fill-opacity:1" />
  </g>
  <g
     id="#76f331ff"
     style="display:inline">
    <path
       fill="#76f331"
       opacity="1"
       d="m 119.91,92.26 c 4.92,-5 10.38,-9.62 17.16,-11.83 2.86,4.32 5.54,8.76 8.26,13.17 -0.56,-0.05 -1.67,-0.15 -2.22,-0.19 -7.7,-1.03 -15.47,-0.78 -23.2,-1.15 z"
       id="path34" />
  </g>
  <g
     id="#6f0800ff"
     style="display:inline;fill:#de2400;fill-opacity:1">
    <path
       fill="#6f0800"
       opacity="1"
       d="m 78.64,83.85 c 5.36,0.13 10.67,0.91 15.87,2.19 -1.49,1.42 -3.02,2.82 -4.78,3.91 -1.82,-4.5 -7.11,-4.72 -11.09,-6.1 z"
       id="path37"
       style="fill:#de2400;fill-opacity:1" />
  </g>
  <g
     id="#17401fff"
     style="display:inline;fill:#000339;fill-opacity:1">
    <path
       fill="#17401f"
       opacity="1"
       d="m 145.33,93.6 0.5,0.05 c 1.67,2.87 3.26,5.82 4.15,9.05 -2.62,-2.3 -5.49,-4.3 -8.47,-6.1 0.87,-0.08 2.62,-0.26 3.5,-0.35 -0.64,-0.95 -1.27,-1.9 -1.9,-2.84 0.55,0.04 1.66,0.14 2.22,0.19 z"
       id="path40"
       style="fill:#000339;fill-opacity:1" />
  </g>
  <g
     id="#1f68b3ff"
     style="display:inline">
    <path
       fill="#1f68b3"
       opacity="1"
       d="m 160.12,108.8 c 5.34,-4.41 12.25,-5.41 18.86,-6.41 4.13,-0.52 8.41,1.33 11.09,4.46 2.21,2.39 1.41,5.97 0.32,8.69 -1.61,4.43 -4.74,8.06 -8.04,11.33 -0.71,-0.74 -1.35,-1.52 -1.92,-2.35 -0.77,-4.93 0.63,-9.81 0.84,-14.71 -0.46,-2.73 -3.26,-1.14 -4.8,-0.31 -5.07,3.25 -9.22,7.93 -11.79,13.38 -0.78,-1.47 -1.56,-2.95 -2.26,-4.46 -0.14,-3.34 -1.61,-6.39 -2.3,-9.62 z"
       id="path43" />
  </g>
  <g
     id="#122406ff"
     style="display:inline;fill:#000339;fill-opacity:1">
    <path
       fill="#122406"
       opacity="1"
       d="m 176.47,109.5 c 1.54,-0.83 4.34,-2.42 4.8,0.31 -0.21,4.9 -1.61,9.78 -0.84,14.71 0.57,0.83 1.21,1.61 1.92,2.35 -1.24,2.14 -3.67,2.4 -5.89,2.62 0.08,-6.13 1.13,-12.19 1.39,-18.3 -6.45,6.69 -11.54,14.71 -13.95,23.75 0.89,-0.2 2.68,-0.59 3.57,-0.79 -1.72,2.62 -5.01,2.52 -7.78,2.68 1.51,-4.7 2.86,-9.47 4.99,-13.95 2.57,-5.45 6.72,-10.13 11.79,-13.38 z"
       id="path49"
       style="fill:#000339;fill-opacity:1" />
  </g>
  <g
     id="#74f238ff"
     style="display:inline">
    <path
       fill="#74f238"
       opacity="1"
       d="m 163.9,134.94 c 2.41,-9.04 7.5,-17.06 13.95,-23.75 -0.26,6.11 -1.31,12.17 -1.39,18.3 l -0.02,0.84 c -2.94,1.38 -5.88,2.8 -8.97,3.82 -0.89,0.2 -2.68,0.59 -3.57,0.79 z"
       id="path52" />
  </g>
  <g
     id="#190000ff"
     style="display:inline;fill:#000339;fill-opacity:1">
    <path
       fill="#190000"
       opacity="1"
       d="m 116.35,130.36 c 3.33,-4.51 5.08,-9.98 8.48,-14.47 4.76,3.22 5.95,8.94 8.69,13.57 4.37,2.61 9.97,-0.25 14.76,1.18 2.15,1.14 0.32,3.3 -0.13,4.95 -4.96,-2.29 -10.42,-1.02 -15.62,-0.72 -1.22,-0.14 -2.02,-1.15 -2.47,-2.2 -1.67,-3.39 -2.75,-7.02 -4.07,-10.55 -2.37,3.08 -4.47,6.36 -6.23,9.82 -0.84,1.21 -1.35,3.05 -2.98,3.37 -3.72,0.81 -7.52,1.27 -11.18,2.34 -0.03,0.88 -0.07,1.76 -0.1,2.63 -0.01,0.32 -0.03,0.96 -0.05,1.28 -0.63,0.31 -1.27,0.63 -1.9,0.95 -0.39,-0.4 -1.15,-1.21 -1.54,-1.61 -1.44,-2.45 -2.81,-4.95 -4.13,-7.46 4.36,-0.59 8.75,-0.81 13.14,-1.03 1.89,-0.16 4.21,-0.23 5.33,-2.05 z"
       id="path55"
       style="fill:#000339;fill-opacity:1" />
  </g>
  <g
     id="#de2500ff"
     style="display:inline">
    <path
       fill="#de2500"
       opacity="1"
       d="m 119.76,131.94 c 1.76,-3.46 3.86,-6.74 6.23,-9.82 1.32,3.53 2.4,7.16 4.07,10.55 0.45,1.05 1.25,2.06 2.47,2.2 3.37,0.7 6.8,1.05 10.22,1.43 -0.04,1.16 -0.08,2.33 -0.12,3.49 l -0.02,0.57 c -3.37,1.37 -6.97,2.1 -10.61,1.84 -8.83,-0.32 -17.94,0.86 -26.5,-1.92 0.03,-0.87 0.07,-1.75 0.1,-2.63 3.66,-1.07 7.46,-1.53 11.18,-2.34 1.63,-0.32 2.14,-2.16 2.98,-3.37 z"
       id="path58" />
  </g>
  <g
     id="#071c00ff"
     style="display:inline;fill:#000339;fill-opacity:1">
    <path
       fill="#071c00"
       opacity="1"
       d="m 36.38,129.7 c 3.11,1.81 5.73,4.29 8.26,6.83 -1.03,0.72 -2.06,1.45 -3.09,2.18 l -0.6,-0.68 c -2.12,-2.41 -4.39,-4.71 -7.09,-6.47 0.84,-0.62 1.68,-1.24 2.52,-1.86 z"
       id="path61"
       style="fill:#000339;fill-opacity:1" />
  </g>
  <g
     id="#79f03eff"
     style="display:inline">
    <path
       fill="#79f03e"
       opacity="1"
       d="m 27.38,134.38 c 1.89,-1.41 3.92,-3.29 6.48,-2.82 2.7,1.76 4.97,4.06 7.09,6.47 -6.72,1.57 -13.55,3.08 -19.76,6.18 -2.64,1.4 -4.96,3.5 -8.01,3.98 3.94,-5.34 9.04,-9.7 14.2,-13.81 z"
       id="path64" />
  </g>
  <g
     id="#3f0900ff"
     style="display:inline;fill:#000339;fill-opacity:1">
    <path
       fill="#3f0900"
       opacity="1"
       d="m 132.53,134.87 c 5.2,-0.3 10.66,-1.57 15.62,0.72 -0.61,1.33 -1.24,2.66 -1.87,3.98 -1.22,0.06 -2.44,0.14 -3.65,0.22 0.04,-1.16 0.08,-2.33 0.12,-3.49 -3.42,-0.38 -6.85,-0.73 -10.22,-1.43 z"
       id="path67"
       style="fill:#000339;fill-opacity:1" />
  </g>
  <g
     id="#1a4f83ff"
     style="display:inline">
    <path
       fill="#1a4f83"
       opacity="1"
       d="m 32.58,148.45 c 9.78,-3.32 20.27,-2.63 30.43,-2.66 12.17,0.06 24.01,3.32 36.11,4.08 -1.79,1.64 -3.59,3.32 -5.78,4.38 -9.87,4.8 -20.22,9.06 -31.2,10.33 -9.57,1.48 -19.4,2.65 -29.01,0.86 -6.81,-1.46 -14.06,-2.75 -19.53,-7.42 5.62,-4.43 12.34,-7.09 18.98,-9.57 z"
       id="path70" />
  </g>
</svg>
