<?xml version="1.0" encoding="UTF-8" standalone="no"?>
<svg
   width="200pt"
   height="200pt"
   viewBox="0 0 200 200"
   version="1.1"
   id="svg73"
   sodipodi:docname="image_2023-09-12_155228618_waifu2x_art_noise3_scale.svg"
   inkscape:version="1.1.1 (3bf5ae0d25, 2021-09-20)"
   xmlns:inkscape="http://www.inkscape.org/namespaces/inkscape"
   xmlns:sodipodi="http://sodipodi.sourceforge.net/DTD/sodipodi-0.dtd"
   xmlns="http://www.w3.org/2000/svg"
   xmlns:svg="http://www.w3.org/2000/svg">
  <defs
     id="defs77" />
  <sodipodi:namedview
     id="namedview75"
     pagecolor="#ffffff"
     bordercolor="#666666"
     borderopacity="1.0"
     inkscape:pageshadow="2"
     inkscape:pageopacity="0.0"
     inkscape:pagecheckerboard="0"
     inkscape:document-units="pt"
     showgrid="false"
     inkscape:zoom="1.3788582"
     inkscape:cx="131.63065"
     inkscape:cy="170.79348"
     inkscape:window-width="1360"
     inkscape:window-height="705"
     inkscape:window-x="-8"
     inkscape:window-y="-8"
     inkscape:window-maximized="1"
     inkscape:current-layer="svg73" />
  <g
     id="#000207ff">
    <path
       fill="#000207"
       opacity="1.00"
       d=" M 63.34 31.84 C 67.79 29.77 72.20 27.44 76.97 26.21 C 81.96 25.72 86.98 26.05 91.98 25.98 C 97.75 25.74 102.50 29.78 106.50 33.44 C 110.72 38.58 116.47 42.16 120.55 47.43 C 135.38 63.36 147.93 81.46 157.47 101.03 C 159.66 99.72 161.75 98.13 164.24 97.43 C 171.42 95.98 178.76 96.02 186.05 95.61 C 189.91 95.47 192.89 98.26 195.85 100.34 C 196.24 102.31 196.69 104.28 197.08 106.26 C 197.36 108.70 197.37 111.17 197.09 113.61 C 196.41 117.30 196.02 121.10 194.66 124.61 C 189.85 128.55 185.90 133.53 180.51 136.73 C 173.94 141.27 166.05 143.07 158.55 145.43 C 152.98 146.20 147.60 148.13 141.94 148.10 C 137.22 148.18 132.72 149.98 128.00 150.02 C 123.64 150.17 119.28 149.80 114.92 149.95 C 112.06 149.91 110.08 152.31 107.93 153.84 C 99.23 161.25 88.97 166.61 78.23 170.38 C 71.60 172.32 64.77 173.55 58.00 174.83 C 50.67 175.23 43.31 174.87 35.97 175.00 C 29.54 175.11 23.76 172.02 17.72 170.31 C 12.40 168.67 7.29 166.26 2.92 162.78 C 2.87 158.33 3.14 153.87 4.17 149.53 C 9.83 141.24 15.91 132.71 25.08 128.00 C 31.10 125.16 36.25 120.59 42.73 118.73 C 46.44 117.45 50.55 116.98 53.84 114.73 C 55.35 111.02 55.57 106.95 55.98 103.01 C 56.23 99.42 57.68 96.08 58.36 92.57 C 56.63 92.93 54.65 92.90 53.34 94.27 C 48.40 98.54 42.33 101.64 35.91 102.86 C 31.16 103.01 25.36 104.16 21.66 100.35 C 17.96 97.27 17.25 91.88 18.54 87.46 C 23.06 70.64 32.96 55.49 45.72 43.74 C 50.53 39.23 56.33 36.01 61.62 32.14 C 62.05 32.06 62.91 31.91 63.34 31.84 M 54.68 44.69 C 51.36 47.40 48.03 50.57 46.60 54.71 C 45.25 55.53 43.90 56.36 42.55 57.19 L 42.53 57.93 C 38.94 63.28 34.39 68.01 31.60 73.87 C 30.70 75.28 29.58 76.68 29.44 78.42 C 27.17 83.43 25.28 88.74 25.38 94.32 C 33.35 97.34 41.85 94.06 48.38 89.35 C 51.32 87.01 53.87 84.21 56.82 81.88 C 58.78 80.33 60.70 78.74 62.60 77.12 C 59.07 73.64 55.70 69.86 54.15 65.05 C 58.93 65.03 61.39 69.59 65.03 71.88 C 68.47 71.78 69.88 67.65 71.60 65.20 C 71.34 67.89 71.00 70.59 70.14 73.17 C 68.25 75.26 66.72 77.75 66.34 80.59 C 65.40 86.65 64.25 92.67 63.19 98.71 C 61.94 100.72 61.87 103.08 62.11 105.37 C 64.10 105.84 66.16 106.15 68.04 106.98 C 69.69 107.90 69.34 110.13 69.87 111.67 C 68.43 110.26 66.70 109.20 64.98 108.16 C 62.88 109.94 60.37 111.59 59.53 114.37 C 57.85 119.08 55.60 123.56 53.81 128.24 C 53.49 126.20 53.10 124.18 52.62 122.17 C 46.77 123.64 41.39 126.38 36.38 129.70 C 35.54 130.32 34.70 130.94 33.86 131.56 C 31.30 131.09 29.27 132.97 27.38 134.38 C 22.22 138.49 17.12 142.85 13.18 148.19 C 16.23 147.71 18.55 145.61 21.19 144.21 C 27.40 141.11 34.23 139.60 40.95 138.03 L 41.55 138.71 C 42.58 137.98 43.61 137.25 44.64 136.53 C 54.68 137.58 64.79 137.73 74.83 138.65 C 84.01 140.50 93.22 142.99 102.65 142.68 C 102.49 142.23 102.17 141.34 102.01 140.90 C 102.40 141.30 103.16 142.11 103.55 142.51 C 104.18 142.19 104.82 141.87 105.45 141.56 C 105.47 141.24 105.49 140.60 105.50 140.28 C 114.06 143.06 123.17 141.88 132.00 142.20 C 135.64 142.46 139.24 141.73 142.61 140.36 L 142.63 139.79 C 143.84 139.71 145.06 139.63 146.28 139.57 C 150.77 139.90 156.11 139.67 159.69 136.83 C 162.46 136.67 165.75 136.77 167.47 134.15 C 170.56 133.13 173.50 131.71 176.44 130.33 L 176.46 129.49 C 178.68 129.27 181.11 129.01 182.35 126.87 C 185.65 123.60 188.78 119.97 190.39 115.54 C 191.48 112.82 192.28 109.24 190.07 106.85 C 187.39 103.72 183.11 101.87 178.98 102.39 C 172.37 103.39 165.46 104.39 160.12 108.80 C 160.81 112.03 162.28 115.08 162.42 118.42 L 161.63 116.85 C 156.35 113.44 154.12 107.20 149.98 102.70 C 149.09 99.47 147.50 96.52 145.83 93.65 L 145.33 93.60 C 142.61 89.19 139.93 84.75 137.07 80.43 C 137.02 79.23 136.37 77.13 134.85 77.31 C 131.27 73.01 129.16 67.59 125.17 63.68 C 124.84 64.19 124.18 65.22 123.85 65.73 C 123.02 63.59 122.26 61.42 121.55 59.24 C 118.20 55.32 114.73 51.51 111.40 47.58 C 107.44 43.94 103.30 40.48 99.41 36.75 L 99.15 35.99 C 97.89 35.93 96.64 35.88 95.39 35.83 C 93.40 32.32 88.56 32.58 85.04 32.65 C 73.81 32.77 63.47 38.09 54.68 44.69 M 32.58 148.45 C 25.94 150.93 19.22 153.59 13.60 158.02 C 19.07 162.69 26.32 163.98 33.13 165.44 C 42.74 167.23 52.57 166.06 62.14 164.58 C 73.12 163.31 83.47 159.05 93.34 154.25 C 95.53 153.19 97.33 151.51 99.12 149.87 C 87.02 149.11 75.18 145.85 63.01 145.79 C 52.85 145.82 42.36 145.13 32.58 148.45 Z"
       id="path2" />
  </g>
  <g
     id="#2367bcff">
    <path
       fill="#2367bc"
       opacity="1.00"
       d=" M 54.68 44.69 C 63.47 38.09 73.81 32.77 85.04 32.65 C 88.56 32.58 93.40 32.32 95.39 35.83 C 96.81 40.54 98.79 45.13 99.65 49.99 C 97.52 55.84 92.17 59.90 90.11 65.85 C 89.67 67.08 89.49 68.38 89.22 69.66 C 96.53 68.05 102.79 63.67 109.87 61.36 C 111.28 66.09 111.55 71.09 113.16 75.77 C 113.77 77.70 115.93 78.25 117.50 79.16 C 120.16 74.94 121.21 69.95 123.85 65.73 C 124.18 65.22 124.84 64.19 125.17 63.68 C 129.16 67.59 131.27 73.01 134.85 77.31 C 130.83 79.32 126.94 81.63 123.35 84.32 C 119.60 87.14 117.26 91.31 114.99 95.31 C 123.83 95.59 132.72 95.35 141.51 96.60 C 144.49 98.40 147.36 100.40 149.98 102.70 C 154.12 107.20 156.35 113.44 161.63 116.85 L 162.42 118.42 C 163.12 119.93 163.90 121.41 164.68 122.88 C 162.55 127.36 161.20 132.13 159.69 136.83 C 156.11 139.67 150.77 139.90 146.28 139.57 C 146.91 138.25 147.54 136.92 148.15 135.59 C 148.60 133.94 150.43 131.78 148.28 130.64 C 143.49 129.21 137.89 132.07 133.52 129.46 C 130.78 124.83 129.59 119.11 124.83 115.89 C 121.43 120.38 119.68 125.85 116.35 130.36 C 115.23 132.18 112.91 132.25 111.02 132.41 C 106.63 132.63 102.24 132.85 97.88 133.44 C 99.20 135.95 100.57 138.45 102.01 140.90 C 102.17 141.34 102.49 142.23 102.65 142.68 C 93.22 142.99 84.01 140.50 74.83 138.65 C 64.79 137.73 54.68 137.58 44.64 136.53 C 42.11 133.99 39.49 131.51 36.38 129.70 C 41.39 126.38 46.77 123.64 52.62 122.17 C 53.10 124.18 53.49 126.20 53.81 128.24 C 55.60 123.56 57.85 119.08 59.53 114.37 C 60.37 111.59 62.88 109.94 64.98 108.16 C 66.70 109.20 68.43 110.26 69.87 111.67 C 73.92 115.59 78.52 118.96 81.90 123.53 C 82.92 123.60 83.93 123.67 84.95 123.74 C 84.30 116.06 82.71 108.51 81.45 100.92 C 86.80 97.22 91.68 92.93 96.54 88.63 C 97.87 87.55 98.62 86.00 99.35 84.49 C 94.77 81.74 89.60 80.42 84.48 79.15 C 81.70 78.53 80.76 75.49 80.37 73.02 C 79.69 68.39 79.37 63.69 78.26 59.12 C 74.62 59.12 72.91 62.33 71.60 65.20 C 69.88 67.65 68.47 71.78 65.03 71.88 C 61.39 69.59 58.93 65.03 54.15 65.05 C 55.70 69.86 59.07 73.64 62.60 77.12 C 60.70 78.74 58.78 80.33 56.82 81.88 C 53.29 79.88 50.11 77.34 47.17 74.55 C 45.85 68.03 46.31 61.31 46.60 54.71 C 48.03 50.57 51.36 47.40 54.68 44.69 Z"
       id="path5" />
  </g>
  <g
     id="#140000ff">
    <path
       fill="#140000"
       opacity="1.00"
       d=" M 95.39 35.83 C 96.64 35.88 97.89 35.93 99.15 35.99 L 99.41 36.75 C 100.65 40.87 102.89 44.72 103.44 49.03 C 102.91 53.67 99.97 57.52 97.30 61.18 C 96.80 61.12 95.82 60.99 95.33 60.93 C 93.40 62.36 91.68 64.04 90.11 65.85 C 92.17 59.90 97.52 55.84 99.65 49.99 C 98.79 45.13 96.81 40.54 95.39 35.83 Z"
       id="path8" />
  </g>
  <g
     id="#d52400ff">
    <path
       fill="#d52400"
       opacity="1.00"
       d=" M 103.44 49.03 C 102.89 44.72 100.65 40.87 99.41 36.75 C 103.30 40.48 107.44 43.94 111.40 47.58 C 114.73 51.51 118.20 55.32 121.55 59.24 C 120.49 62.66 118.80 65.86 116.18 68.34 C 114.96 64.25 113.61 60.20 112.01 56.24 C 107.09 57.16 102.69 59.60 98.02 61.25 C 97.84 61.23 97.48 61.19 97.30 61.18 C 99.97 57.52 102.91 53.67 103.44 49.03 Z"
       id="path11" />
  </g>
  <g
     id="#192e00ff">
    <path
       fill="#192e00"
       opacity="1.00"
       d=" M 42.55 57.19 C 43.90 56.36 45.25 55.53 46.60 54.71 C 46.31 61.31 45.85 68.03 47.17 74.55 C 47.88 77.55 48.52 80.57 48.97 83.63 C 45.35 84.24 41.58 85.00 37.97 83.91 C 34.61 83.07 31.87 80.79 29.44 78.42 C 29.58 76.68 30.70 75.28 31.60 73.87 C 31.60 74.36 31.59 75.35 31.58 75.85 C 35.43 78.75 39.74 81.35 44.78 81.04 C 42.42 73.56 41.90 65.72 42.53 57.93 L 42.55 57.19 Z"
       id="path14" />
  </g>
  <g
     id="#2b0000ff">
    <path
       fill="#2b0000"
       opacity="1.00"
       d=" M 98.02 61.25 C 102.69 59.60 107.09 57.16 112.01 56.24 C 113.61 60.20 114.96 64.25 116.18 68.34 C 118.80 65.86 120.49 62.66 121.55 59.24 C 122.26 61.42 123.02 63.59 123.85 65.73 C 121.21 69.95 120.16 74.94 117.50 79.16 C 115.93 78.25 113.77 77.70 113.16 75.77 C 111.55 71.09 111.28 66.09 109.87 61.36 C 102.79 63.67 96.53 68.05 89.22 69.66 C 89.49 68.38 89.67 67.08 90.11 65.85 C 91.68 64.04 93.40 62.36 95.33 60.93 C 95.82 60.99 96.80 61.12 97.30 61.18 C 97.48 61.19 97.84 61.23 98.02 61.25 Z"
       id="path17" />
    <path
       fill="#2b0000"
       opacity="1.00"
       d=" M 71.60 65.20 C 72.91 62.33 74.62 59.12 78.26 59.12 C 79.37 63.69 79.69 68.39 80.37 73.02 C 80.76 75.49 81.70 78.53 84.48 79.15 C 89.60 80.42 94.77 81.74 99.35 84.49 C 98.62 86.00 97.87 87.55 96.54 88.63 C 91.68 92.93 86.80 97.22 81.45 100.92 C 82.71 108.51 84.30 116.06 84.95 123.74 C 83.93 123.67 82.92 123.60 81.90 123.53 C 78.52 118.96 73.92 115.59 69.87 111.67 C 69.34 110.13 69.69 107.90 68.04 106.98 C 66.16 106.15 64.10 105.84 62.11 105.37 C 61.87 103.08 61.94 100.72 63.19 98.71 C 63.05 99.61 62.76 101.40 62.62 102.30 C 65.91 103.85 69.33 105.37 71.91 108.02 C 74.23 110.39 76.56 112.84 79.65 114.19 C 79.42 109.00 77.70 104.04 77.22 98.89 C 80.29 94.78 85.41 92.62 89.73 89.95 C 91.49 88.86 93.02 87.46 94.51 86.04 C 89.31 84.76 84.00 83.98 78.64 83.85 C 78.08 83.74 76.95 83.53 76.39 83.42 C 76.51 78.10 76.01 72.81 75.19 67.57 C 73.48 69.41 71.77 71.25 70.14 73.17 C 71.00 70.59 71.34 67.89 71.60 65.20 Z"
       id="path19" />
  </g>
  <g
     id="#72e834ff">
    <path
       fill="#72e834"
       opacity="1.00"
       d=" M 42.53 57.93 C 41.90 65.72 42.42 73.56 44.78 81.04 C 39.74 81.35 35.43 78.75 31.58 75.85 C 31.59 75.35 31.60 74.36 31.60 73.87 C 34.39 68.01 38.94 63.28 42.53 57.93 Z"
       id="path22" />
  </g>
  <g
     id="#de2400ff">
    <path
       fill="#de2400"
       opacity="1.00"
       d=" M 70.14 73.17 C 71.77 71.25 73.48 69.41 75.19 67.57 C 76.01 72.81 76.51 78.10 76.39 83.42 C 76.95 83.53 78.08 83.74 78.64 83.85 C 82.62 85.23 87.91 85.45 89.73 89.95 C 85.41 92.62 80.29 94.78 77.22 98.89 C 77.70 104.04 79.42 109.00 79.65 114.19 C 76.56 112.84 74.23 110.39 71.91 108.02 C 69.33 105.37 65.91 103.85 62.62 102.30 C 62.76 101.40 63.05 99.61 63.19 98.71 C 64.25 92.67 65.40 86.65 66.34 80.59 C 66.72 77.75 68.25 75.26 70.14 73.17 Z"
       id="path25" />
  </g>
  <g
     id="#1e69b5ff">
    <path
       fill="#1e69b5"
       opacity="1.00"
       d=" M 47.17 74.55 C 50.11 77.34 53.29 79.88 56.82 81.88 C 53.87 84.21 51.32 87.01 48.38 89.35 C 41.85 94.06 33.35 97.34 25.38 94.32 C 25.28 88.74 27.17 83.43 29.44 78.42 C 31.87 80.79 34.61 83.07 37.97 83.91 C 41.58 85.00 45.35 84.24 48.97 83.63 C 48.52 80.57 47.88 77.55 47.17 74.55 Z"
       id="path28" />
  </g>
  <g
     id="#121a00ff">
    <path
       fill="#121a00"
       opacity="1.00"
       d=" M 134.85 77.31 C 136.37 77.13 137.02 79.23 137.07 80.43 C 130.29 82.64 124.83 87.26 119.91 92.26 C 127.64 92.63 135.41 92.38 143.11 93.41 C 143.74 94.35 144.37 95.30 145.01 96.25 C 144.13 96.34 142.38 96.52 141.51 96.60 C 132.72 95.35 123.83 95.59 114.99 95.31 C 117.26 91.31 119.60 87.14 123.35 84.32 C 126.94 81.63 130.83 79.32 134.85 77.31 Z"
       id="path31" />
  </g>
  <g
     id="#76f331ff">
    <path
       fill="#76f331"
       opacity="1.00"
       d=" M 119.91 92.26 C 124.83 87.26 130.29 82.64 137.07 80.43 C 139.93 84.75 142.61 89.19 145.33 93.60 C 144.77 93.55 143.66 93.45 143.11 93.41 C 135.41 92.38 127.64 92.63 119.91 92.26 Z"
       id="path34" />
  </g>
  <g
     id="#6f0800ff"
     style="fill:#de2400;fill-opacity:1">
    <path
       fill="#6f0800"
       opacity="1.00"
       d=" M 78.64 83.85 C 84.00 83.98 89.31 84.76 94.51 86.04 C 93.02 87.46 91.49 88.86 89.73 89.95 C 87.91 85.45 82.62 85.23 78.64 83.85 Z"
       id="path37"
       style="fill:#de2400;fill-opacity:1" />
  </g>
  <g
     id="#17401fff">
    <path
       fill="#17401f"
       opacity="1.00"
       d=" M 145.33 93.60 L 145.83 93.65 C 147.50 96.52 149.09 99.47 149.98 102.70 C 147.36 100.40 144.49 98.40 141.51 96.60 C 142.38 96.52 144.13 96.34 145.01 96.25 C 144.37 95.30 143.74 94.35 143.11 93.41 C 143.66 93.45 144.77 93.55 145.33 93.60 Z"
       id="path40" />
  </g>
  <g
     id="#1f68b3ff">
    <path
       fill="#1f68b3"
       opacity="1.00"
       d=" M 160.12 108.80 C 165.46 104.39 172.37 103.39 178.98 102.39 C 183.11 101.87 187.39 103.72 190.07 106.85 C 192.28 109.24 191.48 112.82 190.39 115.54 C 188.78 119.97 185.65 123.60 182.35 126.87 C 181.64 126.13 181.00 125.35 180.43 124.52 C 179.66 119.59 181.06 114.71 181.27 109.81 C 180.81 107.08 178.01 108.67 176.47 109.50 C 171.40 112.75 167.25 117.43 164.68 122.88 C 163.90 121.41 163.12 119.93 162.42 118.42 C 162.28 115.08 160.81 112.03 160.12 108.80 Z"
       id="path43" />
  </g>
  <g
     id="#122406ff">
    <path
       fill="#122406"
       opacity="1.00"
       d=" M 176.47 109.50 C 178.01 108.67 180.81 107.08 181.27 109.81 C 181.06 114.71 179.66 119.59 180.43 124.52 C 181.00 125.35 181.64 126.13 182.35 126.87 C 181.11 129.01 178.68 129.27 176.46 129.49 C 176.54 123.36 177.59 117.30 177.85 111.19 C 171.40 117.88 166.31 125.90 163.90 134.94 C 164.79 134.74 166.58 134.35 167.47 134.15 C 165.75 136.77 162.46 136.67 159.69 136.83 C 161.20 132.13 162.55 127.36 164.68 122.88 C 167.25 117.43 171.40 112.75 176.47 109.50 Z"
       id="path49" />
  </g>
  <g
     id="#74f238ff">
    <path
       fill="#74f238"
       opacity="1.00"
       d=" M 163.90 134.94 C 166.31 125.90 171.40 117.88 177.85 111.19 C 177.59 117.30 176.54 123.36 176.46 129.49 L 176.44 130.33 C 173.50 131.71 170.56 133.13 167.47 134.15 C 166.58 134.35 164.79 134.74 163.90 134.94 Z"
       id="path52" />
  </g>
  <g
     id="#190000ff">
    <path
       fill="#190000"
       opacity="1.00"
       d=" M 116.35 130.36 C 119.68 125.85 121.43 120.38 124.83 115.89 C 129.59 119.11 130.78 124.83 133.52 129.46 C 137.89 132.07 143.49 129.21 148.28 130.64 C 150.43 131.78 148.60 133.94 148.15 135.59 C 143.19 133.30 137.73 134.57 132.53 134.87 C 131.31 134.73 130.51 133.72 130.06 132.67 C 128.39 129.28 127.31 125.65 125.99 122.12 C 123.62 125.20 121.52 128.48 119.76 131.94 C 118.92 133.15 118.41 134.99 116.78 135.31 C 113.06 136.12 109.26 136.58 105.60 137.65 C 105.57 138.53 105.53 139.41 105.50 140.28 C 105.49 140.60 105.47 141.24 105.45 141.56 C 104.82 141.87 104.18 142.19 103.55 142.51 C 103.16 142.11 102.40 141.30 102.01 140.90 C 100.57 138.45 99.20 135.95 97.88 133.44 C 102.24 132.85 106.63 132.63 111.02 132.41 C 112.91 132.25 115.23 132.18 116.35 130.36 Z"
       id="path55" />
  </g>
  <g
     id="#de2500ff">
    <path
       fill="#de2500"
       opacity="1.00"
       d=" M 119.76 131.94 C 121.52 128.48 123.62 125.20 125.99 122.12 C 127.31 125.65 128.39 129.28 130.06 132.67 C 130.51 133.72 131.31 134.73 132.53 134.87 C 135.90 135.57 139.33 135.92 142.75 136.30 C 142.71 137.46 142.67 138.63 142.63 139.79 L 142.61 140.36 C 139.24 141.73 135.64 142.46 132.00 142.20 C 123.17 141.88 114.06 143.06 105.50 140.28 C 105.53 139.41 105.57 138.53 105.60 137.65 C 109.26 136.58 113.06 136.12 116.78 135.31 C 118.41 134.99 118.92 133.15 119.76 131.94 Z"
       id="path58" />
  </g>
  <g
     id="#071c00ff">
    <path
       fill="#071c00"
       opacity="1.00"
       d=" M 36.38 129.70 C 39.49 131.51 42.11 133.99 44.64 136.53 C 43.61 137.25 42.58 137.98 41.55 138.71 L 40.95 138.03 C 38.83 135.62 36.56 133.32 33.86 131.56 C 34.70 130.94 35.54 130.32 36.38 129.70 Z"
       id="path61" />
  </g>
  <g
     id="#79f03eff">
    <path
       fill="#79f03e"
       opacity="1.00"
       d=" M 27.38 134.38 C 29.27 132.97 31.30 131.09 33.86 131.56 C 36.56 133.32 38.83 135.62 40.95 138.03 C 34.23 139.60 27.40 141.11 21.19 144.21 C 18.55 145.61 16.23 147.71 13.18 148.19 C 17.12 142.85 22.22 138.49 27.38 134.38 Z"
       id="path64" />
  </g>
  <g
     id="#3f0900ff">
    <path
       fill="#3f0900"
       opacity="1.00"
       d=" M 132.53 134.87 C 137.73 134.57 143.19 133.30 148.15 135.59 C 147.54 136.92 146.91 138.25 146.28 139.57 C 145.06 139.63 143.84 139.71 142.63 139.79 C 142.67 138.63 142.71 137.46 142.75 136.30 C 139.33 135.92 135.90 135.57 132.53 134.87 Z"
       id="path67" />
  </g>
  <g
     id="#1a4f83ff">
    <path
       fill="#1a4f83"
       opacity="1.00"
       d=" M 32.58 148.45 C 42.36 145.13 52.85 145.82 63.01 145.79 C 75.18 145.85 87.02 149.11 99.12 149.87 C 97.33 151.51 95.53 153.19 93.34 154.25 C 83.47 159.05 73.12 163.31 62.14 164.58 C 52.57 166.06 42.74 167.23 33.13 165.44 C 26.32 163.98 19.07 162.69 13.60 158.02 C 19.22 153.59 25.94 150.93 32.58 148.45 Z"
       id="path70" />
  </g>
</svg>
